P3
# Rays 2018
64 64
255
12 12 12
13 13 13
12 12 12
13 13 13
12 12 12
12 12 12
13 13 13
12 12 12
12 12 12
12 12 12
12 12 12
16 16 16
12 12 12
12 12 12
12 12 12
12 12 12
13 13 13
27 27 27
12 12 12
22 22 22
13 13 13
12 12 12
12 12 12
13 13 13
13 13 13
12 12 12
13 13 13
12 12 12
13 13 13
12 12 12
13 13 13
12 12 12
12 12 12
12 12 12
12 12 12
12 12 12
12 12 12
12 12 12
13 13 13
12 12 12
22 22 22
12 12 12
12 12 12
13 13 13
14 14 14
16 16 16
13 13 13
20 20 20
12 12 12
13 13 13
12 12 12
12 12 12
14 14 14
22 22 22
12 12 12
12 12 12
17 17 17
12 12 12
12 12 12
12 12 12
23 23 23
12 12 12
13 13 13
12 12 12
12 12 12
12 12 12
12 12 12
13 13 13
13 13 13
13 13 13
12 12 12
12 12 12
12 12 12
12 12 12
12 12 12
12 12 12
35 35 35
14 14 14
13 13 13
12 12 12
12 12 12
12 12 12
14 14 14
13 13 13
16 16 16
12 12 12
21 21 21
13 13 13
12 12 12
12 12 12
12 12 12
12 12 12
12 12 12
12 12 12
13 13 13
12 12 12
12 12 12
12 12 12
12 12 12
12 12 12
22 22 22
13 13 13
12 12 12
12 12 12
13 13 13
12 12 12
12 12 12
12 12 12
13 13 13
12 12 12
12 12 12
12 12 12
18 18 18
12 12 12
12 12 12
12 12 12
17 17 17
12 12 12
12 12 12
12 12 12
12 12 12
13 13 13
12 12 12
12 12 12
12 12 12
12 12 12
13 13 13
13 13 13
12 12 12
12 12 12
13 13 13
12 12 12
12 12 12
13 13 13
13 13 13
13 13 13
14 14 14
12 12 12
13 13 13
13 13 13
12 12 12
12 12 12
12 12 12
12 12 12
19 19 19
12 12 12
12 12 12
12 12 12
12 12 12
12 12 12
13 13 13
12 12 12
12 12 12
12 12 12
12 12 12
12 12 12
12 12 12
13 13 13
13 13 13
12 12 12
12 12 12
12 12 12
12 12 12
16 16 16
12 12 12
12 12 12
12 12 12
14 14 14
12 12 12
12 12 12
12 12 12
13 13 13
13 13 13
12 12 12
12 12 12
13 13 13
13 13 13
12 12 12
12 12 12
35 35 35
12 12 12
12 12 12
12 12 12
13 13 13
17 17 17
12 12 12
13 13 13
14 14 14
12 12 12
16 16 16
13 13 13
13 13 13
12 12 12
20 20 20
12 12 12
12 12 12
13 13 13
12 12 12
13 13 13
12 12 12
13 13 13
12 12 12
12 12 12
12 12 12
13 13 13
26 26 26
16 16 16
35 35 35
12 12 12
23 23 23
12 12 12
16 16 16
12 12 12
13 13 13
16 16 16
12 12 12
12 12 12
22 22 22
22 22 22
12 12 12
12 12 12
12 12 12
13 13 13
22 22 22
12 12 12
12 12 12
12 12 12
12 12 12
13 13 13
12 12 12
12 12 12
12 12 12
12 12 12
12 12 12
14 14 14
12 12 12
12 12 12
12 12 12
12 12 12
12 12 12
12 12 12
23 23 23
12 12 12
13 13 13
12 12 12
12 12 12
12 12 12
12 12 12
26 26 26
12 12 12
21 21 21
12 12 12
12 12 12
13 13 13
12 12 12
12 12 12
17 17 17
13 13 13
12 12 12
12 12 12
15 15 15
13 13 13
20 20 20
12 12 12
12 12 12
12 12 12
13 13 13
12 12 12
14 14 14
16 16 16
22 22 22
12 12 12
14 14 14
13 13 13
14 14 14
22 22 22
12 12 12
16 16 16
12 12 12
12 12 12
12 12 12
16 16 16
13 13 13
12 12 12
12 12 12
12 12 12
12 12 12
13 13 13
13 13 13
22 22 22
13 13 13
13 13 13
12 12 12
12 12 12
12 12 12
13 13 13
12 12 12
12 12 12
13 13 13
12 12 12
12 12 12
12 12 12
12 12 12
12 12 12
12 12 12
12 12 12
12 12 12
13 13 13
22 22 22
12 12 12
12 12 12
22 22 22
12 12 12
12 12 12
13 13 13
12 12 12
14 14 14
13 13 13
12 12 12
20 20 20
12 12 12
12 12 12
12 12 12
12 12 12
12 12 12
13 13 13
12 12 12
16 16 16
12 12 12
12 12 12
12 12 12
12 12 12
12 12 12
12 12 12
12 12 12
12 12 12
12 12 12
12 12 12
12 12 12
12 12 12
13 13 13
17 17 17
12 12 12
12 12 12
16 16 16
20 20 20
13 13 13
12 12 12
22 22 22
13 13 13
13 13 13
13 13 13
12 12 12
12 12 12
12 12 12
12 12 12
13 13 13
13 13 13
16 16 16
16 16 16
12 12 12
23 23 23
12 12 12
12 12 12
13 13 13
22 22 22
12 12 12
12 12 12
22 22 22
12 12 12
16 16 16
16 16 16
12 12 12
12 12 12
12 12 12
12 12 12
22 22 22
12 12 12
12 12 12
12 12 12
13 13 13
22 22 22
22 22 22
13 13 13
12 12 12
13 13 13
12 12 12
12 12 12
16 16 16
17 17 17
13 13 13
16 16 16
12 12 12
12 12 12
12 12 12
13 13 13
35 35 35
12 12 12
14 14 14
12 12 12
13 13 13
13 13 13
12 12 12
12 12 12
12 12 12
13 13 13
12 12 12
16 16 16
12 12 12
13 13 13
12 12 12
13 13 13
19 19 19
12 12 12
12 12 12
12 12 12
12 12 12
22 22 22
12 12 12
12 12 12
16 16 16
16 16 16
12 12 12
12 12 12
12 12 12
12 12 12
12 12 12
12 12 12
16 16 16
12 12 12
12 12 12
13 13 13
13 13 13
12 12 12
12 12 12
12 12 12
22 22 22
12 12 12
12 12 12
12 12 12
12 12 12
13 13 13
16 16 16
17 17 17
13 13 13
16 16 16
12 12 12
13 13 13
12 12 12
12 12 12
12 12 12
16 16 16
12 12 12
13 13 13
13 13 13
33 33 33
12 12 12
12 12 12
12 12 12
12 12 12
13 13 13
13 13 13
12 12 12
16 16 16
12 12 12
12 12 12
16 16 16
22 22 22
12 12 12
12 12 12
12 12 12
12 12 12
12 12 12
12 12 12
12 12 12
14 14 14
12 12 12
13 13 13
12 12 12
12 12 12
12 12 12
12 12 12
12 12 12
13 13 13
13 13 13
16 16 16
12 12 12
12 12 12
12 12 12
13 13 13
13 13 13
12 12 12
21 21 21
17 17 17
13 13 13
12 12 12
12 12 12
12 12 12
24 24 24
12 12 12
12 12 12
13 13 13
12 12 12
13 13 13
12 12 12
12 12 12
12 12 12
12 12 12
32 32 32
12 12 12
14 14 14
12 12 12
12 12 12
16 16 16
13 13 13
12 12 12
12 12 12
12 12 12
12 12 12
12 12 12
22 22 22
19 19 19
12 12 12
13 13 13
12 12 12
13 13 13
12 12 12
14 14 14
12 12 12
12 12 12
18 18 18
12 12 12
12 12 12
12 12 12
13 13 13
12 12 12
12 12 12
17 17 17
12 12 12
12 12 12
12 12 12
12 12 12
14 14 14
12 12 12
12 12 12
12 12 12
12 12 12
12 12 12
13 13 13
16 16 16
12 12 12
12 12 12
20 20 20
13 13 13
13 13 13
13 13 13
13 13 13
12 12 12
13 13 13
12 12 12
14 14 14
16 16 16
12 12 12
12 12 12
12 12 12
13 13 13
12 12 12
12 12 12
13 13 13
14 14 14
16 16 16
12 12 12
13 13 13
12 12 12
12 12 12
12 12 12
13 13 13
12 12 12
13 13 13
12 12 12
12 12 12
12 12 12
14 14 14
12 12 12
12 12 12
13 13 13
12 12 12
12 12 12
12 12 12
13 13 13
12 12 12
12 12 12
12 12 12
13 13 13
14 14 14
12 12 12
13 13 13
12 12 12
12 12 12
13 13 13
12 12 12
17 17 17
12 12 12
12 12 12
12 12 12
13 13 13
16 16 16
13 13 13
12 12 12
12 12 12
13 13 13
13 13 13
12 12 12
13 13 13
12 12 12
12 12 12
22 22 22
26 26 26
13 13 13
12 12 12
12 12 12
16 16 16
12 12 12
12 12 12
12 12 12
12 12 12
23 23 23
16 16 16
13 13 13
13 13 13
12 12 12
12 12 12
14 14 14
22 22 22
22 22 22
13 13 13
12 12 12
12 12 12
14 14 14
12 12 12
12 12 12
12 12 12
12 12 12
13 13 13
12 12 12
16 16 16
13 13 13
12 12 12
12 12 12
12 12 12
12 12 12
13 13 13
13 13 13
12 12 12
12 12 12
13 13 13
12 12 12
12 12 12
12 12 12
12 12 12
12 12 12
22 22 22
12 12 12
12 12 12
13 13 13
13 13 13
12 12 12
12 12 12
22 22 22
13 13 13
13 13 13
12 12 12
12 12 12
12 12 12
12 12 12
13 13 13
12 12 12
12 12 12
12 12 12
17 17 17
13 13 13
13 13 13
14 14 14
17 17 17
13 13 13
16 16 16
12 12 12
13 13 13
12 12 12
13 13 13
12 12 12
13 13 13
12 12 12
12 12 12
12 12 12
12 12 12
16 16 16
12 12 12
13 13 13
13 13 13
12 12 12
12 12 12
22 22 22
12 12 12
13 13 13
12 12 12
15 15 15
12 12 12
12 12 12
12 12 12
16 16 16
12 12 12
12 12 12
13 13 13
12 12 12
12 12 12
13 13 13
12 12 12
13 13 13
12 12 12
13 13 13
12 12 12
12 12 12
12 12 12
12 12 12
21 21 21
13 13 13
12 12 12
12 12 12
12 12 12
12 12 12
16 16 16
12 12 12
22 22 22
13 13 13
12 12 12
12 12 12
12 12 12
13 13 13
17 17 17
12 12 12
12 12 12
12 12 12
14 14 14
12 12 12
12 12 12
12 12 12
12 12 12
12 12 12
12 12 12
12 12 12
12 12 12
13 13 13
13 13 13
17 17 17
12 12 12
12 12 12
12 12 12
12 12 12
12 12 12
12 12 12
20 20 20
13 13 13
12 12 12
12 12 12
17 17 17
12 12 12
12 12 12
13 13 13
13 13 13
13 13 13
12 12 12
12 12 12
12 12 12
12 12 12
12 12 12
13 13 13
12 12 12
12 12 12
12 12 12
12 12 12
16 16 16
12 12 12
14 14 14
13 13 13
16 16 16
12 12 12
13 13 13
13 13 13
12 12 12
13 13 13
12 12 12
12 12 12
12 12 12
13 13 13
16 16 16
12 12 12
12 12 12
14 14 14
13 13 13
14 14 14
14 14 14
13 13 13
14 14 14
12 12 12
12 12 12
12 12 12
12 12 12
13 13 13
12 12 12
23 23 23
12 12 12
12 12 12
12 12 12
12 12 12
12 12 12
24 24 24
12 12 12
12 12 12
12 12 12
12 12 12
12 12 12
12 12 12
12 12 12
16 16 16
16 16 16
13 13 13
12 12 12
12 12 12
13 13 13
13 13 13
13 13 13
17 17 17
12 12 12
22 22 22
16 16 16
14 14 14
12 12 12
12 12 12
12 12 12
16 16 16
13 13 13
12 12 12
13 13 13
14 14 14
12 12 12
15 15 15
12 12 12
12 12 12
13 13 13
12 12 12
12 12 12
12 12 12
12 12 12
12 12 12
13 13 13
20 20 20
12 12 12
12 12 12
16 16 16
12 12 12
12 12 12
12 12 12
13 13 13
14 14 14
15 15 15
18 18 18
13 13 13
12 12 12
13 13 13
12 12 12
12 12 12
12 12 12
12 12 12
12 12 12
12 12 12
12 12 12
12 12 12
12 12 12
12 12 12
15 15 15
13 13 13
12 12 12
16 16 16
12 12 12
12 12 12
12 12 12
12 12 12
17 17 17
12 12 12
24 24 24
12 12 12
13 13 13
23 23 23
14 14 14
26 26 26
22 22 22
12 12 12
14 14 14
13 13 13
12 12 12
12 12 12
12 12 12
12 12 12
13 13 13
13 13 13
12 12 12
13 13 13
12 12 12
12 12 12
12 12 12
12 12 12
13 13 13
12 12 12
12 12 12
13 13 13
13 13 13
12 12 12
29 29 29
14 14 14
12 12 12
13 13 13
12 12 12
12 12 12
12 12 12
15 15 15
16 16 16
15 15 15
15 15 15
14 14 14
15 15 15
14 14 14
15 15 15
12 12 12
12 12 12
12 12 12
13 13 13
12 12 12
13 13 13
12 12 12
13 13 13
12 12 12
13 13 13
21 21 21
12 12 12
16 16 16
14 14 14
12 12 12
13 13 13
12 12 12
12 12 12
13 13 13
16 16 16
13 13 13
21 21 21
13 13 13
12 12 12
12 12 12
12 12 12
12 12 12
12 12 12
12 12 12
12 12 12
13 13 13
17 17 17
12 12 12
12 12 12
16 16 16
12 12 12
16 16 16
12 12 12
12 12 12
12 12 12
12 12 12
12 12 12
12 12 12
16 16 16
14 14 14
13 13 13
13 13 13
13 13 13
13 13 13
13 13 13
12 12 12
13 13 13
12 12 12
14 14 14
12 12 12
14 14 14
16 16 16
18 18 18
20 20 20
14 14 14
15 15 15
14 14 14
14 14 14
14 14 14
12 12 12
12 12 12
12 12 12
12 12 12
22 22 22
13 13 13
12 12 12
12 12 12
12 12 12
12 12 12
12 12 12
12 12 12
12 12 12
12 12 12
22 22 22
12 12 12
12 12 12
12 12 12
12 12 12
12 12 12
13 13 13
14 14 14
23 23 23
13 13 13
13 13 13
12 12 12
12 12 12
12 12 12
13 13 13
16 16 16
13 13 13
12 12 12
12 12 12
12 12 12
12 12 12
12 12 12
13 13 13
12 12 12
12 12 12
37 37 37
12 12 12
22 22 22
14 14 14
13 13 13
12 12 12
13 13 13
13 13 13
12 12 12
12 12 12
12 12 12
13 13 13
12 12 12
19 19 19
16 16 16
13 13 13
13 13 13
14 14 14
16 16 16
14 14 14
15 15 15
16 16 16
16 16 16
25 25 25
16 16 16
12 12 12
22 22 22
12 12 12
13 13 13
17 17 17
13 13 13
14 14 14
12 12 12
13 13 13
13 13 13
12 12 12
12 12 12
12 12 12
13 13 13
12 12 12
12 12 12
12 12 12
12 12 12
14 14 14
12 12 12
12 12 12
13 13 13
13 13 13
14 14 14
13 13 13
13 13 13
24 24 24
12 12 12
13 13 13
12 12 12
12 12 12
12 12 12
17 17 17
14 14 14
17 17 17
12 12 12
12 12 12
16 16 16
12 12 12
12 12 12
12 12 12
12 12 12
12 12 12
16 16 16
12 12 12
13 13 13
12 12 12
12 12 12
13 13 13
13 13 13
12 12 12
16 16 16
13 13 13
12 12 12
15 15 15
14 14 14
15 15 15
17 17 17
15 15 15
15 15 15
16 16 16
15 15 15
26 26 26
17 17 17
18 18 18
12 12 12
13 13 13
17 17 17
14 14 14
12 12 12
12 12 12
21 21 21
17 17 17
12 12 12
12 12 12
12 12 12
12 12 12
13 13 13
13 13 13
12 12 12
23 23 23
12 12 12
12 12 12
12 12 12
12 12 12
12 12 12
12 12 12
14 14 14
12 12 12
12 12 12
12 12 12
12 12 12
17 17 17
12 12 12
13 13 13
14 14 14
13 13 13
12 12 12
12 12 12
13 13 13
12 12 12
64 64 64
22 22 22
12 12 12
23 23 23
13 13 13
12 12 12
12 12 12
12 12 12
12 12 12
13 13 13
12 12 12
13 13 13
14 14 14
22 22 22
12 12 12
16 16 16
12 12 12
13 13 13
16 16 16
20 20 20
16 16 16
17 17 17
16 16 16
16 16 16
15 15 15
17 17 17
16 16 16
68 68 68
12 12 12
12 12 12
12 12 12
13 13 13
21 21 21
13 13 13
16 16 16
12 12 12
14 14 14
13 13 13
12 12 12
12 12 12
12 12 12
12 12 12
12 12 12
13 13 13
12 12 12
16 16 16
12 12 12
12 12 12
13 13 13
13 13 13
12 12 12
13 13 13
23 23 23
12 12 12
12 12 12
24 24 24
12 12 12
12 12 12
24 24 24
14 14 14
12 12 12
12 12 12
20 20 20
15 15 15
12 12 12
13 13 13
12 12 12
13 13 13
13 13 13
12 12 12
12 12 12
12 12 12
13 13 13
13 13 13
19 19 19
12 12 12
23 23 23
12 12 12
17 17 17
12 12 12
12 12 12
15 15 15
16 16 16
15 15 15
18 18 18
15 15 15
15 15 15
15 15 15
15 15 15
16 16 16
14 14 14
13 13 13
17 17 17
13 13 13
12 12 12
12 12 12
12 12 12
13 13 13
12 12 12
12 12 12
12 12 12
12 12 12
13 13 13
17 17 17
13 13 13
12 12 12
23 23 23
12 12 12
12 12 12
13 13 13
13 13 13
13 13 13
13 13 13
12 12 12
13 13 13
12 12 12
12 12 12
23 23 23
12 12 12
12 12 12
12 12 12
13 13 13
13 13 13
19 19 19
16 16 16
28 28 28
13 13 13
21 21 21
12 12 12
12 12 12
16 16 16
20 20 20
16 16 16
12 12 12
13 13 13
12 12 12
12 12 12
13 13 13
21 21 21
19 19 19
12 12 12
13 13 13
16 16 16
12 12 12
16 16 16
14 14 14
15 15 15
14 14 14
14 14 14
14 14 14
14 14 14
18 18 18
14 14 14
14 14 14
24 24 24
14 14 14
12 12 12
14 14 14
13 13 13
12 12 12
22 22 22
13 13 13
12 12 12
12 12 12
13 13 13
14 14 14
12 12 12
12 12 12
13 13 13
13 13 13
12 12 12
12 12 12
14 14 14
12 12 12
13 13 13
12 12 12
13 13 13
14 14 14
13 13 13
13 13 13
12 12 12
16 16 16
13 13 13
15 15 15
12 12 12
21 21 21
13 13 13
25 25 25
13 13 13
14 14 14
20 20 20
12 12 12
22 22 22
14 14 14
16 16 16
12 12 12
13 13 13
13 13 13
14 14 14
12 12 12
12 12 12
12 12 12
12 12 12
23 23 23
17 17 17
12 12 12
12 12 12
21 21 21
12 12 12
15 15 15
14 14 14
15 15 15
14 14 14
15 15 15
15 15 15
19 19 19
27 27 27
25 25 25
14 14 14
12 12 12
12 12 12
12 12 12
12 12 12
13 13 13
12 12 12
14 14 14
12 12 12
13 13 13
12 12 12
19 19 19
17 17 17
13 13 13
13 13 13
13 13 13
12 12 12
12 12 12
12 12 12
12 12 12
12 12 12
14 14 14
13 13 13
16 16 16
12 12 12
13 13 13
23 23 23
12 12 12
12 12 12
12 12 12
12 12 12
12 12 12
12 12 12
27 27 27
13 13 13
19 19 19
12 12 12
12 12 12
20 20 20
21 21 21
12 12 12
14 14 14
13 13 13
16 16 16
13 13 13
13 13 13
12 12 12
13 13 13
13 13 13
15 15 15
22 22 22
24 24 24
13 13 13
13 13 13
14 14 14
23 23 23
12 12 12
16 16 16
14 14 14
15 15 15
15 15 15
15 15 15
31 31 31
15 15 15
15 15 15
12 12 12
14 14 14
13 13 13
13 13 13
12 12 12
12 12 12
12 12 12
16 16 16
17 17 17
12 12 12
12 12 12
14 14 14
13 13 13
23 23 23
21 21 21
12 12 12
21 21 21
12 12 12
16 16 16
13 13 13
26 26 26
14 14 14
15 15 15
16 16 16
14 14 14
12 12 12
13 13 13
12 12 12
12 12 12
17 17 17
16 16 16
12 12 12
16 16 16
14 14 14
16 16 16
37 37 37
12 12 12
12 12 12
12 12 12
12 12 12
12 12 12
14 14 14
13 13 13
12 12 12
14 14 14
13 13 13
20 20 20
14 14 14
16 16 16
12 12 12
21 21 21
12 12 12
12 12 12
12 12 12
12 12 12
14 14 14
15 15 15
14 14 14
16 16 16
15 15 15
15 15 15
15 15 15
14 14 14
13 13 13
12 12 12
12 12 12
13 13 13
14 14 14
12 12 12
28 28 28
12 12 12
13 13 13
13 13 13
13 13 13
12 12 12
12 12 12
12 12 12
16 16 16
12 12 12
12 12 12
13 13 13
12 12 12
13 13 13
13 13 13
20 20 20
12 12 12
13 13 13
13 13 13
12 12 12
12 12 12
12 12 12
13 13 13
12 12 12
23 23 23
30 30 30
23 23 23
12 12 12
13 13 13
12 12 12
16 16 16
14 14 14
12 12 12
14 14 14
12 12 12
12 12 12
12 12 12
13 13 13
13 13 13
13 13 13
13 13 13
15 15 15
26 26 26
13 13 13
22 22 22
13 13 13
13 13 13
13 13 13
26 26 26
13 13 13
13 13 13
23 23 23
15 15 15
15 15 15
14 14 14
15 15 15
15 15 15
13 13 13
12 12 12
13 13 13
13 13 13
13 13 13
13 13 13
13 13 13
12 12 12
13 13 13
14 14 14
23 23 23
20 20 20
13 13 13
12 12 12
12 12 12
12 12 12
22 22 22
12 12 12
12 12 12
12 12 12
12 12 12
12 12 12
14 14 14
13 13 13
20 20 20
13 13 13
13 13 13
12 12 12
12 12 12
13 13 13
13 13 13
12 12 12
16 16 16
13 13 13
26 26 26
15 15 15
12 12 12
12 12 12
12 12 12
13 13 13
21 21 21
16 16 16
13 13 13
12 12 12
13 13 13
14 14 14
12 12 12
12 12 12
13 13 13
14 14 14
23 23 23
13 13 13
14 14 14
14 14 14
13 13 13
23 23 23
12 12 12
13 13 13
12 12 12
16 16 16
28 28 28
14 14 14
15 15 15
15 15 15
15 15 15
65 65 65
12 12 12
13 13 13
12 12 12
12 12 12
13 13 13
12 12 12
13 13 13
13 13 13
12 12 12
14 14 14
17 17 17
12 12 12
13 13 13
13 13 13
12 12 12
17 17 17
13 13 13
12 12 12
12 12 12
23 23 23
14 14 14
13 13 13
13 13 13
14 14 14
12 12 12
12 12 12
18 18 18
14 14 14
12 12 12
13 13 13
23 23 23
24 24 24
14 14 14
21 21 21
23 23 23
14 14 14
14 14 14
13 13 13
13 13 13
12 12 12
23 23 23
16 16 16
13 13 13
14 14 14
12 12 12
14 14 14
12 12 12
24 24 24
13 13 13
12 12 12
26 26 26
13 13 13
12 12 12
12 12 12
12 12 12
12 12 12
14 14 14
13 13 13
17 17 17
18 18 18
14 14 14
15 15 15
14 14 14
13 13 13
16 16 16
12 12 12
13 13 13
13 13 13
12 12 12
13 13 13
12 12 12
12 12 12
14 14 14
14 14 14
12 12 12
12 12 12
12 12 12
13 13 13
12 12 12
12 12 12
12 12 12
12 12 12
12 12 12
12 12 12
13 13 13
12 12 12
22 22 22
25 25 25
12 12 12
12 12 12
18 18 18
12 12 12
12 12 12
13 13 13
29 29 29
14 14 14
18 18 18
23 23 23
21 21 21
12 12 12
13 13 13
23 23 23
12 12 12
12 12 12
16 16 16
25 25 25
12 12 12
32 32 32
12 12 12
64 64 64
13 13 13
24 24 24
21 21 21
18 18 18
21 21 21
13 13 13
34 34 34
24 24 24
13 13 13
13 13 13
18 18 18
14 14 14
25 25 25
16 16 16
14 14 14
17 17 17
16 16 16
14 14 14
13 13 13
12 12 12
21 21 21
16 16 16
12 12 12
13 13 13
14 14 14
22 22 22
12 12 12
12 12 12
12 12 12
12 12 12
22 22 22
12 12 12
12 12 12
13 13 13
12 12 12
13 13 13
12 12 12
16 16 16
15 15 15
12 12 12
12 12 12
12 12 12
13 13 13
13 13 13
24 24 24
24 24 24
36 36 36
12 12 12
14 14 14
12 12 12
12 12 12
15 15 15
13 13 13
13 13 13
15 15 15
12 12 12
13 13 13
22 22 22
18 18 18
12 12 12
13 13 13
38 38 38
24 24 24
15 15 15
13 13 13
17 17 17
12 12 12
23 23 23
15 15 15
17 17 17
14 14 14
15 15 15
26 26 26
24 24 24
15 15 15
15 15 15
16 16 16
16 16 16
28 28 28
14 14 14
15 15 15
15 15 15
15 15 15
15 15 15
17 17 17
21 21 21
13 13 13
13 13 13
22 22 22
21 21 21
38 38 38
12 12 12
12 12 12
12 12 12
22 22 22
19 19 19
12 12 12
36 36 36
14 14 14
12 12 12
13 13 13
13 13 13
12 12 12
12 12 12
13 13 13
12 12 12
12 12 12
13 13 13
12 12 12
12 12 12
12 12 12
22 22 22
16 16 16
13 13 13
18 18 18
12 12 12
24 24 24
26 26 26
12 12 12
14 14 14
12 12 12
13 13 13
14 14 14
13 13 13
12 12 12
35 35 35
41 41 41
42 42 42
21 21 21
13 13 13
23 23 23
76 76 76
27 27 27
25 25 25
15 15 15
30 30 30
18 18 18
15 15 15
16 16 16
17 17 17
16 16 16
28 28 28
14 14 14
15 15 15
15 15 15
40 40 40
16 16 16
14 14 14
13 13 13
12 12 12
14 14 14
22 22 22
13 13 13
16 16 16
16 16 16
19 19 19
13 13 13
13 13 13
16 16 16
12 12 12
13 13 13
12 12 12
13 13 13
12 12 12
16 16 16
13 13 13
12 12 12
12 12 12
13 13 13
13 13 13
21 21 21
14 14 14
22 22 22
29 29 29
24 24 24
12 12 12
12 12 12
12 12 12
14 14 14
15 15 15
12 12 12
14 14 14
16 16 16
16 16 16
14 14 14
37 37 37
14 14 14
38 38 38
55 55 55
61 61 61
61 61 61
49 49 49
25 25 25
36 36 36
25 25 25
12 12 12
14 14 14
12 12 12
12 12 12
24 24 24
16 16 16
26 26 26
15 15 15
17 17 17
14 14 14
16 16 16
14 14 14
17 17 17
25 25 25
29 29 29
17 17 17
14 14 14
14 14 14
12 12 12
13 13 13
12 12 12
12 12 12
12 12 12
12 12 12
25 25 25
12 12 12
12 12 12
13 13 13
12 12 12
12 12 12
12 12 12
12 12 12
13 13 13
14 14 14
12 12 12
13 13 13
17 17 17
12 12 12
15 15 15
21 21 21
12 12 12
12 12 12
12 12 12
22 22 22
25 25 25
13 13 13
12 12 12
12 12 12
21 21 21
12 12 12
61 61 61
16 16 16
21 21 21
28 28 28
13 13 13
15 15 15
24 24 24
60 60 60
61 61 61
62 62 62
61 61 61
60 60 60
25 25 25
32 32 32
32 32 32
15 15 15
14 14 14
12 12 12
14 14 14
14 14 14
16 16 16
15 15 15
18 18 18
14 14 14
14 14 14
14 14 14
16 16 16
15 15 15
14 14 14
14 14 14
16 16 16
14 14 14
13 13 13
13 13 13
16 16 16
12 12 12
14 14 14
17 17 17
13 13 13
12 12 12
13 13 13
14 14 14
12 12 12
12 12 12
13 13 13
12 12 12
21 21 21
12 12 12
13 13 13
13 13 13
13 13 13
16 16 16
13 13 13
13 13 13
13 13 13
12 12 12
17 17 17
14 14 14
29 29 29
18 18 18
27 27 27
15 15 15
22 22 22
65 65 65
12 12 12
13 13 13
13 13 13
12 12 12
31 31 31
39 39 39
65 65 65
66 66 66
61 61 61
61 61 61
67 67 67
65 65 65
48 48 48
53 53 53
17 17 17
13 13 13
12 12 12
13 13 13
13 13 13
14 14 14
19 19 19
14 14 14
17 17 17
16 16 16
19 19 19
17 17 17
15 15 15
17 17 17
16 16 16
19 19 19
20 20 20
14 14 14
12 12 12
13 13 13
23 23 23
16 16 16
12 12 12
12 12 12
12 12 12
12 12 12
12 12 12
12 12 12
12 12 12
12 12 12
12 12 12
12 12 12
12 12 12
16 16 16
14 14 14
17 17 17
12 12 12
14 14 14
12 12 12
12 12 12
14 14 14
21 21 21
25 25 25
12 12 12
23 23 23
36 36 36
15 15 15
34 34 34
15 15 15
29 29 29
30 30 30
13 13 13
21 21 21
12 12 12
12 12 12
46 46 46
66 66 66
108 108 108
61 61 61
61 61 61
68 68 68
68 68 68
61 61 61
30 30 30
15 15 15
30 30 30
13 13 13
28 28 28
24 24 24
16 16 16
15 15 15
22 22 22
14 14 14
14 14 14
14 14 14
27 27 27
14 14 14
27 27 27
15 15 15
15 15 15
13 13 13
12 12 12
13 13 13
12 12 12
12 12 12
12 12 12
12 12 12
12 12 12
13 13 13
12 12 12
32 32 32
12 12 12
13 13 13
15 15 15
12 12 12
13 13 13
13 13 13
13 13 13
13 13 13
12 12 12
12 12 12
14 14 14
13 13 13
12 12 12
14 14 14
12 12 12
28 28 28
14 14 14
24 24 24
24 24 24
24 24 24
32 32 32
34 34 34
13 13 13
13 13 13
12 12 12
22 22 22
19 19 19
14 14 14
36 36 36
76 76 76
63 63 63
64 64 64
61 61 61
69 69 69
70 70 70
61 61 61
37 37 37
15 15 15
12 12 12
27 27 27
12 12 12
14 14 14
25 25 25
14 14 14
16 16 16
16 16 16
15 15 15
14 14 14
27 27 27
41 41 41
15 15 15
18 18 18
14 14 14
12 12 12
12 12 12
12 12 12
14 14 14
12 12 12
13 13 13
13 13 13
13 13 13
12 12 12
21 21 21
16 16 16
12 12 12
12 12 12
12 12 12
12 12 12
16 16 16
12 12 12
13 13 13
12 12 12
12 12 12
15 15 15
13 13 13
12 12 12
13 13 13
12 12 12
20 20 20
33 33 33
23 23 23
20 20 20
13 13 13
33 33 33
13 13 13
17 17 17
12 12 12
15 15 15
19 19 19
14 14 14
12 12 12
22 22 22
54 54 54
108 108 108
74 74 74
75 75 75
73 73 73
67 67 67
71 71 71
62 62 62
75 75 75
12 12 12
31 31 31
24 24 24
28 28 28
14 14 14
24 24 24
13 13 13
15 15 15
15 15 15
17 17 17
18 18 18
16 16 16
18 18 18
15 15 15
14 14 14
15 15 15
17 17 17
12 12 12
13 13 13
13 13 13
17 17 17
23 23 23
12 12 12
13 13 13
14 14 14
12 12 12
12 12 12
12 12 12
12 12 12
12 12 12
13 13 13
26 26 26
13 13 13
16 16 16
16 16 16
14 14 14
13 13 13
14 14 14
12 12 12
12 12 12
12 12 12
12 12 12
13 13 13
14 14 14
23 23 23
15 15 15
22 22 22
34 34 34
17 17 17
32 32 32
36 36 36
28 28 28
13 13 13
13 13 13
15 15 15
18 18 18
34 34 34
116 116 116
177 177 177
75 75 75
121 121 121
129 129 129
36 36 36
33 33 33
22 22 22
15 15 15
23 23 23
21 21 21
12 12 12
13 13 13
17 17 17
14 14 14
24 24 24
14 14 14
16 16 16
17 17 17
14 14 14
18 18 18
19 19 19
13 13 13
12 12 12
12 12 12
14 14 14
17 17 17
12 12 12
26 26 26
37 37 37
16 16 16
12 12 12
13 13 13
15 15 15
12 12 12
12 12 12
12 12 12
13 13 13
12 12 12
12 12 12
12 12 12
12 12 12
12 12 12
12 12 12
21 21 21
13 13 13
12 12 12
17 17 17
13 13 13
13 13 13
13 13 13
14 14 14
14 14 14
23 23 23
14 14 14
13 13 13
12 12 12
12 12 12
21 21 21
12 12 12
12 12 12
25 25 25
16 16 16
33 33 33
121 121 121
150 150 150
132 132 132
158 158 158
66 66 66
15 15 15
20 20 20
58 58 58
13 13 13
14 14 14
12 12 12
12 12 12
13 13 13
16 16 16
12 12 12
14 14 14
15 15 15
16 16 16
25 25 25
14 14 14
14 14 14
12 12 12
12 12 12
12 12 12
12 12 12
12 12 12
12 12 12
12 12 12
43 43 43
62 62 62
82 82 82
49 49 49
36 36 36
13 13 13
12 12 12
12 12 12
12 12 12
19 19 19
14 14 14
12 12 12
13 13 13
12 12 12
16 16 16
12 12 12
13 13 13
22 22 22
13 13 13
13 13 13
13 13 13
13 13 13
14 14 14
23 23 23
14 14 14
13 13 13
13 13 13
15 15 15
13 13 13
13 13 13
22 22 22
18 18 18
23 23 23
25 25 25
15 15 15
37 37 37
52 52 52
38 38 38
13 13 13
28 28 28
40 40 40
13 13 13
12 12 12
24 24 24
12 12 12
13 13 13
13 13 13
12 12 12
12 12 12
12 12 12
24 24 24
15 15 15
31 31 31
17 17 17
18 18 18
19 19 19
13 13 13
12 12 12
12 12 12
12 12 12
12 12 12
13 13 13
63 63 63
41 41 41
60 60 60
61 61 61
60 60 60
66 66 66
50 50 50
25 25 25
12 12 12
12 12 12
12 12 12
12 12 12
13 13 13
12 12 12
13 13 13
12 12 12
12 12 12
12 12 12
12 12 12
12 12 12
12 12 12
12 12 12
13 13 13
14 14 14
22 22 22
12 12 12
23 23 23
16 16 16
30 30 30
20 20 20
12 12 12
14 14 14
17 17 17
22 22 22
23 23 23
24 24 24
12 12 12
23 23 23
23 23 23
33 33 33
16 16 16
12 12 12
16 16 16
37 37 37
12 12 12
14 14 14
16 16 16
17 17 17
17 17 17
20 20 20
21 21 21
16 16 16
16 16 16
26 26 26
15 15 15
17 17 17
15 15 15
13 13 13
13 13 13
15 15 15
12 12 12
16 16 16
12 12 12
41 41 41
61 61 61
102 102 102
61 61 61
80 80 80
61 61 61
62 62 62
60 60 60
50 50 50
97 97 97
12 12 12
12 12 12
12 12 12
12 12 12
13 13 13
12 12 12
14 14 14
16 16 16
13 13 13
12 12 12
16 16 16
13 13 13
12 12 12
13 13 13
23 23 23
17 17 17
13 13 13
24 24 24
12 12 12
12 12 12
12 12 12
12 12 12
16 16 16
16 16 16
13 13 13
26 26 26
15 15 15
12 12 12
33 33 33
29 29 29
14 14 14
13 13 13
12 12 12
12 12 12
29 29 29
12 12 12
13 13 13
13 13 13
13 13 13
14 14 14
12 12 12
16 16 16
12 12 12
15 15 15
14 14 14
14 14 14
23 23 23
14 14 14
15 15 15
14 14 14
12 12 12
14 14 14
15 15 15
14 14 14
39 39 39
72 72 72
61 61 61
61 61 61
67 67 67
61 61 61
61 61 61
108 108 108
63 63 63
52 52 52
12 12 12
12 12 12
12 12 12
12 12 12
12 12 12
12 12 12
14 14 14
14 14 14
12 12 12
12 12 12
12 12 12
22 22 22
13 13 13
12 12 12
12 12 12
12 12 12
12 12 12
12 12 12
12 12 12
12 12 12
13 13 13
16 16 16
14 14 14
20 20 20
13 13 13
12 12 12
16 16 16
24 24 24
13 13 13
12 12 12
15 15 15
12 12 12
12 12 12
29 29 29
12 12 12
23 23 23
12 12 12
12 12 12
12 12 12
13 13 13
13 13 13
14 14 14
14 14 14
24 24 24
16 16 16
15 15 15
14 14 14
15 15 15
14 14 14
12 12 12
16 16 16
13 13 13
12 12 12
24 24 24
77 77 77
69 69 69
61 61 61
67 67 67
108 108 108
61 61 61
60 60 60
61 61 61
61 61 61
62 62 62
68 68 68
12 12 12
17 17 17
17 17 17
16 16 16
14 14 14
13 13 13
12 12 12
20 20 20
12 12 12
12 12 12
16 16 16
18 18 18
12 12 12
13 13 13
13 13 13
12 12 12
12 12 12
26 26 26
12 12 12
18 18 18
22 22 22
13 13 13
14 14 14
12 12 12
12 12 12
30 30 30
12 12 12
37 37 37
12 12 12
13 13 13
12 12 12
12 12 12
24 24 24
16 16 16
12 12 12
24 24 24
12 12 12
14 14 14
16 16 16
15 15 15
13 13 13
19 19 19
15 15 15
16 16 16
24 24 24
17 17 17
14 14 14
15 15 15
13 13 13
17 17 17
13 13 13
15 15 15
12 12 12
101 101 101
61 61 61
66 66 66
61 61 61
61 61 61
61 61 61
61 61 61
71 71 71
67 67 67
63 63 63
66 66 66
38 38 38
12 12 12
13 13 13
12 12 12
12 12 12
12 12 12
12 12 12
12 12 12
12 12 12
12 12 12
13 13 13
12 12 12
25 25 25
21 21 21
15 15 15
16 16 16
12 12 12
14 14 14
32 32 32
21 21 21
16 16 16
19 19 19
13 13 13
12 12 12
12 12 12
16 16 16
16 16 16
12 12 12
12 12 12
16 16 16
23 23 23
14 14 14
12 12 12
13 13 13
13 13 13
13 13 13
21 21 21
23 23 23
14 14 14
14 14 14
13 13 13
23 23 23
13 13 13
12 12 12
14 14 14
13 13 13
16 16 16
13 13 13
13 13 13
12 12 12
12 12 12
22 22 22
36 36 36
55 55 55
66 66 66
61 61 61
67 67 67
66 66 66
62 62 62
61 61 61
65 65 65
62 62 62
61 61 61
61 61 61
42 42 42
13 13 13
13 13 13
12 12 12
13 13 13
12 12 12
17 17 17
12 12 12
12 12 12
12 12 12
12 12 12
14 14 14
13 13 13
13 13 13
13 13 13
23 23 23
12 12 12
24 24 24
14 14 14
12 12 12
12 12 12
14 14 14
12 12 12
16 16 16
12 12 12
12 12 12
16 16 16
12 12 12
32 32 32
12 12 12
32 32 32
12 12 12
12 12 12
12 12 12
24 24 24
12 12 12
13 13 13
12 12 12
12 12 12
13 13 13
12 12 12
27 27 27
14 14 14
14 14 14
13 13 13
13 13 13
15 15 15
28 28 28
14 14 14
13 13 13
14 14 14
12 12 12
13 13 13
15 15 15
61 61 61
61 61 61
60 60 60
63 63 63
61 61 61
100 100 100
65 65 65
60 60 60
111 111 111
36 36 36
49 49 49
12 12 12
12 12 12
18 18 18
12 12 12
13 13 13
17 17 17
12 12 12
26 26 26
12 12 12
13 13 13
12 12 12
12 12 12
13 13 13
12 12 12
12 12 12
13 13 13
17 17 17
13 13 13
12 12 12
12 12 12
12 12 12
12 12 12
13 13 13
12 12 12
21 21 21
23 23 23
12 12 12
19 19 19
12 12 12
15 15 15
12 12 12
27 27 27
12 12 12
12 12 12
12 12 12
24 24 24
12 12 12
13 13 13
13 13 13
12 12 12
12 12 12
18 18 18
21 21 21
13 13 13
15 15 15
17 17 17
13 13 13
13 13 13
15 15 15
12 12 12
36 36 36
12 12 12
36 36 36
93 93 93
55 55 55
61 61 61
66 66 66
61 61 61
67 67 67
66 66 66
64 64 64
66 66 66
27 27 27
12 12 12
13 13 13
12 12 12
24 24 24
13 13 13
16 16 16
12 12 12
12 12 12
12 12 12
12 12 12
14 14 14
16 16 16
12 12 12
12 12 12
12 12 12
12 12 12
12 12 12
13 13 13
12 12 12
12 12 12
17 17 17
23 23 23
12 12 12
13 13 13
13 13 13
12 12 12
22 22 22
12 12 12
12 12 12
12 12 12
16 16 16
16 16 16
12 12 12
25 25 25
13 13 13
14 14 14
12 12 12
13 13 13
24 24 24
12 12 12
14 14 14
16 16 16
12 12 12
12 12 12
13 13 13
18 18 18
14 14 14
13 13 13
36 36 36
12 12 12
13 13 13
18 18 18
15 15 15
43 43 43
91 91 91
65 65 65
61 61 61
199 199 199
160 160 160
66 66 66
77 77 77
150 150 150
48 48 48
13 13 13
12 12 12
12 12 12
16 16 16
12 12 12
12 12 12
12 12 12
18 18 18
13 13 13
20 20 20
13 13 13
12 12 12
12 12 12
22 22 22
13 13 13
12 12 12
12 12 12
12 12 12
13 13 13
16 16 16
12 12 12
22 22 22
12 12 12
16 16 16
13 13 13
12 12 12
12 12 12
19 19 19
14 14 14
12 12 12
31 31 31
13 13 13
21 21 21
12 12 12
23 23 23
12 12 12
13 13 13
23 23 23
12 12 12
12 12 12
70 70 70
12 12 12
13 13 13
25 25 25
13 13 13
12 12 12
17 17 17
13 13 13
13 13 13
13 13 13
14 14 14
14 14 14
41 41 41
13 13 13
24 24 24
26 26 26
35 35 35
64 64 64
72 72 72
74 74 74
55 55 55
55 55 55
46 46 46
49 49 49
27 27 27
15 15 15
20 20 20
12 12 12
12 12 12
12 12 12
19 19 19
12 12 12
12 12 12
13 13 13
12 12 12
13 13 13
22 22 22
14 14 14
12 12 12
13 13 13
12 12 12
13 13 13
13 13 13
12 12 12
12 12 12
12 12 12
14 14 14
13 13 13
13 13 13
13 13 13
12 12 12
12 12 12
17 17 17
12 12 12
12 12 12
13 13 13
26 26 26
17 17 17
12 12 12
24 24 24
12 12 12
13 13 13
12 12 12
23 23 23
25 25 25
27 27 27
21 21 21
13 13 13
14 14 14
16 16 16
13 13 13
15 15 15
13 13 13
16 16 16
12 12 12
39 39 39
12 12 12
23 23 23
31 31 31
16 16 16
28 28 28
24 24 24
18 18 18
13 13 13
41 41 41
45 45 45
47 47 47
28 28 28
36 36 36
14 14 14
30 30 30
12 12 12
12 12 12
12 12 12
13 13 13
13 13 13
12 12 12
13 13 13
14 14 14
12 12 12
13 13 13
12 12 12
12 12 12
12 12 12
16 16 16
12 12 12
12 12 12
12 12 12
16 16 16
12 12 12
23 23 23
12 12 12
12 12 12
12 12 12
17 17 17
12 12 12
12 12 12
64 64 64
13 13 13
17 17 17
13 13 13
22 22 22
13 13 13
13 13 13
13 13 13
23 23 23
12 12 12
24 24 24
23 23 23
14 14 14
12 12 12
13 13 13
13 13 13
13 13 13
14 14 14
16 16 16
23 23 23
14 14 14
14 14 14
17 17 17
26 26 26
15 15 15
43 43 43
23 23 23
44 44 44
38 38 38
47 47 47
24 24 24
64 64 64
29 29 29
36 36 36
24 24 24
31 31 31
27 27 27
14 14 14
12 12 12
23 23 23
16 16 16
13 13 13
15 15 15
16 16 16
12 12 12
12 12 12
16 16 16
12 12 12
12 12 12
14 14 14
12 12 12
16 16 16
13 13 13
12 12 12
12 12 12
23 23 23
24 24 24
12 12 12
13 13 13
12 12 12
20 20 20
17 17 17
12 12 12
13 13 13
14 14 14
13 13 13
71 71 71
13 13 13
13 13 13
14 14 14
13 13 13
14 14 14
12 12 12
16 16 16
12 12 12
14 14 14
29 29 29
28 28 28
13 13 13
12 12 12
12 12 12
13 13 13
12 12 12
12 12 12
13 13 13
13 13 13
14 14 14
26 26 26
12 12 12
12 12 12
29 29 29
24 24 24
36 36 36
65 65 65
34 34 34
36 36 36
42 42 42
32 32 32
26 26 26
15 15 15
23 23 23
13 13 13
15 15 15
14 14 14
17 17 17
12 12 12
12 12 12
13 13 13
13 13 13
13 13 13
12 12 12
16 16 16
13 13 13
23 23 23
12 12 12
12 12 12
12 12 12
13 13 13
12 12 12
12 12 12
16 16 16
13 13 13
23 23 23
22 22 22
13 13 13
12 12 12
13 13 13
12 12 12
16 16 16
13 13 13
12 12 12
13 13 13
13 13 13
13 13 13
13 13 13
13 13 13
12 12 12
12 12 12
13 13 13
13 13 13
12 12 12
13 13 13
16 16 16
16 16 16
16 16 16
16 16 16
13 13 13
12 12 12
17 17 17
13 13 13
12 12 12
12 12 12
26 26 26
24 24 24
16 16 16
23 23 23
15 15 15
26 26 26
12 12 12
13 13 13
26 26 26
26 26 26
24 24 24
45 45 45
46 46 46
14 14 14
22 22 22
13 13 13
25 25 25
17 17 17
14 14 14
12 12 12
21 21 21
13 13 13
16 16 16
15 15 15
13 13 13
13 13 13
12 12 12
24 24 24
12 12 12
12 12 12
13 13 13
12 12 12
24 24 24
12 12 12
12 12 12
13 13 13
16 16 16
12 12 12
12 12 12
13 13 13
19 19 19
13 13 13
12 12 12
25 25 25
13 13 13
12 12 12
12 12 12
13 13 13
12 12 12
12 12 12
13 13 13
12 12 12
16 16 16
14 14 14
13 13 13
12 12 12
23 23 23
12 12 12
16 16 16
13 13 13
12 12 12
22 22 22
23 23 23
14 14 14
22 22 22
24 24 24
35 35 35
13 13 13
35 35 35
33 33 33
35 35 35
33 33 33
31 31 31
25 25 25
46 46 46
12 12 12
72 72 72
28 28 28
28 28 28
14 14 14
13 13 13
16 16 16
12 12 12
12 12 12
13 13 13
13 13 13
12 12 12
12 12 12
12 12 12
16 16 16
12 12 12
17 17 17
14 14 14
25 25 25
13 13 13
13 13 13
13 13 13
16 16 16
12 12 12
22 22 22
22 22 22
12 12 12
12 12 12
18 18 18
12 12 12
12 12 12
13 13 13
14 14 14
12 12 12
23 23 23
12 12 12
12 12 12
12 12 12
13 13 13
15 15 15
13 13 13
13 13 13
13 13 13
13 13 13
13 13 13
12 12 12
12 12 12
13 13 13
18 18 18
12 12 12
12 12 12
12 12 12
23 23 23
12 12 12
23 23 23
26 26 26
12 12 12
17 17 17
22 22 22
34 34 34
34 34 34
40 40 40
12 12 12
22 22 22
15 15 15
12 12 12
47 47 47
13 13 13
22 22 22
16 16 16
23 23 23
21 21 21
18 18 18
23 23 23
16 16 16
14 14 14
13 13 13
15 15 15
16 16 16
14 14 14
12 12 12
12 12 12
20 20 20
12 12 12
12 12 12
12 12 12
21 21 21
13 13 13
12 12 12
13 13 13
32 32 32
12 12 12
12 12 12
13 13 13
24 24 24
17 17 17
12 12 12
13 13 13
12 12 12
14 14 14
16 16 16
12 12 12
12 12 12
17 17 17
14 14 14
13 13 13
14 14 14
16 16 16
16 16 16
13 13 13
13 13 13
12 12 12
28 28 28
23 23 23
16 16 16
23 23 23
12 12 12
12 12 12
12 12 12
12 12 12
24 24 24
30 30 30
14 14 14
24 24 24
12 12 12
36 36 36
13 13 13
14 14 14
44 44 44
34 34 34
13 13 13
23 23 23
16 16 16
22 22 22
14 14 14
12 12 12
13 13 13
17 17 17
18 18 18
13 13 13
22 22 22
13 13 13
12 12 12
12 12 12
13 13 13
12 12 12
12 12 12
13 13 13
16 16 16
13 13 13
21 21 21
12 12 12
12 12 12
14 14 14
12 12 12
17 17 17
17 17 17
12 12 12
12 12 12
16 16 16
14 14 14
12 12 12
18 18 18
12 12 12
12 12 12
17 17 17
12 12 12
12 12 12
13 13 13
12 12 12
13 13 13
16 16 16
18 18 18
12 12 12
12 12 12
17 17 17
22 22 22
12 12 12
13 13 13
36 36 36
12 12 12
35 35 35
12 12 12
16 16 16
35 35 35
23 23 23
23 23 23
31 31 31
13 13 13
13 13 13
25 25 25
12 12 12
22 22 22
28 28 28
12 12 12
12 12 12
23 23 23
42 42 42
26 26 26
12 12 12
16 16 16
13 13 13
15 15 15
16 16 16
12 12 12
12 12 12
13 13 13
13 13 13
12 12 12
12 12 12
12 12 12
14 14 14
12 12 12
12 12 12
12 12 12
12 12 12
23 23 23
12 12 12
12 12 12
12 12 12
12 12 12
13 13 13
12 12 12
16 16 16
17 17 17
14 14 14
12 12 12
12 12 12
12 12 12
21 21 21
12 12 12
12 12 12
15 15 15
16 16 16
12 12 12
14 14 14
12 12 12
12 12 12
17 17 17
12 12 12
12 12 12
14 14 14
12 12 12
12 12 12
13 13 13
16 16 16
13 13 13
75 75 75
12 12 12
22 22 22
26 26 26
13 13 13
33 33 33
13 13 13
13 13 13
18 18 18
12 12 12
14 14 14
28 28 28
26 26 26
20 20 20
24 24 24
22 22 22
13 13 13
15 15 15
12 12 12
13 13 13
13 13 13
13 13 13
12 12 12
12 12 12
13 13 13
12 12 12
12 12 12
16 16 16
16 16 16
16 16 16
21 21 21
13 13 13
16 16 16
12 12 12
13 13 13
13 13 13
12 12 12
13 13 13
13 13 13
17 17 17
16 16 16
12 12 12
33 33 33
23 23 23
20 20 20
13 13 13
12 12 12
13 13 13
14 14 14
17 17 17
12 12 12
12 12 12
13 13 13
27 27 27
12 12 12
12 12 12
23 23 23
13 13 13
16 16 16
24 24 24
12 12 12
34 34 34
23 23 23
22 22 22
14 14 14
26 26 26
25 25 25
13 13 13
14 14 14
13 13 13
13 13 13
23 23 23
13 13 13
13 13 13
17 17 17
30 30 30
17 17 17
12 12 12
24 24 24
12 12 12
12 12 12
12 12 12
14 14 14
16 16 16
34 34 34
16 16 16
12 12 12
12 12 12
12 12 12
12 12 12
20 20 20
13 13 13
13 13 13
12 12 12
12 12 12
12 12 12
13 13 13
13 13 13
16 16 16
12 12 12
13 13 13
12 12 12
17 17 17
16 16 16
14 14 14
12 12 12
23 23 23
12 12 12
12 12 12
12 12 12
16 16 16
12 12 12
12 12 12
13 13 13
13 13 13
12 12 12
13 13 13
23 23 23
13 13 13
14 14 14
12 12 12
12 12 12
19 19 19
13 13 13
19 19 19
20 20 20
12 12 12
13 13 13
18 18 18
13 13 13
23 23 23
12 12 12
23 23 23
23 23 23
15 15 15
12 12 12
12 12 12
12 12 12
12 12 12
14 14 14
28 28 28
12 12 12
13 13 13
26 26 26
24 24 24
27 27 27
13 13 13
14 14 14
12 12 12
13 13 13
13 13 13
24 24 24
12 12 12
14 14 14
28 28 28
12 12 12
16 16 16
22 22 22
12 12 12
26 26 26
70 70 70
12 12 12
13 13 13
13 13 13
12 12 12
13 13 13
16 16 16
17 17 17
14 14 14
12 12 12
12 12 12
13 13 13
12 12 12
13 13 13
12 12 12
13 13 13
16 16 16
12 12 12
12 12 12
17 17 17
23 23 23
12 12 12
12 12 12
32 32 32
13 13 13
13 13 13
12 12 12
14 14 14
22 22 22
12 12 12
12 12 12
12 12 12
12 12 12
16 16 16
12 12 12
22 22 22
24 24 24
14 14 14
39 39 39
14 14 14
21 21 21
16 16 16
12 12 12
13 13 13
13 13 13
12 12 12
14 14 14
23 23 23
13 13 13
13 13 13
12 12 12
14 14 14
14 14 14
12 12 12
22 22 22
13 13 13
13 13 13
12 12 12
12 12 12
13 13 13
22 22 22
12 12 12
17 17 17
13 13 13
12 12 12
14 14 14
12 12 12
12 12 12
12 12 12
12 12 12
12 12 12
13 13 13
12 12 12
12 12 12
23 23 23
12 12 12
20 20 20
13 13 13
14 14 14
13 13 13
12 12 12
16 16 16
19 19 19
13 13 13
12 12 12
35 35 35
12 12 12
12 12 12
12 12 12
12 12 12
13 13 13
13 13 13
23 23 23
12 12 12
13 13 13
13 13 13
17 17 17
16 16 16
16 16 16
15 15 15
12 12 12
14 14 14
24 24 24
66 66 66
16 16 16
12 12 12
13 13 13
12 12 12
22 22 22
16 16 16
14 14 14
13 13 13
12 12 12
12 12 12
14 14 14
24 24 24
12 12 12
12 12 12
13 13 13
16 16 16
14 14 14
13 13 13
15 15 15
13 13 13
12 12 12
14 14 14
12 12 12
12 12 12
13 13 13
12 12 12
12 12 12
12 12 12
12 12 12
12 12 12
20 20 20
15 15 15
12 12 12
12 12 12
13 13 13
12 12 12
14 14 14
12 12 12
12 12 12
12 12 12
13 13 13
16 16 16
12 12 12
23 23 23
17 17 17
12 12 12
22 22 22
70 70 70
15 15 15
12 12 12
16 16 16
27 27 27
13 13 13
12 12 12
13 13 13
24 24 24
12 12 12
16 16 16
12 12 12
13 13 13
13 13 13
13 13 13
16 16 16
28 28 28
13 13 13
13 13 13
14 14 14
12 12 12
14 14 14
12 12 12
12 12 12
12 12 12
12 12 12
12 12 12
33 33 33
16 16 16
21 21 21
13 13 13
13 13 13
12 12 12
12 12 12
26 26 26
13 13 13
12 12 12
12 12 12
12 12 12
15 15 15
12 12 12
12 12 12
16 16 16
13 13 13
12 12 12
14 14 14
12 12 12
12 12 12
13 13 13
14 14 14
12 12 12
12 12 12
12 12 12
12 12 12
12 12 12
12 12 12
13 13 13
24 24 24
16 16 16
17 17 17
12 12 12
14 14 14
24 24 24
13 13 13
14 14 14
20 20 20
12 12 12
12 12 12
29 29 29
13 13 13
23 23 23
24 24 24
12 12 12
27 27 27
30 30 30
16 16 16
23 23 23
12 12 12
13 13 13
12 12 12
22 22 22
35 35 35
19 19 19
12 12 12
12 12 12
23 23 23
12 12 12
22 22 22
16 16 16
23 23 23
26 26 26
26 26 26
12 12 12
20 20 20
15 15 15
16 16 16
12 12 12
12 12 12
12 12 12
13 13 13
16 16 16
12 12 12
14 14 14
13 13 13
12 12 12
13 13 13
12 12 12
16 16 16
17 17 17
12 12 12
14 14 14
13 13 13
13 13 13
12 12 12
13 13 13
12 12 12
12 12 12
12 12 12
16 16 16
18 18 18
24 24 24
28 28 28
12 12 12
13 13 13
13 13 13
13 13 13
23 23 23
12 12 12
13 13 13
12 12 12
25 25 25
12 12 12
12 12 12
17 17 17
12 12 12
12 12 12
23 23 23
32 32 32
13 13 13
23 23 23
12 12 12
13 13 13
12 12 12
27 27 27
12 12 12
12 12 12
12 12 12
28 28 28
13 13 13
23 23 23
12 12 12
12 12 12
13 13 13
12 12 12
23 23 23
13 13 13
16 16 16
17 17 17
17 17 17
12 12 12
