P3
# Rays 2018
64 64
255
215 215 215
215 215 215
215 215 215
215 215 215
215 215 215
215 215 215
215 215 215
215 215 215
215 215 215
215 215 215
215 215 215
215 215 215
215 215 215
215 215 215
215 215 215
215 215 215
215 215 215
215 215 215
215 215 215
215 215 215
215 215 215
215 215 215
215 215 215
215 215 215
215 215 215
215 215 215
215 215 215
215 215 215
215 215 215
215 215 215
215 215 215
215 215 215
215 215 215
215 215 215
215 215 215
215 215 215
215 215 215
215 215 215
215 215 215
215 215 215
215 215 215
215 215 215
215 215 215
215 215 215
215 215 215
215 215 215
215 215 215
215 215 215
215 215 215
215 215 215
215 215 215
215 215 215
215 215 215
215 215 215
215 215 215
215 215 215
215 215 215
215 215 215
215 215 215
215 215 215
215 215 215
215 215 215
215 215 215
215 215 215
215 215 215
215 215 215
215 215 215
215 215 215
215 215 215
215 215 215
215 215 215
215 215 215
215 215 215
215 215 215
215 215 215
215 215 215
215 215 215
215 215 215
215 215 215
215 215 215
215 215 215
215 215 215
215 215 215
215 215 215
215 215 215
215 215 215
215 215 215
215 215 215
215 215 215
215 215 215
215 215 215
215 215 215
215 215 215
215 215 215
215 215 215
215 215 215
215 215 215
215 215 215
215 215 215
215 215 215
215 215 215
215 215 215
215 215 215
215 215 215
215 215 215
215 215 215
215 215 215
215 215 215
215 215 215
215 215 215
215 215 215
215 215 215
215 215 215
215 215 215
215 215 215
215 215 215
215 215 215
215 215 215
215 215 215
215 215 215
215 215 215
215 215 215
215 215 215
215 215 215
215 215 215
215 215 215
215 215 215
215 215 215
215 215 215
215 215 215
215 215 215
215 215 215
215 215 215
215 215 215
215 215 215
215 215 215
215 215 215
215 215 215
215 215 215
215 215 215
215 215 215
215 215 215
215 215 215
215 215 215
215 215 215
215 215 215
215 215 215
215 215 215
215 215 215
215 215 215
215 215 215
215 215 215
215 215 215
215 215 215
215 215 215
215 215 215
215 215 215
215 215 215
215 215 215
215 215 215
215 215 215
215 215 215
215 215 215
215 215 215
215 215 215
215 215 215
215 215 215
215 215 215
215 215 215
215 215 215
215 215 215
215 215 215
215 215 215
215 215 215
215 215 215
215 215 215
215 215 215
215 215 215
215 215 215
215 215 215
215 215 215
215 215 215
215 215 215
215 215 215
215 215 215
215 215 215
215 215 215
215 215 215
215 215 215
215 215 215
215 215 215
215 215 215
215 215 215
215 215 215
215 215 215
215 215 215
215 215 215
215 215 215
215 215 215
215 215 215
215 215 215
215 215 215
215 215 215
215 215 215
215 215 215
215 215 215
215 215 215
215 215 215
215 215 215
215 215 215
215 215 215
215 215 215
215 215 215
215 215 215
215 215 215
215 215 215
215 215 215
215 215 215
215 215 215
215 215 215
215 215 215
215 215 215
215 215 215
215 215 215
215 215 215
215 215 215
215 215 215
215 215 215
215 215 215
215 215 215
215 215 215
215 215 215
215 215 215
215 215 215
215 215 215
215 215 215
215 215 215
215 215 215
215 215 215
215 215 215
215 215 215
215 215 215
215 215 215
215 215 215
215 215 215
215 215 215
215 215 215
215 215 215
215 215 215
215 215 215
215 215 215
215 215 215
215 215 215
215 215 215
215 215 215
215 215 215
215 215 215
215 215 215
215 215 215
215 215 215
215 215 215
215 215 215
215 215 215
215 215 215
215 215 215
215 215 215
215 215 215
215 215 215
215 215 215
215 215 215
215 215 215
215 215 215
215 215 215
215 215 215
215 215 215
215 215 215
215 215 215
215 215 215
215 215 215
215 215 215
215 215 215
215 215 215
215 215 215
215 215 215
215 215 215
215 215 215
215 215 215
215 215 215
215 215 215
215 215 215
215 215 215
215 215 215
215 215 215
215 215 215
215 215 215
215 215 215
215 215 215
215 215 215
215 215 215
215 215 215
215 215 215
215 215 215
215 215 215
215 215 215
215 215 215
215 215 215
215 215 215
215 215 215
215 215 215
215 215 215
215 215 215
215 215 215
215 215 215
215 215 215
215 215 215
215 215 215
215 215 215
215 215 215
215 215 215
215 215 215
215 215 215
215 215 215
215 215 215
215 215 215
215 215 215
215 215 215
215 215 215
215 215 215
215 215 215
215 215 215
215 215 215
215 215 215
215 215 215
215 215 215
215 215 215
215 215 215
215 215 215
215 215 215
215 215 215
215 215 215
215 215 215
215 215 215
215 215 215
215 215 215
215 215 215
215 215 215
215 215 215
215 215 215
215 215 215
215 215 215
215 215 215
215 215 215
215 215 215
215 215 215
215 215 215
215 215 215
215 215 215
215 215 215
215 215 215
215 215 215
215 215 215
215 215 215
215 215 215
215 215 215
215 215 215
215 215 215
215 215 215
215 215 215
215 215 215
215 215 215
215 215 215
215 215 215
215 215 215
215 215 215
215 215 215
215 215 215
215 215 215
215 215 215
215 215 215
215 215 215
215 215 215
215 215 215
215 215 215
215 215 215
215 215 215
215 215 215
215 215 215
215 215 215
215 215 215
215 215 215
215 215 215
215 215 215
215 215 215
215 215 215
215 215 215
215 215 215
215 215 215
215 215 215
215 215 215
215 215 215
215 215 215
215 215 215
215 215 215
215 215 215
215 215 215
215 215 215
215 215 215
215 215 215
215 215 215
215 215 215
215 215 215
215 215 215
215 215 215
215 215 215
215 215 215
215 215 215
215 215 215
215 215 215
215 215 215
215 215 215
215 215 215
215 215 215
215 215 215
215 215 215
215 215 215
215 215 215
215 215 215
215 215 215
215 215 215
215 215 215
215 215 215
215 215 215
215 215 215
215 215 215
215 215 215
215 215 215
215 215 215
215 215 215
215 215 215
215 215 215
215 215 215
215 215 215
215 215 215
215 215 215
215 215 215
215 215 215
215 215 215
215 215 215
215 215 215
215 215 215
215 215 215
215 215 215
215 215 215
215 215 215
215 215 215
215 215 215
215 215 215
215 215 215
215 215 215
215 215 215
215 215 215
215 215 215
215 215 215
215 215 215
215 215 215
215 215 215
215 215 215
215 215 215
215 215 215
215 215 215
215 215 215
215 215 215
215 215 215
215 215 215
215 215 215
215 215 215
215 215 215
215 215 215
215 215 215
215 215 215
215 215 215
215 215 215
215 215 215
215 215 215
215 215 215
215 215 215
215 215 215
215 215 215
215 215 215
215 215 215
215 215 215
215 215 215
215 215 215
215 215 215
215 215 215
215 215 215
215 215 215
215 215 215
215 215 215
215 215 215
215 215 215
215 215 215
215 215 215
215 215 215
215 215 215
215 215 215
215 215 215
215 215 215
215 215 215
215 215 215
215 215 215
215 215 215
215 215 215
215 215 215
215 215 215
215 215 215
215 215 215
215 215 215
215 215 215
215 215 215
215 215 215
215 215 215
215 215 215
215 215 215
215 215 215
215 215 215
215 215 215
215 215 215
215 215 215
215 215 215
215 215 215
215 215 215
215 215 215
215 215 215
215 215 215
215 215 215
215 215 215
215 215 215
215 215 215
215 215 215
215 215 215
215 215 215
215 215 215
215 215 215
215 215 215
215 215 215
215 215 215
215 215 215
215 215 215
215 215 215
215 215 215
215 215 215
215 215 215
215 215 215
215 215 215
215 215 215
215 215 215
215 215 215
215 215 215
215 215 215
215 215 215
215 215 215
215 215 215
215 215 215
215 215 215
215 215 215
215 215 215
215 215 215
215 215 215
215 215 215
215 215 215
215 215 215
215 215 215
215 215 215
215 215 215
215 215 215
215 215 215
215 215 215
215 215 215
215 215 215
215 215 215
215 215 215
215 215 215
215 215 215
215 215 215
215 215 215
215 215 215
215 215 215
215 215 215
215 215 215
215 215 215
215 215 215
215 215 215
215 215 215
215 215 215
215 215 215
215 215 215
215 215 215
215 215 215
215 215 215
215 215 215
215 215 215
215 215 215
215 215 215
215 215 215
215 215 215
215 215 215
215 215 215
215 215 215
215 215 215
215 215 215
215 215 215
215 215 215
215 215 215
215 215 215
215 215 215
215 215 215
215 215 215
215 215 215
215 215 215
215 215 215
215 215 215
215 215 215
215 215 215
215 215 215
215 215 215
215 215 215
215 215 215
215 215 215
215 215 215
215 215 215
215 215 215
215 215 215
215 215 215
215 215 215
215 215 215
215 215 215
215 215 215
215 215 215
215 215 215
215 215 215
215 215 215
215 215 215
215 215 215
215 215 215
215 215 215
215 215 215
215 215 215
215 215 215
215 215 215
215 215 215
215 215 215
215 215 215
215 215 215
215 215 215
215 215 215
215 215 215
215 215 215
215 215 215
215 215 215
215 215 215
215 215 215
215 215 215
215 215 215
215 215 215
215 215 215
215 215 215
215 215 215
215 215 215
215 215 215
215 215 215
215 215 215
215 215 215
215 215 215
215 215 215
215 215 215
215 215 215
215 215 215
215 215 215
215 215 215
215 215 215
215 215 215
215 215 215
215 215 215
215 215 215
215 215 215
215 215 215
215 215 215
215 215 215
215 215 215
215 215 215
215 215 215
215 215 215
215 215 215
215 215 215
215 215 215
215 215 215
215 215 215
215 215 215
215 215 215
215 215 215
215 215 215
215 215 215
215 215 215
215 215 215
215 215 215
215 215 215
215 215 215
215 215 215
215 215 215
215 215 215
215 215 215
215 215 215
215 215 215
215 215 215
215 215 215
215 215 215
215 215 215
215 215 215
215 215 215
215 215 215
215 215 215
215 215 215
215 215 215
215 215 215
215 215 215
215 215 215
215 215 215
215 215 215
215 215 215
215 215 215
215 215 215
215 215 215
215 215 215
215 215 215
215 215 215
215 215 215
215 215 215
215 215 215
215 215 215
215 215 215
215 215 215
215 215 215
215 215 215
215 215 215
215 215 215
215 215 215
215 215 215
215 215 215
215 215 215
215 215 215
215 215 215
215 215 215
215 215 215
215 215 215
215 215 215
215 215 215
215 215 215
215 215 215
215 215 215
215 215 215
215 215 215
215 215 215
215 215 215
215 215 215
215 215 215
215 215 215
215 215 215
215 215 215
215 215 215
215 215 215
215 215 215
215 215 215
215 215 215
215 215 215
215 215 215
215 215 215
215 215 215
215 215 215
215 215 215
215 215 215
215 215 215
215 215 215
215 215 215
215 215 215
215 215 215
215 215 215
215 215 215
215 215 215
215 215 215
215 215 215
215 215 215
215 215 215
215 215 215
215 215 215
215 215 215
215 215 215
215 215 215
215 215 215
215 215 215
215 215 215
215 215 215
215 215 215
215 215 215
215 215 215
215 215 215
215 215 215
215 215 215
215 215 215
215 215 215
215 215 215
215 215 215
215 215 215
215 215 215
215 215 215
215 215 215
215 215 215
215 215 215
215 215 215
215 215 215
215 215 215
215 215 215
215 215 215
215 215 215
215 215 215
215 215 215
215 215 215
215 215 215
215 215 215
215 215 215
215 215 215
215 215 215
215 215 215
215 215 215
215 215 215
215 215 215
215 215 215
215 215 215
215 215 215
215 215 215
215 215 215
215 215 215
215 215 215
215 215 215
215 215 215
215 215 215
215 215 215
215 215 215
215 215 215
215 215 215
215 215 215
215 215 215
215 215 215
215 215 215
215 215 215
215 215 215
215 215 215
215 215 215
215 215 215
215 215 215
215 215 215
215 215 215
215 215 215
215 215 215
215 215 215
215 215 215
215 215 215
215 215 215
215 215 215
215 215 215
215 215 215
215 215 215
215 215 215
215 215 215
215 215 215
215 215 215
215 215 215
215 215 215
215 215 215
215 215 215
215 215 215
215 215 215
215 215 215
215 215 215
215 215 215
215 215 215
215 215 215
215 215 215
215 215 215
215 215 215
215 215 215
215 215 215
215 215 215
215 215 215
215 215 215
215 215 215
215 215 215
215 215 215
215 215 215
215 215 215
215 215 215
215 215 215
215 215 215
215 215 215
215 215 215
215 215 215
212 223 232
212 220 225
211 223 233
212 219 225
215 215 215
215 215 215
215 215 215
215 215 215
215 215 215
215 215 215
215 215 215
215 215 215
215 215 215
215 215 215
215 215 215
215 215 215
215 215 215
215 215 215
215 215 215
215 215 215
215 215 215
215 215 215
215 215 215
215 215 215
215 215 215
215 215 215
215 215 215
215 215 215
215 215 215
215 215 215
215 215 215
215 215 215
215 215 215
215 215 215
215 215 215
215 215 215
215 215 215
215 215 215
215 215 215
215 215 215
215 215 215
215 215 215
215 215 215
215 215 215
215 215 215
215 215 215
215 215 215
215 215 215
215 215 215
215 215 215
215 215 215
215 215 215
215 215 215
215 215 215
215 215 215
215 215 215
215 215 215
215 215 215
215 215 215
215 215 215
205 234 255
184 255 255
166 255 255
151 255 255
147 255 255
126 255 255
149 255 255
145 255 255
156 255 255
171 255 255
182 255 255
207 227 240
215 215 215
215 215 215
215 215 215
215 215 215
215 215 215
215 215 215
215 215 215
215 215 215
215 215 215
215 215 215
215 215 215
215 215 215
215 215 215
215 215 215
215 215 215
215 215 215
215 215 215
215 215 215
215 215 215
215 215 215
215 215 215
215 215 215
215 215 215
215 215 215
215 215 215
215 215 215
215 215 215
215 215 215
215 215 215
215 215 215
215 215 215
215 215 215
215 215 215
215 215 215
215 215 215
215 215 215
215 215 215
215 215 215
215 215 215
215 215 215
215 215 215
215 215 215
215 215 215
215 215 215
215 215 215
215 215 215
215 215 215
215 215 215
215 215 215
215 215 215
203 237 255
168 255 255
147 255 255
114 255 255
90 255 255
83 255 255
71 255 255
77 255 255
74 255 255
73 255 255
81 255 255
88 255 255
121 255 255
153 255 255
167 255 255
201 242 255
215 215 215
215 215 215
215 215 215
215 215 215
215 215 215
215 215 215
215 215 215
215 215 215
215 215 215
215 215 215
215 215 215
215 215 215
215 215 215
215 215 215
215 215 215
215 215 215
215 215 215
215 215 215
215 215 215
215 215 215
215 215 215
215 215 215
215 215 215
215 215 215
215 215 215
215 215 215
215 215 215
215 215 215
215 215 215
215 215 215
215 215 215
215 215 215
215 215 215
215 215 215
215 215 215
215 215 215
215 215 215
215 215 215
215 215 215
215 215 215
215 215 215
215 215 215
215 215 215
215 215 215
215 215 215
215 215 215
205 234 255
180 255 255
119 255 255
90 255 255
71 255 255
79 255 255
74 255 255
72 255 255
78 255 255
71 255 255
75 255 255
73 255 255
77 255 255
71 255 255
77 255 255
74 255 255
97 255 255
132 255 255
175 255 255
211 224 234
215 215 215
215 215 215
215 215 215
215 215 215
215 215 215
215 215 215
215 215 215
215 215 215
215 215 215
215 215 215
215 215 215
215 215 215
215 215 215
215 215 215
215 215 215
215 215 215
215 215 215
215 215 215
215 215 215
215 215 215
215 215 215
215 215 215
215 215 215
215 215 215
215 215 215
215 215 215
215 215 215
215 215 215
215 215 215
215 215 215
215 215 215
215 215 215
215 215 215
215 215 215
215 215 215
215 215 215
215 215 215
215 215 215
215 215 215
215 215 215
215 215 215
215 215 215
215 215 215
203 236 255
166 255 255
120 255 255
79 255 255
75 255 255
74 255 255
77 255 255
75 255 255
79 255 255
73 255 255
70 255 255
78 255 255
74 255 255
81 255 255
75 255 255
72 255 255
71 255 255
71 255 255
75 255 255
106 255 255
145 255 255
196 253 255
215 215 215
215 215 215
215 215 215
215 215 215
215 215 215
215 215 215
215 215 215
215 215 215
215 215 215
215 215 215
215 215 215
215 215 215
215 215 215
215 215 215
215 215 215
215 215 215
215 215 215
215 215 215
215 215 215
215 215 215
215 215 215
215 215 215
215 215 215
215 215 215
215 215 215
215 215 215
215 215 215
215 215 215
215 215 215
215 215 215
215 215 215
215 215 215
215 215 215
215 215 215
215 215 215
215 215 215
215 215 215
215 215 215
215 215 215
215 215 215
215 215 215
204 232 250
162 255 255
103 255 255
75 255 255
79 255 255
76 255 255
73 255 255
77 255 255
82 255 255
75 255 255
72 255 255
82 255 255
79 255 255
77 255 255
76 255 255
76 255 255
78 255 255
76 255 255
74 255 255
74 255 255
73 255 255
94 255 255
135 255 255
200 238 255
215 215 215
215 215 215
215 215 215
215 215 215
215 215 215
215 215 215
215 215 215
215 215 215
215 215 215
215 215 215
215 215 215
215 215 215
215 215 215
215 215 215
215 215 215
215 215 215
215 215 215
215 215 215
215 215 215
215 215 215
215 215 215
215 215 215
215 215 215
215 215 215
215 215 215
215 215 215
215 215 215
215 215 215
215 215 215
215 215 215
215 215 215
215 215 215
215 215 215
215 215 215
215 215 215
215 215 215
215 215 215
215 215 215
215 215 215
215 215 215
169 255 255
108 255 255
74 255 255
73 255 255
75 255 255
76 255 255
80 255 255
72 255 255
76 255 255
78 255 255
76 255 255
79 255 255
73 255 255
80 255 255
80 255 255
79 255 255
75 255 255
77 255 255
75 255 255
73 255 255
74 255 255
75 255 255
89 255 255
149 255 255
203 237 255
215 215 215
215 215 215
215 215 215
215 215 215
215 215 215
215 215 215
215 215 215
215 215 215
215 215 215
215 215 215
215 215 215
215 215 215
215 215 215
215 215 215
215 215 215
215 215 215
215 215 215
215 215 215
215 215 215
215 215 215
215 215 215
215 215 215
215 215 215
215 215 215
215 215 215
215 215 215
215 215 215
215 215 215
215 215 215
215 215 215
215 215 215
215 215 215
215 215 215
215 215 215
215 215 215
215 215 215
215 215 215
215 215 215
215 215 215
125 255 255
73 255 255
73 255 255
78 255 255
78 255 255
78 255 255
80 255 255
77 255 255
79 255 255
80 255 255
76 255 255
76 255 255
80 255 255
83 255 255
69 255 255
76 255 255
78 255 255
77 255 255
78 255 255
77 255 255
73 255 255
74 255 255
78 255 255
92 255 255
168 255 255
208 229 244
215 215 215
215 215 215
215 215 215
215 215 215
215 215 215
215 215 215
215 215 215
215 215 215
215 215 215
215 215 215
215 215 215
215 215 215
215 215 215
215 215 215
215 215 215
215 215 215
215 215 215
215 215 215
215 215 215
215 215 215
215 215 215
215 215 215
215 215 215
215 215 215
215 215 215
215 215 215
215 215 215
215 215 215
215 215 215
215 215 215
215 215 215
215 215 215
215 215 215
215 215 215
215 215 215
215 215 215
215 215 215
215 215 215
87 255 255
71 255 255
81 255 255
76 255 255
79 255 255
77 255 255
77 255 255
80 255 255
81 255 255
85 255 255
77 255 255
77 255 255
73 255 255
77 255 255
82 255 255
79 255 255
75 255 255
79 255 255
79 255 255
77 255 255
77 255 255
74 255 255
69 255 255
74 255 255
103 255 255
179 255 255
215 215 215
215 215 215
215 215 215
215 215 215
215 215 215
215 215 215
215 215 215
215 215 215
215 215 215
215 215 215
215 215 215
215 215 215
215 215 215
215 215 215
215 215 215
215 215 215
215 215 215
215 215 215
215 215 215
215 215 215
215 215 215
215 215 215
215 215 215
215 215 215
215 215 215
215 215 215
215 215 215
215 215 215
215 215 215
215 215 215
215 215 215
215 215 215
215 215 215
215 215 215
215 215 215
215 215 215
215 215 215
215 215 215
76 255 255
74 255 255
72 255 255
78 255 255
76 255 255
79 255 255
79 255 255
77 255 255
78 255 255
82 255 255
82 255 255
74 255 255
80 255 255
81 255 255
80 255 255
76 255 255
78 255 255
79 255 255
86 255 255
79 255 255
78 255 255
69 255 255
73 255 255
69 255 255
80 255 255
132 255 255
209 225 237
215 215 215
215 215 215
215 215 215
215 215 215
215 215 215
215 215 215
213 213 213
208 208 208
205 205 205
208 208 208
212 212 212
215 215 215
215 215 215
215 215 215
215 215 215
215 215 215
215 215 215
215 215 215
215 215 215
215 215 215
215 215 215
215 215 215
215 215 215
215 215 215
215 215 215
215 215 215
215 215 215
215 215 215
215 215 215
215 215 215
215 215 215
215 215 215
215 215 215
215 215 215
215 215 215
215 215 215
215 215 215
72 255 255
78 255 255
80 255 255
76 255 255
74 255 255
81 255 255
81 255 255
73 255 255
80 255 255
74 255 255
77 255 255
79 255 255
82 255 255
76 255 255
77 255 255
77 255 255
78 255 255
78 255 255
82 255 255
73 255 255
77 255 255
74 255 255
72 255 255
72 255 255
68 255 255
103 255 255
181 255 255
215 215 215
215 215 215
215 215 215
214 214 214
205 205 205
186 187 187
170 170 170
156 157 157
166 166 166
156 156 156
173 173 173
184 184 184
209 209 209
215 215 215
215 215 215
215 215 215
215 215 215
215 215 215
215 215 215
215 215 215
215 215 215
215 215 215
215 215 215
215 215 215
215 215 215
215 215 215
215 215 215
215 215 215
215 215 215
215 215 215
215 215 215
215 215 215
215 215 215
215 215 215
215 215 215
215 215 215
215 215 215
83 255 255
76 255 255
74 255 255
69 255 255
78 255 255
76 255 255
78 255 255
74 255 255
80 255 255
73 255 255
76 255 255
75 255 255
71 255 255
74 255 255
78 255 255
77 255 255
74 255 255
80 255 255
83 255 255
68 255 255
74 255 255
75 255 255
71 255 255
69 255 255
69 255 255
81 255 255
144 255 255
215 215 215
215 215 215
213 213 213
190 191 191
173 173 173
140 140 140
128 128 128
119 119 119
126 126 126
129 129 129
133 133 133
140 140 140
167 167 167
199 199 199
212 212 212
215 215 215
215 215 215
215 215 215
215 215 215
215 215 215
215 215 215
215 215 215
215 215 215
215 215 215
215 215 215
215 215 215
215 215 215
215 215 215
215 215 215
215 215 215
215 215 215
215 215 215
215 215 215
215 215 215
215 215 215
215 215 215
215 215 215
71 255 255
68 255 255
68 255 255
68 255 255
73 255 255
73 255 255
72 255 255
58 255 255
73 255 255
67 255 255
66 255 255
75 255 255
70 255 255
71 255 255
70 255 255
75 255 255
70 255 255
75 255 255
71 255 255
74 255 255
70 255 255
71 255 255
73 255 255
66 255 255
70 255 255
60 255 255
133 255 255
210 227 241
215 215 215
191 203 207
149 161 166
125 132 134
126 127 127
124 124 124
126 126 126
123 123 123
128 128 128
125 125 125
124 124 124
132 132 132
150 150 150
199 199 199
214 214 214
215 215 215
215 215 215
215 215 215
215 215 215
215 215 215
215 215 215
215 215 215
215 215 215
215 215 215
215 215 215
215 215 215
215 215 215
215 215 215
215 215 215
215 215 215
215 215 215
215 215 215
215 215 215
215 215 215
215 215 215
215 215 215
65 255 255
62 255 255
68 255 255
63 255 255
61 255 255
61 255 255
59 255 255
59 255 255
64 255 255
67 255 255
64 255 255
61 255 255
63 255 255
65 255 255
58 255 255
64 255 255
59 255 255
66 255 255
63 255 255
63 255 255
63 255 255
60 255 255
64 255 255
64 255 255
61 255 255
51 255 255
114 255 255
203 236 255
206 216 220
146 188 204
108 160 182
116 128 133
125 125 125
123 124 125
125 125 125
125 125 125
128 128 128
125 125 125
129 129 129
126 126 126
133 133 133
170 170 170
205 205 205
215 215 215
215 215 215
215 215 215
215 215 215
215 215 215
215 215 215
215 215 215
215 215 215
215 215 215
215 215 215
215 215 215
215 215 215
215 215 215
215 215 215
215 215 215
215 215 215
215 215 215
215 215 215
215 215 215
215 215 215
215 215 215
59 255 255
57 255 255
57 255 255
58 255 255
59 255 255
54 255 255
60 255 255
54 255 255
58 255 255
55 255 255
59 255 255
57 255 255
56 255 255
61 255 255
61 255 255
53 255 255
56 255 255
54 255 255
59 255 255
55 255 255
58 255 255
59 255 255
53 255 255
57 255 255
53 255 255
48 255 255
112 255 255
200 246 255
164 197 210
111 190 222
95 155 180
118 134 139
124 125 125
126 126 127
130 131 132
126 126 126
126 126 126
121 121 121
125 125 125
129 129 129
127 127 127
139 140 140
185 185 185
215 215 215
215 215 215
215 215 215
215 215 215
215 215 215
215 215 215
215 215 215
215 215 215
215 215 215
215 215 215
215 215 215
215 215 215
215 215 215
215 215 215
215 215 215
215 215 215
215 215 215
215 215 215
215 215 215
215 215 215
215 215 215
49 255 255
50 255 255
46 255 255
47 255 255
47 255 255
45 255 255
50 255 255
50 255 255
51 255 255
49 255 255
50 255 255
45 255 255
48 255 255
47 255 255
50 255 255
52 255 255
54 255 255
52 255 255
50 255 255
53 255 255
52 255 255
44 255 255
45 255 255
47 255 255
45 255 255
42 255 255
115 255 255
204 229 249
140 185 202
78 169 204
95 165 193
118 136 144
125 127 127
128 129 129
128 128 128
129 129 129
128 128 128
128 128 128
130 130 130
125 125 125
123 123 123
130 130 130
173 173 173
210 210 210
215 215 215
215 215 215
215 215 215
215 215 215
215 215 215
215 215 215
215 215 215
215 215 215
215 215 215
215 215 215
215 215 215
215 215 215
215 215 215
215 215 215
215 215 215
215 215 215
215 215 215
215 215 215
215 215 215
215 215 215
50 255 255
48 255 255
49 255 255
38 255 255
43 255 255
44 255 255
43 255 255
42 255 255
41 255 255
45 255 255
41 255 255
39 255 255
42 255 255
40 255 255
40 255 255
39 255 255
40 255 255
40 255 255
42 255 255
40 255 255
43 255 255
38 255 255
38 255 255
37 255 255
40 255 255
47 255 255
138 255 255
202 223 239
134 182 201
73 152 187
94 138 156
117 126 129
125 127 128
122 125 126
122 123 123
121 122 122
128 129 128
123 124 124
127 128 128
123 123 123
126 126 126
120 120 120
157 157 157
207 207 207
215 215 215
215 215 215
215 215 215
215 215 215
215 215 215
215 215 215
215 215 215
215 215 215
215 215 215
215 215 215
215 215 215
215 215 215
215 215 215
215 215 215
215 215 215
215 215 215
215 215 215
215 215 215
215 215 215
215 215 215
64 255 255
39 255 255
39 255 255
40 255 255
35 255 255
36 255 255
35 255 255
35 255 255
35 255 255
38 237 255
36 255 255
39 255 255
37 255 255
39 255 255
36 255 255
36 255 255
36 255 255
35 255 255
36 255 255
34 255 255
37 255 255
35 255 255
33 255 255
33 255 255
35 255 255
72 255 255
149 255 255
192 201 204
103 152 173
67 127 153
91 130 149
107 116 121
107 109 110
109 110 110
109 110 110
107 107 107
113 113 113
111 111 111
111 112 112
109 109 109
109 109 109
102 103 105
139 140 142
190 191 193
186 187 191
146 150 159
128 132 143
130 134 147
157 161 170
184 186 191
213 213 213
215 215 215
215 215 215
215 215 215
215 215 215
215 215 215
215 215 215
215 215 215
215 215 215
215 215 215
215 215 215
215 215 215
215 215 215
215 215 215
91 255 255
35 255 255
33 255 255
32 255 255
34 255 255
33 255 255
34 255 255
33 255 255
33 255 255
34 255 255
33 241 255
34 255 255
34 255 255
33 255 255
33 255 255
34 255 255
33 255 255
35 255 255
33 255 255
34 255 255
34 255 255
30 255 255
29 255 255
31 255 255
35 255 255
110 255 255
196 236 255
192 202 205
121 150 163
66 107 125
72 87 93
80 84 86
84 85 85
80 80 80
83 84 84
82 82 82
84 100 87
78 79 79
83 84 84
82 82 82
79 80 81
75 78 84
128 131 137
154 156 163
99 104 119
51 59 80
37 46 72
35 44 70
64 72 94
108 114 130
168 171 177
215 215 215
215 215 215
215 215 215
215 215 215
215 215 215
215 215 215
215 215 215
215 215 215
215 215 215
215 215 215
215 215 215
215 215 215
215 215 215
164 253 255
70 255 255
34 255 255
34 255 255
32 255 255
33 255 255
34 255 255
33 255 255
33 255 255
32 255 255
33 249 255
33 255 255
32 255 255
32 255 255
33 255 255
33 255 255
31 255 255
34 255 255
32 255 255
31 255 255
32 255 255
31 255 255
29 255 255
30 255 255
42 255 255
115 255 255
180 191 201
181 182 183
111 134 144
58 93 108
60 78 86
61 64 69
64 65 68
64 65 66
60 60 61
61 62 62
69 92 74
75 123 84
66 78 68
60 63 61
64 66 67
57 61 68
89 93 103
92 96 109
34 42 63
25 34 58
25 33 58
24 33 57
30 39 64
39 47 70
98 105 122
168 171 177
215 215 215
215 215 215
215 215 215
215 215 215
215 215 215
215 215 215
215 215 215
215 215 215
215 215 215
215 215 215
215 215 215
215 215 215
197 216 232
133 255 255
41 255 255
32 255 255
33 255 255
33 255 255
32 255 255
33 255 255
33 255 255
32 255 255
32 255 255
32 255 255
32 255 255
32 255 255
33 255 255
31 255 255
32 255 255
32 255 255
31 255 255
31 255 255
29 255 255
30 255 255
29 255 255
33 255 255
60 255 255
97 125 147
110 110 110
103 104 104
77 90 94
57 88 101
62 74 84
59 55 70
59 51 66
61 59 64
61 62 62
56 59 58
65 107 74
66 100 73
57 62 58
57 66 59
55 62 60
56 61 65
58 62 72
36 45 59
24 33 54
23 31 54
25 34 57
22 30 53
29 42 65
24 32 56
44 51 73
107 110 119
140 140 140
154 154 154
154 154 154
169 169 169
168 168 168
174 174 174
174 174 174
180 180 180
192 192 192
192 192 192
194 194 194
195 195 195
131 131 131
103 144 177
61 199 255
38 255 255
33 255 255
34 255 255
32 255 255
30 255 255
32 255 255
32 255 255
32 255 255
31 255 255
31 255 255
32 255 255
30 255 255
31 255 255
30 255 255
31 255 255
29 255 255
30 255 255
29 255 255
28 255 255
33 255 255
45 255 255
64 125 174
69 71 71
73 74 74
73 74 74
62 64 70
58 63 77
55 60 80
59 56 72
59 50 67
52 46 58
58 58 59
56 59 58
57 63 60
55 58 57
51 60 53
44 60 48
45 55 52
55 62 62
39 48 50
20 31 39
16 27 46
21 32 55
23 35 54
24 32 56
25 37 58
27 35 59
20 27 48
40 45 59
76 76 76
81 81 81
77 77 77
90 90 90
96 96 96
107 107 107
101 101 101
108 108 108
113 113 113
117 117 117
114 114 115
124 124 124
66 67 67
67 67 67
64 97 125
53 199 255
39 255 255
33 255 255
32 255 255
30 255 255
30 255 255
30 255 255
30 255 255
30 255 255
30 255 255
30 255 255
30 255 255
29 255 255
28 255 255
29 255 255
29 255 255
28 255 255
28 255 255
31 255 255
45 237 255
59 167 255
69 81 89
74 76 77
70 72 73
68 66 73
57 45 70
45 32 69
43 32 61
52 46 65
53 50 61
52 51 56
58 58 59
57 59 59
57 59 58
55 59 57
48 55 50
51 58 54
46 56 50
34 60 40
18 42 24
13 35 25
12 29 31
14 26 38
17 24 42
19 29 47
20 27 47
17 23 43
21 28 48
49 52 62
71 71 71
71 71 71
70 70 70
70 70 70
72 72 72
72 72 72
69 69 69
71 71 71
68 68 68
68 68 68
65 65 65
68 68 68
68 69 69
68 68 68
68 68 68
63 95 122
62 183 255
45 255 255
35 255 255
31 255 255
29 255 255
29 255 255
29 255 255
29 255 255
28 255 255
28 255 255
29 255 255
27 255 255
28 255 255
27 255 255
27 255 255
28 255 255
29 255 255
39 252 255
53 120 168
63 71 74
59 76 83
64 76 81
63 77 83
54 51 73
39 20 57
30 8 48
33 11 53
45 30 59
47 46 57
55 56 59
56 57 59
56 58 59
56 57 57
56 59 58
55 56 56
50 53 52
31 49 36
16 51 22
13 48 18
11 44 17
11 35 21
10 20 28
15 30 41
15 23 39
15 20 38
15 21 39
30 35 51
53 54 60
70 70 70
72 72 72
71 71 71
73 73 73
70 70 70
70 70 70
70 70 70
71 71 71
68 68 68
68 68 68
67 67 67
69 69 69
68 68 69
71 74 75
69 72 73
66 72 74
68 83 92
60 106 141
48 185 255
41 243 255
33 255 255
30 255 255
27 255 255
27 255 255
27 255 255
27 255 255
27 255 255
27 255 255
27 255 255
25 255 255
26 255 255
26 255 255
28 157 251
39 115 168
42 71 83
48 78 91
50 72 81
57 74 82
58 79 89
42 39 63
31 12 52
28 8 46
31 9 48
34 21 46
39 37 44
44 46 47
43 45 46
46 47 47
47 48 48
45 45 45
45 46 46
44 47 45
25 38 28
9 41 15
10 56 16
10 40 14
11 33 18
8 18 23
8 13 25
11 15 31
15 19 33
30 34 47
48 50 58
65 66 67
72 72 72
72 72 72
72 72 72
71 71 71
69 69 69
68 68 68
68 68 68
72 72 72
72 72 72
69 69 69
70 70 70
70 70 70
66 70 73
61 69 72
63 73 77
61 73 79
60 75 81
58 79 88
51 74 84
42 118 169
36 140 214
30 200 255
25 202 255
23 212 255
24 255 255
23 255 255
23 255 255
23 254 255
22 213 255
22 210 255
23 210 255
24 82 116
26 65 80
30 62 75
34 67 82
40 73 87
44 76 91
45 75 86
49 77 89
41 60 79
23 14 44
27 7 42
24 8 38
32 24 45
32 34 38
33 35 37
30 30 31
30 33 33
28 34 33
27 31 30
32 35 34
35 38 37
23 31 25
8 30 12
7 36 11
9 39 13
11 28 16
16 23 26
11 14 24
9 13 23
17 20 29
38 40 46
52 53 56
61 62 63
68 68 68
69 69 69
69 69 69
72 72 72
71 71 71
73 73 73
67 67 67
72 72 72
71 71 71
70 70 70
68 68 68
68 68 68
60 77 84
63 76 82
57 70 75
52 75 85
48 75 87
45 69 79
42 71 83
38 71 85
27 66 83
27 67 84
23 80 111
22 87 126
21 116 176
20 91 133
22 132 207
21 88 127
21 80 111
23 71 91
23 68 84
26 58 73
33 69 85
34 69 83
37 82 100
42 76 93
47 75 87
49 75 87
44 67 78
40 60 75
27 30 48
20 10 31
25 14 33
32 28 39
38 38 43
38 38 40
38 37 38
28 34 32
15 25 22
18 29 26
31 36 34
40 43 41
31 76 38
69 255 133
107 255 207
57 255 105
35 162 53
23 26 29
27 29 33
26 28 33
25 27 32
38 39 43
47 48 51
57 58 59
61 61 62
69 69 69
67 67 67
70 70 70
68 68 68
72 72 72
71 71 71
70 70 70
72 72 72
69 69 70
69 69 69
71 71 71
55 77 87
54 74 82
50 72 81
45 70 81
46 74 86
41 70 82
34 75 92
33 69 84
28 68 85
28 65 80
26 66 83
25 63 78
26 69 86
23 71 91
24 62 77
25 71 92
28 65 81
30 73 89
30 73 92
34 74 91
40 75 89
42 75 89
44 76 90
45 80 95
47 79 92
55 80 93
50 67 76
46 65 79
34 44 58
30 29 43
35 34 43
38 38 46
48 49 54
45 47 49
52 56 58
33 41 43
15 23 22
15 24 22
36 44 40
46 50 48
84 255 150
171 255 255
255 255 255
239 255 255
91 255 142
40 43 44
41 43 46
41 43 46
41 43 46
48 49 51
56 57 59
53 54 57
60 60 61
62 63 63
69 69 70
73 73 73
69 69 70
71 71 71
70 71 71
74 74 74
71 71 71
68 68 69
65 66 66
68 68 68
51 72 80
47 72 83
48 77 90
44 71 81
43 69 79
41 76 90
44 74 87
38 68 79
35 75 91
35 70 84
30 69 85
32 69 83
28 68 84
34 75 92
33 74 92
33 77 93
35 75 92
37 71 86
44 75 89
42 81 99
41 68 78
50 81 95
44 75 88
54 76 85
56 75 86
52 73 85
58 70 77
52 66 74
49 62 73
48 55 63
49 58 66
53 56 61
49 55 60
49 55 60
51 54 57
37 40 41
21 27 26
26 32 30
45 48 47
50 53 52
93 255 145
215 255 255
255 255 255
255 255 255
188 255 255
50 57 53
52 54 55
52 55 56
51 53 55
59 60 62
61 62 63
62 62 64
60 61 62
61 62 63
64 65 65
67 67 68
71 71 71
71 71 71
69 69 69
69 69 69
71 71 71
67 67 67
68 68 68
68 68 68
52 73 82
54 75 84
51 75 85
46 73 83
42 73 86
47 79 93
39 69 81
44 73 84
38 69 82
41 79 94
44 85 102
39 74 89
39 80 96
40 77 93
40 78 94
42 72 85
42 75 90
41 73 86
42 74 89
44 79 94
52 81 92
49 76 88
49 77 89
52 82 94
50 82 98
59 72 77
52 73 86
57 75 86
55 67 74
56 66 73
54 63 70
59 66 71
56 62 67
59 64 67
58 62 64
49 52 52
43 46 47
44 47 48
51 56 55
58 63 59
74 245 98
155 255 255
248 255 255
223 255 255
139 255 239
60 63 62
59 61 61
55 58 58
63 64 65
56 57 59
65 65 66
63 64 65
67 67 67
66 66 67
66 67 67
66 66 67
70 71 71
65 65 65
75 75 75
71 71 71
73 73 73
71 71 71
68 68 68
67 67 67
55 76 86
55 76 85
50 74 83
51 76 86
49 77 88
49 76 88
50 82 95
46 81 96
43 79 95
43 78 93
43 77 93
40 81 99
45 74 87
41 71 82
45 81 96
45 73 85
49 78 89
45 79 94
48 74 85
50 73 83
53 81 94
55 85 97
57 73 80
58 76 85
54 75 84
59 78 87
60 70 77
58 74 82
62 75 80
60 69 74
56 66 73
60 66 70
57 59 62
56 61 64
60 66 69
55 60 61
55 57 57
59 63 65
59 63 62
61 84 69
63 98 71
96 255 156
100 255 162
107 255 177
78 255 105
62 80 67
60 64 62
63 64 65
60 62 62
60 62 62
62 63 64
67 67 68
68 69 69
64 65 65
69 70 70
69 69 70
67 67 68
68 69 69
69 69 69
72 72 72
72 72 72
70 70 71
72 72 72
67 68 68
58 78 86
49 70 79
57 74 80
51 74 85
52 75 85
48 77 89
53 74 83
50 75 86
44 69 79
44 83 99
47 79 93
50 73 82
48 75 87
47 76 89
49 74 84
52 79 92
52 79 91
50 84 100
51 80 93
53 81 94
54 79 90
55 74 82
56 78 88
58 76 85
59 76 82
56 74 84
60 82 93
59 70 75
57 73 82
60 70 76
61 72 77
62 68 72
62 68 72
60 69 74
59 62 65
61 66 68
61 64 64
60 61 61
58 65 61
62 71 66
62 90 69
65 133 85
66 147 83
59 99 68
61 83 67
65 81 70
65 74 68
58 60 60
65 70 68
64 65 66
62 63 63
68 69 69
65 66 66
67 68 69
71 72 72
67 67 67
67 67 67
68 69 69
68 68 68
71 71 71
72 72 72
71 71 71
70 70 70
68 68 68
56 78 87
57 72 80
53 81 95
53 75 84
53 77 88
55 81 92
50 79 92
50 77 89
48 72 82
47 76 89
47 76 88
48 75 86
49 81 95
51 80 93
53 82 95
52 78 90
52 79 92
53 78 90
55 77 87
52 79 92
58 83 95
55 76 85
61 77 84
56 83 96
61 79 88
64 77 84
58 73 80
63 76 83
66 74 78
63 72 77
59 67 72
61 71 76
67 70 71
65 70 73
62 69 71
61 65 65
59 64 65
59 67 66
64 69 66
64 79 71
65 80 68
68 86 75
69 104 76
68 95 75
69 92 74
63 77 67
65 83 69
66 68 67
65 66 66
62 64 64
68 68 69
64 65 65
70 71 71
64 65 66
70 70 71
69 69 69
69 69 70
71 71 72
66 66 67
69 69 69
70 70 70
66 67 67
71 71 71
68 68 68
54 73 81
53 74 84
57 76 84
56 79 89
55 71 78
53 80 92
52 76 87
52 72 80
54 76 86
51 74 82
54 78 88
55 82 94
55 75 83
52 79 92
56 81 92
54 80 92
52 79 90
63 81 90
56 80 90
57 75 84
56 81 93
56 80 91
59 74 81
57 83 96
61 79 87
60 77 85
57 70 77
59 72 79
62 70 74
61 68 70
64 72 77
60 68 71
61 69 72
64 71 74
65 69 71
62 64 66
60 72 71
63 69 68
64 66 66
65 68 68
65 67 66
69 87 75
69 87 74
64 72 67
68 73 71
64 85 70
64 71 66
67 76 69
65 68 69
68 70 69
61 62 63
71 72 72
67 68 68
66 67 68
67 67 68
67 67 67
69 69 69
71 72 73
67 68 68
69 69 69
72 72 72
70 70 70
70 70 70
68 68 68
52 73 83
57 79 88
57 79 88
54 76 86
54 84 99
57 80 90
51 79 91
54 79 91
53 74 84
54 78 90
56 81 92
54 77 87
56 89 105
57 82 94
58 82 93
54 81 94
51 78 91
54 77 88
57 82 95
60 79 89
60 81 91
59 78 87
59 75 83
61 82 92
57 72 80
64 71 74
62 70 74
63 76 83
60 68 72
64 73 77
61 71 77
62 69 73
67 72 74
62 70 73
65 71 75
62 66 67
61 67 69
65 73 72
62 66 66
65 67 68
63 64 64
67 78 71
66 85 72
67 68 68
69 81 74
66 78 70
68 72 70
69 79 73
65 67 67
64 65 65
68 69 69
65 65 65
68 69 69
66 66 67
68 69 69
67 68 68
67 67 68
66 68 68
73 73 74
69 69 69
69 69 69
73 73 73
68 68 68
71 73 73
61 73 79
58 74 82
57 75 84
60 81 90
62 76 82
57 81 92
57 82 94
55 77 88
57 76 84
54 80 92
58 82 94
54 82 95
61 81 90
57 81 92
56 79 89
58 79 89
58 76 84
58 79 89
54 85 100
58 76 85
61 84 95
60 78 87
58 75 84
56 68 74
61 78 85
62 75 82
63 73 77
62 69 72
57 65 69
62 71 76
63 71 73
67 74 77
62 69 72
62 64 65
64 72 70
61 65 68
67 71 71
67 70 71
67 76 69
71 80 74
68 69 69
63 65 64
64 66 68
69 83 73
70 73 71
65 72 68
68 75 70
64 66 66
68 82 72
68 69 69
64 65 65
65 67 66
68 69 69
71 72 72
67 68 68
69 69 70
69 70 70
70 70 71
68 69 69
67 67 67
70 70 70
68 69 69
68 69 69
70 70 70
60 78 86
61 81 90
56 76 85
57 84 97
58 80 90
56 75 83
60 75 82
58 77 86
59 74 80
58 76 84
60 82 92
57 79 88
59 80 90
57 76 84
62 83 94
59 76 84
61 76 84
56 73 80
65 76 80
63 79 87
60 71 76
62 81 91
65 80 87
60 77 86
62 69 73
63 77 84
65 78 85
63 75 82
66 76 80
62 70 74
66 73 77
63 73 74
61 70 76
66 73 77
63 71 74
63 73 77
66 72 74
65 67 67
64 70 67
69 71 71
64 67 69
67 76 75
68 70 69
66 70 67
64 69 66
66 77 71
70 74 71
64 66 66
67 76 71
66 68 69
67 72 69
72 76 73
72 72 72
68 69 69
67 67 67
64 66 66
68 68 68
67 68 68
68 68 69
67 68 68
70 70 70
66 66 67
72 72 72
68 68 68
62 78 86
59 79 89
61 80 90
60 75 82
61 81 91
61 76 82
61 77 83
58 81 92
59 79 88
58 80 90
60 83 94
61 78 86
59 77 86
57 77 87
61 78 85
58 76 85
60 84 96
58 82 94
64 76 82
59 84 96
60 78 88
61 78 85
61 79 89
60 72 76
64 72 77
66 78 85
64 70 73
66 73 76
66 71 73
64 75 80
63 72 76
64 74 78
64 69 72
66 69 70
68 74 76
66 76 76
67 72 73
69 76 75
69 79 72
68 74 71
68 69 69
65 69 67
66 73 71
66 68 68
70 76 72
65 67 68
69 75 71
74 79 75
66 68 68
67 69 69
66 68 69
64 64 65
68 73 70
69 73 70
69 70 71
68 70 70
68 68 68
69 69 69
72 72 72
69 69 70
66 67 68
69 70 70
70 70 70
68 69 69
63 75 80
64 73 77
58 77 85
63 74 78
61 83 93
62 75 82
63 82 92
61 77 84
62 75 81
63 74 79
57 74 82
62 77 84
59 83 94
62 78 86
60 77 86
62 80 89
59 75 83
58 78 88
64 76 81
60 76 84
57 75 83
61 72 76
63 73 77
63 71 76
64 71 75
63 71 74
63 74 78
66 74 77
62 71 75
61 74 81
67 75 73
66 72 75
65 72 75
63 65 66
65 72 75
68 72 73
63 65 66
65 72 74
69 78 76
68 78 75
66 68 68
69 78 76
67 67 68
69 71 71
68 80 75
67 72 70
65 69 66
71 76 72
69 70 70
67 68 68
67 73 70
69 78 71
67 73 69
66 67 67
66 67 67
69 69 69
66 67 67
67 67 67
72 72 72
71 71 71
68 68 68
71 72 73
71 71 71
69 69 69
63 77 83
61 77 84
63 77 83
59 76 84
62 77 84
62 82 92
63 79 87
61 77 85
59 75 82
63 75 81
62 75 81
67 76 81
59 76 83
62 74 79
62 73 78
62 74 79
60 71 76
62 79 87
64 78 85
61 81 91
62 81 90
61 76 83
64 74 79
64 75 81
62 75 81
63 75 81
62 79 86
67 76 79
69 82 84
65 73 76
65 71 73
66 73 76
65 70 73
65 75 75
68 72 73
66 79 74
67 73 73
67 71 68
66 69 70
70 76 73
66 67 67
69 72 72
69 74 70
65 68 69
69 79 73
69 75 71
66 67 67
69 73 70
68 70 71
72 77 73
69 74 71
68 69 69
70 70 70
67 67 67
69 69 69
69 69 69
68 70 71
65 68 69
67 67 67
69 69 69
70 70 70
67 67 68
66 66 66
69 69 70
63 73 76
60 75 81
58 73 80
62 73 77
64 75 79
63 78 85
61 80 90
58 76 84
60 78 87
64 78 84
66 77 82
64 75 80
63 78 86
61 79 87
65 77 82
65 72 76
62 79 87
63 79 87
58 76 86
64 77 83
64 76 82
67 77 82
64 73 77
63 76 82
62 75 81
58 74 81
62 74 81
65 75 79
67 74 78
64 74 78
66 71 74
67 72 75
65 71 74
67 75 79
65 72 74
67 71 73
64 74 73
65 70 68
68 72 72
67 76 78
70 75 72
67 69 71
62 67 64
66 71 73
66 67 67
66 69 69
67 71 73
73 79 74
65 65 66
71 76 73
67 69 70
69 73 70
67 68 68
66 69 69
65 67 68
69 70 70
72 77 73
71 71 72
69 71 70
68 68 68
71 71 71
69 69 69
65 66 66
69 69 69
61 75 81
62 78 85
61 79 89
57 74 82
63 76 82
61 78 86
64 76 82
63 74 80
64 75 79
63 78 86
63 76 82
66 77 83
61 80 89
63 73 78
62 73 77
62 73 78
59 76 84
66 78 83
61 72 78
61 72 78
64 76 82
63 76 82
58 71 77
65 74 78
67 76 80
65 77 83
67 78 84
66 77 83
66 74 79
65 76 81
66 71 72
64 68 70
64 70 73
67 73 75
62 68 71
68 72 74
67 74 73
64 67 69
66 70 71
67 74 72
66 75 74
66 71 69
65 68 67
67 68 68
67 68 67
68 69 69
70 74 72
67 68 69
67 68 68
67 74 72
69 70 70
71 71 71
72 76 73
68 69 69
70 72 73
71 71 71
65 65 66
70 70 70
69 73 70
68 69 69
70 71 71
68 70 71
70 70 70
71 71 71
60 73 79
62 79 87
63 77 84
63 74 79
63 74 80
64 78 85
62 76 83
58 76 85
63 77 84
61 78 86
64 80 88
64 77 84
64 78 83
61 71 76
65 77 83
61 71 76
64 75 80
64 72 76
65 77 83
64 75 81
62 68 71
60 77 85
62 70 74
66 76 80
63 71 75
65 76 81
64 73 78
66 78 83
65 69 71
58 67 71
71 79 77
62 65 67
65 70 71
67 73 77
67 78 78
70 72 73
66 73 77
66 72 69
67 70 71
70 75 73
70 75 78
70 78 77
66 72 70
67 75 73
69 69 70
67 74 71
70 75 72
68 74 71
69 70 70
70 71 71
71 75 72
64 66 67
69 71 71
72 77 74
72 72 72
69 70 70
72 77 73
64 65 65
68 69 70
69 70 71
70 70 70
71 71 71
66 66 66
67 67 68
66 70 72
67 80 87
59 74 81
67 77 82
65 72 76
61 73 77
63 82 90
62 74 80
64 72 76
65 80 86
63 70 73
59 84 97
65 80 87
67 80 86
62 72 77
64 76 82
67 79 84
63 76 83
66 75 80
65 73 77
62 69 72
62 71 75
58 71 76
64 77 83
57 63 66
65 74 78
68 79 84
64 72 75
66 74 73
64 70 73
68 74 77
62 73 78
64 70 73
65 74 73
64 73 77
70 76 73
67 71 71
70 71 71
65 67 69
69 73 74
67 69 70
66 70 72
67 71 72
67 69 71
67 67 67
68 68 68
68 69 69
64 65 65
66 72 70
69 76 75
71 72 72
71 76 72
68 69 69
67 69 68
67 68 68
69 73 70
67 69 70
67 68 68
69 78 72
67 67 67
68 68 68
66 67 66
68 70 71
66 67 67
61 71 75
61 76 84
61 75 82
65 78 84
65 75 80
64 78 84
63 74 79
58 76 84
64 72 76
63 77 84
60 73 80
61 77 84
64 77 83
62 75 82
64 74 79
58 70 76
68 81 87
61 74 80
66 77 82
60 72 78
67 72 76
62 74 79
64 79 85
69 76 80
68 73 76
64 72 75
66 71 72
67 75 79
67 69 71
69 75 76
67 75 78
68 72 74
69 73 74
66 72 75
70 79 77
66 75 74
66 70 73
66 69 71
68 68 69
65 73 71
66 74 74
65 69 71
67 71 73
65 69 70
65 66 66
68 69 70
66 71 68
68 70 71
66 66 66
65 66 66
68 68 68
67 68 69
71 72 72
69 70 70
66 67 67
70 70 70
71 71 71
70 71 71
69 70 70
69 69 70
68 68 68
69 70 71
65 65 65
68 68 68
63 72 77
64 74 78
66 74 78
62 72 76
64 73 77
62 73 78
65 78 85
66 77 81
66 77 82
64 74 79
62 82 92
66 75 78
65 75 79
57 68 73
66 77 82
63 78 86
63 76 83
63 73 78
64 73 76
65 72 74
65 70 72
66 75 80
66 76 80
66 79 79
65 72 75
62 70 74
67 73 75
64 70 71
69 72 74
69 78 78
62 70 74
64 68 70
68 76 80
66 69 71
67 72 75
67 69 70
66 76 74
67 72 73
68 78 73
67 71 72
67 75 75
68 73 75
65 67 69
68 70 70
65 72 70
67 68 69
70 71 72
71 72 73
68 72 72
68 68 69
67 68 68
68 70 70
70 71 71
68 69 69
69 73 70
67 68 69
67 68 67
69 70 70
67 72 69
66 66 66
70 71 71
67 67 67
69 70 70
71 71 71
63 70 73
64 75 80
60 77 85
66 75 79
62 74 79
64 77 83
62 76 83
67 77 82
62 73 78
61 72 78
68 76 79
65 77 82
69 78 82
65 73 77
65 75 80
65 74 78
64 73 77
63 73 78
68 74 77
64 74 79
66 78 83
66 73 77
69 77 81
65 71 73
63 71 75
66 74 78
66 70 72
65 73 77
67 71 74
71 77 80
68 72 74
67 73 76
66 70 72
65 80 76
63 67 69
68 72 74
67 69 71
67 73 76
67 73 71
59 65 68
68 73 75
67 68 69
64 65 66
69 78 72
73 77 74
69 70 71
66 70 72
72 72 73
64 69 66
69 72 72
65 65 65
68 68 69
67 67 67
68 69 70
72 73 73
67 67 68
69 70 71
71 71 71
67 68 68
72 76 73
64 64 64
68 68 68
71 71 71
69 69 69
64 74 78
60 70 75
62 72 76
64 78 85
64 78 85
65 77 82
62 77 85
66 74 78
65 75 79
65 73 77
65 75 80
64 78 86
64 77 84
65 73 77
67 77 82
64 73 77
63 74 80
66 77 83
64 71 74
69 75 78
63 69 72
68 71 73
64 72 76
64 75 81
68 74 77
68 75 77
66 78 84
66 74 79
64 70 73
66 73 77
65 70 72
66 70 72
65 75 78
66 70 71
65 73 77
68 74 77
68 69 69
67 69 69
67 70 72
65 70 71
66 70 72
70 79 78
66 71 69
64 67 70
69 75 73
68 70 70
69 76 73
68 75 74
65 67 68
69 70 71
68 69 69
68 70 71
67 69 69
70 71 72
70 71 72
69 69 70
70 70 70
67 71 68
72 72 72
65 67 68
69 69 70
65 65 66
71 75 72
70 70 70
65 73 77
67 76 80
61 75 82
65 73 77
67 78 83
65 76 81
61 74 80
64 73 77
66 76 81
65 73 77
65 76 82
65 74 78
65 74 78
66 72 75
65 74 79
65 73 77
62 75 81
64 77 83
67 73 75
66 71 73
66 74 78
65 72 75
66 71 73
69 79 83
66 72 75
62 71 75
65 73 76
65 71 74
66 75 74
65 76 75
68 75 73
65 72 76
69 71 71
64 69 72
66 70 72
65 70 73
66 67 68
67 71 72
66 70 72
64 69 70
68 70 71
68 72 73
70 70 71
70 75 72
67 72 69
69 74 71
66 67 68
69 70 70
67 69 69
67 68 69
67 68 68
70 71 71
69 72 72
67 69 70
67 67 68
70 71 71
68 68 68
70 71 71
69 69 69
66 68 68
69 69 70
66 67 67
69 69 69
69 69 69
64 73 77
65 73 78
68 78 83
66 75 79
68 75 78
68 76 80
63 71 74
62 76 83
64 73 78
58 69 74
65 73 77
64 73 77
65 73 78
62 70 75
64 72 75
65 77 82
68 77 82
62 74 79
65 73 77
62 76 84
67 70 72
66 73 77
64 71 75
64 72 76
64 75 81
63 70 73
64 71 74
69 72 74
66 71 73
63 68 71
65 78 79
70 78 77
68 69 71
63 68 70
66 71 73
70 71 72
68 75 73
65 68 69
68 75 74
71 78 77
65 69 71
68 75 73
68 75 73
66 67 67
66 67 67
62 65 66
68 68 68
65 69 71
67 70 71
69 69 70
67 69 70
66 66 67
68 69 70
71 71 71
71 71 72
70 71 72
68 68 68
69 73 70
68 69 69
67 68 68
67 68 68
68 68 68
66 66 67
69 69 69
