P3
# Rays 2018
64 64
255
255 255 255
255 255 255
255 255 255
255 255 255
255 255 255
255 255 255
255 255 255
255 255 255
255 255 255
255 255 255
255 255 255
255 255 255
255 255 255
255 255 255
255 255 255
255 255 255
255 255 255
255 255 255
255 255 255
255 255 255
255 255 255
255 255 255
255 255 255
255 255 255
255 255 255
255 255 255
255 255 255
255 255 255
255 255 255
255 255 255
255 255 255
255 255 255
255 255 255
255 255 255
255 255 255
255 255 255
255 255 255
255 255 255
255 255 255
255 255 255
255 255 255
255 255 255
255 255 255
255 255 255
255 255 255
255 255 255
255 255 255
255 255 255
255 255 255
255 255 255
255 255 255
255 255 255
255 255 255
255 255 255
255 255 255
255 255 255
255 255 255
255 255 255
255 255 255
255 255 255
255 255 255
255 255 255
255 255 255
255 255 255
255 255 255
255 255 255
255 255 255
255 255 255
255 255 255
255 255 255
255 255 255
255 255 255
255 255 255
255 255 255
255 255 255
255 255 255
255 255 255
255 255 255
255 255 255
255 255 255
255 255 255
255 255 255
255 255 255
255 255 255
255 255 255
255 255 255
255 255 255
255 255 255
255 255 255
255 255 255
255 255 255
255 255 255
255 255 255
255 255 255
255 255 255
255 255 255
255 255 255
255 255 255
255 255 255
255 255 255
255 255 255
255 255 255
255 255 255
255 255 255
255 255 255
255 255 255
255 255 255
255 255 255
255 255 255
255 255 255
255 255 255
255 255 255
255 255 255
255 255 255
255 255 255
255 255 255
255 255 255
255 255 255
255 255 255
255 255 255
255 255 255
255 255 255
255 255 255
255 255 255
255 255 255
255 255 255
255 255 255
255 255 255
255 255 255
255 255 255
255 255 255
255 255 255
255 255 255
255 255 255
255 255 255
255 255 255
255 255 255
255 255 255
255 255 255
255 255 255
255 255 255
255 255 255
255 255 255
255 255 255
255 255 255
255 255 255
255 255 255
255 255 255
255 255 255
255 255 255
255 255 255
255 255 255
255 255 255
255 255 255
255 255 255
255 255 255
255 255 255
255 255 255
255 255 255
255 255 255
255 255 255
255 255 255
255 255 255
255 255 255
255 255 255
255 255 255
255 255 255
255 255 255
255 255 255
255 255 255
255 255 255
255 255 255
255 255 255
255 255 255
255 255 255
255 255 255
255 255 255
255 255 255
255 255 255
255 255 255
255 255 255
255 255 255
255 255 255
255 255 255
255 255 255
255 255 255
255 255 255
255 255 255
255 255 255
255 255 255
255 255 255
255 255 255
255 255 255
255 255 255
255 255 255
255 255 255
255 255 255
255 255 255
255 255 255
255 255 255
255 255 255
255 255 255
255 255 255
255 255 255
255 255 255
255 255 255
255 255 255
255 255 255
255 255 255
255 255 255
255 255 255
255 255 255
255 255 255
255 255 255
255 255 255
255 255 255
255 255 255
255 255 255
255 255 255
255 255 255
255 255 255
255 255 255
255 255 255
255 255 255
255 255 255
255 255 255
255 255 255
255 255 255
255 255 255
255 255 255
255 255 255
255 255 255
255 255 255
255 255 255
255 255 255
255 255 255
255 255 255
255 255 255
255 255 255
255 255 255
255 255 255
255 255 255
255 255 255
255 255 255
255 255 255
255 255 255
255 255 255
255 255 255
255 255 255
255 255 255
255 255 255
255 255 255
255 255 255
255 255 255
255 255 255
255 255 255
255 255 255
255 255 255
255 255 255
255 255 255
255 255 255
255 255 255
255 255 255
255 255 255
255 255 255
255 255 255
255 255 255
255 255 255
255 255 255
255 255 255
255 255 255
255 255 255
255 255 255
255 255 255
255 255 255
255 255 255
255 255 255
255 255 255
255 255 255
255 255 255
255 255 255
255 255 255
255 255 255
255 255 255
255 255 255
255 255 255
255 255 255
255 255 255
255 255 255
255 255 255
255 255 255
255 255 255
255 255 255
255 255 255
255 255 255
255 255 255
255 255 255
255 255 255
255 255 255
255 255 255
255 255 255
255 255 255
255 255 255
255 255 255
255 255 255
255 255 255
255 255 255
255 255 255
255 255 255
255 255 255
255 255 255
255 255 255
255 255 255
255 255 255
255 255 255
255 255 255
255 255 255
255 255 255
255 255 255
255 255 255
255 255 255
255 255 255
255 255 255
255 255 255
255 255 255
255 255 255
255 255 255
255 255 255
255 255 255
255 255 255
255 255 255
255 255 255
255 255 255
255 255 255
255 255 255
255 255 255
255 255 255
255 255 255
255 255 255
255 255 255
255 255 255
255 255 255
255 255 255
255 255 255
255 255 255
255 255 255
255 255 255
255 255 255
255 255 255
255 255 255
255 255 255
255 255 255
255 255 255
255 255 255
255 255 255
255 255 255
255 255 255
255 255 255
255 255 255
255 255 255
255 255 255
255 255 255
255 255 255
255 255 255
255 255 255
255 255 255
255 255 255
255 255 255
255 255 255
255 255 255
255 255 255
255 255 255
255 255 255
255 255 255
255 255 255
255 255 255
255 255 255
255 255 255
255 255 255
255 255 255
255 255 255
255 255 255
255 255 255
255 255 255
255 255 255
255 255 255
255 255 255
255 255 255
255 255 255
255 255 255
255 255 255
255 255 255
255 255 255
255 255 255
255 255 255
255 255 255
255 255 255
255 255 255
255 255 255
255 255 255
255 255 255
255 255 255
255 255 255
255 255 255
255 255 255
255 255 255
255 255 255
255 255 255
255 255 255
255 255 255
255 255 255
255 255 255
255 255 255
255 255 255
255 255 255
255 255 255
255 255 255
255 255 255
255 255 255
255 255 255
255 255 255
255 255 255
255 255 255
255 255 255
255 255 255
255 255 255
255 255 255
255 255 255
255 255 255
255 255 255
255 255 255
255 255 255
255 255 255
255 255 255
255 255 255
255 255 255
255 255 255
255 255 255
255 255 255
255 255 255
255 255 255
255 255 255
255 255 255
255 255 255
255 255 255
255 255 255
255 255 255
255 255 255
255 255 255
255 255 255
255 255 255
255 255 255
255 255 255
255 255 255
255 255 255
255 255 255
255 255 255
255 255 255
255 255 255
255 255 255
255 255 255
255 255 255
255 255 255
255 255 255
255 255 255
255 255 255
255 255 255
255 255 255
255 255 255
255 255 255
255 255 255
255 255 255
255 255 255
255 255 255
255 255 255
255 255 255
255 255 255
255 255 255
255 255 255
255 255 255
255 255 255
255 255 255
255 255 255
255 255 255
255 255 255
255 255 255
255 255 255
255 255 255
255 255 255
255 255 255
255 255 255
255 255 255
255 255 255
255 255 255
255 255 255
255 255 255
255 255 255
255 255 255
255 255 255
255 255 255
255 255 255
255 255 255
255 255 255
255 255 255
255 255 255
255 255 255
255 255 255
255 255 255
255 255 255
255 255 255
255 255 255
255 255 255
255 255 255
255 255 255
255 255 255
255 255 255
255 255 255
255 255 255
255 255 255
255 255 255
255 255 255
255 255 255
255 255 255
255 255 255
255 255 255
255 255 255
255 255 255
255 255 255
255 255 255
255 255 255
255 255 255
255 255 255
255 255 255
255 255 255
255 255 255
255 255 255
255 255 255
255 255 255
255 255 255
255 255 255
255 255 255
255 255 255
255 255 255
255 255 255
255 255 255
255 255 255
255 255 255
255 255 255
255 255 255
255 255 255
255 255 255
255 255 255
255 255 255
255 255 255
255 255 255
255 255 255
255 255 255
255 255 255
255 255 255
255 255 255
255 255 255
255 255 255
255 255 255
255 255 255
255 255 255
255 255 255
255 255 255
255 255 255
255 255 255
255 255 255
255 255 255
255 255 255
255 255 255
255 255 255
255 255 255
255 255 255
255 255 255
255 255 255
255 255 255
255 255 255
255 255 255
255 255 255
255 255 255
255 255 255
255 255 255
255 255 255
255 255 255
255 255 255
255 255 255
255 255 255
255 255 255
255 255 255
255 255 255
255 255 255
255 255 255
255 255 255
255 255 255
255 255 255
255 255 255
255 255 255
255 255 255
255 255 255
255 255 255
255 255 255
255 255 255
255 255 255
255 255 255
255 255 255
255 255 255
255 255 255
255 255 255
255 255 255
255 255 255
255 255 255
255 255 255
255 255 255
255 255 255
255 255 255
255 255 255
255 255 255
255 255 255
255 255 255
255 255 255
255 255 255
255 255 255
255 255 255
255 255 255
255 255 255
255 255 255
255 255 255
255 255 255
255 255 255
255 255 255
255 255 255
255 255 255
255 255 255
255 255 255
255 255 255
255 255 255
255 255 255
255 255 255
255 255 255
255 255 255
255 255 255
255 255 255
255 255 255
255 255 255
255 255 255
255 255 255
255 255 255
255 255 255
255 255 255
255 255 255
255 255 255
255 255 255
255 255 255
255 255 255
255 255 255
255 255 255
255 255 255
255 255 255
255 255 255
255 255 255
255 255 255
255 255 255
255 255 255
255 255 255
255 255 255
255 255 255
255 255 255
255 255 255
255 255 255
255 255 255
255 255 255
255 255 255
255 255 255
255 255 255
255 255 255
255 255 255
255 255 255
255 255 255
255 255 255
255 255 255
255 255 255
255 255 255
255 255 255
255 255 255
255 255 255
255 255 255
255 255 255
255 255 255
255 255 255
255 255 255
255 255 255
255 255 255
255 255 255
255 255 255
255 255 255
255 255 255
255 255 255
255 255 255
255 255 255
255 255 255
255 255 255
255 255 255
255 255 255
255 255 255
255 255 255
255 255 255
255 255 255
255 255 255
255 255 255
255 255 255
255 255 255
255 255 255
255 255 255
255 255 255
255 255 255
255 255 255
255 255 255
255 255 255
255 255 255
255 255 255
255 255 255
255 255 255
255 255 255
255 255 255
255 255 255
255 255 255
255 255 255
255 255 255
255 255 255
255 255 255
255 255 255
255 255 255
255 255 255
255 255 255
255 255 255
255 255 255
255 255 255
255 255 255
255 255 255
255 255 255
255 255 255
255 255 255
255 255 255
255 255 255
255 255 255
255 255 255
255 255 255
255 255 255
255 255 255
255 255 255
255 255 255
255 255 255
255 255 255
255 255 255
255 255 255
255 255 255
255 255 255
255 255 255
255 255 255
255 255 255
255 255 255
255 255 255
255 255 255
255 255 255
255 255 255
255 255 255
255 255 255
255 255 255
255 255 255
255 255 255
255 255 255
255 255 255
255 255 255
255 255 255
255 255 255
255 255 255
255 255 255
255 255 255
255 255 255
255 255 255
255 255 255
255 255 255
255 255 255
255 255 255
255 255 255
255 255 255
255 255 255
255 255 255
255 255 255
255 255 255
255 255 255
255 255 255
255 255 255
255 255 255
255 255 255
255 255 255
255 255 255
255 255 255
255 255 255
255 255 255
255 255 255
255 255 255
255 255 255
255 255 255
255 255 255
255 255 255
255 255 255
255 255 255
255 255 255
255 255 255
255 255 255
255 255 255
255 255 255
255 255 255
255 255 255
255 255 255
255 255 255
255 255 255
255 255 255
255 255 255
255 255 255
255 255 255
255 255 255
255 255 255
255 255 255
255 255 255
255 255 255
255 255 255
255 255 255
255 255 255
255 255 255
255 255 255
255 255 255
255 255 255
255 255 255
255 255 255
255 255 255
255 255 255
255 255 255
255 255 255
255 255 255
255 255 255
255 255 255
255 255 255
255 255 255
255 255 255
255 255 255
255 255 255
255 255 255
255 255 255
255 255 255
255 255 255
255 255 255
255 255 255
255 255 255
255 255 255
255 255 255
255 255 255
255 255 255
255 255 255
255 255 255
255 255 255
255 255 255
255 255 255
255 255 255
255 255 255
255 255 255
255 255 255
255 255 255
255 255 255
255 255 255
255 255 255
255 255 255
255 255 255
255 255 255
255 255 255
255 255 255
255 255 255
255 255 255
255 255 255
255 255 255
255 255 255
255 255 255
255 255 255
255 255 255
255 255 255
255 255 255
255 255 255
255 255 255
255 255 255
255 255 255
255 255 255
255 255 255
255 255 255
255 255 255
255 255 255
255 255 255
255 255 255
255 255 255
255 255 255
255 255 255
255 255 255
255 255 255
255 255 255
255 255 255
255 255 255
255 255 255
255 255 255
255 255 255
255 255 255
255 255 255
255 255 255
255 255 255
255 255 255
255 255 255
255 255 255
255 255 255
255 255 255
255 255 255
255 255 255
255 255 255
255 255 255
255 255 255
255 255 255
255 255 255
255 255 255
255 255 255
255 255 255
255 255 255
255 255 255
255 255 255
255 255 255
255 255 255
255 255 255
255 255 255
255 255 255
255 255 255
255 255 255
255 255 255
255 255 255
255 255 255
255 255 255
255 255 255
255 255 255
255 255 255
255 255 255
255 255 255
255 255 255
255 255 255
255 255 255
255 255 255
255 255 255
255 255 255
255 255 255
255 255 255
255 255 255
255 255 255
255 255 255
255 255 255
255 255 255
255 255 255
255 255 255
255 255 255
255 255 255
255 255 255
255 255 255
255 255 255
255 255 255
255 255 255
255 255 255
255 255 255
255 255 255
255 255 255
255 255 255
255 255 255
255 255 255
255 255 255
255 255 255
255 255 255
255 255 255
255 255 255
255 255 255
255 255 255
255 255 255
255 255 255
255 255 255
255 255 255
255 255 255
255 255 255
255 255 255
255 255 255
255 255 255
255 255 255
255 255 255
255 255 255
255 255 255
255 255 255
255 255 255
255 255 255
255 255 255
255 255 255
255 255 255
255 255 255
255 255 255
255 255 255
255 255 255
255 255 255
255 255 255
255 255 255
255 255 255
255 255 255
255 255 255
255 255 255
255 255 255
255 255 255
255 255 255
255 255 255
255 255 255
255 255 255
255 255 255
255 255 255
255 255 255
255 255 255
255 255 255
255 255 255
255 255 255
255 255 255
255 255 255
255 255 255
255 255 255
255 255 255
255 255 255
255 255 255
255 255 255
255 255 255
255 255 255
255 255 255
255 255 255
255 255 255
255 255 255
255 255 255
255 255 255
255 255 255
255 255 255
255 255 255
255 255 255
255 255 255
255 255 255
255 255 255
255 255 255
255 255 255
255 255 255
255 255 255
255 255 255
255 255 255
255 255 255
255 255 255
255 255 255
255 255 255
255 255 255
255 255 255
255 255 255
255 255 255
255 255 255
255 255 255
255 255 255
255 255 255
255 255 255
255 255 255
255 255 255
255 255 255
255 255 255
255 255 255
255 255 255
255 255 255
255 255 255
255 255 255
255 255 255
255 255 255
255 255 255
255 255 255
255 255 255
255 255 255
255 255 255
255 255 255
255 255 255
255 255 255
255 255 255
255 255 255
255 255 255
255 255 255
255 255 255
255 255 255
255 255 255
255 255 255
255 255 255
255 255 255
230 236 231
212 219 212
182 195 182
174 189 174
176 192 176
189 204 189
209 218 209
248 249 248
255 255 255
255 255 255
255 255 255
255 255 255
255 255 255
255 255 255
255 255 255
255 255 255
255 255 255
255 255 255
255 255 255
255 255 255
255 255 255
255 255 255
255 255 255
255 255 255
255 255 255
255 255 255
255 255 255
255 255 255
255 255 255
255 255 255
255 255 255
255 255 255
255 255 255
255 255 255
255 255 255
255 255 255
255 255 255
255 255 255
255 255 255
255 255 255
255 255 255
255 255 255
255 255 255
255 255 255
255 255 255
255 255 255
255 255 255
255 255 255
255 255 255
255 255 255
255 255 255
255 255 255
255 255 255
255 255 255
255 255 255
255 255 255
255 255 255
255 255 255
255 255 255
255 255 255
255 255 255
250 251 250
221 227 221
166 184 167
114 140 115
74 106 75
64 103 65
59 93 60
47 84 48
65 100 66
76 112 77
114 142 115
165 184 165
205 214 205
255 255 255
255 255 255
255 255 255
255 255 255
255 255 255
255 255 255
255 255 255
255 255 255
255 255 255
255 255 255
255 255 255
255 255 255
255 255 255
255 255 255
255 255 255
255 255 255
255 255 255
255 255 255
255 255 255
255 255 255
255 255 255
255 255 255
255 255 255
255 255 255
255 255 255
255 255 255
255 255 255
255 255 255
255 255 255
255 255 255
255 255 255
255 255 255
255 255 255
255 255 255
255 255 255
255 255 255
255 255 255
255 255 255
255 255 255
255 255 255
255 255 255
255 255 255
255 255 255
255 255 255
255 255 255
255 255 255
255 255 255
255 255 255
255 255 255
255 255 255
222 228 222
168 183 168
97 127 97
36 75 37
9 54 10
9 62 10
7 51 8
6 49 6
7 52 8
10 64 11
7 55 8
13 58 14
27 73 28
85 116 85
165 183 165
242 245 242
255 255 255
255 255 255
255 255 255
255 255 255
255 255 255
255 255 255
255 255 255
255 255 255
255 255 255
255 255 255
255 255 255
255 255 255
255 255 255
255 255 255
255 255 255
255 255 255
255 255 255
255 255 255
255 255 255
255 255 255
255 255 255
255 255 255
255 255 255
255 255 255
255 255 255
255 255 255
255 255 255
255 255 255
255 255 255
255 255 255
255 255 255
255 255 255
255 255 255
255 255 255
255 255 255
255 255 255
255 255 255
255 255 255
255 255 255
255 255 255
255 255 255
255 255 255
255 255 255
255 255 255
255 255 255
255 255 255
255 255 255
221 228 221
124 151 125
41 76 41
7 54 8
6 48 7
6 47 6
7 55 8
7 51 8
8 55 9
6 52 7
7 53 8
7 54 8
8 56 9
8 54 9
11 58 12
62 91 62
140 158 140
215 222 215
255 255 255
255 255 255
255 255 255
255 255 255
255 255 255
255 255 255
255 255 255
255 255 255
255 255 255
255 255 255
255 255 255
255 255 255
255 255 255
255 255 255
255 255 255
255 255 255
255 255 255
255 255 255
255 255 255
255 255 255
255 255 255
255 255 255
255 255 255
255 255 255
255 255 255
255 255 255
255 255 255
255 255 255
255 255 255
255 255 255
255 255 255
255 255 255
255 255 255
255 255 255
255 255 255
255 255 255
255 255 255
255 255 255
255 255 255
255 255 255
255 255 255
255 255 255
255 255 255
255 255 255
255 255 255
230 234 230
132 156 132
26 68 27
5 45 6
7 51 8
9 59 10
8 54 9
7 51 8
7 53 8
8 55 9
7 52 8
7 51 8
8 56 9
6 50 7
7 52 8
6 50 7
8 56 9
34 76 35
119 142 120
225 230 225
255 255 255
255 255 255
255 255 255
255 255 255
255 255 255
255 255 255
255 255 255
255 255 255
255 255 255
255 255 255
255 255 255
255 255 255
255 255 255
255 255 255
255 255 255
255 255 255
255 255 255
255 255 255
255 255 255
255 255 255
255 255 255
255 255 255
255 255 255
255 255 255
255 255 255
255 255 255
255 255 255
255 255 255
255 255 255
255 255 255
255 255 255
255 255 255
255 255 255
255 255 255
255 255 255
255 255 255
255 255 255
255 255 255
255 255 255
255 255 255
255 255 255
255 255 255
255 255 255
242 243 242
159 178 159
52 87 52
6 49 7
6 49 7
7 51 8
7 53 8
8 58 10
7 53 8
6 46 7
6 49 7
6 49 7
7 53 8
7 50 7
6 46 7
7 52 8
6 48 7
7 51 8
6 50 7
33 78 34
133 153 133
242 243 242
255 255 255
255 255 255
255 255 255
255 255 255
255 255 255
255 255 255
255 255 255
255 255 255
255 255 255
255 255 255
255 255 255
255 255 255
255 255 255
255 255 255
255 255 255
255 255 255
255 255 255
255 255 255
255 255 255
255 255 255
255 255 255
255 255 255
255 255 255
255 255 255
255 255 255
255 255 255
255 255 255
255 255 255
255 255 255
255 255 255
255 255 255
255 255 255
255 255 255
255 255 255
255 255 255
255 255 255
255 255 255
255 255 255
255 255 255
255 255 255
255 255 255
255 255 255
190 202 190
77 109 77
9 54 10
5 45 6
7 53 8
7 50 8
7 50 8
7 50 8
6 50 7
6 47 7
6 49 7
6 47 7
6 45 6
7 54 8
7 50 8
6 47 7
5 44 6
6 48 7
7 50 8
6 46 6
58 91 59
171 184 172
253 254 253
255 255 255
255 255 255
255 255 255
255 255 255
255 255 255
253 253 253
243 243 243
244 244 244
240 240 240
250 250 250
255 255 255
255 255 255
255 255 255
255 255 255
255 255 255
255 255 255
255 255 255
255 255 255
255 255 255
255 255 255
255 255 255
255 255 255
255 255 255
255 255 255
255 255 255
255 255 255
255 255 255
255 255 255
255 255 255
255 255 255
255 255 255
255 255 255
255 255 255
255 255 255
255 255 255
255 255 255
255 255 255
255 255 255
255 255 255
255 255 255
253 254 253
161 179 161
45 79 45
6 50 7
6 47 7
7 52 8
6 46 7
6 47 7
4 39 5
7 50 8
5 44 6
6 45 7
5 46 6
6 47 7
6 46 7
5 45 6
6 48 7
8 54 9
6 47 7
6 48 7
6 50 7
15 59 16
115 138 115
232 236 232
255 255 255
255 255 255
254 254 254
244 244 244
230 230 230
195 195 195
196 196 196
186 186 186
176 176 176
195 195 195
221 221 221
250 250 250
255 255 255
255 255 255
255 255 255
255 255 255
255 255 255
255 255 255
255 255 255
255 255 255
255 255 255
255 255 255
255 255 255
255 255 255
255 255 255
255 255 255
255 255 255
255 255 255
255 255 255
255 255 255
255 255 255
255 255 255
255 255 255
255 255 255
255 255 255
255 255 255
255 255 255
255 255 255
255 255 255
255 255 255
242 243 242
126 146 127
5 42 6
7 50 8
6 48 7
6 44 7
4 39 5
6 46 7
6 48 7
6 46 7
6 48 7
6 45 7
6 48 7
7 51 8
6 45 7
6 49 7
6 45 6
6 47 7
6 45 6
5 44 6
5 42 6
5 44 6
61 94 62
181 192 181
255 255 255
254 254 254
237 237 237
185 185 185
166 166 166
137 137 137
148 148 148
144 145 144
138 138 138
152 152 152
169 169 169
199 199 199
231 231 231
255 255 255
255 255 255
255 255 255
255 255 255
255 255 255
255 255 255
255 255 255
255 255 255
255 255 255
255 255 255
255 255 255
255 255 255
255 255 255
255 255 255
255 255 255
255 255 255
255 255 255
255 255 255
255 255 255
255 255 255
255 255 255
255 255 255
255 255 255
255 255 255
255 255 255
255 255 255
255 255 255
218 223 218
86 113 86
5 41 5
5 42 6
6 45 7
5 41 6
7 47 7
5 41 6
6 46 7
5 43 6
5 44 6
7 50 8
5 43 6
6 43 6
7 50 8
5 39 5
7 47 8
6 48 7
8 55 9
5 43 6
5 42 6
5 42 6
26 65 27
148 165 148
254 254 254
231 232 231
172 176 172
151 151 151
141 141 141
138 138 138
150 150 150
147 147 147
148 148 148
145 145 145
138 138 138
149 149 149
190 190 190
240 240 240
254 254 254
255 255 255
255 255 255
255 255 255
255 255 255
255 255 255
255 255 255
255 255 255
255 255 255
255 255 255
255 255 255
255 255 255
255 255 255
255 255 255
255 255 255
255 255 255
255 255 255
255 255 255
255 255 255
255 255 255
255 255 255
255 255 255
255 255 255
255 255 255
255 255 255
255 255 255
205 212 205
102 123 103
6 44 6
5 40 5
5 39 5
4 36 4
5 42 6
4 39 5
6 43 7
5 40 5
7 49 8
5 42 6
5 42 6
5 43 6
6 45 7
5 41 5
6 43 6
6 45 6
6 46 7
5 41 6
5 41 5
4 37 4
20 54 21
134 151 134
222 228 223
173 181 173
136 142 136
142 142 142
142 143 142
142 142 142
145 146 145
142 142 142
138 138 138
139 139 139
153 153 153
142 142 142
147 147 147
190 190 190
243 243 243
255 255 255
255 255 255
255 255 255
255 255 255
255 255 255
255 255 255
255 255 255
255 255 255
255 255 255
255 255 255
255 255 255
255 255 255
255 255 255
255 255 255
255 255 255
255 255 255
255 255 255
255 255 255
255 255 255
255 255 255
255 255 255
255 255 255
255 255 255
255 255 255
255 255 255
200 206 200
84 109 84
4 37 5
4 38 5
4 39 5
6 44 6
5 39 5
4 39 5
4 36 5
5 40 6
5 40 6
5 41 6
4 38 5
6 44 6
5 43 6
5 43 6
6 44 7
6 43 6
4 37 5
5 39 6
4 39 5
3 35 4
6 39 6
152 167 152
190 198 191
113 128 113
127 133 128
141 142 141
143 143 143
143 144 143
145 145 145
147 147 147
141 141 141
146 146 146
143 143 143
144 144 144
141 141 141
167 167 167
221 221 221
255 255 255
255 255 255
255 255 255
255 255 255
255 255 255
255 255 255
255 255 255
255 255 255
255 255 255
255 255 255
255 255 255
255 255 255
255 255 255
255 255 255
255 255 255
255 255 255
255 255 255
255 255 255
255 255 255
255 255 255
255 255 255
255 255 255
255 255 255
255 255 255
255 255 255
244 245 244
106 124 106
5 39 5
5 41 6
4 36 5
4 37 5
5 41 6
4 36 5
4 36 5
4 36 5
4 35 4
3 34 4
4 35 5
6 43 6
5 39 6
5 39 5
5 41 6
6 41 6
5 38 5
4 35 4
5 40 5
3 35 4
14 42 15
105 124 105
138 151 138
81 97 81
124 129 124
138 139 138
144 144 144
146 147 146
149 149 149
145 145 145
139 139 139
142 142 142
146 146 146
144 144 144
143 143 142
147 148 147
195 195 195
249 249 249
255 255 255
255 255 255
255 255 255
255 255 255
255 255 255
255 255 255
255 255 255
255 255 255
255 255 255
255 255 255
255 255 255
255 255 255
255 255 255
255 255 255
255 255 255
255 255 255
255 255 255
255 255 255
255 255 255
255 255 255
255 255 255
255 255 255
255 255 255
255 255 255
255 255 255
156 171 156
27 55 28
4 36 5
4 34 4
5 38 5
4 38 5
4 35 4
4 37 5
4 36 5
4 35 5
5 40 6
4 35 5
4 35 5
4 36 5
5 38 6
4 37 5
4 33 4
4 36 5
3 32 4
3 33 4
4 34 4
38 61 38
127 141 127
135 147 135
95 106 95
141 142 141
141 143 141
142 142 142
135 135 135
140 140 140
135 135 135
140 139 139
142 142 142
145 144 144
143 144 143
139 138 138
142 142 142
185 185 185
238 238 238
255 255 255
255 255 255
255 255 255
255 255 255
255 255 255
255 255 255
255 255 255
255 255 255
255 255 255
255 255 255
255 255 255
255 255 255
255 255 255
255 255 255
255 255 255
255 255 255
255 255 255
255 255 255
255 255 255
255 255 255
255 255 255
255 255 255
255 255 255
255 255 255
255 255 255
194 201 194
58 80 59
4 36 5
3 29 3
5 38 5
4 35 5
4 33 4
4 33 4
4 33 4
4 35 5
4 37 5
5 37 5
4 36 5
4 33 4
3 29 3
3 30 4
5 37 5
3 29 3
3 30 4
3 30 3
2 27 3
69 88 69
156 168 156
107 122 108
98 105 98
125 126 125
121 121 121
124 125 124
125 125 125
124 124 124
128 128 128
126 126 126
119 119 119
118 118 117
120 119 119
119 119 119
123 121 120
163 155 150
232 230 229
240 237 236
201 187 181
175 151 141
160 136 127
193 177 171
226 218 214
254 254 253
255 255 255
255 255 255
255 255 255
255 255 255
255 255 255
255 255 255
255 255 255
255 255 255
255 255 255
255 255 255
255 255 255
255 255 255
255 255 255
255 255 255
255 255 255
255 255 255
255 255 255
255 255 255
248 250 248
137 151 138
44 66 44
4 33 4
4 35 5
3 29 3
3 30 4
4 33 5
3 29 3
3 31 4
3 31 4
4 34 5
4 35 5
3 30 3
4 34 5
3 30 4
3 32 4
4 32 4
2 26 2
3 30 3
10 33 10
119 132 119
215 219 216
129 136 130
73 80 73
91 92 91
87 88 87
86 87 86
90 90 90
95 95 95
90 89 89
93 93 93
87 87 87
88 88 88
92 91 91
93 91 90
88 77 72
150 138 132
187 173 168
132 102 90
101 63 48
82 33 12
89 38 16
106 64 47
147 114 100
213 201 196
252 250 250
255 255 255
255 255 255
255 255 255
255 255 255
255 255 255
255 255 255
255 255 255
255 255 255
255 255 255
255 255 255
255 255 255
255 255 255
255 255 255
255 255 255
255 255 255
255 255 255
255 255 255
255 255 255
228 232 228
111 126 112
17 42 17
3 28 3
3 29 3
3 30 4
2 26 3
4 31 4
3 27 3
4 33 4
3 29 3
3 28 3
3 29 3
3 29 3
3 31 4
3 27 3
3 27 3
2 24 2
3 27 4
60 75 60
160 167 160
213 213 213
121 127 121
61 65 61
72 74 72
67 68 64
72 72 70
67 67 67
64 65 64
70 72 70
67 67 67
69 68 68
74 73 72
74 73 71
71 67 64
73 59 52
113 96 89
121 95 86
67 26 10
68 22 3
82 29 4
70 22 3
76 25 4
84 35 14
135 107 96
231 224 220
255 255 255
255 255 255
255 255 255
255 255 255
255 255 255
255 255 255
255 255 255
255 255 255
255 255 255
255 255 255
255 255 255
255 255 255
238 238 238
240 240 240
233 233 233
233 233 233
224 224 224
212 212 212
191 191 191
147 154 147
53 68 53
8 33 9
3 29 3
2 26 3
3 27 3
3 28 3
3 31 4
2 24 2
3 29 4
3 29 4
2 25 2
2 25 2
2 23 2
3 27 3
2 26 2
2 22 2
18 35 18
73 80 74
125 126 125
138 138 138
100 102 100
56 63 56
59 62 57
61 63 52
62 63 53
61 61 56
64 64 64
62 66 63
65 67 65
68 68 67
67 65 62
72 66 60
72 63 57
73 60 53
81 65 61
81 49 37
60 18 2
70 23 3
72 24 4
69 23 3
73 24 4
69 22 3
86 43 25
141 126 120
168 168 168
164 164 164
194 194 194
197 197 197
195 195 195
205 205 205
208 208 208
206 206 206
215 215 215
216 216 216
233 233 233
239 239 239
157 157 157
152 152 152
150 150 150
144 144 144
124 124 124
127 127 127
107 107 107
110 111 110
76 81 76
40 52 40
10 30 10
2 23 2
3 27 3
2 24 2
2 25 2
2 25 3
2 24 2
2 25 2
2 23 2
2 25 2
2 23 2
3 27 3
2 22 2
28 41 28
61 68 61
76 78 76
82 82 82
83 83 83
81 83 79
56 59 49
57 60 51
50 52 37
51 52 37
58 58 53
61 62 61
59 62 60
57 60 57
63 63 61
62 58 51
69 61 52
69 60 51
72 61 54
71 52 43
54 22 9
55 17 3
63 20 3
73 25 4
57 17 2
61 19 3
59 18 3
62 20 3
77 58 50
88 88 88
90 90 90
94 94 94
98 98 98
114 114 114
121 121 121
115 115 115
128 128 128
128 128 128
136 136 136
148 148 148
158 158 158
78 78 78
82 82 82
79 79 79
83 83 83
84 84 84
82 83 82
81 81 81
83 83 83
83 83 83
67 70 67
50 60 50
32 47 32
12 31 12
2 22 3
2 24 2
1 21 2
2 23 2
2 24 2
1 22 2
2 22 2
3 22 3
6 24 6
22 36 22
50 58 50
71 74 71
76 77 76
81 82 81
75 77 71
61 62 48
47 50 23
43 46 15
55 56 40
54 54 46
54 55 49
58 58 56
61 61 61
56 57 56
61 61 60
60 57 52
64 59 54
64 54 46
71 57 43
64 44 27
62 34 14
55 22 6
44 11 1
52 15 2
54 17 2
55 17 2
61 19 3
59 21 5
71 55 48
84 83 83
81 81 81
85 85 85
85 85 85
83 83 83
79 79 79
83 83 83
79 79 79
84 84 84
85 85 85
80 80 80
82 82 82
82 82 82
79 80 79
83 83 83
78 78 78
78 78 78
84 84 84
75 76 75
77 78 77
77 78 77
71 73 71
71 74 71
42 50 43
34 44 34
15 32 16
5 24 6
4 21 4
3 20 3
2 20 3
3 22 4
2 19 3
9 23 9
16 29 17
29 38 30
41 48 41
41 48 41
50 57 50
59 64 59
50 54 38
41 42 9
33 34 0
33 35 0
46 47 27
48 49 43
57 57 55
59 59 58
57 58 57
58 57 57
54 53 52
57 54 52
63 61 58
57 45 34
66 45 21
75 50 23
64 40 17
53 28 11
42 13 3
40 9 1
47 14 2
51 16 2
50 16 2
54 29 20
73 64 61
87 87 87
84 84 84
84 84 84
83 83 83
82 82 82
83 83 83
82 82 82
85 85 85
79 79 79
85 85 85
82 82 82
81 81 81
81 81 81
78 79 78
81 81 81
81 82 81
78 79 79
76 78 76
66 69 66
70 72 70
61 65 61
53 58 53
48 53 48
40 47 40
29 37 30
18 27 18
20 30 20
8 21 9
4 18 5
5 18 5
4 17 4
9 21 9
11 22 12
17 27 17
20 29 20
33 41 33
34 42 34
41 48 41
40 48 40
35 38 20
31 32 0
28 29 0
22 23 0
28 30 10
39 40 35
45 45 45
43 43 43
47 47 47
45 44 44
44 44 44
49 48 47
54 51 50
51 39 27
52 32 13
58 38 16
59 38 16
49 29 12
34 13 5
34 9 1
38 10 1
39 12 4
51 27 19
69 58 54
85 83 82
88 88 88
84 84 84
85 85 85
85 85 85
81 81 81
83 83 83
84 84 84
78 78 78
88 88 88
85 85 85
83 83 82
83 83 83
78 79 78
76 77 76
76 77 76
70 72 70
69 71 69
66 69 66
61 65 61
55 60 55
45 51 45
48 54 48
36 43 37
29 37 29
26 35 27
20 29 20
13 24 13
15 26 16
12 22 12
12 23 12
11 23 12
18 28 18
19 29 20
22 32 22
26 36 27
41 48 41
42 49 42
50 57 51
52 58 52
39 42 33
25 27 6
21 22 0
24 26 2
24 25 13
34 35 33
34 34 33
36 37 36
32 36 33
26 36 29
32 41 35
39 42 39
46 43 41
49 41 33
46 31 15
50 31 13
46 29 12
40 25 14
33 18 12
30 11 5
26 10 5
35 18 14
50 39 35
65 60 58
77 76 75
81 80 80
84 83 83
85 85 85
81 81 81
83 83 83
83 83 83
85 85 85
82 82 82
84 84 84
82 82 82
82 82 82
83 83 83
74 75 74
79 80 79
71 74 71
63 67 63
64 69 64
57 61 57
57 62 57
48 54 48
42 50 43
45 52 45
40 48 40
40 47 40
29 38 29
31 40 32
22 32 23
30 39 30
28 38 28
29 38 29
22 32 22
34 42 34
33 43 33
37 45 37
38 46 38
43 50 43
46 54 46
54 60 54
49 54 48
41 46 38
27 29 18
19 20 7
23 23 11
33 34 27
38 39 35
42 42 40
43 43 42
30 43 33
21 49 30
25 48 32
39 50 41
47 45 43
42 37 32
37 29 22
34 23 12
38 27 17
36 28 22
36 27 23
38 30 26
35 26 22
36 27 23
48 42 39
63 59 57
71 68 66
70 66 64
82 81 81
79 79 78
86 86 86
82 82 82
81 81 81
84 84 83
86 85 85
83 83 83
85 85 85
77 77 77
78 78 78
66 70 67
72 74 73
65 70 65
65 69 65
65 70 66
56 60 56
61 64 61
53 58 53
51 57 51
47 53 47
43 49 43
45 52 46
44 51 44
39 47 40
42 50 42
39 47 39
35 43 35
36 45 36
44 51 44
39 48 40
43 52 44
46 54 46
49 56 50
56 62 56
52 59 52
53 59 52
56 61 55
52 55 49
37 40 32
38 39 32
34 35 27
48 48 44
51 51 48
54 54 52
61 61 60
38 49 41
17 45 26
21 44 27
46 51 46
57 56 55
53 51 49
49 46 42
35 30 25
39 34 29
45 40 36
48 40 36
55 48 45
53 47 44
55 49 46
57 51 49
66 62 59
73 70 68
74 71 70
78 76 75
82 81 81
78 77 77
83 83 83
80 79 79
83 83 83
84 83 83
83 83 83
82 81 81
82 82 82
83 83 83
66 69 66
63 66 63
68 72 68
67 70 67
62 67 62
58 64 58
61 65 61
53 59 53
54 60 54
54 60 55
57 63 58
50 57 50
48 55 48
45 52 45
45 52 45
47 55 47
45 52 45
44 51 44
49 55 49
49 56 49
53 58 53
56 63 56
58 64 58
59 64 59
57 62 57
63 66 62
59 63 58
56 59 54
56 57 53
58 60 55
53 55 49
60 61 58
60 61 58
58 59 57
64 65 64
50 55 51
25 38 29
36 50 40
56 60 56
67 67 66
63 62 60
66 64 62
60 57 54
59 56 53
62 58 55
66 63 61
63 59 57
66 61 59
69 65 62
72 69 67
73 69 67
78 76 75
80 78 77
80 78 78
79 77 77
82 81 81
79 78 78
82 81 81
84 84 84
82 82 82
83 83 83
87 87 87
87 87 87
78 78 78
64 67 64
73 76 73
69 72 69
64 67 64
67 70 67
66 69 66
60 64 60
59 64 59
59 63 59
62 67 62
58 64 58
55 61 55
57 64 58
52 58 52
54 59 54
51 58 51
54 59 54
54 61 55
52 59 52
64 69 64
59 64 59
62 67 62
63 67 63
60 64 60
62 67 61
61 65 60
66 69 65
62 66 60
62 64 61
68 70 66
65 67 64
67 69 66
63 64 62
64 65 63
66 67 65
52 55 53
56 61 57
50 54 51
62 63 62
69 69 67
68 67 66
72 72 70
68 66 65
77 76 74
73 71 69
70 67 65
71 68 67
69 65 64
75 72 71
75 73 72
73 71 69
78 76 75
77 76 75
80 79 78
82 81 80
80 80 79
80 79 79
83 82 82
87 86 86
85 84 84
86 86 86
86 86 86
79 79 79
82 82 82
70 73 70
67 70 67
66 70 66
70 74 71
70 74 70
61 64 61
64 68 64
63 67 64
66 70 66
58 64 58
65 69 65
59 65 60
59 64 60
51 58 51
56 61 56
60 66 60
62 66 62
63 68 63
61 66 61
61 65 61
57 62 57
70 73 70
58 64 58
60 64 60
69 72 68
65 69 65
66 70 66
63 66 63
66 69 66
69 72 69
67 69 66
71 72 70
68 69 67
69 70 68
67 69 67
71 73 71
69 72 70
64 66 64
70 71 69
73 73 72
67 66 64
69 68 67
72 71 70
70 68 67
75 74 73
75 73 72
71 69 68
73 72 71
74 71 70
79 78 77
78 76 75
80 78 77
82 81 81
84 83 83
79 78 78
79 78 77
81 80 80
77 76 76
81 81 81
85 85 85
85 85 85
86 86 86
80 79 79
86 86 86
71 74 71
67 70 67
70 74 70
75 76 75
66 70 66
66 70 66
71 74 71
68 72 68
66 69 66
63 68 64
57 63 58
60 65 60
57 62 57
64 68 64
58 63 58
64 69 64
59 64 59
69 72 69
65 70 65
63 67 63
65 69 65
72 75 72
69 72 69
66 70 66
68 72 68
68 71 68
70 73 70
66 68 65
72 75 72
73 74 72
74 75 73
69 70 68
65 66 64
70 71 70
73 74 73
68 70 68
72 73 71
69 70 68
71 71 70
73 73 72
76 76 75
76 75 74
74 73 73
77 76 76
75 73 72
75 73 71
75 73 72
75 73 72
76 74 73
76 73 72
81 80 79
79 78 77
83 82 81
76 75 75
84 83 82
84 83 83
81 80 80
83 82 81
85 84 84
84 84 84
82 82 82
84 84 84
83 83 83
82 81 81
67 70 67
71 74 71
67 70 67
70 73 70
69 71 69
74 76 74
69 73 69
69 73 69
65 68 65
68 72 68
62 66 62
60 65 61
56 61 56
65 69 65
65 69 65
65 69 65
63 67 63
68 71 68
66 70 66
59 64 59
62 66 62
65 69 65
68 71 68
73 76 73
62 65 62
70 73 70
71 74 70
72 74 72
71 74 71
68 70 67
68 70 67
66 67 65
71 72 70
68 69 67
70 72 70
71 71 69
75 76 75
69 70 68
71 72 70
72 72 71
71 71 69
74 73 72
79 78 78
76 75 74
78 76 76
78 78 77
74 72 71
74 72 71
74 71 70
76 73 72
76 75 74
82 81 81
86 86 86
80 79 79
83 82 82
85 85 84
80 80 79
83 82 82
83 83 83
85 84 84
84 84 84
78 78 78
88 88 88
83 83 82
78 80 78
74 75 74
73 76 73
68 72 68
74 76 74
63 68 63
69 72 69
63 67 63
68 72 68
68 72 68
70 73 70
69 73 69
70 72 70
70 74 70
64 68 64
66 69 66
60 65 60
66 70 66
64 69 64
70 73 70
67 70 67
69 73 69
68 71 68
70 73 70
72 75 72
65 69 65
75 76 75
72 74 71
72 74 72
71 73 71
72 74 72
77 78 77
77 78 77
73 74 72
70 72 70
74 75 74
77 77 76
74 74 73
75 76 75
77 77 77
79 80 79
75 75 74
76 75 75
78 77 77
81 81 80
77 76 75
76 75 74
82 81 81
81 80 80
82 81 81
78 78 77
82 81 81
76 75 75
80 80 80
82 82 82
86 86 86
82 81 81
83 82 82
80 80 80
80 80 80
82 82 81
81 80 80
85 84 84
85 85 84
73 75 73
75 77 75
74 76 74
72 74 72
70 72 70
65 69 65
72 74 72
71 75 71
71 74 71
71 74 71
68 71 68
69 72 69
73 76 73
69 72 69
69 71 69
73 76 73
66 70 66
71 73 71
72 74 72
69 73 69
70 73 70
73 75 73
70 73 70
74 76 74
69 72 69
70 72 69
73 75 73
73 74 73
71 73 70
77 78 77
72 74 72
73 75 73
76 77 75
73 74 73
75 76 74
74 74 73
80 80 80
79 79 79
78 78 78
76 76 75
77 77 76
79 78 78
73 72 71
80 79 78
74 73 72
76 76 75
76 76 75
82 81 81
80 79 79
79 79 78
82 81 81
81 81 80
81 80 80
80 79 79
83 82 82
85 84 84
82 82 82
84 83 83
82 82 82
85 85 85
82 82 82
81 81 81
82 81 81
82 82 81
75 77 75
75 76 75
70 73 70
74 76 74
69 71 69
76 78 76
72 75 72
68 71 68
73 76 73
68 71 68
68 70 68
79 81 79
69 73 69
72 74 72
72 75 73
72 75 72
68 71 68
67 72 68
67 70 67
66 70 66
65 70 65
67 71 67
70 73 69
69 71 69
70 73 70
77 78 76
72 75 72
72 74 72
73 75 73
76 77 76
71 72 70
76 78 76
72 73 72
75 75 74
73 74 73
76 77 75
74 74 73
77 78 76
74 74 73
78 78 78
81 81 80
81 81 81
80 79 78
78 78 77
82 82 81
83 83 82
79 78 77
81 80 80
80 79 79
77 76 76
80 79 79
81 81 80
83 82 82
79 78 78
82 81 81
80 79 79
82 81 81
80 80 80
82 82 82
84 84 83
84 83 83
83 83 83
81 81 81
87 87 87
76 77 76
70 73 71
75 76 75
78 80 79
74 76 74
75 77 75
74 76 75
74 77 74
77 79 77
78 80 78
71 74 71
71 73 71
65 69 65
64 68 64
70 73 70
70 73 70
77 79 77
71 74 71
65 68 64
72 75 72
71 72 70
69 72 68
72 74 72
72 74 72
71 74 71
74 76 73
75 77 75
72 75 72
80 81 80
73 74 72
74 76 74
78 79 78
74 76 74
74 76 74
78 79 77
78 79 77
74 74 73
77 77 77
72 73 72
79 80 79
76 76 75
75 74 74
79 78 77
80 79 79
81 80 79
81 81 80
78 77 77
82 82 81
80 79 79
82 81 80
78 78 77
84 84 84
83 83 82
81 81 81
79 79 78
77 77 77
83 82 82
82 82 82
82 81 81
85 85 84
78 78 78
80 80 80
81 81 81
82 82 81
77 78 77
74 75 74
72 74 72
70 73 70
70 73 70
69 71 69
74 77 74
77 79 77
69 73 69
77 79 77
74 75 74
76 79 77
70 72 70
75 77 75
70 72 70
74 76 74
74 76 74
73 75 73
70 73 71
70 74 70
73 75 72
74 76 74
68 71 68
73 75 72
76 78 76
70 72 70
71 72 71
69 71 69
73 74 73
73 75 73
79 80 79
79 80 79
73 75 73
74 75 74
76 77 75
77 77 76
75 76 75
72 73 71
77 77 76
79 79 79
78 79 78
78 77 76
76 76 75
79 79 78
83 82 82
78 78 77
80 79 79
79 78 77
79 79 79
85 84 84
81 81 81
84 84 84
82 82 81
84 84 83
82 82 81
81 81 80
81 81 81
86 86 85
82 81 81
84 84 84
81 81 81
84 84 84
80 79 79
79 78 78
79 81 79
69 71 69
69 71 69
74 75 74
77 79 77
74 77 74
72 74 72
79 80 79
75 77 75
74 77 75
74 76 74
69 72 69
73 75 72
70 73 70
71 74 71
73 76 73
74 76 74
73 76 74
66 69 65
77 79 77
73 75 73
70 72 70
78 79 78
73 75 73
73 74 72
76 77 76
71 72 71
81 83 81
75 76 75
79 80 79
75 76 75
78 79 78
74 75 73
77 78 76
79 80 78
77 77 76
79 79 78
76 76 75
76 77 76
76 76 76
83 83 83
78 77 77
77 77 76
79 79 78
80 80 80
78 77 76
79 79 79
79 78 78
84 84 83
83 83 83
81 81 80
84 83 83
78 78 78
86 86 86
83 83 82
79 78 78
80 80 80
82 82 82
78 78 78
79 78 78
83 82 82
80 80 80
84 83 83
82 82 81
78 79 78
75 76 75
76 77 76
76 77 76
78 79 78
73 75 73
73 75 73
71 75 71
72 74 72
69 72 69
80 81 80
68 71 68
75 76 75
73 75 73
73 74 73
67 70 67
74 76 74
74 76 74
75 78 75
73 75 73
72 74 72
75 77 75
78 79 78
77 79 77
77 78 77
75 77 76
74 75 74
69 70 68
75 76 75
78 79 78
80 80 79
79 80 79
78 79 78
76 77 76
80 80 79
74 75 74
79 79 79
80 80 80
80 80 79
76 76 75
79 78 78
80 79 79
76 77 76
81 81 81
78 78 78
78 78 78
78 78 77
76 75 75
80 79 78
81 80 80
80 79 79
83 83 83
83 83 83
82 83 82
78 77 77
81 81 81
84 84 84
81 81 81
82 82 82
80 80 80
84 84 84
82 82 82
80 80 80
82 82 82
79 81 79
73 74 73
76 77 76
77 80 77
74 76 74
80 81 80
75 76 75
73 75 73
75 77 75
76 78 76
72 75 72
72 74 72
75 77 75
74 76 74
74 76 74
74 77 74
74 77 74
75 77 75
73 76 74
75 76 74
74 76 74
74 76 74
70 73 70
74 76 74
72 74 72
78 79 78
80 81 80
78 79 78
70 72 70
74 75 74
82 83 82
75 76 75
81 82 81
77 78 77
77 79 77
76 76 75
81 81 81
78 79 78
74 75 73
79 79 78
80 81 80
79 80 79
77 77 76
74 74 73
80 80 80
77 77 77
82 81 80
85 85 84
79 78 77
87 86 86
80 80 79
80 80 79
77 76 76
80 79 79
84 84 84
85 85 85
82 82 81
79 78 78
87 86 86
83 83 83
85 85 84
84 84 84
77 77 77
79 79 79
79 80 79
73 74 73
82 83 82
74 76 74
81 82 81
73 75 73
79 81 79
70 72 70
76 78 76
73 76 73
77 79 77
72 74 72
73 74 73
76 78 76
75 77 75
73 76 73
69 71 69
73 75 73
79 81 79
76 78 76
73 74 73
76 77 76
72 73 72
70 72 70
78 79 78
76 78 76
73 75 73
75 77 75
77 78 77
76 77 75
77 78 77
78 79 78
79 80 79
76 77 75
74 75 74
81 82 81
77 78 77
79 79 78
76 76 75
78 78 78
81 81 81
81 81 80
76 76 75
76 76 76
78 79 78
82 82 81
79 79 78
81 81 80
85 85 85
80 79 79
83 82 81
85 85 84
80 80 79
77 77 76
82 81 81
78 78 78
82 82 81
82 83 82
82 81 81
83 83 82
82 82 82
78 78 78
85 85 85
87 87 87
71 72 71
74 75 74
77 79 77
80 81 80
81 82 81
74 76 74
79 80 79
69 71 69
76 77 76
73 75 73
77 79 77
75 76 75
75 77 75
73 75 73
72 75 72
76 78 76
80 81 80
75 78 75
78 80 79
72 74 71
80 81 80
71 73 71
78 79 78
80 81 80
75 76 75
77 78 77
77 78 76
77 78 77
76 77 75
74 75 74
73 74 73
77 78 77
79 80 79
75 76 74
76 78 76
80 81 80
78 79 78
79 79 78
77 77 76
82 82 81
80 80 80
79 79 78
79 78 78
79 79 77
79 79 78
78 79 78
76 76 76
78 78 77
82 82 81
77 76 76
78 78 77
84 84 84
79 78 78
84 84 84
84 83 83
81 81 81
79 78 78
83 83 82
84 84 84
81 80 80
82 82 82
81 80 80
80 80 80
82 82 81
79 80 79
77 78 77
76 77 76
81 83 81
76 78 76
77 78 77
80 81 80
78 80 78
72 74 72
78 81 78
76 78 76
74 77 74
75 77 75
71 72 71
73 75 72
76 77 76
76 77 76
70 72 70
78 80 78
81 82 81
79 80 79
76 77 76
76 77 76
78 79 78
77 78 77
76 77 76
79 80 79
80 81 80
73 74 73
80 82 80
73 74 73
76 77 76
76 77 76
76 77 76
79 79 78
78 78 78
76 77 76
81 81 81
80 80 80
82 83 83
78 78 77
78 79 78
78 78 77
78 78 77
80 80 79
81 81 80
82 82 81
80 80 79
80 79 79
78 78 78
78 79 78
77 77 77
85 85 85
80 80 79
82 82 82
79 79 79
81 81 81
83 83 83
79 79 79
83 82 82
78 78 78
85 85 85
82 82 81
81 81 80
77 78 77
83 84 83
82 83 82
80 82 80
77 78 77
79 80 79
81 82 81
73 75 73
80 81 80
75 77 75
78 79 78
76 78 76
75 77 75
75 77 75
71 73 71
75 76 75
71 73 71
79 80 79
77 79 77
72 74 72
72 74 72
74 76 74
76 77 76
73 74 73
77 78 77
72 74 72
74 75 74
76 77 76
80 81 80
74 74 73
80 81 80
73 75 73
79 80 79
81 81 80
77 78 77
78 79 78
81 81 80
82 83 82
82 82 82
76 76 75
78 78 77
80 80 79
81 81 80
80 81 80
74 74 73
82 82 82
82 82 81
79 79 79
82 83 82
77 77 77
80 79 79
77 77 76
81 81 81
80 80 80
81 81 81
79 79 79
77 76 76
79 79 79
78 78 78
83 83 83
81 81 81
82 82 82
84 84 83
79 79 78
74 76 74
78 79 78
77 78 77
79 80 79
77 78 77
74 76 74
80 81 80
78 79 78
73 74 72
80 81 80
79 81 79
79 80 79
76 77 76
79 80 78
74 76 74
78 80 78
79 79 79
78 79 78
72 74 72
75 77 75
78 79 78
77 79 77
71 72 70
73 75 73
77 78 77
76 77 76
78 79 78
73 75 73
77 77 77
79 80 79
75 76 75
80 81 80
75 75 74
78 79 78
76 76 75
79 80 79
79 79 79
81 81 81
81 81 80
81 81 81
81 81 80
81 81 80
84 84 83
84 84 84
80 80 80
83 82 82
84 84 83
77 78 76
82 82 82
83 83 82
83 83 82
80 79 79
79 79 78
83 83 83
81 81 81
83 83 83
80 80 80
80 80 80
80 79 79
85 85 85
82 82 81
85 85 85
78 78 78
80 80 80
76 78 77
81 81 81
80 81 80
76 78 76
78 80 78
78 79 78
76 77 76
77 79 77
78 79 78
76 78 76
76 78 76
77 77 77
74 75 74
75 77 75
77 79 77
79 81 79
76 78 76
78 80 78
84 84 84
78 80 78
76 78 76
73 74 72
79 81 80
72 74 72
76 78 76
77 79 77
78 79 78
73 74 73
80 81 80
77 77 77
78 78 78
74 74 73
77 77 76
75 76 75
78 79 78
76 77 76
71 72 71
82 83 82
81 82 81
79 79 78
76 76 76
82 82 82
84 85 84
77 77 76
80 80 80
79 80 79
82 82 82
81 81 80
76 75 75
79 79 79
80 80 80
80 80 79
82 82 81
82 81 81
81 81 81
81 81 81
86 86 86
85 85 85
77 76 76
80 80 79
78 78 77
80 80 80
84 84 84
82 82 82
78 79 78
75 77 75
71 73 71
74 76 74
73 74 73
77 78 77
75 77 75
79 80 79
74 75 74
78 79 78
75 77 75
79 81 80
80 81 80
80 81 80
72 75 72
79 80 79
75 76 75
80 80 79
80 82 80
78 79 78
76 78 76
77 78 77
77 78 76
77 79 77
77 78 77
80 80 79
73 75 73
76 78 76
81 81 81
76 78 76
81 82 81
71 73 71
78 78 77
79 80 79
78 79 78
75 76 75
79 79 78
77 78 77
77 77 77
80 81 80
76 77 75
78 78 77
82 83 82
80 79 79
81 81 80
82 82 81
81 81 81
80 80 80
81 81 80
79 79 78
82 82 82
81 81 81
78 78 77
82 82 82
79 78 78
85 85 84
80 80 79
84 84 84
84 84 83
81 81 81
82 82 82
81 81 80
79 79 79
82 81 81
77 78 77
75 76 75
75 76 75
78 79 78
75 77 75
77 78 77
80 82 80
77 79 77
75 77 75
80 81 80
81 81 81
79 80 79
75 76 74
75 76 75
81 82 81
80 81 80
76 78 76
82 83 82
81 82 81
78 79 78
75 76 75
78 80 78
78 80 78
76 77 75
82 82 81
78 79 78
79 81 79
76 77 76
75 76 75
75 77 75
81 81 80
76 77 76
79 80 79
80 80 80
74 75 74
76 77 76
85 85 84
80 80 79
76 76 75
79 79 78
77 78 77
77 77 77
83 83 83
78 78 78
80 79 79
71 72 71
75 75 74
79 78 78
75 75 74
81 81 81
78 78 78
79 79 78
82 82 82
79 78 78
80 80 80
82 82 82
85 85 85
83 83 82
85 84 84
81 81 80
83 83 83
84 83 83
84 84 84
80 80 80
81 82 81
78 79 78
77 79 77
77 78 77
75 77 75
76 77 76
78 79 78
74 76 74
78 79 78
77 78 77
77 78 77
81 81 81
75 77 75
80 81 80
83 84 83
83 83 83
79 80 78
78 79 78
82 83 82
80 81 80
74 76 74
77 78 77
79 80 79
77 79 77
82 82 81
76 78 76
76 78 76
83 84 83
80 80 79
79 81 79
74 76 74
78 79 78
75 76 74
76 77 76
81 81 80
73 73 73
79 79 78
75 76 75
77 78 77
81 81 80
78 78 78
80 80 79
81 82 81
84 84 84
77 78 77
78 78 77
80 80 79
79 79 79
83 83 83
81 81 81
78 78 77
82 82 81
86 85 85
81 80 80
77 77 77
82 82 82
81 81 81
79 79 78
79 79 79
83 83 83
79 79 79
80 80 80
82 82 82
79 79 79
