P3
# Rays 2018
64 64
255
59 60 59
58 58 58
59 59 59
58 59 59
58 59 59
59 59 59
59 60 59
59 59 59
59 60 59
60 61 60
60 61 60
60 61 60
60 62 60
58 60 59
60 63 61
61 63 61
60 63 61
59 61 60
61 63 61
59 62 61
61 64 62
60 63 61
59 61 59
60 60 60
61 63 61
60 63 61
60 61 60
61 63 61
62 64 63
59 61 60
58 60 60
59 60 60
59 60 60
60 62 60
60 62 60
59 60 60
57 59 60
59 60 60
57 58 59
59 61 59
57 59 57
57 58 59
56 57 59
65 69 58
59 60 59
58 60 59
56 57 58
54 56 58
57 58 59
58 59 59
56 58 58
57 58 58
56 57 58
56 57 58
56 57 58
55 56 57
57 58 59
58 59 58
58 59 59
58 59 59
58 59 59
58 59 59
57 58 58
58 58 58
58 59 59
59 59 59
59 59 59
58 58 58
58 59 59
58 59 59
60 61 60
59 59 59
60 61 59
60 63 60
59 60 59
60 62 60
60 61 60
59 61 60
60 62 61
60 62 60
60 63 61
60 62 60
61 65 62
60 62 61
60 61 60
60 64 62
60 62 61
61 65 62
59 61 59
61 62 61
59 61 61
59 60 59
61 64 62
59 61 60
59 62 61
60 62 61
59 62 61
57 59 59
57 60 60
59 61 60
59 60 60
59 60 60
56 58 58
63 66 59
60 61 61
58 60 60
58 59 59
62 65 58
55 56 58
58 59 59
55 56 58
58 59 58
58 59 59
61 63 58
58 58 59
57 58 58
58 59 59
56 56 57
57 58 58
57 58 58
57 57 58
59 59 58
59 59 59
59 60 58
58 58 59
58 59 59
58 58 58
58 58 58
59 60 59
58 59 59
58 59 58
58 59 59
59 59 59
58 58 58
59 59 59
59 59 59
58 60 59
60 61 60
59 60 60
58 59 59
60 63 61
59 60 59
59 61 60
59 59 59
60 62 61
59 61 60
60 62 60
59 60 59
60 62 60
63 66 59
60 62 61
61 64 61
64 68 61
61 63 61
59 61 60
61 64 62
64 68 60
59 61 60
61 62 61
60 62 61
61 63 61
59 60 60
60 62 61
58 59 59
58 59 59
57 59 59
65 68 60
59 60 59
59 61 61
56 57 58
55 57 58
57 58 59
56 58 59
56 58 58
59 59 58
55 57 58
60 60 59
58 59 59
57 58 58
58 59 58
55 56 57
57 58 58
64 68 57
57 57 58
58 58 58
57 58 58
58 59 59
57 58 58
58 58 58
58 59 59
58 58 58
59 59 59
58 59 59
59 59 59
58 58 59
58 59 59
58 59 59
58 59 58
58 58 58
58 59 59
59 59 59
59 59 59
59 60 59
61 65 61
60 61 60
59 61 60
59 61 60
60 61 60
61 63 62
60 61 60
60 63 61
60 63 61
60 61 60
61 63 60
61 63 61
59 60 59
60 63 61
60 62 61
61 62 61
60 63 61
63 66 60
61 62 61
61 63 62
64 68 61
59 61 61
60 62 61
58 60 61
59 61 59
63 66 60
57 58 58
56 57 59
57 58 59
59 60 60
58 60 59
59 61 60
58 59 59
65 69 58
56 57 58
57 58 59
56 57 58
54 55 57
56 57 58
56 57 58
58 59 58
54 56 57
58 60 58
56 57 58
58 59 58
58 58 59
58 58 59
58 58 58
58 59 59
59 59 59
58 58 58
59 59 59
58 58 59
59 59 59
58 58 58
60 60 59
58 58 58
59 59 59
59 59 59
58 59 58
59 60 59
59 59 59
58 59 58
59 60 59
60 61 59
60 61 60
59 60 60
59 60 59
60 62 61
60 62 61
59 60 59
59 61 60
60 62 61
60 62 61
60 62 61
61 63 62
59 61 60
60 62 61
60 63 61
62 66 60
61 62 60
64 68 59
61 64 62
60 61 61
62 65 59
60 63 61
62 65 63
61 62 62
59 62 61
60 63 61
60 61 61
57 59 59
56 58 59
58 58 59
56 57 58
59 61 59
56 57 58
54 55 57
56 57 58
59 62 58
57 57 58
54 55 57
57 59 57
56 57 58
56 57 58
56 56 57
57 58 57
56 57 58
59 59 59
59 60 59
58 58 58
58 58 58
58 59 58
59 59 59
58 58 59
58 59 59
58 58 58
58 59 59
59 60 59
58 59 59
58 58 58
58 58 58
59 60 59
59 59 59
58 59 59
58 59 59
59 60 59
60 61 60
59 60 59
59 60 59
59 60 60
60 61 60
60 61 60
60 63 61
59 59 59
60 61 60
59 61 60
60 63 61
60 63 61
60 62 60
60 61 60
60 62 60
64 67 60
59 60 60
61 63 62
60 62 61
59 62 61
63 66 59
58 60 60
61 62 62
61 64 61
63 67 61
60 60 61
59 61 61
59 60 60
63 66 60
56 57 59
59 60 61
57 58 59
58 60 59
57 57 58
57 58 59
58 58 59
53 55 57
53 55 57
57 58 58
60 62 58
58 58 59
56 56 58
61 63 58
58 59 58
58 58 58
58 59 59
59 59 59
59 59 59
58 59 59
60 61 58
59 60 60
58 59 59
60 60 59
58 59 58
59 60 59
59 59 59
59 59 59
58 59 59
58 58 58
59 59 59
58 59 59
59 59 59
59 59 59
59 60 59
58 59 59
58 59 59
59 60 59
59 60 60
59 61 60
59 61 60
59 61 60
60 62 60
60 61 60
60 62 61
59 61 60
60 62 61
58 60 60
60 62 61
61 63 62
60 61 61
60 62 61
60 62 60
60 61 61
60 63 61
60 62 62
59 62 61
60 61 61
61 63 62
62 64 63
58 60 59
60 61 60
57 58 59
57 58 58
57 58 59
58 59 60
56 58 59
63 65 60
57 58 59
57 57 58
57 58 59
55 56 57
57 57 58
55 56 57
56 57 57
56 57 58
54 55 57
60 62 57
58 58 58
57 57 58
57 58 58
59 59 59
58 58 58
59 59 59
58 59 59
59 59 59
58 58 58
59 60 60
59 59 59
59 59 59
58 59 59
59 59 59
59 60 59
58 58 58
58 59 58
59 59 59
58 59 59
58 58 59
59 59 59
59 59 59
59 60 59
58 58 58
60 61 60
60 64 61
59 60 59
60 63 61
60 62 60
59 61 60
60 62 60
61 63 62
61 65 62
61 63 61
59 61 60
59 63 61
60 62 61
61 64 62
60 62 61
60 61 61
60 62 61
61 63 62
60 62 61
61 63 62
59 60 60
59 62 61
57 58 59
58 59 60
58 60 60
60 62 62
57 58 60
59 59 60
58 59 59
58 59 59
57 58 59
57 57 59
56 57 58
58 58 59
55 56 58
57 58 58
57 58 58
55 56 57
56 57 57
59 59 59
57 57 58
58 58 58
58 58 58
58 58 58
58 59 58
59 59 59
58 59 59
58 58 58
58 59 59
58 59 59
58 59 59
58 59 59
57 58 58
58 59 59
59 59 59
59 59 59
57 58 58
58 59 59
58 58 58
58 58 58
59 59 59
59 59 59
59 60 60
59 60 59
59 60 59
60 62 61
59 60 60
59 61 60
61 65 62
60 61 60
59 59 59
61 64 61
60 63 61
60 63 61
61 65 62
59 60 60
61 64 62
60 62 61
61 63 62
60 62 61
60 61 60
61 63 62
61 62 61
61 63 62
59 62 61
59 62 61
55 58 59
60 61 60
61 63 61
58 59 60
58 59 60
54 55 58
57 57 58
58 59 60
57 58 59
58 59 60
55 57 57
55 56 57
56 57 58
57 57 58
56 57 58
57 57 58
58 58 59
58 59 59
59 59 58
58 58 59
58 58 59
58 58 58
58 58 59
58 58 58
57 58 58
58 59 59
58 59 59
59 59 59
58 59 59
59 59 59
58 59 58
59 59 59
58 59 59
58 59 59
59 59 59
59 59 59
59 59 59
59 60 58
58 59 59
59 59 59
59 59 59
59 59 59
58 58 58
59 59 59
60 63 61
60 63 60
60 62 60
61 65 62
61 64 62
60 62 60
61 65 62
61 64 62
62 66 62
60 62 61
60 64 62
59 61 61
63 68 61
62 64 62
61 63 62
60 61 61
60 62 61
60 62 62
60 63 62
59 62 61
60 62 62
59 60 60
58 59 59
57 59 60
57 58 59
59 60 60
57 58 59
59 60 59
56 57 58
56 57 58
56 57 58
57 58 58
56 57 58
54 56 58
56 57 58
57 58 58
57 57 58
58 59 58
57 58 58
59 59 59
59 59 59
58 59 59
59 59 59
60 60 59
58 58 58
58 59 59
58 58 59
59 59 59
59 60 59
61 64 58
58 59 59
59 59 59
59 59 59
57 58 59
59 59 59
59 60 59
58 59 59
58 59 59
59 59 59
59 59 59
59 59 59
58 58 58
58 58 58
58 58 58
59 61 60
59 62 60
60 63 60
60 63 61
60 62 61
60 62 61
60 62 60
60 62 61
61 63 61
60 61 60
61 64 62
61 62 61
61 63 60
61 62 61
61 65 63
62 65 63
61 62 61
62 64 63
61 64 62
58 61 61
59 62 61
60 62 62
58 59 60
60 60 60
55 56 58
57 58 59
56 57 59
57 58 59
57 58 59
55 56 58
57 58 58
55 56 57
60 63 58
57 57 58
55 56 57
58 58 59
58 58 58
56 57 58
59 59 59
59 59 59
58 58 59
58 58 58
58 59 59
58 58 58
59 59 59
58 59 59
58 59 59
59 59 59
58 58 58
63 65 58
58 58 58
58 59 59
58 59 59
59 59 59
59 59 59
59 59 59
59 60 59
59 60 59
59 59 59
57 58 58
58 59 59
58 59 59
58 59 59
58 59 59
59 59 59
59 59 59
58 59 59
61 63 60
60 62 60
59 59 59
60 62 61
60 60 60
61 63 61
60 62 61
61 64 62
62 65 62
60 61 61
60 62 61
60 62 61
60 61 60
60 61 61
59 61 60
62 64 62
59 60 60
59 61 60
59 60 60
58 59 60
58 58 59
58 59 60
57 58 59
57 58 59
58 59 60
59 59 60
57 57 59
55 56 58
57 57 58
56 56 57
57 58 58
58 58 58
58 58 58
58 58 58
58 58 58
59 59 59
59 59 59
59 59 59
59 59 59
59 59 59
58 58 59
59 59 59
59 59 59
59 59 59
59 59 59
59 59 59
58 58 59
58 59 59
60 61 60
59 59 59
59 60 59
58 59 59
59 60 59
59 59 59
59 59 59
59 59 59
59 60 59
59 60 59
59 59 59
59 59 59
59 60 58
59 60 59
59 60 58
59 59 59
60 62 60
59 61 60
60 62 60
59 60 59
59 60 59
58 59 59
60 61 59
60 61 60
59 60 59
59 60 59
59 61 60
59 60 60
60 60 60
58 59 59
59 60 60
60 61 60
59 59 59
58 58 59
59 60 60
58 59 59
57 58 59
58 59 59
58 59 58
59 59 59
59 59 59
54 55 57
57 58 58
56 56 58
57 57 58
58 58 58
58 58 58
57 58 58
58 59 59
58 59 58
59 59 59
58 59 58
58 58 58
58 59 59
59 59 59
59 60 59
59 60 59
59 60 59
59 59 59
59 59 59
58 59 59
58 59 59
58 58 59
60 60 59
59 59 58
59 59 59
58 59 59
58 58 59
58 59 59
59 59 59
59 60 59
58 58 59
59 59 59
60 61 58
59 59 59
59 59 59
59 59 59
58 58 58
57 58 58
58 58 59
59 60 59
59 59 59
59 59 59
59 60 59
59 59 59
59 59 59
58 59 59
60 60 59
58 59 59
59 59 59
58 58 59
59 59 59
60 60 59
59 60 59
59 59 59
58 59 59
58 59 59
58 59 58
58 59 59
58 58 58
58 58 58
59 60 59
58 58 58
58 58 58
58 58 58
58 58 58
57 57 58
58 58 58
57 58 58
58 58 58
58 58 58
58 58 58
58 59 59
58 58 58
59 59 59
58 58 59
59 59 59
58 58 58
57 58 58
58 58 58
58 59 59
59 59 59
58 59 59
59 59 59
59 59 59
59 59 59
60 60 59
60 60 60
59 60 60
58 59 59
59 60 59
59 59 59
59 60 60
59 60 60
58 59 59
60 60 60
59 60 58
59 59 59
59 59 59
58 59 59
59 59 59
59 59 59
59 59 59
59 60 58
58 59 59
59 59 59
58 58 58
59 59 59
58 59 59
58 59 59
58 58 58
59 59 59
58 58 58
59 59 59
59 59 59
60 61 59
59 59 59
58 58 59
59 60 59
59 59 59
58 59 59
58 59 59
57 58 58
59 59 58
57 58 58
58 58 58
58 58 58
58 58 58
58 58 58
57 57 58
58 59 59
58 59 58
58 58 58
59 59 59
58 58 58
59 60 59
59 59 59
58 59 59
58 58 58
58 58 58
58 59 59
59 60 59
60 61 59
58 58 58
59 60 59
59 60 59
59 60 59
60 61 60
58 59 59
59 60 59
59 59 59
58 59 59
58 59 59
59 60 60
60 60 60
60 60 60
58 59 59
59 59 59
59 60 60
58 59 59
59 59 59
59 59 59
59 59 59
59 59 59
63 65 59
59 59 59
58 58 59
59 59 59
59 59 59
59 59 59
59 59 59
59 59 59
58 59 58
58 58 58
59 59 59
58 58 58
59 60 59
59 60 59
59 59 59
59 59 59
58 59 59
59 59 59
59 59 59
58 59 59
58 59 59
57 58 58
59 59 59
58 59 58
58 59 58
59 59 59
58 58 58
58 58 59
57 58 58
57 57 58
58 58 58
58 58 58
58 58 58
57 58 58
58 58 59
58 58 58
58 58 59
59 59 59
59 59 59
58 59 59
59 59 60
59 59 59
59 59 59
59 59 59
59 60 60
59 59 59
59 60 59
59 59 59
59 60 58
59 61 60
59 59 59
58 59 59
58 59 59
59 60 60
60 60 60
59 59 59
59 59 59
59 60 60
60 60 60
60 60 59
59 59 59
59 59 59
59 59 59
59 60 59
59 60 59
59 60 59
59 59 59
59 59 59
58 59 59
59 59 59
58 58 58
59 59 59
58 58 58
58 59 59
59 60 58
59 59 59
58 58 58
58 59 59
59 60 59
58 59 59
59 59 59
58 58 58
57 58 58
58 58 59
57 58 58
58 58 59
59 59 59
58 59 59
58 59 59
60 61 58
58 58 58
58 59 59
60 60 59
58 58 58
58 58 58
58 58 58
58 58 59
58 58 58
58 58 58
58 59 59
58 58 58
58 59 59
59 59 59
59 59 59
59 59 59
59 60 60
59 59 59
59 59 59
58 59 59
59 60 59
59 59 59
60 60 59
59 59 59
58 58 59
58 59 59
63 65 59
59 59 59
58 58 59
59 59 59
59 60 60
58 59 59
60 60 60
58 59 59
60 61 60
60 62 61
59 60 60
60 61 59
59 60 59
59 59 59
59 59 59
60 60 60
59 59 59
59 59 59
58 59 59
59 60 59
58 59 59
58 59 59
58 59 59
59 60 59
59 59 59
58 58 58
59 59 59
58 59 59
59 59 59
58 59 59
58 59 59
59 59 59
59 59 59
59 59 59
58 58 58
58 58 58
57 57 58
63 65 58
59 59 59
57 58 58
58 59 59
58 58 58
58 58 58
58 58 58
58 59 58
58 58 58
58 58 58
59 59 59
59 59 59
59 59 59
59 59 59
58 58 59
59 59 59
59 59 59
59 60 59
59 59 58
61 61 60
60 61 59
59 59 59
59 59 59
58 58 59
58 59 59
59 60 60
59 59 60
60 62 61
59 59 59
59 59 59
58 59 59
60 60 60
58 60 59
59 61 60
59 60 59
61 61 60
59 59 59
59 60 59
58 58 59
59 60 60
60 60 60
59 60 59
59 59 59
58 58 58
59 59 59
59 59 59
59 59 59
59 59 59
59 59 59
58 58 58
57 58 58
59 59 59
59 59 59
58 58 58
58 59 59
58 59 59
58 59 59
58 58 58
58 59 59
58 58 58
58 59 59
57 58 58
59 59 58
58 58 59
58 59 58
58 58 58
58 59 59
59 59 59
57 57 58
57 58 58
57 58 58
58 58 58
56 57 57
58 58 58
58 59 59
59 59 59
59 59 59
58 58 59
58 58 59
59 59 59
60 60 60
59 60 60
60 60 59
58 59 59
59 60 60
59 59 59
59 59 59
59 59 59
60 62 60
59 60 59
60 62 59
57 58 59
58 59 59
60 61 60
59 60 59
59 60 59
60 61 60
60 60 60
59 60 59
60 60 60
59 60 60
60 60 59
60 60 60
60 60 60
59 59 59
60 60 60
59 59 59
59 59 59
59 59 59
59 59 59
59 59 58
59 59 59
59 59 59
59 59 59
58 59 58
59 59 59
58 59 59
59 59 59
59 59 59
59 59 59
59 60 58
59 59 59
58 58 58
58 59 59
59 59 59
58 58 58
60 61 59
59 59 59
60 60 59
58 58 58
58 58 58
58 58 58
57 57 58
58 58 58
58 58 58
57 58 58
58 58 58
58 59 59
59 59 59
60 60 60
59 59 59
60 61 59
59 59 59
60 60 60
59 60 58
59 59 60
60 61 61
60 60 60
59 61 61
59 60 60
59 59 60
60 61 60
58 59 59
59 59 59
60 61 60
59 60 60
59 60 60
60 60 60
59 59 59
59 60 60
59 60 60
60 61 60
60 61 60
61 62 60
60 60 60
59 60 60
60 60 60
60 60 60
59 60 60
59 59 59
59 59 59
59 59 59
59 60 59
59 59 59
59 60 59
59 59 59
58 59 59
59 59 59
59 59 59
58 58 58
59 59 59
59 59 59
58 58 59
60 61 60
59 59 59
59 59 59
59 59 59
58 58 59
59 59 59
58 58 58
58 58 58
57 58 58
58 59 59
58 58 58
57 58 58
58 58 58
58 58 58
57 58 58
59 59 59
59 59 59
58 58 59
58 59 59
59 59 59
59 59 59
59 60 60
59 60 60
59 59 60
60 61 60
63 65 59
59 60 60
59 59 60
58 59 59
59 59 59
59 59 59
59 61 60
60 60 60
58 59 59
59 60 60
63 66 59
60 60 60
64 67 60
59 60 60
59 60 60
58 59 59
60 61 60
63 65 59
59 60 60
60 60 60
60 61 61
61 61 60
60 60 60
61 62 61
60 60 60
61 61 61
60 60 60
59 60 59
58 58 58
59 59 59
58 59 59
58 59 59
59 59 59
59 60 59
58 59 59
59 59 59
59 61 60
59 59 59
59 60 60
59 59 59
59 59 59
60 60 59
58 59 59
59 60 59
59 59 59
58 58 59
58 58 59
58 58 59
58 58 58
58 58 59
58 58 59
58 58 59
57 58 58
59 59 59
58 59 59
58 59 58
59 59 58
58 58 58
59 60 60
60 60 60
60 60 60
60 60 60
59 59 60
60 61 60
59 60 60
61 61 60
59 59 60
58 59 59
60 61 60
59 59 59
58 58 59
62 65 59
58 58 59
59 60 60
60 61 60
59 60 59
60 61 60
62 65 59
59 60 60
59 60 60
59 60 60
59 60 60
59 60 60
59 60 60
61 62 61
60 60 60
60 61 61
61 62 61
60 60 60
60 60 60
60 61 60
59 59 59
59 59 59
59 59 59
60 61 59
59 59 59
60 61 59
58 59 59
59 59 59
59 59 59
58 59 59
59 59 59
60 60 60
58 59 59
59 60 60
58 58 58
59 60 59
59 59 59
59 59 59
58 59 59
59 59 59
58 58 58
58 59 59
59 59 59
58 59 58
58 58 59
59 59 59
58 59 59
57 58 58
57 57 58
58 58 59
58 59 58
59 59 59
59 60 60
59 60 60
61 61 60
59 59 60
60 60 60
60 61 60
60 61 61
59 60 60
58 59 60
61 62 60
59 59 59
60 60 60
58 58 58
58 59 59
59 60 60
59 60 60
59 60 60
60 61 60
60 61 61
60 61 60
60 61 61
59 60 60
60 61 61
64 67 60
61 63 61
64 66 60
61 62 62
60 61 60
61 61 61
61 61 61
60 61 60
60 60 60
59 60 59
59 60 59
59 59 59
59 60 60
59 60 59
59 60 59
59 60 59
59 59 59
59 59 59
59 59 59
59 60 59
58 59 59
60 61 60
59 60 60
59 59 59
60 60 60
61 61 61
59 60 60
62 62 62
61 61 61
58 59 60
59 59 59
57 58 58
59 60 60
56 57 58
58 58 58
59 59 59
61 63 58
57 58 58
58 58 59
58 59 59
59 59 59
60 60 60
60 60 60
59 59 60
59 60 60
60 60 61
60 60 60
60 61 60
58 59 59
59 60 60
58 59 60
59 61 61
58 59 59
58 59 59
59 61 60
58 59 59
60 62 61
59 61 61
63 65 59
60 62 61
59 61 60
61 63 62
60 61 60
59 61 61
63 65 61
59 60 60
64 66 60
60 61 60
61 63 62
62 63 61
61 63 62
60 61 61
60 60 60
59 60 60
59 61 60
60 62 60
59 59 59
59 61 60
58 59 59
59 60 60
58 59 59
59 60 59
59 60 59
60 61 60
59 60 59
59 60 60
59 60 60
61 61 61
64 65 64
67 67 67
68 68 68
67 67 67
68 68 68
66 67 67
63 63 63
60 60 60
58 58 59
61 62 59
56 57 58
58 58 59
60 62 58
57 58 58
58 59 58
57 58 59
59 59 59
60 60 60
61 61 61
59 60 60
60 61 60
58 58 59
58 59 60
60 61 61
59 59 59
59 60 60
58 59 59
58 58 59
59 60 60
57 59 60
57 58 59
60 62 59
59 61 61
60 63 61
59 61 60
60 63 61
61 63 61
60 62 60
60 63 60
60 63 61
59 60 60
62 66 63
61 61 61
62 64 61
62 64 63
61 62 62
61 63 62
61 62 61
60 61 60
60 60 60
59 60 59
59 60 59
63 65 59
59 59 59
59 60 60
60 61 60
59 59 59
59 59 59
59 61 60
59 60 60
59 60 60
61 62 61
64 65 64
67 68 67
72 73 73
73 73 73
73 73 73
73 74 72
73 73 73
70 71 71
69 70 70
66 67 67
61 62 62
58 59 59
57 58 59
58 58 58
56 57 58
56 57 58
57 57 58
58 59 59
60 60 60
60 60 61
59 60 61
59 60 60
57 58 59
60 60 61
57 58 60
59 60 61
57 59 59
58 59 60
55 56 57
57 59 59
61 64 58
56 58 59
60 61 60
57 59 59
59 63 61
61 62 61
59 60 60
58 60 60
62 67 59
60 63 60
58 60 60
59 60 60
60 61 61
61 63 62
60 62 61
61 62 61
63 65 62
60 62 61
62 64 63
61 62 62
61 62 60
59 60 60
59 61 60
60 61 60
61 63 60
59 59 59
60 62 61
59 59 59
60 62 60
59 59 59
60 62 61
60 62 61
60 62 61
63 64 64
68 69 69
71 71 71
73 73 73
72 72 72
73 73 73
73 73 73
72 72 72
72 73 73
72 72 72
72 72 72
68 68 68
62 62 63
55 56 58
58 58 59
55 56 57
56 57 58
59 60 58
58 58 59
59 60 60
59 60 61
60 61 61
59 59 60
58 59 60
56 57 58
56 57 59
58 58 59
59 60 60
56 58 59
59 60 60
58 59 60
58 59 60
56 58 58
60 62 60
57 58 58
59 61 60
60 63 61
64 67 59
58 60 58
61 64 62
60 62 61
61 64 62
61 65 62
61 64 62
60 62 61
61 62 61
62 66 63
62 63 62
61 62 62
62 63 62
61 64 62
61 62 61
59 60 60
60 62 60
59 60 59
59 60 59
60 63 61
60 63 61
59 60 59
60 62 61
60 61 60
61 64 62
60 62 61
63 65 63
65 66 66
73 73 73
74 74 74
72 72 72
73 73 73
72 72 72
71 71 72
72 72 71
73 73 73
72 72 72
72 72 73
73 73 73
67 67 67
57 58 59
57 58 59
55 56 57
56 58 57
54 56 58
57 58 59
59 59 60
59 60 61
58 59 60
57 58 60
59 60 61
55 57 59
59 60 61
54 55 58
55 57 58
58 60 59
58 59 58
54 56 58
57 58 59
56 58 59
57 58 58
56 57 58
61 64 62
60 61 61
60 63 61
61 65 63
65 69 62
60 62 59
64 69 61
61 64 62
62 64 63
62 66 63
62 67 63
62 64 62
62 64 63
63 66 63
62 65 63
63 69 65
60 61 60
60 62 61
59 61 60
60 62 60
60 63 61
59 60 59
59 61 60
60 63 60
59 61 60
60 63 61
60 62 61
61 65 62
66 68 67
71 71 71
72 72 72
73 73 73
71 71 71
72 72 72
72 73 71
72 72 72
72 72 72
71 71 72
73 73 73
73 73 73
73 73 73
71 71 71
59 60 61
52 54 57
53 54 57
54 55 57
54 56 57
57 58 58
58 59 60
57 59 59
56 58 60
56 57 60
54 56 59
53 55 58
55 57 59
51 53 57
59 62 58
53 55 57
52 53 56
56 57 59
60 62 58
57 59 59
56 57 58
56 58 58
60 62 60
64 67 60
59 61 60
59 62 61
61 64 62
60 63 61
62 65 62
61 63 62
62 66 64
63 69 65
62 66 63
63 70 65
62 68 64
62 66 63
64 68 64
64 68 65
62 65 63
61 64 62
60 62 60
60 61 60
60 64 61
59 61 60
60 63 61
60 64 62
62 66 62
62 67 63
62 65 63
62 63 62
70 71 70
73 74 74
73 73 73
72 72 72
72 72 72
72 72 72
70 71 71
72 72 72
71 71 71
71 72 72
71 72 72
73 73 73
72 72 73
72 73 73
63 64 66
52 54 57
52 54 57
52 54 57
53 55 57
54 55 58
56 57 59
54 56 59
56 57 60
54 56 59
53 55 58
54 56 58
52 54 57
50 53 56
53 55 58
52 55 58
52 54 56
55 57 57
58 60 60
54 56 57
57 59 59
54 57 57
61 64 62
58 61 60
62 65 59
59 62 60
61 64 61
65 72 63
63 68 64
62 67 63
63 69 65
62 68 64
63 67 64
65 71 66
65 72 66
64 70 65
64 71 66
64 68 65
62 64 63
60 63 61
60 61 60
60 61 60
60 65 62
62 67 63
63 69 63
64 72 65
63 70 65
62 66 63
62 66 63
64 67 65
69 71 70
73 74 74
73 73 73
71 71 71
71 72 71
72 73 72
72 72 72
71 72 71
70 71 72
73 73 72
71 71 71
72 72 72
70 71 72
72 73 72
62 64 67
54 60 56
46 49 54
45 48 54
48 50 55
51 53 57
56 57 59
52 54 58
50 53 58
47 50 56
48 51 56
48 51 56
44 48 53
50 53 55
59 66 53
56 58 58
53 55 56
51 53 57
52 54 57
53 56 57
53 55 57
52 55 57
60 64 60
60 62 61
62 64 62
60 62 59
66 70 61
64 70 62
62 68 64
63 71 65
63 71 64
63 69 65
61 67 64
64 71 66
62 69 64
64 72 67
63 69 65
65 71 66
63 69 65
61 64 62
60 62 60
60 62 61
62 69 64
62 68 64
64 73 66
63 71 66
65 76 68
62 68 64
64 72 66
67 75 69
72 79 74
74 76 75
72 72 72
71 71 71
72 72 72
72 73 72
72 72 72
72 72 72
70 71 71
71 72 71
71 71 71
71 71 71
73 73 74
62 64 69
50 55 62
46 50 57
37 41 50
26 31 44
25 31 43
27 33 45
38 42 51
47 50 56
47 50 56
43 47 54
39 44 53
45 49 55
46 49 55
49 52 57
47 49 54
48 51 55
52 55 55
48 51 55
53 56 57
53 55 55
59 63 56
54 56 57
58 60 59
59 61 60
58 63 61
60 63 61
61 63 61
65 73 63
61 65 62
64 73 66
64 70 63
67 77 65
66 74 68
63 71 66
64 74 67
66 74 67
65 74 68
65 71 67
64 70 65
60 63 61
61 64 61
61 64 62
62 67 63
69 91 75
77 118 88
83 136 96
79 120 90
76 113 86
66 78 70
70 83 73
76 90 80
78 85 80
73 74 72
72 72 72
72 73 72
70 70 70
72 73 72
75 78 71
72 72 72
72 72 71
71 71 71
73 73 72
70 71 72
53 58 66
43 49 59
26 33 47
15 21 38
7 15 34
3 12 33
2 10 31
11 18 37
20 27 42
29 34 46
37 42 52
29 36 49
37 43 52
38 44 51
45 49 54
43 47 53
49 51 56
49 53 53
49 52 55
59 63 57
55 59 55
53 55 56
53 55 54
60 61 59
60 62 60
60 62 61
59 62 60
60 64 60
60 64 62
59 63 61
62 68 63
65 75 67
63 69 65
66 75 67
64 72 66
66 76 69
67 79 70
65 73 68
65 72 66
63 68 65
61 64 62
60 63 61
61 66 63
69 91 75
86 147 101
88 150 104
89 154 106
92 162 110
85 137 99
79 112 86
67 80 71
79 99 85
79 89 82
73 74 73
72 72 72
71 71 71
71 71 71
72 72 72
73 73 70
99 110 67
86 93 70
73 74 71
70 71 71
63 65 68
53 57 66
28 36 52
11 18 36
2 11 33
2 11 32
1 9 30
1 10 31
2 11 30
3 12 33
10 18 37
17 26 42
20 29 45
27 34 48
34 40 49
39 44 49
49 56 52
45 48 52
46 49 53
51 54 56
53 55 54
52 54 55
56 60 53
53 55 56
60 62 60
61 64 60
61 65 61
61 64 62
65 73 63
61 65 63
61 64 62
62 71 65
63 70 66
63 74 67
64 73 67
64 73 66
65 75 68
66 78 70
65 74 67
65 73 67
63 68 64
61 65 62
60 63 61
66 78 68
80 126 92
92 164 110
92 162 109
90 156 107
91 159 109
98 174 118
87 141 101
71 92 77
72 87 77
81 96 85
75 80 77
68 69 70
65 66 67
68 68 69
71 70 70
69 69 67
94 103 64
96 107 69
65 68 66
55 59 59
57 61 64
45 50 61
23 30 47
7 15 34
1 8 29
2 11 32
2 11 32
2 10 31
1 10 31
1 8 28
5 14 34
7 15 35
15 25 43
20 29 44
29 36 47
36 41 49
38 44 51
42 46 51
49 52 54
49 53 53
50 53 54
50 53 54
58 64 55
56 60 55
59 61 59
61 63 61
59 61 60
60 62 61
61 63 62
61 67 63
64 70 65
66 73 64
66 75 66
65 78 69
67 79 69
65 75 68
65 74 67
66 78 69
65 74 68
64 71 66
62 67 64
61 65 63
60 63 61
71 98 78
85 141 100
88 146 103
91 160 109
90 156 107
89 160 108
89 156 108
90 151 106
72 94 78
65 79 70
68 82 73
68 72 71
63 66 66
60 62 64
62 64 65
70 70 69
71 70 68
73 73 68
68 70 64
48 54 53
46 53 53
45 51 59
39 46 55
16 24 36
2 10 28
1 11 28
1 9 30
1 9 30
2 11 32
2 12 32
1 10 30
2 10 31
8 16 36
12 22 42
21 29 45
25 33 47
35 40 49
39 44 51
45 51 49
53 56 54
51 54 53
53 58 55
52 55 55
56 60 57
60 67 56
61 64 61
60 62 60
61 65 61
61 64 62
61 64 63
61 66 63
63 71 66
65 74 66
64 71 65
64 74 67
68 79 67
70 83 69
64 74 67
66 80 70
66 77 69
64 71 66
63 68 64
60 61 60
62 66 63
71 96 76
87 147 102
91 161 109
92 162 109
91 160 109
92 173 114
86 155 106
83 135 97
69 99 78
50 60 56
46 53 52
48 52 53
58 61 62
68 70 70
70 71 71
70 70 71
73 73 72
71 71 71
66 69 67
56 61 61
48 54 57
39 45 51
23 31 35
10 18 23
5 13 21
1 8 21
1 7 25
1 9 27
2 13 32
2 10 32
1 9 30
2 10 30
11 19 38
18 27 43
18 27 42
28 35 46
28 35 46
38 44 49
41 46 49
52 57 52
43 47 51
54 60 53
54 57 56
60 65 55
52 55 56
60 63 60
59 61 60
60 64 61
63 67 62
60 64 61
61 65 62
63 70 65
63 68 64
65 77 68
69 82 68
64 72 66
65 76 68
65 77 68
65 76 68
65 76 68
64 71 66
62 66 63
60 61 60
60 64 61
64 75 67
79 124 91
92 165 111
93 166 111
92 165 110
93 176 115
87 153 105
75 112 86
51 61 57
32 36 39
28 31 35
28 32 36
42 46 48
66 67 67
74 75 74
74 75 75
73 74 74
73 73 73
69 70 71
65 67 69
51 55 59
29 36 38
5 12 13
6 16 12
5 15 10
3 9 18
1 6 21
2 12 27
2 12 30
2 12 31
2 13 31
7 17 33
19 26 42
18 27 44
21 30 45
25 33 44
32 38 47
36 41 50
40 44 51
42 46 51
51 57 52
51 54 55
49 52 53
52 54 55
54 56 57
59 60 60
59 63 61
63 68 61
61 64 62
61 65 61
64 69 61
63 71 65
62 68 64
65 72 63
68 79 67
64 73 67
64 76 68
62 72 66
65 76 68
61 66 63
61 66 63
60 63 61
60 61 60
60 63 61
62 67 63
68 86 73
85 139 99
90 155 107
93 167 112
87 147 103
80 122 91
72 96 79
50 58 55
30 34 37
27 31 35
27 31 35
39 41 44
61 62 62
70 71 71
73 73 73
72 72 72
73 73 73
67 68 69
64 66 67
53 55 57
23 28 29
4 12 12
6 16 13
5 14 12
4 12 16
5 12 26
1 8 27
1 9 30
2 10 30
7 15 34
20 27 41
25 34 47
22 31 45
20 29 44
28 35 46
34 40 49
37 44 50
41 46 50
45 49 52
45 48 51
48 51 53
46 50 53
51 53 55
54 58 53
60 62 60
59 60 59
60 64 61
60 62 61
61 65 62
62 68 64
61 68 62
62 68 64
63 70 64
64 73 67
65 73 65
62 70 65
63 71 66
62 69 64
61 66 63
60 62 61
59 62 60
61 65 62
61 65 62
64 73 67
66 79 70
73 99 80
81 123 92
83 130 96
81 124 93
72 93 78
67 81 72
50 56 55
32 37 40
28 32 35
31 35 38
43 45 47
60 62 61
67 67 67
67 67 67
64 63 61
57 55 54
56 55 49
53 55 56
48 52 55
30 37 38
10 17 17
5 13 12
6 16 13
8 16 24
7 16 32
5 13 34
4 14 35
7 16 36
16 25 42
30 36 48
34 40 50
29 37 49
30 37 47
33 40 49
36 41 49
41 46 50
43 46 51
46 50 51
50 53 53
51 54 55
61 68 55
54 58 55
52 55 55
60 62 61
60 62 61
58 61 60
62 65 62
61 64 62
62 67 63
62 67 63
63 71 66
63 71 66
61 65 63
61 65 62
60 63 61
60 62 61
60 63 60
59 60 59
60 61 60
61 65 62
60 64 62
62 66 62
63 71 65
66 79 70
68 84 72
70 90 76
72 94 78
68 82 72
68 82 72
65 75 68
60 71 63
42 46 48
35 38 41
38 41 43
49 52 52
60 61 60
64 65 64
64 64 63
56 54 52
38 32 27
41 35 28
52 51 46
48 52 54
38 44 44
107 171 25
243 255 13
122 200 17
45 73 31
16 25 39
13 23 40
18 27 43
19 29 45
20 29 45
24 32 46
34 40 50
32 39 49
37 43 51
36 41 49
40 45 50
42 46 50
42 45 50
52 57 52
48 52 53
52 57 52
50 52 55
54 58 53
64 70 54
58 60 59
59 62 60
59 62 60
62 66 63
64 69 61
60 63 61
64 70 61
62 68 63
61 64 61
60 62 60
59 60 60
60 63 61
59 61 60
59 60 59
60 62 60
59 61 60
60 62 61
61 64 62
63 70 65
63 70 65
66 80 70
66 80 70
65 74 67
66 79 70
66 78 69
65 78 69
61 68 63
56 61 58
52 58 55
47 50 51
48 49 51
54 55 56
58 59 59
63 64 63
62 63 63
49 45 42
31 23 14
38 32 21
47 45 42
53 56 55
209 255 44
255 255 25
255 255 10
255 255 16
255 255 29
30 37 45
28 34 45
34 40 49
32 38 49
35 40 50
35 41 50
39 43 51
36 42 51
42 46 52
44 48 53
49 52 53
44 48 52
46 50 52
54 59 53
48 51 53
50 53 55
53 58 53
54 58 53
55 56 57
58 60 59
61 64 61
58 60 59
60 63 61
61 66 63
63 69 63
60 62 60
59 60 59
59 60 59
60 61 59
60 61 59
60 61 60
59 61 60
60 61 60
60 62 60
61 66 63
60 62 61
62 67 62
62 68 63
62 69 64
63 72 66
63 71 65
63 71 65
61 68 64
63 70 65
61 70 65
60 65 62
59 66 62
54 56 56
56 58 58
52 54 55
55 57 57
59 59 60
61 61 61
60 60 60
53 50 47
39 33 28
42 37 30
55 54 44
56 58 57
255 255 46
255 255 22
255 255 7
255 255 11
255 255 30
39 43 47
44 47 53
43 46 52
40 44 50
42 46 51
44 48 54
40 44 51
43 47 53
47 50 54
48 51 55
50 52 55
53 55 56
49 52 54
51 52 54
49 52 53
52 55 54
55 57 55
53 55 55
59 63 53
60 62 60
58 59 58
62 65 60
60 62 60
60 61 60
60 62 60
59 60 59
59 61 60
59 61 60
59 60 59
59 60 59
59 61 59
59 61 60
60 62 60
59 60 59
60 64 61
59 62 60
60 64 61
61 67 63
62 67 63
62 69 64
62 68 64
64 71 64
61 67 63
62 70 65
62 69 64
61 68 64
57 61 60
59 61 60
58 59 59
56 58 58
58 60 60
59 60 59
61 62 61
60 60 60
56 55 53
51 48 43
51 49 44
54 54 51
57 59 55
221 255 47
255 255 26
255 255 8
255 255 11
255 255 34
47 51 52
46 49 52
47 50 52
46 48 53
45 48 53
48 51 54
45 48 54
51 53 56
50 52 55
51 53 56
50 52 56
51 53 56
54 55 57
56 58 56
53 55 56
55 57 58
58 62 56
55 57 57
51 54 55
60 63 61
58 58 58
58 58 58
59 59 59
59 59 59
60 60 59
59 60 59
60 61 59
58 59 58
59 60 59
59 59 59
58 60 59
59 60 60
60 62 60
59 60 59
59 61 60
60 63 61
60 62 60
60 63 61
61 67 63
60 62 61
62 68 64
61 67 63
61 66 62
63 71 65
61 65 62
60 63 61
59 62 60
59 62 61
58 61 60
60 62 61
60 62 61
59 60 60
58 58 58
59 59 58
58 58 57
61 62 54
56 56 56
64 68 54
55 56 53
96 112 49
249 255 36
255 255 21
255 255 24
209 255 41
63 72 51
53 57 53
45 48 52
49 52 54
47 50 54
49 51 55
49 51 55
50 52 55
49 51 55
51 53 55
51 53 55
52 54 56
53 54 55
52 54 56
55 56 57
55 57 56
54 55 56
60 63 56
59 62 56
59 59 58
58 59 59
58 59 59
59 60 59
58 58 58
59 60 59
58 59 58
59 60 60
60 63 60
59 61 60
60 62 60
59 59 59
60 64 62
60 61 60
59 61 60
60 63 61
60 62 61
60 63 61
60 62 61
61 66 62
62 68 63
61 64 61
61 66 63
61 66 63
58 61 60
61 66 63
59 63 61
62 68 64
60 62 60
60 62 61
59 62 61
60 61 60
60 61 60
59 59 59
58 58 59
56 57 56
59 59 59
66 70 56
61 64 56
74 82 55
92 105 50
129 158 48
138 168 41
153 189 39
108 131 43
83 97 49
51 55 52
53 57 54
49 52 54
48 50 54
50 52 54
53 54 57
47 50 54
51 53 56
53 54 56
52 53 56
52 54 56
54 55 57
54 55 56
55 56 56
58 59 57
57 57 58
56 57 57
56 57 57
58 58 58
59 60 58
59 60 59
60 60 59
58 59 59
59 59 59
59 59 59
59 60 59
59 60 59
59 60 60
59 61 60
60 62 60
59 61 60
60 63 61
59 61 60
59 60 59
60 64 61
60 63 61
60 61 60
61 64 62
61 63 61
60 63 61
60 64 61
60 62 61
58 59 59
59 61 60
61 64 62
61 64 62
59 60 60
60 61 60
61 63 61
61 63 62
60 60 60
61 62 58
58 59 59
58 58 58
65 69 57
61 63 57
62 65 56
70 75 55
71 77 55
80 89 55
99 114 51
84 93 53
86 98 53
85 100 51
59 63 55
63 68 55
51 53 56
53 55 56
51 53 55
53 54 56
50 52 55
51 53 56
54 55 57
55 57 57
54 56 57
55 56 57
56 57 58
54 55 57
56 57 57
56 57 58
57 58 57
55 56 57
58 59 59
58 58 58
58 58 58
58 59 59
59 60 59
58 59 58
58 59 59
59 60 59
58 58 58
59 61 60
59 61 60
60 62 60
60 61 60
59 62 60
60 62 61
59 61 60
59 61 60
60 63 61
60 61 60
60 63 61
60 61 60
59 61 60
61 63 61
59 61 60
61 64 61
59 61 60
59 61 60
59 62 60
57 59 58
59 61 60
59 61 60
59 62 61
59 61 60
59 60 59
58 59 58
58 59 58
58 59 59
63 68 56
62 64 57
71 77 57
73 80 55
80 90 55
76 83 55
83 95 53
73 80 56
83 96 51
69 76 53
63 68 54
54 55 56
55 58 55
53 55 56
52 54 56
52 54 55
55 56 57
52 54 56
55 56 58
54 55 57
55 56 57
52 54 56
57 58 58
57 58 57
55 56 57
56 57 58
56 56 57
58 59 59
58 58 58
59 59 59
59 59 59
59 60 59
59 59 59
59 60 59
59 61 60
59 59 59
59 60 59
59 62 60
60 61 59
60 61 60
60 62 60
59 61 60
60 62 60
60 62 61
59 60 60
60 62 60
60 64 61
61 63 62
60 62 61
60 62 60
58 59 59
59 60 59
60 62 61
61 63 61
59 62 60
61 64 61
59 62 61
58 60 60
59 61 60
57 59 58
58 58 59
58 58 57
58 59 59
58 59 59
57 58 58
62 65 59
62 64 58
62 65 57
75 83 55
82 94 54
65 70 55
77 87 54
67 74 56
63 69 55
57 60 56
61 64 55
53 55 56
51 52 55
52 54 56
51 53 56
53 54 56
54 55 57
55 56 57
56 57 57
54 55 57
55 56 57
58 58 58
56 56 58
54 55 57
57 58 57
55 56 57
60 61 58
58 59 59
58 59 58
59 59 59
59 59 59
59 60 59
58 59 59
60 61 60
60 64 61
59 59 59
59 60 60
60 62 60
60 64 61
60 62 60
59 61 60
59 60 60
59 60 59
61 63 61
59 60 59
59 61 60
60 63 61
59 61 60
60 63 61
60 62 61
59 60 60
60 62 61
61 65 62
61 64 62
59 60 60
59 61 60
59 61 60
61 62 61
59 61 60
58 59 59
59 62 60
59 60 60
58 60 55
62 65 58
59 60 59
65 68 57
67 72 56
74 82 58
68 75 57
61 64 58
62 65 58
60 62 56
65 69 57
64 69 57
65 72 55
58 61 56
55 56 57
57 58 57
53 55 56
56 57 57
54 56 57
56 57 57
54 55 57
55 56 57
56 57 58
54 56 57
57 57 57
57 57 58
56 57 58
57 58 57
58 59 59
59 60 59
59 60 59
59 59 59
59 60 58
59 60 59
60 61 60
59 59 59
58 59 59
59 59 59
59 60 59
60 62 60
59 59 59
61 63 60
60 61 60
60 60 60
59 59 59
60 62 60
59 60 59
60 61 60
60 63 61
59 60 59
59 61 60
60 61 60
58 60 59
60 62 61
60 62 61
59 60 58
58 59 59
59 60 60
59 61 60
63 67 60
58 59 59
59 60 60
61 64 58
60 61 58
56 57 58
62 64 58
58 59 57
63 67 57
68 72 58
64 67 56
58 59 57
66 70 57
62 66 56
59 61 57
55 57 57
52 54 56
55 57 56
55 56 58
65 71 55
59 61 57
54 55 57
55 56 56
55 56 57
53 55 57
54 55 57
55 55 56
57 58 57
57 58 58
57 58 57
56 57 58
56 57 57
56 56 57
58 59 59
58 59 58
58 59 59
59 60 59
59 59 59
59 60 59
59 59 59
58 59 59
58 58 59
59 60 59
59 60 59
59 61 60
59 60 59
59 61 60
59 61 60
59 60 59
59 60 60
58 59 59
60 61 60
60 61 59
61 63 61
59 61 60
61 62 60
58 59 59
58 60 59
59 60 58
59 61 60
60 63 61
60 62 61
59 62 61
58 59 59
59 61 60
59 61 60
59 60 58
59 61 60
57 58 57
60 61 59
58 60 60
61 62 58
66 70 57
62 66 56
62 65 57
60 61 58
62 65 57
56 57 58
67 73 55
71 78 55
59 60 56
64 68 57
55 56 57
63 67 56
54 56 57
58 61 57
57 58 58
55 56 57
57 57 58
55 57 57
55 56 57
56 57 57
56 57 58
57 59 57
56 57 57
55 56 57
56 57 58
59 61 60
59 59 59
58 59 59
59 60 58
59 60 58
59 59 59
59 61 60
59 61 59
59 60 59
60 63 60
60 61 59
59 60 59
60 61 60
59 59 59
59 60 60
60 64 61
59 61 60
59 60 60
59 61 60
59 60 59
60 62 60
59 61 60
59 59 59
59 61 60
60 62 61
58 59 59
58 58 59
59 62 61
60 63 61
59 62 60
59 59 59
65 70 61
58 58 59
59 59 59
57 58 58
58 59 59
61 64 60
57 57 58
59 59 59
66 71 57
67 72 57
60 62 56
70 77 57
63 66 59
67 74 56
55 56 57
56 57 58
56 57 57
56 58 56
56 58 58
60 63 57
63 68 56
57 57 58
57 58 57
56 57 58
55 56 57
54 55 57
55 56 57
58 59 58
55 56 57
56 56 58
57 57 57
56 57 58
55 56 57
58 59 59
59 60 59
59 60 59
58 59 59
59 59 59
59 60 59
59 60 60
59 60 59
59 60 59
59 61 60
58 59 59
59 60 59
58 59 59
58 59 59
58 59 58
59 60 60
59 62 60
59 61 60
60 62 60
59 62 60
60 62 60
58 58 59
59 60 59
60 61 60
60 61 60
59 60 60
59 61 59
59 61 60
59 61 60
59 60 58
59 59 59
62 64 59
60 60 60
58 58 58
57 58 58
61 63 58
58 59 58
61 64 59
58 59 58
58 60 58
63 65 58
64 68 57
60 61 60
58 59 58
59 60 56
62 64 57
58 58 58
57 58 58
56 58 57
58 59 57
57 58 57
57 58 57
61 64 56
57 57 58
56 58 57
56 57 57
56 56 57
60 63 58
56 57 57
57 58 58
55 56 57
56 56 57
56 57 58
59 60 58
58 59 58
58 60 59
59 60 59
59 59 59
59 60 59
59 61 60
59 60 59
59 60 59
60 61 60
59 59 59
59 60 59
59 61 60
58 59 59
59 60 60
60 62 60
58 59 59
60 62 60
59 60 59
60 60 60
59 59 59
59 60 59
59 60 59
59 61 60
59 60 60
63 65 59
59 60 60
59 62 59
59 60 60
59 61 59
60 62 61
59 61 59
59 60 58
57 59 58
64 68 59
62 66 59
59 60 60
66 71 57
65 67 58
62 65 58
59 61 57
72 79 57
61 62 58
62 64 58
57 58 58
59 62 57
56 57 58
56 57 56
60 61 59
61 64 56
60 62 57
61 64 57
56 58 56
61 63 58
60 63 57
55 56 57
57 58 58
57 58 57
56 57 57
56 57 57
57 58 58
58 58 59
56 57 57
57 58 58
55 56 57
58 58 58
60 62 60
59 60 59
59 60 59
60 62 60
59 60 59
59 59 59
58 59 59
60 60 59
59 60 59
60 63 61
59 60 59
59 60 59
59 60 59
59 60 59
59 61 60
60 63 61
60 63 61
59 61 60
60 63 61
59 60 59
59 60 59
59 60 59
59 61 60
59 60 60
59 60 59
59 61 60
58 59 59
58 58 58
59 60 60
59 60 60
59 62 60
58 59 59
58 60 60
58 58 59
57 58 58
57 58 58
60 63 58
65 70 58
61 64 57
61 64 57
64 66 57
65 69 57
59 61 59
62 64 58
59 60 59
57 58 59
61 63 57
58 60 58
58 59 58
56 57 58
59 60 57
64 68 57
62 65 56
55 56 57
57 58 57
56 57 58
55 56 57
64 68 57
58 60 58
60 63 57
57 57 58
56 57 57
58 58 58
59 60 59
59 59 59
58 58 58
59 60 59
59 60 59
58 58 58
58 59 59
59 59 59
58 59 59
58 59 59
59 61 60
60 62 60
59 60 59
59 60 60
59 59 59
60 62 60
59 59 59
59 60 59
59 60 59
60 61 59
59 61 60
59 60 60
58 59 58
59 62 61
58 59 59
59 61 60
58 58 58
60 61 59
59 60 59
60 63 61
59 60 58
63 66 59
59 61 60
62 65 57
57 58 58
58 60 59
57 58 58
57 58 58
61 64 58
57 58 59
58 58 57
57 58 58
58 60 56
58 60 58
63 66 59
63 67 57
65 69 57
64 67 57
62 64 57
58 59 58
57 58 58
60 62 58
57 58 58
60 62 57
60 62 58
58 59 58
61 63 57
58 59 57
56 56 57
61 63 57
57 57 58
56 57 58
58 59 58
57 58 58
59 60 59
59 59 59
59 59 59
58 60 59
59 60 59
59 59 59
58 59 59
59 60 59
59 60 59
59 61 59
59 62 60
59 61 60
59 61 60
59 60 59
59 61 60
58 61 60
58 60 59
60 62 60
59 60 59
60 62 60
59 61 60
59 61 60
59 61 60
60 62 61
58 59 59
59 60 60
59 61 60
59 59 59
60 61 60
60 61 59
58 60 59
59 60 59
60 62 60
59 60 59
56 57 57
64 69 57
65 70 59
59 60 58
62 64 57
59 60 58
68 72 58
59 60 60
61 63 58
58 58 59
57 58 58
60 62 58
61 63 57
59 60 58
57 58 57
58 58 58
57 58 57
58 59 58
57 57 58
57 58 58
55 56 57
57 58 58
58 59 58
57 58 57
58 59 58
56 57 57
56 57 58
57 57 58
57 57 58
56 57 58
60 62 60
59 60 59
58 59 59
58 58 58
59 60 60
59 59 59
59 61 60
59 60 59
58 59 59
58 59 58
59 59 59
59 60 59
59 60 60
59 59 59
59 59 59
59 60 59
60 61 60
60 61 60
59 59 59
59 60 60
58 59 59
59 61 60
58 59 59
58 59 59
60 61 60
60 63 60
59 60 59
60 62 59
59 62 58
58 59 59
64 66 59
64 67 58
59 61 60
66 70 57
58 58 58
63 66 59
58 59 59
62 64 58
67 72 58
60 62 59
58 59 58
57 59 59
58 59 59
62 65 57
58 59 59
66 70 57
57 57 58
57 58 58
58 58 58
56 57 57
60 63 56
58 59 58
55 56 57
59 61 57
60 62 57
55 56 57
57 57 58
56 57 58
58 58 58
57 58 58
59 59 57
60 62 57
56 57 57
57 58 58
59 59 59
58 58 58
59 60 59
58 58 58
60 62 60
59 61 60
59 61 60
60 61 59
59 60 59
59 59 59
59 59 59
60 60 59
58 59 58
59 60 59
59 60 60
59 60 59
59 60 59
59 60 59
59 60 59
59 61 60
58 60 59
59 60 59
60 62 60
58 60 59
59 59 59
59 60 59
59 60 59
59 60 59
59 60 59
58 60 59
58 60 59
59 60 58
58 59 59
60 62 58
59 60 58
59 60 59
59 59 58
58 60 58
58 59 59
58 61 58
66 70 58
65 69 58
58 58 59
62 64 58
58 60 59
57 58 58
58 60 58
59 62 57
62 65 58
55 56 58
58 59 59
60 63 57
57 58 58
60 63 57
62 64 58
57 57 57
57 58 58
56 57 58
58 58 58
58 59 59
57 58 58
57 58 58
58 58 59
57 58 58
59 59 59
60 62 60
58 58 58
59 59 59
59 59 59
59 59 59
59 59 59
59 60 60
60 60 59
59 60 59
58 58 58
58 59 59
59 59 59
59 61 59
60 61 60
59 60 59
58 59 59
58 58 59
58 59 59
59 60 60
58 59 59
59 61 60
57 58 58
59 60 59
58 59 59
59 60 59
60 62 60
58 60 60
59 59 58
58 58 58
59 60 59
58 58 58
59 60 59
58 58 58
60 61 61
58 59 59
57 58 58
63 66 57
59 59 58
61 63 57
56 58 58
61 64 57
57 57 58
62 65 58
56 56 57
62 64 59
59 60 58
59 60 58
61 64 57
57 58 58
59 62 57
58 58 59
58 59 58
57 58 59
57 58 58
56 57 58
58 58 58
56 57 57
56 57 58
57 58 58
57 58 58
55 56 57
58 58 58
57 59 57
58 59 59
59 60 59
59 59 59
60 61 60
58 59 59
58 58 58
59 61 60
58 58 58
60 61 60
59 60 59
60 62 61
58 60 59
59 60 60
58 59 58
59 61 60
59 61 60
58 59 59
59 60 60
59 60 59
59 60 59
58 59 58
58 58 59
58 59 59
58 59 59
59 60 59
58 59 59
59 60 60
58 61 60
58 59 59
58 59 59
60 61 59
59 60 60
57 59 58
59 60 59
57 58 58
63 67 59
57 58 58
64 67 58
59 60 58
56 58 58
57 58 59
57 58 58
62 65 58
58 59 59
59 60 59
57 58 58
57 58 58
57 58 58
60 63 58
60 62 57
57 58 57
58 59 59
57 57 58
54 55 56
61 64 57
58 59 58
59 60 58
57 57 57
57 58 58
57 58 58
57 58 59
61 63 58
57 58 58
57 58 58
59 59 59
58 59 58
59 60 59
58 59 58
59 60 59
58 60 59
59 60 59
59 59 59
59 60 59
60 62 59
59 59 59
58 59 59
59 60 59
59 61 60
58 58 58
62 64 58
60 62 60
59 61 60
59 59 59
58 59 59
59 59 59
63 65 59
59 60 58
58 58 59
59 61 60
60 61 59
62 65 58
60 62 61
59 61 59
59 60 59
58 60 59
59 59 58
59 61 60
59 59 58
59 59 58
59 62 59
59 59 58
56 57 57
58 59 59
59 59 59
60 63 57
60 62 57
62 64 58
62 65 59
57 58 58
58 59 58
60 61 58
57 58 58
57 58 59
59 59 59
57 58 59
59 60 59
58 59 58
57 58 57
56 57 57
56 57 58
57 58 58
56 57 57
57 58 58
61 63 57
56 57 57
59 60 59
60 62 57
57 57 57
59 59 59
58 58 58
59 59 59
58 59 58
58 59 58
59 61 59
58 59 59
59 60 59
59 60 59
58 58 58
59 60 59
58 58 58
59 59 59
59 59 59
59 61 60
59 61 60
60 63 61
60 61 60
58 58 58
60 61 59
59 60 59
58 60 59
59 59 59
59 59 59
59 60 60
60 60 60
60 61 59
58 59 59
58 58 59
58 61 59
64 68 59
64 66 59
59 60 58
58 61 59
58 59 59
59 59 59
58 58 59
58 58 59
63 65 59
60 62 58
65 70 58
62 64 58
58 59 58
58 58 59
57 58 58
58 59 59
65 69 58
57 58 58
57 58 58
65 69 57
58 59 59
57 57 58
58 59 58
59 60 58
58 59 58
58 59 58
57 58 58
60 60 58
57 58 58
59 60 58
58 58 58
58 59 58
57 58 58
57 58 58
