P3
# Rays 2018
64 64
255
61 59 58
60 58 58
58 58 58
61 59 58
60 58 57
61 58 58
59 58 58
61 58 58
79 58 56
68 59 58
76 58 58
68 58 58
71 59 58
61 58 58
67 59 57
77 59 57
78 58 57
80 58 58
76 58 57
70 59 58
66 59 58
66 59 58
64 58 58
81 58 60
72 59 58
70 59 58
74 59 58
71 59 58
80 59 59
71 60 60
61 57 57
71 59 58
64 58 58
71 58 57
64 59 59
75 57 58
65 59 58
74 58 58
67 58 57
67 57 57
59 56 56
60 57 57
57 56 58
63 58 59
55 55 56
65 58 60
67 57 61
57 56 57
58 57 58
61 58 60
58 58 58
56 57 57
60 57 58
58 58 58
55 56 56
56 57 57
60 57 58
58 58 58
58 58 58
60 58 59
65 58 58
58 57 57
58 57 57
59 58 58
60 59 59
58 58 58
59 58 58
60 58 58
58 58 58
59 58 58
60 58 58
60 58 58
62 58 58
64 58 57
74 58 57
67 58 57
66 59 57
73 58 57
62 58 58
72 58 58
74 58 58
68 59 57
75 59 58
99 58 59
64 58 57
78 59 57
78 59 58
65 58 58
90 59 57
71 59 58
68 59 59
78 59 57
74 59 62
74 60 59
83 59 57
71 59 58
70 59 58
80 58 58
74 57 57
64 57 58
63 58 58
64 58 57
63 57 57
74 57 60
65 57 57
60 58 58
65 58 58
65 57 61
58 58 58
59 57 58
67 58 58
59 58 58
69 55 59
58 58 58
56 56 57
57 57 58
57 58 58
57 57 57
56 56 57
55 56 56
56 56 57
58 58 58
60 58 58
58 58 58
58 58 58
60 58 58
59 58 58
59 58 58
59 58 58
58 58 58
60 58 58
58 58 58
60 59 58
60 58 58
60 58 58
60 58 58
61 58 58
61 58 58
80 58 56
65 58 58
73 58 57
78 59 57
75 59 57
74 58 57
75 58 57
74 59 58
80 59 58
81 58 59
75 59 56
84 59 57
69 58 58
79 59 57
70 60 58
68 59 58
68 59 58
67 58 57
81 60 58
60 59 59
72 60 59
75 58 57
71 58 58
74 59 58
72 58 58
68 59 59
77 60 58
70 59 59
59 57 57
72 58 57
61 59 59
61 56 57
65 58 58
57 57 57
56 55 56
59 57 56
65 57 61
65 57 61
56 56 57
56 56 57
58 56 58
58 57 58
54 54 56
57 56 57
58 58 58
57 57 58
57 57 57
60 58 59
60 58 58
58 58 58
59 58 58
59 58 59
59 58 58
62 58 58
60 58 58
60 58 58
61 58 59
60 58 58
58 58 58
60 59 58
59 58 58
63 58 58
61 58 58
63 59 58
73 58 57
64 58 57
65 58 57
79 58 61
77 58 57
68 58 58
76 58 60
71 59 58
65 59 58
66 58 57
64 58 57
71 59 58
71 60 59
73 59 58
69 59 58
74 59 59
69 59 59
65 59 59
75 58 58
68 59 58
77 60 58
69 60 59
75 59 58
66 59 58
65 57 57
73 58 58
66 59 59
60 58 58
59 58 58
59 59 59
59 57 57
56 56 56
58 58 58
60 58 58
59 57 58
55 56 57
64 57 61
54 55 55
56 57 57
63 55 59
56 56 57
65 57 60
56 56 57
57 56 57
57 57 58
58 57 57
58 58 58
59 58 58
57 58 58
58 58 57
59 58 58
59 58 58
58 58 58
59 57 57
60 58 58
59 59 59
60 59 59
60 58 58
59 59 59
59 58 58
58 58 58
59 59 59
59 58 58
61 59 58
61 58 58
63 59 59
75 59 57
86 58 56
71 58 58
64 58 58
79 59 57
65 59 57
69 59 57
67 59 57
68 59 58
78 59 57
76 59 57
72 59 58
71 58 57
67 59 58
69 59 58
81 59 58
78 60 58
64 60 59
71 60 59
75 59 58
75 59 58
78 58 58
75 59 58
68 57 57
59 56 56
59 58 58
60 57 57
59 59 59
56 56 57
57 57 58
56 56 57
68 58 58
58 58 59
64 57 61
55 56 57
57 56 57
58 56 58
55 55 56
57 56 58
56 56 57
56 56 57
56 56 57
57 56 58
60 58 57
59 58 58
60 58 58
59 58 59
57 58 58
58 58 58
59 58 58
60 58 58
60 58 59
60 59 58
59 58 58
59 59 58
59 58 58
60 58 58
60 58 58
60 59 59
59 58 58
59 59 58
60 58 58
61 59 58
62 58 58
64 59 58
69 59 58
88 58 57
70 58 57
76 58 56
75 58 57
68 59 58
73 59 58
72 58 57
66 59 58
69 59 57
66 59 59
75 58 57
78 59 58
75 59 58
70 58 57
69 60 59
82 59 58
68 60 59
58 58 58
68 58 61
86 58 56
74 59 58
67 59 59
87 57 56
60 58 58
68 57 57
66 59 59
62 59 59
61 58 59
59 57 57
59 57 57
56 56 57
57 58 58
58 58 58
56 57 57
59 58 58
65 57 60
58 56 57
56 57 57
56 56 57
57 58 58
58 58 58
59 58 59
58 58 58
59 59 59
58 58 58
58 58 58
59 58 58
59 58 58
59 58 58
59 58 58
58 58 58
60 58 58
60 58 58
60 58 58
62 58 58
60 59 58
62 58 58
60 59 58
61 59 58
61 58 59
59 58 58
60 58 58
61 58 58
74 58 57
80 59 57
71 58 57
71 59 58
67 59 58
76 59 58
84 59 57
74 58 56
83 59 57
70 59 58
84 58 56
66 58 58
72 60 58
72 59 58
70 58 58
80 59 57
71 58 57
65 59 58
71 60 59
78 59 58
63 59 58
68 59 59
68 59 59
65 56 56
61 59 59
69 59 59
69 58 62
58 58 59
58 58 58
56 57 57
57 57 58
55 56 56
58 58 58
56 57 57
56 56 57
56 56 57
54 55 56
57 57 57
58 58 58
57 57 58
63 57 58
59 57 57
59 58 58
58 58 58
58 57 57
59 58 58
60 58 58
59 58 58
60 58 58
58 58 58
59 58 57
57 57 58
59 58 59
59 58 59
59 58 58
61 58 59
58 58 58
60 59 58
61 58 58
60 58 58
59 58 58
59 58 58
59 58 58
61 59 58
70 58 58
70 58 58
62 58 58
70 59 57
86 59 56
72 58 57
73 59 58
70 58 57
84 59 57
79 59 57
61 59 59
68 59 58
76 60 58
73 59 59
75 60 58
83 60 58
69 60 59
79 59 62
74 59 58
87 59 58
74 59 58
67 60 60
72 59 59
66 59 58
65 58 58
68 59 58
67 57 57
60 59 59
59 59 59
59 59 59
57 57 58
57 58 58
56 57 57
55 56 56
57 57 57
56 56 57
55 56 57
55 56 56
57 57 57
58 57 58
59 58 58
59 58 58
59 58 58
61 58 58
58 59 59
58 58 58
60 58 58
60 59 58
62 59 58
60 58 58
60 58 58
60 58 58
59 58 58
58 58 58
59 58 58
61 59 58
57 57 58
61 58 59
62 58 58
62 58 58
59 58 58
59 59 59
60 58 58
62 59 58
58 58 58
62 59 58
69 59 58
72 58 57
69 59 58
64 59 58
64 58 57
73 59 58
63 59 58
82 59 57
73 59 58
72 59 58
64 59 58
75 60 58
75 59 58
73 60 59
71 60 59
73 60 59
73 60 59
81 61 59
70 60 59
69 60 59
61 58 58
67 58 58
62 59 59
66 59 59
61 57 58
56 57 58
57 58 58
55 54 56
56 57 57
57 58 58
57 58 58
56 57 57
56 57 58
58 59 59
56 57 57
57 57 57
58 58 58
59 59 59
59 57 58
58 58 58
58 58 58
60 58 59
60 58 58
59 58 58
64 58 58
61 58 58
64 58 58
65 58 58
59 57 58
60 58 58
58 58 58
59 58 57
62 58 58
59 58 58
59 59 59
62 59 58
59 58 58
58 58 58
60 59 59
61 58 58
60 59 58
59 59 58
60 59 58
63 59 58
62 58 58
71 58 57
73 59 58
73 58 57
67 59 58
74 59 57
70 58 58
82 59 57
81 58 57
69 60 58
93 59 57
87 59 57
71 60 59
78 60 59
74 60 59
69 59 59
76 61 60
68 60 59
71 60 60
77 58 57
74 58 57
63 58 58
67 58 57
60 59 59
62 59 60
58 57 58
67 59 60
56 57 58
57 57 57
58 58 59
56 57 57
56 57 57
56 56 57
65 56 60
58 57 58
59 59 59
59 58 58
59 59 59
60 58 58
59 59 59
60 58 58
60 58 58
59 58 58
59 58 58
60 58 58
59 58 58
59 58 58
64 59 58
59 58 59
58 58 59
59 58 58
61 59 58
58 58 58
60 59 59
59 59 59
62 59 58
59 58 58
63 59 58
61 58 58
60 58 58
61 58 58
63 59 58
62 59 58
60 59 59
68 58 58
70 58 57
65 58 57
83 58 57
62 58 58
82 58 57
72 59 58
78 59 58
76 58 57
78 59 58
79 60 58
98 59 56
88 59 57
75 60 58
67 61 60
68 60 59
88 58 56
69 60 59
82 59 58
65 59 58
62 59 58
59 57 57
62 59 59
58 58 58
56 57 57
58 58 58
61 58 59
57 58 58
57 57 58
55 56 57
56 56 56
56 56 57
57 58 58
57 57 58
57 57 58
57 57 58
59 58 58
58 58 58
59 58 59
61 59 58
59 57 57
58 58 58
60 59 59
59 58 58
61 58 58
61 59 58
60 58 59
61 58 58
60 58 58
60 58 59
61 58 58
62 59 59
66 59 59
61 59 59
59 59 59
60 59 59
60 58 58
61 58 60
60 58 58
61 58 58
60 59 59
61 58 59
61 58 58
60 58 58
59 59 59
60 58 58
76 58 57
64 59 58
68 58 58
76 58 57
64 59 58
77 59 57
81 59 56
76 59 58
80 59 57
72 59 59
72 59 58
72 59 57
76 60 59
70 60 59
80 59 58
72 60 59
69 60 59
70 60 59
62 59 60
61 59 59
60 59 58
65 58 58
58 58 59
59 58 58
56 57 57
58 58 58
56 57 57
57 58 58
58 58 58
57 57 58
56 57 57
58 58 58
58 58 58
58 58 58
60 59 59
60 58 58
60 59 58
60 58 58
60 58 59
59 58 59
61 59 58
61 58 58
59 58 58
60 59 59
59 58 58
60 59 59
60 57 57
60 59 59
60 59 59
61 59 59
61 59 58
61 58 59
60 59 59
65 58 58
61 59 59
61 59 59
60 58 58
61 58 58
60 58 58
61 59 59
59 58 58
62 58 59
59 58 58
60 59 58
61 58 58
60 58 58
64 58 57
61 58 58
60 58 58
82 58 57
63 59 58
63 58 58
62 58 58
66 59 58
60 59 59
71 58 57
64 59 58
67 59 58
63 59 58
61 59 59
62 59 59
70 58 58
60 59 58
58 59 59
60 59 58
59 58 58
60 58 58
59 59 59
58 58 58
58 58 58
58 59 59
56 57 57
58 58 58
56 57 57
58 58 58
58 58 58
60 59 58
59 59 59
61 58 57
59 58 58
58 58 58
59 58 58
59 59 59
61 58 57
59 59 59
59 58 58
60 59 59
59 59 59
60 58 58
72 59 58
59 58 58
59 59 59
62 59 60
61 59 59
60 59 58
61 59 59
60 59 59
59 58 58
65 58 58
61 58 59
59 59 59
61 59 59
59 59 59
60 58 58
61 59 59
59 58 58
59 59 59
60 58 58
61 58 58
60 58 58
59 58 58
59 58 58
59 58 58
62 58 58
60 59 58
60 58 58
61 58 58
61 58 58
59 59 58
61 59 58
67 58 58
60 58 58
59 58 58
60 58 58
60 58 58
58 58 58
62 58 59
60 58 58
61 58 58
59 58 59
59 58 58
60 59 58
59 58 59
58 58 57
58 58 58
60 58 58
58 58 58
57 58 58
58 58 58
58 58 58
59 58 59
59 58 58
60 59 58
60 59 58
59 59 59
59 58 58
59 58 58
60 58 58
60 59 59
58 58 58
61 60 59
59 59 59
59 58 58
68 57 61
63 58 59
59 59 59
61 59 59
68 59 62
60 58 59
60 60 60
61 59 59
61 59 59
61 59 58
61 59 59
60 59 59
62 59 59
61 58 59
60 58 58
59 59 59
60 58 58
59 58 58
59 59 59
59 58 58
61 58 58
58 58 58
62 59 58
59 58 58
62 58 57
59 58 58
60 58 58
60 59 59
60 58 58
58 58 58
59 58 58
65 58 58
62 58 58
61 58 58
62 59 58
59 58 58
61 59 58
60 59 58
58 58 58
58 58 58
59 58 58
58 58 58
60 58 59
58 58 58
59 58 58
59 58 58
59 57 58
58 58 58
57 58 58
58 58 58
59 58 58
60 58 58
63 59 58
59 59 59
58 58 58
60 59 58
61 58 58
59 59 59
61 58 58
60 59 59
60 59 59
59 59 59
59 59 59
58 58 58
59 59 59
61 59 59
61 58 58
68 59 59
58 58 58
60 58 58
61 59 59
61 58 59
60 59 59
61 59 60
61 60 59
61 59 59
62 59 58
59 59 59
62 59 59
58 58 58
59 58 58
61 58 58
63 58 57
62 58 58
58 58 58
60 58 58
62 59 58
60 59 58
60 58 58
60 58 58
60 59 58
60 58 58
62 58 58
59 58 59
61 58 58
62 58 58
60 58 58
61 59 58
59 58 58
60 59 58
59 58 59
59 59 59
61 58 58
59 58 58
58 58 58
60 58 58
67 58 61
58 58 58
59 59 59
57 58 58
59 58 58
59 58 59
57 58 58
58 58 58
59 58 58
59 59 59
58 59 59
60 59 58
59 59 59
61 59 58
62 59 59
60 58 59
60 59 59
60 58 58
62 58 57
58 58 58
62 59 60
59 59 59
61 59 58
61 60 60
61 58 59
60 57 57
62 59 59
59 58 59
61 59 59
59 59 59
61 58 59
61 59 59
60 59 59
61 59 59
61 59 59
62 59 58
58 58 58
63 59 58
59 59 59
60 59 58
60 59 58
58 58 58
61 58 58
60 59 58
61 58 57
63 58 58
59 58 58
59 58 58
59 58 58
59 58 58
62 58 58
60 58 58
61 59 58
60 59 58
59 58 58
61 58 58
58 58 58
59 58 58
59 58 58
62 59 58
60 58 59
58 57 57
58 58 58
60 58 58
58 58 58
59 59 59
58 58 58
58 59 59
57 58 58
57 58 58
58 58 58
58 58 58
60 58 58
59 59 59
59 59 59
60 59 58
59 59 59
60 59 59
60 59 59
62 59 60
60 59 59
59 59 59
59 59 59
59 59 59
62 59 59
60 58 58
59 59 59
61 58 58
59 59 59
63 58 58
68 58 57
61 59 59
61 59 58
63 59 59
59 59 59
67 59 59
60 59 60
62 59 60
61 59 59
59 59 59
59 59 59
59 59 59
59 59 59
59 59 59
59 58 58
67 59 58
59 58 58
60 58 59
60 58 58
59 58 58
60 58 58
69 59 58
61 58 59
60 58 58
66 58 57
59 58 58
59 58 58
60 58 59
59 58 58
60 59 59
58 58 58
59 59 59
60 59 58
60 58 58
59 58 58
58 58 58
60 58 59
59 58 58
58 58 59
59 58 58
58 58 58
59 58 58
58 58 58
59 58 58
59 59 59
58 58 58
60 59 58
59 59 59
60 59 59
58 58 58
59 58 58
59 59 59
59 59 59
58 58 58
61 58 58
59 59 59
67 59 60
61 59 59
59 59 59
60 59 59
62 59 58
66 58 58
67 59 59
63 57 57
60 59 59
62 58 59
70 58 58
74 59 58
60 60 60
66 59 58
62 60 60
60 59 59
60 58 58
60 59 59
60 59 59
60 59 59
61 59 58
59 59 59
59 59 59
60 59 58
59 58 58
58 58 58
60 58 58
60 59 58
61 58 58
63 59 58
61 58 60
62 58 58
61 58 58
62 58 58
61 58 58
66 58 58
66 59 58
58 58 58
60 58 59
60 59 58
60 58 58
64 59 58
59 58 58
58 58 58
59 58 58
57 57 58
60 58 58
61 58 59
58 58 58
58 58 58
58 58 58
60 58 58
59 58 58
58 58 58
58 58 58
60 59 59
59 59 59
61 60 60
60 58 58
59 59 59
59 59 59
68 59 62
59 59 59
59 58 59
60 59 59
59 59 59
62 59 60
62 59 59
60 59 59
60 58 58
60 59 59
60 59 59
60 58 58
66 60 59
68 58 57
59 59 59
63 59 59
65 60 60
64 59 59
61 60 60
62 59 60
60 60 60
61 59 58
61 60 59
60 59 59
66 59 59
61 59 59
60 59 60
60 58 58
59 58 58
63 59 58
59 58 58
59 58 58
60 58 58
60 58 58
60 59 58
58 58 58
61 58 59
59 58 58
60 59 58
62 59 59
60 58 58
62 59 58
59 58 58
60 58 58
60 58 57
58 58 58
57 57 57
59 58 58
58 58 58
59 58 59
59 58 59
59 58 58
58 58 58
58 58 58
57 57 57
59 59 59
59 58 59
59 59 59
58 58 58
59 59 59
60 60 60
62 58 58
59 59 60
61 59 59
61 59 60
59 59 59
62 58 60
60 59 58
59 59 59
60 59 59
65 59 59
61 58 58
66 59 58
63 58 57
67 58 57
60 59 59
67 59 58
63 59 59
64 59 59
59 59 59
61 60 60
64 58 58
61 60 60
62 60 59
60 60 60
62 60 60
60 59 59
62 59 59
62 59 60
60 59 59
59 59 59
60 59 58
59 59 59
59 58 58
61 59 59
61 59 58
66 59 58
60 58 58
60 58 58
62 58 58
58 58 58
60 59 59
63 58 60
61 59 59
61 58 58
66 59 58
60 59 59
61 58 58
59 58 58
59 59 59
59 58 58
58 58 58
59 58 58
59 59 59
59 58 58
56 57 57
61 58 59
58 58 58
58 58 58
59 58 58
60 59 58
61 59 59
59 59 59
60 59 60
60 60 60
61 60 59
59 59 59
61 60 61
60 59 59
60 59 59
59 59 59
61 60 60
61 60 61
61 60 60
59 58 58
61 58 58
60 59 59
63 59 59
65 59 58
66 60 59
62 59 59
68 59 58
63 59 60
66 60 60
64 60 59
61 60 60
61 59 59
62 60 60
72 60 63
61 59 59
62 60 60
60 59 60
59 59 59
61 59 59
69 59 58
62 58 58
60 58 58
62 58 58
61 58 58
62 59 58
62 59 59
62 58 59
61 59 59
68 59 58
60 59 58
62 59 58
62 59 58
62 58 58
65 59 59
60 58 58
59 59 59
59 59 59
59 59 58
59 59 59
58 58 58
58 58 58
57 58 58
58 59 59
67 58 62
60 59 59
57 57 58
58 58 58
56 57 57
59 58 59
59 59 59
61 59 59
61 60 60
66 59 62
59 59 59
60 60 60
60 61 61
60 60 60
60 59 59
61 60 60
60 60 60
68 60 60
62 58 60
61 59 59
66 58 58
60 59 59
61 59 59
74 59 58
69 59 57
70 60 59
63 59 59
63 59 59
61 60 59
77 60 62
64 59 59
67 59 62
62 58 59
65 60 60
60 59 59
60 60 60
63 60 59
61 60 60
60 60 60
62 60 59
60 59 59
60 58 58
66 59 58
65 59 58
59 58 58
61 58 58
64 58 58
64 59 58
59 59 58
61 58 58
62 59 59
61 59 58
62 59 58
60 59 59
61 59 58
60 59 59
60 58 59
60 59 59
59 59 59
59 59 59
61 58 59
61 59 58
59 59 59
61 59 59
59 58 58
58 58 58
60 58 59
58 58 58
59 58 58
61 58 58
58 58 59
58 58 59
61 60 60
60 60 59
61 60 61
61 61 60
61 60 60
59 59 59
60 58 59
61 60 60
59 58 59
59 58 58
61 59 59
65 59 59
60 58 58
60 57 57
61 57 57
64 59 59
69 59 60
65 60 59
68 59 58
64 58 59
73 58 58
63 60 60
64 59 59
71 60 58
66 61 60
62 60 60
73 60 64
65 60 59
72 59 62
63 61 60
67 60 59
61 60 60
65 59 59
61 59 58
68 59 58
67 59 58
58 58 58
59 59 59
62 58 58
61 58 58
66 59 58
60 59 59
59 58 58
66 59 58
61 59 59
62 59 59
60 59 59
60 59 59
61 60 59
61 61 61
63 62 62
63 62 62
59 60 60
58 59 59
58 58 58
59 59 59
61 59 58
57 58 58
59 58 59
59 59 59
57 58 58
58 58 58
59 59 59
59 59 59
60 59 59
60 60 60
60 59 59
60 60 60
68 60 63
60 60 61
61 59 60
59 59 59
58 59 59
67 58 61
59 58 58
64 59 60
73 58 61
60 58 58
62 57 59
64 59 59
65 60 60
64 58 57
67 59 59
80 59 62
68 60 60
61 60 59
77 59 58
63 59 60
69 59 59
77 60 59
65 61 60
68 60 59
63 60 60
62 60 60
64 59 59
61 60 60
67 59 58
60 58 58
60 58 58
63 59 58
60 59 58
73 58 57
68 58 58
60 58 58
59 58 58
63 59 58
60 59 59
68 59 59
67 59 59
62 60 59
63 62 62
65 63 63
68 68 68
68 68 68
68 68 68
67 68 68
67 66 66
65 63 64
60 60 60
59 59 59
58 58 58
67 58 61
58 58 58
57 57 57
57 58 58
58 59 59
58 58 58
60 59 60
61 60 60
60 60 60
60 60 61
59 60 60
59 58 59
60 59 60
58 58 59
59 58 58
60 58 60
72 59 64
58 58 58
68 58 57
66 59 58
66 57 56
58 57 57
74 57 59
66 59 58
68 60 58
72 60 59
69 61 59
66 60 59
75 59 57
64 60 60
63 59 59
67 61 60
74 60 60
67 60 59
65 60 61
68 60 59
68 61 60
71 60 60
73 60 59
73 59 58
66 58 58
65 57 58
64 59 58
70 58 57
63 58 58
60 58 58
71 58 58
65 59 60
61 59 58
60 59 59
61 59 58
67 59 59
70 63 62
70 66 66
75 72 72
77 74 74
77 73 73
73 74 74
75 74 74
74 72 74
69 70 70
68 68 68
62 62 62
56 57 57
59 58 59
57 57 57
57 56 57
55 56 56
57 57 58
57 58 58
60 59 59
59 60 60
61 60 61
59 59 59
58 58 59
58 59 59
60 59 60
59 59 60
63 59 60
57 58 58
64 59 59
56 56 57
62 58 59
60 58 58
65 57 57
62 58 58
72 60 59
70 59 58
69 60 59
64 59 60
71 59 62
69 58 58
65 58 57
77 59 58
70 60 59
75 60 59
69 60 59
83 60 62
71 59 58
85 61 60
71 60 59
83 60 59
65 60 60
66 59 58
73 58 56
61 59 58
69 58 58
62 58 58
69 58 58
60 58 58
67 58 58
60 58 58
74 59 58
83 60 58
67 60 59
67 64 64
70 69 69
74 71 70
76 72 71
72 73 73
72 71 72
74 72 72
71 72 72
74 72 72
74 72 73
73 73 73
69 68 68
62 62 62
57 58 58
58 57 57
56 57 57
56 56 57
59 57 57
58 57 58
59 59 59
59 60 60
58 59 59
57 58 59
62 60 61
56 56 58
58 57 58
56 57 58
58 57 58
58 57 59
63 57 58
57 55 55
61 58 58
70 56 57
65 57 56
63 57 58
68 59 58
87 59 56
76 58 61
65 57 59
101 58 59
75 58 58
66 60 59
76 61 59
78 60 58
81 59 58
84 59 57
76 60 58
66 60 59
72 60 59
79 61 59
79 61 59
87 60 58
73 59 58
64 59 58
75 59 57
62 59 58
62 58 58
69 59 58
76 58 57
83 58 57
73 59 57
62 59 59
65 59 59
71 62 62
76 70 69
72 72 72
74 73 72
72 72 72
71 71 71
74 72 73
72 71 71
73 73 73
72 72 72
75 73 74
72 72 72
72 72 73
64 65 65
60 59 59
57 57 57
58 58 58
57 56 57
59 57 58
56 57 57
59 59 59
58 59 60
59 59 60
58 59 59
55 57 58
56 58 58
57 58 59
57 57 58
55 57 57
56 56 57
59 56 56
60 58 59
56 55 56
59 55 56
56 55 57
60 57 57
69 58 57
73 58 57
83 58 56
85 58 57
75 59 58
103 58 59
72 59 58
110 59 56
80 60 62
88 60 57
70 59 59
112 59 61
85 60 58
102 60 61
70 60 59
78 60 60
79 60 58
68 59 58
74 58 57
78 59 57
78 59 57
76 58 56
86 58 57
114 58 58
70 59 57
81 58 56
81 59 57
74 60 58
81 65 64
72 70 70
73 73 73
73 72 72
73 73 73
73 73 73
73 72 73
72 71 71
73 71 71
72 72 72
73 73 73
74 74 74
72 72 72
71 71 71
62 61 61
55 53 55
54 54 55
53 54 55
55 55 55
58 58 58
57 58 58
56 58 58
54 57 57
54 56 57
55 57 58
53 55 56
53 55 56
55 55 56
56 57 58
57 55 57
55 54 56
60 57 57
55 54 56
69 55 59
56 56 57
71 57 57
66 58 57
75 59 57
76 56 54
88 59 58
87 60 56
81 58 57
78 59 58
102 59 59
88 59 59
85 58 55
106 59 55
93 60 57
75 58 56
98 60 57
80 60 59
87 60 57
73 60 59
81 60 58
74 59 57
89 58 56
83 58 57
78 59 57
88 58 55
106 58 54
80 58 56
86 58 57
113 58 54
85 60 58
76 69 69
77 72 71
73 73 72
72 72 72
71 71 71
72 72 72
72 71 71
70 70 70
71 71 71
71 71 71
72 71 71
72 72 72
72 72 72
71 71 72
63 64 64
57 57 57
52 54 55
48 51 52
54 55 56
53 54 55
56 57 57
55 57 58
57 57 58
51 53 55
51 53 55
53 55 56
50 51 52
52 53 55
53 55 56
61 55 59
55 55 55
57 53 54
63 55 58
56 55 56
54 54 55
57 57 58
65 58 58
72 59 57
70 57 56
98 59 57
83 59 58
93 57 60
105 60 56
97 57 55
108 59 55
122 59 54
93 58 55
99 60 56
103 59 55
110 59 57
119 60 54
81 61 58
86 61 58
88 59 56
88 58 56
85 58 56
92 58 56
96 58 55
103 58 55
102 59 55
115 58 54
119 58 53
106 59 55
99 62 58
90 68 66
77 72 71
74 73 73
73 73 72
73 72 72
75 71 70
73 71 71
72 72 72
72 69 69
73 71 73
72 71 72
74 73 73
72 73 73
70 71 71
65 64 66
50 50 51
45 49 51
48 51 52
47 49 50
53 55 55
56 58 58
56 57 58
52 54 55
53 55 56
48 51 52
49 53 54
50 52 53
51 51 53
50 52 54
51 52 54
54 55 55
53 52 54
59 56 57
58 53 54
60 55 55
58 54 55
77 59 57
72 59 58
67 59 58
75 59 57
87 59 58
91 59 58
136 57 56
78 60 59
121 58 56
116 60 54
104 58 55
93 58 56
119 58 52
101 60 55
134 61 54
92 61 56
88 59 55
101 59 56
76 58 56
79 59 56
104 58 54
124 58 54
126 58 52
174 57 49
129 58 53
151 59 50
134 58 52
134 61 55
127 70 65
101 73 70
73 72 72
71 71 71
72 72 72
74 71 71
71 71 71
72 70 70
71 71 71
74 71 72
71 71 71
71 71 72
72 70 72
65 67 68
55 57 60
40 46 48
40 44 46
29 34 37
28 34 36
26 32 35
36 41 43
40 45 47
47 50 52
45 49 51
38 44 46
38 44 46
45 47 50
42 46 48
50 51 53
49 51 53
58 53 54
53 53 53
56 56 57
65 53 54
57 56 57
59 55 57
73 59 58
63 57 56
75 58 56
86 58 58
89 57 60
107 58 54
113 59 56
107 60 56
114 58 57
111 58 55
128 57 55
121 59 58
143 59 52
154 59 51
111 60 54
109 60 54
103 60 54
76 59 57
83 58 54
94 58 54
144 58 51
255 58 46
255 57 35
255 57 32
255 58 40
255 58 44
206 58 47
196 61 48
154 69 59
145 72 66
76 73 72
72 72 72
72 72 72
71 71 71
71 70 70
71 71 71
70 70 70
71 72 72
72 71 72
71 71 71
71 70 71
59 62 64
35 43 46
32 38 41
17 26 30
5 14 19
1 10 14
1 12 17
10 18 22
19 25 29
32 38 40
33 40 43
32 39 42
33 39 42
39 44 47
46 43 49
54 49 54
48 52 53
54 53 54
54 53 54
59 51 53
60 52 53
56 54 55
59 53 57
85 59 57
68 59 57
77 58 56
74 58 57
80 58 56
108 59 55
85 59 57
94 59 55
134 59 54
135 57 52
154 58 51
143 57 51
120 58 51
149 59 50
129 59 50
102 60 54
92 59 56
79 59 56
73 58 56
105 59 55
255 58 45
255 57 30
255 56 23
255 56 20
255 57 21
255 58 28
255 58 37
197 59 48
190 66 53
187 72 59
88 71 69
72 72 72
71 71 71
71 72 72
71 71 72
73 71 72
86 68 77
107 67 86
73 70 72
68 69 69
65 65 67
48 54 57
32 40 44
10 18 22
0 10 15
0 9 14
0 10 15
0 11 16
0 9 14
2 12 17
13 21 25
19 27 31
23 32 36
29 36 40
38 41 44
40 44 46
40 44 46
56 49 55
51 49 51
77 49 61
70 54 54
63 53 55
64 56 60
74 56 64
72 59 57
80 58 56
70 57 57
71 57 56
100 57 59
100 59 57
97 58 55
108 58 54
125 58 53
139 59 52
123 59 55
167 58 48
137 57 50
142 59 51
156 60 50
143 60 51
107 59 54
78 59 56
79 58 56
239 58 50
255 56 32
255 56 21
255 56 22
255 56 19
255 55 20
255 58 20
255 60 31
203 59 46
230 62 48
156 70 58
132 69 65
68 67 69
60 60 63
68 68 70
70 70 70
65 67 70
97 66 83
119 67 91
81 69 75
62 65 65
60 61 64
39 47 50
24 33 37
6 13 17
0 9 14
0 9 14
0 10 15
0 9 14
0 10 16
0 9 14
3 12 17
11 21 26
15 25 29
19 29 33
30 35 39
38 41 44
41 45 48
45 45 49
62 47 54
57 50 52
53 53 55
52 52 53
65 55 60
68 53 59
67 58 58
71 58 56
86 58 56
103 59 56
102 59 60
109 57 55
95 58 56
94 58 56
138 58 51
131 58 53
107 59 53
106 58 52
147 58 51
163 58 47
132 59 50
149 59 50
82 59 56
83 58 55
76 58 56
255 58 45
255 57 30
255 56 20
255 56 20
255 55 21
255 54 21
255 57 19
255 58 28
255 58 41
176 56 46
147 56 49
97 67 63
61 58 62
55 57 62
63 63 66
70 71 71
65 70 70
70 67 73
84 69 78
62 65 65
52 59 59
50 57 58
38 46 48
20 28 31
4 14 18
0 9 14
0 9 14
0 9 14
0 10 14
0 11 16
0 12 18
0 9 14
7 17 22
15 24 29
13 24 29
26 33 37
34 39 43
37 42 44
39 43 45
54 47 53
55 48 52
60 49 55
63 52 55
61 53 54
61 53 58
78 59 57
68 59 59
71 59 58
93 58 55
80 58 56
117 58 58
126 59 55
128 58 55
117 58 54
102 59 54
123 58 51
117 58 51
161 58 48
150 58 48
118 58 51
152 58 50
108 59 53
88 59 55
90 58 55
255 57 44
255 56 29
255 56 20
255 56 20
255 56 20
255 50 18
255 51 20
255 55 28
255 54 42
104 41 41
52 31 36
54 43 47
54 51 56
67 61 64
70 68 69
72 70 70
71 71 73
72 70 73
67 69 69
60 64 64
55 59 59
37 45 46
21 32 32
19 28 29
10 19 20
4 11 14
0 8 12
0 8 12
0 9 14
0 9 14
0 10 15
1 10 15
7 17 22
12 24 29
18 27 32
23 32 36
32 38 40
35 40 43
44 47 49
45 48 49
50 48 52
51 50 50
59 49 53
55 52 56
61 53 57
75 59 57
76 58 56
90 59 57
95 58 55
110 59 55
75 58 59
135 58 56
125 57 52
121 57 54
110 59 53
122 58 51
148 59 50
132 56 48
131 58 50
131 58 49
116 59 50
106 60 55
78 58 56
85 58 56
179 58 52
255 57 33
255 56 21
255 56 20
255 56 19
255 53 19
255 54 23
255 57 39
149 41 40
22 21 31
17 19 29
19 21 31
38 37 43
65 65 67
76 73 73
72 73 74
77 75 74
76 74 75
70 71 72
69 70 71
56 59 60
33 41 41
21 30 30
18 27 27
16 27 26
12 21 22
2 9 13
0 9 15
0 9 14
0 9 13
1 9 13
9 17 21
14 24 29
21 30 34
17 28 32
24 33 37
29 36 40
39 41 44
51 45 51
55 49 53
60 49 56
50 49 52
63 51 56
61 53 56
69 52 61
85 57 55
90 58 55
75 58 57
82 58 60
119 57 61
102 58 54
126 58 56
111 58 54
147 57 49
142 57 51
134 57 55
151 56 49
143 57 48
129 56 49
132 58 49
103 58 53
73 59 56
77 58 56
76 58 56
90 58 54
255 58 45
255 56 28
255 56 21
255 56 19
255 56 20
255 57 31
255 57 43
85 43 42
20 19 29
17 19 29
17 19 30
32 33 41
59 57 59
74 71 71
74 73 73
74 72 72
72 72 72
70 70 70
64 65 65
54 57 58
33 39 39
17 28 27
19 27 28
19 28 28
12 22 23
4 13 17
0 8 13
0 8 15
2 10 14
6 15 19
22 29 33
28 34 38
20 30 34
19 29 34
29 36 40
32 38 42
37 43 45
45 47 50
42 45 48
53 49 53
66 49 53
65 51 54
68 51 54
57 54 56
70 57 56
78 57 56
85 58 57
81 59 57
85 57 54
97 58 56
118 58 57
108 58 54
127 59 53
146 58 50
94 59 55
124 57 50
116 56 50
114 57 54
87 58 54
77 58 55
74 58 56
86 58 55
114 58 53
129 58 50
189 58 45
255 57 36
255 57 28
255 57 27
255 56 30
255 57 39
183 59 44
108 45 42
56 26 32
16 19 29
15 18 28
37 38 43
63 59 60
67 66 66
67 67 67
62 66 66
49 60 59
52 60 60
55 59 59
52 54 56
37 41 41
25 29 32
20 25 28
24 27 31
15 25 27
9 19 23
3 14 19
3 13 18
7 18 23
12 22 26
27 35 39
31 39 42
28 35 39
28 35 38
29 37 40
36 41 44
42 45 48
43 46 48
48 46 51
49 49 51
58 51 54
55 50 54
56 53 55
52 52 54
70 57 56
67 57 56
71 58 57
97 58 58
84 58 56
92 57 55
103 58 55
124 57 52
112 59 53
105 58 55
105 58 53
73 58 55
85 58 55
70 58 57
71 58 56
66 58 57
74 58 56
91 58 55
116 58 53
124 58 49
171 58 47
172 58 44
238 57 40
194 57 39
207 58 42
182 58 45
150 57 48
102 47 45
81 37 40
30 25 34
26 29 38
53 43 47
62 59 60
65 63 63
64 63 64
46 57 57
18 45 43
22 43 50
43 54 54
53 57 57
46 48 48
255 38 127
255 25 241
255 27 134
22 30 32
16 26 30
14 25 30
9 21 26
18 28 32
19 27 33
28 36 40
32 39 42
36 41 44
37 42 45
37 42 44
46 45 46
43 45 48
44 46 49
52 50 53
56 49 55
62 52 57
51 52 53
53 52 54
61 54 56
67 58 57
59 58 58
75 58 56
80 58 61
83 58 57
79 59 56
93 58 55
102 57 54
98 58 58
77 58 56
67 58 57
71 58 56
69 58 57
69 58 57
79 58 55
70 59 57
88 58 55
73 58 56
117 58 54
104 58 53
124 58 52
168 58 48
130 58 51
181 59 47
147 57 48
169 58 50
161 53 46
98 52 50
78 44 46
51 41 45
48 45 49
48 48 52
55 55 57
61 59 61
70 60 62
37 53 52
7 40 39
9 40 39
38 51 56
57 57 58
255 45 222
255 32 255
255 15 255
255 20 255
255 34 185
32 38 40
33 39 41
31 38 41
32 39 42
32 37 40
35 40 43
36 42 45
36 42 44
45 47 50
45 49 50
46 49 51
48 50 52
51 51 53
59 50 57
53 52 54
61 52 57
61 51 54
55 52 53
59 52 54
64 59 59
69 58 57
68 58 57
78 57 56
92 58 55
72 58 57
106 59 56
75 58 57
64 58 58
65 58 57
69 58 56
68 58 57
63 58 57
64 58 58
79 58 56
87 58 55
85 58 56
115 58 54
101 58 55
117 58 52
106 58 54
153 58 51
150 59 52
152 59 51
172 58 49
145 58 52
101 55 52
116 54 51
64 52 53
53 52 54
57 51 54
53 54 56
58 56 58
59 59 60
60 62 62
46 57 56
12 44 43
25 46 47
48 56 58
56 57 56
255 50 194
255 24 255
255 8 255
255 13 255
255 37 255
42 46 48
40 44 46
44 47 49
37 41 44
41 45 47
40 44 46
45 48 49
47 50 51
46 49 50
49 52 52
48 51 52
52 53 54
52 53 55
52 54 55
52 52 54
67 53 57
65 51 55
67 53 58
64 55 56
67 56 56
72 58 56
87 59 56
84 58 56
75 58 56
69 58 57
61 58 58
62 58 58
63 58 58
61 59 58
62 58 58
70 58 57
66 58 57
76 58 56
79 58 56
67 58 57
80 59 57
105 58 55
92 58 55
91 58 56
118 58 53
114 58 54
107 58 53
124 58 53
113 58 54
97 57 54
97 57 54
98 55 53
85 57 55
78 57 56
63 56 56
61 55 57
65 58 60
59 59 60
55 58 59
56 57 58
38 54 53
42 55 54
45 54 56
55 56 58
255 47 192
255 27 255
255 9 255
255 14 255
255 32 255
53 50 54
44 46 48
44 46 48
40 43 45
46 49 50
46 48 50
46 48 49
48 51 52
48 51 52
50 52 53
50 53 53
52 53 54
56 55 56
55 56 57
64 55 60
58 54 55
56 54 54
75 51 61
62 52 55
70 58 58
67 58 58
74 58 60
63 58 58
63 58 59
66 58 57
62 58 58
64 58 57
63 58 58
63 58 58
63 58 58
75 58 56
63 58 57
77 58 57
75 58 57
73 59 57
91 58 56
87 58 56
103 58 55
106 58 55
95 59 57
105 59 56
102 59 55
99 58 55
90 57 55
81 58 56
73 57 56
102 56 54
74 56 56
77 57 56
62 56 57
58 57 58
67 59 59
57 57 58
61 59 59
56 59 59
55 58 59
53 57 57
60 56 60
69 55 65
128 52 88
255 39 186
255 25 255
255 23 255
255 41 177
67 51 61
72 52 62
52 52 54
51 50 52
51 50 52
47 49 51
48 51 52
51 52 54
51 52 53
52 52 54
56 54 56
54 55 55
58 56 56
50 52 53
57 56 58
56 56 57
56 54 57
60 56 57
73 55 64
59 57 57
59 58 58
60 58 58
61 58 59
63 58 57
61 58 58
62 57 57
67 58 57
66 58 57
62 58 58
59 59 59
66 58 58
70 58 57
79 59 57
76 58 57
97 58 55
90 58 56
70 57 57
84 58 56
91 58 55
78 58 57
95 58 56
79 58 57
100 59 56
78 58 56
91 58 55
77 57 56
72 59 58
72 58 57
73 58 56
67 59 59
64 60 60
60 57 58
59 59 59
57 57 57
63 57 60
59 58 60
59 58 60
57 58 59
84 56 70
113 53 83
179 47 111
183 43 116
183 41 114
148 44 96
96 48 71
61 49 56
60 51 56
50 52 53
53 54 55
50 52 53
52 53 54
52 54 54
51 52 53
50 51 53
55 55 57
54 55 55
53 53 54
59 57 58
54 54 55
57 56 57
57 56 57
56 57 57
60 58 59
60 58 58
59 58 58
61 58 58
61 58 58
60 58 58
62 58 57
61 58 58
64 58 57
68 57 57
66 58 57
69 58 57
62 58 57
60 58 58
87 58 56
83 59 57
75 58 57
66 58 58
76 59 56
94 58 55
87 59 56
80 58 56
63 58 57
70 58 57
84 57 56
100 58 54
79 58 57
79 58 56
84 58 56
78 58 57
61 58 58
71 56 57
63 59 59
62 58 58
58 56 56
66 58 62
65 60 60
64 58 61
58 56 59
58 57 58
66 57 62
114 56 79
92 54 74
180 49 109
143 49 95
90 50 70
107 50 78
72 54 63
72 54 62
52 53 53
51 53 54
52 54 55
53 54 55
53 53 54
53 54 55
53 55 55
55 53 55
54 55 56
54 54 54
54 54 55
53 54 55
58 56 57
56 56 57
55 55 57
58 56 58
61 58 58
62 58 58
61 58 58
63 58 59
64 57 56
61 58 58
60 58 58
64 58 57
62 58 58
62 58 58
65 58 57
68 58 57
62 58 58
63 58 58
66 58 58
65 58 58
71 58 57
79 59 56
63 59 58
68 58 58
76 59 58
70 59 58
82 58 56
72 59 57
67 59 58
75 58 57
103 59 56
72 59 57
78 59 57
63 57 57
73 58 57
60 58 58
63 59 59
63 58 58
61 59 59
76 58 61
59 59 59
60 58 60
58 57 59
69 58 63
87 55 70
91 55 71
91 57 71
86 52 70
101 52 75
94 53 71
59 53 58
52 53 54
48 51 52
56 53 56
53 53 54
53 54 55
56 55 57
56 56 57
53 54 55
55 55 55
55 56 57
54 54 55
55 55 55
54 56 56
56 55 56
56 55 57
58 57 57
57 56 57
59 58 58
62 58 57
61 58 58
62 58 57
61 59 58
60 58 58
76 59 57
68 58 57
69 58 57
62 59 58
68 58 58
69 58 57
68 58 57
81 59 57
67 58 58
72 58 57
76 58 56
69 58 57
63 58 58
81 58 56
90 58 56
63 59 58
70 58 57
64 58 57
83 57 54
74 58 57
65 59 58
64 58 58
63 58 57
75 57 58
80 58 61
62 58 59
62 59 59
59 58 58
57 58 59
57 59 59
56 58 58
61 57 61
58 56 58
64 59 59
82 56 67
86 55 69
78 55 66
85 54 69
96 54 72
76 53 65
63 54 57
63 53 59
56 55 55
63 56 59
53 53 54
55 55 56
53 55 55
57 55 56
55 56 56
56 56 56
51 53 54
57 57 57
58 55 56
55 56 56
55 56 57
56 57 57
60 57 58
58 57 58
63 58 58
62 58 58
61 58 58
62 58 58
61 58 59
61 58 58
59 59 59
63 58 58
74 58 57
61 58 58
61 58 58
76 58 57
79 58 57
60 58 58
79 59 57
65 58 57
61 58 58
69 58 56
77 59 57
66 58 57
81 58 57
72 58 57
64 59 58
80 58 56
67 58 57
72 58 57
82 58 56
62 58 58
64 58 57
72 58 57
66 59 58
61 59 59
69 57 58
60 58 58
60 58 59
69 58 59
60 58 58
75 59 65
75 57 64
69 56 62
73 58 65
67 55 62
81 55 68
62 58 61
93 55 71
86 54 68
61 56 59
73 56 64
55 55 56
52 52 54
57 56 57
54 55 55
61 54 58
53 54 55
57 56 57
56 56 56
58 57 57
54 55 56
56 56 56
55 56 56
56 57 57
57 57 57
57 56 57
57 55 57
66 58 57
61 58 58
68 58 57
61 58 58
70 58 57
69 58 57
67 58 58
67 58 58
63 58 58
63 58 58
63 58 58
68 58 58
73 58 57
68 58 57
84 58 57
71 58 57
74 58 57
75 58 57
72 59 57
69 59 58
67 59 57
83 58 57
66 58 57
67 58 56
72 58 57
70 59 58
77 58 57
81 58 57
77 58 57
69 59 59
69 57 57
65 58 58
60 59 59
64 57 57
64 57 58
59 57 58
65 57 58
66 57 61
72 56 64
65 57 61
90 57 68
72 57 65
81 55 66
72 54 63
62 54 60
65 55 60
54 55 56
64 55 60
59 56 58
63 56 59
56 56 57
55 55 56
66 57 61
57 56 56
55 54 55
56 56 57
56 56 56
55 56 56
56 56 56
55 56 56
61 57 59
58 56 58
57 56 56
58 57 57
62 58 58
59 58 58
63 58 57
61 59 58
59 58 58
63 58 57
60 58 58
60 58 58
69 59 58
73 58 57
63 58 58
63 58 57
75 58 57
73 58 57
62 58 58
72 58 57
64 58 57
72 58 57
62 57 57
62 58 58
82 59 57
64 58 57
65 58 57
72 58 57
82 58 56
67 58 56
79 58 57
74 58 58
71 58 58
59 58 58
70 58 57
80 58 58
86 57 56
63 58 58
67 60 59
74 57 65
79 58 66
61 58 58
91 57 71
75 57 65
68 57 61
71 57 64
81 56 67
72 55 64
58 57 58
59 57 59
63 55 59
75 54 64
64 53 59
53 53 54
66 55 61
53 54 55
54 55 56
54 55 56
58 57 58
57 58 58
55 56 56
59 57 58
59 58 58
55 56 56
58 57 57
56 56 57
57 56 57
58 57 58
71 58 58
61 58 58
65 58 58
59 58 58
62 58 58
67 58 57
60 58 58
63 58 57
63 59 58
61 58 58
74 58 57
61 59 59
64 58 58
67 57 56
72 58 57
69 58 59
66 58 57
67 58 58
80 58 56
66 58 57
77 58 56
62 58 57
65 58 58
72 58 56
95 58 56
75 58 57
75 57 57
72 58 57
72 58 57
81 58 61
65 58 59
67 59 58
66 58 61
64 58 58
62 58 60
67 57 60
74 58 62
67 56 61
61 58 60
62 57 57
83 56 68
64 57 61
73 56 64
58 56 57
71 56 62
74 55 64
57 55 57
58 57 58
54 55 56
59 55 58
62 56 58
63 55 59
56 56 56
56 55 56
65 57 60
58 58 58
56 56 57
55 56 56
58 57 57
57 58 58
56 56 57
56 57 57
56 56 57
57 56 57
59 58 57
61 58 58
58 58 58
62 58 57
67 59 58
78 58 57
63 59 58
60 59 58
60 58 59
66 58 58
68 58 57
61 58 58
68 58 58
60 58 58
72 58 57
65 59 57
78 58 57
68 58 58
66 58 58
74 58 56
78 58 57
87 58 56
71 58 57
62 58 58
73 57 56
68 58 58
73 59 58
72 59 58
68 59 59
75 58 57
69 57 57
85 59 57
74 59 58
62 59 60
64 58 58
58 57 58
64 57 56
65 57 58
63 55 59
70 56 60
75 56 65
67 55 62
57 58 59
70 55 63
60 57 59
57 57 57
58 56 58
60 56 57
66 55 61
63 56 60
75 55 64
67 57 60
57 56 58
59 56 59
55 55 55
56 57 57
57 57 57
53 54 55
55 56 56
55 56 56
57 56 58
60 57 58
56 57 57
56 57 57
62 58 58
59 58 58
62 58 58
62 58 58
71 58 58
70 58 57
69 58 57
63 58 58
63 58 58
61 58 58
89 58 56
62 58 58
79 58 57
60 59 58
63 58 57
74 59 57
75 59 58
67 59 58
62 58 58
78 58 57
70 58 58
61 59 59
69 59 58
66 58 57
74 59 58
82 58 57
69 57 56
67 58 57
59 57 57
66 58 58
71 58 58
65 58 58
67 58 58
71 58 58
60 58 58
67 58 60
68 57 58
65 59 58
77 58 64
74 56 61
75 56 65
58 58 59
67 58 61
64 57 60
57 57 57
69 57 63
65 55 59
69 57 63
66 58 61
63 56 60
66 57 61
54 55 56
59 57 58
55 56 56
57 56 56
57 57 57
55 56 56
57 56 57
57 56 57
57 57 57
56 57 57
58 57 57
59 59 59
57 56 57
58 58 58
61 58 58
61 58 58
59 58 58
64 58 58
72 58 57
62 58 58
70 58 57
61 58 57
70 58 58
68 58 57
61 59 58
75 58 57
77 58 58
66 58 58
69 59 58
76 58 57
64 58 57
78 58 57
66 59 58
81 59 57
77 58 57
72 58 57
76 58 57
65 58 58
71 58 57
68 57 57
66 59 59
59 57 57
79 59 57
78 58 57
66 58 58
72 58 58
68 57 60
72 58 61
60 58 57
60 58 59
71 57 56
65 57 61
66 57 58
64 54 59
77 57 65
58 58 59
58 58 59
67 55 61
59 57 59
80 55 65
72 56 63
59 56 57
60 56 59
79 55 65
58 57 57
57 56 57
60 56 59
58 57 58
67 56 62
57 57 57
57 57 58
58 57 57
57 57 57
55 56 56
55 56 56
59 57 57
55 56 56
59 58 58
61 58 58
66 58 57
62 58 57
66 58 58
69 58 57
63 58 57
79 59 57
68 58 57
75 58 57
73 59 57
65 58 58
67 58 57
87 58 56
74 58 57
67 59 59
63 59 58
78 58 57
84 58 56
70 58 57
67 58 58
85 58 57
73 59 58
65 58 58
61 59 59
59 58 58
88 58 55
62 59 59
69 57 56
60 58 58
75 57 64
72 58 58
61 58 58
68 57 57
88 58 63
73 58 61
71 56 61
65 57 57
66 57 60
74 56 64
63 57 57
65 58 59
59 58 59
60 58 60
56 57 57
67 58 62
63 57 57
61 58 58
59 58 59
58 56 57
65 57 60
55 56 57
57 57 57
56 57 57
62 57 58
65 57 60
57 56 56
56 56 57
57 57 57
59 58 58
58 56 57
56 55 56
58 56 57
59 57 58
71 58 57
59 58 59
60 58 58
67 58 59
66 58 57
65 58 58
63 58 58
62 59 58
61 58 58
61 58 58
61 59 58
66 58 57
66 58 58
73 58 57
69 58 57
59 58 59
63 58 59
60 58 58
73 58 57
61 58 58
61 58 58
63 59 58
60 59 59
65 59 58
64 58 58
60 59 59
78 59 58
65 58 58
61 58 58
73 58 59
60 58 58
67 58 57
70 59 59
65 57 57
66 56 61
62 58 59
69 57 61
56 57 57
58 56 58
66 57 61
64 57 61
60 57 58
61 56 56
59 56 58
57 56 57
58 57 58
66 57 61
61 57 59
61 57 60
58 56 57
60 59 58
61 56 60
65 57 61
57 56 57
56 57 57
58 58 59
56 57 57
56 57 57
58 57 58
58 58 58
55 56 57
57 57 57
58 57 57
57 57 58
67 58 57
67 58 57
61 58 58
63 58 58
71 58 57
65 58 57
66 58 58
61 58 58
60 58 58
74 58 57
67 58 57
74 58 56
65 58 57
68 58 57
61 58 58
62 59 58
63 58 58
76 58 57
61 58 58
62 58 58
69 59 58
62 58 57
70 58 57
72 58 57
74 57 57
59 59 59
72 58 57
72 58 57
67 59 59
71 58 58
57 57 57
64 58 58
74 58 61
71 59 60
68 57 58
75 58 57
62 58 57
71 58 61
65 58 58
65 59 59
63 57 57
73 56 60
56 56 58
58 56 57
62 58 60
73 56 63
59 57 59
56 57 57
58 56 57
58 57 57
75 56 63
60 58 59
64 56 59
69 55 59
59 56 58
66 56 59
65 57 61
65 56 61
78 55 65
57 57 57
57 56 56
58 57 57
59 59 59
57 57 57
64 58 58
73 58 57
69 58 57
61 58 58
64 58 58
67 59 58
59 59 59
63 58 57
65 58 57
71 58 57
68 58 57
58 58 58
74 59 58
65 58 58
67 58 57
68 58 57
71 58 57
67 57 57
72 58 59
84 58 57
77 58 57
73 59 58
60 58 58
74 58 57
59 58 58
61 58 58
74 58 57
68 58 57
71 59 58
64 58 58
75 58 57
58 57 57
72 57 57
77 58 58
62 58 59
68 58 59
63 57 59
58 58 59
57 56 56
59 58 58
72 55 60
74 56 60
64 58 58
62 55 59
79 57 64
57 56 58
74 56 63
60 58 59
57 56 57
56 57 57
58 58 58
57 56 57
59 57 58
60 58 59
57 57 58
61 57 59
58 57 57
58 58 58
64 57 60
67 57 60
56 57 57
59 58 58
59 58 58
60 58 57
72 58 57
61 58 57
71 58 57
58 58 58
60 59 58
66 58 58
61 58 58
61 58 58
61 58 58
67 58 58
72 58 57
60 59 59
71 58 58
66 58 58
63 58 57
61 59 59
72 58 58
65 58 57
63 58 58
75 58 58
66 58 58
67 58 57
73 58 57
73 58 57
66 58 58
62 58 57
59 57 59
67 58 57
59 58 58
66 58 57
73 58 61
66 56 56
67 58 62
90 58 56
66 58 57
68 57 58
63 57 57
62 57 58
58 56 56
62 57 56
64 55 56
59 57 57
59 55 57
60 58 58
72 57 57
57 56 56
57 57 57
59 57 57
67 57 60
58 57 58
65 57 57
58 58 58
57 57 57
69 58 57
57 57 57
67 57 61
63 56 60
56 56 57
58 57 57
65 58 61
58 58 58
70 57 61
58 57 58
56 57 57
68 58 57
61 58 58
59 59 59
69 59 58
64 59 58
60 58 58
72 58 57
67 58 58
73 59 58
73 58 57
58 59 59
72 58 59
58 58 58
66 57 58
66 58 58
63 59 58
73 58 57
71 58 58
66 58 58
66 58 58
63 58 59
74 58 60
83 58 56
66 58 58
68 58 57
60 59 59
67 57 58
68 59 58
71 57 57
65 57 58
62 58 57
64 58 57
67 59 58
68 57 58
70 58 57
65 57 58
86 57 58
67 57 61
58 58 58
60 57 57
60 58 58
58 58 58
66 57 61
68 58 62
64 56 60
67 57 60
60 59 59
57 57 58
59 57 57
61 59 60
58 57 58
66 56 61
56 56 57
58 58 58
59 57 57
55 56 56
58 58 58
59 58 58
64 56 60
58 57 57
57 58 58
61 57 60
58 57 57
58 58 58
68 58 57
66 59 58
61 58 58
60 58 58
63 58 58
59 58 58
62 58 58
60 58 58
60 58 58
61 58 57
67 58 57
61 58 58
83 58 58
73 58 58
74 58 57
59 59 59
68 59 58
69 59 58
74 58 57
77 58 56
64 58 58
75 58 58
76 58 57
75 58 57
76 58 57
72 59 59
58 58 58
59 59 59
71 58 57
59 58 58
61 58 58
75 57 57
60 58 58
78 57 60
87 58 60
63 58 59
63 58 58
59 57 58
74 58 60
70 57 61
58 56 56
56 56 57
69 57 60
65 57 56
78 57 64
56 56 57
59 58 58
67 56 58
57 57 57
58 58 58
60 57 58
59 58 59
59 55 57
58 58 58
59 56 57
60 57 58
57 57 57
58 57 58
57 57 57
58 58 58
58 57 58
61 58 58
65 57 58
59 58 58
63 58 57
75 57 56
63 58 58
66 58 58
65 58 58
59 58 58
70 58 57
59 58 58
60 58 58
65 58 57
80 58 57
61 58 59
61 59 58
59 59 58
76 58 57
62 59 58
66 58 58
68 58 58
58 59 59
66 58 58
72 58 57
77 58 57
60 58 58
66 58 58
61 59 59
60 58 59
58 58 58
68 58 59
67 58 58
60 58 58
62 58 57
73 58 62
61 58 58
62 58 59
61 57 58
65 58 59
64 57 58
63 56 57
65 57 58
60 58 59
64 57 57
65 57 61
76 57 64
58 57 57
68 58 61
65 58 58
57 58 58
57 57 58
56 55 56
56 57 57
59 57 57
59 57 57
56 57 57
56 56 57
57 57 58
71 58 61
63 56 57
58 57 57
57 57 57
61 57 59
57 57 57
58 57 58
59 58 58
58 58 58
