P3
# Rays 2018
64 64
255
58 59 59
58 58 58
60 58 60
57 59 59
58 58 58
58 59 59
58 59 59
58 59 59
55 66 63
57 60 59
56 62 61
57 59 58
57 62 61
56 62 61
55 67 64
55 62 61
55 63 62
55 65 63
58 62 61
56 61 60
58 63 62
57 60 59
57 63 62
57 62 61
58 62 61
57 64 63
62 59 63
59 61 62
57 62 61
57 62 61
57 61 60
57 62 61
58 63 63
57 60 60
59 59 60
57 59 59
57 57 58
57 58 58
57 56 57
60 58 60
59 54 58
58 58 58
57 59 59
60 58 61
59 57 58
59 57 58
60 55 58
60 56 59
59 58 59
57 55 56
58 55 56
58 57 58
58 57 58
58 54 57
66 55 65
58 56 57
58 56 57
57 56 57
58 59 59
57 57 58
58 58 58
58 58 58
59 58 58
58 58 58
58 58 59
58 59 59
57 60 59
58 58 59
58 59 59
58 57 58
57 59 59
58 61 60
57 61 60
56 62 61
58 58 58
57 60 59
57 61 60
56 63 61
56 63 61
57 60 60
55 64 62
57 61 60
55 64 62
57 62 61
57 64 64
56 64 63
56 63 62
57 63 63
57 63 62
57 62 61
56 64 64
58 61 60
58 63 62
59 61 62
65 58 67
57 56 58
66 60 69
67 58 69
57 63 62
59 58 60
58 58 59
60 59 61
60 60 60
57 57 58
58 55 57
59 58 60
56 57 58
59 55 58
60 55 59
59 57 58
58 59 59
57 55 56
59 55 58
58 56 57
59 58 59
58 55 56
59 57 59
59 54 57
58 55 56
58 56 57
58 57 57
58 57 57
58 58 58
58 57 58
58 59 59
58 58 59
58 58 58
58 58 58
58 59 59
59 59 59
58 59 59
59 59 59
58 59 59
58 58 58
57 59 59
57 60 60
58 60 59
57 62 61
56 61 60
56 62 61
58 60 61
56 61 60
58 62 63
55 65 63
56 65 63
56 65 63
58 64 62
58 60 59
57 63 63
58 61 60
57 61 60
61 60 62
58 60 60
65 63 71
59 62 63
55 67 64
58 62 63
59 62 62
58 60 60
58 58 59
59 61 64
59 61 62
57 60 61
58 62 61
59 58 60
58 60 60
61 59 61
58 55 57
68 59 70
58 57 58
66 57 67
58 56 57
60 59 61
59 57 58
58 55 56
58 54 56
58 57 58
58 54 56
58 56 57
59 56 58
58 56 57
57 54 55
59 57 59
58 56 57
59 57 59
59 58 58
58 58 58
58 58 58
57 59 59
58 59 59
59 59 59
58 58 58
59 59 59
58 58 58
58 58 58
58 60 59
58 59 59
58 58 59
58 58 58
58 58 58
59 59 60
57 62 60
58 61 60
56 63 61
57 61 61
57 62 62
58 61 62
55 64 62
56 63 61
57 62 61
56 61 60
55 65 63
56 61 60
57 65 63
64 61 70
57 63 62
57 62 61
56 63 61
55 66 63
61 62 65
59 63 64
74 62 80
60 60 62
59 61 61
58 61 60
60 60 63
58 63 62
59 59 60
64 60 69
66 62 70
67 55 67
61 57 61
60 58 60
62 59 62
59 57 58
67 57 68
60 59 61
60 57 60
60 59 59
58 57 58
59 58 58
57 55 56
60 56 59
59 57 58
59 55 58
58 57 58
58 59 59
58 57 57
59 58 58
58 56 57
59 59 59
58 58 58
58 58 58
58 58 58
59 59 59
58 58 58
57 58 58
58 59 59
59 59 59
58 59 59
58 59 59
58 59 59
57 59 59
58 59 59
57 59 59
59 59 59
58 58 58
53 65 63
56 62 61
57 62 62
55 63 62
56 61 60
55 64 62
56 61 60
55 64 62
58 59 60
56 63 62
57 63 62
58 64 64
56 62 61
59 62 63
58 62 62
57 62 61
56 63 62
58 59 59
59 61 61
58 60 60
57 61 60
59 62 63
59 60 61
57 61 60
60 58 60
57 58 59
58 58 58
60 59 60
62 57 61
58 55 57
58 57 58
59 56 57
60 59 60
59 57 58
59 57 57
61 57 61
60 57 59
59 57 58
58 57 58
57 56 57
60 56 59
58 56 57
58 57 58
58 58 58
58 58 58
58 58 58
58 59 59
59 58 58
58 58 58
58 59 59
59 58 59
58 58 58
59 59 59
58 58 58
57 60 60
58 59 59
58 58 58
59 59 59
58 58 58
58 59 59
58 59 59
58 59 59
58 59 59
60 59 60
58 60 60
56 62 61
55 64 62
55 64 62
57 60 60
56 61 60
57 61 61
56 61 60
56 62 61
56 65 62
58 65 65
57 64 63
56 61 60
58 60 60
58 60 60
56 63 62
55 66 64
65 60 69
58 60 60
56 62 61
65 61 70
57 64 63
66 60 69
59 62 62
57 60 61
60 59 59
58 58 58
59 61 61
57 57 58
61 58 61
59 59 60
57 61 60
58 56 57
59 57 58
59 58 59
58 55 56
65 55 66
58 56 57
58 55 57
59 56 58
58 58 58
61 53 59
56 55 56
58 58 58
58 58 58
58 58 58
58 58 58
58 58 59
58 58 58
59 58 58
59 58 59
58 59 59
58 59 59
58 58 58
58 59 59
61 58 61
58 59 59
58 58 58
58 58 58
58 60 59
57 58 58
58 58 58
57 60 60
58 59 59
59 58 58
57 61 60
56 62 61
57 65 64
57 60 60
55 63 61
55 64 62
57 61 60
56 62 61
56 61 60
57 60 60
58 63 63
57 61 60
56 67 64
57 61 60
59 63 62
59 62 61
57 62 62
58 64 63
59 61 61
59 65 63
57 62 61
60 62 61
58 62 62
65 62 71
59 60 60
59 57 59
59 61 61
59 58 59
57 56 57
59 56 57
59 58 59
59 58 59
57 56 57
58 56 57
59 57 57
58 56 57
59 57 58
59 58 58
58 55 57
58 54 56
58 56 57
58 57 58
58 58 58
58 58 58
58 60 59
58 58 59
58 58 58
57 57 57
60 58 60
59 58 59
59 58 60
58 59 58
59 58 59
59 59 61
58 59 59
58 61 60
59 59 59
57 58 58
60 58 60
58 60 59
58 59 59
58 59 59
59 58 58
59 59 59
57 60 59
57 60 60
55 67 64
56 61 60
57 59 59
55 64 62
55 63 61
56 60 60
57 61 60
54 66 63
57 62 61
58 63 62
59 62 63
56 65 63
58 68 65
59 62 62
58 62 61
58 63 62
64 65 72
58 65 63
58 62 61
59 58 60
59 59 60
59 60 60
58 59 60
58 59 59
59 56 58
58 57 57
60 58 59
60 61 61
58 56 57
59 58 59
57 55 56
58 56 57
59 56 57
61 57 60
58 57 58
59 56 58
60 57 60
59 57 59
59 57 59
58 56 57
58 58 58
59 58 60
59 58 58
59 58 58
58 59 59
59 59 59
58 59 58
58 58 58
58 60 60
60 59 62
58 60 60
58 58 58
58 58 58
58 59 59
59 58 59
58 59 59
58 58 58
57 59 59
58 59 59
58 59 59
59 59 60
58 59 59
59 60 61
57 60 59
57 61 60
56 61 60
56 62 61
57 62 61
56 63 62
58 60 60
56 63 62
55 65 63
54 65 62
58 62 62
55 68 65
58 62 61
57 64 62
56 67 64
59 67 66
59 63 63
58 65 63
60 59 59
58 60 59
58 60 60
65 63 71
59 61 61
58 58 58
58 63 62
59 57 58
60 57 58
58 61 60
59 58 60
59 57 58
59 57 58
59 56 58
66 57 67
58 59 59
57 54 56
58 56 57
58 57 57
58 57 58
59 58 59
58 58 58
59 58 58
58 58 58
58 57 57
58 59 59
60 58 60
59 58 60
58 59 59
58 59 59
58 59 59
58 58 58
59 59 59
58 60 59
58 58 58
58 59 59
59 59 59
59 59 59
59 58 59
58 59 59
58 58 58
58 60 59
58 60 59
59 59 59
58 59 59
58 60 59
59 59 59
58 60 59
57 61 60
55 64 62
55 64 62
57 61 60
56 61 60
54 66 64
56 64 62
58 61 61
57 63 62
57 67 66
57 64 62
58 63 62
56 65 63
56 64 62
57 64 63
58 65 63
58 60 60
58 62 61
57 62 61
59 60 61
60 64 63
60 60 62
60 63 64
60 61 62
60 59 60
60 56 59
57 59 59
58 56 57
59 56 57
58 56 57
60 57 59
59 57 58
58 54 56
58 58 58
57 54 56
58 58 58
58 58 58
59 58 60
58 59 59
58 59 59
58 58 58
59 58 59
58 59 59
58 59 59
59 59 59
58 59 59
59 59 59
58 59 59
58 58 58
59 58 58
58 59 59
58 58 58
59 59 59
59 57 58
57 59 59
59 58 59
59 59 59
59 58 58
59 59 59
58 59 59
58 59 59
58 60 59
60 59 60
58 59 59
57 61 60
57 62 61
56 64 62
56 63 61
56 64 62
58 59 59
56 66 63
57 64 62
57 63 62
58 61 60
55 69 65
60 63 63
58 64 64
57 65 63
59 61 61
56 68 65
59 63 62
58 69 66
57 62 61
58 62 61
60 61 61
59 58 58
60 59 59
60 60 60
60 59 59
58 55 57
58 55 57
58 55 57
58 56 57
66 56 66
59 58 59
59 56 58
57 55 56
58 56 57
58 56 57
58 58 59
59 58 59
58 58 58
58 58 58
58 59 59
58 58 58
58 58 58
59 59 59
58 59 59
58 59 59
58 58 58
58 59 59
58 59 59
58 60 59
58 59 59
60 58 60
59 58 58
59 59 59
58 60 59
59 59 59
59 58 59
58 59 59
58 58 58
59 59 59
58 58 58
65 59 68
59 59 59
59 58 58
58 59 59
58 60 59
58 59 59
56 61 60
57 62 60
57 61 60
58 59 59
56 64 62
56 63 62
57 63 62
57 63 61
57 64 62
53 70 66
57 60 60
60 62 62
61 60 61
58 61 61
59 61 61
59 62 62
59 61 61
58 64 63
58 65 63
59 59 59
60 59 59
60 58 60
58 58 59
60 57 60
59 58 58
59 58 59
58 55 56
59 57 58
59 57 58
58 56 57
58 56 57
58 57 58
59 58 58
58 57 58
58 59 59
58 59 58
58 59 59
59 58 58
59 59 59
58 57 58
59 58 59
59 58 59
59 58 59
58 59 59
58 60 60
59 58 60
59 58 58
59 59 60
58 62 61
59 58 58
58 60 60
59 58 59
58 58 58
59 59 59
58 59 59
60 58 60
58 60 60
58 59 59
59 58 60
59 59 59
59 59 59
58 60 59
58 58 58
58 58 58
58 59 59
56 61 60
58 58 58
57 59 59
56 64 62
57 62 61
58 60 60
58 59 59
57 60 60
56 62 61
59 60 61
57 62 61
57 61 60
57 64 62
59 59 59
59 59 59
60 60 60
58 60 60
59 60 60
59 58 59
58 58 58
59 59 59
59 57 58
60 58 61
58 57 58
59 57 59
59 60 60
59 57 58
58 57 57
58 57 57
58 57 57
59 58 58
58 58 58
58 59 59
59 59 59
58 58 58
59 59 59
58 59 59
58 59 59
59 59 59
58 59 59
59 58 58
58 57 58
58 58 58
58 59 59
56 60 60
58 58 58
61 59 61
59 59 59
60 59 60
59 60 61
59 60 60
58 61 60
59 59 59
59 59 59
59 59 59
58 59 59
59 59 59
59 59 59
59 58 59
59 58 58
60 58 60
58 59 59
59 59 59
58 58 58
58 59 59
57 59 59
57 59 59
58 59 59
58 58 59
58 59 59
57 60 59
57 59 59
58 58 59
58 58 58
57 59 59
58 59 59
59 59 59
66 59 68
58 58 59
58 58 58
58 59 59
58 58 59
58 60 60
59 59 59
59 58 59
58 60 60
59 58 58
58 57 58
59 58 58
58 58 58
58 58 58
58 58 58
58 58 58
59 59 60
58 58 58
59 58 59
58 59 59
59 59 59
58 58 59
58 59 59
58 58 58
59 58 60
58 59 59
58 60 59
58 59 59
58 58 59
58 59 59
59 59 59
57 59 59
57 61 61
58 59 59
59 59 59
59 58 58
58 59 59
66 60 69
60 58 60
60 58 60
58 59 59
58 59 59
58 59 59
58 59 59
58 59 59
60 59 60
60 59 60
59 58 58
58 59 59
57 59 59
58 59 59
58 59 59
58 58 58
58 59 59
58 58 59
58 58 58
58 59 59
59 59 59
57 60 60
58 60 59
56 61 60
58 59 59
58 58 58
58 58 58
58 59 59
57 59 59
58 58 58
58 59 59
59 58 58
59 58 60
59 58 60
59 58 59
58 59 59
58 57 58
58 59 59
58 57 58
59 56 59
58 57 58
58 58 58
58 58 58
59 59 59
58 59 59
59 58 59
58 59 59
58 59 59
58 58 58
59 59 59
59 59 60
59 59 59
59 59 59
57 59 59
58 58 58
59 59 59
59 59 59
59 59 59
59 59 60
58 61 60
58 59 59
59 60 60
59 58 59
57 58 58
58 58 59
58 61 60
59 58 59
59 58 59
59 59 59
59 59 59
66 59 68
58 59 59
58 59 59
58 59 59
59 59 59
58 58 59
59 59 59
58 58 58
58 58 58
58 59 59
58 59 59
58 59 59
58 59 59
58 59 58
57 61 60
58 58 58
58 59 59
58 58 58
58 59 59
57 60 60
58 59 59
58 58 58
58 59 59
58 58 58
59 59 59
57 60 59
58 59 59
58 58 59
58 58 58
58 58 58
58 57 57
58 58 58
59 58 58
58 58 58
58 58 58
58 57 58
58 58 58
58 58 58
58 58 59
58 58 58
59 59 59
59 59 59
59 59 59
58 58 58
58 59 59
59 59 59
59 58 58
58 60 60
59 59 59
59 58 59
59 60 60
60 58 59
58 60 60
58 58 59
67 58 68
58 62 61
59 60 60
60 59 60
59 59 59
59 59 59
59 59 59
59 60 59
58 58 59
58 60 60
58 59 59
59 59 59
58 60 60
59 59 59
60 59 60
58 59 59
58 60 60
57 59 59
60 58 60
58 59 59
58 59 59
58 59 59
58 59 59
58 59 59
57 59 59
58 58 58
58 59 59
59 58 60
58 57 58
58 59 59
58 59 59
57 59 59
57 60 60
58 60 60
59 58 58
58 60 60
58 59 59
58 58 58
57 58 58
58 58 58
59 58 60
59 58 58
59 58 60
59 58 58
58 58 59
58 58 58
58 58 58
58 59 59
58 58 58
58 58 58
59 59 59
59 59 60
58 59 59
59 59 59
58 59 59
60 58 60
58 59 59
58 60 60
58 59 59
59 59 59
59 59 59
58 58 58
58 60 60
59 59 59
59 60 60
59 58 59
59 59 59
58 58 59
58 59 59
59 60 60
59 58 59
58 60 60
61 59 61
60 60 60
58 59 59
59 60 60
59 60 59
59 59 59
58 59 59
58 58 58
58 59 59
59 58 59
58 59 59
59 59 59
58 59 59
58 60 59
58 58 58
57 59 59
58 59 59
58 59 59
58 57 58
58 58 58
58 58 58
59 58 59
58 58 58
58 59 60
58 60 60
58 58 58
58 59 59
59 58 58
58 59 59
58 59 59
58 59 59
57 59 59
66 58 67
58 58 58
59 58 59
58 58 58
58 58 58
59 58 59
58 58 58
58 58 58
59 59 59
58 59 59
58 58 59
59 59 59
59 60 60
59 60 60
66 59 69
59 59 59
60 59 59
59 60 60
59 61 60
60 60 60
59 59 60
59 59 59
59 58 59
58 59 59
59 58 59
67 60 69
60 61 61
59 58 60
58 60 60
58 59 59
61 60 61
59 60 60
59 60 60
60 59 61
59 59 60
59 59 59
59 58 59
59 60 60
65 58 68
59 60 60
58 58 58
58 59 59
58 58 59
58 58 58
58 59 61
58 58 58
58 59 59
58 59 59
58 60 59
57 60 60
58 59 59
58 59 59
57 58 58
58 58 59
57 58 58
58 58 58
57 59 59
58 59 59
58 59 59
58 58 58
58 59 59
60 58 60
60 58 60
58 58 58
58 57 58
58 58 58
58 58 58
58 58 58
58 58 58
58 58 58
58 58 58
58 59 59
58 57 58
60 59 61
58 59 59
58 59 59
58 58 59
59 60 60
60 60 60
58 58 58
59 58 59
59 60 60
59 60 60
59 59 59
59 58 59
59 59 60
58 59 59
58 58 58
60 59 61
59 58 59
58 60 60
59 58 59
58 60 60
59 58 59
68 60 71
59 59 60
58 59 59
58 61 60
61 60 61
60 60 61
58 60 60
59 59 59
59 59 59
59 59 59
59 58 59
59 60 61
58 59 59
58 58 58
57 60 60
58 59 59
58 60 59
59 58 59
58 58 58
58 58 58
58 59 58
59 58 58
58 59 59
59 59 59
58 58 58
58 58 58
58 58 58
59 58 59
58 59 59
58 60 59
58 59 59
58 58 58
58 57 58
59 59 59
58 58 59
58 57 58
58 58 58
59 59 59
60 58 60
58 58 58
58 58 58
58 58 58
59 58 59
59 58 59
59 60 59
59 60 60
60 59 59
60 60 60
60 60 60
60 60 60
59 59 59
59 59 60
59 59 59
58 58 58
58 58 58
59 60 60
58 59 59
59 59 59
60 60 61
58 62 61
66 60 69
58 60 60
59 61 61
59 61 61
59 59 60
61 60 61
58 60 60
58 60 60
59 60 60
60 62 62
58 59 59
59 60 60
58 60 60
60 60 60
59 62 61
58 59 59
58 59 59
58 60 59
58 59 59
58 59 59
58 58 58
58 59 59
58 58 58
58 59 59
58 60 59
58 59 59
57 58 59
60 58 60
58 60 59
57 58 58
58 59 59
58 58 58
58 59 59
58 60 59
58 57 58
59 58 59
58 59 59
59 58 59
60 59 60
60 59 60
59 58 58
58 59 59
58 58 58
58 58 58
58 57 58
59 58 59
58 58 59
59 60 60
60 59 60
60 59 60
61 58 60
60 60 60
60 59 59
59 60 60
58 59 59
61 59 61
60 60 61
59 58 58
60 59 61
60 59 60
59 60 60
58 59 60
58 59 60
61 59 61
57 61 60
58 61 60
61 60 61
66 61 70
58 62 61
61 61 64
59 60 60
59 61 61
61 62 62
59 61 61
59 60 59
60 61 60
60 62 62
59 61 60
59 59 59
58 60 60
57 59 59
59 58 58
58 58 58
57 59 58
58 59 59
58 60 59
57 59 59
58 59 59
58 59 59
59 60 60
58 59 59
57 61 60
59 59 59
58 60 60
59 58 59
59 58 58
58 59 59
59 58 59
58 59 59
59 59 59
58 58 58
58 60 60
58 58 58
58 58 59
58 59 59
58 58 58
60 58 60
58 58 58
58 58 58
59 58 58
59 59 59
59 60 60
60 59 60
60 59 59
60 60 60
61 59 61
59 60 60
59 59 59
60 60 60
59 60 60
60 59 60
60 60 61
60 59 61
58 60 60
58 58 59
58 61 60
61 59 62
59 59 61
65 62 71
58 59 60
59 59 59
58 61 60
60 62 61
59 61 60
60 61 62
59 60 61
58 62 61
60 63 63
60 60 60
60 61 61
60 60 60
59 61 61
59 60 60
58 61 60
58 60 60
58 60 59
59 58 59
56 62 60
58 59 59
58 58 58
66 59 68
58 60 59
58 59 59
58 59 59
57 60 59
59 60 61
58 59 59
58 59 59
58 59 59
57 61 60
59 59 59
59 59 59
59 59 59
59 58 59
58 58 58
59 58 59
58 59 59
58 58 58
59 58 58
59 58 59
60 57 59
58 58 58
60 57 59
59 58 59
60 60 60
60 60 60
60 60 60
60 60 60
60 60 60
59 59 60
60 60 60
61 59 61
61 59 61
59 58 59
59 59 61
61 57 61
59 58 58
59 57 58
59 60 60
60 59 60
58 58 60
58 59 59
59 61 61
60 59 60
65 61 69
59 63 62
58 60 60
60 60 60
57 61 61
59 61 61
60 62 62
62 61 64
61 61 62
58 62 62
58 60 60
58 62 61
59 64 63
57 60 60
58 59 59
58 60 59
57 60 60
58 58 58
57 60 60
57 60 59
58 59 59
58 59 60
57 60 60
58 58 58
58 59 59
58 58 58
58 60 59
60 60 60
61 59 61
60 61 61
60 61 61
61 60 61
60 61 61
60 60 60
60 59 60
58 58 58
58 58 59
58 57 58
59 59 59
58 56 57
66 57 67
58 58 58
58 57 57
59 59 59
59 59 59
60 60 60
60 59 60
60 58 59
60 60 60
61 60 60
60 59 59
59 59 60
61 59 61
59 60 60
59 59 60
58 58 58
59 60 60
58 58 59
59 57 60
57 60 60
58 58 60
59 62 61
58 62 63
57 61 60
58 60 60
59 62 62
59 61 62
57 64 63
59 60 61
58 62 61
59 63 62
59 63 63
58 64 63
58 61 61
59 61 61
60 62 61
59 63 62
58 59 59
57 62 61
57 60 59
57 60 59
58 59 59
58 58 58
58 59 59
58 61 62
58 59 59
58 59 59
58 61 60
59 60 60
58 60 60
58 62 61
60 61 61
65 66 66
66 67 67
67 68 68
68 68 68
69 68 69
66 66 66
64 64 64
61 60 61
59 58 59
58 57 57
58 57 57
58 57 58
59 58 58
58 58 58
58 57 58
60 58 60
60 60 60
61 60 61
60 59 60
60 59 59
60 60 60
60 57 58
61 59 61
60 58 59
59 58 59
59 58 59
60 57 59
59 60 60
58 57 58
60 59 61
58 62 61
61 58 61
60 62 64
58 60 60
57 64 62
56 61 60
58 61 60
57 62 62
58 60 60
66 62 71
58 62 61
57 62 61
59 62 61
59 62 61
58 61 60
58 61 61
60 61 61
58 63 62
59 61 61
57 61 60
57 60 59
57 60 59
56 64 62
57 59 59
58 59 58
57 62 61
58 60 60
58 61 60
58 58 58
58 60 60
59 60 60
59 61 60
61 64 64
69 69 69
71 72 72
74 74 74
72 73 73
72 73 73
72 72 72
72 72 72
70 70 70
67 67 67
62 61 61
58 58 59
59 58 59
58 56 57
58 56 57
58 57 58
59 57 59
60 58 60
59 58 59
60 59 60
59 57 58
60 60 60
61 60 62
60 59 60
59 59 59
61 59 60
60 59 60
58 58 58
59 57 58
59 56 58
60 58 60
58 57 58
60 57 61
59 57 59
61 60 63
58 62 62
56 65 63
59 59 62
57 61 61
57 63 62
56 65 63
55 66 64
79 62 89
57 62 61
59 63 64
56 65 63
60 62 63
59 61 60
60 64 64
58 65 64
59 61 60
58 60 59
58 60 60
58 64 65
58 59 60
56 61 60
56 64 62
56 63 61
58 61 60
58 61 60
58 60 59
57 64 62
58 61 61
61 64 63
68 70 70
70 73 72
72 74 73
74 74 74
73 73 73
72 73 73
72 71 72
73 73 73
72 71 72
73 73 73
69 69 69
62 61 61
59 57 58
60 58 60
58 56 57
57 56 57
59 58 58
59 59 59
59 58 59
60 59 59
61 60 61
60 58 59
59 56 58
60 58 59
60 56 58
60 56 58
63 58 62
61 57 60
66 56 66
58 56 57
57 59 59
59 58 59
59 59 60
58 59 60
60 60 61
60 60 61
59 62 61
57 60 60
53 64 62
57 61 61
58 64 64
58 61 61
63 62 66
60 61 62
55 69 66
54 69 66
56 65 63
58 63 62
58 64 63
59 67 65
57 62 61
57 61 61
57 61 60
58 61 60
55 65 63
56 67 65
57 60 60
57 61 60
56 63 61
57 61 60
58 60 60
58 61 61
61 65 64
67 68 68
72 72 72
73 73 73
71 72 72
71 71 71
72 72 72
72 71 71
72 71 71
72 72 72
72 72 72
73 73 73
72 72 72
66 65 66
60 59 60
58 56 57
67 56 68
58 55 57
58 56 57
58 58 58
60 59 60
60 58 59
60 57 58
60 57 58
60 57 58
60 58 59
58 54 56
58 57 58
60 58 59
59 55 57
58 55 57
60 55 58
66 56 66
59 57 58
58 56 57
56 60 59
55 61 61
59 58 60
56 63 62
65 63 72
56 61 62
59 62 63
53 72 68
56 64 62
55 63 61
54 67 64
56 71 68
54 73 69
54 70 66
54 69 66
56 71 68
58 65 63
57 65 63
57 61 61
57 62 61
56 64 62
56 63 61
57 65 65
57 60 60
56 64 62
55 63 62
56 61 60
58 61 60
56 66 63
62 66 65
70 70 70
73 73 73
72 73 73
71 71 71
71 72 72
71 72 72
72 72 72
72 72 72
73 73 73
71 71 71
72 72 72
73 72 72
71 70 70
64 63 64
57 52 55
58 55 56
56 52 54
59 55 58
59 56 57
59 56 58
61 58 59
60 57 59
60 56 58
60 54 57
59 54 56
58 54 56
57 52 55
59 54 56
60 55 58
65 56 66
59 55 58
66 54 67
64 56 66
57 52 56
58 56 57
61 64 69
57 61 61
63 65 72
57 60 60
57 64 64
52 65 63
55 65 63
55 62 61
64 67 75
56 70 67
55 70 67
64 63 71
54 68 65
49 79 71
54 75 70
55 69 66
57 67 64
55 63 62
57 60 60
55 63 62
56 64 62
54 70 66
56 65 64
54 65 62
56 63 61
55 64 62
55 66 64
58 67 65
65 71 69
71 72 72
73 73 73
72 72 72
72 72 72
72 72 72
71 71 71
71 71 72
72 73 73
71 70 70
71 71 71
71 70 71
72 71 72
72 71 72
67 64 65
58 49 55
56 52 54
57 52 54
57 53 55
57 53 55
59 56 58
61 58 60
59 53 56
59 53 56
59 53 56
60 54 58
58 51 54
60 51 57
65 52 64
57 54 56
56 51 54
56 54 55
57 55 58
56 55 56
57 54 56
56 52 54
64 63 71
57 60 59
63 58 67
54 66 63
54 71 67
59 62 63
57 63 63
53 68 65
58 64 65
56 69 68
53 64 62
51 76 70
56 67 66
52 76 70
53 74 69
55 72 67
54 69 66
57 62 61
55 62 61
55 66 63
54 67 64
53 68 65
54 69 65
50 75 69
53 69 65
51 71 66
49 75 69
55 71 68
64 78 75
72 75 74
73 73 73
73 73 73
71 71 71
72 73 73
71 72 72
74 72 74
72 71 72
73 71 73
72 71 71
73 72 73
72 72 72
73 72 73
76 64 75
58 53 56
55 48 51
55 48 52
55 49 52
57 52 54
59 55 57
59 52 55
59 54 56
56 47 51
56 47 51
56 46 51
57 48 53
65 51 63
65 52 63
57 51 55
56 52 54
59 52 56
58 55 58
57 56 58
58 54 56
60 56 58
57 62 61
56 62 61
55 63 61
55 67 66
62 63 71
56 70 67
52 70 66
54 74 71
53 72 70
55 69 67
48 74 69
50 76 70
54 70 67
48 77 71
47 81 73
50 76 71
54 70 67
55 66 63
55 63 62
53 67 64
53 67 64
51 70 66
49 78 71
49 79 71
46 88 76
46 79 71
45 85 75
55 73 69
68 78 77
68 78 76
73 72 74
73 73 73
72 73 73
71 71 71
72 71 71
72 72 72
71 70 71
71 70 71
72 72 72
73 70 73
74 71 73
72 65 71
66 57 61
55 43 49
50 35 42
45 29 37
45 28 36
45 29 36
51 39 44
57 49 53
58 49 53
56 47 52
55 43 49
54 45 50
53 42 47
54 48 52
56 48 53
63 48 61
59 52 57
63 52 65
57 52 56
57 48 53
60 52 58
58 56 59
56 60 61
65 61 71
57 60 61
55 65 63
55 68 65
63 64 72
56 66 64
59 73 77
53 69 65
51 74 68
53 71 69
48 76 70
48 77 70
46 86 77
47 77 71
47 78 72
53 68 65
55 66 64
55 65 63
55 66 63
51 75 68
40 103 85
30 130 100
18 156 116
24 154 114
33 127 99
43 95 81
49 89 79
44 105 92
60 90 84
72 73 73
73 72 73
72 72 72
70 70 70
72 72 72
70 73 72
71 71 72
72 70 72
73 72 72
72 72 72
72 68 71
70 59 66
61 40 52
47 28 36
41 21 30
35 9 20
30 3 14
34 5 18
37 12 23
43 23 32
48 32 39
50 34 42
50 33 42
51 36 44
52 37 44
64 45 61
57 46 53
59 48 55
56 49 52
56 52 54
59 54 58
56 52 54
72 53 75
61 54 62
56 61 60
60 60 62
55 63 62
55 66 66
54 65 63
54 66 63
66 76 89
52 74 71
51 73 68
53 73 69
49 76 70
44 84 75
50 74 69
43 83 74
47 80 74
49 78 72
55 67 65
54 67 64
54 64 62
50 77 69
41 98 82
15 191 134
5 192 136
1 222 153
4 255 172
14 200 140
25 174 125
41 94 82
44 100 88
53 106 94
70 75 74
71 69 70
71 69 69
70 72 72
72 72 72
79 70 82
117 67 126
106 66 110
82 70 83
72 70 72
71 63 68
63 46 54
55 33 43
42 21 30
33 4 16
33 3 16
32 3 16
33 4 17
31 3 15
34 7 19
39 14 25
44 24 33
48 28 38
47 26 37
49 32 41
52 38 44
59 40 54
54 43 48
56 49 54
53 49 52
57 53 56
56 51 54
63 55 63
59 52 57
55 60 59
54 62 61
55 66 63
56 63 61
54 67 64
52 71 66
54 74 70
51 70 65
52 73 69
49 79 72
49 69 65
46 78 71
47 76 70
45 82 74
46 79 72
50 74 69
51 74 69
55 64 63
53 66 64
46 92 78
24 165 119
4 196 139
1 216 150
1 208 146
1 227 156
2 247 167
20 190 136
34 121 97
36 112 94
50 105 93
67 71 70
69 59 62
69 58 61
71 69 70
71 71 72
83 61 90
101 66 109
103 68 107
72 62 67
66 56 57
68 55 59
61 44 51
46 24 33
36 8 19
32 3 15
30 3 13
43 3 24
30 3 14
31 3 15
32 3 15
35 7 19
39 14 25
45 21 33
46 24 35
48 27 37
51 36 44
52 39 48
55 44 49
72 45 70
63 49 62
63 51 63
71 49 70
66 52 65
59 51 59
58 58 59
55 64 62
64 61 69
56 62 62
55 70 69
53 67 64
53 68 67
53 73 71
51 71 67
50 75 69
49 78 73
41 87 77
44 81 73
41 84 75
39 92 80
45 88 78
52 72 68
56 63 62
52 69 65
39 125 96
12 191 135
1 205 144
1 212 148
1 208 146
1 202 140
1 199 139
15 180 130
29 127 100
39 88 77
48 88 80
56 69 67
66 50 54
67 46 50
68 55 58
72 69 71
67 66 69
72 68 75
107 66 112
72 57 65
62 45 47
62 43 49
53 31 40
42 18 27
31 3 12
29 2 12
27 2 12
33 3 16
31 3 14
34 3 17
32 3 16
30 3 14
36 8 21
41 13 27
45 19 33
46 27 36
48 29 38
52 39 46
52 41 46
61 44 59
65 48 63
71 45 69
57 49 54
57 51 55
63 51 63
56 60 61
53 65 63
56 65 63
57 61 62
52 68 65
57 67 67
58 76 79
53 71 68
53 71 66
58 76 80
49 74 69
44 81 74
45 80 72
41 84 75
38 88 78
47 75 70
53 69 66
54 65 63
52 68 65
40 110 88
13 186 132
1 215 148
1 216 149
1 196 140
1 207 143
1 214 145
17 154 115
37 89 75
40 58 53
41 32 33
47 31 33
57 40 43
66 49 53
70 60 62
72 68 70
73 72 73
73 72 72
71 69 70
69 56 61
65 48 54
58 42 46
41 18 22
35 11 14
30 5 8
29 3 10
28 2 10
38 3 18
31 3 14
33 3 16
31 3 15
33 4 16
38 10 23
43 16 30
44 20 32
47 26 37
54 32 45
51 39 44
52 39 45
54 42 48
68 45 65
55 44 50
55 52 55
65 48 63
54 52 54
57 61 62
55 60 61
54 64 62
53 69 66
54 66 64
57 67 67
61 64 72
51 72 67
65 70 84
49 75 70
45 78 71
45 76 70
43 81 73
44 82 75
52 74 78
46 77 70
53 69 65
53 67 64
55 62 61
47 78 72
22 174 124
5 185 133
1 219 151
1 229 155
1 205 142
11 206 142
27 140 107
37 58 53
36 13 15
37 0 6
36 0 5
51 27 30
64 58 59
73 70 71
73 72 72
74 73 73
75 73 74
75 72 73
71 67 68
66 58 60
48 30 34
39 7 12
33 6 8
34 6 9
30 4 8
31 2 11
38 2 18
36 3 18
33 3 16
31 3 15
37 8 21
43 21 31
44 19 32
45 21 33
47 25 36
48 30 40
51 36 45
52 39 45
52 40 46
55 44 50
56 51 54
61 47 56
59 51 58
64 50 63
56 60 60
64 62 70
61 63 70
54 68 65
54 67 65
54 69 68
54 63 62
60 71 76
50 73 68
47 78 71
45 79 72
44 78 72
41 86 76
44 78 72
47 74 69
49 72 67
55 63 62
54 64 62
54 64 62
50 71 67
33 118 94
17 166 121
4 205 144
1 223 154
2 221 152
27 121 98
39 91 80
43 45 44
36 5 9
36 0 5
36 0 5
44 19 22
62 53 54
71 72 72
73 73 73
73 72 72
72 70 73
70 68 69
68 65 67
61 54 57
42 25 28
32 5 7
35 6 9
32 6 8
31 5 10
29 3 11
30 3 14
32 3 15
31 4 15
36 11 21
43 23 33
50 32 42
46 22 34
54 24 44
55 28 46
50 35 42
51 37 44
53 41 49
53 44 48
56 46 53
64 48 61
57 49 54
60 47 56
55 50 52
57 60 59
54 59 59
56 66 66
55 64 62
62 66 72
56 67 66
55 70 68
56 66 65
53 67 64
48 77 71
49 70 67
44 75 69
45 80 72
49 73 68
50 70 66
56 62 61
56 63 61
54 65 63
50 71 67
45 78 71
38 88 78
21 129 102
13 156 117
10 188 135
11 147 113
29 113 93
37 92 80
42 55 52
38 15 18
34 0 4
36 5 9
47 27 30
60 54 55
67 66 66
68 67 67
62 61 62
54 55 58
53 53 56
63 57 61
60 51 54
50 35 37
32 9 11
34 5 8
42 7 13
35 9 15
35 8 19
37 8 21
36 5 19
38 10 23
42 20 31
48 29 38
48 29 39
48 30 39
48 29 38
48 31 40
51 33 43
52 39 44
56 44 51
55 43 50
53 43 48
67 47 64
64 47 61
56 51 56
67 53 68
55 60 60
58 60 60
55 63 61
54 66 63
64 64 74
55 64 63
61 66 74
52 69 65
49 70 65
59 75 79
58 68 74
53 65 63
51 67 65
51 67 64
56 61 60
55 64 62
54 62 61
52 66 63
49 74 68
44 82 74
36 93 81
36 91 80
32 101 86
28 107 90
31 96 83
38 85 76
43 75 69
44 56 53
41 28 30
40 7 12
42 8 14
52 32 36
58 49 52
64 59 61
65 63 64
46 47 51
22 25 41
25 27 38
50 46 51
58 50 52
50 33 37
255 17 255
255 11 255
255 11 255
120 16 125
42 16 27
45 21 33
45 21 33
45 19 33
47 24 36
48 29 40
50 33 43
50 34 43
50 36 45
52 41 46
51 38 45
56 45 51
57 45 53
68 42 65
56 48 51
58 44 53
57 49 54
65 49 63
63 49 62
58 61 62
73 56 77
63 60 68
63 58 67
53 66 63
60 66 73
57 63 63
56 65 64
61 68 74
54 61 60
54 62 61
57 61 62
55 62 61
54 61 60
55 62 61
55 63 62
54 67 64
52 70 66
52 71 66
49 75 69
46 83 74
44 88 77
39 92 79
44 91 79
44 91 79
43 88 77
46 75 67
46 68 63
46 35 37
49 25 30
50 29 33
57 38 45
59 53 54
63 58 59
63 57 61
39 42 46
10 16 25
21 23 41
47 38 61
58 52 54
255 44 255
255 23 255
255 11 255
255 16 255
255 22 255
48 31 38
49 31 40
49 31 40
51 33 42
50 35 42
50 36 43
52 41 47
53 43 48
54 46 50
54 46 50
56 45 52
58 47 54
55 46 51
60 42 55
74 47 73
56 50 54
64 50 63
55 56 58
61 53 60
56 62 61
57 56 57
56 62 60
57 66 66
57 65 63
66 63 73
56 61 60
57 60 60
55 61 60
59 61 63
56 60 60
53 64 63
57 61 60
56 62 61
54 66 64
56 63 62
54 66 63
53 68 64
52 68 65
50 76 71
49 79 71
51 73 68
49 80 72
46 83 73
50 71 66
49 71 66
50 64 60
51 62 59
53 55 54
54 47 49
56 48 49
57 48 50
60 55 56
59 56 57
59 56 59
45 45 49
25 28 39
27 31 39
47 46 49
60 55 60
255 48 255
255 24 255
255 13 255
255 13 255
255 27 255
53 42 46
52 40 44
53 43 48
54 40 48
52 42 47
53 45 49
53 44 48
53 43 48
54 45 50
55 50 52
55 49 52
56 49 53
56 51 53
56 51 54
55 45 51
56 50 53
56 51 54
60 50 57
55 50 52
67 58 71
64 58 68
65 59 69
57 62 63
56 60 60
56 59 59
57 59 59
58 59 59
57 61 61
57 59 59
57 59 59
56 61 60
55 62 61
56 61 60
55 63 62
56 63 62
56 63 61
54 68 64
55 69 67
52 68 65
50 77 70
52 73 68
52 71 67
52 73 69
54 66 63
56 66 64
52 66 63
53 62 60
54 60 58
56 53 53
57 56 56
59 58 58
59 53 56
60 59 60
57 56 57
48 47 51
41 43 50
41 42 48
53 47 54
59 53 61
255 45 255
255 31 255
255 16 255
255 16 255
255 34 255
68 47 66
56 48 52
55 45 50
57 47 53
54 46 50
54 46 50
54 47 50
55 49 52
56 48 53
55 50 53
55 46 51
56 50 53
56 53 54
58 55 57
57 54 56
62 55 61
57 54 58
57 53 55
67 53 68
58 60 62
57 61 60
55 62 61
57 59 59
59 60 61
57 60 60
57 60 60
58 60 60
58 60 60
56 61 60
57 62 62
57 60 60
56 63 61
55 63 61
57 60 59
56 65 64
58 62 62
55 68 65
55 64 62
55 63 61
54 68 65
53 70 66
56 65 63
52 74 68
56 63 62
55 64 61
54 62 61
53 62 60
55 62 61
56 59 59
57 56 57
59 55 56
60 58 60
59 55 58
61 58 61
60 57 63
55 53 56
57 51 62
64 54 64
61 54 61
129 49 142
255 39 255
255 27 255
255 30 255
255 36 255
78 48 78
66 48 65
56 49 53
53 46 49
54 47 50
56 47 52
56 50 53
56 52 54
57 51 55
57 51 55
57 54 56
56 53 55
57 54 55
57 55 56
58 55 57
60 55 59
56 54 56
66 59 69
57 53 56
57 59 59
57 59 59
58 59 59
57 59 59
57 60 59
57 61 60
57 60 60
57 59 59
58 60 61
57 61 60
57 60 59
57 60 60
57 60 59
55 65 63
54 66 63
55 65 63
57 61 60
56 62 61
54 66 63
55 68 66
55 66 64
56 68 64
54 65 63
53 70 67
53 69 65
53 62 61
55 63 62
55 63 61
57 63 62
58 58 58
55 62 61
58 58 58
57 56 57
63 58 62
59 55 58
58 56 59
60 57 61
59 57 59
64 54 64
86 53 90
81 57 85
144 52 158
218 44 244
201 41 224
146 44 158
105 50 111
59 51 57
57 52 54
58 52 55
57 52 54
55 50 52
56 49 54
57 54 56
56 51 53
58 53 56
57 53 55
56 53 55
57 54 56
57 53 56
57 55 56
57 54 56
57 54 57
60 55 59
58 55 56
58 59 59
57 59 59
58 57 58
56 60 60
59 59 61
56 61 60
56 61 60
58 60 59
58 59 59
58 60 59
55 61 60
56 62 60
56 61 60
58 61 60
56 61 60
56 63 61
55 62 61
54 65 62
55 65 63
56 61 60
55 63 62
54 68 65
56 56 57
55 64 63
53 67 64
55 62 60
56 62 62
57 61 61
55 61 60
60 57 60
57 63 62
61 56 61
58 58 58
59 59 62
58 58 59
58 58 59
58 57 59
68 57 69
62 56 60
69 56 71
96 55 102
100 55 106
154 52 172
118 52 127
104 49 110
87 48 90
66 52 65
70 49 70
57 50 54
56 51 53
58 51 56
56 51 53
59 54 57
57 52 55
56 52 54
56 51 54
58 54 57
57 53 55
57 54 55
57 55 56
58 53 56
58 55 57
60 57 60
58 56 57
58 58 58
58 59 59
57 59 59
57 59 59
57 61 60
57 59 59
56 60 59
58 59 59
58 59 59
56 60 60
56 60 60
56 61 61
58 59 60
56 61 60
57 60 60
56 62 61
56 61 60
55 65 63
56 65 63
54 64 62
55 65 63
56 60 59
55 63 61
55 60 59
52 70 66
58 61 62
55 61 60
56 63 62
55 60 59
57 59 59
58 60 60
59 58 61
59 56 57
63 54 64
59 59 62
66 57 67
56 54 55
59 58 60
59 57 60
73 55 74
103 56 112
119 54 128
122 51 133
74 55 77
103 52 110
132 49 144
72 53 73
61 52 59
59 53 57
64 52 63
58 52 55
57 54 56
58 55 57
58 53 56
57 54 55
58 56 57
57 54 55
58 54 56
58 56 57
59 56 59
57 54 56
58 57 58
57 56 57
58 57 58
58 58 59
57 58 58
58 59 59
57 60 60
59 59 59
58 59 59
57 60 59
57 61 60
56 63 61
57 61 60
57 59 59
57 62 60
58 61 62
58 60 59
57 61 60
57 61 60
56 63 61
54 65 63
57 61 61
57 61 60
54 66 63
57 61 61
58 59 59
55 61 60
56 62 61
56 62 60
55 60 59
56 63 62
56 66 63
54 63 61
58 57 57
58 57 58
58 59 59
59 59 59
64 59 68
58 56 57
64 56 66
66 57 68
67 58 70
59 55 59
82 56 86
63 56 65
85 56 89
89 55 94
106 54 114
80 54 84
80 53 83
69 53 70
69 53 69
64 53 64
59 56 58
57 54 55
57 55 56
57 54 56
58 53 56
57 56 56
57 54 55
58 57 57
59 55 58
58 55 56
56 52 54
59 55 58
58 59 59
57 55 57
56 61 60
58 59 60
59 60 61
57 60 59
58 59 59
57 61 60
57 59 59
56 62 61
56 63 61
59 60 62
57 61 60
56 62 61
57 62 61
55 65 63
55 63 61
56 63 61
55 62 61
56 61 60
56 61 60
57 61 60
55 63 62
58 60 60
55 62 61
56 63 61
56 62 61
59 59 62
57 60 60
56 63 62
57 61 60
56 61 60
57 61 60
57 63 61
58 59 59
58 57 58
65 58 68
59 57 59
58 59 59
62 61 66
58 58 58
67 56 69
73 56 75
92 54 98
76 55 78
61 56 60
71 56 73
65 55 66
75 55 78
66 52 65
60 55 59
56 54 55
69 55 70
72 54 74
64 55 65
57 55 56
56 55 56
58 56 57
57 53 55
57 55 56
57 55 56
58 56 57
59 56 58
58 55 56
57 55 56
57 54 56
60 58 60
58 58 58
58 58 58
59 59 61
57 60 60
58 59 59
56 61 60
57 60 60
57 60 60
57 61 60
57 62 60
57 60 60
58 60 60
57 60 60
57 60 59
56 63 62
56 63 61
58 60 59
55 65 62
57 61 60
56 61 60
56 64 62
57 61 60
57 62 61
57 60 59
57 59 59
57 64 62
56 60 59
56 64 62
57 62 61
57 58 58
58 61 60
58 58 58
57 57 57
57 58 58
65 56 68
66 60 69
57 56 56
67 57 68
78 57 82
70 56 71
73 55 74
68 57 70
65 56 66
75 54 76
66 55 66
65 53 64
57 54 56
58 53 57
64 54 64
65 55 66
65 54 64
58 55 56
58 56 57
57 56 57
60 54 60
59 55 58
58 56 57
58 54 56
60 55 59
59 56 59
58 57 57
58 56 57
56 55 56
58 58 58
58 59 59
57 59 59
57 60 59
56 61 60
58 59 59
55 64 62
57 59 59
56 60 59
57 60 59
57 62 60
57 60 59
56 62 61
55 66 63
56 61 60
56 62 61
57 59 59
56 61 60
58 61 60
56 64 62
57 59 59
56 62 60
56 63 61
58 59 59
55 65 62
55 62 61
59 60 61
55 62 60
55 61 59
56 61 60
57 60 59
58 62 61
57 62 61
56 62 61
57 57 57
59 56 59
59 57 59
72 56 75
75 56 78
83 56 87
67 57 70
61 58 62
60 55 59
70 56 71
78 55 81
72 56 75
57 55 56
66 53 66
66 55 67
62 57 63
57 54 56
64 55 65
61 54 60
58 56 58
65 57 66
59 56 58
58 54 56
59 55 58
57 55 56
56 54 55
59 57 59
57 54 56
59 57 59
58 54 57
58 58 58
58 58 59
57 58 58
58 61 61
57 60 59
57 60 59
57 63 62
57 62 62
58 59 59
56 62 61
57 60 60
57 60 59
57 61 60
57 60 59
58 60 59
57 61 60
55 65 62
57 62 61
57 61 60
58 60 61
58 59 60
57 61 60
56 65 63
56 66 63
58 61 60
58 59 59
57 61 61
57 61 60
56 64 62
55 66 63
58 61 61
55 58 58
57 57 57
56 63 61
57 57 57
58 57 58
58 57 57
72 60 78
57 58 58
60 58 60
61 57 60
58 58 59
75 60 79
68 55 68
65 57 67
67 54 68
64 55 65
66 56 67
79 55 83
64 54 64
56 54 55
59 56 58
58 56 57
57 55 56
59 56 59
57 55 56
57 56 57
59 55 58
58 56 57
57 56 57
58 56 57
57 57 57
60 57 59
58 57 59
56 61 60
58 59 59
57 60 60
56 61 60
57 61 60
57 60 60
56 61 60
57 61 60
57 60 60
56 60 60
58 59 59
56 62 61
57 58 58
57 63 62
56 62 61
57 61 60
56 61 60
56 61 60
57 61 60
57 61 60
57 63 61
56 58 58
57 60 59
57 63 62
57 61 61
57 63 63
57 61 60
57 61 61
57 62 61
57 62 60
59 61 62
57 60 60
56 60 60
66 58 68
57 57 57
58 61 61
66 58 69
71 62 79
68 57 69
58 58 58
58 57 57
58 57 57
70 56 71
58 56 57
59 57 59
58 57 58
58 56 57
59 56 58
63 56 63
59 55 58
58 55 58
57 55 56
58 56 57
65 56 65
58 56 58
58 57 58
60 57 59
57 58 58
59 56 58
58 58 58
57 56 57
58 56 58
58 56 59
58 56 57
57 59 59
58 58 58
58 60 60
58 59 59
57 60 59
57 61 60
58 58 58
57 64 62
57 59 58
58 60 61
56 63 61
56 62 61
57 60 60
58 58 58
57 63 61
57 60 59
57 60 60
58 61 60
55 65 62
57 61 60
58 59 59
57 60 60
57 61 60
57 60 60
58 59 59
56 64 62
59 62 61
56 61 60
58 61 60
59 58 58
65 60 68
57 59 59
60 57 59
59 58 60
56 60 59
57 58 58
67 58 69
60 57 59
59 59 59
62 57 64
70 56 72
58 56 57
71 56 75
60 57 59
67 57 68
65 56 67
66 56 67
57 55 56
73 55 75
60 56 60
59 55 58
65 54 65
56 54 56
58 55 58
59 56 59
68 56 69
58 56 57
57 55 56
59 56 59
58 57 57
57 56 57
58 58 58
59 57 59
58 57 58
58 59 59
57 62 61
58 59 59
58 60 61
57 60 60
57 61 60
58 58 58
58 59 59
57 60 60
56 62 60
57 60 59
58 60 61
56 60 59
54 69 65
57 60 60
56 63 61
56 60 60
57 61 60
57 59 59
57 62 61
57 60 59
57 59 59
57 58 58
58 60 59
57 62 61
59 59 59
58 61 61
58 59 59
64 62 70
58 59 59
57 60 59
57 60 60
59 59 60
57 60 59
61 60 63
57 58 58
57 56 56
58 60 59
60 55 59
67 60 71
58 58 58
65 55 65
58 55 57
58 58 60
59 55 58
55 54 55
67 57 68
60 55 60
60 58 60
58 56 58
59 55 57
68 56 69
68 57 70
65 55 66
60 56 59
59 55 58
57 56 57
57 55 56
58 56 57
58 56 57
57 56 57
59 56 58
58 55 57
57 55 56
58 60 60
58 59 59
58 59 59
59 59 59
57 61 60
57 62 60
58 62 63
56 61 60
57 60 59
57 60 59
58 60 60
57 58 58
56 62 61
56 60 59
58 61 61
58 58 58
57 61 60
58 58 58
58 59 60
58 60 59
56 61 60
56 63 62
55 62 60
55 66 63
58 61 60
57 61 60
57 59 59
55 64 62
58 59 59
58 59 61
57 60 60
59 57 59
64 59 67
58 60 61
57 57 57
60 57 60
60 58 61
58 57 57
58 59 59
57 58 58
74 57 78
59 58 60
74 57 77
61 56 60
65 56 66
66 58 68
58 55 58
59 57 59
57 57 57
58 56 58
58 57 57
57 57 57
57 55 56
59 58 60
64 56 66
65 56 66
57 56 56
58 57 57
57 55 56
57 56 57
57 56 57
58 56 57
58 56 57
57 56 57
58 58 58
58 59 59
58 58 58
58 58 59
59 60 61
57 61 60
57 61 60
57 61 60
58 59 59
57 60 60
59 58 60
57 61 60
57 61 60
57 62 61
57 62 61
56 62 61
57 60 59
57 61 60
57 60 59
58 59 59
56 59 59
57 59 58
57 61 59
58 59 59
58 58 58
60 59 61
55 65 62
57 63 61
58 59 59
57 60 59
56 60 59
58 60 59
66 61 71
57 61 60
64 60 68
65 60 68
58 58 58
57 56 57
59 57 59
58 59 59
58 57 57
61 56 60
67 56 68
65 56 67
74 56 77
57 56 57
69 55 70
57 56 57
58 56 57
57 58 58
57 55 57
59 57 60
65 55 65
58 56 57
60 54 59
57 55 56
64 54 64
58 58 58
60 57 61
59 56 58
58 56 57
59 56 58
57 56 56
57 57 57
59 60 60
59 58 59
57 60 60
58 60 60
58 60 60
57 59 59
57 60 59
59 59 59
56 62 61
57 60 60
59 59 59
57 62 61
59 59 60
58 58 58
57 61 60
57 61 61
57 61 61
57 59 59
58 58 58
57 63 61
58 59 59
56 61 60
59 62 64
57 62 61
59 58 59
56 60 60
56 63 61
57 64 63
57 59 59
58 60 59
59 61 61
57 59 58
64 59 68
58 59 58
58 59 59
56 58 58
58 58 59
58 58 58
58 58 58
57 56 57
66 58 67
59 56 58
58 55 57
58 58 58
65 56 66
60 58 60
58 57 57
59 55 58
58 56 58
58 57 57
57 58 58
58 57 57
57 57 57
58 58 58
70 56 72
69 56 71
65 57 67
67 55 67
59 57 60
58 56 57
57 56 57
58 58 58
57 54 56
57 56 56
58 59 59
57 61 60
58 61 61
57 61 60
57 59 59
57 59 59
58 58 58
57 61 60
57 61 60
56 63 62
58 58 58
58 61 60
57 61 60
58 59 59
58 58 58
59 59 60
57 59 59
57 60 60
60 58 60
57 60 60
56 60 60
58 59 59
57 60 59
57 59 59
57 61 62
56 62 61
57 61 60
59 60 61
58 60 61
56 61 60
58 56 57
58 61 62
56 63 61
58 60 59
57 60 59
64 59 68
58 58 58
62 59 64
58 61 60
72 60 77
65 57 66
58 58 60
58 59 60
66 57 67
60 57 59
58 56 56
66 56 66
57 56 57
57 55 56
59 57 59
58 56 57
58 57 58
59 58 59
58 56 57
59 55 58
67 57 69
58 57 58
58 56 57
58 57 57
66 57 67
60 55 59
57 57 57
60 57 60
57 56 57
58 59 59
57 60 59
58 61 61
58 59 59
57 60 59
57 62 60
57 62 60
58 59 59
58 61 60
59 60 61
56 61 60
57 59 59
57 60 59
58 60 59
57 63 61
59 60 60
59 59 61
59 59 60
57 59 59
57 62 61
58 61 60
57 59 59
58 58 58
56 63 61
58 58 58
56 60 61
66 58 67
59 57 59
58 58 58
72 60 78
56 61 60
57 61 60
64 60 69
57 62 62
57 61 60
58 58 58
66 59 68
57 57 58
73 57 76
58 57 58
58 58 58
59 59 61
59 56 58
74 56 77
66 56 66
74 55 76
67 57 68
60 58 60
70 57 71
62 56 62
59 56 58
57 56 57
58 58 59
65 57 68
65 57 66
58 57 58
57 57 57
66 57 67
56 56 57
58 56 57
58 56 57
57 56 57
58 58 58
58 57 58
58 58 58
57 61 60
58 58 58
57 60 59
57 60 59
58 61 61
57 60 60
58 59 59
58 59 59
57 58 59
57 62 60
58 60 59
57 62 60
57 63 61
58 59 59
56 62 61
58 59 59
57 59 59
58 60 60
57 59 59
57 59 59
58 58 59
58 58 60
56 61 60
58 61 60
57 61 60
57 60 59
58 58 59
60 60 62
58 61 60
59 58 60
57 61 60
58 60 61
58 60 59
65 61 69
56 59 59
66 58 69
60 56 60
58 57 57
59 57 59
64 60 68
59 57 59
58 60 59
60 57 62
59 59 59
61 57 61
58 57 58
59 57 59
57 55 56
58 56 59
65 58 67
57 56 56
58 56 57
59 57 59
58 55 56
60 55 59
58 58 58
58 57 57
60 58 60
57 56 57
66 56 67
58 57 57
57 56 56
59 57 59
58 59 59
58 59 59
57 58 58
57 59 59
59 60 61
56 60 59
56 61 60
58 59 59
57 61 60
57 60 59
57 61 60
58 59 59
57 59 59
57 59 59
58 58 58
59 58 60
58 60 60
56 60 59
58 58 58
59 59 60
57 60 60
57 60 59
58 56 57
57 58 58
58 61 60
57 60 59
57 57 57
57 59 59
66 58 67
58 60 59
57 60 59
56 57 57
58 59 59
58 60 59
57 57 58
59 59 60
57 57 58
58 59 59
66 59 68
61 58 63
61 58 61
58 56 58
58 57 58
67 57 68
65 56 66
59 57 59
67 56 68
57 57 57
58 56 57
66 56 67
58 56 57
58 55 57
57 56 57
66 58 68
59 58 60
58 57 57
67 58 69
57 58 58
58 57 58
58 58 58
57 56 57
58 55 56
66 58 67
61 56 60
58 60 60
57 61 60
58 59 59
57 61 60
57 58 58
57 59 58
56 62 61
59 59 59
58 59 59
57 61 60
56 60 60
58 59 59
57 61 60
57 61 60
56 63 61
58 61 60
58 60 60
57 60 60
57 61 60
57 60 60
56 62 61
57 58 58
60 57 59
58 59 59
57 60 60
58 61 60
59 60 60
59 62 64
58 58 60
59 58 60
58 57 58
58 60 60
57 57 57
58 57 58
56 62 60
59 59 61
57 61 60
68 58 70
58 57 57
59 57 59
67 58 69
58 58 58
66 59 68
66 57 66
60 56 60
66 55 67
59 58 59
59 59 59
58 56 57
59 56 59
58 57 57
59 56 59
58 56 57
58 57 57
57 59 59
57 57 58
58 57 58
59 58 59
65 56 66
58 57 58
65 57 66
65 58 67
59 57 60
57 56 57
