P3
# Rays 2018
16 16
255
255 255 255
255 255 255
255 255 255
255 255 255
255 255 255
255 255 255
255 255 255
255 255 255
255 255 255
255 255 255
255 255 255
255 255 255
255 255 255
255 255 255
255 255 255
255 255 255
255 255 255
255 255 255
255 255 255
255 255 255
255 255 255
255 255 255
255 255 255
255 255 255
255 255 255
255 255 255
255 255 255
255 255 255
255 255 255
255 255 255
255 255 255
255 255 255
255 255 255
255 255 255
255 255 255
255 255 255
255 255 255
255 255 255
255 255 255
255 255 255
255 255 255
255 255 255
255 255 255
255 255 255
255 255 255
255 255 255
255 255 255
255 255 255
255 255 255
255 255 255
244 244 244
241 241 241
231 231 231
253 253 253
255 255 255
255 255 255
255 255 255
255 255 255
255 255 255
255 255 255
255 255 255
255 255 255
255 255 255
255 255 255
255 255 255
220 220 220
154 154 154
148 148 148
146 146 146
175 175 175
227 227 227
255 255 255
255 255 255
255 255 255
255 255 255
255 255 255
255 255 255
255 255 255
255 255 255
255 255 255
252 252 252
174 174 174
91 91 91
88 88 88
78 78 78
95 95 95
177 177 177
217 217 217
220 220 220
193 193 193
224 224 224
251 251 251
255 255 255
255 255 255
255 255 255
255 255 255
238 238 238
152 152 152
72 72 72
71 71 71
75 75 75
66 66 66
102 102 102
149 149 149
116 116 116
121 121 121
160 160 160
243 243 243
255 255 255
255 255 255
255 255 255
255 255 255
253 253 253
166 166 166
62 62 62
54 54 54
52 52 52
49 49 49
112 112 112
112 112 112
73 73 73
73 73 73
114 114 114
165 165 165
191 191 191
215 215 215
242 242 242
244 244 244
185 185 185
138 138 138
71 71 71
45 45 45
39 39 39
43 43 43
88 88 88
86 86 86
48 48 48
42 42 42
82 82 82
80 80 80
60 60 60
115 115 115
161 161 161
163 163 163
113 113 113
105 105 105
83 83 83
69 69 69
54 54 54
70 70 70
89 89 89
79 79 79
77 77 77
53 53 53
79 79 79
81 81 81
66 66 66
87 87 87
81 81 81
96 96 96
111 111 111
104 104 104
100 100 100
106 106 106
113 113 113
112 112 112
109 109 109
115 115 115
102 102 102
110 110 110
115 115 115
110 110 110
112 112 112
106 106 106
101 101 101
110 110 110
122 122 122
119 119 119
120 120 120
120 120 120
121 121 121
118 118 118
123 123 123
122 122 122
122 122 122
121 121 121
122 122 122
123 123 123
121 121 121
123 123 123
121 121 121
119 119 119
121 121 121
121 121 121
122 122 122
123 123 123
122 122 122
123 123 123
121 121 121
122 122 122
123 123 123
122 122 122
123 123 123
124 124 124
121 121 121
122 122 122
121 121 121
123 123 123
121 121 121
123 123 123
124 124 124
123 123 123
121 121 121
122 122 122
122 122 122
122 122 122
125 125 125
119 119 119
123 123 123
123 123 123
124 124 124
123 123 123
123 123 123
124 124 124
121 121 121
122 122 122
123 123 123
122 122 122
124 124 124
121 121 121
121 121 121
124 124 124
120 120 120
124 124 124
124 124 124
123 123 123
122 122 122
123 123 123
122 122 122
125 125 125
124 124 124
123 123 123
125 125 125
124 124 124
123 123 123
124 124 124
124 124 124
123 123 123
125 125 125
123 123 123
124 124 124
122 122 122
123 123 123
120 120 120
123 123 123
126 126 126
