P3
# Rays 2018
64 64
255
59 58 58
58 58 57
58 57 57
59 58 58
61 59 59
60 58 58
59 58 58
60 59 59
61 58 58
63 58 59
69 59 60
68 59 60
73 59 60
62 58 59
68 58 59
66 60 60
68 60 60
66 59 60
64 58 59
68 60 60
68 59 60
63 59 59
61 60 59
62 58 59
64 58 59
64 58 59
75 60 61
65 60 60
73 61 61
65 58 59
62 59 59
70 59 60
63 59 59
63 60 59
61 60 59
61 58 58
66 57 57
64 59 59
64 59 59
63 58 58
59 59 58
63 58 57
58 57 55
59 58 57
58 58 55
61 57 56
59 58 57
62 59 57
58 58 56
58 58 57
58 58 56
58 57 56
57 56 54
58 58 57
57 56 55
58 57 56
57 57 55
59 59 57
60 58 58
58 58 58
59 58 58
58 57 57
59 58 58
58 57 57
62 60 59
59 60 59
61 59 59
58 58 57
61 59 59
60 58 58
59 58 58
61 59 59
66 60 60
61 58 59
69 58 60
69 59 60
67 58 59
67 58 60
65 58 59
62 59 59
62 58 59
63 59 59
68 57 59
64 59 59
64 58 59
63 58 59
62 60 60
64 59 60
62 58 59
64 59 60
64 59 60
75 60 62
68 69 62
62 66 59
63 59 58
68 58 59
66 59 59
63 59 59
68 69 60
63 68 60
60 58 56
61 58 57
65 57 57
66 58 58
59 57 56
58 58 57
59 58 57
59 58 57
58 57 56
59 58 58
60 58 55
58 59 57
59 59 57
57 58 55
58 59 57
58 58 56
57 56 55
60 56 55
58 61 58
57 56 55
58 58 58
58 58 57
59 59 58
58 58 58
59 58 58
59 60 59
58 60 58
59 58 59
59 58 58
59 59 58
58 58 57
60 58 59
60 59 59
59 59 58
59 58 58
60 58 58
62 58 59
62 58 59
60 59 59
68 58 59
71 58 59
61 59 59
63 59 59
63 59 59
72 59 60
63 60 60
73 59 61
68 59 60
73 58 60
64 59 60
65 59 59
69 58 59
67 59 60
63 61 60
70 60 61
64 60 60
67 59 60
67 59 60
63 62 61
69 59 60
65 58 58
68 58 59
70 60 60
60 59 57
62 58 58
63 59 59
61 61 57
60 60 59
64 57 57
59 59 57
63 61 59
60 61 58
59 59 58
59 59 57
60 60 58
58 59 57
59 66 58
58 59 56
57 56 55
58 58 57
57 57 56
58 57 57
58 57 57
57 56 55
58 57 57
59 58 58
59 58 57
60 58 58
58 58 58
60 59 59
58 58 58
61 59 59
59 59 58
60 58 58
59 58 58
59 59 59
61 60 59
60 58 58
59 58 58
60 59 59
59 58 59
63 58 59
60 58 59
66 58 59
69 59 60
70 59 60
67 59 60
65 59 60
66 59 60
73 59 61
75 59 60
64 60 59
67 60 60
70 59 60
66 57 58
66 60 60
63 59 60
68 68 61
63 59 59
66 58 59
64 60 60
62 60 59
68 61 62
68 60 60
67 58 59
62 61 59
62 59 59
66 57 58
66 59 59
64 68 60
68 67 59
59 58 57
57 57 55
62 66 57
59 57 56
59 58 56
59 59 58
59 58 57
58 58 57
57 57 55
58 57 57
58 58 56
57 57 56
58 56 55
58 57 56
58 57 57
58 57 57
59 58 57
59 60 59
58 58 57
59 58 58
59 58 58
59 59 58
59 59 59
61 59 59
60 58 58
61 59 59
60 59 59
59 58 57
60 58 58
59 58 58
59 58 58
61 60 59
59 58 58
60 58 58
61 58 59
61 59 59
62 60 59
64 59 60
67 59 59
68 58 59
67 59 60
66 59 60
68 59 60
65 59 60
65 60 60
67 59 60
68 67 61
66 58 59
63 60 60
67 59 60
69 61 60
66 59 59
64 60 60
68 61 61
67 60 60
66 60 59
69 61 61
65 67 60
67 59 59
70 58 59
68 60 59
64 69 61
64 58 58
61 57 56
61 57 56
61 58 58
62 59 58
59 59 57
59 56 55
58 57 56
58 58 56
59 58 57
59 60 56
57 57 55
58 57 56
58 58 57
58 66 57
57 58 55
59 58 57
58 59 57
59 58 57
60 58 58
59 58 58
59 58 58
58 58 58
59 58 58
59 58 58
59 57 57
60 58 59
58 58 58
59 58 58
59 58 58
60 59 59
58 58 58
59 58 58
59 58 58
60 58 59
59 58 58
61 59 59
59 59 59
62 58 59
62 58 59
64 59 60
68 59 60
71 58 60
65 59 60
63 59 59
66 59 59
75 60 61
63 59 60
63 61 60
73 59 61
73 60 61
64 60 60
67 60 61
63 60 59
67 61 61
64 60 60
65 60 60
66 60 60
66 60 61
67 63 62
69 61 60
69 59 59
69 62 59
65 60 60
60 58 57
59 69 58
63 60 58
60 59 58
59 59 57
59 60 58
58 59 56
58 57 56
59 59 57
58 56 55
58 59 56
57 57 56
58 59 57
57 56 55
57 57 56
58 57 56
58 58 57
58 59 58
58 58 58
59 59 58
60 59 58
58 58 58
59 58 58
59 58 58
59 60 59
59 58 58
64 59 59
59 58 58
60 59 59
59 58 58
59 59 59
59 59 59
60 59 59
59 59 59
61 59 59
59 58 58
59 58 58
60 58 58
61 58 59
66 59 59
62 59 59
64 59 60
68 60 60
65 59 60
65 67 61
65 58 59
62 58 58
63 58 58
68 58 59
65 59 60
67 60 61
63 67 60
72 61 61
72 60 61
72 61 62
60 59 59
67 61 61
70 60 61
67 58 59
62 60 60
67 59 59
66 59 60
67 59 59
63 58 58
63 58 58
62 60 58
62 66 58
58 57 56
60 59 58
60 59 58
60 59 58
59 59 57
58 58 57
58 58 57
58 58 57
59 59 58
58 58 56
58 57 57
58 59 57
57 57 55
59 60 58
58 58 58
59 58 58
59 58 58
59 59 58
58 58 58
59 58 58
59 58 58
60 59 59
60 59 59
59 58 58
59 59 59
59 58 58
61 59 59
58 58 57
60 59 59
59 58 58
59 58 58
59 58 58
60 58 58
60 59 59
61 59 59
59 58 59
61 58 58
60 58 59
61 58 59
67 58 60
63 59 59
61 58 59
63 59 59
65 58 59
62 58 59
64 59 60
68 58 60
64 61 60
74 60 62
65 62 61
71 60 61
64 60 60
66 60 61
64 60 60
66 61 60
66 59 60
69 60 61
66 60 61
68 60 61
68 59 59
70 61 61
64 57 57
65 59 59
62 58 57
59 59 58
60 58 57
59 58 57
59 59 58
59 59 58
57 56 55
58 58 57
58 58 57
58 57 56
56 57 54
57 57 56
57 58 56
59 59 58
59 58 58
58 58 57
59 59 58
59 58 58
58 57 56
58 58 57
59 58 58
60 58 58
59 58 58
59 58 58
60 58 58
60 59 59
59 58 58
60 58 58
59 59 59
59 59 59
60 59 58
59 58 58
59 58 58
59 58 58
59 58 58
60 58 58
60 59 59
61 59 59
66 58 59
64 58 59
72 60 61
69 59 60
67 59 60
75 59 61
66 58 59
66 59 60
63 58 58
70 60 61
77 60 61
61 58 58
65 60 61
67 60 61
69 60 60
63 60 60
72 60 61
62 61 61
74 60 62
70 61 62
66 60 60
68 60 60
63 58 58
64 60 60
59 57 57
58 59 56
61 60 59
60 58 57
61 58 56
58 57 56
59 59 58
59 59 58
58 58 57
58 58 56
57 57 56
56 56 54
57 59 56
57 57 56
57 57 57
58 58 57
58 58 58
59 58 58
59 59 59
59 58 58
59 58 58
59 59 59
59 59 59
60 58 58
60 58 58
59 59 58
59 59 59
60 58 59
60 59 58
61 59 59
59 59 58
60 59 59
60 59 59
59 59 59
60 58 59
62 59 59
59 59 59
60 59 59
60 58 59
60 59 59
59 58 58
61 59 59
70 59 60
63 58 59
67 59 60
67 58 59
73 59 61
64 58 59
64 59 59
69 58 60
74 59 61
64 60 60
65 60 60
65 60 60
67 59 60
64 60 61
70 60 61
69 61 61
69 61 61
63 59 59
67 60 61
68 61 61
64 60 60
62 62 60
64 59 59
59 59 57
59 58 57
59 59 57
58 58 57
59 58 58
59 58 57
59 60 58
58 58 57
58 58 57
57 57 55
56 56 55
59 58 58
61 58 58
58 58 57
59 58 58
59 58 58
59 58 58
59 58 58
59 58 58
60 59 59
59 59 59
61 58 59
59 58 58
59 58 58
60 58 58
59 59 59
59 59 59
59 59 59
62 59 59
59 58 58
60 59 59
58 58 58
59 59 59
59 58 58
59 58 58
59 67 59
59 58 58
60 59 59
59 58 59
59 59 59
61 59 59
68 59 60
61 59 59
65 59 59
71 59 60
65 58 59
71 59 60
71 58 60
65 59 60
72 59 60
68 60 61
66 60 61
65 60 61
69 59 60
73 61 62
66 61 61
67 60 61
68 60 61
67 61 61
62 60 60
63 61 61
61 60 59
63 58 57
62 58 57
60 59 57
59 59 58
59 58 58
58 58 57
58 58 57
57 56 55
58 57 56
58 58 57
57 57 56
58 58 57
58 59 56
59 58 58
58 58 58
58 58 57
58 58 58
60 60 59
60 59 59
60 60 59
59 58 58
59 58 57
61 60 59
59 60 58
62 58 58
59 59 58
59 58 58
59 58 58
64 59 59
59 58 57
59 59 58
60 60 58
59 63 59
60 59 59
60 59 59
59 58 58
61 59 59
59 58 58
61 59 59
59 58 58
60 59 59
59 58 58
59 58 59
63 59 59
63 59 59
68 58 60
68 58 60
64 58 59
70 58 59
70 59 60
64 59 60
66 59 60
69 61 61
64 60 61
65 59 60
69 61 61
69 60 61
69 59 60
66 60 61
68 60 60
71 60 61
62 60 60
64 59 58
61 58 58
61 60 59
58 58 57
61 60 59
59 59 58
59 60 58
58 58 57
58 58 58
59 59 58
58 57 56
57 57 55
59 58 58
56 56 55
59 58 58
59 58 58
60 58 58
59 60 58
59 58 58
60 59 59
58 58 58
59 59 58
59 60 59
60 58 58
59 59 58
62 58 58
59 61 59
61 59 59
60 59 58
59 61 58
59 58 58
60 58 58
61 58 58
59 59 58
60 59 58
61 60 60
60 58 58
60 58 59
60 60 59
60 59 59
59 58 58
60 59 59
59 58 58
59 58 58
59 59 59
60 59 59
62 58 59
62 59 59
59 58 58
61 58 59
60 58 59
68 59 60
65 59 59
63 59 59
61 58 58
62 59 59
62 59 60
65 58 59
62 61 60
62 59 60
61 58 58
63 61 60
60 59 58
62 58 58
61 60 60
61 59 60
59 59 59
59 59 58
58 58 57
59 59 58
64 59 59
59 59 58
58 58 57
58 58 58
58 58 57
59 58 58
57 57 56
58 58 57
58 58 57
58 58 58
59 58 58
60 59 59
59 58 58
60 59 59
59 58 58
60 59 59
61 59 59
59 59 58
60 59 59
62 59 59
59 59 59
59 59 58
61 59 59
62 60 59
59 59 58
60 59 59
60 58 59
60 59 58
59 59 58
60 59 59
62 59 59
60 59 59
61 61 60
60 59 59
59 59 59
59 59 59
60 59 59
60 59 59
59 58 58
59 59 59
59 58 58
58 58 58
60 59 59
60 59 59
59 60 59
59 58 58
59 58 58
58 58 58
60 58 58
60 59 59
59 58 59
60 59 59
60 58 58
59 60 59
60 59 59
60 59 59
60 58 58
59 59 58
60 59 58
59 58 58
60 60 59
61 59 59
60 58 58
58 58 57
59 58 58
59 59 58
59 58 58
57 57 56
58 58 58
58 58 57
59 58 58
59 59 59
59 58 58
59 59 59
59 59 59
59 58 58
60 58 58
58 58 58
59 60 59
60 60 59
61 59 59
59 59 59
59 59 59
59 60 59
59 58 58
59 59 59
63 59 59
59 59 59
60 60 58
60 60 59
59 59 58
60 59 58
59 59 58
60 59 59
60 58 58
59 59 59
63 59 59
63 59 59
60 58 58
60 59 59
61 60 60
59 60 59
60 59 59
59 59 59
59 59 59
59 58 58
59 60 59
60 59 58
59 58 58
59 58 58
59 59 58
59 58 58
60 59 59
61 59 59
59 60 58
60 58 59
60 59 59
58 58 58
60 58 58
59 59 58
61 59 59
59 58 58
58 58 58
60 58 58
59 58 57
58 67 58
59 58 58
59 58 58
59 58 58
59 58 58
58 58 58
58 58 58
59 59 59
58 59 58
58 58 58
58 58 58
58 58 58
59 58 58
59 59 59
60 59 59
60 59 59
59 59 59
60 59 59
60 58 59
59 59 59
59 59 59
59 58 58
60 59 59
60 58 58
61 59 59
62 59 59
62 59 59
61 59 59
63 60 59
60 58 58
61 59 59
60 59 59
59 59 59
60 59 59
60 59 59
60 59 59
60 60 59
59 59 59
60 59 59
59 59 59
59 58 58
59 59 59
59 59 59
60 59 58
59 59 59
60 59 59
58 58 58
58 58 58
59 58 58
60 58 58
62 59 59
59 58 58
61 59 59
59 58 58
59 58 58
60 58 58
60 59 59
61 59 59
60 58 58
60 60 59
60 59 59
59 58 58
60 59 58
60 59 59
58 58 58
59 59 59
58 58 57
59 58 58
58 58 58
58 58 58
59 59 59
59 58 58
58 58 58
58 58 58
59 58 58
59 58 58
59 59 58
59 59 58
60 59 59
60 58 58
59 59 59
59 59 59
59 59 59
60 59 59
60 59 58
60 59 59
62 60 60
63 59 59
59 58 58
59 59 59
61 59 60
63 58 59
62 59 59
61 59 59
60 60 59
59 66 59
60 60 59
61 61 60
65 59 60
59 59 59
60 59 59
60 59 59
60 60 59
61 61 60
60 59 59
60 59 59
58 58 58
59 59 58
59 58 58
59 58 58
58 58 58
60 58 58
59 58 58
59 59 59
61 59 59
59 58 58
60 59 59
62 59 59
61 58 59
58 58 57
59 58 59
61 58 58
59 58 58
60 58 58
60 58 58
59 58 58
59 58 58
62 59 59
59 58 57
59 59 59
59 58 58
60 59 59
58 60 58
59 58 57
58 58 57
58 58 58
58 58 58
58 59 58
58 58 58
58 58 58
59 59 58
59 67 59
59 60 59
60 59 59
60 59 58
60 60 59
60 59 59
59 59 58
59 60 59
60 59 59
60 59 58
61 59 59
61 59 60
62 59 59
59 58 58
60 60 59
60 59 59
65 59 60
59 59 58
60 59 59
60 59 59
61 60 60
60 59 59
61 59 59
61 60 60
59 58 58
63 59 59
59 58 58
59 58 58
60 60 60
60 59 59
59 59 59
59 58 58
59 58 58
59 58 58
60 59 59
59 59 59
59 58 58
59 58 58
61 59 59
59 58 58
60 59 59
59 59 59
60 58 58
60 60 59
60 58 58
59 58 58
59 58 58
58 59 58
59 58 58
59 58 58
60 59 59
59 58 58
62 58 59
59 59 58
60 60 58
58 58 58
59 58 58
59 59 58
58 58 58
58 58 57
58 58 58
58 58 58
59 58 58
59 59 58
60 59 59
59 59 59
60 59 59
60 60 59
60 59 59
60 58 58
59 58 58
59 59 59
60 60 59
60 59 59
59 59 58
60 60 59
61 59 59
60 59 59
61 59 58
62 61 60
60 58 58
60 60 59
61 59 60
62 59 59
61 59 59
61 60 59
65 60 59
61 61 60
60 59 59
60 59 59
60 59 59
60 59 59
60 60 59
60 59 59
59 58 58
59 60 59
60 58 58
59 58 58
59 59 59
59 59 59
61 58 59
59 58 58
59 59 59
59 58 58
60 58 58
59 59 59
59 58 58
59 59 59
59 58 58
59 59 59
59 59 59
58 58 58
60 58 58
60 58 58
61 58 58
58 57 57
59 58 58
59 60 59
58 58 57
58 58 58
58 58 58
59 59 59
58 58 58
59 59 59
58 58 58
59 58 58
59 58 58
59 58 58
60 59 59
61 61 60
60 59 59
60 59 59
60 58 59
60 59 59
59 60 59
62 60 60
60 62 60
60 59 59
61 59 59
59 59 58
60 59 59
61 59 58
61 58 58
60 58 58
63 60 59
61 60 59
61 61 59
60 59 58
62 59 59
61 60 60
61 60 60
62 60 60
60 60 59
60 60 59
60 60 59
60 60 60
62 59 60
61 59 59
59 59 59
59 58 58
60 59 59
61 59 59
58 58 58
60 59 59
61 60 59
60 58 58
59 67 59
59 58 58
60 59 59
59 59 59
62 59 59
60 60 59
59 58 58
60 58 58
59 58 58
59 59 59
59 59 59
61 58 58
60 59 59
59 58 58
58 58 58
59 59 59
58 58 58
58 58 58
59 58 58
58 58 58
59 59 59
59 59 58
58 58 58
59 59 59
58 58 58
59 58 58
59 59 59
59 60 59
60 59 59
60 59 59
61 58 58
61 59 59
59 59 58
59 59 59
60 60 59
60 59 58
61 59 58
61 60 59
61 59 58
61 60 60
60 57 57
60 58 58
61 61 60
66 61 60
63 60 60
61 59 59
63 60 60
61 60 59
60 59 59
63 59 60
60 58 58
60 59 59
60 60 60
64 60 60
61 59 60
60 59 60
59 59 59
59 59 59
58 58 58
59 58 58
59 58 58
62 60 59
59 58 58
59 58 58
60 58 58
61 59 59
58 58 58
59 58 58
59 59 59
59 59 59
60 58 58
61 59 59
59 58 58
60 58 58
59 59 58
59 59 59
60 59 59
59 58 57
59 59 59
59 59 59
59 58 58
59 59 58
58 58 57
59 58 58
58 58 57
59 58 58
59 60 59
58 58 58
59 59 59
59 59 59
59 59 59
60 59 60
59 59 59
59 59 59
60 59 59
59 59 59
59 58 59
61 59 59
59 59 58
61 60 60
60 58 58
59 59 58
60 58 58
61 60 59
60 59 58
64 61 61
63 60 60
63 60 60
61 60 60
61 61 60
62 68 60
60 58 59
62 60 60
59 59 58
61 70 61
61 60 60
61 60 60
62 61 60
63 60 60
63 60 61
62 60 60
59 59 59
59 58 58
62 58 59
59 58 58
61 59 59
61 59 59
60 59 59
59 58 59
60 58 58
60 58 58
62 59 59
59 58 58
61 59 59
64 58 59
60 59 59
62 58 59
59 59 59
59 58 58
59 59 58
59 58 58
60 58 58
59 59 58
59 59 58
59 58 58
59 59 59
59 59 57
60 58 58
58 60 58
59 58 58
59 60 59
58 58 58
60 59 59
59 59 59
60 59 59
60 60 59
59 60 59
62 60 60
60 59 59
59 59 58
60 60 60
61 60 59
64 60 59
62 59 59
61 61 59
63 60 60
63 59 59
61 60 60
64 58 58
63 61 60
64 59 60
64 59 59
64 60 60
68 60 60
65 69 61
61 60 60
62 61 60
61 59 59
60 59 58
64 60 60
65 60 61
61 60 60
63 60 60
60 60 60
61 59 60
59 58 58
63 59 59
60 59 59
63 59 59
60 58 58
60 59 59
60 59 59
60 59 59
59 58 58
62 59 60
59 58 58
59 58 58
59 59 58
64 60 59
60 59 59
60 59 59
60 59 59
60 59 59
60 59 59
59 59 59
60 59 59
59 59 58
59 59 59
58 58 57
59 60 59
58 58 57
59 58 57
58 58 58
59 60 59
58 58 58
59 59 59
59 59 59
60 60 59
59 60 59
60 60 59
61 60 60
60 59 59
59 59 59
60 60 59
59 59 59
60 59 59
61 59 59
60 68 59
62 59 59
60 60 59
61 59 58
61 58 59
61 61 59
66 60 61
68 59 60
64 60 59
64 59 59
64 60 59
67 59 60
64 59 60
62 62 60
68 60 61
62 59 59
66 62 61
64 62 61
62 60 60
62 59 59
61 60 60
60 60 60
60 58 58
60 59 59
60 59 59
60 59 59
59 59 59
62 58 59
63 59 59
61 59 59
60 58 58
60 58 58
61 59 59
64 59 59
60 59 59
60 58 59
62 60 60
61 60 60
63 59 59
62 61 61
63 62 62
61 61 60
60 60 60
59 59 59
59 60 59
59 59 59
59 58 58
60 59 59
59 59 59
58 58 57
58 59 57
58 58 57
59 59 58
59 59 59
61 60 60
60 60 60
60 60 60
60 60 59
60 60 60
58 58 57
61 60 60
60 59 58
59 58 58
60 59 58
62 60 59
62 58 58
62 58 58
63 68 59
60 59 58
65 61 60
63 60 60
61 60 58
66 58 57
63 61 60
63 58 59
63 61 60
65 61 61
67 59 60
67 60 60
71 61 62
64 60 61
65 60 61
69 61 61
65 62 62
64 60 60
61 61 60
61 58 59
66 59 60
60 59 59
59 58 58
62 58 59
61 57 58
59 58 58
60 59 59
59 58 58
62 58 59
63 59 59
61 59 59
61 60 60
60 59 59
62 62 62
65 64 65
68 68 68
68 66 66
69 69 69
67 67 66
65 65 65
64 63 63
61 60 60
60 60 59
60 59 59
57 57 56
58 58 58
58 60 57
59 59 58
58 58 57
59 59 58
61 60 60
61 60 60
61 61 61
60 60 59
60 61 59
60 61 59
60 60 59
60 60 59
59 60 58
62 59 59
60 59 59
62 58 58
60 59 58
62 59 58
60 75 60
60 57 57
64 59 59
62 58 58
61 58 58
63 67 60
65 59 60
64 61 60
63 59 59
67 59 60
67 68 61
71 61 61
72 61 62
65 60 60
66 62 61
61 60 60
63 61 61
64 61 61
65 60 60
60 59 60
62 59 59
61 59 59
60 59 59
66 59 60
61 59 59
64 59 59
60 59 59
60 58 58
63 60 60
60 58 59
63 59 60
61 60 60
63 62 62
72 69 69
75 72 72
74 73 73
76 75 75
73 73 73
74 73 73
74 73 73
70 70 70
67 67 66
62 62 61
59 59 59
57 57 55
59 58 57
58 59 57
58 58 56
58 58 58
60 59 59
59 59 58
61 62 60
61 61 60
61 60 60
61 62 61
60 59 58
59 58 57
61 61 59
61 59 59
59 59 58
60 59 58
59 59 58
60 59 58
62 59 59
59 58 56
58 58 56
62 61 60
61 66 59
61 65 58
59 57 57
67 60 60
71 59 60
70 69 62
66 68 59
68 60 61
62 59 59
68 60 61
70 60 61
70 60 62
69 61 62
67 61 62
66 61 62
67 60 61
65 59 60
61 59 59
63 58 59
64 59 59
68 59 60
65 58 59
72 60 60
62 58 58
65 59 60
61 59 59
63 60 60
67 60 60
70 63 64
69 69 69
76 73 73
74 73 73
73 72 72
73 73 73
74 73 73
73 73 73
73 72 72
72 72 72
72 72 72
68 67 67
62 61 61
58 57 56
58 57 56
59 59 59
58 58 57
58 58 58
59 59 59
59 59 58
60 60 59
60 60 59
60 60 59
61 60 58
61 59 57
59 58 57
58 59 56
60 59 58
59 58 57
60 57 56
58 57 57
61 66 58
63 59 58
60 67 59
67 59 58
66 58 59
74 68 62
64 59 57
65 56 57
63 57 58
70 60 60
72 60 61
72 60 61
75 68 62
64 60 60
76 60 62
77 60 62
67 60 61
74 62 63
69 61 62
67 60 61
72 60 62
68 59 60
63 59 60
71 59 60
65 59 60
62 59 59
71 59 60
72 60 61
68 59 60
64 59 60
62 58 59
72 59 60
67 61 62
68 67 67
72 72 72
73 74 73
73 72 72
72 71 71
72 72 72
73 72 72
73 73 73
73 73 72
72 72 72
73 73 73
72 72 72
67 66 66
60 60 59
59 59 58
57 56 55
58 67 58
56 57 54
57 58 56
60 59 59
60 59 58
60 60 57
60 62 59
60 60 57
59 58 57
58 58 55
58 65 56
58 56 55
58 57 55
57 56 54
59 58 57
61 57 55
58 57 56
58 57 55
59 58 57
69 66 59
64 58 59
67 59 58
66 67 60
75 67 62
71 58 59
77 59 60
72 60 61
70 60 60
76 69 62
74 67 62
78 59 61
74 60 62
72 60 62
78 62 64
77 62 64
71 60 62
62 61 60
65 59 59
68 59 60
69 59 60
65 60 60
67 58 59
73 59 60
67 58 59
70 58 59
69 59 60
67 60 60
70 65 65
72 71 71
72 72 72
73 72 72
72 72 72
72 71 71
72 72 72
73 74 73
72 72 72
73 73 73
72 72 72
72 72 72
73 73 73
71 72 71
63 62 61
56 56 54
55 55 52
55 54 51
56 55 53
58 58 57
59 59 58
59 59 57
59 58 56
59 59 57
58 58 55
59 58 56
57 56 53
57 57 54
58 56 54
56 57 53
59 55 53
57 53 51
56 56 53
60 65 56
59 60 57
64 57 55
66 58 58
71 67 61
77 59 61
70 68 60
75 60 62
76 60 61
70 60 61
71 62 63
76 59 61
71 58 59
82 60 62
92 60 63
86 59 63
79 61 64
78 61 63
87 62 65
73 61 63
72 61 61
72 59 60
64 60 59
76 59 61
76 60 61
71 59 61
76 60 61
75 58 60
73 59 61
77 59 61
67 61 62
76 68 69
73 73 73
73 73 73
72 72 72
74 73 74
73 72 72
72 72 72
74 71 72
72 71 71
72 72 72
73 73 73
72 72 72
73 73 73
73 73 73
66 66 63
55 54 51
56 55 52
53 53 49
57 57 55
56 55 52
59 58 56
59 58 55
58 58 55
57 57 53
56 55 52
56 55 53
56 58 52
55 55 51
56 56 52
56 63 53
59 60 56
59 56 55
57 57 52
62 57 56
58 57 54
57 55 52
69 60 60
64 57 58
68 58 59
66 58 60
78 58 60
80 59 62
69 58 59
77 59 61
79 59 61
82 60 62
84 61 63
86 59 62
77 59 61
87 61 64
82 61 64
71 61 62
73 61 62
76 60 61
72 59 61
70 60 60
73 59 61
78 59 61
85 59 62
81 58 61
78 59 61
95 59 63
79 59 61
86 62 65
80 72 72
74 73 73
73 72 72
73 73 73
73 73 73
72 70 71
74 72 72
74 73 73
73 72 72
72 72 71
72 72 72
70 70 70
71 71 70
73 73 72
65 64 62
53 52 47
52 51 46
54 54 51
54 53 50
56 56 53
58 58 55
59 58 56
56 56 51
56 55 49
55 53 48
52 52 46
55 55 50
55 54 50
54 61 51
55 55 49
56 56 52
61 66 56
59 64 55
58 57 54
61 57 56
58 53 51
67 68 60
65 57 58
71 57 59
71 61 61
73 68 62
68 59 60
85 60 62
82 58 61
77 68 62
84 68 64
88 62 65
83 69 64
87 60 64
96 61 65
90 61 65
91 61 64
76 61 63
67 59 61
76 59 61
72 59 61
79 60 62
80 60 62
97 60 64
130 62 68
124 61 68
94 61 65
102 60 65
102 63 67
84 69 71
83 73 74
71 71 71
73 73 73
74 72 73
73 71 71
72 70 70
71 73 70
71 71 70
72 71 71
71 72 71
72 74 72
72 75 72
68 68 62
64 64 59
51 50 43
44 44 35
40 39 30
37 36 25
39 38 28
49 48 42
50 50 43
54 53 47
53 53 47
47 47 37
52 51 45
54 50 46
53 53 48
51 50 45
55 52 49
59 55 51
56 53 50
56 54 52
55 55 52
61 55 52
58 59 56
67 66 60
64 58 58
72 60 60
63 57 58
72 60 61
75 59 61
71 58 60
74 58 60
98 58 63
97 62 65
94 65 62
89 61 63
87 59 62
111 61 67
98 62 67
86 61 65
90 61 64
68 60 61
72 59 60
72 59 61
88 60 63
202 62 73
255 63 80
255 66 88
255 65 84
250 64 79
120 60 67
113 62 68
129 72 79
105 77 79
73 72 73
72 72 71
72 72 72
73 72 72
73 72 73
73 72 72
71 72 70
71 81 70
70 69 68
71 70 70
71 71 70
63 63 56
53 53 41
42 42 29
31 30 18
27 25 10
22 20 4
22 21 4
26 25 12
35 34 24
45 43 34
47 47 38
42 41 30
48 47 38
48 49 40
52 58 44
53 52 47
54 64 49
56 61 50
57 63 53
58 66 54
57 58 54
55 65 52
58 60 55
66 60 59
65 58 59
72 62 62
69 59 60
73 74 60
79 60 61
71 59 60
82 58 61
92 60 63
100 67 64
93 60 64
95 61 65
95 60 64
97 59 65
102 62 67
94 61 66
87 61 64
66 59 60
72 59 61
111 60 64
156 61 70
255 65 87
255 67 96
255 68 98
255 68 99
255 70 96
191 63 76
134 63 71
140 68 77
136 73 81
88 72 74
71 70 70
70 68 68
72 72 72
72 71 71
71 74 71
72 86 73
72 105 74
72 97 74
72 71 71
67 65 61
60 60 49
47 46 33
31 30 16
24 22 5
20 19 3
20 20 3
19 18 3
19 18 3
21 20 5
28 27 14
38 37 23
41 39 26
42 40 28
44 43 32
50 49 41
51 48 43
51 49 44
53 56 48
52 55 47
58 63 52
64 65 56
64 65 54
57 65 53
70 58 60
68 57 58
72 59 60
68 60 61
91 60 62
79 68 61
106 60 65
83 61 62
92 79 66
95 61 64
99 59 64
111 60 66
126 60 68
93 62 66
107 62 68
108 61 67
80 61 64
71 59 61
69 59 60
155 61 69
255 65 85
255 67 97
255 67 97
255 68 95
255 68 98
255 71 103
255 68 93
146 61 71
140 67 77
138 72 81
94 68 71
72 60 63
64 54 56
71 67 68
70 68 69
70 69 69
70 86 71
71 118 74
71 80 68
64 58 56
60 57 50
56 54 42
38 36 22
25 24 10
21 18 3
20 19 3
19 23 3
21 20 3
19 18 3
19 18 3
20 20 5
29 28 12
34 33 17
36 35 19
41 40 29
47 46 38
46 44 37
55 60 46
51 59 46
51 50 44
58 55 50
57 64 53
56 58 52
59 56 53
65 58 58
69 60 60
66 59 60
73 68 61
85 61 63
66 59 59
78 60 62
80 58 60
92 61 63
99 60 64
93 67 64
97 60 64
93 58 63
107 61 68
124 62 69
92 61 65
91 60 64
70 60 61
65 58 59
255 63 78
255 66 89
255 67 94
255 67 96
255 66 91
255 64 95
255 64 95
255 70 98
190 64 77
111 54 62
100 52 59
81 57 61
63 47 52
60 42 47
67 60 62
69 67 68
68 69 67
66 86 67
71 87 71
66 59 57
61 50 46
59 54 46
50 46 36
34 29 18
22 18 6
18 16 3
19 16 3
21 19 3
19 19 3
21 20 3
21 20 4
20 20 3
25 25 8
34 34 16
37 37 20
41 39 27
43 42 31
45 44 33
48 47 39
54 50 44
52 62 46
55 54 51
56 62 51
57 56 53
58 68 56
67 58 59
70 59 59
69 62 61
74 59 61
78 66 61
93 64 64
75 58 60
94 61 65
88 60 63
100 58 63
97 59 64
101 58 63
100 59 65
103 60 66
106 61 66
99 62 66
82 60 63
78 60 62
67 59 60
245 62 76
255 65 89
255 68 98
255 66 92
255 64 93
255 57 87
255 54 79
255 63 82
162 53 65
86 36 42
46 20 26
57 31 36
60 44 48
67 57 60
69 61 62
72 71 70
71 70 70
72 73 71
70 69 67
66 61 58
64 58 54
53 46 40
40 29 24
32 21 14
26 15 8
18 12 3
19 26 3
21 26 4
19 19 3
21 20 3
19 18 3
19 18 3
28 27 14
33 33 14
38 37 21
38 37 22
45 43 34
49 49 40
54 51 44
51 52 43
53 50 46
51 51 44
60 65 53
58 53 51
63 67 55
68 58 59
73 61 62
74 59 60
69 59 60
73 58 60
76 59 61
87 59 62
103 61 64
104 60 64
94 58 63
94 61 63
103 58 64
95 60 65
121 60 67
109 61 67
95 61 65
80 60 62
69 59 61
68 59 60
99 60 64
255 65 84
255 67 94
255 68 101
255 65 94
255 61 90
255 63 84
214 63 77
82 34 41
36 8 14
26 2 9
24 2 7
41 24 28
67 56 58
74 69 71
74 70 71
74 72 72
73 72 72
74 74 73
69 68 66
60 57 52
47 37 33
31 14 11
30 17 11
29 16 9
22 11 5
17 19 3
17 16 2
18 22 3
20 20 3
19 18 3
25 24 9
32 31 17
37 36 20
39 38 23
40 38 26
43 40 31
47 46 38
50 47 41
51 57 44
53 68 49
62 57 54
54 59 49
55 63 49
57 77 54
64 58 59
70 58 60
64 57 58
75 68 62
64 56 57
79 58 61
83 59 61
79 58 61
116 59 66
95 67 64
88 59 63
103 59 64
92 59 64
98 60 65
91 59 63
80 61 63
72 59 61
65 59 60
65 58 59
72 59 61
169 62 72
255 66 90
255 68 99
255 67 98
255 68 97
255 65 84
162 62 72
68 35 40
26 3 8
23 2 7
23 2 7
41 21 25
60 54 55
72 70 71
73 74 73
72 71 71
72 71 71
72 70 69
68 67 66
56 53 49
40 29 26
27 13 8
28 15 9
29 20 9
26 17 8
22 21 5
19 27 3
19 18 3
19 18 3
24 23 9
36 36 24
38 38 25
39 39 23
41 40 26
40 38 27
45 43 34
47 46 38
51 55 45
52 59 46
49 47 41
55 59 50
54 57 50
57 56 52
58 71 53
64 60 60
62 55 56
73 59 61
70 60 60
70 58 59
78 57 60
79 58 60
79 57 60
79 56 59
84 61 63
93 58 63
85 59 62
89 58 62
72 58 60
71 59 61
74 59 61
67 59 60
80 59 62
79 59 62
100 60 65
112 61 67
217 63 79
255 65 86
242 64 83
221 63 81
198 62 76
135 62 71
82 41 47
30 9 14
23 2 6
26 4 9
42 26 30
61 54 56
66 63 64
70 68 69
64 62 63
55 51 54
52 48 50
60 59 57
59 56 53
45 39 33
31 16 12
28 12 9
31 14 11
31 20 12
27 23 8
24 23 6
25 23 7
25 24 8
34 33 20
43 42 31
43 43 32
42 41 30
43 41 30
45 42 32
46 45 35
47 45 39
50 51 42
52 51 46
59 94 55
54 56 48
57 62 55
56 53 49
57 54 52
66 68 59
74 59 61
66 61 59
64 57 58
66 59 59
78 69 62
86 59 61
81 58 61
77 59 61
79 58 61
75 59 61
82 59 62
73 60 61
70 59 60
62 58 59
66 59 60
78 59 62
74 59 61
77 60 62
106 60 66
121 61 68
137 62 71
141 61 72
142 61 71
154 61 73
121 60 68
109 59 65
73 42 47
51 20 27
34 7 13
34 12 18
49 38 40
60 49 52
65 60 61
61 56 58
48 44 46
31 20 28
28 15 24
46 40 42
58 53 51
51 46 39
43 255 38
40 255 41
41 255 35
35 27 17
36 32 19
37 35 20
33 32 15
36 35 18
40 39 26
40 39 25
45 45 34
49 47 40
46 45 37
47 45 36
50 51 43
49 48 41
51 50 45
51 49 45
54 53 48
57 54 50
56 54 52
60 57 54
55 53 51
69 58 59
67 57 58
74 70 62
69 57 59
82 58 61
88 58 61
73 60 61
82 67 62
79 59 61
71 59 60
70 59 60
61 58 59
63 58 59
69 59 60
66 59 60
68 59 60
67 59 60
70 59 60
86 59 62
88 60 63
98 60 64
107 61 66
120 60 68
122 60 67
113 59 65
125 60 67
89 52 58
70 45 49
66 32 39
44 25 30
48 33 37
51 37 41
60 53 54
59 54 54
65 62 63
40 32 38
21 6 17
19 5 15
48 43 44
58 54 53
57 255 61
71 255 126
83 255 182
68 255 124
55 255 77
44 41 31
45 42 33
46 45 37
45 43 34
45 45 36
46 45 35
50 49 43
48 47 39
49 49 42
50 49 44
53 52 48
53 51 47
55 55 51
52 52 46
53 53 48
58 56 52
54 51 48
55 56 52
57 63 53
59 65 58
63 56 57
63 57 58
68 57 58
68 58 59
65 60 60
69 58 59
64 58 59
63 59 59
65 59 59
63 59 59
65 58 59
69 58 60
63 59 59
68 59 60
72 59 61
72 59 60
78 59 62
88 59 63
90 60 63
91 59 63
93 60 64
113 60 66
104 60 65
103 59 64
104 59 64
81 54 58
82 50 54
68 46 50
58 42 46
58 48 50
56 51 53
64 58 58
60 61 58
60 57 58
47 40 44
33 20 29
32 19 29
47 40 44
59 56 55
61 255 71
86 255 178
98 255 228
89 255 189
69 255 121
49 47 41
49 49 41
49 48 43
49 48 42
47 47 40
50 49 44
50 50 44
50 50 44
50 49 44
54 52 49
53 52 49
55 55 50
53 53 48
54 71 52
54 54 49
57 55 51
59 59 53
55 55 50
57 57 52
67 59 59
60 58 58
71 66 60
69 59 60
65 58 59
62 58 59
61 58 58
62 57 58
63 61 60
60 58 58
65 58 59
63 57 58
65 59 59
66 59 60
77 59 61
76 59 61
76 61 61
72 58 59
81 59 62
89 60 63
91 60 64
101 60 64
85 60 63
89 60 63
103 60 64
92 57 61
79 53 56
72 55 57
74 51 54
59 52 53
57 52 53
60 56 58
59 55 56
61 57 57
59 57 57
53 43 49
44 33 41
46 38 43
52 60 51
58 59 55
61 255 72
79 255 140
87 255 172
86 255 174
66 255 98
53 56 48
54 53 49
48 49 41
52 50 46
52 52 47
51 51 46
51 51 46
54 53 48
53 52 48
53 53 49
54 54 50
55 56 53
55 56 53
56 55 53
55 55 52
58 58 55
57 54 53
58 64 54
56 56 54
66 57 59
59 58 58
62 56 57
59 58 58
59 58 58
64 58 59
62 58 58
61 60 59
61 62 60
68 59 60
65 58 59
63 58 59
63 59 59
68 59 60
76 59 61
69 59 59
67 59 60
72 59 61
65 59 59
79 59 62
87 59 62
74 59 60
76 58 60
86 60 63
88 58 61
74 59 60
75 57 59
72 56 58
69 56 57
63 54 55
67 58 59
62 57 58
60 56 57
59 55 56
59 57 58
58 56 57
58 60 58
55 60 53
55 55 53
58 90 58
61 176 68
69 255 94
77 255 125
73 255 116
63 255 80
56 103 57
53 55 48
54 54 51
52 51 47
53 53 48
52 53 47
54 53 50
56 56 53
55 55 53
55 56 52
56 55 53
56 56 55
57 56 54
57 58 55
58 57 56
57 57 55
57 56 55
57 56 54
58 57 56
61 60 59
61 58 58
61 60 59
60 58 58
60 58 58
59 58 58
60 57 58
58 58 58
60 58 59
62 59 59
64 59 59
63 59 59
60 59 59
67 59 60
67 58 59
71 59 61
65 57 58
82 59 61
70 59 60
70 59 60
80 59 61
76 60 62
77 59 61
80 58 61
74 57 59
75 58 61
73 57 60
68 56 58
66 58 59
65 60 60
66 57 58
63 59 59
60 58 58
61 56 56
59 57 57
58 56 57
60 59 58
58 59 57
57 74 57
58 72 56
62 116 65
64 169 73
66 245 82
65 243 80
61 208 73
56 97 57
54 65 52
55 62 53
54 61 50
56 56 52
55 54 51
55 55 52
54 55 50
54 54 51
55 54 53
56 55 53
56 57 53
56 56 54
57 58 55
57 56 55
57 58 55
57 57 56
56 56 53
59 58 56
60 58 58
59 59 58
61 58 58
60 58 58
61 58 58
60 58 58
59 58 58
61 59 59
64 59 59
65 59 59
62 58 59
66 57 58
65 59 59
71 59 60
65 58 59
63 59 59
76 59 61
62 58 59
67 58 59
69 59 60
71 59 60
68 58 59
69 58 59
70 56 58
77 58 60
72 59 61
81 57 60
67 57 58
65 55 57
67 59 59
65 59 60
70 58 59
60 57 58
62 55 56
58 57 57
58 56 56
60 59 59
58 74 58
59 61 57
60 87 60
59 73 59
60 114 65
61 130 66
61 119 65
59 164 66
59 106 61
57 71 56
56 66 54
56 57 53
55 55 52
55 54 52
54 54 50
55 55 52
54 53 49
56 55 52
56 56 53
57 59 56
57 56 55
57 56 54
56 56 54
57 58 55
57 58 56
56 56 55
57 58 55
61 58 59
60 59 59
59 58 58
60 58 58
59 58 58
60 59 58
60 58 58
61 60 59
60 59 59
60 59 59
60 58 58
63 59 59
61 58 59
62 59 59
67 58 59
64 59 60
72 59 61
70 59 60
65 59 60
77 59 61
77 60 60
72 59 60
71 58 60
70 58 59
69 59 60
71 58 60
66 57 59
67 59 59
63 57 58
75 57 60
68 60 60
66 58 59
60 56 56
59 57 57
64 56 57
57 55 55
58 57 56
60 58 57
58 56 57
60 88 60
58 78 59
60 105 63
62 105 64
61 137 65
58 81 58
58 88 59
57 70 56
54 53 50
57 58 55
56 56 54
55 55 52
56 54 53
57 56 54
56 56 54
56 57 55
56 55 54
57 56 55
57 57 55
57 59 55
57 56 55
58 57 56
58 59 57
58 58 56
57 58 55
59 58 58
60 58 58
60 59 59
61 58 59
61 58 58
59 58 58
60 57 58
61 59 59
65 60 60
64 59 59
61 58 58
61 58 58
67 59 60
61 58 59
63 58 59
62 59 59
64 59 59
63 59 59
66 58 59
69 59 60
70 60 61
68 61 61
65 59 60
67 59 60
65 58 59
70 57 59
70 59 60
72 57 58
64 58 58
64 57 58
69 57 58
68 58 59
60 56 57
61 57 57
58 56 57
60 60 59
59 57 57
59 57 57
58 83 58
60 76 59
59 73 58
59 67 59
60 91 62
59 92 60
59 67 58
58 83 58
56 66 54
58 70 57
57 57 55
55 59 53
57 66 56
56 55 53
56 56 54
58 57 56
57 56 55
55 55 52
57 58 56
57 56 55
58 57 56
57 57 56
57 56 54
59 58 56
56 56 55
58 57 56
60 59 59
61 59 59
63 58 59
62 58 59
62 58 59
60 58 58
64 58 59
62 60 59
62 59 59
60 58 59
60 59 59
67 59 60
67 59 60
61 59 59
64 59 59
66 58 59
62 59 59
67 58 59
64 59 60
71 58 59
70 59 60
64 59 60
66 58 58
71 58 60
66 59 60
71 58 59
70 57 58
72 58 60
73 58 59
66 58 59
62 58 59
63 56 57
63 59 60
62 59 58
59 67 58
59 58 58
59 57 57
59 59 58
62 59 58
60 75 59
59 86 61
60 80 60
58 77 58
59 87 60
59 69 59
58 75 58
58 74 57
58 68 57
57 73 57
56 67 55
57 57 55
57 56 55
57 57 55
58 59 56
57 56 54
58 57 55
57 56 55
58 61 57
57 57 56
57 57 55
58 57 56
56 56 55
55 54 52
58 58 57
59 58 58
62 58 59
61 58 58
60 58 58
63 58 59
61 58 58
62 59 59
66 58 59
59 58 58
60 59 59
66 59 59
67 58 59
68 61 60
64 58 59
68 58 59
64 59 59
65 59 60
62 57 58
64 59 59
63 58 58
60 58 59
62 59 60
67 59 59
66 58 59
74 59 60
60 58 59
60 58 58
71 58 59
63 59 60
70 57 59
70 60 61
69 59 60
58 57 57
67 59 59
58 55 55
60 60 59
62 67 58
59 75 58
58 66 57
63 67 60
61 95 61
61 64 59
59 86 59
59 105 62
57 66 56
58 75 57
56 59 54
57 58 56
58 57 56
57 59 55
57 57 56
57 56 55
57 57 55
57 56 54
56 58 54
57 56 55
57 58 56
57 56 55
57 56 55
58 58 56
58 58 57
58 57 56
57 57 56
57 57 56
60 58 58
60 59 58
58 57 57
59 58 58
59 58 58
60 58 58
59 58 58
62 58 59
61 58 59
61 59 59
61 59 59
62 59 59
62 60 59
62 58 59
63 58 59
68 59 60
63 60 60
64 58 59
66 58 59
60 58 58
66 57 58
71 58 59
63 58 59
67 58 59
66 57 57
68 57 58
71 59 60
71 59 60
67 57 58
64 58 59
70 59 60
66 67 60
64 57 58
61 57 58
62 58 58
58 57 57
64 68 60
64 68 60
64 59 56
60 79 60
60 72 60
62 72 59
60 88 62
58 60 57
59 69 58
57 66 56
58 62 57
58 70 58
57 56 54
56 56 54
58 61 56
58 58 55
57 66 55
58 58 57
57 56 55
57 55 54
56 56 55
56 56 53
58 58 57
57 58 56
58 58 57
58 57 57
58 58 57
57 57 56
59 58 58
60 58 58
64 58 59
61 60 59
63 59 59
60 58 59
63 58 59
60 59 59
63 57 58
70 59 60
64 59 60
62 59 59
64 58 59
64 59 60
67 58 59
60 58 59
63 59 59
62 59 60
64 58 59
60 58 58
70 58 60
66 59 60
70 59 60
60 59 59
74 59 60
76 58 60
62 59 58
73 59 60
62 60 59
63 59 60
65 65 59
60 56 57
61 58 59
62 61 59
61 58 58
59 67 59
63 58 58
59 66 58
60 58 57
60 76 60
63 62 59
58 58 57
60 68 59
58 56 55
57 59 57
58 85 59
57 57 55
58 68 57
57 59 55
59 66 58
57 68 57
57 58 56
58 76 59
57 56 55
58 57 56
57 57 56
58 57 56
57 55 54
58 57 57
57 58 55
57 57 56
58 57 56
58 57 56
57 58 55
62 58 59
62 59 59
62 58 58
61 58 59
59 58 58
64 59 59
58 58 58
64 58 59
66 58 59
64 58 58
60 59 59
62 58 59
62 58 59
65 58 59
63 59 60
68 59 60
63 58 58
64 57 58
59 59 59
65 58 59
66 59 60
65 58 59
76 59 61
67 59 60
62 59 59
68 58 59
64 56 56
72 59 60
71 60 61
65 60 59
59 58 57
61 56 56
71 56 58
62 59 58
61 56 57
60 66 58
65 74 59
63 77 60
66 58 59
59 75 59
58 67 58
57 58 56
58 58 56
57 61 56
60 67 59
58 66 57
59 61 58
58 57 57
62 60 58
57 58 55
58 77 59
57 59 56
57 65 55
58 57 56
57 58 56
57 57 56
57 58 56
56 56 54
58 58 57
58 57 56
58 58 57
58 59 57
58 57 56
58 57 57
59 58 58
59 58 58
68 58 59
62 59 59
65 58 59
62 59 59
60 59 59
66 58 59
62 57 58
68 59 60
61 59 59
66 59 59
70 59 60
61 58 59
62 58 58
63 58 59
60 58 59
61 58 59
68 59 60
62 58 58
66 58 59
67 58 59
68 59 60
72 60 60
60 58 58
62 58 58
66 58 59
66 58 58
68 58 59
69 58 59
65 58 58
63 60 59
64 57 58
65 56 57
66 61 60
61 58 58
61 55 55
59 58 58
57 57 56
66 78 60
61 73 59
62 69 58
59 62 59
58 68 59
58 68 58
58 56 55
57 67 56
58 75 58
58 58 57
57 57 55
59 58 58
58 74 57
61 59 57
57 57 56
57 64 56
59 67 58
57 56 55
58 60 57
57 57 56
58 58 57
57 56 55
57 57 55
58 59 57
58 59 58
61 58 59
67 60 60
64 59 59
70 58 59
60 58 58
59 58 58
60 59 59
63 58 59
71 59 60
62 59 59
68 59 60
65 59 59
64 59 60
62 59 59
66 58 59
63 58 59
59 57 58
65 59 59
64 58 58
67 58 59
64 59 60
78 59 61
64 59 59
69 58 59
68 58 59
63 60 59
68 59 60
69 58 59
66 60 60
66 60 60
67 65 59
62 58 58
67 58 59
70 59 60
60 68 59
65 67 60
62 77 60
62 58 58
61 65 58
59 59 58
56 62 54
59 77 60
58 61 58
59 78 58
58 58 57
58 61 58
58 67 58
59 60 58
57 65 56
58 56 56
57 56 55
57 56 55
57 61 57
57 56 54
57 57 56
57 56 55
58 58 58
57 57 56
58 66 58
57 56 55
58 57 56
59 58 57
58 58 57
57 57 55
64 59 59
63 59 59
63 58 59
59 59 59
70 58 59
66 58 59
61 58 59
64 58 59
59 58 58
60 58 58
64 58 59
60 58 59
62 58 59
66 59 60
67 58 59
67 59 60
65 58 59
60 58 58
62 58 58
61 59 59
70 59 60
63 59 59
66 57 58
65 58 59
63 58 58
71 58 59
65 58 59
62 58 58
63 59 59
62 58 58
67 58 59
64 57 58
62 57 57
67 57 57
63 66 58
60 58 57
59 57 57
63 56 57
61 93 62
62 66 58
58 66 57
58 66 57
63 67 58
59 74 58
58 60 57
60 65 60
58 59 57
58 59 57
58 57 56
56 56 54
59 66 58
57 65 57
59 57 57
57 56 55
57 58 56
58 59 57
58 59 57
58 58 57
57 57 56
58 57 57
58 58 57
58 57 56
58 57 56
57 57 55
65 59 59
61 58 59
59 58 58
64 59 59
60 59 59
62 58 59
61 58 59
63 59 59
63 59 59
59 58 58
62 59 59
60 59 58
67 59 60
65 58 59
59 58 58
59 58 59
70 61 61
66 59 59
64 59 59
58 58 58
64 57 58
63 59 59
59 56 56
68 59 60
64 61 60
71 58 59
65 58 59
69 60 61
60 59 59
66 68 60
63 59 58
60 58 58
61 66 59
65 59 59
59 66 58
62 57 58
61 66 58
62 69 59
59 61 58
59 58 58
61 61 59
59 57 57
59 57 56
58 60 58
59 66 58
58 57 56
58 59 57
59 58 58
58 59 57
59 61 58
58 59 58
57 58 56
57 69 57
60 58 58
58 65 57
57 56 55
57 58 56
58 58 57
59 67 59
57 58 56
59 59 58
59 57 57
57 56 55
59 58 57
62 59 59
60 59 59
63 60 59
62 58 58
60 58 59
59 58 58
63 58 59
66 59 60
68 59 60
63 59 59
62 58 59
60 58 58
59 59 58
62 58 59
64 58 59
64 58 59
72 59 60
69 59 60
63 57 58
67 60 60
66 58 59
64 58 59
62 59 59
61 58 59
65 60 60
60 57 58
60 57 57
59 57 57
61 58 58
63 59 59
59 60 59
69 58 59
68 58 59
60 57 57
64 75 60
62 58 58
59 58 57
65 60 59
62 61 58
65 58 58
58 59 57
57 56 56
60 59 58
59 59 58
61 60 57
59 59 58
59 59 57
58 57 57
59 58 58
58 60 58
56 55 54
57 57 56
58 69 58
59 58 57
57 57 55
58 59 56
57 58 56
58 65 57
58 61 57
58 59 57
58 67 58
57 57 56
57 58 56
57 57 56
60 58 59
63 59 59
62 59 59
64 59 59
65 58 59
62 58 58
60 58 58
60 58 58
62 58 59
65 59 59
63 58 58
59 59 59
62 58 58
62 57 58
65 59 60
60 59 59
63 58 59
66 58 59
63 61 60
60 58 58
59 58 58
60 59 59
59 58 58
63 60 59
64 61 60
63 58 59
58 57 57
67 58 59
65 57 58
72 62 61
60 59 58
60 58 58
59 57 58
62 58 58
62 57 58
64 59 59
63 68 59
61 58 58
61 60 58
61 61 59
58 58 58
60 61 59
59 66 57
58 59 57
59 59 58
58 78 59
57 57 55
57 56 56
57 65 57
59 60 57
59 58 57
58 57 57
58 67 58
58 66 57
58 59 57
58 68 57
58 58 58
58 58 57
58 58 57
57 57 57
58 57 57
58 57 57
58 57 57
58 58 58
60 58 59
62 58 58
61 59 59
65 58 59
64 58 59
58 58 58
62 59 59
62 58 58
62 59 59
60 58 58
60 59 59
60 58 59
66 58 59
62 58 58
60 59 59
63 58 58
62 58 59
59 58 59
64 59 59
70 60 60
60 59 59
62 57 58
64 59 59
65 59 60
59 58 58
61 58 58
64 58 58
59 58 58
60 66 58
63 69 60
58 57 57
59 75 59
64 66 59
62 60 58
64 57 58
59 66 58
63 57 57
59 57 57
60 57 57
59 61 59
58 57 57
58 57 57
61 59 57
59 86 60
59 59 58
59 58 58
58 59 56
59 59 57
60 58 57
59 66 58
59 57 56
58 58 57
58 59 57
59 58 57
58 57 56
58 58 58
57 65 57
58 57 56
59 59 58
58 59 57
58 60 57
57 58 57
59 58 58
58 66 58
58 58 58
61 58 59
63 59 59
59 59 58
63 59 59
61 58 58
61 58 59
60 59 59
66 59 60
61 58 59
59 58 58
62 58 58
60 58 59
61 57 58
69 60 60
62 59 59
59 57 57
66 58 59
61 58 59
59 59 58
63 58 59
61 59 59
63 58 59
62 58 58
62 57 57
60 58 59
61 60 59
63 59 59
64 59 58
66 58 59
63 61 59
60 57 57
63 58 59
64 59 59
62 58 58
62 66 59
64 58 57
59 59 58
59 58 58
60 58 58
59 56 56
61 57 57
59 57 57
61 61 57
60 60 58
58 59 57
60 58 58
57 56 55
58 59 57
58 57 56
59 67 59
57 57 56
61 66 58
58 58 57
58 57 56
59 66 59
59 61 58
58 59 58
58 58 58
57 67 57
58 57 56
58 57 56
59 58 57
59 57 57
62 58 58
65 59 60
59 58 59
62 58 59
60 59 59
59 58 58
69 59 60
66 59 60
62 58 58
64 58 59
67 61 60
63 58 59
64 59 59
59 58 58
67 58 59
61 59 59
63 58 58
60 58 58
67 59 60
59 59 58
61 66 59
62 58 58
60 59 59
63 58 59
62 59 59
61 66 59
62 59 58
64 58 59
60 59 58
61 58 57
59 58 58
69 66 60
59 59 58
66 60 59
58 57 56
58 57 57
58 65 58
61 76 59
59 58 58
59 58 57
58 58 57
60 58 58
63 57 57
58 73 57
61 57 56
58 59 58
59 58 58
58 67 58
57 57 57
61 66 58
58 59 57
59 65 57
59 57 57
59 76 59
58 57 57
58 59 57
57 65 56
57 57 56
59 58 58
58 57 57
58 57 56
58 58 58
61 58 57
59 57 56
60 59 59
62 59 59
61 58 59
62 57 57
59 58 58
59 59 58
65 58 59
61 59 59
59 58 58
65 58 59
59 58 58
59 58 58
60 58 58
63 58 59
60 58 58
63 57 58
59 58 58
59 59 59
64 59 59
64 58 58
59 57 57
61 58 59
62 57 58
65 58 59
63 58 58
62 58 58
59 58 58
60 57 58
65 58 59
64 58 58
62 66 59
65 58 58
59 57 57
61 57 58
58 57 57
65 59 59
64 74 60
58 59 57
59 66 58
58 57 57
58 57 56
60 65 58
61 66 58
58 58 56
58 58 57
60 59 58
62 67 59
58 59 57
57 59 56
58 59 57
59 67 59
57 57 55
61 57 57
59 59 58
58 62 58
58 57 57
58 59 57
57 65 57
61 58 58
58 57 57
59 59 59
59 67 58
59 59 58
58 58 57
