P3
# Rays 2018
64 64
255
60 61 59
58 59 58
58 59 58
60 61 60
59 59 58
60 61 59
60 60 59
63 66 61
69 75 65
78 90 70
64 66 62
68 73 65
61 61 60
62 63 61
66 70 64
66 73 62
67 72 65
66 71 63
65 68 63
82 96 73
73 83 68
62 64 61
62 64 61
69 77 65
61 65 61
82 96 73
68 73 65
62 63 61
68 76 64
64 67 63
67 73 64
61 63 60
62 67 60
74 83 68
63 65 61
60 65 59
64 70 62
65 70 62
64 69 63
59 61 59
57 59 58
68 76 65
56 58 57
58 59 58
62 68 61
59 63 59
59 61 59
58 60 58
60 62 60
56 60 56
59 63 58
57 61 56
56 58 57
53 56 55
56 57 57
58 59 58
57 59 58
58 60 58
57 58 58
59 59 59
58 59 58
57 58 57
60 61 59
58 59 58
59 59 59
60 62 60
57 58 58
59 60 59
59 60 59
59 60 59
61 62 60
59 60 59
64 68 62
69 75 65
69 76 65
65 69 63
64 68 62
71 78 66
60 61 59
65 68 63
79 91 71
65 70 63
65 69 63
67 71 64
69 75 65
75 86 69
61 63 60
70 76 66
64 68 62
68 74 64
69 78 65
66 69 64
66 71 63
65 69 63
62 63 61
70 78 66
62 64 61
67 74 64
62 66 60
61 65 60
60 63 60
61 64 60
59 62 59
65 70 63
61 64 61
66 72 63
57 59 58
57 60 58
59 61 59
59 60 59
62 67 61
60 64 59
57 60 58
59 60 59
58 59 58
56 58 57
57 58 57
55 57 55
56 58 57
55 56 56
57 58 58
58 58 57
60 61 59
58 59 58
58 58 58
59 59 58
58 59 59
60 61 60
59 60 59
59 59 58
59 59 59
59 60 59
59 60 59
61 63 60
59 59 59
61 62 60
60 60 59
64 67 62
72 79 67
70 77 66
67 72 64
65 69 62
71 79 66
62 63 61
65 68 63
65 71 62
65 69 63
66 71 63
60 62 60
80 93 72
66 69 63
66 71 62
68 73 64
61 62 60
67 73 64
69 76 66
71 81 66
63 66 62
65 69 62
64 68 62
59 59 59
66 70 64
62 64 61
63 67 61
69 79 65
63 66 62
59 60 59
60 62 59
57 58 58
61 63 60
59 62 58
57 61 57
60 65 59
62 65 60
57 58 58
57 59 58
60 61 60
57 59 57
55 57 56
59 60 59
61 65 59
57 58 57
58 59 58
57 58 58
59 60 59
58 59 59
57 58 58
57 58 57
57 58 57
59 60 59
58 59 58
61 63 60
59 60 59
59 59 59
59 59 59
59 60 59
60 61 60
58 59 58
59 59 59
60 60 59
59 60 59
60 60 59
64 67 62
63 66 61
72 81 67
63 65 61
64 66 62
69 74 65
65 70 62
76 87 70
71 82 65
69 76 65
66 70 63
61 63 60
66 71 63
65 70 62
66 70 63
74 83 69
76 87 70
61 63 60
68 74 64
71 80 65
61 63 61
63 68 62
66 71 64
72 83 67
60 63 60
61 65 61
63 67 62
58 61 58
61 64 60
59 61 59
57 59 58
59 61 59
58 60 58
58 59 58
56 58 57
56 58 56
60 61 60
60 63 59
54 57 55
55 57 56
59 63 59
56 58 57
58 60 58
55 57 56
56 57 56
58 58 58
58 58 58
59 60 59
58 58 58
58 59 58
58 58 58
58 59 59
60 61 60
58 58 58
62 65 61
61 62 60
61 63 60
60 61 60
59 60 59
60 60 60
61 62 60
58 58 58
59 60 59
58 59 58
63 66 61
60 61 60
63 65 62
69 75 65
63 66 61
62 63 61
62 64 61
74 83 68
64 66 62
62 64 60
71 77 66
69 75 65
63 66 62
67 72 63
66 73 63
73 80 68
63 67 61
65 68 63
62 64 61
67 72 65
67 72 64
66 71 64
68 75 65
65 70 63
67 73 65
66 71 63
64 69 62
59 60 58
63 67 61
57 59 58
62 65 61
61 65 61
61 65 60
58 61 59
59 59 59
57 63 57
57 59 58
56 57 57
59 64 58
54 56 55
57 58 57
57 58 58
56 57 56
56 57 57
58 60 58
57 58 58
59 59 59
58 58 58
57 58 57
60 61 59
59 59 59
58 58 58
58 59 58
59 60 59
59 59 59
60 61 60
59 60 59
60 61 60
59 60 59
58 58 58
59 59 59
58 58 58
60 61 59
58 59 58
60 61 59
61 63 61
63 65 62
67 71 64
68 73 64
67 72 64
65 69 63
64 68 62
63 65 62
64 67 62
67 74 63
62 63 61
70 76 66
67 73 63
65 68 63
68 75 65
64 66 62
65 68 63
66 70 64
64 66 62
69 76 65
68 73 65
61 64 61
65 70 63
57 59 58
62 66 61
63 67 62
69 77 65
61 63 61
62 66 61
59 60 59
60 65 60
58 59 58
64 69 61
59 60 59
56 58 57
56 57 56
59 60 59
56 57 56
55 58 56
55 57 56
57 58 57
56 57 56
57 58 58
60 61 59
58 59 58
59 59 59
61 62 60
59 59 59
60 62 60
58 59 58
59 60 59
58 59 58
58 58 57
61 63 61
61 62 60
58 59 58
60 62 60
58 58 58
59 59 59
57 58 58
60 60 59
59 59 59
61 61 60
61 61 60
58 59 58
66 70 63
63 66 61
76 88 69
61 63 60
65 70 63
66 70 63
67 73 64
67 72 64
73 80 68
70 77 66
68 73 65
72 80 67
70 77 66
63 65 62
71 77 66
63 66 62
65 70 63
74 85 69
67 72 65
64 66 62
68 75 65
71 78 67
60 62 60
64 69 62
63 65 62
67 75 63
65 71 62
63 67 62
61 64 60
61 66 61
60 63 59
62 66 60
57 59 58
58 59 58
57 58 58
57 58 58
56 58 57
60 64 59
55 56 55
55 56 56
55 57 56
58 58 58
58 59 58
59 60 59
59 59 59
59 60 59
60 61 59
59 60 59
57 58 57
63 66 61
59 60 59
59 60 59
64 67 62
58 59 58
59 60 59
59 60 59
63 65 61
58 59 58
59 59 59
64 67 62
59 59 59
59 59 59
59 59 59
60 60 59
61 62 60
68 75 64
62 64 61
67 71 64
63 65 62
61 63 60
66 69 63
67 72 64
67 73 63
64 66 62
77 88 70
62 64 60
68 72 65
70 76 66
70 75 67
64 66 63
74 82 68
62 64 61
62 65 61
67 72 65
61 62 61
63 66 62
65 70 63
65 70 63
71 81 67
68 76 64
58 61 59
60 61 60
59 60 60
61 65 61
58 60 59
62 66 61
57 58 58
59 61 59
58 62 57
56 57 57
58 60 58
57 58 58
55 56 56
58 58 58
57 58 58
58 58 58
59 60 59
58 58 58
58 59 58
59 60 59
60 60 60
60 61 59
59 59 59
59 60 59
59 60 59
60 61 60
59 60 59
59 60 59
58 58 58
59 60 59
58 59 58
59 59 59
58 59 58
58 59 58
59 59 59
59 60 59
60 62 59
59 60 59
59 59 59
61 63 61
61 61 60
64 67 62
71 77 66
71 78 66
64 67 63
66 70 63
67 71 64
73 81 68
77 87 71
68 74 64
67 71 64
66 70 64
69 76 65
68 73 65
67 71 64
68 73 65
71 80 67
74 82 69
67 72 65
62 64 62
63 65 62
63 67 62
60 61 60
63 68 62
59 61 59
59 62 59
59 62 60
59 61 59
59 60 59
56 58 57
57 58 57
57 58 58
58 59 58
56 58 57
58 59 58
58 59 58
58 58 58
58 59 58
58 59 59
58 58 58
57 58 58
58 59 58
59 60 59
58 59 59
60 60 60
58 58 58
58 60 58
60 61 60
59 60 59
60 61 59
61 62 60
59 60 59
60 61 60
59 60 59
60 61 59
58 58 58
59 59 59
59 60 59
59 59 59
59 60 59
62 63 61
59 60 59
58 59 58
59 59 59
61 62 60
65 68 62
64 67 62
70 77 66
70 78 66
66 70 63
69 74 65
72 79 67
72 80 67
67 73 64
65 68 63
67 71 65
71 79 67
62 63 61
68 72 65
67 71 65
61 63 60
65 69 64
75 84 70
66 71 64
66 70 64
62 66 61
64 67 62
61 63 61
57 59 58
59 60 59
58 59 59
57 59 58
59 62 60
58 59 58
57 59 58
55 57 56
53 55 55
57 59 58
57 59 58
58 59 58
57 58 57
58 58 58
58 59 59
59 60 59
59 59 58
58 59 59
59 60 59
60 61 60
58 59 58
60 61 60
60 60 59
59 60 59
58 59 58
59 60 59
60 62 60
60 61 60
60 60 59
59 60 59
59 60 59
61 62 60
62 66 60
60 61 59
60 61 60
61 64 60
59 60 59
61 62 60
59 60 59
60 60 59
59 59 58
60 61 60
69 75 65
61 63 60
64 67 62
73 81 67
64 67 62
65 68 63
68 74 65
64 66 63
66 69 64
63 65 62
78 90 70
62 63 61
66 69 64
68 71 65
65 69 63
66 68 64
72 81 68
65 67 63
66 70 64
61 62 61
60 62 61
60 61 60
59 61 59
58 59 58
58 59 59
60 62 59
60 64 60
57 59 58
57 58 58
54 56 56
55 57 57
57 58 57
57 58 57
57 58 57
58 59 58
58 59 58
59 60 59
59 60 59
58 58 58
60 60 59
60 61 59
61 62 60
59 60 59
61 63 60
60 60 59
58 58 58
59 60 59
59 59 59
58 59 59
63 67 61
63 65 61
60 60 59
59 59 59
59 60 59
59 60 59
59 59 59
59 60 59
59 60 59
61 63 60
60 60 59
59 59 59
62 64 61
60 60 60
60 61 59
61 62 60
64 67 62
67 72 63
72 80 67
69 75 65
77 88 70
70 78 65
62 65 61
72 81 67
66 70 63
61 63 60
60 61 60
66 69 64
74 81 69
64 67 63
61 62 60
77 89 70
61 62 61
69 76 65
63 66 62
60 61 60
60 61 60
59 61 59
63 67 62
60 61 60
58 61 59
57 59 58
57 58 57
57 58 57
58 59 58
57 58 58
56 57 57
57 58 57
57 58 58
58 58 58
59 59 59
58 59 58
59 60 59
58 58 58
59 60 59
59 60 59
60 60 60
58 58 58
60 62 60
59 60 59
61 62 60
61 63 60
60 61 59
60 61 60
59 59 59
58 58 58
60 61 60
59 60 59
59 60 60
61 62 61
58 59 58
58 59 58
59 60 59
60 60 60
59 59 59
60 61 60
59 60 59
60 61 60
59 59 59
60 61 60
60 60 59
63 66 61
62 63 61
62 64 61
61 62 60
60 61 60
65 69 63
68 74 64
61 63 60
64 67 62
64 67 62
61 61 60
58 59 59
64 67 63
71 78 67
64 67 62
60 61 60
59 59 59
59 60 59
58 59 58
63 66 62
61 62 60
58 59 58
59 59 59
57 58 58
58 59 59
59 60 59
56 57 57
58 59 59
57 58 58
57 58 58
59 59 59
59 59 58
58 59 59
58 58 58
59 59 59
59 60 59
59 59 59
59 60 59
59 59 58
58 59 58
63 67 61
60 61 60
59 60 59
60 62 60
60 61 59
59 61 58
59 59 59
61 64 60
61 62 60
60 60 60
59 59 59
60 61 59
63 66 61
60 61 60
59 59 59
60 61 60
59 59 59
58 59 58
59 60 59
59 59 59
60 61 60
60 60 59
59 60 59
59 59 58
59 60 59
58 59 58
59 60 59
60 61 60
60 61 60
59 60 59
59 60 59
61 61 60
61 62 60
61 62 60
60 60 59
58 59 59
61 62 60
61 61 60
60 60 59
61 62 60
60 63 59
60 60 59
63 67 62
59 59 59
59 59 59
58 58 58
63 65 61
58 59 59
58 58 58
57 58 58
59 59 59
58 58 58
57 58 57
58 58 58
58 58 58
58 58 58
59 60 59
58 59 58
59 59 59
60 60 59
59 59 59
59 60 59
59 60 59
61 62 60
65 69 63
59 59 59
61 63 60
62 65 61
64 67 62
62 63 61
59 60 59
58 59 58
59 60 59
58 59 58
60 60 60
60 61 60
59 59 59
60 61 60
59 59 59
58 59 59
59 60 59
60 61 59
61 62 60
58 59 59
59 59 59
59 59 59
59 59 59
59 59 59
58 59 58
59 59 59
60 60 59
60 60 59
59 59 59
59 59 58
60 60 59
59 60 59
60 61 59
59 60 58
61 63 61
62 63 61
58 59 58
63 66 62
58 59 58
59 60 59
62 64 60
58 59 58
59 61 59
58 58 58
57 58 58
57 58 58
58 59 58
59 59 59
58 59 58
57 58 58
57 58 57
58 58 58
58 58 58
58 58 58
58 59 58
60 60 59
58 59 59
58 58 58
59 59 59
59 59 58
59 59 58
59 60 59
60 61 60
59 60 59
59 59 58
61 62 60
59 59 58
60 61 60
59 60 59
60 61 60
63 67 62
60 62 60
62 63 61
63 65 62
67 71 64
60 60 59
58 60 58
60 61 60
59 59 59
60 61 60
60 60 60
60 60 60
60 61 59
59 59 59
60 60 60
60 62 60
59 60 59
60 61 59
60 61 60
59 59 59
60 61 59
60 61 60
60 61 60
60 60 59
61 62 60
59 60 59
59 59 59
63 65 62
59 60 59
60 60 59
63 65 62
59 60 59
59 59 59
58 59 58
58 59 58
59 60 59
58 58 58
58 58 58
59 59 59
58 58 59
58 59 58
57 59 57
58 58 58
58 58 58
57 58 58
59 60 59
58 58 58
59 60 59
59 60 59
59 60 59
59 60 59
58 59 58
58 59 58
59 60 59
59 59 59
58 59 59
58 59 58
60 62 59
63 67 61
60 60 60
59 60 59
59 59 59
60 61 60
59 60 59
58 59 58
59 60 59
61 63 61
60 60 60
64 67 62
60 61 60
64 68 62
61 62 61
60 60 59
61 61 60
60 60 60
60 61 60
59 59 59
60 61 60
60 60 59
59 59 59
61 62 60
58 59 58
59 60 59
59 60 59
59 59 59
58 58 58
63 65 61
59 60 59
60 61 60
61 63 61
60 60 59
60 62 60
59 60 59
59 60 59
59 60 59
60 61 60
59 60 59
60 61 59
59 60 59
63 66 61
58 58 58
62 64 61
59 59 58
59 60 59
60 60 59
58 58 58
59 59 58
57 58 58
58 59 58
58 59 58
58 59 59
58 58 58
59 60 59
59 60 59
60 61 60
58 59 59
59 60 59
59 60 59
59 59 59
61 61 60
59 60 59
59 60 59
62 63 61
58 59 58
59 60 59
60 61 60
61 62 60
59 59 59
59 59 59
60 61 59
59 60 59
63 67 62
59 59 59
59 60 59
60 61 60
60 61 60
61 62 60
60 61 60
61 62 60
63 65 61
59 59 59
59 59 59
60 61 60
59 59 59
59 59 59
58 59 58
63 66 61
60 60 59
59 60 59
59 59 58
59 60 59
59 60 59
60 61 60
59 60 59
59 60 59
59 59 59
62 65 60
59 60 59
63 65 61
58 59 58
58 59 58
60 60 59
60 61 60
59 59 59
58 58 58
57 58 58
58 58 58
59 60 59
58 58 58
59 59 58
58 59 59
59 60 59
57 58 57
59 59 59
58 59 58
58 59 58
59 59 59
58 59 58
60 60 59
59 60 59
58 59 57
60 60 60
60 60 60
59 60 59
60 61 60
59 60 59
60 60 60
64 67 62
59 60 59
61 62 60
61 62 60
59 60 59
59 60 59
64 67 62
59 60 59
60 60 59
60 62 60
59 60 59
63 67 61
62 65 60
63 67 62
59 60 59
61 61 60
59 60 59
61 62 60
61 61 60
60 60 60
60 61 60
60 60 59
59 60 59
59 59 58
59 60 59
59 59 59
60 61 60
59 59 59
59 59 59
60 60 59
60 61 59
60 60 59
59 60 59
60 61 59
64 67 62
58 59 58
59 60 59
59 59 58
59 59 59
60 60 59
59 60 59
60 60 59
59 59 59
58 59 58
60 61 60
57 58 57
60 60 60
60 61 60
57 58 58
57 58 58
60 61 60
58 58 58
58 58 58
59 59 59
59 59 59
59 59 59
59 59 59
60 61 60
59 60 59
60 61 60
59 60 59
60 61 60
60 61 60
59 60 59
60 62 60
59 59 58
65 71 62
61 62 60
59 60 59
62 64 61
65 69 62
60 61 60
58 59 58
62 66 61
62 64 60
59 61 59
63 65 61
65 68 63
62 63 61
61 62 60
61 62 60
59 60 59
60 61 60
61 62 60
59 60 59
61 62 60
59 60 59
57 58 57
59 60 59
62 64 60
59 61 59
62 64 60
59 60 58
59 60 59
59 59 59
60 61 60
59 60 59
61 62 60
60 61 60
59 60 59
61 63 60
60 61 59
58 58 58
59 59 59
59 60 59
60 61 59
58 58 58
59 60 59
57 58 57
59 59 59
58 59 58
58 58 58
57 58 57
59 59 59
58 59 59
58 58 58
58 58 58
58 58 58
60 60 60
59 60 59
59 59 59
59 59 59
59 60 59
60 60 60
60 60 60
61 62 61
60 61 60
65 69 62
60 60 60
60 61 59
60 61 59
63 66 62
58 59 58
60 62 60
60 61 59
68 74 65
63 66 62
60 61 60
60 62 60
61 62 60
61 62 61
63 65 62
60 60 60
59 59 59
61 62 61
61 62 60
61 62 60
62 64 61
61 62 61
60 60 59
62 65 61
58 58 58
59 59 59
59 59 59
63 66 61
60 60 60
62 63 61
61 62 60
61 62 61
60 60 59
58 59 58
60 61 59
60 61 60
63 65 61
59 61 59
59 59 59
59 59 59
61 62 60
60 60 59
58 59 58
59 59 59
59 59 59
58 59 58
59 60 59
59 60 59
58 58 59
58 58 58
58 59 58
58 59 58
57 58 58
58 58 58
59 60 59
60 60 59
59 60 59
60 61 60
60 61 60
59 60 59
59 60 59
59 60 59
60 61 60
60 63 60
60 61 60
59 59 59
60 61 59
62 66 61
60 61 59
62 64 61
60 61 59
59 61 59
60 62 60
64 67 61
62 63 61
61 62 60
61 63 61
64 67 62
61 61 60
66 70 64
63 66 62
60 61 60
61 62 60
63 64 62
61 62 61
61 62 60
61 61 60
59 59 59
59 61 59
62 65 61
59 59 59
59 59 59
63 66 62
59 60 59
60 60 59
61 62 60
59 59 59
60 61 60
59 60 59
59 61 59
60 61 60
59 60 59
61 62 60
58 59 58
59 60 59
58 59 58
60 61 60
59 60 59
59 60 59
59 60 58
58 59 59
58 59 58
58 58 58
59 59 59
59 59 59
58 59 58
59 59 59
58 59 59
58 59 59
58 59 58
60 60 60
60 61 60
59 59 59
60 60 59
59 60 60
59 60 59
59 61 59
59 60 59
60 61 59
58 59 59
60 61 59
59 60 59
63 68 61
59 61 59
59 61 59
66 71 63
63 64 62
63 66 62
60 61 59
69 77 65
61 62 61
60 61 59
64 66 63
64 65 62
62 64 61
62 63 61
64 66 63
63 66 61
62 63 61
62 63 61
61 61 60
60 60 60
59 61 59
60 60 59
59 60 59
60 61 59
61 62 60
59 61 59
59 60 59
60 60 59
59 59 59
58 60 58
64 67 62
61 62 60
61 62 60
60 61 60
60 61 60
61 62 61
59 59 58
60 60 60
59 59 59
59 59 59
58 59 59
57 59 58
59 60 59
58 58 58
59 60 59
60 61 59
58 59 58
58 59 58
58 59 58
59 59 59
57 58 58
60 60 60
61 61 61
59 60 60
61 62 61
61 62 61
59 60 60
60 61 60
62 65 60
60 62 59
59 60 59
59 61 59
59 61 59
62 65 61
66 72 63
59 60 58
61 63 59
64 68 62
59 61 59
64 68 62
66 71 64
70 77 66
62 64 62
62 63 61
59 61 59
61 62 60
68 72 65
66 68 64
66 69 64
68 72 65
61 62 61
61 62 61
60 60 60
64 68 62
61 62 60
62 65 61
60 61 59
61 62 60
65 69 63
60 61 59
65 68 62
60 61 60
60 61 60
59 59 59
60 60 59
58 59 59
60 60 59
61 62 60
60 61 60
60 60 60
60 61 60
62 62 62
61 62 62
60 61 60
58 59 58
59 59 59
57 58 57
57 58 57
59 60 59
58 58 58
59 60 59
59 59 59
58 59 58
59 60 59
60 60 60
60 60 60
61 61 61
59 60 60
59 61 59
58 59 58
60 61 60
59 60 60
59 60 59
60 60 60
60 60 59
59 60 59
58 59 58
59 61 60
59 61 59
61 63 61
64 68 62
67 71 64
63 65 61
74 85 68
62 65 61
60 63 59
71 77 67
63 66 62
72 80 68
65 68 63
65 67 64
73 81 67
64 66 63
63 66 62
65 68 63
65 68 63
62 63 61
63 66 61
63 66 61
59 60 59
60 63 59
67 73 64
59 60 59
68 74 65
59 59 58
60 61 60
64 68 62
67 72 64
61 61 60
69 75 65
63 67 62
66 69 64
66 67 66
69 69 69
70 71 70
69 70 69
69 70 69
65 66 65
64 65 64
61 62 61
58 59 59
58 59 58
58 58 58
59 60 59
59 60 58
57 58 57
58 58 58
58 58 58
59 59 59
60 60 60
59 60 60
60 60 60
58 58 58
59 60 60
60 61 60
59 61 59
59 61 60
60 62 60
59 61 59
67 75 64
57 59 58
59 61 59
63 69 60
63 68 61
61 66 59
62 64 60
64 67 63
62 65 61
71 78 66
64 66 63
63 65 61
65 69 63
64 68 61
70 77 66
68 74 64
65 68 63
72 79 67
73 81 69
64 66 63
63 63 62
62 63 62
62 63 61
61 62 60
63 66 61
61 62 60
61 62 60
66 71 64
64 67 61
62 67 60
63 65 61
60 61 59
60 61 60
60 60 60
61 61 60
64 64 63
68 69 68
73 75 71
75 76 74
75 77 74
75 76 74
72 72 72
71 71 71
72 73 72
67 67 67
60 61 60
57 58 58
58 60 59
57 59 58
56 57 57
57 57 57
57 59 58
62 65 60
59 59 59
58 59 59
59 60 60
59 60 60
60 61 60
56 58 57
61 63 61
58 59 58
57 59 58
59 61 59
58 61 59
57 59 57
58 60 58
60 61 60
61 62 60
59 62 59
67 74 65
69 76 65
66 70 63
63 65 61
65 70 63
67 73 63
65 68 64
72 79 67
70 76 66
73 79 68
71 79 66
71 77 67
66 69 64
69 76 65
71 77 67
79 90 72
71 77 67
65 68 63
69 76 66
61 62 60
61 63 60
61 64 60
59 61 58
68 75 64
67 73 64
61 62 60
65 70 62
69 76 66
67 71 65
65 66 64
69 70 69
73 74 73
75 76 75
73 74 73
74 74 74
73 74 73
72 72 72
72 73 73
74 74 74
72 72 72
67 67 67
63 64 63
58 59 58
56 58 57
57 58 58
57 59 58
57 58 58
58 58 58
59 59 59
60 61 60
59 60 60
59 60 60
58 59 58
61 65 60
57 60 59
58 59 59
55 58 57
57 59 57
57 60 57
59 60 59
60 64 59
61 65 59
56 59 58
59 62 58
71 80 66
70 79 65
61 63 60
66 71 64
71 80 66
75 88 68
68 75 63
67 72 64
69 75 66
74 82 69
77 89 70
80 94 72
73 78 69
71 78 67
66 68 64
63 65 62
68 73 65
62 64 61
62 63 61
67 72 64
70 77 65
62 63 61
64 67 62
64 69 62
62 65 61
60 62 59
71 79 66
64 68 62
65 66 64
70 73 69
76 79 75
72 72 72
73 73 73
73 73 73
72 72 72
72 72 71
72 72 72
73 73 73
73 73 73
72 72 71
73 73 73
66 68 66
56 58 57
56 58 58
56 58 57
53 56 55
62 66 60
57 58 58
58 59 59
59 61 60
60 61 60
56 58 58
56 59 58
56 58 57
57 59 58
59 61 60
56 58 57
56 60 57
57 59 58
58 60 58
58 59 57
59 62 58
59 63 59
55 59 56
70 80 64
69 78 64
71 78 66
73 82 67
73 84 67
76 86 69
76 88 70
81 95 73
80 93 71
72 81 67
85 103 74
76 87 69
73 82 67
75 84 69
89 106 78
77 85 71
73 80 68
69 75 66
67 72 64
66 70 63
69 76 64
63 65 62
64 67 63
69 76 65
66 70 64
76 86 70
67 72 64
62 64 61
73 78 70
72 72 72
73 74 73
74 74 74
73 73 73
71 72 71
73 74 73
73 73 73
72 72 72
72 72 72
73 74 73
72 72 72
71 72 71
69 70 70
63 64 63
55 58 56
54 56 56
53 56 56
55 57 56
54 56 56
59 60 60
56 59 58
58 60 60
54 58 57
56 60 58
55 58 56
55 59 56
55 58 57
55 58 57
59 65 57
52 57 53
56 59 56
51 55 52
58 60 57
59 63 59
60 66 59
68 75 64
70 79 64
70 77 66
69 77 64
66 72 63
82 99 72
70 77 65
85 101 75
78 89 71
72 82 66
77 87 71
83 98 74
83 95 75
81 90 74
80 91 73
70 74 67
74 82 69
68 72 66
65 68 63
72 78 68
68 73 65
82 97 73
64 67 62
74 82 69
71 79 66
70 79 66
87 104 77
76 85 70
75 80 71
73 74 73
73 73 73
72 72 72
72 72 72
72 72 72
71 72 71
73 73 73
73 74 73
72 72 72
71 72 71
72 73 72
72 72 72
72 72 72
61 63 63
54 57 56
47 52 51
53 57 56
49 54 53
53 56 55
57 59 59
57 60 59
58 60 59
57 60 59
52 56 55
54 58 56
50 55 53
49 55 52
53 56 55
52 59 53
54 57 56
55 58 56
55 59 56
55 58 56
57 62 57
57 60 57
70 79 65
65 69 62
74 84 67
72 80 67
81 96 72
72 79 67
81 97 72
100 129 83
98 124 83
89 107 78
85 100 75
83 98 74
98 121 84
91 109 80
98 119 84
79 88 73
76 83 71
65 68 63
64 67 62
76 87 69
67 71 64
82 94 73
75 85 69
89 106 78
86 102 76
87 104 77
99 122 84
102 127 87
83 90 78
75 76 75
73 74 73
72 72 72
72 72 72
73 74 73
72 73 72
73 73 73
71 71 71
71 71 71
73 73 73
70 71 71
72 73 72
73 74 73
63 66 65
49 54 53
46 52 50
49 54 53
46 51 50
50 55 54
56 58 58
53 57 56
52 57 56
52 57 56
44 51 49
52 56 55
51 55 54
48 53 50
50 55 52
52 55 53
56 61 56
56 62 56
54 56 53
51 55 53
52 56 51
60 69 58
69 78 64
69 76 65
71 81 66
68 75 64
74 84 68
80 92 72
75 84 69
74 85 68
86 104 76
90 108 79
81 94 72
94 116 81
97 120 83
81 92 74
96 117 83
98 118 85
75 82 71
66 69 64
69 74 65
71 78 67
85 101 75
76 84 70
107 139 88
119 159 95
127 171 101
123 163 99
98 121 84
116 150 96
106 127 93
82 87 79
72 73 72
71 72 71
72 72 72
74 74 73
74 76 74
71 72 72
71 72 71
71 71 71
72 73 72
71 72 71
71 72 71
68 71 69
53 59 58
47 54 52
39 47 45
28 39 36
33 41 39
28 39 36
34 43 41
46 53 51
47 53 52
43 52 50
40 49 47
44 52 49
42 50 47
47 53 50
49 54 51
54 62 55
50 55 52
53 58 53
54 56 55
60 66 58
53 56 53
55 59 55
66 70 64
67 72 64
68 76 64
69 78 64
76 86 70
73 82 68
77 89 70
75 86 69
116 151 95
104 133 87
112 145 92
86 101 77
109 139 91
97 117 84
103 126 88
86 99 78
79 90 72
72 79 68
69 75 65
77 87 70
101 132 83
176 255 123
255 255 194
255 255 192
255 255 208
255 255 175
121 163 97
124 163 101
135 172 112
92 101 86
73 74 73
72 73 72
72 72 72
73 74 72
73 73 73
71 72 71
70 72 71
72 73 71
71 72 71
72 72 72
70 71 71
58 66 62
41 53 50
30 42 39
16 30 26
6 23 19
4 22 17
5 22 18
13 28 24
22 35 31
36 44 42
39 49 46
34 46 43
40 48 46
38 48 45
53 62 54
48 52 51
51 55 53
53 57 53
50 55 51
59 68 56
55 59 54
52 56 53
54 57 55
70 77 66
67 74 63
67 72 63
79 93 71
78 92 71
87 105 76
90 109 79
84 100 74
84 103 73
96 121 81
100 129 83
106 135 88
110 142 91
109 140 90
97 115 85
99 118 86
81 92 74
69 73 66
78 86 71
81 93 73
196 255 134
255 255 227
255 255 255
255 255 255
255 255 255
255 255 255
255 255 194
133 178 106
149 198 119
129 158 110
83 91 78
68 71 67
69 71 68
71 72 71
71 72 72
77 85 74
81 90 76
97 121 83
75 79 72
71 71 71
66 68 67
51 61 58
27 42 38
15 30 27
4 21 17
2 20 16
2 20 16
2 20 15
2 20 16
5 22 18
15 31 28
18 34 30
22 38 35
29 43 40
34 46 43
43 50 47
46 54 48
46 51 48
53 59 53
50 57 52
52 55 53
55 65 54
56 63 55
59 66 56
66 72 64
68 75 63
71 78 66
68 75 64
79 92 72
83 99 73
85 102 74
76 88 69
99 123 84
105 135 87
89 107 78
103 130 87
101 123 86
114 147 94
116 145 97
99 119 85
77 85 71
71 77 67
69 73 66
176 255 122
255 255 209
255 255 255
255 255 255
255 255 255
255 255 255
255 255 255
255 255 255
118 153 96
137 178 112
143 183 117
83 92 78
61 70 58
60 69 58
68 71 67
70 70 70
76 84 73
82 95 76
90 107 79
73 76 67
61 59 53
56 58 54
41 53 50
17 34 30
6 23 18
2 18 13
2 19 15
3 24 16
2 19 15
2 20 16
2 19 15
3 21 17
12 30 26
14 33 29
20 36 32
28 41 37
34 44 41
41 48 45
49 54 50
47 53 50
47 52 49
53 60 52
51 55 51
58 64 56
62 69 58
67 75 63
69 76 65
72 81 68
67 73 64
68 77 63
79 91 72
87 109 75
92 113 80
93 117 80
102 129 85
100 121 86
99 122 84
110 138 92
110 136 93
105 129 89
106 128 90
84 96 76
73 79 69
72 78 68
222 255 148
255 255 251
255 255 255
255 255 255
255 255 253
255 255 255
255 255 255
255 255 255
220 255 152
112 147 92
115 149 94
85 102 76
57 73 51
55 68 51
62 69 60
66 69 66
66 66 69
73 80 70
70 71 67
58 54 48
55 50 44
49 52 47
38 45 41
18 27 22
9 22 17
2 21 14
2 21 13
2 19 15
2 21 16
3 24 17
2 20 16
2 20 16
9 28 24
13 32 28
18 36 32
24 39 36
31 42 38
42 54 46
45 54 47
45 56 45
49 54 51
48 55 47
63 75 59
55 61 53
53 55 53
70 77 66
64 68 62
73 82 67
71 78 67
73 82 68
83 99 74
80 92 72
100 126 84
102 131 84
103 129 87
108 135 91
85 103 75
98 119 85
99 121 85
117 147 97
100 121 86
93 112 81
72 79 68
69 75 66
255 255 175
255 255 233
255 255 255
255 255 255
255 255 255
255 255 255
255 255 255
255 255 221
173 255 121
79 113 63
43 72 33
51 76 43
45 69 39
59 72 54
61 71 57
69 72 68
71 71 71
68 67 69
69 68 65
63 62 59
59 59 53
42 45 40
28 26 20
18 16 10
12 15 8
5 14 9
2 16 11
2 20 15
2 19 15
2 21 16
2 21 16
4 21 17
8 26 21
14 33 29
17 35 31
27 40 36
29 40 36
36 47 43
38 46 42
44 49 46
53 63 52
55 65 52
58 67 55
63 74 59
58 67 56
69 75 65
67 74 64
71 77 66
66 69 64
70 78 65
91 112 79
81 92 74
92 111 80
96 118 82
101 128 85
88 103 78
122 159 99
111 141 92
114 146 94
109 137 92
98 118 84
83 95 75
69 74 66
67 71 65
109 149 88
255 255 204
255 255 247
255 255 255
255 255 255
255 255 255
255 255 255
255 255 191
74 106 59
21 54 13
7 36 2
7 37 2
33 55 28
62 72 59
72 75 71
72 74 72
73 74 73
71 72 70
73 73 72
68 68 65
56 58 55
39 35 29
18 10 2
18 9 1
19 11 2
12 11 5
5 14 8
2 19 13
2 18 13
3 26 18
2 21 16
8 25 21
17 34 30
21 38 34
20 36 32
24 38 34
29 40 36
38 46 42
39 47 43
42 49 46
55 61 53
54 63 51
56 66 54
52 58 53
54 62 53
65 71 62
64 70 62
71 79 65
84 102 73
72 81 67
78 90 71
95 119 80
88 108 77
106 134 88
101 128 85
83 98 75
95 118 81
86 101 76
103 127 87
77 87 71
86 102 77
73 81 68
64 66 62
70 76 66
80 91 72
219 255 150
255 255 255
255 255 255
255 255 255
255 255 255
255 255 213
210 255 148
47 73 38
7 36 2
7 37 2
7 36 2
21 42 18
59 65 58
71 72 71
73 73 73
72 72 72
72 72 71
70 71 69
65 66 66
56 56 54
34 30 22
17 9 1
21 14 2
21 13 2
13 13 6
6 16 11
2 18 13
2 22 14
2 17 13
12 26 23
25 37 34
26 40 37
24 39 36
26 40 36
30 43 38
36 46 42
35 44 41
39 51 42
40 48 44
50 56 49
50 58 50
52 57 52
55 66 52
68 82 60
64 67 62
66 71 63
73 82 67
76 87 69
78 92 71
64 71 61
101 128 85
86 105 75
107 139 88
111 141 92
108 136 90
93 113 80
79 89 72
75 83 70
79 89 72
68 72 65
66 69 64
69 74 66
85 98 76
99 119 86
129 168 104
248 255 173
255 255 210
255 255 220
237 255 166
187 255 138
133 173 108
73 102 60
21 47 15
7 36 2
9 37 5
25 47 22
64 76 59
66 68 65
67 69 66
61 61 62
53 52 56
50 49 54
57 59 59
55 57 53
36 35 29
22 16 8
20 12 2
20 12 2
20 21 15
10 24 19
6 24 20
5 25 21
9 28 23
20 35 32
28 41 39
33 45 43
31 43 41
29 41 38
36 45 42
36 44 42
41 48 45
43 49 47
54 60 51
45 51 48
47 51 48
54 61 53
57 64 54
56 59 55
64 68 62
70 77 66
65 71 62
76 87 70
86 105 76
72 84 65
74 83 69
87 106 76
85 99 76
87 103 76
73 81 68
81 95 72
71 77 67
66 69 63
66 69 64
69 73 66
77 87 71
70 77 66
84 97 76
110 139 92
132 172 106
146 193 115
168 227 129
134 173 108
145 192 115
128 168 103
128 172 102
96 132 76
38 69 27
11 40 5
18 42 12
41 57 36
55 64 53
61 64 60
64 67 63
43 43 49
23 21 35
24 22 35
45 44 47
55 54 51
46 44 37
77 139 35
180 255 60
117 255 42
32 52 22
22 34 29
20 36 32
16 34 31
22 38 35
23 39 35
30 43 40
32 44 42
35 45 43
37 46 43
40 47 44
42 48 45
45 50 48
44 48 46
48 52 48
48 53 50
49 52 48
65 77 60
57 66 54
56 59 55
65 68 63
70 77 65
60 64 58
74 86 67
71 79 66
83 97 74
75 87 69
83 99 74
83 99 74
72 80 68
71 78 67
65 67 62
62 64 61
62 64 61
64 66 62
72 80 68
73 81 68
75 85 69
91 109 79
98 121 84
101 126 85
113 148 93
111 142 91
139 190 109
133 178 106
85 103 74
88 110 75
93 127 74
56 81 45
40 65 32
35 52 31
49 62 45
54 61 51
56 60 55
62 64 61
36 35 44
9 6 26
15 13 28
44 44 50
58 58 57
94 158 58
255 255 142
255 255 242
255 255 175
189 255 80
36 40 36
31 42 38
30 42 38
31 43 40
34 45 43
37 47 45
41 49 47
41 50 47
42 49 47
44 49 47
45 52 49
50 52 50
47 50 48
51 55 51
49 53 50
49 53 49
56 63 53
62 70 59
52 55 52
71 80 66
75 88 68
64 68 62
66 69 63
74 87 67
68 74 65
67 72 64
66 69 63
67 71 64
63 66 61
65 67 63
64 67 62
66 69 63
70 77 66
68 73 65
66 71 63
67 72 64
79 91 72
80 94 72
103 130 86
107 136 89
121 160 98
85 101 75
118 154 95
104 130 87
102 133 84
76 92 67
97 131 78
57 70 52
49 62 44
53 69 47
48 57 46
55 60 54
59 61 59
58 60 59
47 48 52
19 16 34
24 21 38
39 38 46
57 57 55
191 255 96
255 255 219
255 255 255
255 255 255
246 255 107
43 45 41
42 48 46
37 45 42
38 47 45
44 50 48
44 51 48
43 51 49
46 51 50
48 52 51
47 52 50
49 53 52
51 54 53
52 55 54
56 61 56
52 59 52
51 55 52
55 60 54
56 59 55
55 58 54
71 81 65
66 70 63
64 68 62
71 80 65
67 72 63
61 63 59
61 62 60
67 72 64
60 61 60
63 64 61
60 62 60
65 67 63
66 70 64
62 63 61
71 78 66
68 74 65
74 84 67
79 90 72
78 90 71
87 107 76
85 102 75
92 113 79
97 120 83
94 117 80
92 115 79
91 113 78
70 81 64
69 81 63
64 74 59
67 83 60
61 72 56
55 60 54
59 65 56
57 60 56
58 61 58
54 54 56
36 34 46
38 37 48
47 47 51
61 65 58
124 221 78
255 255 180
255 255 232
255 255 221
255 255 138
48 51 49
44 49 46
45 50 48
50 54 52
49 53 52
50 54 53
46 52 50
50 55 52
49 55 52
50 53 53
49 55 52
52 54 53
52 55 54
55 57 56
55 56 55
61 68 59
55 57 55
56 61 55
58 63 56
63 69 61
62 65 60
59 60 58
62 64 61
59 61 59
63 66 61
62 64 61
62 64 61
63 65 62
63 65 61
65 70 63
60 62 60
68 74 64
66 71 64
71 78 66
65 68 62
68 74 64
73 81 67
66 70 64
78 90 71
76 87 69
88 104 78
81 95 73
92 112 80
81 97 72
81 97 71
95 121 81
69 81 63
77 91 69
61 69 58
62 68 59
60 63 58
57 60 56
57 61 57
57 58 58
59 62 60
52 52 55
54 54 55
53 55 53
61 67 58
87 120 69
184 255 108
255 255 143
227 255 125
161 255 91
61 74 55
55 61 53
47 52 49
50 54 51
51 54 53
46 51 49
48 52 51
51 54 53
51 54 53
51 55 53
53 56 54
54 57 55
55 58 56
55 56 55
55 57 54
56 58 56
55 57 55
58 60 57
54 56 54
58 59 58
61 63 60
60 61 59
60 62 60
60 61 60
62 64 61
62 64 61
65 68 62
63 65 61
61 62 60
62 64 61
68 74 65
72 80 67
62 64 61
67 72 64
70 75 66
71 78 67
73 82 68
86 101 76
67 70 65
78 90 71
74 81 69
75 84 69
74 83 68
65 73 61
63 68 60
72 80 67
60 64 58
64 71 61
77 92 69
58 62 57
60 67 58
58 61 57
57 59 57
58 59 58
56 58 58
57 59 57
56 57 56
60 66 56
72 87 63
70 79 62
90 115 72
131 188 93
115 160 85
98 142 74
62 74 57
56 62 54
53 56 54
53 57 55
53 56 54
54 57 55
52 55 54
53 56 55
53 56 55
54 56 55
53 57 55
55 57 56
56 58 56
55 59 56
53 55 54
55 56 55
55 56 56
56 59 56
57 59 57
62 63 61
58 59 58
58 59 58
60 61 60
61 62 60
64 68 62
60 61 59
61 62 60
62 64 61
67 71 64
65 69 63
64 68 62
66 71 63
72 80 67
71 77 66
66 71 63
65 69 63
66 71 63
71 78 67
66 71 63
83 96 75
66 71 63
67 72 64
70 78 65
73 83 67
69 76 65
58 61 57
65 71 62
64 70 61
64 71 61
65 74 61
62 65 61
59 61 58
57 58 57
59 61 59
56 58 56
58 60 59
57 59 56
60 61 60
63 66 61
69 80 61
83 105 69
96 130 75
96 132 75
77 95 66
62 72 59
60 69 57
55 57 55
52 55 53
52 55 54
52 54 54
52 56 53
54 57 55
54 56 55
55 57 56
52 56 54
55 57 56
56 57 56
55 58 56
57 58 58
56 58 57
55 57 56
54 56 54
57 58 57
60 61 59
63 65 61
60 61 59
59 60 58
62 64 61
59 60 58
60 62 59
68 74 64
64 67 62
61 62 60
66 69 63
64 68 62
65 69 63
71 77 66
63 65 62
68 73 65
69 76 65
70 76 66
69 75 65
67 72 64
70 76 66
68 73 64
70 78 66
63 68 60
67 74 64
62 63 61
74 84 68
70 79 64
64 69 61
66 72 62
63 67 61
69 78 64
61 66 59
60 62 59
58 59 59
62 65 60
60 62 59
63 69 59
59 61 57
66 75 61
70 81 64
76 92 66
88 115 71
79 100 67
69 83 62
66 76 60
61 69 58
58 62 57
55 58 56
54 57 55
55 57 55
54 56 55
54 57 55
54 57 55
55 56 56
54 56 55
54 56 55
54 57 56
54 56 55
56 57 57
56 58 57
58 59 58
58 59 58
56 58 57
61 63 60
62 64 61
61 62 60
60 62 60
63 65 61
61 62 60
61 62 60
60 61 60
68 74 65
63 65 62
66 72 63
66 71 63
62 65 61
67 73 64
61 63 61
71 78 66
66 71 64
64 67 62
68 74 64
67 71 64
61 64 60
68 73 65
66 71 63
68 75 64
68 73 65
69 75 65
70 77 66
71 80 66
67 75 63
67 73 64
61 65 60
63 67 60
60 61 60
61 65 59
64 67 62
60 65 59
60 64 58
56 58 56
64 71 61
65 72 61
66 75 61
68 78 62
65 75 61
66 77 61
69 80 63
69 81 62
59 64 57
76 99 64
54 56 55
57 61 56
53 55 55
56 58 56
55 57 56
52 55 55
53 56 55
54 57 56
55 57 56
54 56 55
57 59 57
55 58 56
56 58 57
56 57 57
57 58 58
56 57 57
61 62 60
59 59 58
61 62 60
61 63 60
63 65 61
62 64 61
64 66 62
59 60 58
68 74 65
64 68 62
62 64 61
64 67 62
67 71 64
63 65 62
64 67 62
66 71 63
71 78 66
66 70 63
68 74 65
62 63 61
67 72 64
60 61 60
65 70 62
66 72 64
64 69 61
61 62 60
75 85 68
61 63 60
59 60 59
60 63 59
61 62 60
67 75 63
68 74 65
63 69 61
62 64 61
63 68 61
63 69 61
64 67 61
60 61 58
58 61 57
62 69 60
62 68 60
62 71 59
70 86 63
65 73 60
66 80 61
61 68 58
60 65 58
55 57 56
56 58 55
59 64 58
56 57 56
53 55 55
55 57 56
57 59 58
56 58 57
57 58 57
54 56 55
56 57 57
55 57 56
57 58 57
55 56 56
55 56 55
56 57 57
59 59 59
61 63 60
58 59 58
62 63 61
61 62 60
59 60 59
60 62 60
61 63 60
64 67 62
59 61 59
62 64 61
60 61 60
64 67 62
65 68 63
68 74 65
60 60 59
61 63 60
64 68 62
68 75 64
70 78 66
68 74 65
70 76 66
64 68 62
70 78 65
67 74 63
61 64 60
67 71 64
60 61 60
69 75 65
71 80 66
62 67 60
61 64 60
58 60 58
61 64 60
62 66 60
58 59 58
59 61 58
62 67 60
58 59 58
58 59 58
63 68 61
60 63 59
62 67 61
66 76 62
67 76 62
63 74 59
55 57 56
59 63 57
58 64 57
56 57 56
60 63 58
57 58 57
59 64 58
57 62 57
56 58 57
55 57 56
56 58 57
57 58 57
56 57 57
56 58 57
57 58 57
53 56 55
58 59 58
55 57 56
59 60 58
65 69 62
60 61 59
59 60 59
62 63 61
64 68 62
62 65 61
63 66 61
64 68 62
69 74 65
67 71 64
64 67 62
68 75 64
62 64 61
61 62 60
59 61 58
61 63 60
61 63 60
71 79 66
62 66 61
65 69 62
69 75 66
70 76 66
68 75 64
71 78 66
63 66 62
62 65 61
64 67 61
69 77 64
67 73 64
72 82 67
58 59 57
70 78 65
63 69 60
61 65 60
64 72 60
60 64 57
60 65 59
61 65 59
63 67 61
63 70 60
58 60 59
67 77 62
64 70 62
68 82 62
57 58 57
60 66 58
64 71 61
58 61 58
56 58 56
56 57 57
54 56 56
58 63 57
55 56 55
58 59 58
56 58 57
59 60 59
55 56 55
57 59 57
57 58 58
56 57 56
56 57 57
57 58 57
57 59 58
60 61 59
61 64 60
61 62 60
59 60 59
62 64 61
60 61 60
65 69 63
64 67 61
59 60 59
61 61 60
61 64 59
64 69 62
62 65 61
63 66 61
61 61 60
62 65 61
62 64 61
63 66 61
71 79 66
59 60 58
64 68 62
63 64 61
72 80 67
68 76 64
60 62 60
72 79 67
63 67 61
62 67 60
66 72 63
73 83 67
75 84 69
58 61 57
68 75 64
59 62 58
62 66 60
61 62 61
65 72 61
63 68 60
65 71 62
60 66 58
61 65 60
59 60 59
58 59 58
61 66 59
60 62 59
59 63 58
59 63 57
57 62 57
60 65 58
63 70 60
54 56 55
55 57 56
54 55 55
58 63 57
59 64 58
57 59 58
56 57 56
57 58 58
55 56 56
59 63 58
56 57 57
56 57 57
58 59 57
57 58 57
60 61 59
64 68 62
58 58 58
62 66 61
61 62 60
58 59 58
64 66 62
70 78 66
69 75 65
59 60 59
61 61 60
62 65 61
72 80 67
66 71 63
63 66 61
60 62 58
62 65 61
62 64 60
63 67 61
65 71 62
67 75 64
68 74 65
71 79 67
63 67 61
74 84 68
63 66 61
76 88 69
79 94 71
62 65 60
70 78 66
66 71 62
62 67 61
61 64 60
68 77 63
61 62 60
61 65 60
63 67 61
61 63 59
62 65 60
61 63 60
67 74 63
66 74 61
57 59 57
58 61 57
58 63 58
60 67 58
56 57 57
62 66 60
57 59 57
57 59 57
58 62 57
60 63 58
62 69 59
56 57 56
55 56 56
58 62 57
55 56 56
56 58 57
56 58 57
55 57 55
56 57 56
56 58 57
58 59 58
58 59 58
59 59 59
59 60 59
59 60 59
60 61 59
69 75 65
60 61 60
65 69 62
59 59 58
66 71 63
67 72 64
69 75 65
67 73 64
65 69 63
67 73 64
59 61 59
64 68 62
76 88 69
64 68 61
74 83 68
60 62 59
64 68 62
63 64 61
65 71 62
70 80 65
76 88 68
60 62 59
60 61 60
63 66 61
60 62 60
66 72 62
65 71 62
58 58 58
64 68 62
60 62 59
59 61 58
62 66 60
63 68 61
58 60 58
61 67 60
67 73 64
59 61 58
57 59 57
61 67 60
56 57 56
60 63 59
59 63 58
57 58 58
55 58 55
66 72 63
62 66 60
60 64 59
54 57 56
59 63 58
57 59 57
58 60 58
56 58 56
57 58 57
57 59 57
57 58 57
58 59 58
55 56 56
56 58 57
55 57 56
58 58 57
60 61 59
69 76 65
58 59 58
59 60 59
60 60 59
66 72 63
63 66 61
58 58 58
63 67 62
61 62 60
63 66 61
70 76 66
66 71 63
66 70 63
65 69 63
68 74 64
68 75 65
63 67 61
69 75 65
72 81 67
68 77 64
63 66 61
72 82 66
64 68 62
61 62 60
58 59 58
62 66 61
63 66 61
64 69 62
65 69 62
66 72 63
66 72 63
58 59 57
66 72 62
58 59 58
64 71 61
58 60 58
63 67 61
64 70 61
62 66 61
63 69 60
61 65 59
63 67 62
62 67 60
61 64 59
63 71 60
61 65 59
56 57 56
57 58 58
58 59 58
59 63 58
59 60 59
59 63 58
56 59 57
59 64 57
58 61 58
56 58 56
57 58 57
55 58 56
55 57 56
56 57 56
57 59 57
57 57 57
59 59 59
62 65 60
61 62 60
60 61 60
62 64 61
63 66 61
62 63 61
61 62 60
63 66 61
59 59 58
63 66 61
62 64 61
63 66 61
62 64 60
59 59 58
58 59 58
59 60 58
59 59 59
60 61 59
72 81 67
64 67 62
61 64 60
64 67 62
73 86 67
64 68 62
68 76 64
66 71 63
63 66 61
65 70 62
66 71 63
59 61 59
66 72 63
65 71 62
70 78 65
65 72 62
59 62 58
61 65 60
62 66 60
61 65 59
58 60 58
63 68 61
65 71 62
61 64 59
58 62 57
55 57 56
59 60 59
57 58 57
57 59 57
58 60 58
59 60 59
55 57 55
57 59 57
61 66 59
57 59 58
57 59 57
61 64 60
56 58 57
59 63 58
55 57 56
56 57 56
59 63 58
56 57 56
57 58 57
58 58 58
58 59 58
59 60 59
64 67 62
62 63 61
62 64 61
61 62 60
73 83 68
61 64 60
64 68 62
58 59 58
59 60 59
59 59 59
58 59 58
62 65 60
66 72 63
60 62 59
63 67 61
63 66 62
69 76 65
68 74 64
68 75 64
60 62 60
59 61 59
64 68 62
70 79 66
76 87 70
60 61 59
72 81 66
62 64 60
66 71 64
60 61 60
70 79 65
69 77 64
62 64 61
60 64 59
69 78 64
63 70 60
60 63 60
69 79 65
60 64 59
63 70 60
62 65 60
61 65 59
62 65 60
58 59 58
61 65 60
63 70 60
56 58 56
57 59 57
59 63 57
60 64 59
56 58 57
56 58 57
55 58 56
58 59 58
56 57 57
58 59 58
57 60 57
57 58 57
60 64 59
57 59 57
57 58 57
57 57 57
56 57 56
57 58 58
62 65 60
61 63 60
60 61 59
60 60 59
62 64 60
59 60 59
60 62 60
63 66 61
59 59 59
59 60 59
63 66 61
60 61 60
59 61 59
62 63 60
69 77 65
64 67 62
62 63 61
69 77 64
61 62 60
68 74 65
63 65 61
73 83 68
65 72 62
68 74 65
59 59 59
66 70 63
63 68 60
58 59 58
59 60 59
63 66 61
63 67 62
68 75 63
66 71 63
65 71 62
66 72 63
70 78 65
66 72 63
65 72 61
61 63 59
62 65 60
55 57 56
57 58 58
59 63 58
58 59 58
60 62 60
64 71 60
59 61 59
64 69 62
58 60 58
63 70 59
58 64 57
57 59 57
58 60 58
58 59 58
57 58 58
57 58 57
56 58 57
57 58 58
56 58 56
57 58 57
57 58 58
56 57 56
59 61 59
56 58 57
65 70 63
61 63 60
61 62 60
67 73 64
59 59 58
63 67 61
59 59 59
61 63 60
66 71 63
59 60 59
62 64 60
71 78 66
58 60 58
68 75 64
67 74 64
58 58 57
64 69 62
72 80 67
67 73 64
59 61 59
66 71 63
65 70 63
61 65 60
63 65 61
60 62 59
59 61 59
61 64 60
59 60 59
62 65 60
59 59 59
60 62 60
66 69 63
63 69 59
68 76 64
60 63 59
63 66 62
60 63 58
64 67 62
63 67 61
58 59 58
55 57 56
60 61 59
60 63 59
58 59 58
57 59 58
60 63 59
58 59 58
60 64 59
56 57 57
56 57 57
57 58 57
58 60 58
55 57 56
58 59 57
57 58 57
58 59 58
59 64 58
58 59 59
58 60 58
59 63 58
59 63 57
57 58 57
59 59 59
56 57 56
63 66 61
59 60 59
65 69 62
60 61 60
62 65 61
58 58 58
60 61 60
62 64 60
63 66 61
64 67 62
64 68 62
64 68 62
63 66 62
61 62 60
60 61 60
65 70 63
63 66 61
63 66 61
61 64 60
58 59 58
58 59 58
59 60 59
58 59 58
66 71 63
60 61 59
58 59 58
64 67 62
67 72 64
63 67 61
59 60 58
64 67 62
63 69 61
63 68 61
59 63 58
59 61 59
67 76 62
58 61 58
57 58 57
57 58 57
59 60 58
59 60 59
61 63 60
59 61 59
60 63 59
58 59 58
58 60 58
56 57 57
58 59 58
57 60 58
59 61 59
57 58 58
62 69 60
57 58 58
56 57 56
58 59 58
58 61 58
56 58 56
59 63 57
58 59 58
56 57 56
56 58 57
56 57 57
61 68 58
62 66 60
62 65 61
62 65 61
59 59 58
61 62 60
59 59 59
64 68 62
63 66 61
66 70 63
64 66 62
59 60 59
63 65 62
64 68 62
60 61 60
67 73 64
63 66 61
63 67 61
61 65 60
62 65 60
63 67 62
63 67 60
63 65 61
60 62 60
63 66 61
69 77 65
65 70 62
64 68 62
64 70 60
65 70 62
69 78 65
64 67 61
59 60 59
58 59 58
63 66 61
65 71 62
62 65 61
65 70 62
61 63 60
63 66 61
63 66 61
63 70 60
64 71 61
58 59 58
61 64 60
62 66 60
58 59 58
61 66 60
59 63 58
60 64 59
63 70 60
61 64 60
58 59 58
62 66 60
58 59 58
58 59 58
61 64 60
58 59 58
57 59 57
56 57 56
61 64 60
59 60 59
56 56 56
57 58 57
56 57 57
62 66 59
64 67 62
60 61 59
59 60 59
66 70 63
64 68 62
63 66 62
59 60 59
60 61 59
60 61 59
65 70 62
58 60 58
63 66 62
67 73 64
68 74 64
64 68 62
60 60 59
62 64 61
62 64 60
70 77 65
66 70 63
62 64 61
70 79 65
65 69 63
66 71 63
62 65 60
64 67 62
61 63 61
59 60 59
59 60 58
61 62 60
65 70 63
61 62 60
65 71 63
68 76 63
68 75 64
63 67 61
62 65 61
59 60 58
59 60 59
59 61 59
58 59 58
63 70 60
60 62 59
61 66 59
58 60 58
59 60 59
62 65 60
58 60 58
58 58 58
61 65 59
58 60 59
59 59 59
60 62 59
57 59 57
58 60 58
55 57 56
57 59 57
58 59 57
56 58 56
59 60 58
59 60 59
63 70 60
57 58 57
62 68 59
61 62 60
61 61 60
61 64 60
62 64 61
61 62 60
61 64 59
61 62 60
64 68 62
65 68 63
58 59 57
59 60 59
63 66 62
62 65 61
63 66 62
60 62 59
58 60 58
61 62 60
66 72 63
58 58 58
64 68 62
62 65 61
64 66 62
60 60 59
67 74 64
60 62 60
65 68 63
61 64 59
61 62 60
72 81 67
64 66 61
60 62 59
70 79 64
62 64 60
61 64 59
64 67 62
65 71 62
60 61 59
62 66 60
62 66 61
62 66 60
68 76 64
61 64 59
57 58 58
62 67 60
63 68 61
57 58 57
58 59 58
57 58 57
62 65 59
58 59 58
58 59 58
58 58 57
59 61 58
57 58 57
57 58 58
60 65 59
55 56 56
59 61 58
58 58 58
57 58 57
58 59 58
57 58 57
59 61 59
57 59 57
