P3
# Rays 2018
64 64
255
255 255 255
255 255 255
255 255 255
255 255 255
255 255 255
255 255 255
255 255 255
255 255 255
255 255 255
255 255 255
255 255 255
255 255 255
255 255 255
255 255 255
255 255 255
255 255 255
255 255 255
255 255 255
255 255 255
255 255 255
255 255 255
255 255 255
255 255 255
255 255 255
255 255 255
255 255 255
255 255 255
255 255 255
255 255 255
255 255 255
255 255 255
255 255 255
255 255 255
255 255 255
255 255 255
255 255 255
255 255 255
255 255 255
255 255 255
255 255 255
255 255 255
255 255 255
255 255 255
255 255 255
255 255 255
255 255 255
255 255 255
255 255 255
255 255 255
255 255 255
255 255 255
255 255 255
255 255 255
255 255 255
255 255 255
255 255 255
255 255 255
255 255 255
255 255 255
255 255 255
255 255 255
255 255 255
255 255 255
255 255 255
255 255 255
255 255 255
255 255 255
255 255 255
255 255 255
255 255 255
255 255 255
255 255 255
255 255 255
255 255 255
255 255 255
255 255 255
255 255 255
255 255 255
255 255 255
255 255 255
255 255 255
255 255 255
255 255 255
255 255 255
255 255 255
255 255 255
255 255 255
255 255 255
255 255 255
255 255 255
255 255 255
255 255 255
255 255 255
255 255 255
255 255 255
255 255 255
255 255 255
255 255 255
255 255 255
255 255 255
255 255 255
255 255 255
255 255 255
255 255 255
255 255 255
255 255 255
255 255 255
255 255 255
255 255 255
255 255 255
255 255 255
255 255 255
255 255 255
255 255 255
255 255 255
255 255 255
255 255 255
255 255 255
255 255 255
255 255 255
255 255 255
255 255 255
255 255 255
255 255 255
255 255 255
255 255 255
255 255 255
255 255 255
255 255 255
255 255 255
255 255 255
255 255 255
255 255 255
255 255 255
255 255 255
255 255 255
255 255 255
255 255 255
255 255 255
255 255 255
255 255 255
255 255 255
255 255 255
255 255 255
255 255 255
255 255 255
255 255 255
255 255 255
255 255 255
255 255 255
255 255 255
255 255 255
255 255 255
255 255 255
255 255 255
255 255 255
255 255 255
255 255 255
255 255 255
255 255 255
255 255 255
255 255 255
255 255 255
255 255 255
255 255 255
255 255 255
255 255 255
255 255 255
255 255 255
255 255 255
255 255 255
255 255 255
255 255 255
255 255 255
255 255 255
255 255 255
255 255 255
255 255 255
255 255 255
255 255 255
255 255 255
255 255 255
255 255 255
255 255 255
255 255 255
255 255 255
255 255 255
255 255 255
255 255 255
255 255 255
255 255 255
255 255 255
255 255 255
255 255 255
255 255 255
255 255 255
255 255 255
255 255 255
255 255 255
255 255 255
255 255 255
255 255 255
255 255 255
255 255 255
255 255 255
255 255 255
255 255 255
255 255 255
255 255 255
255 255 255
255 255 255
255 255 255
255 255 255
255 255 255
255 255 255
255 255 255
255 255 255
255 255 255
255 255 255
255 255 255
255 255 255
255 255 255
255 255 255
255 255 255
255 255 255
255 255 255
255 255 255
255 255 255
255 255 255
255 255 255
255 255 255
255 255 255
255 255 255
255 255 255
255 255 255
255 255 255
255 255 255
255 255 255
255 255 255
255 255 255
255 255 255
255 255 255
255 255 255
255 255 255
255 255 255
255 255 255
255 255 255
255 255 255
255 255 255
255 255 255
255 255 255
255 255 255
255 255 255
255 255 255
255 255 255
255 255 255
255 255 255
255 255 255
255 255 255
255 255 255
255 255 255
255 255 255
255 255 255
255 255 255
255 255 255
255 255 255
255 255 255
255 255 255
255 255 255
255 255 255
255 255 255
255 255 255
255 255 255
255 255 255
255 255 255
255 255 255
255 255 255
255 255 255
255 255 255
255 255 255
255 255 255
255 255 255
255 255 255
255 255 255
255 255 255
255 255 255
255 255 255
255 255 255
255 255 255
255 255 255
255 255 255
255 255 255
255 255 255
255 255 255
255 255 255
255 255 255
255 255 255
255 255 255
255 255 255
255 255 255
255 255 255
255 255 255
255 255 255
255 255 255
255 255 255
255 255 255
255 255 255
255 255 255
255 255 255
255 255 255
255 255 255
255 255 255
255 255 255
255 255 255
255 255 255
255 255 255
255 255 255
255 255 255
255 255 255
255 255 255
255 255 255
255 255 255
255 255 255
255 255 255
255 255 255
255 255 255
255 255 255
255 255 255
255 255 255
255 255 255
255 255 255
255 255 255
255 255 255
255 255 255
255 255 255
255 255 255
255 255 255
255 255 255
255 255 255
255 255 255
255 255 255
255 255 255
255 255 255
255 255 255
255 255 255
255 255 255
255 255 255
255 255 255
255 255 255
255 255 255
255 255 255
255 255 255
255 255 255
255 255 255
255 255 255
255 255 255
255 255 255
255 255 255
255 255 255
255 255 255
255 255 255
255 255 255
255 255 255
255 255 255
255 255 255
255 255 255
255 255 255
255 255 255
255 255 255
255 255 255
255 255 255
255 255 255
255 255 255
255 255 255
255 255 255
255 255 255
255 255 255
255 255 255
255 255 255
255 255 255
255 255 255
255 255 255
255 255 255
255 255 255
255 255 255
255 255 255
255 255 255
255 255 255
255 255 255
255 255 255
255 255 255
255 255 255
255 255 255
255 255 255
255 255 255
255 255 255
255 255 255
255 255 255
255 255 255
255 255 255
255 255 255
255 255 255
255 255 255
255 255 255
255 255 255
255 255 255
255 255 255
255 255 255
255 255 255
255 255 255
255 255 255
255 255 255
255 255 255
255 255 255
255 255 255
255 255 255
255 255 255
255 255 255
255 255 255
255 255 255
255 255 255
255 255 255
255 255 255
255 255 255
255 255 255
255 255 255
255 255 255
255 255 255
255 255 255
255 255 255
255 255 255
255 255 255
255 255 255
255 255 255
255 255 255
255 255 255
255 255 255
255 255 255
255 255 255
255 255 255
255 255 255
255 255 255
255 255 255
255 255 255
255 255 255
255 255 255
255 255 255
255 255 255
255 255 255
255 255 255
255 255 255
255 255 255
255 255 255
255 255 255
255 255 255
255 255 255
255 255 255
255 255 255
255 255 255
255 255 255
255 255 255
255 255 255
255 255 255
255 255 255
255 255 255
255 255 255
255 255 255
255 255 255
255 255 255
255 255 255
255 255 255
255 255 255
255 255 255
255 255 255
255 255 255
255 255 255
255 255 255
255 255 255
255 255 255
255 255 255
255 255 255
255 255 255
255 255 255
255 255 255
255 255 255
255 255 255
255 255 255
255 255 255
255 255 255
255 255 255
255 255 255
255 255 255
255 255 255
255 255 255
255 255 255
255 255 255
255 255 255
255 255 255
255 255 255
255 255 255
255 255 255
255 255 255
255 255 255
255 255 255
255 255 255
255 255 255
255 255 255
255 255 255
255 255 255
255 255 255
255 255 255
255 255 255
255 255 255
255 255 255
255 255 255
255 255 255
255 255 255
255 255 255
255 255 255
255 255 255
255 255 255
255 255 255
255 255 255
255 255 255
255 255 255
255 255 255
255 255 255
255 255 255
255 255 255
255 255 255
255 255 255
255 255 255
255 255 255
255 255 255
255 255 255
255 255 255
255 255 255
255 255 255
255 255 255
255 255 255
255 255 255
255 255 255
255 255 255
255 255 255
255 255 255
255 255 255
255 255 255
255 255 255
255 255 255
255 255 255
255 255 255
255 255 255
255 255 255
255 255 255
255 255 255
255 255 255
255 255 255
255 255 255
255 255 255
255 255 255
255 255 255
255 255 255
255 255 255
255 255 255
255 255 255
255 255 255
255 255 255
255 255 255
255 255 255
255 255 255
255 255 255
255 255 255
255 255 255
255 255 255
255 255 255
255 255 255
255 255 255
255 255 255
255 255 255
255 255 255
255 255 255
255 255 255
255 255 255
255 255 255
255 255 255
255 255 255
255 255 255
255 255 255
255 255 255
255 255 255
255 255 255
255 255 255
255 255 255
255 255 255
255 255 255
255 255 255
255 255 255
255 255 255
255 255 255
255 255 255
255 255 255
255 255 255
255 255 255
255 255 255
255 255 255
255 255 255
255 255 255
255 255 255
255 255 255
255 255 255
255 255 255
255 255 255
255 255 255
255 255 255
255 255 255
255 255 255
255 255 255
255 255 255
255 255 255
255 255 255
255 255 255
255 255 255
255 255 255
255 255 255
255 255 255
255 255 255
255 255 255
255 255 255
255 255 255
255 255 255
255 255 255
255 255 255
255 255 255
255 255 255
255 255 255
255 255 255
255 255 255
255 255 255
255 255 255
255 255 255
255 255 255
255 255 255
255 255 255
255 255 255
255 255 255
255 255 255
255 255 255
255 255 255
255 255 255
255 255 255
255 255 255
255 255 255
255 255 255
255 255 255
255 255 255
255 255 255
255 255 255
255 255 255
255 255 255
255 255 255
255 255 255
255 255 255
255 255 255
255 255 255
255 255 255
255 255 255
255 255 255
255 255 255
255 255 255
255 255 255
255 255 255
255 255 255
255 255 255
255 255 255
255 255 255
255 255 255
255 255 255
255 255 255
255 255 255
255 255 255
255 255 255
255 255 255
255 255 255
255 255 255
255 255 255
255 255 255
255 255 255
255 255 255
255 255 255
255 255 255
255 255 255
255 255 255
255 255 255
255 255 255
255 255 255
255 255 255
255 255 255
255 255 255
255 255 255
255 255 255
255 255 255
255 255 255
255 255 255
255 255 255
255 255 255
255 255 255
255 255 255
255 255 255
255 255 255
255 255 255
255 255 255
255 255 255
255 255 255
255 255 255
255 255 255
255 255 255
255 255 255
255 255 255
255 255 255
255 255 255
255 255 255
255 255 255
255 255 255
255 255 255
255 255 255
255 255 255
255 255 255
255 255 255
255 255 255
255 255 255
255 255 255
255 255 255
255 255 255
255 255 255
255 255 255
255 255 255
255 255 255
255 255 255
255 255 255
255 255 255
255 255 255
255 255 255
255 255 255
255 255 255
255 255 255
255 255 255
255 255 255
255 255 255
255 255 255
255 255 255
255 255 255
255 255 255
255 255 255
255 255 255
255 255 255
255 255 255
255 255 255
255 255 255
255 255 255
255 255 255
255 255 255
255 255 255
255 255 255
255 255 255
255 255 255
255 255 255
255 255 255
255 255 255
255 255 255
255 255 255
255 255 255
255 255 255
255 255 255
255 255 255
255 255 255
255 255 255
255 255 255
255 255 255
255 255 255
255 255 255
255 255 255
255 255 255
255 255 255
255 255 255
255 255 255
255 255 255
255 255 255
255 255 255
255 255 255
255 255 255
255 255 255
255 255 255
255 255 255
255 255 255
255 255 255
255 255 255
255 255 255
255 255 255
255 255 255
255 255 255
255 255 255
255 255 255
255 255 255
255 255 255
255 255 255
255 255 255
255 255 255
255 255 255
255 255 255
255 255 255
255 255 255
255 255 255
255 255 255
255 255 255
255 255 255
255 255 255
255 255 255
255 255 255
255 255 255
255 255 255
255 255 255
255 255 255
255 255 255
255 255 255
255 255 255
255 255 255
255 255 255
255 255 255
255 255 255
255 255 255
255 255 255
255 255 255
255 255 255
255 255 255
255 255 255
255 255 255
255 255 255
255 255 255
255 255 255
255 255 255
255 255 255
255 255 255
255 255 255
255 255 255
255 255 255
255 255 255
255 255 255
255 255 255
255 255 255
255 255 255
255 255 255
255 255 255
255 255 255
255 255 255
255 255 255
255 255 255
255 255 255
255 255 255
255 255 255
255 255 255
255 255 255
255 255 255
255 255 255
255 255 255
255 255 255
255 255 255
255 255 255
255 255 255
255 255 255
255 255 255
255 255 255
255 255 255
255 255 255
255 255 255
255 255 255
255 255 255
255 255 255
255 255 255
255 255 255
255 255 255
255 255 255
255 255 255
255 255 255
255 255 255
255 255 255
255 255 255
255 255 255
255 255 255
255 255 255
255 255 255
255 255 255
255 255 255
255 255 255
255 255 255
255 255 255
255 255 255
255 255 255
255 255 255
255 255 255
255 255 255
255 255 255
255 255 255
255 255 255
255 255 255
255 255 255
255 255 255
255 255 255
255 255 255
255 255 255
255 255 255
255 255 255
255 255 255
255 255 255
255 255 255
255 255 255
255 255 255
255 255 255
255 255 255
255 255 255
255 255 255
255 255 255
255 255 255
255 255 255
255 255 255
255 255 255
255 255 255
255 255 255
255 255 255
255 255 255
255 255 255
255 255 255
255 255 255
255 255 255
255 255 255
255 255 255
255 255 255
255 255 255
255 255 255
255 255 255
255 255 255
255 255 255
255 255 255
255 255 255
255 255 255
255 255 255
255 255 255
255 255 255
255 255 255
255 255 255
255 255 255
255 255 255
255 255 255
255 255 255
255 255 255
255 255 255
255 255 255
255 255 255
255 255 255
255 255 255
255 255 255
255 255 255
255 255 255
255 255 255
255 255 255
255 255 255
255 255 255
255 255 255
255 255 255
255 255 255
255 255 255
255 255 255
255 255 255
255 255 255
255 255 255
255 255 255
255 255 255
255 255 255
255 255 255
255 255 255
255 255 255
255 255 255
255 255 255
255 255 255
255 255 255
255 255 255
255 255 255
255 255 255
255 255 255
255 255 255
255 255 255
255 255 255
255 255 255
255 255 255
255 255 255
255 255 255
255 255 255
255 255 255
255 255 255
255 255 255
255 255 255
255 255 255
255 255 255
255 255 255
255 255 255
255 255 255
255 255 255
255 255 255
255 255 255
255 255 255
255 255 255
255 255 255
255 255 255
255 255 255
255 255 255
255 255 255
255 255 255
255 255 255
255 255 255
255 255 255
255 255 255
255 255 255
255 255 255
255 255 255
255 255 255
255 255 255
255 255 255
255 255 255
255 255 255
255 255 255
255 255 255
255 255 255
255 255 255
255 255 255
255 255 255
255 255 255
255 255 255
255 255 255
255 255 255
255 255 255
255 255 255
255 255 255
255 255 255
255 255 255
255 255 255
255 255 255
255 255 255
255 255 255
255 255 255
255 255 255
255 255 255
255 255 255
255 255 255
255 255 255
255 255 255
255 255 255
255 255 255
255 255 255
255 255 255
255 255 255
255 255 255
255 255 255
255 255 255
255 255 255
255 255 255
255 255 255
255 255 255
255 255 255
255 255 255
255 255 255
255 255 255
255 255 255
255 255 255
255 255 255
255 255 255
255 255 255
255 255 255
255 255 255
255 255 255
255 255 255
255 255 255
255 255 255
255 255 255
255 255 255
255 255 255
255 255 255
255 255 255
255 255 255
255 255 255
255 255 255
255 255 255
255 255 255
255 255 255
255 255 255
255 255 255
255 255 255
255 255 255
255 255 255
255 255 255
255 255 255
254 254 254
246 245 246
217 213 217
202 196 202
202 196 202
198 192 198
205 199 205
222 219 222
250 250 250
255 255 255
255 255 255
255 255 255
255 255 255
255 255 255
255 255 255
255 255 255
255 255 255
255 255 255
255 255 255
255 255 255
255 255 255
255 255 255
255 255 255
255 255 255
255 255 255
255 255 255
255 255 255
255 255 255
255 255 255
255 255 255
255 255 255
255 255 255
255 255 255
255 255 255
255 255 255
255 255 255
255 255 255
255 255 255
255 255 255
255 255 255
255 255 255
255 255 255
255 255 255
255 255 255
255 255 255
255 255 255
255 255 255
255 255 255
255 255 255
255 255 255
255 255 255
255 255 255
255 255 255
255 255 255
255 255 255
255 255 255
255 255 255
255 255 255
255 255 255
255 255 255
255 255 255
255 255 255
254 254 254
229 226 229
182 175 182
152 140 152
132 118 132
117 102 117
116 98 116
108 92 108
109 95 109
146 133 146
156 145 156
180 172 180
232 229 232
252 251 252
255 255 255
255 255 255
255 255 255
255 255 255
255 255 255
255 255 255
255 255 255
255 255 255
255 255 255
255 255 255
255 255 255
255 255 255
255 255 255
255 255 255
255 255 255
255 255 255
255 255 255
255 255 255
255 255 255
255 255 255
255 255 255
255 255 255
255 255 255
255 255 255
255 255 255
255 255 255
255 255 255
255 255 255
255 255 255
255 255 255
255 255 255
255 255 255
255 255 255
255 255 255
255 255 255
255 255 255
255 255 255
255 255 255
255 255 255
255 255 255
255 255 255
255 255 255
255 255 255
255 255 255
255 255 255
255 255 255
255 255 255
255 255 255
255 255 255
228 224 228
185 177 185
126 111 126
104 86 104
73 53 73
72 52 72
73 53 73
70 50 70
65 46 65
71 51 71
71 51 71
78 59 78
100 83 100
144 132 144
196 189 196
234 231 234
255 255 255
255 255 255
255 255 255
255 255 255
255 255 255
255 255 255
255 255 255
255 255 255
255 255 255
255 255 255
255 255 255
255 255 255
255 255 255
255 255 255
255 255 255
255 255 255
255 255 255
255 255 255
255 255 255
255 255 255
255 255 255
255 255 255
255 255 255
255 255 255
255 255 255
255 255 255
255 255 255
255 255 255
255 255 255
255 255 255
255 255 255
255 255 255
255 255 255
255 255 255
255 255 255
255 255 255
255 255 255
255 255 255
255 255 255
255 255 255
255 255 255
255 255 255
255 255 255
255 255 255
255 255 255
255 255 255
254 254 254
220 216 220
174 165 174
90 73 90
78 58 78
71 51 71
73 53 73
72 52 72
71 51 71
70 50 70
77 56 77
70 50 70
59 40 59
65 45 65
69 49 69
73 54 73
105 90 105
163 153 163
222 219 222
255 255 255
255 255 255
255 255 255
255 255 255
255 255 255
255 255 255
255 255 255
255 255 255
255 255 255
255 255 255
255 255 255
255 255 255
255 255 255
255 255 255
255 255 255
255 255 255
255 255 255
255 255 255
255 255 255
255 255 255
255 255 255
255 255 255
255 255 255
255 255 255
255 255 255
255 255 255
255 255 255
255 255 255
255 255 255
255 255 255
255 255 255
255 255 255
255 255 255
255 255 255
255 255 255
255 255 255
255 255 255
255 255 255
255 255 255
255 255 255
255 255 255
255 255 255
255 255 255
255 255 255
255 255 255
232 229 232
161 151 161
92 76 92
69 49 69
68 48 68
73 53 73
69 49 69
67 47 67
70 50 70
62 43 62
64 45 64
69 49 69
77 57 77
66 46 66
70 50 70
70 50 70
66 47 66
94 77 94
144 132 144
228 225 228
255 255 255
255 255 255
255 255 255
255 255 255
255 255 255
255 255 255
255 255 255
255 255 255
255 255 255
255 255 255
255 255 255
255 255 255
255 255 255
255 255 255
255 255 255
255 255 255
255 255 255
255 255 255
255 255 255
255 255 255
255 255 255
255 255 255
255 255 255
255 255 255
255 255 255
255 255 255
255 255 255
255 255 255
255 255 255
255 255 255
255 255 255
255 255 255
255 255 255
255 255 255
255 255 255
255 255 255
255 255 255
255 255 255
255 255 255
255 255 255
255 255 255
255 255 255
255 255 255
244 243 244
175 166 175
86 68 86
70 50 70
69 49 69
67 48 67
65 46 65
65 46 65
65 46 65
72 53 72
71 51 71
70 50 70
67 48 67
65 46 65
70 50 70
68 49 68
66 47 66
68 49 68
66 47 66
98 81 98
174 165 174
246 246 246
255 255 255
255 255 255
255 255 255
255 255 255
255 255 255
255 255 255
255 255 255
255 255 255
255 255 255
255 255 255
255 255 255
255 255 255
255 255 255
255 255 255
255 255 255
255 255 255
255 255 255
255 255 255
255 255 255
255 255 255
255 255 255
255 255 255
255 255 255
255 255 255
255 255 255
255 255 255
255 255 255
255 255 255
255 255 255
255 255 255
255 255 255
255 255 255
255 255 255
255 255 255
255 255 255
255 255 255
255 255 255
255 255 255
255 255 255
255 255 255
255 255 255
255 255 255
207 202 207
137 125 137
69 50 69
67 47 67
65 46 65
68 49 68
66 47 66
59 41 59
61 42 61
62 44 62
66 47 66
66 47 66
67 48 67
67 48 67
69 49 69
68 49 68
66 46 66
69 50 69
63 44 63
70 50 70
123 108 123
202 196 202
255 255 255
255 255 255
255 255 255
255 255 255
255 255 255
255 255 255
247 247 247
238 238 238
235 235 235
238 238 238
252 252 252
255 255 255
255 255 255
255 255 255
255 255 255
255 255 255
255 255 255
255 255 255
255 255 255
255 255 255
255 255 255
255 255 255
255 255 255
255 255 255
255 255 255
255 255 255
255 255 255
255 255 255
255 255 255
255 255 255
255 255 255
255 255 255
255 255 255
255 255 255
255 255 255
255 255 255
255 255 255
255 255 255
255 255 255
255 255 255
255 255 255
254 254 254
170 161 170
76 59 76
69 50 69
59 41 59
65 47 65
65 46 65
63 45 63
60 42 60
57 40 57
59 41 59
64 45 64
68 49 68
64 45 64
69 50 69
62 43 62
67 48 67
66 46 66
67 48 67
63 45 63
70 51 70
73 55 73
160 150 160
233 230 233
255 255 255
255 255 255
255 255 255
242 242 242
226 226 226
208 208 208
185 185 185
164 164 164
178 178 178
207 207 207
215 215 215
246 246 246
255 255 255
255 255 255
255 255 255
255 255 255
255 255 255
255 255 255
255 255 255
255 255 255
255 255 255
255 255 255
255 255 255
255 255 255
255 255 255
255 255 255
255 255 255
255 255 255
255 255 255
255 255 255
255 255 255
255 255 255
255 255 255
255 255 255
255 255 255
255 255 255
255 255 255
255 255 255
255 255 255
255 255 255
251 251 251
153 143 153
56 39 56
70 51 70
63 45 63
56 39 56
59 41 59
59 40 59
62 44 62
60 42 60
64 45 64
61 43 61
63 45 63
61 43 61
68 49 68
64 45 64
62 44 62
60 42 60
67 48 67
58 40 58
66 47 66
64 45 64
115 100 115
213 209 213
255 255 255
253 253 253
229 228 229
197 197 197
159 159 159
138 138 138
139 138 138
139 139 139
133 133 133
144 144 144
164 164 164
192 192 192
233 233 233
253 253 253
255 255 255
255 255 255
255 255 255
255 255 255
255 255 255
255 255 255
255 255 255
255 255 255
255 255 255
255 255 255
255 255 255
255 255 255
255 255 255
255 255 255
255 255 255
255 255 255
255 255 255
255 255 255
255 255 255
255 255 255
255 255 255
255 255 255
255 255 255
255 255 255
255 255 255
255 255 255
225 222 225
129 117 129
63 45 63
58 40 58
62 44 62
63 45 63
57 39 57
52 36 52
63 45 63
53 36 53
56 39 56
59 41 59
56 39 56
58 41 58
50 34 50
56 39 56
62 44 62
61 43 61
60 42 60
63 45 63
61 43 61
62 44 62
98 81 98
187 181 187
254 254 254
228 227 228
178 177 178
153 153 153
145 145 145
140 139 140
147 147 147
140 140 140
147 147 147
139 138 139
140 140 140
151 151 151
183 183 183
237 237 237
255 255 255
255 255 255
255 255 255
255 255 255
255 255 255
255 255 255
255 255 255
255 255 255
255 255 255
255 255 255
255 255 255
255 255 255
255 255 255
255 255 255
255 255 255
255 255 255
255 255 255
255 255 255
255 255 255
255 255 255
255 255 255
255 255 255
255 255 255
255 255 255
255 255 255
255 255 255
222 219 222
122 110 122
55 38 55
52 36 52
56 39 56
53 36 53
60 43 60
54 38 54
57 40 57
58 41 58
63 45 63
59 41 59
57 40 57
56 39 56
56 39 56
56 39 56
56 39 56
60 43 60
58 41 58
53 36 53
59 41 59
59 41 59
64 47 64
151 142 151
226 225 226
181 179 181
132 129 132
145 145 145
145 145 145
146 146 146
146 146 146
144 144 144
144 144 144
151 151 151
140 140 140
144 144 144
150 149 150
199 199 199
241 241 241
255 255 255
255 255 255
255 255 255
255 255 255
255 255 255
255 255 255
255 255 255
255 255 255
255 255 255
255 255 255
255 255 255
255 255 255
255 255 255
255 255 255
255 255 255
255 255 255
255 255 255
255 255 255
255 255 255
255 255 255
255 255 255
255 255 255
255 255 255
255 255 255
255 255 255
224 221 224
138 128 138
50 34 50
55 38 55
56 39 56
51 35 51
58 41 58
57 40 57
53 37 53
53 37 53
52 37 52
60 42 60
54 38 54
57 40 57
55 39 55
52 36 52
50 34 51
47 32 48
57 40 57
55 39 55
57 40 58
53 37 54
49 33 49
143 134 143
201 199 201
134 131 134
120 118 120
142 141 142
134 134 134
133 132 133
149 148 149
142 142 142
144 144 144
139 139 139
147 146 147
142 142 142
143 143 143
169 168 169
220 220 220
255 255 255
255 255 255
255 255 255
255 255 255
255 255 255
255 255 255
255 255 255
255 255 255
255 255 255
255 255 255
255 255 255
255 255 255
255 255 255
255 255 255
255 255 255
255 255 255
255 255 255
255 255 255
255 255 255
255 255 255
255 255 255
255 255 255
255 255 255
255 255 255
255 255 255
239 238 239
148 139 148
53 38 53
57 40 57
52 36 52
49 34 49
52 36 52
47 32 47
49 34 49
54 38 54
46 31 46
53 37 53
47 31 47
51 35 51
49 33 49
48 33 49
52 36 52
50 34 50
50 35 50
47 33 47
51 35 51
51 35 51
53 37 53
149 141 149
164 160 164
106 102 106
125 123 125
145 145 145
142 142 142
142 142 142
144 144 144
140 140 140
146 146 146
142 142 142
143 143 143
137 137 137
135 135 135
149 149 149
197 197 197
254 254 254
255 255 255
255 255 255
255 255 255
255 255 255
255 255 255
255 255 255
255 255 255
255 255 255
255 255 255
255 255 255
255 255 255
255 255 255
255 255 255
255 255 255
255 255 255
255 255 255
255 255 255
255 255 255
255 255 255
255 255 255
255 255 255
255 255 255
255 255 255
255 255 255
255 255 255
171 164 171
73 58 73
46 31 46
44 30 44
50 34 50
48 32 48
50 34 50
52 36 52
51 35 51
47 32 47
50 35 50
48 33 48
45 30 45
48 32 48
52 36 52
49 33 49
51 35 51
43 29 44
45 31 46
45 30 46
42 27 43
75 62 75
165 159 165
151 147 151
98 94 98
122 120 122
129 129 129
130 130 130
122 121 122
136 135 135
125 125 125
124 123 124
138 137 138
127 127 127
130 130 130
131 131 131
136 135 136
178 178 178
243 242 243
255 255 255
255 255 255
255 255 255
255 255 255
255 255 255
255 255 255
255 255 255
255 255 255
255 255 255
255 255 255
255 255 255
255 255 255
255 255 255
255 255 255
255 255 255
255 255 255
255 255 255
255 255 255
255 255 255
255 255 255
255 255 255
255 255 255
255 255 255
255 255 255
255 255 255
214 211 214
113 103 113
52 37 52
47 33 47
47 32 47
42 28 42
46 31 46
47 32 47
46 31 46
51 36 51
48 33 48
45 30 45
43 29 43
47 32 47
50 34 50
45 31 45
46 32 47
48 34 49
39 25 40
39 25 40
42 27 43
102 91 102
179 175 180
142 139 142
88 85 88
110 108 110
121 121 121
113 113 113
119 118 119
114 114 114
115 114 115
119 119 119
119 119 119
117 116 117
121 121 121
113 112 113
115 110 115
156 149 155
230 228 230
225 219 225
193 178 193
157 135 157
180 162 180
194 179 194
225 217 225
254 254 254
255 255 255
255 255 255
255 255 255
255 255 255
255 255 255
255 255 255
255 255 255
255 255 255
255 255 255
255 255 255
255 255 255
255 255 255
255 255 255
255 255 255
255 255 255
255 255 255
255 255 255
255 255 255
244 243 244
163 157 163
58 45 58
45 31 45
42 28 42
45 31 45
49 34 49
42 28 42
43 29 43
42 27 42
39 26 39
43 29 43
48 34 48
45 30 45
42 29 43
42 28 42
44 30 44
38 25 39
40 27 41
38 25 39
56 44 56
124 116 124
226 224 226
137 134 137
77 74 77
91 89 91
89 89 90
93 93 93
100 100 100
101 101 101
90 90 90
98 98 98
98 97 98
107 106 107
96 96 96
111 109 110
89 81 89
157 148 157
196 186 196
143 121 143
82 52 82
70 33 70
73 36 73
87 58 87
136 112 136
206 197 206
251 250 251
255 255 255
255 255 255
255 255 255
255 255 255
255 255 255
255 255 255
255 255 255
255 255 255
255 255 255
255 255 255
255 255 255
255 255 255
255 255 255
255 255 255
255 255 255
255 255 255
255 255 255
255 255 255
222 220 222
126 119 126
44 31 44
43 29 43
42 29 42
41 27 41
41 27 41
40 26 40
38 24 38
42 28 42
39 27 39
37 24 37
43 29 43
41 27 41
38 24 38
36 23 36
36 24 37
34 22 35
36 24 37
78 69 79
177 174 177
208 207 208
141 140 141
76 74 76
79 78 80
80 80 82
78 77 79
80 80 80
87 87 87
82 83 82
82 83 82
83 83 83
84 81 82
84 82 82
85 79 84
76 62 75
120 108 120
126 107 126
61 30 61
59 24 59
65 27 65
65 27 65
69 29 69
74 36 74
141 118 141
227 224 227
255 255 255
255 255 255
255 255 255
255 255 255
255 255 255
255 255 255
255 255 255
255 255 255
255 255 255
255 255 255
255 255 255
255 255 255
243 243 243
240 240 240
232 232 232
228 228 228
213 213 213
208 208 208
204 204 204
150 147 150
87 78 87
44 31 44
38 26 38
38 25 38
40 26 40
36 23 36
38 25 38
38 24 38
39 26 39
37 24 37
38 25 39
35 23 35
38 25 38
36 24 37
33 21 33
36 24 36
42 31 42
87 84 88
115 115 115
129 129 129
111 111 111
68 67 69
63 62 65
63 62 69
62 61 70
69 69 72
70 71 71
68 69 68
69 69 69
72 72 72
71 67 67
70 64 65
66 56 62
74 64 73
84 71 84
59 36 59
54 21 53
57 23 56
56 22 56
60 25 60
66 28 66
60 24 60
75 42 75
135 124 135
183 182 183
178 178 178
179 179 179
193 193 193
206 206 206
215 215 215
218 218 218
216 216 216
214 214 214
233 233 233
234 234 234
238 238 238
162 162 162
160 160 160
140 140 140
146 146 146
141 141 141
125 125 125
114 114 114
123 122 123
84 80 84
55 47 55
45 33 45
36 23 36
36 24 36
35 23 35
34 22 34
36 24 36
39 26 39
37 24 37
35 23 35
34 21 34
32 20 32
31 20 32
32 21 33
43 33 43
66 62 66
83 81 83
85 85 85
89 89 89
79 78 81
68 67 76
61 61 66
56 55 64
59 59 69
61 62 67
63 64 65
68 68 68
64 65 64
61 60 59
66 60 61
65 54 55
62 52 56
70 61 66
64 49 58
50 24 44
47 17 45
47 17 46
56 22 55
49 19 49
54 21 54
51 20 51
57 23 57
73 55 73
95 94 95
105 105 105
98 98 98
98 98 98
110 110 110
124 124 124
110 110 110
114 114 114
127 127 127
149 149 149
150 150 150
144 144 144
84 84 84
81 81 81
79 79 79
80 80 80
82 82 82
77 77 77
79 79 79
85 85 85
79 79 79
72 70 72
63 57 63
45 36 45
42 32 42
36 24 36
35 23 35
32 20 32
32 20 32
32 20 32
35 23 35
32 20 32
31 20 31
34 24 34
43 36 43
62 58 62
70 69 70
81 80 81
83 83 83
76 75 82
62 62 78
49 49 71
44 44 66
51 50 63
53 53 60
58 57 61
58 58 59
61 61 61
64 63 63
62 60 60
64 60 60
61 54 55
65 53 55
72 53 54
74 47 48
59 29 38
44 17 35
46 17 42
41 14 40
47 18 47
52 20 52
46 18 46
49 22 49
69 53 69
88 88 88
82 82 82
84 84 84
84 84 84
80 80 80
82 82 82
82 82 82
84 84 84
86 86 86
84 84 84
80 80 80
83 83 83
79 79 79
81 81 81
80 80 80
83 83 83
85 85 85
80 80 80
79 79 79
83 82 83
81 80 81
74 73 74
72 71 72
57 54 57
56 52 56
34 27 34
32 23 32
33 23 33
30 19 30
27 17 27
27 18 27
26 17 26
25 17 25
38 33 38
43 40 43
51 49 51
58 57 58
57 55 57
64 62 64
56 55 67
43 43 72
33 33 64
32 32 60
39 39 58
57 57 62
58 58 59
62 61 62
60 60 61
62 62 62
57 56 57
61 59 59
66 64 64
64 49 50
66 37 37
72 41 40
78 44 45
48 22 31
34 11 29
36 12 34
42 16 42
38 13 38
36 13 35
50 30 50
69 60 69
83 83 83
83 83 83
87 87 87
86 86 86
82 82 82
85 85 85
84 84 84
81 81 81
77 77 77
82 82 82
80 80 80
81 81 81
82 82 82
80 80 80
83 83 83
81 81 81
81 81 81
78 78 78
70 69 70
74 73 74
71 70 71
63 61 63
53 51 53
53 50 53
39 36 39
33 30 33
28 23 28
25 20 25
23 17 23
22 16 22
24 18 24
23 18 23
22 19 22
28 24 28
38 35 38
39 36 39
48 46 48
47 44 47
64 62 64
44 43 57
30 29 57
26 26 53
32 32 60
33 33 52
40 39 45
39 39 39
46 46 47
48 48 48
50 49 49
45 46 45
52 51 52
56 53 54
56 42 42
56 30 29
61 33 33
65 35 35
51 26 30
34 14 28
27 8 26
28 8 28
36 14 35
43 27 43
70 58 69
84 82 84
85 85 85
83 83 83
86 86 86
85 85 85
82 82 82
77 77 77
81 81 81
80 80 80
85 85 85
81 81 81
83 83 83
81 81 81
79 78 79
74 74 74
80 79 80
72 72 72
69 68 69
65 64 65
63 61 63
63 62 63
60 58 60
46 44 46
41 38 41
39 36 39
36 33 36
31 28 31
30 27 30
24 21 24
29 25 29
29 25 29
25 21 25
27 23 27
31 27 31
36 33 36
38 35 38
39 35 39
50 47 50
55 53 55
59 57 60
42 41 51
36 36 59
23 23 45
24 24 47
26 26 42
35 34 39
32 32 32
33 33 33
33 39 34
34 49 34
39 52 39
37 38 36
40 37 39
49 38 39
45 27 27
50 25 25
44 22 23
38 20 24
31 17 26
22 9 21
27 13 27
33 20 33
51 43 51
68 65 68
79 78 79
80 79 80
80 80 80
86 86 86
83 83 83
86 86 86
84 84 84
85 85 85
88 88 88
83 83 83
78 78 78
87 87 87
83 83 83
73 73 73
71 70 71
78 77 78
74 73 74
67 66 67
66 64 66
60 59 60
61 60 61
53 51 53
52 50 52
50 48 50
47 45 47
35 32 35
39 36 39
38 34 38
33 30 33
39 36 39
38 35 38
39 36 39
41 38 41
46 44 46
47 44 47
49 46 49
59 57 59
57 55 57
56 53 56
56 54 57
47 46 51
26 26 36
21 21 35
18 18 32
31 31 37
42 42 44
43 43 44
42 42 43
43 54 43
34 61 34
34 58 34
42 52 41
43 40 42
40 34 35
37 25 25
38 24 24
33 20 20
43 33 35
33 26 32
36 30 36
29 21 29
37 30 37
49 44 49
57 53 57
71 68 71
77 75 77
79 78 79
82 81 82
84 84 84
84 84 84
84 84 84
81 81 81
83 83 83
79 79 79
80 80 80
81 80 81
85 85 85
73 72 73
77 76 77
70 69 70
71 70 71
69 67 69
69 68 69
62 61 62
61 60 61
58 56 58
54 53 54
55 52 55
47 44 47
48 45 48
43 41 43
48 45 48
50 47 50
49 46 49
48 45 48
53 50 53
54 52 54
52 50 52
58 56 58
59 56 59
59 57 59
61 59 61
62 60 62
62 61 63
56 55 58
46 45 50
43 42 47
43 43 48
43 43 46
46 46 49
62 62 63
59 59 60
44 52 44
29 45 29
34 50 34
49 57 49
55 54 54
57 55 55
45 40 41
44 38 38
48 42 43
49 44 46
52 47 51
54 48 53
52 47 52
51 45 50
62 57 62
64 61 64
66 63 66
76 74 76
82 81 82
80 79 80
77 76 77
83 83 83
78 78 78
86 86 86
85 85 85
85 85 85
85 85 85
83 83 83
81 81 81
76 76 76
76 75 76
70 69 70
73 72 73
73 72 73
65 63 65
61 59 61
65 63 65
61 59 61
62 60 62
64 62 64
56 54 56
55 53 55
56 53 56
55 53 55
55 52 55
57 55 57
57 54 57
57 55 57
58 55 58
56 53 56
62 59 62
61 59 62
65 64 66
66 64 66
64 63 65
61 60 63
66 65 66
55 55 58
56 56 59
61 61 64
60 60 62
65 65 66
66 66 66
66 66 66
49 51 49
37 44 37
34 42 33
54 56 53
65 65 65
64 62 62
61 59 59
65 63 63
62 59 60
68 65 66
62 58 60
65 61 64
63 59 62
69 65 68
69 66 69
67 63 67
76 74 76
73 71 73
80 79 80
76 75 76
78 77 78
84 84 84
80 80 80
79 78 79
80 80 80
84 84 84
83 83 83
84 84 84
82 82 82
75 74 75
74 73 74
65 64 65
72 71 72
69 68 69
71 71 71
69 68 69
63 61 63
64 62 64
65 63 65
65 63 65
63 61 63
65 63 65
57 55 57
56 53 56
64 62 64
61 58 61
66 64 66
67 65 67
59 57 59
64 62 64
68 66 68
70 69 70
69 67 69
68 66 68
65 64 66
66 65 67
69 69 70
66 65 67
65 65 66
64 63 65
64 63 65
67 67 67
65 65 66
62 63 62
49 51 49
51 54 51
57 59 56
57 58 56
71 70 70
69 69 69
68 67 67
73 71 72
67 64 65
67 65 65
66 63 65
74 72 74
68 65 67
75 73 75
70 68 70
77 75 77
78 76 78
74 72 74
78 77 78
82 81 82
77 76 77
86 86 86
83 83 83
85 85 85
84 84 84
82 82 82
87 87 87
83 83 83
86 86 86
73 72 73
72 71 72
74 73 74
66 65 66
68 67 68
71 69 71
69 68 69
70 68 70
68 66 68
65 64 66
70 68 70
59 57 59
66 64 66
62 61 62
68 67 68
64 62 64
63 61 63
67 65 67
65 63 65
61 59 61
67 65 67
70 69 71
68 66 68
69 68 70
70 68 70
69 67 69
68 67 68
72 71 72
68 67 69
64 63 65
69 68 70
65 64 66
70 70 70
69 69 69
69 69 69
68 69 69
65 66 65
73 73 73
67 66 66
71 71 71
71 70 70
68 67 67
71 70 70
73 72 73
71 69 71
73 72 73
77 75 76
79 77 78
78 77 78
78 76 77
77 75 77
78 77 78
78 77 78
75 74 75
80 79 80
81 80 81
82 82 82
82 81 82
87 87 87
80 80 80
83 83 83
83 83 83
82 82 82
86 86 86
75 74 75
74 73 74
72 71 72
71 70 71
72 70 72
70 68 70
67 65 67
72 71 72
69 68 69
72 71 72
68 67 68
69 68 69
65 63 65
61 59 61
70 68 70
71 70 71
64 62 64
64 63 64
71 69 71
70 68 70
74 72 74
68 66 68
71 69 71
72 70 72
71 70 71
67 66 68
70 69 70
73 72 73
76 75 76
75 74 76
73 73 74
72 71 72
71 70 71
65 65 66
67 68 68
70 71 70
73 73 73
69 69 69
76 76 76
72 72 72
74 73 74
73 72 73
76 75 75
77 76 77
75 73 74
75 73 74
76 75 76
71 69 70
78 76 77
80 78 80
78 76 78
83 83 83
82 82 82
81 80 81
79 78 79
81 80 81
80 80 80
84 83 84
80 80 80
83 83 83
86 86 86
82 82 82
81 81 81
79 79 79
73 72 73
80 79 80
69 67 69
74 74 74
76 75 76
72 71 72
73 72 73
70 69 70
73 72 73
70 69 70
73 72 73
73 72 73
68 66 68
69 68 69
71 69 71
66 65 66
69 68 69
69 68 69
71 69 71
69 68 69
69 67 69
73 71 73
72 71 73
75 75 76
73 72 73
70 69 70
73 72 73
71 71 72
68 67 69
69 68 70
79 78 79
71 71 72
74 74 74
78 78 78
74 74 74
73 73 73
74 74 74
76 75 76
77 77 77
75 75 75
76 75 75
76 75 75
75 75 75
72 71 71
76 75 75
75 74 75
76 74 76
77 76 77
77 77 77
83 82 82
77 76 77
82 81 82
76 75 75
78 77 78
84 84 84
82 81 82
85 85 85
84 84 84
81 80 81
81 81 81
82 82 82
82 82 82
82 82 82
79 79 79
77 76 77
76 75 76
70 69 70
73 72 73
76 75 76
72 71 72
73 72 73
67 65 67
72 71 72
73 71 73
73 72 73
72 71 72
73 71 73
70 68 70
70 69 70
71 70 71
75 74 75
72 71 72
72 71 72
73 72 73
79 78 79
72 71 72
72 71 72
74 73 74
70 69 70
73 72 73
69 68 69
76 75 76
72 71 72
69 68 69
74 73 74
76 76 77
72 71 72
77 77 78
75 75 75
70 70 70
73 73 73
78 78 78
74 74 74
75 74 75
81 80 81
73 73 73
76 75 75
80 80 80
73 72 73
73 72 73
77 76 77
76 75 75
78 77 77
84 83 84
84 83 84
77 76 77
79 78 79
81 80 81
82 81 82
76 75 76
78 78 78
79 79 79
81 80 81
79 79 79
82 82 82
85 85 85
81 80 81
88 88 88
81 80 81
78 78 78
74 74 74
77 76 77
71 70 71
77 76 77
76 76 76
71 69 71
68 67 68
71 70 71
73 72 73
76 75 76
75 74 75
74 73 74
73 71 73
73 72 73
74 73 74
76 75 76
74 72 74
77 76 77
73 72 73
70 69 70
74 74 74
78 77 78
77 76 77
73 72 73
72 71 72
68 67 69
76 76 77
74 73 75
76 75 76
73 73 73
74 73 74
79 79 79
79 78 79
71 71 71
80 80 80
74 73 73
75 74 75
76 76 76
77 76 77
78 78 78
73 72 73
75 74 75
82 81 81
78 77 78
77 75 77
77 76 77
77 76 77
78 77 78
79 78 79
82 82 82
83 83 83
79 79 79
79 78 79
78 77 78
84 84 84
82 82 82
83 82 83
80 79 80
83 82 83
85 84 85
81 81 81
80 80 80
77 76 77
79 78 79
83 82 83
73 72 73
71 71 71
76 75 76
74 73 74
76 75 76
74 73 74
73 72 73
75 74 75
69 68 69
75 74 75
73 72 73
73 72 73
75 73 75
71 70 71
77 75 77
75 74 75
75 74 75
74 73 74
77 76 77
74 74 75
75 75 76
78 78 79
77 76 77
70 69 71
75 75 75
78 77 78
77 76 77
78 77 78
75 74 75
78 78 78
75 75 75
79 79 79
77 77 78
81 81 81
80 80 80
78 78 78
77 76 77
79 78 78
76 75 75
74 74 74
79 78 79
73 73 73
78 78 78
81 80 81
77 76 77
76 76 76
83 82 83
82 81 82
84 84 84
84 83 84
79 79 79
82 82 82
84 83 84
79 78 79
82 82 82
83 83 83
83 83 83
82 81 82
83 82 83
83 83 83
81 81 81
75 74 75
72 71 72
78 77 78
79 78 79
76 75 76
77 76 77
76 75 76
75 74 75
72 70 72
75 74 75
73 72 73
76 75 76
78 77 78
79 79 80
81 80 81
75 74 75
74 74 74
73 73 73
73 72 73
79 78 79
75 74 75
76 75 76
74 73 74
75 74 75
73 72 73
78 78 78
73 73 74
75 74 75
79 79 80
75 75 75
76 76 76
77 77 77
75 75 75
79 78 79
77 77 77
80 80 80
75 74 75
79 78 79
77 77 78
76 76 76
79 79 79
81 80 81
80 80 80
78 78 78
79 79 79
79 78 79
83 83 83
80 79 80
79 78 79
79 78 79
82 82 82
81 80 81
83 83 83
79 78 79
82 82 82
82 81 82
77 77 77
86 86 86
80 80 80
85 84 85
84 84 84
79 79 79
82 81 82
81 81 81
73 73 73
75 74 75
77 76 77
79 78 79
74 73 74
78 77 78
78 78 78
77 77 77
75 73 75
74 73 74
75 74 75
77 76 77
77 76 77
72 71 72
72 71 72
74 73 74
76 75 76
75 74 75
76 75 76
76 75 76
76 75 76
73 72 73
76 75 76
79 78 79
78 77 78
79 79 79
79 79 79
75 74 75
74 73 74
75 74 75
76 76 76
76 75 76
81 80 81
82 82 82
76 76 77
76 76 76
81 81 81
78 78 78
80 80 80
79 79 79
82 81 82
79 79 79
81 80 81
80 80 80
82 81 82
79 79 79
80 79 79
82 82 82
78 78 78
81 80 81
83 83 83
82 82 82
81 80 81
84 83 83
83 83 83
77 76 77
83 83 83
80 80 80
81 80 81
83 83 83
83 83 83
83 82 83
84 83 84
84 84 84
77 76 77
74 73 74
76 76 76
79 79 79
78 77 78
76 76 76
75 74 75
75 74 75
76 76 76
77 77 77
78 77 78
76 76 76
82 81 82
71 69 71
77 77 77
77 77 77
78 77 78
77 76 77
78 77 78
76 75 76
76 75 76
76 75 76
78 78 78
78 77 78
80 79 80
75 74 75
73 73 73
79 79 79
74 74 75
76 76 76
75 75 75
73 72 73
76 75 76
80 80 80
76 76 76
76 75 76
77 76 77
77 76 77
77 77 77
78 78 78
79 78 78
79 78 79
81 81 81
79 78 79
77 77 77
83 83 83
78 77 78
77 76 77
78 78 78
78 78 78
77 77 77
80 80 80
78 78 78
83 83 83
83 83 83
79 78 78
82 81 82
79 79 79
84 83 84
86 86 86
85 84 85
83 83 83
80 80 80
81 80 81
75 74 75
74 74 74
76 75 76
75 74 75
73 72 73
81 80 81
75 74 75
79 79 79
73 72 73
74 73 74
73 73 73
74 73 74
78 77 78
75 74 75
78 77 78
83 82 83
80 80 80
77 76 77
72 71 72
81 80 81
78 78 78
78 78 78
74 74 75
75 74 75
77 76 77
75 74 75
76 75 76
75 74 75
76 76 76
82 81 81
77 77 77
80 80 80
81 80 81
75 75 76
81 81 81
80 79 80
76 75 76
78 78 78
81 80 81
79 79 79
80 79 80
77 77 78
75 75 75
79 79 79
83 83 83
76 76 76
81 80 81
79 78 79
80 80 80
78 78 78
80 79 80
81 81 81
80 79 80
83 83 83
81 80 81
84 83 84
87 87 87
81 81 81
82 82 82
81 81 81
77 77 77
85 85 85
86 85 86
83 83 83
78 78 78
77 77 77
80 80 80
78 78 78
79 78 79
75 74 75
73 73 73
77 76 77
75 75 75
80 79 80
71 70 71
80 79 80
75 74 75
76 75 76
75 74 75
76 75 76
77 76 77
70 69 70
76 75 76
73 72 73
77 76 77
76 76 76
76 75 76
79 78 79
78 77 78
72 71 72
78 78 78
78 77 78
78 77 78
77 76 77
72 71 72
79 79 79
75 74 75
79 79 79
78 77 78
77 77 77
81 81 81
74 73 74
77 77 78
81 81 81
78 78 78
83 83 83
78 77 77
79 79 79
80 79 80
80 80 80
80 79 80
81 81 81
81 81 81
81 80 81
84 83 84
79 78 78
81 81 81
84 84 84
83 83 83
86 85 86
82 82 82
84 84 84
83 83 83
81 81 81
85 85 85
85 85 85
83 83 83
82 82 82
76 75 76
78 78 78
76 76 76
77 76 77
72 71 72
78 78 78
79 78 79
80 80 80
77 76 77
76 75 76
79 79 79
73 72 73
79 79 79
76 75 76
77 76 77
79 78 79
76 75 76
76 75 76
77 76 77
71 69 71
79 79 79
79 79 79
79 78 79
74 74 75
80 79 80
78 77 78
77 77 77
78 78 78
77 76 77
80 79 80
79 78 79
77 76 77
81 81 81
78 77 78
80 80 80
74 74 74
77 76 77
80 80 80
77 76 77
78 78 78
82 82 82
83 83 83
78 77 78
80 80 80
77 76 77
78 78 78
78 77 77
82 82 82
79 79 79
80 80 80
81 81 81
83 82 83
83 83 83
82 82 82
82 82 82
82 82 82
81 81 81
83 82 83
84 84 84
85 85 85
80 79 80
86 86 86
82 82 82
81 81 81
76 76 76
76 75 76
76 75 76
76 75 76
78 77 78
81 81 81
82 82 82
79 78 79
76 75 76
78 77 78
83 82 83
78 77 78
79 78 79
77 77 77
76 75 76
79 79 79
78 77 78
80 79 80
78 78 78
80 80 80
83 83 83
79 78 79
81 80 81
80 79 80
80 79 80
79 78 79
80 79 80
75 74 75
78 77 78
80 80 80
78 77 78
79 78 79
76 76 76
80 80 80
82 82 82
75 75 75
80 79 80
78 78 78
82 82 82
80 80 80
82 81 82
79 78 79
85 84 85
81 81 81
78 78 78
81 81 81
77 76 77
86 86 86
84 84 84
83 82 82
79 78 79
81 81 81
82 81 82
84 84 84
81 81 81
84 84 84
83 83 83
82 82 82
79 79 79
83 83 83
83 83 83
83 83 83
82 82 82
81 81 81
73 73 73
80 80 80
78 77 78
80 79 80
79 79 79
79 78 79
76 76 76
79 79 79
80 79 80
81 81 81
78 77 78
71 71 72
76 75 76
78 78 78
78 77 78
74 73 74
73 73 74
75 75 75
76 75 76
79 79 79
82 82 83
78 78 78
70 70 71
77 77 77
78 77 78
80 80 80
74 74 74
76 76 76
84 83 84
76 75 76
76 76 76
80 80 80
77 76 77
79 79 79
78 77 78
82 82 82
76 76 76
77 77 77
81 81 81
84 84 84
80 80 80
77 77 77
81 81 81
83 83 83
77 77 77
82 81 82
79 79 79
79 79 80
83 83 83
82 81 81
82 82 82
82 82 82
80 80 80
81 80 81
81 80 80
80 79 80
83 83 83
83 83 83
80 80 80
77 77 77
84 84 84
83 83 83
83 83 83
84 84 84
78 77 78
77 77 77
79 78 79
80 79 80
78 77 78
76 76 76
80 80 80
82 82 82
79 79 79
77 76 77
79 78 79
83 82 83
78 77 78
77 76 77
80 80 80
76 76 76
83 83 83
78 77 78
77 76 77
81 80 81
74 74 74
75 74 75
81 81 81
74 74 75
73 72 73
77 76 77
80 80 80
79 79 79
79 79 79
75 74 75
80 79 79
80 79 80
75 75 75
81 81 81
84 83 83
82 82 82
79 78 78
79 78 79
80 79 80
82 81 82
79 78 79
83 83 83
84 84 84
80 79 79
79 78 79
83 83 83
80 79 80
79 79 79
79 78 78
82 82 82
82 82 82
81 81 81
75 75 75
82 82 82
81 80 81
80 79 80
82 82 82
83 83 83
80 80 80
86 86 86
81 81 81
82 82 82
86 85 85
82 82 82
78 77 78
78 78 78
80 79 80
79 78 79
78 77 78
79 79 79
79 79 79
81 81 81
78 77 78
81 80 81
83 82 83
75 75 75
78 78 78
78 77 78
75 74 75
82 82 82
75 75 75
79 79 79
76 76 76
82 82 82
76 76 76
77 76 77
81 81 81
76 76 76
77 76 77
78 77 78
79 79 79
86 86 86
80 79 80
79 78 79
79 78 79
77 77 77
77 77 77
76 75 76
78 78 78
82 82 82
79 79 79
78 77 78
77 76 77
80 80 80
80 79 80
79 78 79
84 84 84
78 78 78
83 83 83
81 80 81
82 81 82
80 79 80
82 82 82
78 78 78
82 82 82
83 83 83
79 79 79
81 81 81
81 80 81
76 76 76
85 85 85
82 82 82
84 84 84
82 82 82
83 83 83
77 76 77
79 78 79
81 81 81
73 73 73
81 80 81
77 76 77
78 78 78
81 80 81
77 76 77
79 79 79
84 83 84
74 74 74
76 75 76
80 79 80
79 79 80
79 78 79
81 81 81
79 79 80
77 77 78
81 81 81
74 74 74
78 77 78
76 75 76
80 80 80
77 77 77
80 80 80
78 77 78
78 78 78
80 80 80
79 79 79
77 77 77
78 77 78
77 76 77
80 79 80
78 77 78
76 76 76
77 77 77
74 74 75
79 79 79
81 80 81
83 82 83
81 81 81
79 79 79
77 77 77
78 78 79
81 80 81
83 83 83
81 81 81
82 82 82
80 79 80
79 79 79
77 77 77
79 78 78
81 81 81
81 80 81
80 80 80
80 80 80
76 76 76
81 81 81
80 79 80
82 82 82
87 87 87
85 85 85
80 80 80
79 79 79
80 80 80
82 82 82
76 75 76
81 80 81
78 77 78
81 80 81
77 76 77
76 76 76
82 81 82
79 79 79
77 76 77
79 79 79
76 75 76
82 82 82
82 81 82
79 78 79
81 81 81
80 80 80
75 75 75
75 74 75
78 78 78
82 82 82
78 78 78
76 75 76
79 79 79
82 82 82
80 80 80
76 76 76
79 79 79
80 80 80
76 76 76
75 74 75
82 82 82
80 79 80
82 82 82
71 70 71
77 76 77
78 78 78
77 77 77
85 84 85
79 79 79
79 79 79
82 82 82
81 80 81
76 76 76
76 76 76
79 79 79
82 82 82
83 83 83
80 79 80
80 80 80
80 80 80
85 85 85
81 81 81
80 80 80
79 79 79
83 83 83
78 78 78
81 80 81
77 76 76
81 81 81
83 83 83
84 84 84
83 83 83
84 84 84
79 78 79
78 78 78
71 71 71
79 79 79
80 80 80
78 77 78
82 81 82
77 77 77
76 75 76
84 83 84
78 77 78
78 78 78
76 75 76
77 76 77
76 76 76
77 76 77
81 81 81
81 81 81
81 80 81
78 78 78
76 75 76
79 78 79
78 77 78
80 80 80
79 78 79
81 81 81
84 84 84
78 78 78
77 77 77
78 78 78
78 78 78
83 83 83
80 79 80
78 78 78
80 80 81
79 78 79
79 78 79
81 81 81
78 79 79
79 79 79
81 81 81
79 79 79
76 75 76
77 77 77
83 83 83
82 81 82
83 83 83
78 78 78
80 80 80
80 80 80
83 82 83
78 78 78
81 81 81
83 82 83
75 75 75
80 80 80
80 79 80
83 83 83
82 82 82
84 84 84
81 81 81
82 82 82
81 81 81
80 79 80
79 79 79
86 85 86
78 77 78
81 80 81
81 80 81
77 77 77
77 76 77
80 80 80
71 71 71
78 78 79
78 77 78
75 74 75
78 77 78
78 78 78
79 79 79
79 79 79
84 83 84
79 78 79
77 76 77
78 77 78
79 78 79
80 80 80
79 79 79
81 81 81
78 77 78
80 80 80
81 81 81
83 82 83
79 78 79
78 77 78
81 81 81
84 83 84
83 83 83
86 85 85
78 78 78
80 79 80
77 77 77
77 76 77
78 77 77
79 79 79
78 78 78
83 82 83
78 78 78
82 81 81
81 80 81
80 80 80
77 76 77
80 80 80
79 79 79
82 81 82
76 76 76
80 80 80
81 81 81
81 80 81
87 87 87
80 80 80
81 81 81
81 81 81
81 81 81
82 81 82
79 79 79
79 79 79
78 78 78
82 82 82
81 81 81
