P3
# Rays 2018
64 64
255
255 255 255
255 255 255
255 255 255
255 255 255
255 255 255
255 255 255
255 255 255
255 255 255
255 255 255
255 255 255
255 255 255
255 255 255
255 255 255
255 255 255
255 255 255
255 255 255
255 255 255
255 255 255
255 255 255
255 255 255
255 255 255
255 255 255
255 255 255
255 255 255
255 255 255
255 255 255
255 255 255
255 255 255
255 255 255
255 255 255
255 255 255
255 255 255
255 255 255
255 255 255
255 255 255
255 255 255
255 255 255
255 255 255
255 255 255
255 255 255
255 255 255
255 255 255
255 255 255
255 255 255
255 255 255
255 255 255
255 255 255
255 255 255
255 255 255
255 255 255
255 255 255
255 255 255
255 255 255
255 255 255
255 255 255
255 255 255
255 255 255
255 255 255
255 255 255
255 255 255
255 255 255
255 255 255
255 255 255
255 255 255
255 255 255
255 255 255
255 255 255
255 255 255
255 255 255
255 255 255
255 255 255
255 255 255
255 255 255
255 255 255
255 255 255
255 255 255
255 255 255
255 255 255
255 255 255
255 255 255
255 255 255
255 255 255
255 255 255
255 255 255
255 255 255
255 255 255
255 255 255
255 255 255
255 255 255
255 255 255
255 255 255
255 255 255
255 255 255
255 255 255
255 255 255
255 255 255
255 255 255
255 255 255
255 255 255
255 255 255
255 255 255
255 255 255
255 255 255
255 255 255
255 255 255
255 255 255
255 255 255
255 255 255
255 255 255
255 255 255
255 255 255
255 255 255
255 255 255
255 255 255
255 255 255
255 255 255
255 255 255
255 255 255
255 255 255
255 255 255
255 255 255
255 255 255
255 255 255
255 255 255
255 255 255
255 255 255
255 255 255
255 255 255
255 255 255
255 255 255
255 255 255
255 255 255
255 255 255
255 255 255
255 255 255
255 255 255
255 255 255
255 255 255
255 255 255
255 255 255
255 255 255
255 255 255
255 255 255
255 255 255
255 255 255
255 255 255
255 255 255
255 255 255
255 255 255
255 255 255
255 255 255
255 255 255
255 255 255
255 255 255
255 255 255
255 255 255
255 255 255
255 255 255
255 255 255
255 255 255
255 255 255
255 255 255
255 255 255
255 255 255
255 255 255
255 255 255
255 255 255
255 255 255
255 255 255
255 255 255
255 255 255
255 255 255
255 255 255
255 255 255
255 255 255
255 255 255
255 255 255
255 255 255
255 255 255
255 255 255
255 255 255
255 255 255
255 255 255
255 255 255
255 255 255
255 255 255
255 255 255
255 255 255
255 255 255
255 255 255
255 255 255
255 255 255
255 255 255
255 255 255
255 255 255
255 255 255
255 255 255
255 255 255
255 255 255
255 255 255
255 255 255
255 255 255
255 255 255
255 255 255
255 255 255
255 255 255
255 255 255
255 255 255
255 255 255
255 255 255
255 255 255
255 255 255
255 255 255
255 255 255
255 255 255
255 255 255
255 255 255
255 255 255
255 255 255
255 255 255
255 255 255
255 255 255
255 255 255
255 255 255
255 255 255
255 255 255
255 255 255
255 255 255
255 255 255
255 255 255
255 255 255
255 255 255
255 255 255
255 255 255
255 255 255
255 255 255
255 255 255
255 255 255
255 255 255
255 255 255
255 255 255
255 255 255
255 255 255
255 255 255
255 255 255
255 255 255
255 255 255
255 255 255
255 255 255
255 255 255
255 255 255
255 255 255
255 255 255
255 255 255
255 255 255
255 255 255
255 255 255
255 255 255
255 255 255
255 255 255
255 255 255
255 255 255
255 255 255
255 255 255
255 255 255
255 255 255
255 255 255
255 255 255
255 255 255
255 255 255
255 255 255
255 255 255
255 255 255
255 255 255
255 255 255
255 255 255
255 255 255
255 255 255
255 255 255
255 255 255
255 255 255
255 255 255
255 255 255
255 255 255
255 255 255
255 255 255
255 255 255
255 255 255
255 255 255
255 255 255
255 255 255
255 255 255
255 255 255
255 255 255
255 255 255
255 255 255
255 255 255
255 255 255
255 255 255
255 255 255
255 255 255
255 255 255
255 255 255
255 255 255
255 255 255
255 255 255
255 255 255
255 255 255
255 255 255
255 255 255
255 255 255
255 255 255
255 255 255
255 255 255
255 255 255
255 255 255
255 255 255
255 255 255
255 255 255
255 255 255
255 255 255
255 255 255
255 255 255
255 255 255
255 255 255
255 255 255
255 255 255
255 255 255
255 255 255
255 255 255
255 255 255
255 255 255
255 255 255
255 255 255
255 255 255
255 255 255
255 255 255
255 255 255
255 255 255
255 255 255
255 255 255
255 255 255
255 255 255
255 255 255
255 255 255
255 255 255
255 255 255
255 255 255
255 255 255
255 255 255
255 255 255
255 255 255
255 255 255
255 255 255
255 255 255
255 255 255
255 255 255
255 255 255
255 255 255
255 255 255
255 255 255
255 255 255
255 255 255
255 255 255
255 255 255
255 255 255
255 255 255
255 255 255
255 255 255
255 255 255
255 255 255
255 255 255
255 255 255
255 255 255
255 255 255
255 255 255
255 255 255
255 255 255
255 255 255
255 255 255
255 255 255
255 255 255
255 255 255
255 255 255
255 255 255
255 255 255
255 255 255
255 255 255
255 255 255
255 255 255
255 255 255
255 255 255
255 255 255
255 255 255
255 255 255
255 255 255
255 255 255
255 255 255
255 255 255
255 255 255
255 255 255
255 255 255
255 255 255
255 255 255
255 255 255
255 255 255
255 255 255
255 255 255
255 255 255
255 255 255
255 255 255
255 255 255
255 255 255
255 255 255
255 255 255
255 255 255
255 255 255
255 255 255
255 255 255
255 255 255
255 255 255
255 255 255
255 255 255
255 255 255
255 255 255
255 255 255
255 255 255
255 255 255
255 255 255
255 255 255
255 255 255
255 255 255
255 255 255
255 255 255
255 255 255
255 255 255
255 255 255
255 255 255
255 255 255
255 255 255
255 255 255
255 255 255
255 255 255
255 255 255
255 255 255
255 255 255
255 255 255
255 255 255
255 255 255
255 255 255
255 255 255
255 255 255
255 255 255
255 255 255
255 255 255
255 255 255
255 255 255
255 255 255
255 255 255
255 255 255
255 255 255
255 255 255
255 255 255
255 255 255
255 255 255
255 255 255
255 255 255
255 255 255
255 255 255
255 255 255
255 255 255
255 255 255
255 255 255
255 255 255
255 255 255
255 255 255
255 255 255
255 255 255
255 255 255
255 255 255
255 255 255
255 255 255
255 255 255
255 255 255
255 255 255
255 255 255
255 255 255
255 255 255
255 255 255
255 255 255
255 255 255
255 255 255
255 255 255
255 255 255
255 255 255
255 255 255
255 255 255
255 255 255
255 255 255
255 255 255
255 255 255
255 255 255
255 255 255
255 255 255
255 255 255
255 255 255
255 255 255
255 255 255
255 255 255
255 255 255
255 255 255
255 255 255
255 255 255
255 255 255
255 255 255
255 255 255
255 255 255
255 255 255
255 255 255
255 255 255
255 255 255
255 255 255
255 255 255
255 255 255
255 255 255
255 255 255
255 255 255
255 255 255
255 255 255
255 255 255
255 255 255
255 255 255
255 255 255
255 255 255
255 255 255
255 255 255
255 255 255
255 255 255
255 255 255
255 255 255
255 255 255
255 255 255
255 255 255
255 255 255
255 255 255
255 255 255
255 255 255
255 255 255
255 255 255
255 255 255
255 255 255
255 255 255
255 255 255
255 255 255
255 255 255
255 255 255
255 255 255
255 255 255
255 255 255
255 255 255
255 255 255
255 255 255
255 255 255
255 255 255
255 255 255
255 255 255
255 255 255
255 255 255
255 255 255
255 255 255
255 255 255
255 255 255
255 255 255
255 255 255
255 255 255
255 255 255
255 255 255
255 255 255
255 255 255
255 255 255
255 255 255
255 255 255
255 255 255
255 255 255
255 255 255
255 255 255
255 255 255
255 255 255
255 255 255
255 255 255
255 255 255
233 233 233
229 229 229
199 199 199
205 205 205
187 187 187
184 184 184
190 190 190
203 203 203
216 216 216
238 238 238
249 249 249
255 255 255
255 255 255
255 255 255
255 255 255
255 255 255
255 255 255
255 255 255
255 255 255
255 255 255
255 255 255
255 255 255
255 255 255
255 255 255
255 255 255
255 255 255
255 255 255
255 255 255
255 255 255
255 255 255
255 255 255
255 255 255
255 255 255
255 255 255
255 255 255
255 255 255
255 255 255
255 255 255
255 255 255
255 255 255
255 255 255
255 255 255
255 255 255
255 255 255
255 255 255
255 255 255
255 255 255
255 255 255
255 255 255
255 255 255
255 255 255
255 255 255
255 255 255
255 255 255
255 255 255
255 255 255
255 255 255
255 255 255
255 255 255
255 255 255
255 255 255
253 253 253
233 233 233
205 205 205
168 168 168
149 149 149
126 126 126
110 110 110
110 110 110
109 109 109
113 113 113
130 130 130
141 141 141
161 161 161
188 188 188
219 219 219
246 246 246
255 255 255
255 255 255
255 255 255
255 255 255
255 255 255
255 255 255
255 255 255
255 255 255
255 255 255
255 255 255
255 255 255
255 255 255
255 255 255
255 255 255
255 255 255
255 255 255
255 255 255
255 255 255
255 255 255
255 255 255
255 255 255
255 255 255
255 255 255
255 255 255
255 255 255
255 255 255
255 255 255
255 255 255
255 255 255
255 255 255
255 255 255
255 255 255
255 255 255
255 255 255
255 255 255
255 255 255
255 255 255
255 255 255
255 255 255
255 255 255
255 255 255
255 255 255
255 255 255
255 255 255
255 255 255
255 255 255
255 255 255
235 235 235
193 193 193
159 159 159
107 107 107
110 110 110
96 96 96
104 104 104
103 103 103
95 95 95
100 100 100
102 102 102
105 105 105
104 104 104
99 99 99
116 116 116
139 139 139
179 179 179
213 213 213
246 246 246
255 255 255
255 255 255
255 255 255
255 255 255
255 255 255
255 255 255
255 255 255
255 255 255
255 255 255
255 255 255
255 255 255
255 255 255
255 255 255
255 255 255
255 255 255
255 255 255
255 255 255
255 255 255
255 255 255
255 255 255
255 255 255
255 255 255
255 255 255
255 255 255
255 255 255
255 255 255
255 255 255
255 255 255
255 255 255
255 255 255
255 255 255
255 255 255
255 255 255
255 255 255
255 255 255
255 255 255
255 255 255
255 255 255
255 255 255
255 255 255
255 255 255
255 255 255
255 255 255
254 254 254
228 228 228
178 178 178
114 114 114
100 100 100
98 98 98
97 97 97
100 100 100
95 95 95
106 106 106
103 103 103
102 102 102
100 100 100
99 99 99
95 95 95
98 98 98
104 104 104
103 103 103
109 109 109
135 135 135
201 201 201
241 241 241
255 255 255
255 255 255
255 255 255
255 255 255
255 255 255
255 255 255
255 255 255
255 255 255
255 255 255
255 255 255
255 255 255
255 255 255
255 255 255
255 255 255
255 255 255
255 255 255
255 255 255
255 255 255
255 255 255
255 255 255
255 255 255
255 255 255
255 255 255
255 255 255
255 255 255
255 255 255
255 255 255
255 255 255
255 255 255
255 255 255
255 255 255
255 255 255
255 255 255
255 255 255
255 255 255
255 255 255
255 255 255
255 255 255
255 255 255
255 255 255
255 255 255
255 255 255
218 218 218
170 170 170
108 108 108
101 101 101
105 105 105
97 97 97
97 97 97
100 100 100
96 96 96
98 98 98
104 104 104
98 98 98
95 95 95
91 91 91
92 92 92
98 98 98
100 100 100
99 99 99
97 97 97
97 97 97
134 134 134
169 169 169
239 239 239
255 255 255
255 255 255
255 255 255
255 255 255
255 255 255
255 255 255
255 255 255
255 255 255
255 255 255
255 255 255
255 255 255
255 255 255
255 255 255
255 255 255
255 255 255
255 255 255
255 255 255
255 255 255
255 255 255
255 255 255
255 255 255
255 255 255
255 255 255
255 255 255
255 255 255
255 255 255
255 255 255
255 255 255
255 255 255
255 255 255
255 255 255
255 255 255
255 255 255
255 255 255
255 255 255
255 255 255
255 255 255
255 255 255
255 255 255
255 255 255
244 244 244
181 181 181
111 111 111
101 101 101
100 100 100
101 101 101
97 97 97
96 96 96
94 94 94
97 97 97
96 96 96
94 94 94
93 93 93
96 96 96
97 97 97
103 103 103
101 101 101
94 94 94
104 104 104
102 102 102
99 99 99
101 101 101
126 126 126
171 171 171
233 233 233
255 255 255
255 255 255
255 255 255
255 255 255
255 255 255
255 255 255
255 255 255
255 255 255
255 255 255
255 255 255
255 255 255
255 255 255
255 255 255
255 255 255
255 255 255
255 255 255
255 255 255
255 255 255
255 255 255
255 255 255
255 255 255
255 255 255
255 255 255
255 255 255
255 255 255
255 255 255
255 255 255
255 255 255
255 255 255
255 255 255
255 255 255
255 255 255
255 255 255
255 255 255
255 255 255
255 255 255
255 255 255
255 255 255
255 255 255
173 173 173
120 120 120
101 101 101
95 95 95
97 97 97
91 91 91
97 97 97
103 103 103
92 92 92
96 96 96
100 100 100
97 97 97
98 98 98
99 99 99
96 96 96
97 97 97
91 91 91
103 103 103
98 98 98
94 94 94
96 96 96
96 96 96
98 98 98
123 123 123
187 187 187
251 251 251
255 255 255
255 255 255
255 255 255
255 255 255
255 255 255
255 255 255
255 255 255
255 255 255
255 255 255
255 255 255
255 255 255
255 255 255
255 255 255
255 255 255
255 255 255
255 255 255
255 255 255
255 255 255
255 255 255
255 255 255
255 255 255
255 255 255
255 255 255
255 255 255
255 255 255
255 255 255
255 255 255
255 255 255
255 255 255
255 255 255
255 255 255
255 255 255
255 255 255
255 255 255
255 255 255
255 255 255
255 255 255
223 223 223
145 145 145
97 97 97
96 96 96
91 91 91
94 94 94
92 92 92
87 87 87
89 89 89
89 89 89
100 100 100
92 92 92
91 91 91
91 91 91
90 90 90
93 93 93
94 94 94
97 97 97
95 95 95
99 99 99
100 100 100
91 91 91
97 97 97
101 101 101
106 106 106
139 139 139
199 199 199
250 250 250
255 255 255
255 255 255
255 255 255
255 255 255
255 255 255
255 255 255
255 255 255
255 255 255
255 255 255
255 255 255
255 255 255
255 255 255
255 255 255
255 255 255
255 255 255
255 255 255
255 255 255
255 255 255
255 255 255
255 255 255
255 255 255
255 255 255
255 255 255
255 255 255
255 255 255
255 255 255
255 255 255
255 255 255
255 255 255
255 255 255
255 255 255
255 255 255
255 255 255
255 255 255
255 255 255
246 246 246
170 170 170
108 108 108
94 94 94
86 86 86
95 95 95
93 93 93
87 87 87
89 89 89
85 85 85
93 93 93
94 94 94
87 87 87
88 88 88
92 92 92
90 90 90
94 94 94
95 95 95
93 93 93
99 99 99
97 97 97
99 99 99
99 99 99
95 95 95
98 98 98
102 102 102
105 105 105
159 159 159
233 233 233
255 255 255
255 255 255
255 255 255
255 255 255
255 255 255
255 255 255
255 255 255
255 255 255
255 255 255
255 255 255
255 255 255
255 255 255
255 255 255
255 255 255
255 255 255
255 255 255
255 255 255
255 255 255
255 255 255
255 255 255
255 255 255
255 255 255
255 255 255
255 255 255
255 255 255
255 255 255
255 255 255
255 255 255
255 255 255
255 255 255
255 255 255
255 255 255
255 255 255
255 255 255
255 255 255
227 227 227
152 152 152
95 95 95
91 91 91
90 90 90
90 90 90
91 91 91
89 89 89
95 95 95
90 90 90
87 87 87
90 90 90
93 93 93
90 90 90
95 95 95
89 89 89
89 89 89
89 89 89
88 88 88
85 85 85
93 93 93
88 88 88
92 92 92
98 98 98
92 92 92
93 93 93
93 93 93
115 115 115
193 193 193
252 252 252
255 255 255
255 255 255
255 255 255
255 255 255
255 255 255
255 255 255
255 255 255
255 255 255
255 255 255
255 255 255
255 255 255
255 255 255
255 255 255
255 255 255
255 255 255
255 255 255
255 255 255
255 255 255
255 255 255
255 255 255
255 255 255
255 255 255
255 255 255
255 255 255
255 255 255
255 255 255
255 255 255
255 255 255
255 255 255
255 255 255
255 255 255
255 255 255
255 255 255
255 255 255
196 196 196
112 112 112
98 98 98
84 84 84
85 85 85
85 85 85
92 92 92
85 85 85
83 83 83
84 84 84
81 81 81
94 94 94
85 85 85
94 94 94
92 92 92
96 96 96
91 91 91
82 82 82
85 85 85
84 84 84
92 92 92
95 95 95
93 93 93
95 95 95
93 93 93
95 95 95
93 93 93
92 92 92
138 138 138
239 239 239
255 255 255
255 255 255
255 255 255
255 255 255
255 255 255
255 255 255
255 255 255
255 255 255
255 255 255
255 255 255
255 255 255
255 255 255
255 255 255
255 255 255
255 255 255
255 255 255
255 255 255
255 255 255
255 255 255
255 255 255
255 255 255
255 255 255
255 255 255
255 255 255
255 255 255
255 255 255
255 255 255
255 255 255
255 255 255
255 255 255
255 255 255
255 255 255
255 255 255
255 255 255
180 180 180
112 112 112
88 88 88
91 91 91
89 89 89
82 82 82
86 86 86
88 88 88
88 88 88
88 88 88
85 85 85
89 89 89
80 80 80
88 88 88
84 84 84
88 88 88
83 83 83
82 82 82
89 89 89
94 94 94
89 89 89
85 85 85
90 90 90
95 95 95
91 91 91
91 91 91
88 88 88
92 92 92
129 129 129
209 209 209
255 255 255
255 255 255
255 255 255
255 255 255
255 255 255
255 255 255
255 255 255
255 255 255
255 255 255
255 255 255
255 255 255
255 255 255
255 255 255
255 255 255
255 255 255
255 255 255
255 255 255
255 255 255
255 255 255
255 255 255
255 255 255
255 255 255
255 255 255
255 255 255
255 255 255
255 255 255
255 255 255
255 255 255
255 255 255
255 255 255
255 255 255
255 255 255
255 255 255
252 252 252
169 169 169
90 90 90
85 85 85
84 84 84
85 85 85
81 81 81
89 89 89
76 76 76
80 80 80
84 84 84
84 84 84
81 81 81
85 85 85
79 79 79
86 86 86
78 78 78
75 75 75
87 87 87
89 89 89
82 82 82
86 86 86
86 86 86
91 91 91
93 93 93
91 91 91
89 89 89
85 85 85
95 95 95
100 100 100
188 188 188
255 255 255
255 255 255
255 255 255
255 255 255
255 255 255
255 255 255
255 255 255
255 255 255
255 255 255
255 255 255
255 255 255
255 255 255
255 255 255
255 255 255
255 255 255
255 255 255
255 255 255
255 255 255
255 255 255
255 255 255
255 255 255
255 255 255
255 255 255
255 255 255
255 255 255
255 255 255
255 255 255
255 255 255
255 255 255
255 255 255
255 255 255
255 255 255
255 255 255
249 249 249
158 158 158
89 89 89
82 82 82
85 85 85
82 82 82
83 83 83
84 84 84
76 76 76
72 72 72
77 77 77
81 81 81
78 78 78
79 79 79
80 80 80
77 77 77
80 80 80
85 85 85
80 80 80
79 79 79
85 85 85
92 92 92
83 83 83
82 82 82
86 86 86
81 81 81
81 81 81
89 89 89
86 86 86
84 84 84
171 171 171
247 247 247
255 255 255
255 255 255
255 255 255
255 255 255
255 255 255
255 255 255
255 255 255
255 255 255
255 255 255
255 255 255
255 255 255
255 255 255
255 255 255
255 255 255
255 255 255
255 255 255
255 255 255
255 255 255
255 255 255
255 255 255
255 255 255
255 255 255
255 255 255
255 255 255
255 255 255
255 255 255
255 255 255
255 255 255
255 255 255
255 255 255
255 255 255
255 255 255
246 246 246
152 152 152
84 84 84
78 78 78
76 76 76
76 76 76
74 74 74
81 81 81
85 85 85
67 67 67
76 76 76
82 82 82
82 82 82
81 81 81
79 79 79
78 78 78
81 81 81
79 79 79
77 77 77
77 77 77
77 77 77
77 77 77
79 79 79
77 77 77
84 84 84
82 82 82
77 77 77
82 82 82
82 82 82
79 79 79
153 153 153
243 243 243
255 255 255
255 255 255
255 255 255
255 255 255
255 255 255
255 255 255
255 255 255
255 255 255
255 255 255
255 255 255
255 255 255
255 255 255
255 255 255
255 255 255
255 255 255
255 255 255
255 255 255
255 255 255
255 255 255
255 255 255
255 255 255
255 255 255
255 255 255
255 255 255
255 255 255
255 255 255
255 255 255
255 255 255
255 255 255
255 255 255
255 255 255
255 255 255
252 252 252
158 158 158
71 71 71
80 80 80
79 79 79
79 79 79
80 80 80
73 73 73
71 71 71
76 76 76
75 75 75
79 79 79
75 75 75
70 70 70
79 79 79
71 71 71
76 76 76
82 82 82
77 77 77
80 80 80
75 75 75
79 79 79
71 71 71
78 78 78
78 78 78
81 81 81
80 80 80
78 78 78
82 82 82
81 81 81
145 145 145
242 242 242
255 255 255
255 255 255
248 248 248
233 233 233
206 206 206
221 221 221
222 222 222
240 240 240
250 250 250
255 255 255
255 255 255
255 255 255
255 255 255
255 255 255
255 255 255
255 255 255
255 255 255
255 255 255
255 255 255
255 255 255
255 255 255
255 255 255
255 255 255
255 255 255
255 255 255
255 255 255
255 255 255
255 255 255
255 255 255
255 255 255
255 255 255
255 255 255
255 255 255
153 153 153
85 85 85
78 78 78
75 75 75
79 79 79
73 73 73
77 77 77
74 74 74
67 67 67
78 78 78
77 77 77
78 78 78
78 78 78
76 76 76
75 75 75
79 79 79
83 83 83
80 80 80
76 76 76
73 73 73
78 78 78
74 74 74
79 79 79
74 74 74
81 81 81
73 73 73
72 72 72
78 78 78
78 78 78
134 134 134
225 225 225
255 255 255
222 222 222
174 174 174
128 128 128
160 160 160
143 143 143
134 134 134
147 147 147
177 177 177
228 228 228
254 254 254
255 255 255
255 255 255
255 255 255
255 255 255
255 255 255
255 255 255
255 255 255
255 255 255
255 255 255
255 255 255
255 255 255
255 255 255
255 255 255
255 255 255
255 255 255
255 255 255
255 255 255
255 255 255
255 255 255
255 255 255
255 255 255
255 255 255
201 201 201
98 98 98
74 74 74
67 67 67
77 77 77
71 71 71
68 68 68
70 70 70
72 72 72
79 79 79
73 73 73
67 67 67
70 70 70
75 75 75
70 70 70
72 72 72
70 70 70
71 71 71
73 73 73
77 77 77
76 76 76
68 68 68
75 75 75
76 76 76
77 77 77
73 73 73
74 74 74
69 69 69
75 75 75
130 130 130
239 239 239
206 206 206
140 140 140
84 84 84
63 63 63
74 74 74
67 67 67
80 80 80
83 83 83
96 96 96
136 136 136
219 219 219
254 254 254
255 255 255
255 255 255
255 255 255
255 255 255
255 255 255
255 255 255
255 255 255
255 255 255
255 255 255
255 255 255
255 255 255
255 255 255
255 255 255
255 255 255
255 255 255
255 255 255
255 255 255
255 255 255
255 255 255
255 255 255
255 255 255
222 222 222
132 132 132
67 67 67
64 64 64
68 68 68
65 65 65
69 69 69
67 67 67
65 65 65
67 67 67
67 67 67
71 71 71
65 65 65
68 68 68
72 72 72
70 70 70
75 75 75
74 74 74
70 70 70
71 71 71
71 71 71
72 72 72
70 70 70
73 73 73
73 73 73
69 69 69
74 74 74
65 65 65
62 62 62
161 161 161
201 201 201
105 105 105
54 54 54
63 63 63
70 70 70
77 77 77
74 74 74
74 74 74
68 68 68
73 73 73
68 68 68
131 131 131
204 204 204
255 255 255
255 255 255
255 255 255
255 255 255
255 255 255
255 255 255
255 255 255
255 255 255
255 255 255
255 255 255
255 255 255
255 255 255
255 255 255
255 255 255
255 255 255
255 255 255
255 255 255
255 255 255
255 255 255
255 255 255
255 255 255
253 253 253
157 157 157
84 84 84
62 62 62
58 58 58
73 73 73
65 65 65
60 60 60
70 70 70
65 65 65
69 69 69
65 65 65
71 71 71
65 65 65
69 69 69
67 67 67
74 74 74
70 70 70
63 63 63
72 72 72
66 66 66
73 73 73
69 69 69
76 76 76
68 68 68
65 65 65
63 63 63
63 63 63
60 60 60
148 148 148
129 129 129
49 49 49
47 47 47
58 58 58
68 68 68
71 71 71
74 74 74
80 80 80
84 84 84
75 75 75
77 77 77
83 83 83
162 162 162
242 242 242
255 255 255
255 255 255
255 255 255
255 255 255
255 255 255
255 255 255
255 255 255
255 255 255
255 255 255
255 255 255
255 255 255
255 255 255
255 255 255
255 255 255
255 255 255
255 255 255
255 255 255
255 255 255
255 255 255
255 255 255
255 255 255
216 216 216
115 115 115
67 67 67
62 62 62
62 62 62
60 60 60
63 63 63
56 56 56
67 67 67
62 62 62
62 62 62
57 57 57
65 65 65
62 62 62
69 69 69
62 62 62
60 60 60
67 67 67
62 62 62
66 66 66
65 65 65
67 67 67
60 60 60
66 66 66
63 63 63
58 58 58
62 62 62
90 90 90
155 155 155
63 63 63
33 33 33
52 52 52
63 63 63
65 65 65
66 66 66
75 75 75
68 68 68
67 67 67
70 70 70
66 66 66
72 72 72
106 106 106
225 225 225
255 255 255
255 255 255
255 255 255
255 255 255
255 255 255
255 255 255
255 255 255
255 255 255
255 255 255
255 255 255
255 255 255
255 255 255
255 255 255
255 255 255
255 255 255
255 255 255
255 255 255
255 255 255
255 255 255
255 255 255
255 255 255
245 245 245
158 158 158
84 84 84
61 61 61
60 60 60
57 57 57
63 63 63
64 64 64
60 60 60
60 60 60
60 60 60
52 52 52
60 60 60
66 66 66
63 63 63
61 61 61
57 57 57
63 63 63
58 58 58
65 65 65
63 63 63
53 53 53
63 63 63
55 55 55
54 54 54
54 54 54
60 60 60
157 157 157
145 145 145
50 50 50
36 36 36
50 50 50
54 54 54
66 66 66
67 67 67
66 66 66
65 65 65
74 74 74
74 74 74
75 75 75
69 69 69
98 98 98
192 192 192
255 255 255
255 255 255
255 255 255
255 255 255
255 255 255
255 255 255
255 255 255
255 255 255
255 255 255
255 255 255
255 255 255
255 255 255
255 255 255
255 255 255
255 255 255
255 255 255
255 255 255
255 255 255
255 255 255
255 255 255
255 255 255
255 255 255
224 224 224
119 119 119
67 67 67
54 54 54
53 53 53
54 54 54
56 56 56
56 56 56
57 57 57
55 55 55
61 61 61
57 57 57
55 55 55
58 58 58
65 65 65
59 59 59
58 58 58
53 53 53
61 61 61
61 61 61
55 55 55
52 52 52
63 63 63
49 49 49
43 43 43
86 86 86
194 194 194
169 169 169
54 54 54
27 27 27
44 44 44
53 53 53
54 54 54
60 60 60
62 62 62
58 58 58
63 63 63
60 60 60
63 63 63
62 62 62
89 89 89
177 177 177
255 255 255
255 255 255
255 255 255
255 255 255
255 255 255
255 255 255
255 255 255
255 255 255
255 255 255
255 255 255
255 255 255
255 255 255
255 255 255
255 255 255
255 255 255
255 255 255
255 255 255
255 255 255
255 255 255
255 255 255
255 255 255
255 255 255
250 250 250
183 183 183
113 113 113
58 58 58
53 53 53
56 56 56
59 59 59
52 52 52
57 57 57
50 50 50
51 51 51
52 52 52
54 54 54
52 52 52
53 53 53
54 54 54
52 52 52
47 47 47
52 52 52
49 49 49
52 52 52
46 46 46
56 56 56
49 49 49
68 68 68
169 169 169
239 239 239
171 171 171
51 51 51
30 30 30
40 40 40
53 53 53
51 51 51
57 57 57
57 57 57
49 49 49
54 54 54
58 58 58
59 59 59
55 55 55
87 87 87
200 200 200
255 255 255
255 255 255
255 255 255
255 255 255
255 255 255
255 255 255
255 255 255
255 255 255
255 255 255
255 255 255
255 255 255
255 255 255
255 255 255
255 255 255
255 255 255
255 255 255
255 255 255
255 255 255
255 255 255
255 255 255
255 255 255
255 255 255
255 255 255
246 246 246
182 182 182
105 105 105
63 63 63
45 45 45
51 51 51
47 47 47
52 52 52
52 52 52
46 46 46
53 53 53
47 47 47
51 51 51
57 57 57
48 48 48
48 48 48
47 47 47
51 51 51
50 50 50
47 47 47
47 47 47
41 41 41
48 48 48
120 120 120
196 196 196
222 222 222
171 171 171
70 70 70
32 32 32
36 36 36
48 48 48
53 53 53
50 50 50
55 55 55
49 49 49
54 54 54
55 55 55
57 57 57
56 56 56
94 94 94
205 205 205
255 255 255
255 255 255
255 255 255
255 255 255
255 255 255
255 255 255
255 255 255
255 255 255
255 255 255
255 255 255
255 255 255
255 255 255
255 255 255
255 255 255
246 246 246
243 243 243
233 233 233
229 229 229
229 229 229
225 225 225
213 213 213
214 214 214
214 214 214
198 198 198
195 195 195
132 132 132
76 76 76
46 46 46
37 37 37
45 45 45
42 42 42
42 42 42
45 45 45
46 46 46
48 48 48
44 44 44
44 44 44
45 45 45
44 44 44
39 39 39
42 42 42
42 42 42
39 39 39
29 29 29
40 40 40
81 81 81
125 125 125
150 150 150
152 152 152
132 132 132
74 74 74
33 33 33
29 29 29
39 39 39
44 44 44
47 47 47
46 46 46
46 46 46
44 44 44
49 49 49
49 49 49
53 53 53
107 107 107
178 178 178
186 186 186
197 197 197
196 196 196
203 203 203
198 198 198
213 213 213
214 214 214
213 213 213
226 226 226
230 230 230
220 220 220
237 237 237
234 234 234
234 234 234
165 165 165
175 175 175
170 170 170
168 168 168
149 149 149
154 154 154
159 159 159
155 155 155
142 142 142
143 143 143
144 144 144
125 125 125
97 97 97
71 71 71
48 48 48
40 40 40
43 43 43
38 38 38
39 39 39
39 39 39
38 38 38
40 40 40
34 34 34
37 37 37
33 33 33
33 33 33
34 34 34
32 32 32
29 29 29
44 44 44
71 71 71
100 100 100
114 114 114
118 118 118
116 116 116
118 118 118
93 93 93
44 44 44
23 23 23
27 27 27
34 34 34
40 40 40
42 42 42
43 43 43
41 41 41
38 38 38
38 38 38
71 71 71
107 107 107
124 124 124
124 124 124
129 129 129
133 133 133
137 137 137
143 143 143
140 140 140
144 144 144
148 148 148
161 161 161
165 165 165
167 167 167
159 159 159
172 172 172
173 173 173
126 126 126
122 122 122
124 124 124
124 124 124
121 121 121
122 122 122
121 121 121
121 121 121
121 121 121
118 118 118
115 115 115
113 113 113
105 105 105
102 102 102
70 70 70
57 57 57
38 38 38
29 29 29
28 28 28
27 27 27
28 28 28
30 30 30
32 32 32
31 31 31
24 24 24
29 29 29
22 22 22
22 22 22
27 27 27
42 42 42
72 72 72
72 72 72
81 81 81
74 74 74
81 81 81
94 94 94
84 84 84
64 64 64
31 31 31
22 22 22
24 24 24
24 24 24
34 34 34
32 32 32
32 32 32
38 38 38
64 64 64
96 96 96
115 115 115
122 122 122
124 124 124
124 124 124
123 123 123
124 124 124
121 121 121
124 124 124
126 126 126
125 125 125
124 124 124
125 125 125
124 124 124
126 126 126
126 126 126
125 125 125
124 124 124
121 121 121
118 118 118
118 118 118
119 119 119
121 121 121
117 117 117
112 112 112
106 106 106
104 104 104
99 99 99
97 97 97
86 86 86
74 74 74
67 67 67
56 56 56
35 35 35
22 22 22
16 16 16
14 14 14
12 12 12
13 13 13
13 13 13
10 10 10
14 14 14
10 10 10
12 12 12
16 16 16
19 19 19
30 30 30
43 43 43
37 37 37
52 52 52
69 69 69
50 50 50
49 49 49
50 50 50
52 52 52
33 33 33
12 12 12
17 17 17
13 13 13
16 16 16
18 18 18
20 20 20
33 33 33
69 69 69
88 88 88
97 97 97
107 107 107
117 117 117
116 116 116
121 121 121
121 121 121
122 122 122
121 121 121
125 125 125
122 122 122
125 125 125
124 124 124
124 124 124
123 123 123
126 126 126
125 125 125
119 119 119
112 112 112
112 112 112
112 112 112
110 110 110
107 107 107
111 111 111
92 92 92
85 85 85
91 91 91
77 77 77
81 81 81
66 66 66
54 54 54
49 49 49
36 36 36
29 29 29
15 15 15
15 15 15
11 11 11
10 10 10
7 7 7
5 5 5
9 9 9
12 12 12
17 17 17
16 16 16
18 18 18
24 24 24
27 27 27
31 31 31
51 51 51
53 53 53
45 45 45
42 42 42
49 49 49
41 41 41
31 31 31
30 30 30
32 32 32
23 23 23
24 24 24
27 27 27
30 30 30
32 32 32
51 51 51
58 58 58
72 72 72
86 86 86
91 91 91
98 98 98
101 101 101
117 117 117
114 114 114
120 120 120
120 120 120
123 123 123
122 122 122
122 122 122
123 123 123
124 124 124
125 125 125
125 125 125
122 122 122
109 109 109
105 105 105
106 106 106
107 107 107
99 99 99
97 97 97
96 96 96
91 91 91
79 79 79
79 79 79
68 68 68
70 70 70
62 62 62
53 53 53
51 51 51
38 38 38
31 31 31
29 29 29
26 26 26
27 27 27
31 31 31
28 28 28
36 36 36
26 26 26
36 36 36
36 36 36
38 38 38
48 48 48
47 47 47
57 57 57
60 60 60
60 60 60
68 68 68
73 73 73
70 70 70
78 78 78
67 67 67
72 72 72
67 67 67
71 71 71
66 66 66
75 75 75
74 74 74
79 79 79
68 68 68
76 76 76
72 72 72
86 86 86
93 93 93
98 98 98
104 104 104
107 107 107
110 110 110
118 118 118
119 119 119
110 110 110
122 122 122
122 122 122
124 124 124
120 120 120
119 119 119
124 124 124
123 123 123
122 122 122
105 105 105
100 100 100
109 109 109
99 99 99
99 99 99
100 100 100
89 89 89
90 90 90
86 86 86
70 70 70
70 70 70
80 80 80
62 62 62
74 74 74
54 54 54
60 60 60
51 51 51
51 51 51
52 52 52
54 54 54
57 57 57
51 51 51
54 54 54
63 63 63
61 61 61
56 56 56
66 66 66
68 68 68
69 69 69
77 77 77
82 82 82
78 78 78
83 83 83
85 85 85
83 83 83
81 81 81
95 95 95
93 93 93
91 91 91
95 95 95
104 104 104
105 105 105
94 94 94
98 98 98
97 97 97
102 102 102
103 103 103
107 107 107
101 101 101
103 103 103
110 110 110
113 113 113
112 112 112
115 115 115
117 117 117
117 117 117
120 120 120
119 119 119
115 115 115
122 122 122
120 120 120
122 122 122
125 125 125
124 124 124
96 96 96
99 99 99
95 95 95
97 97 97
95 95 95
89 89 89
87 87 87
93 93 93
88 88 88
84 84 84
89 89 89
85 85 85
77 77 77
76 76 76
72 72 72
76 76 76
79 79 79
73 73 73
75 75 75
73 73 73
69 69 69
71 71 71
75 75 75
84 84 84
84 84 84
77 77 77
78 78 78
84 84 84
94 94 94
89 89 89
99 99 99
90 90 90
100 100 100
101 101 101
105 105 105
99 99 99
107 107 107
109 109 109
102 102 102
99 99 99
105 105 105
101 101 101
112 112 112
107 107 107
108 108 108
110 110 110
111 111 111
115 115 115
112 112 112
117 117 117
111 111 111
112 112 112
113 113 113
120 120 120
120 120 120
119 119 119
119 119 119
118 118 118
119 119 119
118 118 118
125 125 125
123 123 123
124 124 124
122 122 122
102 102 102
99 99 99
103 103 103
97 97 97
99 99 99
100 100 100
94 94 94
95 95 95
94 94 94
96 96 96
89 89 89
80 80 80
96 96 96
90 90 90
85 85 85
89 89 89
92 92 92
98 98 98
82 82 82
84 84 84
90 90 90
91 91 91
91 91 91
87 87 87
99 99 99
97 97 97
102 102 102
95 95 95
98 98 98
97 97 97
105 105 105
98 98 98
103 103 103
106 106 106
106 106 106
102 102 102
102 102 102
107 107 107
106 106 106
108 108 108
115 115 115
111 111 111
113 113 113
104 104 104
113 113 113
107 107 107
111 111 111
116 116 116
113 113 113
112 112 112
117 117 117
114 114 114
120 120 120
118 118 118
114 114 114
117 117 117
119 119 119
122 122 122
117 117 117
116 116 116
122 122 122
120 120 120
123 123 123
122 122 122
106 106 106
107 107 107
100 100 100
104 104 104
108 108 108
103 103 103
101 101 101
102 102 102
96 96 96
95 95 95
94 94 94
100 100 100
90 90 90
99 99 99
100 100 100
101 101 101
100 100 100
97 97 97
100 100 100
99 99 99
101 101 101
104 104 104
97 97 97
103 103 103
106 106 106
101 101 101
97 97 97
105 105 105
104 104 104
107 107 107
105 105 105
108 108 108
108 108 108
111 111 111
113 113 113
106 106 106
105 105 105
102 102 102
112 112 112
109 109 109
110 110 110
111 111 111
118 118 118
113 113 113
117 117 117
120 120 120
112 112 112
117 117 117
117 117 117
118 118 118
119 119 119
121 121 121
119 119 119
118 118 118
115 115 115
119 119 119
119 119 119
119 119 119
121 121 121
117 117 117
125 125 125
120 120 120
119 119 119
120 120 120
104 104 104
113 113 113
105 105 105
104 104 104
106 106 106
104 104 104
104 104 104
103 103 103
100 100 100
105 105 105
99 99 99
105 105 105
103 103 103
106 106 106
106 106 106
105 105 105
98 98 98
105 105 105
104 104 104
101 101 101
110 110 110
93 93 93
109 109 109
109 109 109
107 107 107
109 109 109
106 106 106
113 113 113
108 108 108
106 106 106
114 114 114
107 107 107
108 108 108
109 109 109
113 113 113
108 108 108
118 118 118
112 112 112
118 118 118
116 116 116
116 116 116
112 112 112
113 113 113
115 115 115
113 113 113
113 113 113
118 118 118
115 115 115
118 118 118
117 117 117
120 120 120
119 119 119
120 120 120
119 119 119
119 119 119
122 122 122
123 123 123
121 121 121
120 120 120
121 121 121
120 120 120
120 120 120
120 120 120
125 125 125
109 109 109
111 111 111
110 110 110
104 104 104
116 116 116
108 108 108
107 107 107
106 106 106
111 111 111
106 106 106
107 107 107
110 110 110
106 106 106
110 110 110
111 111 111
106 106 106
109 109 109
104 104 104
107 107 107
112 112 112
106 106 106
111 111 111
112 112 112
105 105 105
111 111 111
110 110 110
111 111 111
111 111 111
109 109 109
111 111 111
109 109 109
111 111 111
116 116 116
114 114 114
115 115 115
107 107 107
111 111 111
114 114 114
120 120 120
116 116 116
111 111 111
118 118 118
116 116 116
118 118 118
115 115 115
122 122 122
119 119 119
119 119 119
120 120 120
118 118 118
119 119 119
119 119 119
116 116 116
118 118 118
123 123 123
114 114 114
120 120 120
120 120 120
120 120 120
118 118 118
119 119 119
123 123 123
123 123 123
118 118 118
109 109 109
111 111 111
109 109 109
107 107 107
110 110 110
105 105 105
110 110 110
109 109 109
112 112 112
106 106 106
111 111 111
109 109 109
109 109 109
111 111 111
113 113 113
114 114 114
114 114 114
111 111 111
107 107 107
106 106 106
114 114 114
106 106 106
114 114 114
110 110 110
113 113 113
111 111 111
115 115 115
112 112 112
117 117 117
112 112 112
113 113 113
118 118 118
111 111 111
114 114 114
116 116 116
118 118 118
116 116 116
113 113 113
116 116 116
117 117 117
117 117 117
112 112 112
121 121 121
119 119 119
118 118 118
118 118 118
122 122 122
121 121 121
119 119 119
119 119 119
119 119 119
117 117 117
121 121 121
123 123 123
117 117 117
118 118 118
119 119 119
122 122 122
122 122 122
120 120 120
122 122 122
119 119 119
120 120 120
123 123 123
109 109 109
113 113 113
112 112 112
113 113 113
112 112 112
113 113 113
111 111 111
110 110 110
109 109 109
115 115 115
112 112 112
106 106 106
115 115 115
113 113 113
113 113 113
108 108 108
111 111 111
114 114 114
112 112 112
115 115 115
111 111 111
114 114 114
112 112 112
111 111 111
118 118 118
116 116 116
109 109 109
114 114 114
113 113 113
113 113 113
115 115 115
113 113 113
117 117 117
111 111 111
118 118 118
115 115 115
118 118 118
119 119 119
118 118 118
120 120 120
119 119 119
111 111 111
122 122 122
118 118 118
119 119 119
123 123 123
119 119 119
118 118 118
123 123 123
116 116 116
121 121 121
122 122 122
119 119 119
119 119 119
123 123 123
122 122 122
121 121 121
122 122 122
120 120 120
123 123 123
122 122 122
123 123 123
120 120 120
119 119 119
117 117 117
118 118 118
112 112 112
114 114 114
117 117 117
113 113 113
112 112 112
118 118 118
114 114 114
115 115 115
112 112 112
116 116 116
113 113 113
112 112 112
114 114 114
116 116 116
108 108 108
116 116 116
115 115 115
115 115 115
113 113 113
115 115 115
113 113 113
118 118 118
120 120 120
112 112 112
119 119 119
110 110 110
118 118 118
113 113 113
118 118 118
115 115 115
118 118 118
120 120 120
119 119 119
120 120 120
121 121 121
121 121 121
121 121 121
120 120 120
119 119 119
120 120 120
120 120 120
116 116 116
120 120 120
119 119 119
112 112 112
119 119 119
119 119 119
122 122 122
119 119 119
120 120 120
119 119 119
116 116 116
120 120 120
123 123 123
116 116 116
123 123 123
124 124 124
123 123 123
121 121 121
123 123 123
120 120 120
119 119 119
112 112 112
117 117 117
112 112 112
116 116 116
115 115 115
116 116 116
112 112 112
120 120 120
115 115 115
117 117 117
118 118 118
113 113 113
115 115 115
118 118 118
119 119 119
111 111 111
116 116 116
117 117 117
118 118 118
113 113 113
116 116 116
117 117 117
114 114 114
121 121 121
114 114 114
119 119 119
117 117 117
118 118 118
118 118 118
119 119 119
116 116 116
119 119 119
115 115 115
118 118 118
115 115 115
118 118 118
118 118 118
118 118 118
116 116 116
114 114 114
123 123 123
122 122 122
123 123 123
122 122 122
117 117 117
118 118 118
122 122 122
116 116 116
119 119 119
120 120 120
120 120 120
120 120 120
120 120 120
123 123 123
122 122 122
121 121 121
121 121 121
122 122 122
122 122 122
122 122 122
123 123 123
120 120 120
119 119 119
120 120 120
116 116 116
118 118 118
111 111 111
116 116 116
112 112 112
117 117 117
116 116 116
115 115 115
114 114 114
112 112 112
116 116 116
114 114 114
117 117 117
117 117 117
116 116 116
117 117 117
118 118 118
113 113 113
117 117 117
121 121 121
117 117 117
119 119 119
118 118 118
117 117 117
114 114 114
115 115 115
114 114 114
119 119 119
119 119 119
116 116 116
116 116 116
119 119 119
119 119 119
117 117 117
116 116 116
119 119 119
120 120 120
116 116 116
120 120 120
121 121 121
118 118 118
115 115 115
119 119 119
120 120 120
117 117 117
120 120 120
118 118 118
122 122 122
120 120 120
120 120 120
121 121 121
121 121 121
124 124 124
121 121 121
120 120 120
121 121 121
123 123 123
122 122 122
122 122 122
123 123 123
123 123 123
122 122 122
119 119 119
124 124 124
116 116 116
118 118 118
115 115 115
117 117 117
117 117 117
121 121 121
114 114 114
114 114 114
118 118 118
116 116 116
117 117 117
113 113 113
115 115 115
117 117 117
115 115 115
118 118 118
113 113 113
118 118 118
118 118 118
118 118 118
115 115 115
118 118 118
115 115 115
117 117 117
118 118 118
114 114 114
118 118 118
119 119 119
116 116 116
119 119 119
121 121 121
116 116 116
119 119 119
121 121 121
123 123 123
121 121 121
124 124 124
118 118 118
115 115 115
121 121 121
119 119 119
122 122 122
121 121 121
120 120 120
120 120 120
119 119 119
122 122 122
120 120 120
119 119 119
122 122 122
122 122 122
124 124 124
121 121 121
120 120 120
118 118 118
122 122 122
121 121 121
123 123 123
120 120 120
121 121 121
123 123 123
122 122 122
125 125 125
124 124 124
118 118 118
119 119 119
113 113 113
116 116 116
116 116 116
116 116 116
118 118 118
117 117 117
118 118 118
117 117 117
118 118 118
117 117 117
118 118 118
120 120 120
121 121 121
119 119 119
120 120 120
116 116 116
113 113 113
117 117 117
114 114 114
114 114 114
114 114 114
120 120 120
118 118 118
121 121 121
119 119 119
116 116 116
120 120 120
122 122 122
120 120 120
119 119 119
121 121 121
116 116 116
116 116 116
119 119 119
121 121 121
116 116 116
121 121 121
121 121 121
122 122 122
122 122 122
121 121 121
120 120 120
122 122 122
122 122 122
118 118 118
121 121 121
117 117 117
121 121 121
120 120 120
124 124 124
125 125 125
120 120 120
119 119 119
118 118 118
117 117 117
123 123 123
124 124 124
124 124 124
122 122 122
123 123 123
120 120 120
120 120 120
120 120 120
118 118 118
119 119 119
122 122 122
116 116 116
117 117 117
120 120 120
118 118 118
121 121 121
117 117 117
117 117 117
120 120 120
118 118 118
114 114 114
119 119 119
123 123 123
121 121 121
121 121 121
114 114 114
120 120 120
120 120 120
120 120 120
118 118 118
120 120 120
120 120 120
120 120 120
120 120 120
119 119 119
117 117 117
117 117 117
120 120 120
117 117 117
119 119 119
120 120 120
124 124 124
117 117 117
118 118 118
121 121 121
120 120 120
117 117 117
122 122 122
120 120 120
122 122 122
116 116 116
118 118 118
115 115 115
122 122 122
124 124 124
121 121 121
120 120 120
124 124 124
120 120 120
123 123 123
124 124 124
123 123 123
123 123 123
122 122 122
122 122 122
120 120 120
125 125 125
121 121 121
122 122 122
124 124 124
124 124 124
118 118 118
116 116 116
121 121 121
120 120 120
117 117 117
116 116 116
120 120 120
117 117 117
120 120 120
117 117 117
121 121 121
118 118 118
122 122 122
121 121 121
114 114 114
119 119 119
120 120 120
120 120 120
118 118 118
121 121 121
114 114 114
121 121 121
122 122 122
120 120 120
123 123 123
119 119 119
119 119 119
118 118 118
118 118 118
119 119 119
118 118 118
120 120 120
118 118 118
121 121 121
123 123 123
120 120 120
118 118 118
122 122 122
120 120 120
123 123 123
123 123 123
122 122 122
120 120 120
119 119 119
120 120 120
123 123 123
120 120 120
119 119 119
123 123 123
121 121 121
121 121 121
121 121 121
119 119 119
121 121 121
121 121 121
120 120 120
123 123 123
123 123 123
121 121 121
122 122 122
123 123 123
121 121 121
119 119 119
122 122 122
117 117 117
117 117 117
119 119 119
122 122 122
121 121 121
114 114 114
117 117 117
118 118 118
121 121 121
115 115 115
115 115 115
115 115 115
120 120 120
119 119 119
121 121 121
114 114 114
117 117 117
122 122 122
118 118 118
116 116 116
118 118 118
121 121 121
117 117 117
120 120 120
118 118 118
120 120 120
121 121 121
115 115 115
121 121 121
119 119 119
118 118 118
120 120 120
120 120 120
118 118 118
122 122 122
117 117 117
121 121 121
120 120 120
120 120 120
120 120 120
121 121 121
120 120 120
117 117 117
120 120 120
121 121 121
122 122 122
121 121 121
120 120 120
120 120 120
124 124 124
122 122 122
121 121 121
123 123 123
118 118 118
119 119 119
121 121 121
122 122 122
120 120 120
123 123 123
124 124 124
121 121 121
118 118 118
121 121 121
120 120 120
117 117 117
114 114 114
117 117 117
123 123 123
118 118 118
117 117 117
123 123 123
118 118 118
119 119 119
124 124 124
115 115 115
123 123 123
117 117 117
120 120 120
116 116 116
119 119 119
121 121 121
120 120 120
118 118 118
121 121 121
118 118 118
119 119 119
117 117 117
122 122 122
119 119 119
121 121 121
119 119 119
120 120 120
121 121 121
118 118 118
124 124 124
119 119 119
122 122 122
122 122 122
118 118 118
120 120 120
120 120 120
116 116 116
121 121 121
123 123 123
120 120 120
120 120 120
120 120 120
123 123 123
120 120 120
122 122 122
123 123 123
119 119 119
122 122 122
120 120 120
121 121 121
122 122 122
122 122 122
120 120 120
120 120 120
123 123 123
126 126 126
123 123 123
121 121 121
122 122 122
122 122 122
123 123 123
122 122 122
122 122 122
118 118 118
122 122 122
118 118 118
122 122 122
113 113 113
121 121 121
121 121 121
121 121 121
120 120 120
118 118 118
117 117 117
122 122 122
118 118 118
114 114 114
123 123 123
120 120 120
122 122 122
116 116 116
119 119 119
122 122 122
122 122 122
119 119 119
117 117 117
119 119 119
122 122 122
123 123 123
122 122 122
122 122 122
123 123 123
118 118 118
122 122 122
122 122 122
119 119 119
118 118 118
127 127 127
122 122 122
121 121 121
121 121 121
120 120 120
123 123 123
122 122 122
122 122 122
119 119 119
121 121 121
123 123 123
122 122 122
121 121 121
122 122 122
123 123 123
124 124 124
124 124 124
122 122 122
125 125 125
122 122 122
121 121 121
122 122 122
124 124 124
122 122 122
124 124 124
121 121 121
124 124 124
124 124 124
122 122 122
123 123 123
119 119 119
121 121 121
118 118 118
119 119 119
120 120 120
119 119 119
120 120 120
120 120 120
123 123 123
121 121 121
118 118 118
119 119 119
119 119 119
118 118 118
120 120 120
121 121 121
121 121 121
119 119 119
123 123 123
120 120 120
119 119 119
122 122 122
118 118 118
120 120 120
119 119 119
123 123 123
121 121 121
117 117 117
121 121 121
117 117 117
121 121 121
121 121 121
121 121 121
122 122 122
121 121 121
120 120 120
122 122 122
122 122 122
119 119 119
125 125 125
120 120 120
120 120 120
122 122 122
120 120 120
122 122 122
121 121 121
122 122 122
125 125 125
122 122 122
121 121 121
122 122 122
122 122 122
122 122 122
121 121 121
116 116 116
123 123 123
122 122 122
121 121 121
124 124 124
124 124 124
125 125 125
125 125 125
122 122 122
122 122 122
123 123 123
120 120 120
122 122 122
122 122 122
120 120 120
119 119 119
120 120 120
123 123 123
117 117 117
119 119 119
122 122 122
120 120 120
122 122 122
120 120 120
118 118 118
119 119 119
119 119 119
119 119 119
116 116 116
122 122 122
120 120 120
123 123 123
119 119 119
120 120 120
118 118 118
123 123 123
122 122 122
119 119 119
120 120 120
121 121 121
119 119 119
122 122 122
121 121 121
121 121 121
121 121 121
123 123 123
122 122 122
124 124 124
119 119 119
123 123 123
122 122 122
122 122 122
122 122 122
122 122 122
120 120 120
123 123 123
120 120 120
120 120 120
124 124 124
119 119 119
121 121 121
122 122 122
122 122 122
119 119 119
123 123 123
124 124 124
120 120 120
124 124 124
120 120 120
122 122 122
123 123 123
122 122 122
123 123 123
123 123 123
118 118 118
121 121 121
123 123 123
121 121 121
121 121 121
120 120 120
120 120 120
123 123 123
122 122 122
120 120 120
118 118 118
119 119 119
118 118 118
117 117 117
122 122 122
120 120 120
123 123 123
118 118 118
119 119 119
122 122 122
121 121 121
123 123 123
122 122 122
121 121 121
124 124 124
120 120 120
121 121 121
123 123 123
122 122 122
124 124 124
120 120 120
120 120 120
121 121 121
122 122 122
119 119 119
125 125 125
121 121 121
121 121 121
121 121 121
122 122 122
122 122 122
123 123 123
119 119 119
122 122 122
122 122 122
121 121 121
118 118 118
119 119 119
120 120 120
119 119 119
123 123 123
123 123 123
122 122 122
116 116 116
121 121 121
118 118 118
123 123 123
124 124 124
123 123 123
122 122 122
124 124 124
122 122 122
122 122 122
123 123 123
120 120 120
123 123 123
117 117 117
120 120 120
120 120 120
123 123 123
122 122 122
117 117 117
119 119 119
120 120 120
123 123 123
119 119 119
120 120 120
122 122 122
117 117 117
121 121 121
121 121 121
122 122 122
118 118 118
124 124 124
117 117 117
120 120 120
121 121 121
120 120 120
121 121 121
118 118 118
118 118 118
120 120 120
122 122 122
121 121 121
119 119 119
121 121 121
122 122 122
119 119 119
120 120 120
122 122 122
119 119 119
119 119 119
120 120 120
122 122 122
119 119 119
122 122 122
122 122 122
121 121 121
122 122 122
120 120 120
122 122 122
122 122 122
123 123 123
120 120 120
120 120 120
121 121 121
123 123 123
120 120 120
120 120 120
121 121 121
123 123 123
122 122 122
120 120 120
123 123 123
124 124 124
120 120 120
117 117 117
122 122 122
119 119 119
120 120 120
122 122 122
121 121 121
123 123 123
121 121 121
124 124 124
120 120 120
122 122 122
120 120 120
119 119 119
119 119 119
121 121 121
123 123 123
123 123 123
121 121 121
121 121 121
120 120 120
119 119 119
116 116 116
123 123 123
120 120 120
117 117 117
123 123 123
121 121 121
121 121 121
124 124 124
120 120 120
117 117 117
122 122 122
122 122 122
121 121 121
118 118 118
121 121 121
118 118 118
121 121 121
119 119 119
122 122 122
121 121 121
122 122 122
123 123 123
123 123 123
119 119 119
121 121 121
123 123 123
124 124 124
121 121 121
119 119 119
122 122 122
119 119 119
121 121 121
120 120 120
123 123 123
125 125 125
120 120 120
124 124 124
122 122 122
120 120 120
120 120 120
122 122 122
122 122 122
123 123 123
123 123 123
121 121 121
116 116 116
119 119 119
124 124 124
119 119 119
118 118 118
122 122 122
115 115 115
118 118 118
120 120 120
123 123 123
121 121 121
119 119 119
122 122 122
122 122 122
120 120 120
121 121 121
121 121 121
122 122 122
123 123 123
117 117 117
121 121 121
120 120 120
122 122 122
124 124 124
124 124 124
119 119 119
122 122 122
121 121 121
121 121 121
118 118 118
122 122 122
121 121 121
123 123 123
121 121 121
122 122 122
121 121 121
120 120 120
122 122 122
126 126 126
124 124 124
121 121 121
123 123 123
121 121 121
123 123 123
121 121 121
121 121 121
124 124 124
120 120 120
119 119 119
122 122 122
121 121 121
119 119 119
122 122 122
119 119 119
119 119 119
121 121 121
124 124 124
121 121 121
123 123 123
121 121 121
122 122 122
124 124 124
124 124 124
124 124 124
