P3
# Rays 2018
64 64
255
31 31 31
31 31 31
31 31 31
31 31 31
31 31 31
31 31 31
31 31 31
31 31 31
31 31 31
31 31 31
31 31 31
31 31 31
31 31 31
31 31 31
31 31 31
31 31 31
31 31 31
31 31 31
31 31 31
31 31 31
31 31 31
31 31 31
31 31 31
31 31 31
31 31 31
31 31 31
31 31 31
31 31 31
31 31 31
31 31 31
31 31 31
31 31 31
31 31 31
31 31 31
31 31 31
31 31 31
31 31 31
31 31 31
31 31 31
31 31 31
31 31 31
31 31 31
31 31 31
31 31 31
31 31 31
31 31 31
31 31 31
31 31 31
31 31 31
31 31 31
31 31 31
31 31 31
31 31 31
31 31 31
31 31 31
31 31 31
31 31 31
31 31 31
31 31 31
31 31 31
31 31 31
31 31 31
31 31 31
31 31 31
31 31 31
31 31 31
31 31 31
31 31 31
31 31 31
31 31 31
31 31 31
31 31 31
31 31 31
31 31 31
31 31 31
31 31 31
31 31 31
31 31 31
31 31 31
31 31 31
31 31 31
31 31 31
31 31 31
31 31 31
31 31 31
31 31 31
31 31 31
31 31 31
31 31 31
31 31 31
31 31 31
31 31 31
31 31 31
31 31 31
31 31 31
31 31 31
31 31 31
31 31 31
31 31 31
31 31 31
31 31 31
31 31 31
31 31 31
31 31 31
31 31 31
31 31 31
31 31 31
31 31 31
31 31 31
31 31 31
31 31 31
31 31 31
31 31 31
31 31 31
31 31 31
31 31 31
31 31 31
31 31 31
31 31 31
31 31 31
31 31 31
31 31 31
31 31 31
31 31 31
31 31 31
31 31 31
31 31 31
31 31 31
31 31 31
31 31 31
31 31 31
31 31 31
31 31 31
31 31 31
31 31 31
31 31 31
31 31 31
31 31 31
31 31 31
31 31 31
31 31 31
31 31 31
31 31 31
31 31 31
31 31 31
31 31 31
31 31 31
31 31 31
31 31 31
31 31 31
31 31 31
31 31 31
31 31 31
31 31 31
31 31 31
31 31 31
31 31 31
31 31 31
31 31 31
31 31 31
31 31 31
31 31 31
31 31 31
31 31 31
31 31 31
31 31 31
31 31 31
31 31 31
31 31 31
31 31 31
31 31 31
31 31 31
31 31 31
31 31 31
31 31 31
31 31 31
31 31 31
31 31 31
31 31 31
31 31 31
31 31 31
31 31 31
31 31 31
31 31 31
31 31 31
31 31 31
31 31 31
31 31 31
31 31 31
31 31 31
31 31 31
31 31 31
31 31 31
31 31 31
31 31 31
31 31 31
31 31 31
31 31 31
31 31 31
31 31 31
31 31 31
31 31 31
31 31 31
31 31 31
31 31 31
31 31 31
31 31 31
31 31 31
31 31 31
31 31 31
31 31 31
31 31 31
31 31 31
31 31 31
31 31 31
31 31 31
31 31 31
31 31 31
31 31 31
31 31 31
31 31 31
31 31 31
31 31 31
31 31 31
31 31 31
31 31 31
31 31 31
31 31 31
31 31 31
31 31 31
31 31 31
31 31 31
31 31 31
31 31 31
31 31 31
31 31 31
31 31 31
31 31 31
31 31 31
31 31 31
31 31 31
31 31 31
31 31 31
31 31 31
31 31 31
31 31 31
31 31 31
31 31 31
31 31 31
31 31 31
31 31 31
31 31 31
31 31 31
31 31 31
31 31 31
31 31 31
31 31 31
31 31 31
31 31 31
31 31 31
31 31 31
31 31 31
31 31 31
31 31 31
31 31 31
31 31 31
31 31 31
31 31 31
31 31 31
31 31 31
31 31 31
31 31 31
31 31 31
31 31 31
31 31 31
31 31 31
31 31 31
31 31 31
31 31 31
31 31 31
31 31 31
31 31 31
31 31 31
31 31 31
31 31 31
31 31 31
31 31 31
31 31 31
31 31 31
31 31 31
31 31 31
31 31 31
31 31 31
31 31 31
31 31 31
31 31 31
31 31 31
31 31 31
31 31 31
31 31 31
31 31 31
31 31 31
31 31 31
31 31 31
31 31 31
31 31 31
31 31 31
31 31 31
31 31 31
31 31 31
31 31 31
31 31 31
31 31 31
31 31 31
31 31 31
31 31 31
31 31 31
31 31 31
31 31 31
31 31 31
31 31 31
31 31 31
31 31 31
31 31 31
31 31 31
31 31 31
31 31 31
31 31 31
31 31 31
31 31 31
31 31 31
31 31 31
31 31 31
31 31 31
31 31 31
31 31 31
31 31 31
31 31 31
31 31 31
31 31 31
31 31 31
31 31 31
31 31 31
31 31 31
31 31 31
31 31 31
31 31 31
31 31 31
31 31 31
31 31 31
31 31 31
31 31 31
31 31 31
31 31 31
31 31 31
31 31 31
31 31 31
31 31 31
31 31 31
31 31 31
31 31 31
31 31 31
31 31 31
31 31 31
31 31 31
31 31 31
31 31 31
31 31 31
31 31 31
31 31 31
31 31 31
31 31 31
31 31 31
31 31 31
31 31 31
31 31 31
31 31 31
31 31 31
31 31 31
31 31 31
31 31 31
31 31 31
31 31 31
31 31 31
31 31 31
31 31 31
31 31 31
31 31 31
31 31 31
31 31 31
31 31 31
31 31 31
31 31 31
31 31 31
31 31 31
31 31 31
31 31 31
31 31 31
31 31 31
31 31 31
31 31 31
31 31 31
31 31 31
31 31 31
31 31 31
31 31 31
31 31 31
31 31 31
31 31 31
31 31 31
31 31 31
31 31 31
31 31 31
31 31 31
31 31 31
31 31 31
31 31 31
31 31 31
31 31 31
31 31 31
31 31 31
31 31 31
31 31 31
31 31 31
31 31 31
31 31 31
31 31 31
31 31 31
31 31 31
31 31 31
31 31 31
31 31 31
31 31 31
31 31 31
31 31 31
31 31 31
31 31 31
31 31 31
31 31 31
31 31 31
31 31 31
31 31 31
31 31 31
31 31 31
31 31 31
31 31 31
31 31 31
31 31 31
31 31 31
31 31 31
31 31 31
31 31 31
31 31 31
31 31 31
31 31 31
31 31 31
31 31 31
31 31 31
31 31 31
31 31 31
31 31 31
31 31 31
31 31 31
31 31 31
31 31 31
31 31 31
31 31 31
31 31 31
31 31 31
31 31 31
31 31 31
31 31 31
31 31 31
31 31 31
31 31 31
31 31 31
31 31 31
31 31 31
31 31 31
31 31 31
31 31 31
31 31 31
31 31 31
31 31 31
31 31 31
31 31 31
31 31 31
31 31 31
31 31 31
31 31 31
31 31 31
31 31 31
31 31 31
31 31 31
31 31 31
31 31 31
31 31 31
31 31 31
31 31 31
31 31 31
31 31 31
31 31 31
31 31 31
31 31 31
31 31 31
31 31 31
31 31 31
31 31 31
31 31 31
31 31 31
31 31 31
31 31 31
31 31 31
31 31 31
31 31 31
31 31 31
31 31 31
31 31 31
31 31 31
31 31 31
31 31 31
31 31 31
31 31 31
31 31 31
31 31 31
31 31 31
31 31 31
31 31 31
31 31 31
31 31 31
31 31 31
31 31 31
31 31 31
31 31 31
31 31 31
31 31 31
31 31 31
31 31 31
31 31 31
31 31 31
31 31 31
31 31 31
31 31 31
31 31 31
31 31 31
31 31 31
31 31 31
31 31 31
31 31 31
31 31 31
31 31 31
31 31 31
31 31 31
31 31 31
31 31 31
31 31 31
31 31 31
31 31 31
31 31 31
31 31 31
31 31 31
31 31 31
31 31 31
31 31 31
31 31 31
31 31 31
31 31 31
31 31 31
31 31 31
31 31 31
31 31 31
31 31 31
31 31 31
31 31 31
31 31 31
31 31 31
31 31 31
31 31 31
31 31 31
31 31 31
31 31 31
31 31 31
31 31 31
31 31 31
31 31 31
31 31 31
31 31 31
31 31 31
31 31 31
31 31 31
31 31 31
31 31 31
31 31 31
31 31 31
31 31 31
31 31 31
31 31 31
31 31 31
31 31 31
31 31 31
31 31 31
31 31 31
31 31 31
31 31 31
31 31 31
31 31 31
31 31 31
31 31 31
31 31 31
31 31 31
31 31 31
31 31 31
31 31 31
31 31 31
31 31 31
31 31 31
31 31 31
31 31 31
31 31 31
31 31 31
31 31 31
31 31 31
31 31 31
31 31 31
31 31 31
31 31 31
31 31 31
31 31 31
31 31 31
31 31 31
31 31 31
31 31 31
31 31 31
31 31 31
31 31 31
31 31 31
31 31 31
31 31 31
31 31 31
31 31 31
31 31 31
31 31 31
31 31 31
31 31 31
31 31 31
31 31 31
31 31 31
31 31 31
31 31 31
31 31 31
31 31 31
31 31 31
31 31 31
31 31 31
31 31 31
31 31 31
31 31 31
31 31 31
31 31 31
31 31 31
31 31 31
31 31 31
31 31 31
31 31 31
31 31 31
31 31 31
31 31 31
31 31 31
31 31 31
31 31 31
31 31 31
31 31 31
31 31 31
31 31 31
31 31 31
31 31 31
31 31 31
31 31 31
31 31 31
31 31 31
31 31 31
31 31 31
31 31 31
31 31 31
31 31 31
31 31 31
31 31 31
31 31 31
31 31 31
31 31 31
31 31 31
31 31 31
31 31 31
31 31 31
31 31 31
31 31 31
31 31 31
31 31 31
31 31 31
31 31 31
31 31 31
31 31 31
31 31 31
31 31 31
31 31 31
31 31 31
31 31 31
31 31 31
31 31 31
31 31 31
31 31 31
31 31 31
31 31 31
31 31 31
31 31 31
31 31 31
31 31 31
31 31 31
31 31 31
31 31 31
31 31 31
31 31 31
31 31 31
31 31 31
31 31 31
31 31 31
31 31 31
31 31 31
31 31 31
31 31 31
31 31 31
31 31 31
31 31 31
31 31 31
31 31 31
31 31 31
31 31 31
31 31 31
31 31 31
31 31 31
31 31 31
31 31 31
31 31 31
31 31 31
31 31 31
31 31 31
31 31 31
31 31 31
31 31 31
31 31 31
31 31 31
31 31 31
31 31 31
31 31 31
31 31 31
31 31 31
31 31 31
31 31 31
31 31 31
31 31 31
31 31 31
31 31 31
31 31 31
31 31 31
31 31 31
31 31 31
31 31 31
31 31 31
31 31 31
31 31 31
31 31 31
31 31 31
31 31 31
31 31 31
31 31 31
31 31 31
31 31 31
31 31 31
31 31 31
31 31 31
31 31 31
31 31 31
31 31 31
31 31 31
31 31 31
31 31 31
31 31 31
31 31 31
31 31 31
31 31 31
31 31 31
31 31 31
31 31 31
31 31 31
31 31 31
31 31 31
31 31 31
31 31 31
31 31 31
31 31 31
31 31 31
31 31 31
31 31 31
31 31 31
31 31 31
31 31 31
31 31 31
31 31 31
31 31 31
31 31 31
31 31 31
31 31 31
31 31 31
31 31 31
31 31 31
31 31 31
31 31 31
31 31 31
31 31 31
31 31 31
31 31 31
31 31 31
31 31 31
31 31 31
31 31 31
31 31 31
31 31 31
31 31 31
31 31 31
31 31 31
31 31 31
31 31 31
31 31 31
31 31 31
31 31 31
31 31 31
31 31 31
31 31 31
31 31 31
31 31 31
31 31 31
31 31 31
31 31 31
31 31 31
31 31 31
31 31 31
31 31 31
31 31 31
31 31 31
31 31 31
31 31 31
31 31 31
31 31 31
31 31 31
31 31 31
31 31 31
31 31 31
31 31 31
31 31 31
31 31 31
31 31 31
31 31 31
31 31 31
31 31 31
31 31 31
31 31 31
31 31 31
31 31 31
31 31 31
31 31 31
31 31 31
31 31 31
31 31 31
31 31 31
31 31 31
31 31 31
31 31 31
31 31 31
31 31 31
31 31 31
31 31 31
31 31 31
31 31 31
31 31 31
31 31 31
31 31 31
31 31 31
31 31 31
31 31 31
31 31 31
31 31 31
31 31 31
31 31 31
31 31 31
31 31 31
31 31 31
31 31 31
31 31 31
31 31 31
31 31 31
31 31 31
31 31 31
31 31 31
31 31 31
31 31 31
31 31 31
31 31 31
31 31 31
31 31 31
31 31 31
31 31 31
31 31 31
31 31 31
31 31 31
31 31 31
31 31 31
31 31 31
31 31 31
31 31 31
31 31 31
31 31 31
31 31 31
31 31 31
31 31 31
31 31 31
31 31 31
31 31 31
31 31 31
31 31 31
31 31 31
31 31 31
31 31 31
31 31 31
31 31 31
31 31 31
31 31 31
31 31 31
31 31 31
31 31 31
31 31 31
31 31 31
31 31 31
31 31 31
31 31 31
31 31 31
31 31 31
31 31 31
31 31 31
31 31 31
31 31 31
31 31 31
31 31 31
31 31 31
31 31 31
31 31 31
31 31 31
31 31 31
31 31 31
31 31 31
31 31 31
31 31 31
31 31 31
31 31 31
31 31 31
31 31 31
31 31 31
31 31 31
31 31 31
31 31 31
31 31 31
31 31 31
31 31 31
31 31 31
31 31 31
31 31 31
31 31 31
31 31 31
31 31 31
31 31 31
31 31 31
31 31 31
31 31 31
31 31 31
31 31 31
31 31 31
31 31 31
31 31 31
31 31 31
31 31 31
31 31 31
31 31 31
31 31 31
31 31 31
31 31 31
31 31 31
31 31 31
31 31 31
31 31 31
31 31 31
31 31 31
31 31 31
31 31 31
31 31 31
31 31 31
31 31 31
31 31 31
31 31 31
31 31 31
31 31 31
31 31 31
31 31 31
31 31 31
31 31 31
31 31 31
31 31 31
31 31 31
31 31 31
31 31 31
31 31 31
31 31 31
31 31 31
31 31 31
31 31 31
31 31 31
31 31 31
31 31 31
31 31 31
31 31 31
31 31 31
31 31 31
31 31 31
31 31 31
31 31 31
31 31 31
31 31 31
31 31 31
31 31 31
31 31 31
31 31 31
31 31 31
31 31 31
31 31 31
31 31 31
31 31 31
31 31 31
31 31 31
31 31 31
31 31 31
31 31 31
31 31 31
31 31 31
31 31 31
31 31 31
31 31 31
31 31 31
31 31 31
31 31 31
31 31 31
31 31 31
31 31 31
31 31 31
31 31 31
31 31 31
31 31 31
31 31 31
31 31 31
31 31 31
31 31 31
31 31 31
31 31 31
31 31 31
31 31 31
31 31 31
31 31 31
31 31 31
31 31 31
31 31 31
31 31 31
31 31 31
31 31 31
31 31 31
31 31 31
31 31 31
31 31 31
31 31 31
31 31 31
31 31 31
31 31 31
31 31 31
31 31 31
31 31 31
31 31 31
31 31 31
31 31 31
31 31 31
31 31 31
31 31 31
31 31 31
30 30 30
28 28 28
27 27 27
26 26 26
25 25 25
25 25 25
26 26 26
29 29 29
30 30 30
31 31 31
31 31 31
31 31 31
31 31 31
31 31 31
31 31 31
31 31 31
31 31 31
31 31 31
31 31 31
31 31 31
31 31 31
31 31 31
31 31 31
31 31 31
31 31 31
31 31 31
31 31 31
31 31 31
31 31 31
31 31 31
31 31 31
31 31 31
31 31 31
31 31 31
31 31 31
31 31 31
31 31 31
31 31 31
31 31 31
31 31 31
31 31 31
31 31 31
31 31 31
31 31 31
31 31 31
31 31 31
31 31 31
31 31 31
31 31 31
31 31 31
31 31 31
31 31 31
31 31 31
31 31 31
31 31 31
31 31 31
31 31 31
31 31 31
31 31 31
31 31 31
31 31 31
30 30 30
28 28 28
25 25 25
21 21 21
17 17 17
15 15 15
15 15 15
14 14 14
14 14 14
16 16 16
18 18 18
19 19 19
24 24 24
29 29 29
31 31 31
31 31 31
31 31 31
31 31 31
31 31 31
31 31 31
31 31 31
31 31 31
31 31 31
31 31 31
31 31 31
31 31 31
31 31 31
31 31 31
31 31 31
31 31 31
31 31 31
31 31 31
31 31 31
31 31 31
31 31 31
31 31 31
31 31 31
31 31 31
31 31 31
31 31 31
31 31 31
31 31 31
31 31 31
31 31 31
31 31 31
31 31 31
31 31 31
31 31 31
31 31 31
31 31 31
31 31 31
31 31 31
31 31 31
31 31 31
31 31 31
31 31 31
31 31 31
31 31 31
31 31 31
31 31 31
31 31 31
31 31 31
31 31 31
29 29 29
25 25 25
20 20 20
14 14 14
11 11 11
10 10 10
10 10 10
11 11 11
10 10 10
10 10 10
10 10 10
10 10 10
10 10 10
14 14 14
20 20 20
25 25 25
29 29 29
31 31 31
31 31 31
31 31 31
31 31 31
31 31 31
31 31 31
31 31 31
31 31 31
31 31 31
31 31 31
31 31 31
31 31 31
31 31 31
31 31 31
31 31 31
31 31 31
31 31 31
31 31 31
31 31 31
31 31 31
31 31 31
31 31 31
31 31 31
31 31 31
31 31 31
31 31 31
31 31 31
31 31 31
31 31 31
31 31 31
31 31 31
31 31 31
31 31 31
31 31 31
31 31 31
31 31 31
31 31 31
31 31 31
31 31 31
31 31 31
31 31 31
31 31 31
31 31 31
31 31 31
31 31 31
31 31 31
30 30 30
23 23 23
16 16 16
13 13 13
11 11 11
11 11 11
10 10 10
11 11 11
10 10 10
10 10 10
10 10 10
11 11 11
10 10 10
10 10 10
11 11 11
11 11 11
14 14 14
22 22 22
29 29 29
31 31 31
31 31 31
31 31 31
31 31 31
31 31 31
31 31 31
31 31 31
31 31 31
31 31 31
31 31 31
31 31 31
31 31 31
31 31 31
31 31 31
31 31 31
31 31 31
31 31 31
31 31 31
31 31 31
31 31 31
31 31 31
31 31 31
31 31 31
31 31 31
31 31 31
31 31 31
31 31 31
31 31 31
31 31 31
31 31 31
31 31 31
31 31 31
31 31 31
31 31 31
31 31 31
31 31 31
31 31 31
31 31 31
31 31 31
31 31 31
31 31 31
31 31 31
31 31 31
31 31 31
30 30 30
25 25 25
15 15 15
11 11 11
10 10 10
10 10 10
10 10 10
10 10 10
10 10 10
11 11 11
10 10 10
11 11 11
10 10 10
10 10 10
9 9 9
11 11 11
10 10 10
10 10 10
14 14 14
24 24 24
29 29 29
31 31 31
31 31 31
31 31 31
31 31 31
31 31 31
31 31 31
31 31 31
31 31 31
31 31 31
31 31 31
31 31 31
31 31 31
31 31 31
31 31 31
31 31 31
31 31 31
31 31 31
31 31 31
31 31 31
31 31 31
31 31 31
31 31 31
31 31 31
31 31 31
31 31 31
31 31 31
31 31 31
31 31 31
31 31 31
31 31 31
31 31 31
31 31 31
31 31 31
31 31 31
31 31 31
31 31 31
31 31 31
31 31 31
31 31 31
31 31 31
31 31 31
31 31 31
31 31 31
27 27 27
17 17 17
10 10 10
10 10 10
12 12 12
11 11 11
10 10 10
9 9 9
10 10 10
10 10 10
10 10 10
10 10 10
10 10 10
10 10 10
10 10 10
10 10 10
10 10 10
9 9 9
10 10 10
15 15 15
23 23 23
30 30 30
31 31 31
31 31 31
31 31 31
31 31 31
31 31 31
31 31 31
31 31 31
31 31 31
31 31 31
31 31 31
31 31 31
31 31 31
31 31 31
31 31 31
31 31 31
31 31 31
31 31 31
31 31 31
31 31 31
31 31 31
31 31 31
31 31 31
31 31 31
31 31 31
31 31 31
31 31 31
31 31 31
31 31 31
31 31 31
31 31 31
31 31 31
31 31 31
31 31 31
31 31 31
31 31 31
31 31 31
31 31 31
31 31 31
31 31 31
31 31 31
31 31 31
28 28 28
20 20 20
10 10 10
9 9 9
9 9 9
9 9 9
9 9 9
10 10 10
10 10 10
10 10 10
9 9 9
9 9 9
11 11 11
10 10 10
9 9 9
9 9 9
9 9 9
9 9 9
9 9 9
9 9 9
10 10 10
19 19 19
26 26 26
31 31 31
31 31 31
31 31 31
31 31 31
31 31 31
31 31 31
31 31 31
30 30 30
29 29 29
28 28 28
29 29 29
30 30 30
31 31 31
31 31 31
31 31 31
31 31 31
31 31 31
31 31 31
31 31 31
31 31 31
31 31 31
31 31 31
31 31 31
31 31 31
31 31 31
31 31 31
31 31 31
31 31 31
31 31 31
31 31 31
31 31 31
31 31 31
31 31 31
31 31 31
31 31 31
31 31 31
31 31 31
31 31 31
31 31 31
31 31 31
31 31 31
25 25 25
15 15 15
10 10 10
10 10 10
9 9 9
10 10 10
10 10 10
10 10 10
10 10 10
10 10 10
9 9 9
9 9 9
9 9 9
9 9 9
9 9 9
10 10 10
9 9 9
9 9 9
9 9 9
10 10 10
9 9 9
11 11 11
21 21 21
30 30 30
31 31 31
31 31 31
31 31 31
30 30 30
29 29 29
25 25 25
21 21 21
19 19 19
17 17 17
20 20 20
20 20 20
24 24 24
28 28 28
31 31 31
31 31 31
31 31 31
31 31 31
31 31 31
31 31 31
31 31 31
31 31 31
31 31 31
31 31 31
31 31 31
31 31 31
31 31 31
31 31 31
31 31 31
31 31 31
31 31 31
31 31 31
31 31 31
31 31 31
31 31 31
31 31 31
31 31 31
31 31 31
31 31 31
31 31 31
31 31 31
23 23 23
12 12 12
9 9 9
9 9 9
8 8 8
9 9 9
9 9 9
8 8 8
9 9 9
9 9 9
9 9 9
8 8 8
9 9 9
8 8 8
9 9 9
9 9 9
9 9 9
9 9 9
10 10 10
8 8 8
9 9 9
9 9 9
16 16 16
28 28 28
31 31 31
31 31 31
30 30 30
28 28 28
19 19 19
15 15 15
11 11 11
12 12 12
10 10 10
11 11 11
11 11 11
14 14 14
18 18 18
26 26 26
30 30 30
31 31 31
31 31 31
31 31 31
31 31 31
31 31 31
31 31 31
31 31 31
31 31 31
31 31 31
31 31 31
31 31 31
31 31 31
31 31 31
31 31 31
31 31 31
31 31 31
31 31 31
31 31 31
31 31 31
31 31 31
31 31 31
31 31 31
31 31 31
31 31 31
31 31 31
21 21 21
11 11 11
9 9 9
8 8 8
9 9 9
8 8 8
9 9 9
9 9 9
9 9 9
9 9 9
9 9 9
9 9 9
9 9 9
9 9 9
9 9 9
8 8 8
8 8 8
8 8 8
8 8 8
8 8 8
8 8 8
7 7 7
14 14 14
25 25 25
31 31 31
31 31 31
27 27 27
18 18 18
11 11 11
10 10 10
10 10 10
10 10 10
9 9 9
10 10 10
9 9 9
9 9 9
11 11 11
16 16 16
27 27 27
31 31 31
31 31 31
31 31 31
31 31 31
31 31 31
31 31 31
31 31 31
31 31 31
31 31 31
31 31 31
31 31 31
31 31 31
31 31 31
31 31 31
31 31 31
31 31 31
31 31 31
31 31 31
31 31 31
31 31 31
31 31 31
31 31 31
31 31 31
31 31 31
31 31 31
21 21 21
9 9 9
9 9 9
9 9 9
8 8 8
8 8 8
8 8 8
9 9 9
8 8 8
9 9 9
9 9 9
7 7 7
9 9 9
8 8 8
9 9 9
8 8 8
8 8 8
8 8 8
7 7 7
7 7 7
8 8 8
7 7 7
10 10 10
22 22 22
31 31 31
28 28 28
19 19 19
11 11 11
10 10 10
9 9 9
9 9 9
10 10 10
10 10 10
10 10 10
10 10 10
10 10 10
10 10 10
11 11 11
20 20 20
28 28 28
31 31 31
31 31 31
31 31 31
31 31 31
31 31 31
31 31 31
31 31 31
31 31 31
31 31 31
31 31 31
31 31 31
31 31 31
31 31 31
31 31 31
31 31 31
31 31 31
31 31 31
31 31 31
31 31 31
31 31 31
31 31 31
31 31 31
31 31 31
31 31 31
20 20 20
10 10 10
8 8 8
8 8 8
8 8 8
8 8 8
8 8 8
8 8 8
8 8 8
7 7 7
8 8 8
7 7 7
7 7 7
8 8 8
7 7 7
8 8 8
8 8 8
8 8 8
7 7 7
7 7 7
7 7 7
5 5 5
8 8 8
21 21 21
31 31 31
23 23 23
13 13 13
8 8 8
9 9 9
9 9 9
9 9 9
8 8 8
9 9 9
10 10 10
10 10 10
9 9 9
9 9 9
8 8 8
13 13 13
24 24 24
31 31 31
31 31 31
31 31 31
31 31 31
31 31 31
31 31 31
31 31 31
31 31 31
31 31 31
31 31 31
31 31 31
31 31 31
31 31 31
31 31 31
31 31 31
31 31 31
31 31 31
31 31 31
31 31 31
31 31 31
31 31 31
31 31 31
31 31 31
31 31 31
23 23 23
11 11 11
9 9 9
9 9 9
8 8 8
8 8 8
8 8 8
7 7 7
7 7 7
7 7 7
9 9 9
7 7 7
7 7 7
8 8 8
7 7 7
7 7 7
7 7 7
8 8 8
7 7 7
5 5 5
6 6 6
4 4 4
6 6 6
21 21 21
30 30 30
17 17 17
8 8 8
8 8 8
7 7 7
9 9 9
9 9 9
8 8 8
9 9 9
9 9 9
8 8 8
8 8 8
9 9 9
9 9 9
10 10 10
18 18 18
29 29 29
31 31 31
31 31 31
31 31 31
31 31 31
31 31 31
31 31 31
31 31 31
31 31 31
31 31 31
31 31 31
31 31 31
31 31 31
31 31 31
31 31 31
31 31 31
31 31 31
31 31 31
31 31 31
31 31 31
31 31 31
31 31 31
31 31 31
31 31 31
26 26 26
12 12 12
7 7 7
7 7 7
7 7 7
7 7 7
6 6 6
8 8 8
7 7 7
7 7 7
8 8 8
8 8 8
7 7 7
7 7 7
7 7 7
8 8 8
7 7 7
6 6 6
6 6 6
5 5 5
5 5 5
3 3 3
9 9 9
24 24 24
28 28 28
15 15 15
8 8 8
7 7 7
9 9 9
8 8 8
8 8 8
9 9 9
8 8 8
8 8 8
9 9 9
8 8 8
8 8 8
8 8 8
8 8 8
16 16 16
28 28 28
31 31 31
31 31 31
31 31 31
31 31 31
31 31 31
31 31 31
31 31 31
31 31 31
31 31 31
31 31 31
31 31 31
31 31 31
31 31 31
31 31 31
31 31 31
31 31 31
31 31 31
31 31 31
31 31 31
31 31 31
31 31 31
31 31 31
31 31 31
29 29 29
19 19 19
8 8 8
7 7 7
7 7 7
7 7 7
7 7 7
7 7 7
7 7 7
7 7 7
7 7 7
6 6 6
7 7 7
7 7 7
6 6 6
6 6 6
5 5 5
7 7 7
6 6 6
5 5 5
4 4 4
3 3 3
13 13 13
27 27 27
28 28 28
13 13 13
7 7 7
8 8 8
8 8 8
8 8 8
8 8 8
8 8 8
8 8 8
8 8 8
8 8 8
7 7 7
9 9 9
8 8 8
8 8 8
18 18 18
27 27 27
31 31 31
29 29 29
23 23 23
19 19 19
21 21 21
21 21 21
27 27 27
29 29 29
31 31 31
31 31 31
31 31 31
31 31 31
31 31 31
31 31 31
31 31 31
31 31 31
31 31 31
31 31 31
31 31 31
31 31 31
31 31 31
31 31 31
31 31 31
31 31 31
25 25 25
14 14 14
6 6 6
6 6 6
6 6 6
7 7 7
6 6 6
6 6 6
6 6 6
6 6 6
6 6 6
6 6 6
6 6 6
6 6 6
6 6 6
5 5 5
5 5 5
4 4 4
4 4 4
3 3 3
7 7 7
20 20 20
30 30 30
28 28 28
16 16 16
7 7 7
8 8 8
7 7 7
7 7 7
6 6 6
7 7 7
8 8 8
7 7 7
8 8 8
7 7 7
6 6 6
8 8 8
8 8 8
16 16 16
27 27 27
28 28 28
19 19 19
13 13 13
10 10 10
7 7 7
10 10 10
14 14 14
20 20 20
26 26 26
31 31 31
31 31 31
31 31 31
31 31 31
31 31 31
31 31 31
31 31 31
31 31 31
31 31 31
31 31 31
31 31 31
31 31 31
31 31 31
31 31 31
31 31 31
29 29 29
22 22 22
10 10 10
5 5 5
6 6 6
5 5 5
6 6 6
6 6 6
6 6 6
5 5 5
5 5 5
6 6 6
5 5 5
6 6 6
5 5 5
5 5 5
5 5 5
5 5 5
3 3 3
4 4 4
11 11 11
21 21 21
28 28 28
27 27 27
16 16 16
6 6 6
6 6 6
7 7 7
6 6 6
8 8 8
7 7 7
7 7 7
7 7 7
7 7 7
7 7 7
6 6 6
7 7 7
7 7 7
19 19 19
27 27 27
21 21 21
10 10 10
7 7 7
7 7 7
8 8 8
7 7 7
8 8 8
11 11 11
20 20 20
28 28 28
31 31 31
31 31 31
31 31 31
31 31 31
31 31 31
31 31 31
31 31 31
31 31 31
31 31 31
31 31 31
30 30 30
29 29 29
28 28 28
27 27 27
27 27 27
25 25 25
15 15 15
6 6 6
4 4 4
6 6 6
5 5 5
5 5 5
5 5 5
5 5 5
5 5 5
5 5 5
5 5 5
4 4 4
5 5 5
4 4 4
4 4 4
3 3 3
3 3 3
6 6 6
15 15 15
19 19 19
18 18 18
20 20 20
13 13 13
7 7 7
5 5 5
6 6 6
7 7 7
6 6 6
6 6 6
7 7 7
6 6 6
6 6 6
6 6 6
5 5 5
6 6 6
7 7 7
14 14 14
20 20 20
11 11 11
5 5 5
6 6 6
7 7 7
7 7 7
7 7 7
7 7 7
7 7 7
13 13 13
21 21 21
24 24 24
26 26 26
26 26 26
26 26 26
27 27 27
28 28 28
26 26 26
28 28 28
28 28 28
28 28 28
20 20 20
21 21 21
20 20 20
20 20 20
18 18 18
18 18 18
16 16 16
11 11 11
7 7 7
4 4 4
4 4 4
4 4 4
4 4 4
4 4 4
5 5 5
4 4 4
5 5 5
4 4 4
4 4 4
3 3 3
3 3 3
4 4 4
6 6 6
11 11 11
14 14 14
14 14 14
14 14 14
14 14 14
13 13 13
8 8 8
5 5 5
5 5 5
4 4 4
5 5 5
5 5 5
5 5 5
6 6 6
6 6 6
5 5 5
5 5 5
5 5 5
9 9 9
13 13 13
13 13 13
8 8 8
4 4 4
7 7 7
7 7 7
6 6 6
7 7 7
7 7 7
6 6 6
7 7 7
12 12 12
17 17 17
17 17 17
16 16 16
16 16 16
17 17 17
19 19 19
20 20 20
19 19 19
20 20 20
21 21 21
15 15 15
15 15 15
14 14 14
15 15 15
14 14 14
14 14 14
14 14 14
13 13 13
11 11 11
8 8 8
5 5 5
3 3 3
3 3 3
3 3 3
3 3 3
3 3 3
3 3 3
3 3 3
3 3 3
2 2 2
3 3 3
4 4 4
8 8 8
11 11 11
11 11 11
10 10 10
12 12 12
11 11 11
13 13 13
12 12 12
6 6 6
5 5 5
4 4 4
4 4 4
4 4 4
5 5 5
4 4 4
4 4 4
5 5 5
5 5 5
7 7 7
12 12 12
14 14 14
13 13 13
8 8 8
4 4 4
5 5 5
6 6 6
5 5 5
7 7 7
6 6 6
6 6 6
7 7 7
12 12 12
15 15 15
12 12 12
9 9 9
7 7 7
8 8 8
10 10 10
13 13 13
15 15 15
15 15 15
15 15 15
14 14 14
14 14 14
14 14 14
13 13 13
13 13 13
13 13 13
12 12 12
11 11 11
11 11 11
10 10 10
6 6 6
4 4 4
2 2 2
2 2 2
1 1 1
1 1 1
1 1 1
1 1 1
1 1 1
1 1 1
2 2 2
4 4 4
5 5 5
7 7 7
7 7 7
9 9 9
9 9 9
9 9 9
9 9 9
8 8 8
6 6 6
4 4 4
3 3 3
3 3 3
3 3 3
3 3 3
4 4 4
4 4 4
4 4 4
5 5 5
9 9 9
12 12 12
12 12 12
13 13 13
10 10 10
6 6 6
4 4 4
4 4 4
4 4 4
5 5 5
5 5 5
5 5 5
9 9 9
13 13 13
14 14 14
8 8 8
5 5 5
6 6 6
5 5 5
6 6 6
9 9 9
13 13 13
15 15 15
15 15 15
13 13 13
13 13 13
12 12 12
13 13 13
11 11 11
9 9 9
9 9 9
9 9 9
8 8 8
6 6 6
4 4 4
3 3 3
2 2 2
1 1 1
1 1 1
1 1 1
2 2 2
2 2 2
2 2 2
3 3 3
4 4 4
5 5 5
6 6 6
7 7 7
9 9 9
9 9 9
8 8 8
9 9 9
8 8 8
6 6 6
5 5 5
3 3 3
2 2 2
2 2 2
2 2 2
1 1 1
1 1 1
2 2 2
3 3 3
6 6 6
7 7 7
8 8 8
9 9 9
10 10 10
8 8 8
5 5 5
3 3 3
2 2 2
2 2 2
4 4 4
4 4 4
6 6 6
9 9 9
14 14 14
14 14 14
8 8 8
3 3 3
3 3 3
5 5 5
4 4 4
7 7 7
13 13 13
15 15 15
15 15 15
12 12 12
11 11 11
12 12 12
11 11 11
10 10 10
10 10 10
8 8 8
6 6 6
7 7 7
6 6 6
6 6 6
5 5 5
5 5 5
4 4 4
5 5 5
5 5 5
5 5 5
7 7 7
7 7 7
7 7 7
8 8 8
8 8 8
9 9 9
9 9 9
10 10 10
9 9 9
9 9 9
9 9 9
8 8 8
7 7 7
7 7 7
5 5 5
5 5 5
4 4 4
3 3 3
3 3 3
3 3 3
4 4 4
3 3 3
5 5 5
7 7 7
7 7 7
8 8 8
9 9 9
8 8 8
6 6 6
3 3 3
3 3 3
2 2 2
3 3 3
4 4 4
7 7 7
10 10 10
11 11 11
12 12 12
9 9 9
4 4 4
2 2 2
4 4 4
4 4 4
7 7 7
13 13 13
15 15 15
15 15 15
12 12 12
12 12 12
11 11 11
12 12 12
10 10 10
11 11 11
11 11 11
9 9 9
10 10 10
9 9 9
8 8 8
10 10 10
9 9 9
9 9 9
8 8 8
10 10 10
9 9 9
11 11 11
11 11 11
10 10 10
11 11 11
11 11 11
11 11 11
11 11 11
12 12 12
12 12 12
11 11 11
12 12 12
11 11 11
11 11 11
10 10 10
10 10 10
10 10 10
9 9 9
9 9 9
8 8 8
8 8 8
9 9 9
9 9 9
10 10 10
10 10 10
10 10 10
11 11 11
10 10 10
10 10 10
10 10 10
7 7 7
7 7 7
7 7 7
6 6 6
7 7 7
8 8 8
9 9 9
12 12 12
11 11 11
9 9 9
6 6 6
3 3 3
4 4 4
5 5 5
8 8 8
14 14 14
14 14 14
15 15 15
13 13 13
11 11 11
12 12 12
12 12 12
12 12 12
11 11 11
12 12 12
11 11 11
12 12 12
11 11 11
10 10 10
11 11 11
12 12 12
12 12 12
12 12 12
12 12 12
12 12 12
12 12 12
12 12 12
13 13 13
12 12 12
13 13 13
13 13 13
13 13 13
13 13 13
13 13 13
12 12 12
12 12 12
13 13 13
12 12 12
12 12 12
11 11 11
12 12 12
12 12 12
12 12 12
12 12 12
11 11 11
12 12 12
11 11 11
12 12 12
12 12 12
13 13 13
12 12 12
12 12 12
13 13 13
12 12 12
12 12 12
11 11 11
12 12 12
12 12 12
12 12 12
12 12 12
12 12 12
13 13 13
13 13 13
11 11 11
11 11 11
8 8 8
8 8 8
9 9 9
11 11 11
13 13 13
13 13 13
14 14 14
13 13 13
13 13 13
13 13 13
13 13 13
12 12 12
12 12 12
12 12 12
12 12 12
13 13 13
12 12 12
12 12 12
12 12 12
13 13 13
13 13 13
13 13 13
14 14 14
13 13 13
13 13 13
14 14 14
13 13 13
14 14 14
14 14 14
14 14 14
13 13 13
13 13 13
14 14 14
13 13 13
13 13 13
13 13 13
13 13 13
13 13 13
14 14 14
13 13 13
13 13 13
13 13 13
13 13 13
13 13 13
13 13 13
13 13 13
13 13 13
13 13 13
13 13 13
14 14 14
13 13 13
14 14 14
14 14 14
14 14 14
14 14 14
14 14 14
14 14 14
14 14 14
14 14 14
14 14 14
13 13 13
14 14 14
14 14 14
14 14 14
14 14 14
14 14 14
13 13 13
14 14 14
13 13 13
14 14 14
14 14 14
13 13 13
13 13 13
14 14 14
14 14 14
13 13 13
13 13 13
13 13 13
13 13 13
13 13 13
13 13 13
13 13 13
13 13 13
13 13 13
13 13 13
13 13 13
14 14 14
13 13 13
13 13 13
13 13 13
13 13 13
13 13 13
14 14 14
14 14 14
14 14 14
14 14 14
13 13 13
13 13 13
14 14 14
14 14 14
14 14 14
14 14 14
13 13 13
13 13 13
14 14 14
14 14 14
15 15 15
13 13 13
14 14 14
14 14 14
14 14 14
14 14 14
14 14 14
13 13 13
14 14 14
14 14 14
14 14 14
14 14 14
14 14 14
14 14 14
14 14 14
14 14 14
15 15 15
14 14 14
14 14 14
14 14 14
14 14 14
14 14 14
15 15 15
15 15 15
14 14 14
14 14 14
14 14 14
14 14 14
14 14 14
14 14 14
14 14 14
14 14 14
14 14 14
14 14 14
13 13 13
14 14 14
13 13 13
13 13 13
14 14 14
13 13 13
14 14 14
14 14 14
14 14 14
14 14 14
14 14 14
14 14 14
14 14 14
14 14 14
14 14 14
14 14 14
14 14 14
14 14 14
14 14 14
14 14 14
14 14 14
13 13 13
14 14 14
14 14 14
14 14 14
14 14 14
14 14 14
14 14 14
14 14 14
14 14 14
14 14 14
14 14 14
14 14 14
14 14 14
14 14 14
14 14 14
14 14 14
14 14 14
14 14 14
14 14 14
14 14 14
14 14 14
14 14 14
14 14 14
14 14 14
14 14 14
15 15 15
14 14 14
14 14 14
15 15 15
14 14 14
14 14 14
15 15 15
14 14 14
15 15 15
15 15 15
14 14 14
15 15 15
15 15 15
14 14 14
14 14 14
13 13 13
14 14 14
14 14 14
14 14 14
14 14 14
14 14 14
14 14 14
14 14 14
14 14 14
14 14 14
14 14 14
14 14 14
14 14 14
14 14 14
14 14 14
14 14 14
14 14 14
14 14 14
14 14 14
14 14 14
14 14 14
14 14 14
14 14 14
14 14 14
14 14 14
14 14 14
14 14 14
14 14 14
15 15 15
14 14 14
14 14 14
14 14 14
14 14 14
14 14 14
14 14 14
14 14 14
15 15 15
14 14 14
14 14 14
14 14 14
14 14 14
14 14 14
14 14 14
14 14 14
14 14 14
14 14 14
14 14 14
14 14 14
14 14 14
14 14 14
14 14 14
14 14 14
15 15 15
15 15 15
14 14 14
14 14 14
15 15 15
15 15 15
14 14 14
15 15 15
14 14 14
15 15 15
14 14 14
14 14 14
14 14 14
13 13 13
15 15 15
14 14 14
14 14 14
14 14 14
14 14 14
14 14 14
15 15 15
14 14 14
14 14 14
14 14 14
14 14 14
14 14 14
14 14 14
14 14 14
14 14 14
14 14 14
14 14 14
14 14 14
14 14 14
14 14 14
15 15 15
14 14 14
14 14 14
14 14 14
14 14 14
14 14 14
14 14 14
14 14 14
14 14 14
14 14 14
14 14 14
15 15 15
14 14 14
15 15 15
14 14 14
15 15 15
14 14 14
15 15 15
15 15 15
14 14 14
14 14 14
14 14 14
15 15 15
14 14 14
15 15 15
15 15 15
14 14 14
15 15 15
14 14 14
15 15 15
14 14 14
15 15 15
14 14 14
14 14 14
14 14 14
15 15 15
14 14 14
14 14 14
15 15 15
15 15 15
14 14 14
14 14 14
14 14 14
14 14 14
14 14 14
14 14 14
14 14 14
15 15 15
14 14 14
14 14 14
14 14 14
14 14 14
14 14 14
14 14 14
14 14 14
15 15 15
15 15 15
14 14 14
14 14 14
15 15 15
14 14 14
15 15 15
14 14 14
15 15 15
15 15 15
14 14 14
14 14 14
14 14 14
15 15 15
14 14 14
14 14 14
14 14 14
15 15 15
14 14 14
14 14 14
15 15 15
14 14 14
14 14 14
14 14 14
14 14 14
15 15 15
14 14 14
14 14 14
15 15 15
14 14 14
14 14 14
15 15 15
15 15 15
14 14 14
14 14 14
15 15 15
14 14 14
14 14 14
15 15 15
15 15 15
15 15 15
15 15 15
15 15 15
14 14 14
15 15 15
15 15 15
15 15 15
14 14 14
14 14 14
14 14 14
14 14 14
14 14 14
15 15 15
14 14 14
14 14 14
14 14 14
14 14 14
14 14 14
15 15 15
14 14 14
14 14 14
14 14 14
14 14 14
14 14 14
14 14 14
14 14 14
14 14 14
14 14 14
14 14 14
15 15 15
14 14 14
15 15 15
14 14 14
15 15 15
14 14 14
15 15 15
14 14 14
14 14 14
14 14 14
15 15 15
15 15 15
14 14 14
15 15 15
14 14 14
14 14 14
15 15 15
14 14 14
14 14 14
15 15 15
14 14 14
14 14 14
15 15 15
15 15 15
14 14 14
15 15 15
15 15 15
15 15 15
15 15 15
14 14 14
15 15 15
14 14 14
15 15 15
14 14 14
15 15 15
14 14 14
15 15 15
14 14 14
15 15 15
14 14 14
15 15 15
14 14 14
15 15 15
15 15 15
14 14 14
14 14 14
15 15 15
15 15 15
14 14 14
14 14 14
15 15 15
14 14 14
15 15 15
14 14 14
14 14 14
14 14 14
13 13 13
14 14 14
14 14 14
14 14 14
15 15 15
14 14 14
15 15 15
14 14 14
15 15 15
15 15 15
15 15 15
15 15 15
14 14 14
15 15 15
14 14 14
15 15 15
14 14 14
15 15 15
14 14 14
14 14 14
14 14 14
14 14 14
15 15 15
14 14 14
15 15 15
15 15 15
14 14 14
14 14 14
14 14 14
15 15 15
14 14 14
15 15 15
15 15 15
14 14 14
14 14 14
14 14 14
14 14 14
14 14 14
14 14 14
15 15 15
14 14 14
15 15 15
14 14 14
15 15 15
15 15 15
15 15 15
15 15 15
15 15 15
14 14 14
14 14 14
15 15 15
15 15 15
14 14 14
14 14 14
15 15 15
14 14 14
14 14 14
14 14 14
14 14 14
15 15 15
14 14 14
14 14 14
15 15 15
15 15 15
14 14 14
14 14 14
14 14 14
15 15 15
14 14 14
14 14 14
14 14 14
15 15 15
14 14 14
15 15 15
14 14 14
14 14 14
15 15 15
14 14 14
14 14 14
14 14 14
15 15 15
14 14 14
14 14 14
15 15 15
14 14 14
14 14 14
15 15 15
14 14 14
14 14 14
14 14 14
15 15 15
15 15 15
14 14 14
15 15 15
15 15 15
14 14 14
14 14 14
14 14 14
15 15 15
15 15 15
15 15 15
15 15 15
14 14 14
15 15 15
15 15 15
14 14 14
15 15 15
14 14 14
15 15 15
15 15 15
14 14 14
15 15 15
15 15 15
15 15 15
15 15 15
15 15 15
15 15 15
14 14 14
14 14 14
15 15 15
14 14 14
15 15 15
14 14 14
14 14 14
15 15 15
15 15 15
15 15 15
14 14 14
15 15 15
14 14 14
14 14 14
14 14 14
15 15 15
14 14 14
14 14 14
15 15 15
15 15 15
14 14 14
15 15 15
14 14 14
14 14 14
14 14 14
14 14 14
15 15 15
14 14 14
14 14 14
15 15 15
14 14 14
14 14 14
15 15 15
14 14 14
14 14 14
14 14 14
15 15 15
15 15 15
14 14 14
14 14 14
15 15 15
15 15 15
14 14 14
14 14 14
15 15 15
15 15 15
14 14 14
14 14 14
15 15 15
15 15 15
14 14 14
15 15 15
15 15 15
15 15 15
15 15 15
14 14 14
14 14 14
15 15 15
14 14 14
15 15 15
15 15 15
15 15 15
15 15 15
14 14 14
14 14 14
14 14 14
15 15 15
14 14 14
14 14 14
14 14 14
14 14 14
15 15 15
15 15 15
14 14 14
14 14 14
14 14 14
14 14 14
14 14 14
15 15 15
15 15 15
15 15 15
14 14 14
15 15 15
14 14 14
15 15 15
14 14 14
14 14 14
15 15 15
15 15 15
15 15 15
15 15 15
15 15 15
15 15 15
15 15 15
15 15 15
14 14 14
15 15 15
14 14 14
15 15 15
14 14 14
15 15 15
14 14 14
14 14 14
14 14 14
15 15 15
15 15 15
15 15 15
15 15 15
15 15 15
15 15 15
15 15 15
15 15 15
15 15 15
14 14 14
15 15 15
15 15 15
15 15 15
15 15 15
15 15 15
14 14 14
14 14 14
15 15 15
15 15 15
14 14 14
14 14 14
15 15 15
15 15 15
15 15 15
14 14 14
14 14 14
14 14 14
14 14 14
14 14 14
14 14 14
15 15 15
15 15 15
14 14 14
15 15 15
15 15 15
15 15 15
15 15 15
15 15 15
15 15 15
14 14 14
15 15 15
15 15 15
15 15 15
15 15 15
15 15 15
15 15 15
15 15 15
15 15 15
14 14 14
14 14 14
15 15 15
15 15 15
15 15 15
15 15 15
14 14 14
14 14 14
15 15 15
14 14 14
15 15 15
15 15 15
14 14 14
15 15 15
15 15 15
14 14 14
15 15 15
15 15 15
14 14 14
14 14 14
14 14 14
15 15 15
15 15 15
15 15 15
14 14 14
15 15 15
14 14 14
15 15 15
15 15 15
15 15 15
14 14 14
14 14 14
15 15 15
15 15 15
15 15 15
15 15 15
14 14 14
15 15 15
15 15 15
14 14 14
15 15 15
14 14 14
15 15 15
15 15 15
14 14 14
14 14 14
14 14 14
15 15 15
15 15 15
14 14 14
15 15 15
15 15 15
14 14 14
14 14 14
15 15 15
15 15 15
14 14 14
15 15 15
14 14 14
14 14 14
14 14 14
14 14 14
15 15 15
14 14 14
14 14 14
14 14 14
14 14 14
15 15 15
15 15 15
15 15 15
15 15 15
15 15 15
15 15 15
14 14 14
15 15 15
14 14 14
15 15 15
15 15 15
15 15 15
14 14 14
15 15 15
14 14 14
14 14 14
15 15 15
15 15 15
15 15 15
14 14 14
15 15 15
15 15 15
14 14 14
15 15 15
15 15 15
14 14 14
15 15 15
14 14 14
15 15 15
15 15 15
15 15 15
15 15 15
14 14 14
15 15 15
14 14 14
15 15 15
14 14 14
15 15 15
15 15 15
15 15 15
14 14 14
15 15 15
14 14 14
15 15 15
15 15 15
15 15 15
14 14 14
14 14 14
14 14 14
15 15 15
14 14 14
14 14 14
14 14 14
15 15 15
14 14 14
14 14 14
14 14 14
15 15 15
14 14 14
14 14 14
14 14 14
15 15 15
15 15 15
14 14 14
14 14 14
14 14 14
15 15 15
14 14 14
15 15 15
15 15 15
14 14 14
15 15 15
15 15 15
15 15 15
15 15 15
14 14 14
15 15 15
15 15 15
14 14 14
15 15 15
14 14 14
15 15 15
14 14 14
14 14 14
15 15 15
15 15 15
15 15 15
14 14 14
15 15 15
15 15 15
15 15 15
15 15 15
14 14 14
14 14 14
14 14 14
14 14 14
15 15 15
15 15 15
15 15 15
15 15 15
15 15 15
14 14 14
14 14 14
14 14 14
14 14 14
15 15 15
14 14 14
15 15 15
15 15 15
14 14 14
14 14 14
15 15 15
15 15 15
14 14 14
14 14 14
14 14 14
14 14 14
14 14 14
15 15 15
15 15 15
15 15 15
15 15 15
14 14 14
14 14 14
14 14 14
14 14 14
15 15 15
14 14 14
15 15 15
15 15 15
15 15 15
15 15 15
14 14 14
15 15 15
15 15 15
15 15 15
14 14 14
14 14 14
15 15 15
15 15 15
15 15 15
15 15 15
14 14 14
14 14 14
15 15 15
15 15 15
15 15 15
14 14 14
15 15 15
15 15 15
15 15 15
14 14 14
15 15 15
15 15 15
15 15 15
15 15 15
15 15 15
15 15 15
15 15 15
15 15 15
15 15 15
15 15 15
15 15 15
14 14 14
14 14 14
15 15 15
14 14 14
14 14 14
14 14 14
14 14 14
14 14 14
15 15 15
14 14 14
15 15 15
14 14 14
14 14 14
15 15 15
15 15 15
14 14 14
14 14 14
15 15 15
14 14 14
15 15 15
14 14 14
15 15 15
15 15 15
14 14 14
15 15 15
14 14 14
14 14 14
15 15 15
15 15 15
14 14 14
15 15 15
14 14 14
15 15 15
15 15 15
15 15 15
14 14 14
15 15 15
14 14 14
15 15 15
15 15 15
14 14 14
15 15 15
15 15 15
14 14 14
14 14 14
15 15 15
15 15 15
15 15 15
15 15 15
14 14 14
14 14 14
15 15 15
14 14 14
15 15 15
15 15 15
15 15 15
15 15 15
15 15 15
14 14 14
14 14 14
15 15 15
15 15 15
15 15 15
14 14 14
14 14 14
14 14 14
15 15 15
15 15 15
14 14 14
14 14 14
15 15 15
15 15 15
14 14 14
14 14 14
14 14 14
15 15 15
15 15 15
15 15 15
14 14 14
15 15 15
14 14 14
14 14 14
14 14 14
15 15 15
15 15 15
15 15 15
14 14 14
15 15 15
14 14 14
15 15 15
15 15 15
14 14 14
14 14 14
15 15 15
15 15 15
15 15 15
15 15 15
14 14 14
15 15 15
15 15 15
15 15 15
15 15 15
15 15 15
15 15 15
15 15 15
14 14 14
15 15 15
15 15 15
14 14 14
14 14 14
14 14 14
15 15 15
15 15 15
15 15 15
15 15 15
15 15 15
14 14 14
15 15 15
15 15 15
15 15 15
15 15 15
15 15 15
14 14 14
14 14 14
15 15 15
15 15 15
15 15 15
15 15 15
14 14 14
15 15 15
14 14 14
14 14 14
15 15 15
14 14 14
14 14 14
15 15 15
14 14 14
15 15 15
14 14 14
15 15 15
14 14 14
14 14 14
15 15 15
14 14 14
15 15 15
14 14 14
15 15 15
14 14 14
14 14 14
14 14 14
15 15 15
14 14 14
14 14 14
14 14 14
15 15 15
14 14 14
15 15 15
14 14 14
15 15 15
15 15 15
15 15 15
15 15 15
15 15 15
15 15 15
14 14 14
15 15 15
14 14 14
14 14 14
15 15 15
15 15 15
14 14 14
14 14 14
15 15 15
14 14 14
15 15 15
14 14 14
15 15 15
15 15 15
15 15 15
15 15 15
14 14 14
15 15 15
15 15 15
14 14 14
15 15 15
14 14 14
15 15 15
15 15 15
15 15 15
14 14 14
15 15 15
15 15 15
15 15 15
15 15 15
15 15 15
15 15 15
14 14 14
15 15 15
15 15 15
14 14 14
14 14 14
15 15 15
14 14 14
14 14 14
14 14 14
15 15 15
14 14 14
15 15 15
15 15 15
15 15 15
14 14 14
14 14 14
14 14 14
14 14 14
15 15 15
14 14 14
14 14 14
15 15 15
15 15 15
14 14 14
15 15 15
14 14 14
14 14 14
15 15 15
15 15 15
14 14 14
15 15 15
15 15 15
14 14 14
15 15 15
15 15 15
14 14 14
15 15 15
14 14 14
15 15 15
15 15 15
15 15 15
15 15 15
15 15 15
15 15 15
15 15 15
15 15 15
15 15 15
15 15 15
14 14 14
15 15 15
15 15 15
14 14 14
15 15 15
15 15 15
15 15 15
15 15 15
15 15 15
15 15 15
15 15 15
15 15 15
15 15 15
15 15 15
14 14 14
14 14 14
14 14 14
15 15 15
15 15 15
15 15 15
14 14 14
14 14 14
15 15 15
15 15 15
15 15 15
15 15 15
15 15 15
15 15 15
14 14 14
15 15 15
14 14 14
14 14 14
15 15 15
15 15 15
14 14 14
14 14 14
15 15 15
15 15 15
15 15 15
15 15 15
15 15 15
15 15 15
15 15 15
15 15 15
14 14 14
14 14 14
14 14 14
15 15 15
15 15 15
14 14 14
15 15 15
14 14 14
15 15 15
14 14 14
14 14 14
15 15 15
15 15 15
15 15 15
15 15 15
14 14 14
15 15 15
15 15 15
15 15 15
15 15 15
15 15 15
15 15 15
15 15 15
15 15 15
15 15 15
15 15 15
15 15 15
14 14 14
15 15 15
15 15 15
15 15 15
15 15 15
15 15 15
15 15 15
14 14 14
15 15 15
14 14 14
15 15 15
14 14 14
15 15 15
15 15 15
15 15 15
15 15 15
14 14 14
15 15 15
15 15 15
15 15 15
15 15 15
15 15 15
15 15 15
14 14 14
14 14 14
15 15 15
15 15 15
14 14 14
15 15 15
15 15 15
15 15 15
15 15 15
14 14 14
15 15 15
14 14 14
15 15 15
15 15 15
14 14 14
15 15 15
14 14 14
15 15 15
15 15 15
15 15 15
15 15 15
15 15 15
15 15 15
14 14 14
15 15 15
15 15 15
15 15 15
15 15 15
15 15 15
15 15 15
15 15 15
15 15 15
14 14 14
14 14 14
15 15 15
14 14 14
14 14 14
15 15 15
15 15 15
15 15 15
15 15 15
14 14 14
15 15 15
15 15 15
15 15 15
15 15 15
15 15 15
14 14 14
15 15 15
15 15 15
15 15 15
15 15 15
14 14 14
15 15 15
14 14 14
14 14 14
15 15 15
15 15 15
15 15 15
15 15 15
14 14 14
14 14 14
15 15 15
15 15 15
14 14 14
15 15 15
15 15 15
15 15 15
15 15 15
15 15 15
15 15 15
15 15 15
15 15 15
15 15 15
14 14 14
15 15 15
15 15 15
15 15 15
15 15 15
15 15 15
14 14 14
15 15 15
15 15 15
14 14 14
15 15 15
14 14 14
15 15 15
15 15 15
15 15 15
14 14 14
15 15 15
14 14 14
14 14 14
15 15 15
15 15 15
15 15 15
15 15 15
15 15 15
15 15 15
15 15 15
15 15 15
15 15 15
15 15 15
15 15 15
15 15 15
15 15 15
15 15 15
15 15 15
14 14 14
15 15 15
14 14 14
