P3
# Rays 2018
64 64
255
57 58 59
58 58 58
58 58 60
58 58 65
58 58 59
58 58 62
59 59 59
58 58 64
57 58 67
57 58 80
58 58 70
57 57 75
58 58 74
57 57 62
57 57 71
58 58 79
58 58 76
57 57 89
57 58 72
57 58 89
58 58 69
59 58 70
59 59 67
57 58 72
60 59 80
58 58 87
57 57 71
57 57 76
59 59 91
61 59 68
59 59 64
58 58 62
61 60 70
57 57 67
55 55 59
58 58 60
58 58 72
60 59 70
58 58 69
61 59 62
56 56 60
59 59 62
56 56 58
59 57 62
57 57 60
58 58 58
59 59 66
56 56 58
61 59 61
56 55 58
56 56 58
57 57 58
55 55 56
56 56 58
56 56 58
56 56 57
57 57 58
57 57 59
58 58 59
57 57 61
58 58 58
58 58 59
58 58 58
58 58 58
58 58 61
58 58 59
58 58 60
58 58 59
58 58 59
58 58 60
59 59 60
58 58 60
57 58 69
57 57 86
58 58 74
58 58 68
56 57 79
58 58 63
58 58 70
57 57 67
57 57 66
58 58 73
57 57 71
58 58 73
58 58 86
58 58 80
58 59 74
58 58 87
63 60 79
58 58 73
59 58 78
59 59 67
58 58 78
59 58 72
58 58 81
57 58 77
57 57 71
58 58 61
56 56 63
57 57 72
56 56 62
54 54 71
58 58 65
57 57 65
58 56 61
56 56 63
57 57 65
60 59 63
57 57 58
56 57 60
58 57 58
59 58 65
58 58 59
56 56 60
59 57 61
60 58 59
57 57 58
55 55 57
55 55 56
56 56 57
57 58 59
58 58 59
58 58 59
57 57 58
58 58 62
59 59 59
59 58 60
58 58 60
58 58 60
58 58 58
58 58 59
58 58 61
58 58 58
58 58 60
58 58 61
58 58 60
58 58 60
58 58 69
57 58 72
58 58 63
58 58 69
58 58 75
57 57 76
56 57 75
59 59 60
57 58 77
58 58 80
57 58 64
59 59 74
58 57 67
57 58 83
58 58 66
57 57 73
58 58 73
61 60 71
59 59 73
56 57 80
59 59 76
60 59 69
59 59 71
58 59 70
57 58 75
58 58 70
57 58 70
58 58 60
57 57 69
58 58 67
58 59 61
56 56 66
56 56 59
58 58 60
59 58 70
57 56 58
58 58 59
58 58 58
55 55 63
56 56 57
56 56 58
56 56 57
57 57 64
56 56 57
57 57 57
54 53 55
59 57 58
58 58 61
57 57 60
58 58 61
58 58 60
58 58 60
58 58 60
58 58 60
57 57 58
59 59 59
58 58 60
58 58 60
59 58 60
58 58 60
59 59 61
57 57 60
58 58 60
58 58 61
58 58 59
58 58 62
58 58 68
57 57 81
60 59 68
57 57 67
57 58 82
57 57 96
58 58 71
57 58 71
58 58 63
57 58 67
58 58 68
58 58 68
58 59 84
58 58 71
62 60 86
57 57 73
59 59 78
58 59 72
62 61 70
58 58 70
58 58 78
57 57 87
56 57 66
57 57 65
58 58 67
56 56 66
58 58 67
58 58 60
60 59 60
58 58 66
57 57 59
58 58 59
55 55 57
57 57 58
58 58 60
57 57 59
60 58 60
56 56 57
57 56 58
56 56 57
57 57 57
55 55 56
56 56 57
57 57 57
57 57 58
57 57 58
58 58 60
58 58 58
58 58 59
58 58 59
58 58 59
58 58 62
58 58 59
58 58 61
58 58 61
58 58 61
57 57 58
58 58 62
59 59 60
58 58 59
58 58 60
58 59 59
58 58 66
58 58 62
58 58 66
58 58 75
57 57 72
57 57 95
58 58 64
56 57 76
58 58 69
57 57 79
59 58 73
57 58 73
58 58 64
58 58 80
56 57 81
56 57 68
57 58 86
59 59 72
57 58 78
60 60 69
58 58 71
57 57 86
58 58 62
55 55 70
56 57 75
58 58 61
59 59 61
58 58 66
58 58 63
57 57 65
58 58 59
58 57 67
57 57 60
62 59 61
57 57 58
57 57 58
56 56 57
55 55 56
56 56 59
58 57 58
60 57 59
56 56 58
56 55 56
57 57 58
58 58 58
58 58 58
58 58 59
58 58 60
57 57 59
58 58 59
57 58 59
58 58 60
57 57 59
58 58 60
58 58 58
58 58 58
58 58 62
58 58 59
58 58 60
58 58 61
58 58 59
58 58 61
58 58 60
58 58 61
57 57 62
57 57 68
57 57 67
57 58 70
58 58 69
57 58 83
58 58 70
57 57 77
56 56 71
57 58 76
58 58 63
58 59 65
58 58 76
58 59 64
58 58 71
59 59 69
61 60 77
57 57 82
57 58 74
57 58 70
57 58 81
59 59 79
57 58 67
56 56 75
59 59 63
59 59 67
58 58 62
59 59 64
58 58 67
57 57 58
57 58 65
58 58 59
57 56 66
59 59 60
57 57 64
56 57 58
59 58 65
56 56 58
57 57 59
56 56 57
55 55 56
57 57 57
55 55 56
57 57 58
57 57 57
58 58 60
57 57 60
57 57 60
58 58 58
58 58 60
57 58 63
59 59 60
58 58 59
57 57 61
58 58 60
58 58 58
57 57 59
58 58 59
58 58 67
59 59 60
58 58 59
58 58 60
59 59 59
58 58 60
58 58 59
58 59 62
58 58 61
58 58 74
57 57 68
58 58 74
58 58 72
57 58 64
58 58 73
58 58 67
58 58 73
58 59 68
56 57 72
58 58 68
58 58 81
56 57 60
59 59 68
59 59 69
58 59 64
61 60 70
58 58 73
58 58 63
59 59 73
57 58 72
57 57 82
58 58 69
58 58 65
58 58 71
58 58 62
58 57 71
58 58 61
58 58 58
57 58 65
58 58 61
58 58 59
57 57 58
57 57 58
57 57 59
58 58 59
56 56 56
59 58 58
57 57 57
55 54 55
57 57 59
57 57 59
58 58 58
58 58 60
59 59 59
57 57 59
58 58 60
58 58 59
57 57 59
58 58 60
58 59 60
58 58 58
59 58 60
58 58 59
57 58 61
59 59 62
59 59 59
58 58 59
58 58 59
58 58 61
58 58 60
59 59 61
58 58 61
58 58 58
58 58 60
59 59 64
57 57 86
58 58 80
57 57 97
58 58 76
57 57 74
57 58 72
58 59 73
58 58 72
59 59 77
58 58 73
58 59 77
58 58 72
59 59 71
59 59 63
59 59 65
59 59 74
61 60 75
59 59 65
59 59 70
57 57 68
61 61 64
58 58 71
59 59 61
56 56 67
56 56 64
58 58 66
58 58 61
57 56 58
58 58 61
56 56 56
58 58 61
57 57 57
56 56 57
57 57 58
58 58 58
57 57 58
56 56 57
57 57 57
57 57 60
57 57 59
58 58 59
58 58 58
57 57 58
57 57 59
58 58 59
58 58 58
58 58 59
58 58 61
58 58 58
58 58 59
58 58 60
58 59 59
58 58 58
58 58 60
58 58 61
58 58 62
59 59 59
58 58 61
59 59 59
58 58 62
58 58 60
59 59 62
58 58 62
58 58 61
58 58 60
60 58 72
58 58 69
58 58 74
58 58 71
57 57 75
56 57 74
58 58 89
58 58 77
59 59 78
58 58 66
59 59 67
59 59 83
58 58 65
57 58 75
59 59 72
58 59 78
60 60 70
59 60 82
59 59 72
58 58 89
60 60 76
56 56 66
58 58 61
58 58 61
57 57 62
59 59 61
56 56 58
55 55 56
58 58 60
58 57 60
56 56 57
56 56 56
57 57 57
57 57 58
57 57 57
57 57 57
58 58 58
58 58 60
59 59 59
58 58 59
59 58 59
57 57 58
57 57 61
58 58 60
58 58 59
58 58 60
58 58 61
57 57 59
58 58 61
58 58 60
59 59 60
59 59 59
59 59 61
59 59 61
58 58 61
58 58 60
59 59 59
60 59 61
58 58 62
57 57 59
58 58 59
58 58 64
58 58 59
57 58 68
57 57 71
58 59 77
57 58 78
57 58 82
58 58 66
58 58 71
59 59 71
58 58 66
58 58 85
58 59 73
58 58 74
60 60 73
59 59 65
59 59 69
59 59 68
59 59 75
59 59 70
59 60 76
59 59 69
58 59 75
58 58 76
58 58 61
58 58 59
58 58 60
56 56 58
59 59 60
58 58 60
58 58 59
58 57 58
56 56 57
56 56 57
57 57 58
58 58 59
57 57 57
57 56 57
57 57 58
58 58 59
58 58 58
57 57 59
58 58 58
58 58 59
58 58 58
59 59 59
59 59 59
58 58 59
59 59 62
57 58 61
59 59 60
58 58 58
59 58 67
59 59 60
58 57 59
59 59 59
58 58 61
59 59 59
59 59 60
57 57 58
58 58 62
58 58 60
58 58 59
58 58 60
58 58 59
58 58 63
58 58 61
57 57 79
58 58 66
57 57 76
55 56 72
58 58 79
56 57 79
58 58 72
59 58 75
58 58 76
58 58 79
58 58 79
59 59 76
59 59 75
58 59 65
60 60 67
59 60 78
57 58 78
60 60 75
59 59 77
58 58 65
60 60 69
59 59 61
59 59 62
56 56 63
57 57 61
58 58 59
58 58 60
57 57 57
56 56 58
56 56 57
55 54 56
57 57 58
57 57 58
55 55 56
56 57 57
57 57 58
57 56 59
59 59 60
59 59 59
58 58 62
58 58 58
59 59 59
58 58 60
59 59 59
58 58 61
58 58 60
59 59 61
58 58 61
58 58 60
60 59 61
59 59 59
59 59 60
58 58 59
58 58 60
59 59 63
58 58 60
59 59 61
58 58 58
59 59 62
58 58 62
58 58 59
59 59 59
58 59 60
58 59 61
58 58 60
59 58 61
58 58 77
58 58 73
57 57 74
60 59 74
58 58 68
58 58 73
58 58 85
58 58 69
59 59 71
59 59 74
60 60 65
59 60 63
59 59 78
58 59 76
59 59 68
59 59 63
59 59 64
57 58 72
60 60 63
58 58 70
58 58 67
57 57 58
60 60 60
57 57 59
59 59 61
57 57 59
56 56 57
57 57 57
56 56 58
56 56 57
57 57 57
58 58 59
58 58 58
58 58 60
58 58 58
59 59 59
58 58 59
58 58 61
59 59 62
58 58 60
58 58 61
59 59 59
58 58 61
58 58 60
57 57 64
59 59 61
59 59 60
59 59 60
58 58 64
58 58 61
58 58 59
58 58 62
58 58 58
58 58 64
58 58 60
58 58 60
58 58 60
59 59 60
58 58 60
59 59 59
59 59 59
59 59 59
58 58 59
58 58 60
57 58 68
58 58 62
59 59 62
58 58 68
58 58 68
58 58 66
58 58 61
57 57 79
59 59 63
57 57 70
59 59 59
58 59 70
58 58 67
58 58 62
59 59 62
59 59 63
58 58 60
59 59 63
57 58 68
59 59 59
58 58 60
58 58 60
57 57 58
58 58 59
58 58 59
59 58 59
58 58 60
58 58 58
57 57 57
57 57 58
58 58 58
58 58 58
58 58 58
58 58 58
58 58 58
59 58 59
58 58 59
58 58 60
58 58 59
59 59 60
58 58 60
58 58 61
57 57 59
58 58 60
58 58 62
59 59 59
58 58 61
58 58 61
58 58 59
58 58 59
58 58 60
57 57 60
57 57 60
57 57 58
58 58 67
58 59 59
59 59 62
59 59 62
59 59 60
59 59 62
59 59 59
58 58 62
58 58 60
58 58 59
58 58 61
57 57 59
58 58 60
58 58 61
58 59 62
58 58 60
57 57 63
58 58 58
58 58 60
58 58 59
58 58 60
59 59 60
59 59 61
58 58 60
58 58 62
58 58 59
58 58 60
59 59 60
58 58 60
59 59 59
58 58 60
59 59 60
58 57 58
58 58 58
58 58 59
57 57 57
58 58 58
58 58 59
57 57 58
57 57 58
58 57 59
58 58 59
58 58 58
58 58 59
58 58 59
59 59 59
58 58 58
59 59 60
58 58 59
59 59 59
57 57 59
58 58 60
59 59 60
59 59 59
58 58 61
58 58 61
59 59 64
58 58 65
58 59 59
59 59 59
56 56 59
59 59 60
58 58 62
58 58 58
59 59 60
58 58 61
58 58 59
59 59 60
58 58 59
58 58 66
58 58 60
58 58 62
58 58 59
58 58 59
58 58 61
58 58 59
58 58 64
58 58 61
58 58 62
58 58 60
58 58 59
58 58 61
59 59 60
58 59 59
59 59 62
59 59 59
58 58 58
58 58 59
58 58 61
58 58 59
58 58 60
59 59 59
58 58 60
59 59 59
58 58 59
57 57 58
59 59 59
58 58 59
57 57 58
58 58 58
58 58 58
57 57 60
58 58 58
58 58 59
58 58 58
58 58 59
59 59 59
59 59 59
58 58 59
58 58 62
59 59 59
58 58 59
58 58 61
58 58 60
58 58 60
58 58 62
59 59 60
59 59 62
59 58 59
58 59 59
59 59 63
59 59 62
58 58 60
59 59 59
59 59 59
58 58 61
58 59 61
59 59 61
58 58 59
57 57 61
59 59 63
59 59 61
59 59 60
59 59 59
58 58 60
59 59 59
58 58 59
58 59 59
58 58 59
58 58 60
58 58 60
58 58 60
58 58 61
58 58 63
58 58 60
59 59 59
58 59 65
58 58 61
58 58 61
58 58 62
58 58 60
58 58 61
57 58 62
58 58 60
59 59 60
58 58 59
58 58 60
58 58 59
58 59 60
58 58 58
58 58 58
58 58 58
57 57 60
58 58 59
59 58 59
58 58 59
58 58 58
58 58 58
58 58 59
59 59 59
58 59 60
58 58 59
59 59 59
58 58 60
59 59 60
58 58 62
58 59 60
61 59 61
59 59 60
59 59 59
58 58 60
59 59 59
59 59 66
58 58 74
59 59 60
59 59 61
56 56 58
58 58 64
59 59 60
59 59 60
59 59 61
58 58 59
59 59 67
60 60 61
58 58 66
58 58 60
59 58 68
58 58 60
59 59 61
59 59 63
59 59 60
58 58 60
58 58 59
58 58 58
58 58 61
57 58 60
57 58 59
58 58 60
58 58 60
58 58 61
58 58 60
58 58 61
59 59 59
58 58 60
58 58 60
58 58 61
59 59 61
58 58 59
58 58 61
58 58 59
58 58 60
58 58 60
58 58 60
59 58 59
58 58 60
58 58 58
58 58 61
59 58 59
58 57 58
58 58 58
57 57 59
58 58 59
58 58 60
59 59 59
59 59 60
58 58 58
59 59 62
58 58 60
59 59 60
59 59 59
59 59 62
58 58 60
59 59 62
58 58 59
58 58 60
61 59 62
58 58 65
59 59 61
57 57 61
59 59 60
58 58 68
57 57 60
58 59 62
59 59 63
60 58 62
59 59 60
59 59 59
59 59 62
60 59 66
59 59 59
58 58 60
59 59 60
58 58 61
59 59 61
59 59 62
57 58 60
58 58 59
58 58 59
58 58 61
58 58 60
58 59 59
58 58 61
58 58 60
59 59 59
59 59 59
57 58 62
58 58 60
58 58 59
58 58 62
59 58 60
58 58 62
58 58 60
58 58 58
58 58 60
58 58 58
58 58 60
59 58 60
58 58 60
58 58 59
59 59 59
58 58 61
58 58 58
58 58 58
57 58 58
58 58 61
58 58 59
58 58 58
58 58 60
59 59 59
59 59 60
58 58 59
59 59 59
59 59 61
59 59 61
59 59 61
59 59 62
58 58 59
59 59 59
58 58 61
59 58 60
58 58 59
57 57 60
57 58 68
58 58 68
60 60 64
59 59 61
59 59 63
58 58 62
61 60 60
58 58 66
60 60 63
59 59 63
59 60 62
59 59 62
59 59 59
59 59 62
60 60 62
59 59 59
59 59 59
58 58 60
59 59 61
58 58 60
58 58 60
58 58 60
59 59 61
58 58 66
58 58 61
58 58 60
57 58 62
58 58 61
58 58 61
58 58 61
58 58 61
58 58 59
58 58 59
58 58 60
58 58 60
58 58 60
57 57 64
59 59 60
58 58 58
58 58 61
58 58 59
61 59 59
59 58 59
58 58 60
58 58 58
57 57 58
59 58 59
58 58 58
58 58 60
59 59 59
59 59 59
59 59 60
58 58 59
59 59 59
59 59 61
59 59 59
59 59 60
58 58 60
58 58 60
60 60 60
59 59 69
58 58 59
59 59 61
59 59 61
59 59 63
58 58 69
58 57 61
60 60 68
60 60 63
58 58 59
58 58 59
58 58 60
59 59 71
59 59 70
59 59 61
59 59 61
60 60 61
59 59 60
59 59 61
59 59 66
59 59 61
59 59 66
58 58 59
58 58 62
59 59 59
58 58 67
58 58 61
58 58 59
58 58 58
58 58 60
58 58 60
58 58 60
58 58 61
58 58 59
58 58 59
58 58 59
58 58 59
58 58 60
57 57 67
58 58 59
58 58 62
58 58 58
59 59 59
58 58 58
58 58 58
57 57 60
58 58 58
58 58 60
57 57 58
58 58 59
57 57 58
58 58 59
58 58 59
59 59 59
59 59 60
59 59 60
59 59 60
59 59 59
59 59 59
60 60 61
59 59 59
60 60 62
59 58 59
59 59 62
59 59 60
58 58 60
58 58 58
58 58 61
58 59 69
58 58 61
57 57 63
58 58 60
59 59 61
57 57 68
59 59 64
58 58 62
58 58 61
58 58 62
59 59 62
61 60 62
59 59 63
59 59 62
59 59 63
59 59 65
59 59 61
59 59 60
59 59 61
58 58 60
58 58 60
58 58 60
58 58 59
58 58 59
58 58 60
58 58 60
59 59 60
58 58 60
58 58 59
58 58 61
58 58 59
58 58 60
58 58 60
58 58 61
58 58 60
59 59 59
57 57 58
58 58 59
58 58 59
58 58 58
58 58 58
58 58 58
58 58 61
58 58 59
58 58 58
59 59 59
58 58 58
59 59 59
58 58 58
59 59 60
60 60 61
59 59 61
60 60 60
59 59 61
58 58 59
59 59 59
59 59 59
59 59 62
60 59 60
59 59 61
59 59 61
58 58 59
58 58 60
58 58 73
58 58 67
58 58 64
57 57 65
61 59 63
59 59 60
58 58 69
59 59 67
59 60 64
60 59 69
59 59 71
59 59 61
58 58 61
59 59 62
60 60 61
60 60 64
59 59 61
59 59 61
59 59 62
59 59 66
58 58 69
59 59 60
58 58 58
59 59 59
58 59 60
58 58 60
58 58 61
59 59 62
58 58 58
59 59 59
59 59 61
59 59 61
58 58 67
57 58 60
58 58 60
58 58 60
58 58 59
58 58 59
59 59 59
58 58 59
58 58 60
59 59 59
58 58 58
58 58 58
59 59 59
58 58 58
58 58 60
58 57 58
60 59 59
58 59 60
59 59 60
59 59 60
59 59 59
61 61 61
59 59 61
60 60 61
57 57 58
59 59 59
59 59 59
59 59 59
59 59 60
58 58 62
58 58 74
59 59 68
58 58 61
58 58 60
58 58 62
57 57 62
59 59 62
61 60 60
60 60 62
59 60 64
58 58 63
59 58 61
58 58 64
59 59 62
59 59 65
61 61 64
60 59 63
60 60 68
59 59 68
60 60 65
59 59 60
59 59 59
58 58 59
59 59 59
58 58 64
59 58 62
58 58 59
58 58 61
58 58 61
58 58 62
58 58 60
59 59 65
58 58 59
59 59 62
59 59 61
58 58 59
58 58 61
59 59 66
58 58 62
59 59 61
57 57 58
58 58 59
57 57 59
58 58 58
57 57 58
58 57 58
58 58 58
58 58 60
58 57 58
58 58 58
58 58 58
58 58 58
59 59 59
60 60 60
59 59 61
59 59 60
59 59 60
60 60 61
60 60 61
60 60 61
59 60 62
60 59 59
58 58 60
59 59 61
57 58 60
57 57 61
56 57 67
58 58 66
58 58 59
57 57 63
59 59 66
59 59 65
60 58 62
59 59 69
58 58 63
58 59 64
58 58 69
60 60 61
58 58 63
60 60 68
60 60 71
60 60 64
60 60 71
60 60 64
59 59 63
59 59 73
58 58 60
58 58 63
57 58 62
57 57 63
58 58 60
59 59 60
57 58 61
58 58 59
58 59 61
58 58 62
58 58 64
59 59 61
59 59 60
59 59 72
60 60 61
61 61 61
61 61 62
61 61 64
61 61 61
59 59 60
58 58 60
58 58 59
57 57 57
57 57 59
57 57 58
59 58 59
58 58 60
58 58 59
58 58 59
58 58 60
59 59 61
60 59 60
61 60 61
60 60 61
59 59 59
60 60 60
58 58 60
60 59 61
59 59 59
59 59 59
58 58 59
58 58 59
57 57 67
60 59 60
58 58 62
58 58 69
57 57 74
59 59 76
59 58 66
59 59 67
58 58 65
58 58 74
58 58 60
58 58 63
58 58 62
59 59 68
59 59 72
60 60 65
59 60 73
59 59 65
59 59 66
62 61 63
58 58 63
59 59 62
58 59 63
58 58 60
58 58 61
58 58 61
58 58 74
58 58 61
57 58 64
58 58 61
58 58 65
58 58 62
59 59 60
59 60 61
60 60 60
61 61 73
64 64 66
66 66 70
67 67 68
68 68 69
68 68 69
65 64 65
63 63 63
60 60 60
59 59 60
58 58 61
59 58 59
58 58 58
57 57 58
58 58 58
58 57 58
58 58 59
60 60 60
61 61 61
61 61 61
59 59 60
58 58 60
59 59 60
59 59 60
58 58 59
61 60 62
56 56 59
58 58 59
59 59 61
57 56 59
56 56 59
58 58 61
57 57 67
57 57 66
59 59 73
58 58 65
57 58 70
60 58 66
57 57 67
59 59 65
58 57 66
59 60 67
59 59 70
60 60 66
59 60 71
59 59 69
59 59 63
59 59 65
60 60 71
60 60 65
59 59 61
59 59 62
58 58 73
57 58 69
58 58 68
58 58 67
58 58 64
59 59 60
59 59 62
58 59 64
59 59 60
58 58 65
60 60 61
64 64 64
68 68 72
70 70 75
72 72 72
73 73 75
72 72 76
73 73 75
73 73 73
70 70 70
68 68 68
61 61 61
59 59 59
58 58 58
58 58 58
58 58 58
58 58 58
58 58 59
58 58 59
60 60 60
60 60 60
59 59 61
60 60 60
59 59 60
58 58 63
60 60 61
59 59 60
59 59 60
57 57 66
56 56 59
58 57 58
57 56 66
55 55 59
53 54 72
55 55 65
56 57 69
58 58 63
60 58 64
59 59 72
57 57 75
58 58 75
59 58 72
57 58 70
60 60 77
58 58 73
59 60 90
59 60 69
59 60 68
59 59 81
60 60 71
59 60 71
59 59 65
59 59 68
58 58 62
59 59 63
58 58 62
57 58 74
60 58 63
58 58 67
58 58 76
58 58 73
58 58 74
58 58 67
59 59 69
62 62 73
69 69 75
72 72 73
73 73 73
73 74 75
72 72 74
72 72 72
73 73 73
73 73 73
73 73 73
73 73 73
68 68 68
60 60 60
59 59 59
57 57 57
55 55 56
56 56 57
56 56 57
58 58 59
60 60 60
59 59 60
59 59 59
59 59 60
58 58 59
57 57 59
58 58 58
55 55 57
56 56 59
57 57 58
55 54 63
53 54 63
57 57 59
56 57 61
57 57 63
56 56 61
58 58 73
60 59 72
56 56 66
62 61 67
59 58 75
57 57 70
58 58 82
58 58 77
57 57 69
59 59 98
58 58 82
58 59 79
59 59 85
61 60 93
59 60 73
60 61 74
59 60 79
59 59 71
58 58 63
58 58 63
58 58 66
57 58 64
60 59 67
57 58 66
57 58 70
58 59 77
58 58 71
58 59 66
61 61 78
68 68 70
72 72 73
71 71 72
72 72 73
73 72 73
71 71 71
73 72 72
71 71 71
72 72 72
72 72 72
73 73 73
72 72 72
67 67 67
60 60 61
57 57 57
55 55 56
54 54 55
58 57 58
57 57 58
59 59 60
58 58 59
60 60 61
58 58 59
61 60 61
55 55 57
57 57 58
56 56 58
59 57 59
56 56 59
56 56 58
55 55 58
54 54 57
54 54 56
56 56 69
54 54 56
56 56 81
57 58 78
62 61 76
58 57 68
55 56 73
56 58 92
58 58 84
56 57 83
57 57 85
58 59 94
59 60 103
56 57 81
58 59 84
57 58 79
59 60 96
58 59 77
59 59 71
58 59 71
58 58 65
58 59 67
57 58 68
58 59 70
56 57 87
57 57 86
57 57 76
57 57 73
58 59 68
58 58 73
63 64 72
72 72 73
72 72 72
72 72 72
72 72 72
72 72 72
72 72 73
72 72 72
72 72 72
72 72 72
72 72 72
73 73 73
73 73 74
71 71 71
60 60 61
53 53 56
54 54 56
55 55 57
55 55 56
57 57 59
59 59 60
58 58 59
58 57 59
58 58 59
57 57 59
55 55 58
56 55 57
56 56 58
56 56 59
53 53 56
55 55 57
56 56 58
57 57 59
54 54 62
56 56 59
57 56 64
56 57 65
55 56 88
58 58 76
57 58 78
57 57 80
58 58 85
58 58 84
57 58 70
57 58 116
58 59 96
60 59 103
56 57 93
58 59 117
57 58 93
58 59 102
59 60 83
59 59 95
58 59 80
57 58 70
57 58 90
57 58 80
57 58 88
57 58 75
57 57 85
57 58 78
57 57 89
57 58 100
59 59 85
66 66 76
72 72 74
72 72 74
72 72 72
72 72 73
71 71 72
72 72 74
72 72 73
71 71 71
71 71 72
71 71 71
72 72 73
72 72 72
71 71 72
63 63 64
53 53 56
52 52 54
52 51 54
53 53 55
55 54 56
58 58 59
57 57 59
55 55 57
57 57 59
51 52 54
54 54 56
55 55 57
52 52 55
54 54 56
52 52 55
59 57 61
54 54 55
56 54 56
54 54 56
54 54 64
56 57 65
56 56 68
57 58 76
56 56 68
56 57 78
59 58 84
59 59 92
60 59 77
58 59 74
56 57 99
56 57 99
56 57 115
58 59 97
56 57 118
58 59 91
60 61 114
59 59 98
59 59 87
58 59 78
57 58 73
56 57 89
56 56 89
56 57 100
56 57 94
57 57 104
55 56 133
54 55 110
57 58 120
58 59 123
66 67 96
73 73 76
71 72 73
71 71 72
72 72 74
71 71 73
71 71 75
72 72 74
71 71 75
71 71 72
71 71 71
71 71 73
71 71 71
73 73 74
62 62 64
54 53 56
48 48 53
51 51 54
50 50 53
51 51 54
56 56 57
54 54 57
49 49 53
51 50 54
53 53 56
49 48 52
50 50 54
50 50 54
51 51 57
56 55 57
52 52 55
54 54 58
53 53 63
53 53 80
54 54 60
54 54 56
55 56 70
56 56 86
57 57 61
57 57 78
55 56 101
56 56 109
55 56 104
56 57 88
56 56 93
57 58 117
54 56 141
56 57 97
55 56 136
57 58 101
58 59 92
58 59 88
58 59 85
57 58 80
58 58 86
58 58 71
56 57 91
56 57 88
54 56 130
53 55 223
53 55 168
56 57 130
53 55 167
59 60 134
66 67 111
72 73 100
72 72 73
71 71 72
72 72 72
71 71 73
72 72 75
71 71 73
70 70 71
71 71 72
71 71 73
72 72 72
70 70 71
66 66 67
56 56 59
46 45 50
40 40 45
31 30 36
31 30 37
32 31 37
39 39 44
46 46 49
51 50 54
45 44 49
45 44 49
46 45 50
46 46 49
48 48 51
49 49 52
52 52 56
50 50 53
54 54 56
53 52 62
50 50 53
55 55 59
57 56 59
58 58 91
57 57 72
55 56 78
54 55 95
58 58 111
56 56 77
56 57 100
56 57 95
54 55 117
57 57 124
54 55 142
53 54 118
53 54 112
54 56 146
55 57 140
57 58 102
58 59 78
58 59 70
57 57 80
56 57 89
57 57 97
51 54 255
45 50 255
46 50 255
45 50 255
49 52 255
52 54 215
55 57 154
62 65 160
70 72 135
71 71 73
71 71 72
74 74 75
71 71 71
71 71 74
71 70 71
72 72 72
73 71 72
72 72 72
71 71 71
69 68 69
56 56 62
51 51 56
37 36 43
22 21 30
12 12 22
7 6 16
10 9 20
17 17 25
24 24 31
36 35 42
41 41 46
35 35 42
35 35 42
42 41 47
47 47 52
46 46 50
47 47 51
50 50 54
58 53 56
50 48 52
54 54 58
52 52 56
56 55 69
56 56 71
54 55 62
55 56 71
57 57 71
56 57 79
55 56 104
57 57 92
55 56 107
54 56 126
53 55 140
56 56 108
54 55 127
51 53 163
56 58 124
55 57 131
56 58 133
58 59 90
57 58 86
58 58 68
56 57 148
48 52 255
41 47 255
38 45 255
37 45 255
36 44 255
41 48 255
47 52 255
53 55 181
57 60 178
65 67 199
71 72 104
71 71 72
67 67 70
72 72 74
72 72 72
72 72 73
90 78 80
80 74 76
70 70 70
70 69 70
62 62 65
50 50 56
39 38 46
16 15 25
8 7 17
8 8 18
6 6 15
6 6 15
8 7 17
9 9 18
15 15 24
23 23 32
31 30 38
33 33 40
36 36 43
46 46 49
42 42 45
51 49 54
51 51 62
48 48 58
49 49 52
53 51 62
54 52 55
52 52 63
55 55 76
55 56 68
56 56 70
56 56 73
58 58 74
56 56 94
56 57 102
57 57 79
55 56 103
53 54 113
54 55 134
56 57 107
54 55 125
53 55 144
53 55 148
56 57 139
56 58 117
57 58 85
57 58 82
53 55 215
43 49 255
35 43 255
36 44 255
37 44 255
36 44 255
37 45 255
41 48 255
48 51 255
53 56 220
60 63 196
65 66 131
55 55 67
53 53 64
66 66 71
69 70 70
68 69 67
85 78 77
85 78 78
71 67 66
57 56 51
57 56 56
39 39 46
26 26 34
11 10 20
8 7 16
9 8 18
6 6 15
7 7 17
8 7 17
8 7 18
9 8 19
16 15 25
21 21 31
26 26 35
37 36 43
39 39 44
41 41 47
44 44 50
48 48 53
52 50 54
51 50 62
52 51 53
56 54 57
53 52 55
56 56 69
56 56 81
59 58 81
59 59 76
55 56 91
54 55 106
56 58 103
57 57 94
55 56 118
55 55 131
54 55 113
52 54 138
52 54 126
53 55 148
55 56 134
56 57 111
57 58 106
57 58 78
56 57 90
51 54 255
39 46 255
37 45 255
36 44 255
36 44 255
33 40 255
32 41 255
42 48 255
48 52 255
47 50 157
50 52 120
56 57 110
41 41 62
40 40 58
57 57 66
66 67 68
63 67 65
73 72 71
69 68 67
60 59 54
50 49 43
49 49 46
37 36 39
23 23 29
8 7 13
5 5 12
8 7 16
7 6 16
8 7 17
8 7 19
8 7 18
8 7 17
14 13 23
20 20 30
22 21 32
30 29 38
36 35 40
41 39 45
43 43 52
48 46 49
50 49 59
52 50 54
53 53 62
52 52 61
54 53 63
56 57 75
57 58 71
57 57 73
53 55 98
56 57 94
61 59 89
58 58 99
55 56 113
55 56 102
54 55 125
54 55 98
51 54 128
52 53 115
53 55 140
52 55 169
54 56 129
57 58 90
58 58 73
57 57 89
52 54 255
41 47 255
36 44 255
37 45 255
34 41 255
28 34 255
31 38 255
42 48 255
43 44 205
29 30 106
17 17 47
24 24 64
38 38 59
49 49 65
53 53 65
69 69 73
68 70 69
73 73 73
67 67 65
61 61 57
54 54 52
44 44 43
27 26 23
17 16 12
10 9 7
7 6 10
5 5 12
8 7 17
8 7 17
6 6 16
8 8 18
8 8 18
15 14 25
20 19 30
22 21 31
27 27 35
33 33 39
39 39 43
44 44 46
49 48 51
52 50 54
50 48 53
51 49 52
56 54 57
55 52 56
55 55 67
57 58 75
56 57 77
56 57 82
55 56 89
55 56 93
56 56 100
55 56 107
57 57 107
54 54 153
53 55 108
52 54 168
52 54 139
50 53 158
52 54 139
55 56 115
57 58 89
57 58 75
58 58 70
54 55 247
43 48 255
37 45 255
36 44 255
34 42 255
30 38 255
36 42 255
46 50 255
30 31 118
6 6 36
0 0 23
1 1 23
21 21 44
56 56 69
70 70 78
71 71 76
72 72 75
73 73 74
72 72 74
66 65 64
52 52 52
37 36 32
14 13 4
11 11 1
10 9 1
7 7 3
5 5 9
6 5 13
7 6 16
7 6 16
7 7 17
15 14 24
21 21 30
24 24 34
28 27 35
32 32 38
36 36 41
40 40 44
45 43 47
49 47 49
50 48 52
51 50 51
53 50 59
52 51 61
55 53 64
55 56 80
57 57 74
53 54 89
58 58 70
57 58 102
54 54 88
55 56 108
54 55 112
53 54 126
53 54 140
53 55 122
51 53 136
51 53 139
51 53 156
53 55 125
56 57 105
58 58 71
57 57 75
57 58 74
56 57 115
50 53 255
40 47 255
37 45 255
36 44 255
36 43 255
43 48 255
50 53 236
26 27 71
2 1 25
0 0 21
0 0 23
17 17 36
54 54 63
71 71 74
71 71 72
72 72 72
71 71 71
71 71 71
67 66 67
55 55 53
34 34 30
10 9 1
14 12 2
10 9 1
12 11 4
8 7 13
7 5 14
7 6 16
8 7 17
14 13 22
26 26 33
30 30 37
26 26 35
31 30 37
32 32 39
35 34 39
40 40 43
46 45 48
47 45 48
48 48 56
55 52 58
51 50 52
54 52 62
55 52 63
55 55 66
56 56 92
56 56 86
57 57 88
55 56 104
60 59 80
55 55 98
54 55 124
55 56 105
52 54 132
55 56 110
53 55 122
53 54 113
55 56 106
56 57 85
58 58 67
57 58 71
58 58 75
56 57 95
55 56 110
51 54 177
46 51 255
41 47 255
40 47 255
43 49 255
48 52 255
52 55 162
33 35 92
8 8 48
0 0 22
3 3 27
25 25 40
56 56 61
63 63 69
65 65 67
64 65 64
52 58 54
49 55 51
59 60 59
56 55 56
34 33 30
17 16 7
13 11 2
13 12 3
15 14 14
13 12 18
10 9 19
11 10 21
14 13 23
27 27 35
36 36 42
34 34 41
36 35 42
33 33 40
35 34 39
41 41 45
42 42 45
45 45 46
53 49 53
49 47 49
48 48 58
53 50 60
52 51 60
52 51 62
56 56 68
56 56 70
58 58 70
54 55 100
58 58 85
57 57 111
56 57 100
55 56 106
55 56 111
55 56 89
56 57 87
54 55 98
57 57 77
57 57 73
57 58 70
57 57 68
57 57 79
57 57 94
56 57 100
53 55 147
52 55 162
48 52 221
49 52 198
48 51 201
48 52 215
49 51 170
50 52 155
40 42 124
17 17 62
5 5 29
9 9 30
34 34 55
56 57 62
59 59 62
63 63 66
41 50 45
21 39 26
20 38 25
47 52 47
54 54 53
42 41 38
67 38 34
169 65 68
95 42 40
21 20 20
23 22 30
21 21 29
23 22 33
25 24 33
30 30 38
32 32 40
35 35 41
38 37 43
42 41 46
40 40 44
42 41 45
43 43 47
45 45 47
47 47 48
47 47 48
52 51 55
52 51 63
51 51 55
55 53 63
55 55 66
56 56 68
57 57 78
55 56 73
56 56 94
55 56 111
56 56 81
57 57 114
58 58 73
61 59 71
56 57 76
56 57 70
57 57 71
57 57 68
57 58 69
57 57 80
57 58 78
55 56 110
55 56 123
55 56 126
54 56 130
53 55 162
54 56 153
53 55 134
54 55 160
54 55 120
47 48 142
40 41 99
32 33 89
21 20 44
25 24 44
38 38 52
51 51 58
57 57 62
58 58 62
39 48 42
6 28 11
8 31 15
36 47 40
50 50 47
88 59 61
255 124 143
255 177 207
255 158 185
156 69 77
34 34 35
35 34 41
35 35 41
31 31 39
40 40 45
44 44 48
38 38 44
41 41 46
43 43 48
48 48 52
49 49 51
48 48 50
48 48 49
48 47 49
50 49 51
52 51 54
51 51 54
54 52 54
51 52 67
58 58 64
58 57 70
54 55 64
57 58 80
57 57 70
58 58 87
57 57 74
57 57 69
57 57 72
57 57 68
57 57 70
57 57 65
57 58 70
57 57 72
58 58 76
57 58 77
57 58 80
56 57 86
56 57 110
58 58 89
55 57 116
55 56 111
54 56 125
55 56 140
53 54 134
53 54 104
51 52 98
47 48 81
43 43 72
42 42 52
46 46 54
46 46 54
54 54 61
54 54 58
56 58 61
41 50 45
21 39 26
21 39 26
41 49 43
55 56 54
229 105 116
255 192 226
255 247 255
255 213 252
255 130 150
44 44 46
45 45 46
43 43 46
46 46 50
44 44 48
48 48 51
46 46 49
46 46 50
50 50 52
49 49 51
52 52 54
52 52 53
52 52 54
51 51 52
54 54 55
52 50 52
58 55 64
52 52 54
54 54 60
57 57 74
56 57 65
56 56 73
54 55 71
58 58 70
57 57 63
57 58 63
57 57 63
58 58 64
57 58 68
57 57 69
57 58 67
57 57 77
57 57 71
58 58 77
57 58 80
56 57 93
57 57 104
58 58 75
57 58 90
54 56 139
55 56 97
56 57 101
54 56 128
55 56 123
52 54 149
55 55 93
53 54 86
49 49 75
51 51 71
52 52 64
54 54 68
54 54 61
55 55 58
55 57 57
48 55 51
40 51 44
43 51 46
49 54 51
60 58 58
90 67 69
255 139 157
255 185 212
255 193 224
255 120 137
51 50 51
46 46 49
49 49 50
47 47 51
49 48 51
47 47 50
49 49 53
47 47 50
51 51 53
53 53 54
50 51 52
53 53 54
54 54 55
54 54 55
54 54 55
55 55 56
54 53 55
53 53 57
52 52 64
58 57 61
57 57 64
57 57 62
57 57 68
58 58 67
58 58 61
57 57 65
58 58 65
58 58 61
57 57 73
58 58 65
58 58 66
58 58 64
57 58 67
57 57 88
57 57 81
57 58 84
57 58 90
57 58 77
58 58 68
57 58 93
56 57 94
56 57 115
56 56 94
55 56 102
55 55 105
53 53 105
55 55 66
54 54 75
56 56 71
53 53 67
54 55 66
57 57 65
58 58 61
55 56 58
56 58 58
55 56 56
52 55 54
55 57 56
66 61 61
76 65 65
187 105 114
255 138 154
232 123 137
124 78 84
64 56 58
53 52 53
48 48 49
51 51 52
53 53 54
50 50 52
50 50 53
49 49 53
52 52 53
50 50 53
52 52 56
52 51 54
53 53 55
55 56 56
56 56 57
55 55 57
54 54 57
55 54 57
53 53 55
58 58 64
57 57 61
58 58 60
57 57 63
57 57 61
57 57 62
57 58 65
57 58 65
57 57 70
57 57 62
58 58 62
57 58 62
58 58 71
57 58 74
57 58 79
57 58 77
57 57 89
57 57 83
57 58 81
57 57 76
56 57 95
56 57 86
57 57 96
57 57 95
57 57 95
57 58 95
54 54 90
55 55 94
54 54 83
56 56 64
56 57 63
57 58 69
56 56 61
57 58 68
55 56 64
55 56 57
56 57 57
58 58 56
62 60 59
62 59 60
78 67 67
94 74 76
114 81 86
101 75 80
81 65 70
57 53 55
63 58 59
56 55 56
53 53 54
51 51 52
53 53 54
53 53 54
51 51 53
53 53 54
53 53 55
53 53 55
54 54 55
55 54 55
55 55 57
56 56 58
56 56 56
56 56 57
57 57 58
57 57 59
59 59 62
57 57 62
58 58 62
58 58 61
58 58 59
58 58 61
58 58 63
57 57 63
59 59 66
58 58 69
57 57 66
58 58 64
58 58 65
57 58 72
57 58 75
58 58 70
57 58 78
58 58 67
57 58 80
56 57 81
56 57 79
57 57 71
56 57 84
56 57 91
57 57 70
55 55 63
55 55 72
58 58 71
57 57 73
55 56 71
58 58 69
55 55 73
57 57 68
56 57 64
55 56 57
58 58 60
54 56 56
57 57 57
57 57 56
64 60 61
72 64 65
80 68 70
90 71 74
87 69 73
79 65 67
58 54 56
56 54 55
52 51 54
55 54 55
52 52 54
52 52 53
51 51 53
53 53 57
53 53 55
52 52 54
53 53 56
54 54 55
54 54 58
56 55 56
55 55 57
55 55 57
56 56 57
56 56 56
56 56 58
58 58 58
59 58 58
58 58 61
57 58 66
57 58 71
58 58 63
59 59 60
58 58 69
58 58 64
58 58 70
57 57 64
57 58 65
57 58 67
57 58 63
58 58 70
58 58 68
57 58 74
58 58 69
58 58 75
58 58 65
56 57 84
56 56 63
57 58 82
58 58 69
55 55 70
57 58 71
56 57 86
54 55 84
57 57 70
57 58 65
57 57 72
56 57 69
55 56 60
58 58 60
57 57 68
57 57 58
56 57 64
55 55 58
63 60 62
54 56 55
62 59 61
68 63 66
70 64 66
70 62 66
70 60 64
60 56 57
58 56 57
56 55 55
53 53 56
54 54 55
54 54 55
55 55 57
53 53 55
54 54 55
55 55 56
55 55 57
53 53 54
55 55 56
55 55 58
56 56 56
56 56 56
56 56 57
57 57 57
57 57 58
58 58 61
58 58 63
58 58 62
58 58 60
58 59 60
58 58 63
58 58 69
58 58 64
58 58 65
57 58 74
58 58 63
57 57 80
57 58 77
58 58 79
58 58 72
57 58 72
58 58 68
58 58 66
57 57 68
56 57 78
58 58 64
56 56 70
56 57 74
56 57 84
56 56 87
58 58 61
58 58 76
56 56 67
55 55 76
57 58 63
57 58 68
59 59 61
57 58 68
55 56 71
59 58 62
57 58 60
60 58 60
60 59 59
59 57 59
62 60 61
68 62 65
69 63 63
62 59 61
59 58 59
60 57 58
55 55 56
57 56 57
57 56 58
58 56 57
55 54 57
53 52 55
56 56 58
57 57 58
53 53 54
55 54 55
55 55 56
58 57 59
55 55 56
56 56 58
55 56 58
55 55 56
57 57 57
55 55 57
59 58 60
59 59 61
58 58 64
58 58 63
58 58 63
57 58 62
57 58 63
57 57 60
57 58 71
58 58 68
57 58 70
57 57 74
58 58 62
58 58 70
56 57 66
57 57 79
57 58 73
56 57 71
57 58 66
57 57 77
57 58 75
57 57 80
57 57 80
57 57 82
56 57 79
58 58 66
55 56 77
57 58 68
54 55 79
58 58 74
58 58 66
56 56 69
57 57 70
56 57 65
58 58 60
56 56 58
56 56 58
57 58 61
57 57 58
58 58 62
58 57 64
60 58 59
63 60 62
67 62 64
62 60 63
66 61 63
71 61 64
62 57 58
60 56 58
63 58 60
60 57 61
54 53 55
56 55 56
56 56 58
55 55 57
55 55 57
54 54 55
55 55 57
56 55 56
57 56 57
57 57 58
57 57 57
56 56 57
56 56 56
56 56 57
57 57 61
59 59 63
58 58 60
57 57 64
58 58 61
58 58 62
58 58 61
58 58 61
58 58 67
58 58 66
58 59 61
57 57 63
57 58 76
57 58 62
57 57 67
59 59 67
58 59 71
56 57 68
58 58 71
57 57 69
57 57 79
56 57 63
58 58 70
56 57 66
57 57 70
57 58 69
55 55 69
58 58 71
58 58 79
57 57 64
57 57 63
56 57 79
55 56 69
56 57 75
55 55 75
60 58 59
61 59 60
62 59 60
57 57 57
58 58 61
59 58 59
61 59 60
57 57 57
58 57 58
58 56 58
64 59 62
56 55 58
56 55 60
57 55 58
57 56 57
54 54 56
57 56 58
56 56 57
57 57 58
55 55 56
55 55 57
56 56 57
55 55 56
55 55 58
55 55 57
56 56 58
55 55 57
55 55 56
57 56 58
57 57 62
59 58 60
58 58 63
58 58 61
58 58 59
58 58 61
58 58 71
57 57 62
57 58 67
57 58 68
57 58 70
57 58 82
58 58 62
58 58 66
58 58 66
57 57 65
56 57 75
57 57 71
58 58 68
57 58 82
57 57 87
57 57 86
57 57 88
58 58 69
56 56 60
57 57 78
56 57 75
57 58 70
57 57 66
56 57 90
56 57 78
54 55 66
55 56 72
59 59 61
55 56 59
64 61 68
58 57 68
61 59 69
57 56 60
63 60 67
60 58 59
57 57 58
65 60 61
59 58 60
58 57 60
63 58 60
63 59 62
60 59 63
61 58 59
57 56 64
58 58 58
56 55 57
57 55 56
55 55 57
56 55 57
55 55 56
57 57 57
54 54 56
55 55 56
55 55 57
56 56 57
57 57 58
57 57 58
56 56 58
58 58 60
57 57 64
58 58 62
58 58 60
58 58 62
58 58 67
58 58 62
58 58 64
57 58 71
58 58 66
58 58 65
58 58 67
57 57 74
58 58 70
57 57 74
56 56 72
58 58 67
56 57 62
58 58 81
56 57 82
57 58 75
58 58 74
58 58 68
58 58 66
60 59 66
58 58 64
58 58 82
57 58 90
58 58 67
58 58 75
59 59 75
58 58 79
59 59 71
56 57 58
57 57 79
56 57 66
56 56 60
60 58 58
56 56 57
61 59 61
58 58 66
58 56 59
57 57 59
57 56 58
60 58 60
57 56 57
60 57 58
60 58 60
58 56 59
54 54 56
55 55 56
57 56 60
55 55 56
56 56 57
58 56 59
56 56 57
57 57 57
57 57 58
56 56 56
56 56 57
56 56 59
56 56 57
57 57 58
57 56 57
57 57 62
58 58 59
58 58 59
58 58 67
58 58 58
57 57 59
57 57 66
58 58 59
57 57 68
57 58 65
58 58 62
58 58 61
58 58 59
58 58 70
57 58 69
57 57 69
57 57 72
58 58 61
57 57 63
57 58 62
57 58 69
56 56 70
58 58 62
58 58 82
58 58 78
57 57 58
58 58 68
56 56 84
58 59 67
56 57 85
56 56 61
56 56 86
56 57 61
57 57 59
60 58 68
59 58 64
58 58 64
57 57 60
59 58 59
58 56 59
58 58 65
58 56 58
54 54 58
60 59 63
57 57 57
59 56 58
59 56 58
56 56 60
55 55 56
58 57 58
59 58 59
57 57 57
57 57 57
55 55 57
56 56 57
57 57 57
55 56 58
57 57 58
56 56 57
56 56 59
56 56 57
56 56 56
58 57 58
57 57 58
57 57 65
58 58 60
58 58 65
58 58 63
58 58 63
57 57 74
56 57 76
58 59 63
57 57 66
58 58 61
57 57 73
58 59 63
57 58 68
58 58 67
59 58 62
58 58 63
58 58 62
58 58 60
58 58 62
56 57 71
57 57 67
58 58 84
58 58 66
56 57 68
58 58 59
56 56 76
58 58 63
56 57 62
56 56 59
57 57 63
60 58 74
59 58 65
57 57 59
56 56 65
57 57 58
58 58 65
60 58 75
57 57 59
60 59 62
56 56 58
60 58 59
57 58 59
56 56 63
56 57 60
56 56 57
58 57 58
64 60 61
59 57 59
58 58 58
59 58 58
56 56 56
59 58 61
60 58 60
54 54 57
57 57 59
57 57 57
55 55 57
56 56 57
56 56 58
60 58 58
56 56 56
56 56 57
57 57 57
56 56 57
58 58 59
57 58 69
57 58 66
59 58 72
58 58 63
58 58 67
58 58 66
58 58 62
58 58 59
57 58 68
59 59 68
58 58 62
58 58 60
57 58 72
57 58 68
58 58 69
56 56 79
57 58 73
58 58 61
58 58 63
58 58 84
57 57 66
57 57 69
57 57 59
56 57 83
57 58 89
58 58 60
57 58 77
58 58 69
58 59 71
57 58 73
55 56 78
56 56 60
58 58 62
61 59 85
58 59 61
58 58 62
58 56 63
61 59 64
59 59 62
58 58 60
58 57 59
58 58 61
55 55 59
60 58 61
62 60 63
59 57 58
58 57 58
57 57 59
57 57 57
57 57 57
56 56 58
58 58 58
58 58 58
56 56 57
60 58 60
60 58 59
59 58 58
56 56 58
56 57 59
56 56 57
56 56 60
57 57 58
57 57 58
58 58 70
58 58 61
57 58 67
59 58 61
58 59 62
58 58 63
57 57 76
57 57 74
58 59 60
58 58 58
58 58 58
57 58 71
59 59 61
57 57 66
57 58 62
59 59 60
57 57 67
57 58 63
58 58 78
57 57 69
57 58 66
58 58 76
57 57 65
57 57 65
60 58 68
57 57 67
57 58 72
58 59 68
58 58 67
59 59 62
57 57 65
59 59 59
57 57 68
62 59 61
58 57 80
58 58 70
58 59 60
60 59 61
57 57 67
58 57 59
61 58 60
57 57 58
58 58 60
57 57 58
58 58 58
57 57 59
55 55 57
59 57 61
57 57 60
55 55 59
57 57 57
54 54 55
57 57 59
57 57 58
59 57 59
55 56 56
57 57 59
55 55 57
58 58 58
56 56 58
57 57 58
56 56 57
57 57 57
57 57 58
57 57 65
58 58 68
58 58 67
57 58 66
58 58 72
58 58 60
57 58 69
58 58 61
58 58 63
58 58 66
58 58 66
58 58 63
57 57 62
58 58 73
58 58 70
59 59 65
57 57 66
57 57 81
58 57 73
58 58 62
58 58 75
58 58 62
58 58 60
56 57 66
57 57 66
58 58 68
57 57 85
58 58 67
58 58 61
58 58 72
57 57 68
58 58 73
57 57 68
56 56 66
59 59 60
56 56 67
59 57 61
58 58 59
60 58 65
62 59 63
59 58 59
58 58 60
58 57 59
55 55 59
59 58 58
59 58 60
60 58 59
55 56 62
57 57 57
57 57 59
58 58 59
57 57 60
58 57 57
57 57 57
56 56 58
59 58 58
55 55 56
59 58 60
57 57 58
58 58 58
56 56 58
57 56 57
60 59 59
57 57 57
57 57 72
58 58 61
58 58 60
58 58 59
58 58 73
58 58 64
57 57 66
58 58 67
57 58 62
57 58 74
58 58 69
57 57 61
58 58 70
59 59 67
58 58 62
57 58 67
57 57 62
58 58 62
58 58 61
57 57 60
58 58 66
56 56 65
59 59 59
58 58 75
58 58 62
57 57 66
56 56 66
56 57 67
57 57 72
58 58 77
58 58 79
57 57 61
58 58 59
57 57 76
57 57 68
58 58 61
58 58 68
59 58 72
56 56 61
57 57 73
55 55 58
60 59 61
59 58 71
57 57 60
54 54 61
61 59 60
57 56 58
57 57 59
60 58 59
56 57 57
57 56 57
57 56 58
55 55 57
57 56 57
57 57 58
58 57 57
57 57 58
58 57 58
58 57 58
59 57 58
58 58 58
57 57 58
57 57 58
56 56 60
58 58 66
58 58 65
58 58 62
58 58 62
58 58 60
58 58 73
57 58 71
58 58 61
58 58 81
58 58 71
58 58 69
58 58 65
58 58 67
58 58 65
58 58 67
57 57 68
58 58 67
57 57 66
58 58 69
58 58 72
58 58 70
58 58 66
59 59 60
57 58 69
58 59 62
56 56 60
58 58 62
57 57 59
58 58 66
59 59 66
57 57 70
56 56 78
59 59 66
56 57 74
57 57 60
58 58 66
57 57 60
57 57 60
63 60 68
56 56 58
58 58 59
63 60 69
56 56 63
57 57 58
58 58 64
57 57 58
57 57 60
58 56 58
58 58 59
57 57 66
58 58 67
59 57 59
60 58 60
57 57 57
57 57 58
60 58 59
57 57 58
59 58 58
60 58 66
57 57 59
57 57 58
57 57 57
57 56 57
58 58 59
58 58 59
58 58 61
58 58 66
58 58 59
57 57 65
57 58 71
58 58 78
58 58 62
57 57 67
58 58 65
57 58 72
58 58 65
57 58 70
58 58 70
57 58 62
57 58 71
57 57 65
56 56 73
58 58 66
58 58 67
58 58 66
57 57 62
57 57 66
59 59 66
57 58 66
58 58 61
59 58 60
56 56 64
56 57 73
56 57 74
56 56 61
57 57 60
57 57 66
57 58 82
57 57 59
59 58 71
58 56 65
57 57 59
58 57 59
55 55 65
57 57 60
58 58 59
58 58 60
57 57 59
58 58 67
57 57 58
56 56 57
59 57 71
56 57 58
57 57 58
60 58 60
58 57 58
57 57 59
58 58 59
59 57 61
59 56 57
58 57 58
57 56 59
57 57 58
57 57 58
57 57 58
61 59 59
57 57 59
57 57 58
58 58 61
57 57 80
59 58 66
57 58 80
58 58 68
58 58 67
58 58 66
58 58 67
58 58 62
57 57 67
59 59 65
58 58 59
58 58 62
57 58 66
58 58 64
57 57 64
57 57 72
58 58 74
58 58 77
58 58 61
58 58 63
58 58 69
57 58 67
58 58 63
57 58 61
59 59 60
56 56 64
58 58 60
58 58 72
57 57 64
61 59 62
56 57 68
56 56 70
61 59 61
57 58 71
57 57 66
59 58 70
56 56 59
60 58 59
55 55 64
57 57 58
57 57 60
57 57 61
56 56 58
56 57 70
57 57 58
60 59 59
56 57 59
60 58 59
57 56 58
59 59 60
56 56 57
58 57 59
57 57 64
58 58 58
56 56 58
63 60 62
56 56 57
57 57 57
57 56 57
57 57 58
59 59 59
58 58 58
57 57 58
58 58 60
58 58 58
58 58 60
57 58 70
57 58 74
57 58 67
58 58 60
58 58 62
57 58 69
58 59 72
58 58 61
58 58 58
58 58 62
58 58 67
59 58 60
58 58 60
58 59 60
57 58 64
58 58 67
58 58 61
58 59 70
57 57 59
57 58 62
57 57 71
58 58 66
58 58 64
58 58 62
58 58 66
57 57 79
57 57 58
57 57 65
58 58 64
57 57 67
56 57 65
58 58 58
57 57 62
63 60 61
59 58 60
60 58 60
57 57 67
58 58 60
59 58 66
60 58 60
58 58 64
56 56 57
58 58 60
58 58 60
56 56 58
58 58 59
57 57 57
57 57 59
56 56 57
55 55 57
59 58 59
58 58 59
57 57 59
60 58 62
57 57 58
56 57 57
57 57 58
57 57 60
57 57 57
57 57 58
57 57 58
58 58 61
58 58 60
58 58 65
58 58 63
57 57 65
58 58 73
58 58 61
58 58 59
58 58 60
58 58 58
57 57 58
58 58 67
59 59 60
58 58 73
58 58 60
57 58 63
57 57 64
58 58 68
58 58 62
58 58 62
60 59 68
59 59 62
61 59 62
58 58 64
58 58 58
58 58 62
58 58 72
58 58 59
59 59 60
57 57 72
59 57 66
57 57 66
59 58 62
61 59 60
58 58 67
57 57 70
61 59 60
56 56 64
56 56 58
57 58 71
57 57 67
57 57 64
61 59 66
56 56 57
57 58 65
59 58 59
59 57 67
58 58 59
59 58 59
56 57 57
58 57 60
56 56 64
57 57 57
58 58 59
56 56 58
58 57 58
55 55 59
58 58 60
57 57 59
59 58 59
57 57 58
58 58 59
57 57 61
57 57 58
