P3
# Rays 2018
64 64
255
64 62 56
60 60 57
59 59 57
60 60 58
60 60 58
58 58 58
66 62 58
63 61 57
63 61 56
74 67 56
90 75 54
65 62 57
70 65 56
73 66 56
80 70 55
67 64 56
69 65 57
71 66 54
69 65 57
62 62 57
71 68 56
92 78 54
79 70 56
66 63 58
71 66 57
69 65 57
74 67 56
70 66 56
73 67 56
65 62 58
65 62 57
71 66 59
63 61 55
64 62 56
62 62 56
70 65 56
68 64 56
61 61 57
66 62 55
63 61 56
58 58 56
59 59 58
66 63 57
57 58 57
57 58 57
57 58 58
57 58 57
56 58 55
58 59 55
57 57 56
58 59 56
56 57 57
56 57 56
54 55 55
56 57 55
55 55 54
55 56 56
56 57 56
59 59 58
59 59 57
57 57 57
59 59 58
60 59 58
59 59 58
58 58 58
60 60 57
58 58 58
60 59 58
61 60 57
58 58 58
60 59 57
60 59 58
65 62 58
70 65 56
78 69 56
70 65 57
88 75 54
92 75 55
76 68 56
70 65 57
72 66 56
79 70 53
73 67 55
76 68 55
69 66 55
69 65 57
75 67 56
62 62 57
66 63 58
68 64 57
63 62 56
78 70 55
67 64 56
69 65 57
77 69 56
70 66 58
61 60 55
73 67 54
62 61 59
62 61 55
58 59 55
69 65 55
67 63 55
67 62 55
58 59 57
56 57 55
56 57 54
56 58 56
57 57 57
56 57 55
59 60 58
58 58 56
59 59 57
58 58 57
56 57 56
56 57 56
58 58 56
55 56 55
56 56 56
56 56 55
59 59 57
60 59 58
58 58 57
57 58 57
61 60 58
58 58 57
60 59 57
61 60 58
59 59 58
62 61 57
61 60 57
60 60 58
59 59 58
61 61 57
60 60 57
62 61 57
59 59 57
61 60 58
65 62 57
69 65 56
62 61 57
68 64 58
63 62 57
69 65 55
79 69 54
71 66 56
72 67 57
71 66 58
74 68 57
67 65 57
71 66 56
73 67 58
81 72 56
70 67 55
81 71 56
68 65 57
79 69 57
74 68 56
73 69 56
75 68 53
68 65 55
72 66 56
66 63 56
70 66 57
58 59 56
70 65 56
60 60 55
61 61 57
69 65 58
60 60 56
56 57 57
60 60 58
59 59 58
58 58 57
57 58 57
58 58 56
69 64 55
57 58 58
56 56 56
55 56 55
56 56 56
57 58 56
56 58 55
58 59 56
58 58 57
60 60 57
58 58 58
58 58 57
58 58 58
59 59 58
58 58 58
59 59 59
58 59 58
60 59 58
59 60 59
59 59 58
59 59 58
58 58 58
59 59 58
60 60 57
61 60 58
65 63 56
72 65 57
62 61 58
79 69 56
64 63 57
69 65 56
71 65 56
64 62 57
69 65 57
71 66 55
76 68 56
73 68 55
80 71 56
66 64 57
80 72 56
64 63 58
74 67 57
73 67 56
64 62 58
72 66 56
75 68 58
61 60 57
76 69 56
68 66 56
60 60 58
72 66 56
71 66 56
72 65 56
62 61 57
63 60 57
63 62 58
58 59 56
60 62 57
59 59 56
57 57 56
59 60 55
58 58 56
56 56 55
55 56 54
58 58 57
58 58 58
56 56 56
56 57 56
56 57 56
55 56 55
54 55 55
58 58 58
59 59 57
58 59 58
59 59 57
60 59 58
57 57 57
59 59 57
57 58 58
57 58 57
61 60 58
60 59 57
59 59 58
60 60 57
59 58 57
60 59 58
59 60 57
61 60 57
59 59 58
61 60 58
62 60 58
60 60 58
73 67 56
66 63 56
69 64 57
64 62 56
75 68 56
76 68 56
73 68 57
74 67 56
77 68 55
79 70 55
75 68 57
67 64 57
79 71 55
66 64 59
67 65 57
71 66 56
69 66 57
63 62 59
62 62 59
84 73 55
76 69 56
62 61 56
60 60 57
61 60 56
64 61 55
61 60 56
61 61 57
62 61 57
58 59 57
55 57 56
58 58 57
60 59 56
62 60 56
56 57 56
57 58 57
56 57 55
58 58 57
57 57 57
57 58 57
54 55 55
56 57 56
59 59 57
58 58 57
58 58 58
60 59 57
60 60 58
60 59 58
58 58 58
58 58 58
59 59 58
60 60 58
58 58 58
58 59 57
59 59 58
59 59 58
61 60 57
60 60 57
60 59 58
60 60 57
58 58 58
60 59 58
61 60 58
60 60 58
61 60 57
68 63 57
87 73 55
66 63 56
66 63 57
67 63 57
78 69 56
65 64 55
68 64 57
69 65 56
74 67 56
69 65 56
77 69 56
83 72 55
66 64 58
64 63 57
67 65 56
82 71 56
67 64 58
60 60 58
65 64 56
60 60 57
65 63 59
61 61 58
59 60 57
66 63 54
88 74 56
61 59 56
60 60 56
62 60 56
61 60 58
56 57 55
57 58 57
57 58 56
60 61 57
55 56 56
55 56 55
56 56 56
57 58 57
57 58 57
55 57 55
55 55 55
57 57 57
58 58 58
58 58 57
58 58 58
58 58 58
58 58 58
59 59 57
59 59 58
60 60 58
58 58 58
64 61 57
59 59 57
60 59 58
61 60 57
58 58 58
59 59 57
61 60 58
60 59 58
60 59 58
59 59 59
61 60 58
61 60 57
62 61 58
60 60 58
65 62 57
79 69 55
63 61 56
82 71 56
84 73 54
75 68 56
66 64 56
70 65 57
65 63 56
76 68 55
82 71 56
85 73 56
76 69 55
67 64 59
76 68 58
64 62 58
70 65 58
65 64 58
65 63 57
59 59 57
68 64 56
74 67 55
75 68 58
62 61 57
58 58 58
64 62 58
58 58 56
60 60 58
64 62 57
67 64 56
61 61 58
57 58 57
56 57 56
57 57 56
60 61 58
56 56 55
59 60 56
55 56 56
58 58 57
58 58 57
56 57 57
58 58 57
58 59 56
57 58 57
59 59 57
57 58 57
60 60 58
59 59 58
58 59 58
60 60 57
61 60 58
59 59 57
59 59 59
63 62 57
59 59 58
58 58 58
59 59 58
60 59 58
61 60 58
59 59 57
61 60 58
59 59 58
59 59 58
59 59 58
63 61 58
75 67 57
73 67 56
66 63 57
78 70 56
77 69 56
76 69 55
66 64 57
62 61 57
74 68 55
67 64 57
83 72 56
65 63 57
77 69 56
71 66 59
72 67 58
80 71 57
67 64 59
81 72 55
63 63 59
66 64 57
70 66 58
63 61 57
64 62 57
62 61 58
59 59 57
65 62 57
58 59 57
56 57 56
56 57 56
58 59 58
57 57 56
55 57 56
56 57 57
55 56 55
55 56 56
55 56 56
55 56 56
56 56 56
57 57 57
58 59 58
58 58 58
58 59 58
58 58 57
60 59 58
60 60 57
59 59 57
61 60 58
59 59 57
60 59 58
58 58 58
58 58 57
58 58 57
67 63 57
59 59 57
60 59 58
61 60 58
60 60 57
59 59 58
60 60 57
58 59 58
59 59 58
61 60 57
60 60 57
67 63 57
68 64 57
79 70 55
66 63 58
85 72 56
63 61 57
71 66 57
80 71 56
64 62 57
75 68 56
90 75 56
65 63 56
86 73 56
62 62 58
68 65 59
72 67 56
66 64 58
68 65 58
68 65 58
76 69 57
65 63 56
76 68 57
70 65 57
62 62 58
58 58 56
59 60 57
63 61 58
57 58 57
69 64 57
58 59 59
60 59 56
57 58 57
57 58 57
57 58 56
55 56 56
57 57 57
57 58 57
58 58 57
57 57 57
57 57 57
58 58 58
60 59 57
60 59 57
58 58 58
59 59 58
59 59 58
66 62 58
59 59 58
60 59 58
60 59 58
61 60 58
60 60 59
60 60 58
61 60 57
59 59 59
62 61 57
58 58 58
62 61 58
60 60 58
60 59 58
61 60 57
61 60 58
63 61 58
60 60 58
59 59 57
61 60 58
63 62 57
66 63 56
77 69 56
69 65 56
74 67 56
84 72 54
71 66 55
76 69 57
71 66 57
80 70 56
68 65 59
93 77 55
70 67 56
64 63 59
63 62 59
68 64 59
76 69 56
79 69 57
65 63 58
62 62 57
65 62 57
70 64 54
61 59 55
62 61 58
59 59 58
58 58 56
57 58 58
57 58 57
55 56 56
56 57 56
62 60 57
57 57 56
56 56 56
56 57 56
56 57 57
58 58 58
57 57 57
59 59 58
58 58 58
58 58 58
58 59 58
61 60 58
59 59 58
59 59 57
61 61 59
59 59 58
59 59 59
60 60 58
60 60 58
59 59 59
61 61 58
65 62 58
60 60 57
58 58 57
60 60 57
59 59 57
60 59 57
59 59 58
60 60 59
60 59 58
60 59 58
65 62 58
63 61 57
60 60 58
67 63 58
81 70 57
62 61 57
64 62 57
80 70 55
74 67 56
69 64 57
71 66 57
77 69 56
71 66 56
73 68 55
67 64 58
71 66 57
68 65 58
68 64 59
76 69 58
72 67 58
74 67 57
72 67 58
72 67 58
73 67 58
65 62 58
60 60 58
60 59 56
59 59 58
57 58 57
58 59 58
59 59 59
56 57 57
57 58 58
56 57 57
57 57 57
57 57 55
57 58 57
59 59 57
57 57 57
59 59 59
58 58 57
58 58 58
57 57 57
60 60 57
61 60 58
58 58 57
60 60 58
59 59 58
60 60 59
60 60 57
60 60 58
61 60 58
61 61 58
65 62 57
59 59 59
62 61 57
59 59 58
60 59 58
59 59 58
60 60 57
58 58 57
61 60 58
60 60 59
60 59 58
62 61 58
59 59 58
60 59 57
65 62 58
61 60 58
72 66 55
77 68 56
69 64 57
69 65 56
63 62 58
61 60 59
88 75 54
74 67 58
72 66 57
71 66 57
73 67 58
75 68 58
64 62 58
64 62 58
68 64 58
73 67 58
80 70 58
63 61 58
62 61 59
64 61 58
59 59 58
76 68 58
57 58 57
57 57 57
59 59 59
57 57 57
57 57 56
57 57 57
57 58 58
55 56 56
57 57 57
57 58 57
58 58 58
59 59 58
59 59 58
59 59 59
59 59 58
58 58 58
58 58 57
59 59 58
61 60 58
58 59 58
59 59 59
59 59 58
59 59 58
63 61 57
61 60 58
59 59 58
60 60 58
59 59 58
58 58 57
60 60 58
61 60 59
61 60 58
59 59 59
59 59 58
61 60 58
59 59 58
60 59 58
59 59 58
60 60 59
59 59 58
61 60 58
60 59 58
65 62 57
63 62 56
73 66 57
63 62 57
62 61 58
64 62 57
66 62 57
74 67 57
63 62 58
68 64 57
68 64 57
66 63 57
68 64 58
63 62 57
67 63 58
61 60 58
63 61 57
65 62 58
62 60 58
61 60 56
59 59 59
61 60 58
57 58 56
59 59 59
56 57 56
59 59 59
58 59 57
57 58 57
55 56 56
58 58 58
58 58 58
58 58 58
61 60 58
58 58 58
59 59 58
61 60 58
59 58 57
58 58 58
59 59 58
60 59 58
58 58 58
59 59 58
58 58 58
59 59 59
60 60 58
63 62 57
58 59 58
65 62 58
59 59 58
58 59 58
59 59 58
60 59 57
61 60 59
59 59 59
67 63 57
60 60 58
62 61 58
60 59 59
59 59 59
59 59 58
57 58 57
60 60 57
58 58 58
60 60 58
59 59 58
58 58 58
60 59 58
61 60 57
61 60 57
58 58 58
59 59 58
63 61 57
60 60 58
60 60 57
62 61 57
60 60 58
59 59 58
60 60 57
61 60 58
60 60 58
59 59 58
60 59 59
60 60 59
59 59 59
59 59 58
59 59 58
58 58 57
58 58 58
58 58 58
58 58 57
58 58 58
58 58 58
58 58 58
58 58 57
58 58 58
58 58 58
61 60 58
60 60 59
60 60 58
59 59 58
60 60 58
60 60 58
58 58 58
59 59 58
61 60 58
58 59 58
62 61 58
62 61 58
61 60 58
62 60 57
59 59 58
60 60 58
58 59 57
59 59 58
66 63 58
59 59 58
61 60 58
60 59 57
68 64 57
62 61 57
61 60 58
58 59 58
59 59 59
59 59 58
58 58 58
59 59 58
59 59 58
59 59 58
61 60 58
60 60 57
62 61 57
58 58 58
66 63 58
61 60 58
61 60 58
59 59 58
60 59 58
60 59 58
66 62 58
59 59 58
60 60 58
61 60 58
61 60 56
60 59 58
61 60 58
62 61 58
59 59 58
62 61 58
60 60 58
59 59 58
58 58 57
57 58 57
58 58 58
58 59 58
58 58 58
58 58 58
59 58 58
59 59 58
58 58 58
60 60 58
59 59 59
59 59 58
60 59 58
60 59 58
59 59 58
60 59 59
60 60 59
58 58 58
59 59 58
59 59 59
58 59 58
58 59 58
61 61 56
65 62 58
66 62 57
62 61 59
61 60 58
67 63 57
59 59 57
60 60 58
62 61 58
59 59 58
59 59 58
60 60 59
59 59 59
61 60 59
60 60 58
60 60 59
60 60 58
60 59 58
60 59 58
59 59 58
59 59 58
60 59 58
66 62 58
61 60 58
60 59 58
60 59 57
59 59 58
65 62 57
61 60 58
60 60 58
60 59 58
58 58 58
58 58 58
62 61 57
63 61 57
61 60 58
60 59 58
60 60 57
58 59 58
61 60 59
59 59 58
59 58 57
59 59 58
59 59 58
57 57 57
57 58 58
58 58 58
58 58 58
58 58 58
59 59 59
58 58 58
58 58 58
59 59 58
60 60 58
58 59 57
60 60 58
60 59 58
61 60 57
60 59 58
61 60 59
61 61 59
61 60 58
59 59 58
59 59 59
61 60 58
59 59 56
60 60 57
63 61 56
63 62 59
59 59 59
60 60 58
60 60 59
60 60 57
60 60 59
61 61 58
59 59 59
60 60 59
64 62 58
60 59 58
59 59 58
60 59 59
60 59 58
61 60 58
59 59 58
60 59 59
63 61 57
61 60 58
57 58 57
64 62 58
58 58 58
58 58 58
61 60 57
60 59 58
61 60 58
61 60 58
59 59 58
58 58 58
59 59 58
61 60 57
59 59 57
61 60 57
59 59 58
58 58 58
58 58 58
60 59 58
58 58 58
58 59 57
59 59 58
58 58 58
60 59 58
59 59 58
58 58 58
58 59 58
59 59 57
58 59 59
58 58 58
59 59 58
58 58 58
58 58 57
59 59 58
60 60 58
61 60 58
63 61 57
59 59 59
61 62 57
67 64 57
60 60 58
59 59 58
59 59 59
59 59 58
61 60 58
66 63 58
61 60 58
59 59 57
64 62 58
60 60 59
62 61 57
57 58 58
60 60 58
60 60 58
61 61 59
60 60 59
61 60 59
60 59 59
64 62 58
59 59 58
59 59 59
61 60 57
60 59 59
59 59 58
63 61 58
59 59 57
60 60 57
61 60 57
60 59 58
72 67 58
59 59 58
61 60 58
61 61 58
61 60 58
59 59 58
60 60 58
62 61 58
61 60 58
59 58 58
60 60 58
58 58 58
57 58 57
59 59 58
58 58 58
60 60 57
58 58 56
58 58 57
58 58 57
58 58 57
58 58 58
58 58 58
58 58 58
58 58 58
58 59 58
61 60 58
59 59 59
60 59 58
60 60 59
60 60 59
61 60 58
59 59 58
58 59 58
59 59 58
65 62 58
59 59 58
59 59 58
62 61 59
59 59 58
71 65 57
57 58 56
64 62 58
61 60 58
60 60 58
60 60 57
65 62 57
57 58 57
59 59 59
63 62 58
62 61 59
60 60 59
60 60 59
61 60 58
60 60 59
65 62 58
60 59 58
59 59 58
59 59 58
60 59 58
60 60 58
60 59 58
61 60 58
59 59 58
59 59 58
58 59 58
60 60 56
61 60 58
61 60 58
61 60 57
60 59 58
58 58 58
58 58 58
65 61 58
59 59 58
59 59 58
60 60 57
58 58 58
58 58 58
58 58 56
58 58 58
59 59 58
57 58 57
58 58 58
59 59 58
58 58 58
58 58 58
58 58 58
59 59 58
58 59 59
62 61 59
59 59 58
61 60 58
59 59 58
61 60 59
61 60 58
59 59 58
59 59 59
59 59 59
61 61 58
60 60 58
60 60 58
60 60 59
63 62 59
62 61 59
61 60 58
58 58 57
61 60 57
60 61 57
71 66 57
59 59 59
68 64 56
60 60 58
62 61 58
60 60 58
62 62 58
60 60 58
62 61 58
62 61 58
61 61 59
59 60 59
59 59 58
59 59 58
58 58 58
60 60 58
60 60 58
59 59 58
58 58 57
61 60 58
61 60 58
59 59 58
62 61 57
59 59 57
60 59 57
59 59 58
60 59 57
58 58 58
60 59 58
59 59 57
57 58 57
59 59 59
58 58 58
59 59 58
58 58 58
59 59 58
58 58 58
58 59 58
59 59 59
57 58 57
58 58 57
58 58 58
58 58 58
57 57 57
59 59 57
60 59 59
59 59 59
58 59 58
59 59 58
61 60 58
60 60 59
61 60 59
59 59 59
59 59 58
60 60 58
61 61 58
65 62 57
60 60 58
60 60 58
61 61 57
62 62 58
64 61 57
65 64 58
60 60 58
60 61 58
60 60 58
62 61 59
62 62 59
67 64 58
65 62 58
61 60 59
61 61 59
60 59 59
61 61 59
60 60 59
61 60 59
60 60 58
59 60 59
59 59 58
59 59 58
66 63 57
59 59 58
59 59 58
61 60 57
59 59 57
58 59 58
58 58 58
59 59 58
60 60 57
67 64 57
60 60 58
58 58 58
60 60 58
65 62 57
60 60 57
60 59 58
58 58 58
58 58 58
58 58 58
58 58 58
61 60 57
58 58 58
58 59 59
59 59 57
58 58 58
59 59 59
57 57 57
59 59 58
60 60 58
60 60 59
60 60 59
59 60 59
60 60 60
60 60 60
61 60 59
60 60 58
62 61 58
59 59 59
58 59 57
60 59 58
71 66 58
61 60 57
58 58 58
59 59 57
59 59 57
59 60 59
65 63 56
59 60 58
58 59 58
61 60 55
63 62 58
63 62 57
67 66 58
67 64 59
70 65 58
64 63 59
61 61 59
62 61 58
61 61 59
63 62 59
60 60 59
59 59 58
61 60 58
59 59 58
58 58 58
58 59 58
62 61 58
61 60 58
61 60 57
61 60 57
60 60 57
60 59 57
62 61 58
60 59 58
58 58 58
60 59 58
61 60 56
60 59 57
61 60 58
59 59 59
63 61 57
58 59 58
58 59 58
58 58 58
58 58 58
59 59 58
58 58 58
59 59 59
57 57 57
58 58 58
59 59 59
59 59 58
60 59 58
58 59 58
58 59 57
59 59 59
60 60 59
60 60 58
61 61 59
61 60 59
59 59 59
62 61 58
59 60 59
62 62 58
60 60 59
61 60 58
66 63 60
64 62 59
61 61 58
64 62 58
65 63 58
62 61 60
74 68 59
64 63 57
65 63 57
64 63 60
63 62 59
72 66 58
61 61 58
61 61 59
65 64 60
60 60 60
62 61 59
62 61 59
62 61 59
60 60 58
72 66 57
59 60 57
62 61 57
62 61 57
58 59 58
61 60 58
64 61 58
63 61 58
67 64 58
61 60 58
60 59 58
63 62 57
59 59 58
60 60 58
61 61 58
61 61 59
60 60 59
62 61 58
59 59 58
59 59 59
59 59 58
59 59 58
57 58 57
58 58 58
60 60 58
58 58 58
58 58 57
61 60 58
59 59 58
58 58 58
59 59 59
59 59 59
60 60 59
60 60 58
62 61 59
60 60 60
60 60 59
61 62 59
60 60 58
59 60 59
66 63 57
59 60 59
61 61 56
60 60 58
61 61 58
58 58 57
66 64 55
67 64 59
66 64 57
66 64 58
73 66 58
66 63 57
65 63 58
63 62 58
63 62 58
64 63 58
61 61 59
62 62 60
69 65 58
71 66 60
62 61 59
63 62 58
65 62 59
60 60 57
60 59 58
62 61 57
61 60 58
70 64 57
64 62 58
62 61 58
60 59 59
60 60 58
61 60 58
59 59 58
58 58 58
58 58 58
71 65 57
62 61 59
61 61 58
61 61 60
65 63 60
65 63 61
63 62 61
59 59 59
60 60 58
57 58 58
59 59 59
58 58 58
59 59 58
59 59 58
57 58 58
58 59 58
57 58 58
57 58 58
60 60 60
60 60 60
60 61 60
59 59 59
60 60 60
59 59 59
60 60 59
60 60 60
60 61 60
61 61 59
56 57 57
58 59 57
58 59 57
59 59 56
69 64 56
59 59 57
64 63 59
67 64 58
62 61 59
67 64 57
67 63 56
66 64 56
68 65 58
66 64 58
73 68 57
66 64 59
65 63 58
63 62 59
61 61 59
64 63 59
62 61 59
68 64 59
63 62 59
60 59 59
60 59 58
62 61 58
61 60 58
68 64 56
66 62 57
64 61 56
61 60 57
61 60 59
62 61 58
66 63 58
66 62 58
63 62 58
64 62 59
64 63 60
65 65 64
69 69 68
69 69 67
71 70 69
69 69 69
62 63 62
63 64 63
62 63 62
59 59 58
57 58 57
55 56 55
58 58 57
57 57 57
57 58 57
57 57 57
58 58 58
58 58 58
60 60 60
60 60 59
59 60 59
61 61 59
58 58 57
60 61 60
61 62 59
59 59 57
59 60 59
59 59 56
58 58 58
60 60 57
59 59 57
56 57 54
63 61 56
69 65 58
59 59 57
72 66 56
68 64 55
67 64 56
62 61 59
63 62 57
74 68 55
79 71 57
65 63 57
72 67 56
69 66 57
72 66 58
79 70 57
70 65 59
64 63 59
67 64 59
63 62 58
62 61 58
66 63 56
61 60 58
66 63 57
72 67 55
58 58 58
66 63 56
60 59 57
72 66 57
59 59 58
76 68 58
67 64 59
83 73 60
68 68 68
71 71 70
73 72 71
75 75 71
73 73 73
73 73 73
75 74 73
70 71 70
66 67 66
62 62 61
58 59 58
57 58 57
57 57 57
56 57 56
57 57 57
58 58 58
59 59 58
58 58 58
60 60 60
59 59 59
58 59 59
59 59 58
59 60 59
58 58 58
57 58 55
58 59 57
58 59 58
59 59 57
58 58 56
64 61 57
66 63 56
61 60 55
63 61 55
65 63 57
58 59 58
70 66 55
66 63 55
67 64 55
78 70 56
91 78 54
97 79 55
70 66 57
78 71 57
67 64 55
74 68 57
69 66 57
75 69 56
72 66 58
81 71 58
63 62 60
64 62 58
70 65 58
62 61 58
63 61 57
69 64 58
73 66 56
68 64 57
65 63 56
64 62 58
79 69 57
67 63 57
69 65 58
63 63 62
71 70 69
74 74 73
74 74 72
73 73 73
75 75 74
70 70 70
74 73 71
72 72 72
73 73 72
72 72 72
68 69 68
63 63 62
56 57 57
58 58 58
57 58 57
58 58 57
56 57 56
59 59 58
59 59 59
59 60 59
61 61 60
57 58 58
59 60 60
58 60 58
59 59 58
59 60 59
57 58 58
60 59 57
56 56 56
56 57 56
61 61 58
60 60 59
65 61 52
57 58 55
62 61 57
67 65 57
77 69 55
78 69 56
72 67 55
100 82 53
78 70 56
93 78 54
70 67 56
90 77 57
89 75 56
88 76 55
76 69 58
83 73 57
71 66 58
69 66 59
70 66 58
62 60 58
62 61 58
78 68 57
63 61 58
69 64 57
61 60 57
73 68 54
68 64 56
70 65 56
69 64 57
68 64 57
64 63 60
73 71 68
72 72 72
73 73 73
72 72 72
73 73 73
72 72 72
73 73 71
72 73 72
71 71 71
72 72 72
73 73 73
71 71 71
68 68 67
57 58 57
56 57 56
57 58 57
54 55 54
55 56 56
58 58 57
58 59 58
57 58 58
57 58 58
58 59 58
55 56 55
55 57 56
58 59 57
58 59 58
59 60 58
56 57 54
56 57 54
62 61 55
57 58 56
68 63 54
65 62 53
65 62 58
69 67 57
65 64 54
68 65 56
65 63 56
62 62 58
87 75 55
88 75 53
99 80 52
79 71 56
85 74 56
84 74 55
86 75 56
89 77 55
86 75 55
101 83 54
77 71 57
79 70 58
72 67 58
74 67 55
69 65 56
74 67 57
80 70 56
83 72 55
68 64 55
70 65 55
66 63 56
78 69 56
85 74 57
69 68 64
72 71 70
73 73 71
72 72 72
72 72 72
72 72 72
72 72 72
72 72 72
75 74 71
72 72 72
73 73 73
73 73 73
73 73 73
69 69 69
59 61 60
52 54 52
54 55 54
54 55 53
53 54 53
56 57 56
59 59 59
57 58 57
55 57 56
56 58 57
54 56 55
54 56 55
55 56 55
55 56 55
55 56 56
53 55 54
56 57 53
57 57 51
57 58 56
59 59 55
57 57 55
63 60 55
69 65 56
63 63 58
74 68 54
80 70 54
74 68 55
79 70 54
86 75 53
73 68 56
94 79 51
110 87 51
92 76 54
93 78 56
77 70 55
87 75 55
88 76 56
82 73 58
87 75 57
85 73 54
63 61 57
101 81 53
73 67 56
89 74 55
86 73 54
84 73 54
85 72 56
88 75 53
96 78 54
80 72 57
79 74 67
74 74 73
74 74 74
75 74 73
73 73 73
72 72 72
75 74 71
73 73 72
73 73 72
73 73 73
72 72 72
73 73 72
74 73 72
72 72 72
64 64 64
54 56 55
49 51 50
49 51 50
49 51 50
54 55 53
55 56 56
55 56 56
55 56 56
52 54 53
52 54 52
51 54 52
50 53 49
52 54 53
57 57 50
61 60 52
54 56 52
64 62 52
54 55 51
61 58 52
55 56 56
64 61 55
69 65 55
69 65 55
77 70 54
78 72 55
102 82 50
82 73 54
96 81 52
104 84 54
94 79 52
99 82 51
121 93 49
112 88 51
103 84 51
100 82 53
102 83 52
107 86 52
77 69 58
73 67 57
74 67 56
86 73 55
85 74 54
79 70 54
79 70 54
91 76 52
128 94 50
123 92 50
106 85 51
103 84 55
90 81 65
79 77 71
72 73 72
74 73 72
74 74 73
73 73 72
70 70 69
73 73 70
71 71 71
71 72 70
71 71 71
72 72 72
73 73 73
72 72 71
62 64 63
48 51 48
46 49 48
47 50 48
51 53 52
54 55 55
56 57 57
55 56 56
49 52 51
46 49 48
47 51 49
46 49 48
47 50 47
51 54 49
52 54 51
55 56 51
55 56 52
58 60 52
55 57 55
55 56 53
55 55 52
60 60 55
84 73 52
69 64 55
80 71 54
69 66 56
71 66 56
96 84 52
115 90 51
98 81 51
102 82 51
101 83 51
101 83 52
109 88 49
110 87 51
93 79 51
108 87 52
109 87 53
91 77 55
83 73 55
67 64 56
85 73 55
88 75 53
95 79 53
132 98 49
122 92 50
120 91 52
128 97 47
132 99 47
116 92 53
117 95 59
99 88 69
73 72 72
72 71 71
73 72 71
70 70 70
76 74 70
71 72 70
72 72 71
72 72 71
72 72 72
72 72 71
71 71 71
65 67 66
52 55 54
42 47 45
36 39 37
31 36 34
23 28 25
25 31 28
30 36 33
41 44 43
45 49 47
44 48 46
44 48 46
41 46 42
42 47 44
48 51 48
48 50 47
48 51 49
56 56 50
55 56 52
54 56 54
57 56 50
55 56 50
59 58 54
66 64 57
76 68 56
77 69 54
70 66 53
81 71 55
93 78 55
102 82 49
94 80 53
85 76 52
129 98 51
93 81 51
116 90 47
133 99 48
105 88 49
117 92 49
102 84 52
101 82 53
73 68 56
72 66 56
86 73 54
134 92 53
255 186 42
255 255 28
255 255 27
255 255 26
255 193 36
206 135 39
164 117 46
157 115 55
143 111 61
76 75 72
71 71 71
72 72 72
73 72 70
71 71 69
73 72 69
75 74 73
70 70 70
71 72 71
72 72 70
69 70 69
59 64 59
42 48 45
27 34 31
14 21 17
6 14 11
2 9 6
3 12 8
11 18 15
17 24 21
29 35 32
35 41 38
32 38 35
35 41 38
38 42 39
39 43 41
42 46 41
51 51 45
46 49 46
59 57 49
58 57 50
51 53 50
49 52 48
59 61 53
61 60 54
70 68 54
68 64 55
76 68 55
90 75 54
111 87 50
82 74 52
105 84 52
93 79 50
101 82 51
104 84 52
118 92 48
131 100 45
138 103 47
140 103 47
129 99 49
87 76 54
82 72 55
68 64 55
87 75 53
255 208 37
255 255 22
255 255 10
255 255 8
255 255 10
255 255 18
255 227 33
181 123 44
230 157 42
184 133 57
77 77 69
69 71 68
69 71 69
71 71 69
73 73 71
71 72 70
78 80 67
72 72 71
71 72 70
67 68 66
64 65 65
49 55 52
29 37 34
13 21 17
2 9 6
1 10 6
1 9 5
1 10 5
1 9 5
3 13 8
11 19 15
22 29 26
27 35 31
28 35 32
32 37 34
37 42 38
44 46 40
55 54 46
44 48 45
51 53 48
57 59 51
55 56 50
59 56 49
58 57 48
80 71 53
65 64 55
63 63 56
71 66 53
88 75 51
81 73 51
93 78 55
110 87 51
114 90 48
101 84 50
138 101 48
113 90 48
139 103 45
127 97 45
123 97 46
108 89 49
98 81 53
75 69 55
79 70 55
213 124 48
255 255 21
255 255 9
255 255 9
255 255 9
255 255 9
255 255 9
255 255 22
249 155 37
166 122 46
158 120 55
86 81 65
56 70 55
62 71 63
65 70 65
71 72 70
67 69 66
74 77 63
77 79 66
70 72 64
58 59 62
47 50 50
43 49 46
23 31 27
4 12 8
1 9 5
1 7 4
1 10 5
1 10 5
1 9 4
1 9 5
3 12 7
13 21 16
11 21 17
22 30 25
26 33 30
29 35 33
37 42 40
53 52 45
47 50 48
52 55 49
57 57 48
52 55 50
47 51 45
57 58 51
82 72 53
83 73 55
74 67 55
84 73 54
79 71 52
93 79 52
85 74 54
97 82 50
95 80 50
145 105 48
108 88 47
134 101 44
136 102 45
152 111 44
146 106 45
125 97 47
93 79 55
75 69 54
86 74 54
255 199 41
255 255 20
255 255 9
255 255 8
255 255 8
255 255 7
255 255 6
255 255 16
255 199 33
162 118 40
138 106 39
72 77 49
50 68 48
46 65 47
56 67 56
68 70 68
68 70 65
67 71 62
68 69 65
59 60 61
37 39 47
42 46 48
30 36 35
16 21 22
4 9 8
1 8 4
0 6 4
1 10 5
1 10 5
1 10 5
1 8 5
1 10 6
7 16 12
14 23 19
14 23 19
26 34 31
26 32 29
37 41 39
41 45 42
47 49 48
52 56 46
47 50 47
53 57 50
59 59 50
55 56 52
68 65 55
67 66 54
76 69 53
78 72 54
96 80 53
84 75 52
90 78 53
91 77 54
113 87 49
133 99 48
153 111 42
134 100 46
141 106 41
157 113 39
137 103 43
104 86 50
93 80 52
86 75 52
82 72 54
255 174 42
255 255 18
255 255 9
255 255 9
255 255 9
255 255 6
255 255 7
255 255 23
255 172 28
102 84 22
43 55 17
41 59 27
45 62 43
50 67 49
63 71 61
65 70 66
69 71 68
72 72 71
68 69 69
59 60 62
48 52 54
35 38 41
22 26 28
8 11 16
3 7 10
1 6 6
0 6 3
1 8 5
1 9 5
1 9 5
1 9 4
3 10 7
7 15 11
15 25 20
15 24 21
21 29 26
32 38 35
39 44 42
46 49 46
47 51 44
53 53 45
48 52 46
52 53 45
52 55 49
67 62 52
67 65 55
74 68 55
80 72 53
75 68 54
87 76 51
89 77 52
81 72 53
102 84 47
120 92 50
130 97 49
132 99 48
149 108 43
128 97 44
133 102 43
109 88 48
112 89 49
79 70 57
86 74 54
75 68 55
126 91 51
255 230 30
255 255 12
255 255 8
255 255 8
255 255 7
255 255 13
255 219 29
115 92 23
10 38 5
0 31 2
0 30 2
24 45 23
52 63 52
71 74 68
74 76 71
74 74 72
73 73 73
69 70 71
61 62 64
50 53 53
25 27 32
4 6 14
3 4 12
3 4 13
1 4 8
1 4 4
1 10 4
1 10 6
1 9 5
1 9 5
6 14 10
16 24 20
14 24 20
18 27 23
26 33 30
30 36 34
35 39 37
42 46 44
43 48 42
51 54 47
45 48 45
47 50 46
52 55 47
48 51 48
81 71 55
74 68 55
71 67 56
84 73 55
80 72 53
87 75 51
91 77 51
88 76 51
116 89 52
124 94 47
120 92 49
136 100 46
122 94 45
130 98 46
139 103 44
92 79 51
75 68 56
80 70 55
80 70 55
84 74 51
255 162 39
255 255 19
255 255 9
255 255 8
255 255 11
255 255 21
226 142 37
70 71 27
6 36 4
0 31 2
0 30 2
14 39 15
61 66 55
75 74 70
72 72 70
74 74 72
72 72 71
71 71 71
64 65 65
54 55 55
23 25 30
3 5 11
3 4 13
3 4 13
3 6 12
1 6 6
1 8 4
1 7 4
3 11 7
10 17 13
24 30 27
24 31 28
24 32 28
19 28 24
30 36 34
34 39 35
38 42 41
41 44 44
45 49 47
41 45 41
53 56 49
53 55 46
59 58 51
50 52 49
75 70 55
68 65 57
74 68 56
83 73 53
84 73 51
82 73 53
99 82 52
124 93 51
125 95 49
117 90 51
114 90 47
110 86 50
110 88 47
85 75 51
77 69 53
69 65 55
79 70 54
79 71 54
85 73 54
140 103 46
204 134 38
255 201 28
255 230 17
255 255 16
255 197 23
252 161 33
174 125 39
76 74 31
12 38 8
0 30 2
1 31 2
27 46 28
58 63 55
66 67 65
67 68 67
62 64 61
46 52 45
49 53 47
57 58 57
57 58 58
32 33 35
7 8 15
3 5 13
3 5 12
6 11 14
5 13 11
3 13 8
4 12 8
7 16 12
15 23 19
26 33 30
31 37 34
29 36 33
27 34 30
33 38 35
33 38 35
40 44 42
41 46 41
40 45 41
50 51 44
52 53 46
58 59 47
58 56 49
51 53 49
57 58 56
77 69 54
75 69 54
77 70 54
88 74 52
110 86 53
93 78 53
97 79 54
93 79 50
107 85 50
107 85 49
85 74 52
77 70 53
74 68 54
66 63 57
79 70 54
63 61 57
86 74 54
83 72 54
122 94 47
143 107 42
196 134 37
196 135 35
211 143 34
193 134 36
183 129 39
125 97 45
77 73 36
41 55 14
12 39 7
12 41 14
36 53 32
53 61 52
60 64 59
64 66 61
43 48 40
21 30 19
23 34 20
41 46 41
54 55 54
37 39 43
66 79 24
120 148 14
78 96 16
15 19 22
17 25 22
14 23 19
17 27 23
17 26 22
21 29 25
28 35 32
34 40 37
36 41 39
34 40 37
40 44 42
39 43 40
43 47 44
44 48 43
50 53 49
43 47 44
49 52 50
63 61 50
51 52 50
63 63 51
74 68 54
80 72 54
91 78 54
81 71 52
77 69 52
81 72 52
93 79 52
84 73 53
66 64 55
85 73 54
76 69 56
69 65 55
73 67 55
68 64 55
71 66 55
77 69 54
84 73 54
99 80 53
99 81 52
108 86 50
149 106 47
164 114 45
175 121 41
150 110 43
142 103 46
118 93 47
113 90 43
80 76 36
56 64 25
40 55 27
27 49 27
40 54 41
52 60 52
58 62 57
59 62 58
34 41 32
8 20 6
14 26 11
38 45 38
50 50 52
78 87 46
255 255 26
255 255 13
255 255 19
145 176 29
30 33 34
29 35 33
30 36 33
33 39 36
34 40 37
36 41 39
41 45 41
40 44 42
40 44 42
46 49 47
45 47 47
47 49 48
44 47 44
51 52 51
54 55 48
58 56 51
52 53 50
53 54 50
71 65 48
70 67 53
71 67 55
81 72 52
75 69 53
70 65 56
69 65 56
69 65 54
79 69 55
71 67 54
68 64 55
65 63 56
66 63 56
66 63 56
79 70 55
72 66 56
67 63 57
87 73 55
86 73 54
113 87 53
128 94 50
114 88 52
141 101 50
142 102 48
152 106 48
153 108 48
107 85 49
122 93 47
94 79 46
77 71 44
61 63 43
54 59 51
49 57 50
55 59 55
57 60 54
60 62 57
38 45 37
16 28 13
24 34 22
42 48 39
54 55 55
168 200 43
255 255 23
255 255 11
255 255 15
255 255 28
36 39 40
43 46 45
41 44 42
37 42 39
42 46 44
41 45 43
42 46 44
46 49 48
49 52 50
48 50 48
49 52 50
53 55 54
50 52 51
47 50 49
58 60 50
50 52 50
52 54 50
59 58 49
55 56 54
66 64 56
68 65 55
64 63 56
81 71 55
75 68 55
72 67 54
64 62 57
64 62 56
66 64 55
64 62 56
64 62 55
67 64 56
80 70 54
74 67 56
77 68 55
83 72 55
76 68 55
106 83 54
91 75 54
96 78 55
105 83 53
134 97 51
113 87 53
134 99 49
130 96 51
87 75 53
112 87 49
91 77 51
71 68 50
59 62 49
62 64 52
55 59 52
69 66 56
55 60 55
59 61 55
47 52 44
42 49 37
38 45 37
45 50 42
56 59 52
107 120 48
255 255 30
255 255 15
255 255 15
255 255 33
49 50 48
45 48 47
44 46 46
41 45 43
45 47 46
43 47 45
47 49 47
46 49 48
51 53 50
48 51 49
52 53 52
51 53 52
53 54 51
51 53 52
54 55 54
54 56 51
53 54 52
60 56 49
56 58 53
71 66 55
66 63 54
64 64 56
62 61 58
62 61 57
64 62 56
62 61 57
65 63 55
65 62 57
63 61 57
74 66 56
68 64 57
62 61 57
77 68 55
90 75 55
77 69 55
84 72 56
93 78 52
95 77 55
80 70 56
90 76 54
87 73 55
100 80 54
88 75 54
100 82 53
96 79 52
83 73 54
70 67 53
82 72 52
79 71 56
84 74 50
60 61 53
59 60 53
63 62 56
57 59 55
58 59 57
50 54 49
56 58 52
53 55 51
56 58 51
66 68 49
138 154 40
232 255 26
209 243 26
131 150 39
55 58 47
49 51 50
50 51 50
50 52 50
48 50 49
48 51 49
49 51 49
52 53 52
52 53 52
52 53 52
54 55 52
51 53 52
52 53 52
54 55 54
54 55 54
54 56 55
55 56 56
55 56 54
54 56 54
65 63 55
57 58 56
62 62 56
66 63 57
60 60 57
63 62 57
62 61 57
66 63 56
66 63 57
74 67 55
67 64 56
64 62 56
66 63 56
76 68 55
66 64 56
85 72 55
89 74 54
96 78 55
83 72 55
98 80 52
87 74 55
95 79 53
82 73 52
77 70 54
85 73 55
79 70 54
65 63 55
65 63 56
71 68 53
61 62 55
69 65 54
58 61 54
59 61 57
66 64 56
59 59 55
58 60 51
56 58 56
55 57 54
53 55 52
64 64 57
65 67 53
91 97 48
117 127 41
104 112 42
75 81 44
73 77 45
50 51 50
57 59 51
48 50 49
52 54 52
49 51 50
51 52 52
52 53 53
53 54 54
49 51 50
52 53 52
57 58 55
55 55 55
54 55 54
51 53 52
56 57 55
55 55 55
57 57 54
56 57 54
60 59 56
64 62 56
59 59 57
60 60 57
63 61 56
65 63 56
60 60 57
61 60 57
65 63 56
65 62 56
65 63 56
70 66 55
68 64 56
62 61 58
76 68 56
83 72 55
67 63 58
80 70 55
63 62 57
102 82 53
80 70 55
78 70 56
63 62 55
94 77 52
83 72 54
77 69 55
88 76 54
78 70 52
66 63 56
64 63 54
59 60 57
57 59 56
63 61 57
78 70 55
58 59 57
58 60 56
53 55 51
59 59 56
54 56 54
60 61 55
66 67 56
78 83 53
77 80 52
79 83 49
70 73 50
70 73 48
61 63 50
51 53 51
51 53 52
52 53 52
53 54 52
55 55 54
50 52 51
53 54 53
52 54 53
53 54 53
55 56 54
56 57 56
56 57 55
56 57 55
57 57 56
57 58 57
55 56 54
57 58 56
61 60 57
58 58 58
62 61 57
61 60 57
62 61 57
60 60 57
63 61 57
72 65 57
67 63 55
62 61 57
64 62 56
59 59 57
67 63 56
62 61 57
68 65 55
65 63 56
69 64 56
73 67 55
86 73 54
74 68 55
70 66 57
73 67 54
68 65 55
74 68 54
68 65 54
95 78 54
77 70 54
74 68 55
61 62 55
60 60 57
70 67 54
63 62 55
67 64 57
60 61 55
62 63 57
70 65 56
58 59 57
59 60 56
59 59 57
59 61 54
60 61 54
74 77 53
69 73 52
81 82 51
64 65 53
65 69 52
59 61 52
60 63 50
54 55 54
55 55 54
54 55 53
52 53 52
54 55 55
51 53 52
57 57 54
53 54 53
55 56 55
54 56 55
56 56 55
57 57 56
56 57 54
56 57 56
57 57 55
56 57 57
64 61 57
66 63 57
63 62 56
60 59 58
61 60 58
69 65 56
62 61 57
67 63 57
64 62 56
65 62 57
65 62 56
62 60 56
64 62 57
63 62 57
67 63 57
74 68 55
67 64 57
67 64 56
86 73 55
89 74 55
63 62 56
70 65 57
92 77 54
69 65 55
84 73 55
84 73 53
76 68 56
67 64 57
63 63 55
82 72 52
65 64 56
69 65 56
63 62 56
56 58 53
66 63 57
56 57 55
59 60 57
56 57 56
61 62 58
62 64 56
71 74 52
73 72 55
66 67 55
62 65 52
64 65 52
60 61 56
58 60 53
59 61 53
53 54 53
58 58 54
53 54 54
54 55 55
53 54 54
54 55 54
54 55 53
53 54 53
56 56 56
55 56 55
54 55 53
53 54 54
56 57 55
57 58 56
56 56 55
57 57 56
60 60 58
59 59 58
65 62 57
61 60 58
61 60 57
65 62 56
61 60 57
60 60 58
64 62 57
63 62 58
65 62 57
60 60 57
74 67 55
66 63 58
73 67 54
77 69 55
79 70 54
67 63 57
81 71 56
67 64 57
64 62 56
71 66 55
93 77 56
72 67 56
83 72 55
71 66 55
76 69 56
71 66 55
64 62 56
67 63 55
74 68 55
63 61 56
61 61 55
60 60 56
68 66 56
59 59 58
59 59 56
58 59 55
59 61 55
61 62 56
65 66 58
61 62 54
60 61 55
59 61 53
62 63 53
61 64 54
55 56 54
57 59 54
62 63 53
55 56 54
53 54 54
54 55 55
52 53 53
54 55 54
56 57 55
53 54 53
54 55 54
53 54 53
57 58 57
58 58 55
57 57 56
55 56 55
58 58 57
55 56 55
67 63 57
59 59 58
60 60 57
61 60 58
64 61 58
59 59 58
61 60 56
66 63 56
64 62 56
61 60 57
63 61 56
63 62 57
66 63 57
72 66 56
76 68 55
72 66 56
68 64 57
65 62 57
66 63 56
70 66 55
63 62 55
62 61 58
63 62 57
76 68 55
71 66 56
74 68 55
71 66 57
68 65 57
68 65 57
66 63 56
66 63 56
66 63 55
74 67 55
76 68 56
71 65 57
64 63 54
61 61 56
66 64 57
57 58 55
59 60 55
62 64 57
68 67 55
60 61 57
65 65 52
54 55 54
58 59 54
60 62 53
56 58 54
56 57 54
55 56 54
58 58 57
59 59 57
57 58 55
57 57 56
57 57 55
56 57 55
57 58 58
55 55 55
54 55 54
56 57 57
54 55 54
55 56 56
55 56 56
56 57 56
59 59 58
59 59 58
61 60 57
59 59 57
61 60 57
66 62 57
65 63 57
69 64 56
67 63 56
64 62 57
72 65 57
65 62 57
61 60 57
69 64 56
68 64 57
63 62 57
65 62 56
72 66 56
62 61 57
68 65 56
75 68 55
63 61 57
86 73 55
74 67 57
72 67 57
74 67 55
59 60 56
72 66 56
71 66 56
69 65 56
66 63 58
73 66 55
71 66 57
65 62 56
61 62 56
63 61 54
63 61 57
59 59 56
58 58 56
58 58 56
59 60 55
65 63 57
61 63 56
60 61 55
59 59 56
60 61 53
63 65 54
56 57 56
59 61 55
56 56 56
55 56 54
56 56 55
55 56 56
54 55 54
56 57 56
57 57 55
56 56 56
55 56 55
54 55 54
52 53 53
55 56 56
53 55 54
57 57 56
57 57 57
67 63 56
59 60 57
60 59 58
59 59 58
62 61 58
60 59 57
61 60 57
61 60 56
65 62 58
62 61 57
64 62 57
69 64 57
65 62 56
72 66 56
67 63 57
59 59 57
62 61 57
73 66 57
66 63 57
73 67 55
64 62 55
67 64 56
58 59 58
88 74 55
100 80 55
65 62 56
75 68 55
95 77 56
78 69 55
94 77 55
76 69 56
59 60 57
65 63 56
70 64 55
71 66 55
56 57 57
61 61 56
60 60 57
68 67 56
65 65 52
59 59 56
62 63 56
60 60 56
58 58 54
64 61 56
55 57 55
58 59 56
61 62 56
62 63 55
57 57 56
54 55 54
57 58 54
54 55 55
56 58 55
56 56 56
56 56 55
56 56 56
57 57 56
56 57 56
57 57 57
55 56 55
57 57 56
56 56 55
56 56 55
70 64 57
66 63 56
61 60 58
63 61 57
59 59 59
59 59 58
65 62 57
66 63 56
62 61 57
83 71 56
58 58 57
85 72 55
70 65 56
63 62 57
58 59 57
58 59 58
60 60 57
66 63 57
64 63 56
70 65 56
75 67 56
67 64 58
74 66 55
62 61 57
79 69 57
78 68 56
66 63 57
74 67 57
64 61 57
73 67 55
79 70 55
61 60 55
59 59 57
84 72 56
57 58 57
67 63 55
64 65 57
69 67 55
66 64 54
59 59 56
64 62 56
76 74 55
58 58 58
64 65 54
58 59 55
56 57 56
58 59 56
57 58 54
59 59 58
62 60 55
54 55 53
56 57 56
55 56 55
59 60 55
58 58 56
56 57 55
58 59 55
58 58 57
57 57 56
57 57 55
56 57 56
57 57 57
56 56 55
56 57 56
65 62 57
60 60 58
58 58 58
68 64 57
64 62 58
61 60 58
68 63 57
59 59 58
60 60 57
65 62 58
66 63 56
78 68 56
63 61 57
61 61 56
71 65 56
81 70 56
70 65 57
84 72 56
72 66 56
66 63 57
69 65 56
66 63 57
76 67 56
65 62 58
88 74 55
76 67 56
76 68 55
66 63 57
70 65 57
64 62 56
67 66 55
63 61 56
57 57 57
77 68 57
59 59 59
61 62 55
64 63 55
59 60 56
60 60 57
57 59 55
61 61 56
57 57 54
61 61 57
62 60 55
59 60 55
60 61 57
59 59 55
57 58 57
54 56 54
56 57 54
58 58 56
58 58 55
56 56 55
57 57 57
59 60 57
58 59 57
56 56 56
55 56 55
58 58 55
56 57 56
54 55 55
55 56 55
57 58 57
58 58 57
61 60 57
64 61 57
66 63 56
63 61 57
64 61 57
67 63 57
65 62 57
62 61 57
77 68 55
62 61 58
61 61 57
62 61 56
62 61 58
83 71 55
65 63 56
75 67 56
72 66 55
63 61 57
75 67 55
75 67 56
63 62 57
75 68 56
63 61 57
65 63 57
72 66 55
77 68 56
78 69 55
64 61 56
74 67 56
73 67 56
72 66 55
65 62 56
59 59 57
66 63 57
70 65 55
66 64 56
58 58 58
62 60 56
63 63 57
65 64 56
66 64 57
59 60 56
60 61 56
55 56 55
58 59 57
58 60 55
58 58 57
59 60 57
55 56 53
57 59 52
60 61 58
57 57 55
61 60 57
59 59 57
57 57 57
57 57 54
56 57 56
58 58 55
57 57 55
57 57 57
56 57 56
59 60 56
57 58 56
57 57 57
61 60 58
59 59 58
60 59 58
66 62 57
70 65 57
68 64 57
60 60 58
63 61 58
59 59 57
78 69 56
70 65 57
66 63 56
64 61 57
67 63 57
66 62 58
76 67 57
73 66 56
79 69 56
67 63 56
70 65 56
78 69 55
69 65 57
67 64 55
59 59 57
75 67 57
63 61 56
57 58 55
67 64 57
67 65 56
67 65 56
58 59 58
73 67 54
82 72 55
57 58 57
63 64 54
65 62 55
61 61 58
63 64 54
57 58 56
63 60 54
60 60 55
59 60 56
59 60 57
63 61 57
59 59 56
59 61 55
59 59 56
58 59 55
60 61 55
56 57 56
62 63 56
62 60 55
58 59 56
58 58 55
59 59 56
56 56 56
57 58 54
55 56 56
57 57 57
56 56 56
56 57 56
55 56 56
56 56 56
56 57 56
62 61 57
63 62 56
62 60 57
65 62 57
67 63 57
64 63 57
68 64 57
62 61 57
63 61 57
70 65 55
61 60 57
67 63 57
69 64 56
68 63 56
67 63 55
67 63 57
67 63 58
70 64 57
70 65 57
63 61 57
68 64 56
60 60 57
74 67 56
57 59 57
69 63 56
66 63 56
65 62 57
58 58 57
76 67 56
59 59 57
75 68 56
80 70 55
67 64 56
66 62 57
66 63 56
69 64 56
60 59 56
68 66 57
64 62 57
68 64 55
61 59 56
56 57 56
57 58 55
60 61 54
57 57 56
56 57 57
57 58 57
61 61 57
57 57 56
63 65 55
58 59 57
64 61 56
57 58 55
57 58 56
59 59 57
56 57 55
58 59 56
58 58 55
58 58 57
57 57 57
56 57 55
56 57 56
59 59 56
60 59 57
62 61 57
61 60 58
65 62 57
61 60 58
60 59 59
59 59 56
89 74 55
63 61 58
70 64 57
65 62 57
61 60 57
59 59 59
66 63 57
66 63 57
61 60 57
60 60 58
66 62 57
59 59 57
64 63 57
60 60 56
72 66 57
76 67 58
66 65 55
68 64 56
62 61 58
61 60 56
66 63 56
65 63 56
84 71 55
64 61 56
60 60 55
62 61 57
69 66 55
58 59 56
70 64 57
63 61 54
65 62 57
65 62 56
56 57 56
60 60 55
60 60 58
65 62 55
57 59 54
59 59 58
59 60 56
61 61 56
58 58 56
59 59 56
57 57 56
56 56 55
58 58 58
60 60 57
65 62 58
60 61 56
61 62 57
59 59 57
58 58 57
57 57 56
56 56 55
60 60 55
57 57 57
57 57 58
56 57 56
58 58 56
61 60 57
62 61 58
60 60 57
61 60 57
67 63 57
73 66 56
58 58 57
59 59 58
61 60 58
65 62 57
60 60 56
62 61 58
66 63 58
67 63 57
74 67 56
59 59 58
62 61 57
61 61 56
67 63 57
66 63 57
64 62 58
66 63 57
64 61 56
70 64 57
64 62 58
69 63 56
61 61 58
67 64 56
71 65 57
60 59 56
67 63 56
69 64 55
65 62 57
61 61 57
60 60 56
61 61 56
59 59 57
60 61 56
63 62 55
60 59 57
66 67 56
61 62 57
59 60 56
68 63 55
58 58 57
59 59 58
57 58 57
60 60 56
58 58 54
55 56 56
57 57 57
63 65 54
63 64 55
63 63 57
56 56 56
61 61 57
57 58 55
58 58 55
56 57 55
57 57 56
58 58 57
59 59 58
57 57 57
57 57 57
59 59 58
60 60 57
60 59 58
66 63 57
73 66 56
61 61 57
58 58 58
66 63 58
60 60 58
70 65 56
68 64 56
67 63 57
61 60 58
66 63 57
70 64 57
60 60 57
77 68 57
60 60 57
71 65 57
66 63 57
69 65 57
69 64 56
59 59 58
65 62 57
66 63 56
66 63 58
62 61 58
59 59 59
71 65 57
83 71 54
66 63 57
62 61 57
65 62 57
60 61 57
59 59 58
57 58 57
64 63 55
59 59 58
57 58 56
58 58 55
56 57 56
64 61 55
68 63 55
69 64 56
58 59 57
60 62 53
64 63 55
58 58 56
61 59 55
61 61 57
57 57 57
61 62 56
56 56 56
56 57 56
58 58 58
59 60 56
60 60 56
57 57 57
57 57 57
56 57 57
57 57 56
56 57 56
57 57 57
58 58 56
70 64 57
62 61 57
59 59 57
61 60 57
60 59 58
71 65 57
64 61 58
61 60 56
65 62 56
60 60 57
64 62 56
61 60 58
63 61 57
60 60 57
65 62 58
68 64 57
79 69 56
62 61 58
62 61 56
81 69 56
72 66 56
68 64 57
70 64 57
60 60 58
66 63 56
62 61 57
58 58 57
65 62 57
60 60 55
63 61 57
55 56 55
58 59 57
64 62 58
69 64 55
66 63 57
65 62 56
65 62 57
59 59 57
58 59 58
57 57 57
57 57 56
70 65 57
64 61 56
57 58 56
57 57 56
57 57 54
56 57 55
57 58 57
58 59 55
58 59 56
58 58 56
58 58 57
63 61 57
59 60 57
57 57 57
69 66 55
57 57 55
57 58 57
60 59 57
60 59 55
59 60 57
61 61 57
58 58 57
56 57 56
66 62 57
67 63 56
64 62 57
65 62 57
58 58 57
61 60 57
60 60 57
59 59 57
59 59 58
68 64 56
65 61 56
72 66 57
62 61 57
71 65 57
73 66 56
65 62 57
68 64 57
59 59 56
59 59 57
62 61 58
64 62 56
64 61 57
67 64 56
68 64 57
60 60 58
69 66 55
60 60 58
71 65 56
64 64 56
62 61 57
64 61 57
60 60 57
63 60 55
61 61 57
61 61 56
58 59 57
63 61 55
65 62 58
66 63 56
67 64 55
65 62 56
60 60 57
59 59 56
58 58 55
58 58 57
57 57 55
59 59 57
56 57 56
58 59 57
58 59 56
56 56 55
60 59 57
55 56 56
59 59 57
58 59 56
56 57 57
59 60 57
57 57 57
58 58 57
57 57 56
57 58 57
57 57 56
57 58 57
57 57 55
63 61 57
61 61 57
59 59 58
70 64 56
65 62 57
71 65 57
64 61 58
60 59 57
66 63 56
61 60 57
59 59 57
60 60 57
65 62 57
65 62 58
65 62 57
59 59 58
64 62 57
60 59 58
76 67 56
59 59 58
64 62 57
69 65 56
63 62 57
62 61 58
59 59 57
59 59 57
60 60 57
59 59 57
66 63 56
75 69 56
61 62 57
67 63 55
66 63 56
60 60 56
70 64 57
63 63 57
64 61 56
58 58 56
60 60 56
61 60 58
57 58 57
57 58 57
66 63 56
60 60 55
58 58 57
58 58 57
57 57 57
65 62 57
58 58 57
57 58 54
59 59 57
57 57 57
56 57 55
57 57 57
65 63 56
56 57 56
60 61 57
58 58 56
57 58 57
61 62 56
57 57 56
58 58 57
57 57 57
60 59 57
