P3
# Rays 2018
64 64
255
58 58 59
59 59 61
58 58 60
58 58 59
59 59 61
59 59 60
59 59 62
59 59 62
59 59 64
60 59 64
60 59 76
61 59 73
59 59 62
63 60 91
60 59 67
61 61 73
60 60 75
60 60 66
59 59 69
63 60 88
61 60 65
60 60 68
61 60 77
60 61 69
60 60 70
61 62 81
60 60 74
61 61 74
61 60 69
61 61 77
60 60 65
61 61 75
58 59 74
61 61 77
58 62 69
56 59 63
59 62 85
58 59 64
58 59 65
61 61 77
58 59 66
55 57 61
57 58 61
57 60 62
57 59 60
55 58 59
57 59 60
56 58 58
56 58 59
55 58 60
57 58 58
57 61 60
55 57 59
58 58 60
55 57 58
55 57 58
58 58 60
57 58 59
59 59 60
59 59 61
57 58 59
59 59 63
58 58 60
58 58 60
58 58 60
59 59 62
59 59 60
59 59 60
59 59 61
59 59 61
59 59 61
59 59 61
60 59 66
59 59 64
60 59 75
63 61 84
61 60 75
60 59 68
60 60 67
59 60 66
60 59 70
60 60 74
60 59 78
61 60 70
59 59 66
60 59 73
59 59 62
63 61 79
62 60 83
58 61 65
59 59 70
60 60 69
61 60 72
60 61 73
61 60 70
61 60 76
60 60 71
59 60 65
59 61 71
59 60 73
57 59 62
58 59 68
59 60 66
58 59 66
56 58 65
57 59 61
58 60 62
59 60 61
58 59 67
57 58 59
58 59 60
56 58 64
58 60 62
57 59 59
56 58 59
54 58 58
56 58 58
57 58 58
56 58 59
58 59 59
56 58 58
58 58 58
57 58 59
57 58 58
58 59 59
57 59 60
58 59 59
58 59 61
59 59 62
58 58 60
59 59 59
58 59 60
59 59 62
58 58 60
60 59 62
58 59 61
58 58 59
59 59 65
60 59 68
61 60 75
61 59 75
61 60 78
60 60 69
62 60 75
60 59 76
62 60 73
60 60 70
61 60 71
61 60 68
60 60 71
61 60 70
61 60 70
61 60 66
60 59 76
60 59 70
58 59 61
61 61 72
61 60 79
62 61 73
60 60 71
62 61 76
61 61 71
59 60 71
59 60 70
59 60 65
57 60 63
60 60 70
60 60 75
58 59 67
58 60 67
56 59 59
55 58 58
58 59 60
58 59 61
56 58 60
56 59 59
55 57 58
57 59 59
58 59 60
56 58 59
56 59 59
56 58 58
55 58 58
57 58 58
58 59 59
59 59 59
58 59 59
58 58 60
59 58 65
58 58 59
59 59 66
58 58 58
59 59 61
58 59 60
58 58 59
58 58 60
58 59 60
59 59 61
58 59 60
58 58 60
58 58 59
59 59 62
59 59 66
60 60 70
61 60 71
61 60 73
59 59 70
61 60 80
61 60 72
62 60 84
60 59 67
61 60 69
61 60 79
61 60 71
60 62 71
61 60 74
61 63 75
61 60 70
61 61 77
63 62 83
61 61 71
61 61 66
60 61 70
61 60 77
60 60 74
62 61 76
59 60 75
58 60 65
60 60 70
56 58 64
60 60 70
60 60 68
59 60 74
58 59 61
57 59 64
58 60 61
56 58 59
56 58 59
56 60 61
57 59 59
58 60 61
57 59 65
56 58 58
56 58 59
55 57 64
55 57 58
56 59 59
57 58 58
58 58 59
57 59 59
58 58 61
59 59 60
58 58 59
58 58 59
58 58 59
59 59 61
59 59 62
59 59 60
59 60 63
58 59 61
58 58 58
59 59 65
59 59 62
58 58 59
58 58 60
59 59 62
59 59 61
60 59 75
60 59 73
61 60 76
60 59 64
60 60 73
61 60 74
59 59 66
61 60 83
61 60 68
60 62 70
63 61 82
62 61 74
58 61 64
62 60 74
60 60 66
59 59 64
60 60 69
59 59 61
62 62 72
60 60 71
61 60 82
59 60 67
58 59 67
58 58 73
60 63 79
59 61 64
59 60 72
57 59 67
58 60 66
59 59 61
59 60 62
56 58 59
56 58 59
57 59 59
58 61 60
57 59 59
58 59 60
54 60 59
56 61 59
56 58 58
58 59 61
56 58 58
55 58 58
57 59 59
58 58 60
58 58 61
59 59 60
58 58 60
57 58 58
58 58 59
58 59 59
59 60 60
59 59 59
58 59 59
58 59 59
59 60 60
59 59 61
58 61 60
59 59 60
58 58 59
59 59 62
59 59 60
58 58 59
58 58 59
59 59 63
60 59 68
61 59 78
61 60 79
61 60 78
61 59 77
60 60 73
61 60 68
62 60 73
60 60 63
62 61 81
63 61 101
62 61 70
59 60 67
59 59 70
60 60 64
60 60 67
63 62 76
60 60 74
60 60 71
59 62 65
59 60 62
60 60 75
59 60 72
58 59 64
59 60 75
58 60 69
57 59 61
57 59 61
58 59 66
55 57 60
58 59 65
56 58 58
59 61 61
57 58 60
56 58 58
58 59 59
57 58 59
57 59 60
56 58 58
55 58 58
57 58 59
57 58 59
58 58 62
57 58 58
59 59 61
58 59 59
59 59 65
58 59 59
58 58 60
58 58 59
58 60 62
58 59 59
58 59 59
58 58 61
58 59 59
58 59 59
59 59 62
58 59 59
59 59 62
59 59 60
58 59 62
59 59 60
58 59 60
59 59 60
59 59 62
60 59 75
61 60 75
59 60 69
60 59 67
62 60 81
61 60 76
61 60 81
61 60 73
62 62 82
61 62 72
61 60 81
61 60 70
62 61 76
62 61 74
60 60 68
60 60 71
61 63 68
59 59 63
61 61 69
59 60 73
57 59 65
60 60 71
58 60 60
62 64 73
59 60 70
58 60 62
58 59 67
57 59 60
57 59 65
58 59 60
56 58 58
56 58 59
56 59 60
56 59 59
56 58 58
58 59 60
56 57 59
56 58 58
55 58 58
57 58 58
57 58 59
57 58 59
58 59 59
58 59 59
58 58 59
58 58 58
57 59 59
59 59 64
58 58 59
58 58 60
59 59 60
58 59 59
59 59 59
58 59 60
59 59 61
59 59 60
58 58 59
58 59 59
58 58 60
58 59 61
59 59 62
59 59 59
58 59 60
58 58 60
59 59 66
60 59 66
60 59 71
62 60 78
60 59 68
61 61 78
61 60 79
61 60 73
60 60 75
62 60 74
60 60 67
60 60 69
61 60 77
61 60 70
62 61 75
60 59 73
63 62 88
62 61 77
58 59 65
60 60 63
62 61 77
61 61 73
61 61 77
59 60 63
59 60 67
59 60 64
58 60 62
59 60 62
57 59 61
58 59 61
54 57 58
56 59 59
57 59 59
57 58 59
57 58 61
56 58 58
57 59 59
55 56 57
57 58 59
58 58 59
57 59 59
59 59 59
58 59 59
57 58 59
58 59 59
58 59 60
58 59 60
58 59 59
58 58 60
59 59 61
59 59 60
59 59 61
58 59 60
59 59 62
57 58 58
59 59 61
59 59 59
58 58 62
59 59 62
59 59 61
58 59 60
58 59 59
59 59 62
59 59 60
59 59 67
60 59 67
60 59 68
61 60 79
60 59 69
61 60 78
61 60 75
59 59 67
61 60 71
60 60 66
61 60 73
60 61 66
60 60 69
61 60 73
62 60 75
62 61 70
62 61 81
59 60 63
61 60 77
59 60 69
60 60 72
60 60 74
63 62 78
60 61 63
61 61 68
59 60 63
58 60 60
58 60 61
58 59 60
57 59 60
56 59 64
57 59 60
57 59 59
55 58 58
57 58 58
57 59 59
56 58 58
58 59 59
58 58 60
58 59 60
58 58 58
58 58 61
59 59 60
57 58 59
59 59 60
58 58 59
58 59 59
58 59 60
59 59 63
59 59 62
59 59 60
58 59 60
59 59 61
59 59 60
59 59 61
59 59 61
58 58 61
59 59 60
58 59 60
58 59 61
59 59 61
58 59 60
58 58 58
59 59 62
59 59 62
59 59 62
61 59 76
59 58 63
60 61 73
62 60 85
62 60 87
62 61 81
62 61 89
60 59 67
61 60 79
62 60 79
60 60 68
61 61 66
61 60 67
62 61 85
61 61 76
61 61 68
61 61 69
59 60 60
61 61 64
61 60 64
59 60 62
62 62 71
57 58 60
59 60 61
59 60 62
59 60 61
57 59 60
58 59 65
57 59 59
58 59 60
57 58 60
56 58 59
58 59 59
54 57 58
56 58 58
58 59 60
58 58 60
58 58 59
58 59 59
58 58 60
58 58 59
59 59 61
58 58 59
58 58 60
57 58 58
59 59 60
58 59 59
60 59 64
59 59 61
58 59 60
58 60 61
59 59 59
58 58 60
58 59 59
59 59 66
59 59 59
59 59 66
58 58 59
59 59 60
59 59 62
59 59 60
59 59 61
59 59 60
59 59 62
60 59 64
60 59 80
61 60 77
64 61 98
60 59 73
61 60 75
59 59 65
61 60 83
61 59 75
61 60 73
61 60 72
61 61 68
61 61 64
62 61 74
61 61 63
63 62 77
61 61 66
62 61 78
60 61 63
62 62 77
60 60 72
61 61 77
57 59 60
58 59 61
57 59 60
57 60 60
57 59 59
55 58 58
58 59 59
57 59 59
56 58 58
58 59 59
59 59 60
55 57 57
58 59 59
58 58 59
58 58 60
59 59 60
58 59 59
59 59 61
59 59 61
58 59 59
58 59 59
59 59 59
58 58 59
59 59 60
59 59 60
58 59 60
58 59 60
57 58 59
58 59 60
59 59 60
58 59 59
59 59 60
59 60 62
59 59 60
59 59 62
59 59 61
59 59 59
58 58 60
59 60 61
59 60 62
59 59 62
59 59 61
60 59 67
60 59 73
62 60 83
62 60 80
60 60 72
62 60 78
61 60 75
61 60 70
62 60 83
61 60 76
61 60 77
62 61 76
61 60 70
62 61 73
62 60 77
62 61 81
61 60 69
62 61 72
60 60 68
62 61 80
62 61 75
58 60 68
58 59 60
59 60 60
60 61 67
57 59 60
57 59 59
57 58 59
57 59 59
57 58 59
56 58 59
58 59 59
56 58 59
58 59 59
58 58 59
58 59 60
57 58 59
57 58 58
58 58 58
59 59 61
59 59 59
59 59 61
59 59 61
58 59 60
59 59 60
58 59 60
58 58 59
59 59 60
59 59 61
60 60 62
60 60 62
59 59 61
59 59 61
60 59 62
59 60 66
59 59 61
59 59 61
59 59 61
59 60 61
58 59 59
58 59 59
58 59 59
59 59 62
58 59 59
59 59 60
59 59 61
59 59 67
60 59 73
60 59 69
59 59 62
59 59 65
60 59 63
60 59 62
60 59 66
60 59 65
60 59 64
60 59 67
60 60 70
61 60 68
59 59 61
60 59 65
60 60 65
58 59 61
60 60 67
59 60 61
59 60 68
59 60 60
57 58 59
59 59 61
58 59 59
58 59 59
58 59 59
59 59 59
57 58 59
57 58 58
58 58 58
58 58 59
58 58 58
58 58 59
59 59 60
58 59 59
59 59 59
58 59 60
59 59 59
58 59 60
58 58 59
59 59 61
59 59 61
59 59 61
58 59 61
58 58 60
58 59 60
60 60 69
58 59 61
59 59 63
59 59 62
57 59 60
60 60 67
59 59 62
58 58 62
58 59 59
59 59 60
58 58 60
58 58 59
58 58 59
58 58 60
59 59 60
59 59 59
58 58 59
59 58 60
59 59 60
58 58 60
60 59 66
59 59 60
59 59 62
58 58 59
59 59 62
59 59 65
58 58 61
59 59 59
59 59 59
58 58 59
58 59 59
59 59 60
59 59 62
59 59 63
58 59 60
59 59 61
59 59 62
59 59 60
59 59 60
59 59 65
57 58 58
57 58 58
58 59 59
58 58 58
58 58 58
58 58 58
59 59 60
58 58 58
58 58 58
58 58 59
58 58 58
59 59 60
59 59 60
59 59 59
58 59 59
58 58 59
59 59 60
58 59 59
57 60 59
59 59 65
59 59 64
59 59 61
57 59 59
59 59 59
59 59 62
59 59 61
59 60 61
59 59 64
59 59 61
58 59 61
59 59 61
59 59 61
58 58 62
60 60 63
59 59 60
60 59 60
58 58 59
59 59 60
59 59 59
59 59 62
58 59 60
59 59 60
59 59 59
58 58 58
59 59 60
59 59 60
58 58 60
58 59 60
59 59 61
58 58 59
59 59 61
58 59 60
59 59 60
58 59 60
58 59 60
59 59 61
59 59 63
59 59 62
58 59 60
59 59 61
58 59 60
59 60 60
58 58 59
58 58 59
57 58 58
58 58 58
58 59 59
58 58 58
57 58 58
59 59 59
58 58 59
58 58 58
58 58 58
59 59 60
59 59 59
57 59 59
58 59 59
58 59 59
59 59 59
59 59 59
59 59 61
58 59 60
58 59 60
59 59 60
59 59 61
60 60 64
59 59 64
59 59 62
58 59 61
59 59 66
61 60 70
59 62 68
60 60 65
59 59 61
58 59 60
59 60 61
59 59 59
59 59 61
59 59 60
60 59 66
59 59 60
59 59 61
58 58 59
59 59 61
59 59 59
59 59 60
58 58 59
58 58 59
58 58 60
59 59 65
59 59 64
59 59 60
59 59 60
58 58 62
59 59 61
59 59 61
59 59 62
58 58 60
59 59 59
59 59 68
58 58 60
58 59 59
59 59 62
58 59 60
59 59 61
57 58 59
59 59 60
58 59 60
58 59 60
58 59 59
58 58 59
58 58 58
57 58 58
58 58 58
58 58 58
59 59 59
59 58 61
59 59 59
59 59 59
59 59 59
59 59 59
59 59 62
59 59 60
58 59 60
59 59 61
58 58 61
60 60 62
58 58 60
58 59 59
60 60 62
59 59 60
58 59 60
59 60 60
59 59 61
58 62 61
60 60 67
59 59 63
59 60 62
59 59 66
60 60 63
60 61 67
58 59 59
59 59 61
59 59 62
60 60 65
59 59 67
59 59 60
59 59 61
59 59 60
59 59 60
59 59 61
59 59 60
58 58 61
59 58 61
59 59 62
59 59 63
59 59 60
59 59 59
59 58 60
58 58 60
58 58 59
59 59 60
59 59 59
58 58 61
60 59 65
58 58 59
58 59 60
59 59 60
58 58 59
59 59 60
57 59 59
58 61 61
58 58 61
59 59 61
59 59 61
59 59 59
58 58 59
58 58 58
58 58 58
58 58 58
58 58 58
59 59 60
58 59 59
59 59 60
59 58 60
59 59 61
58 59 60
59 59 62
59 59 59
59 59 60
59 59 61
58 59 60
59 59 62
59 60 60
59 59 61
59 59 61
60 60 61
60 60 63
60 60 64
60 60 63
59 59 64
58 60 62
58 59 59
60 60 63
59 60 60
59 60 61
58 59 61
58 59 59
59 59 61
59 59 60
59 59 62
59 59 61
59 59 60
59 59 59
58 58 59
59 59 60
58 59 60
58 58 60
58 58 59
58 59 59
58 58 58
58 58 60
60 59 64
60 59 66
59 59 61
59 59 61
59 59 61
58 58 60
59 59 66
58 58 59
58 58 59
58 59 62
58 59 59
58 58 59
58 58 59
59 59 61
59 59 60
59 59 61
58 58 60
57 62 61
58 58 60
58 58 58
58 59 60
58 58 60
57 58 59
59 59 60
59 59 61
59 59 59
59 59 59
59 59 60
58 58 59
60 60 64
60 59 62
59 59 61
59 59 63
60 60 66
60 60 61
60 60 62
60 60 61
59 59 61
59 59 63
59 59 62
58 59 61
59 59 61
59 60 60
58 58 62
59 60 63
60 60 61
59 60 62
59 60 61
59 59 67
59 59 60
59 59 60
59 59 63
59 59 59
59 60 60
59 59 59
59 59 59
58 58 62
59 59 60
59 59 66
58 58 60
58 59 60
59 59 61
58 58 60
58 58 59
58 58 60
59 59 59
58 58 60
58 58 59
59 59 65
58 60 62
58 58 59
58 58 60
58 59 59
59 59 61
59 59 59
59 59 60
58 58 58
57 58 58
58 59 59
59 59 59
58 58 59
58 58 58
58 58 59
57 58 58
58 59 59
58 59 59
58 58 58
59 59 59
58 59 60
59 59 60
59 59 59
59 59 61
59 59 61
59 59 59
58 59 60
59 59 59
59 60 60
59 59 60
59 59 60
58 59 59
59 60 61
58 59 59
60 59 74
60 60 71
59 60 61
58 59 62
60 59 67
59 59 61
59 59 60
59 61 66
60 60 62
60 60 66
59 59 63
59 59 61
59 61 61
59 60 62
59 59 60
58 60 60
59 59 65
59 59 60
59 59 60
59 59 61
59 59 60
59 59 60
59 59 59
59 59 61
59 59 61
59 59 60
59 59 62
58 59 60
59 58 60
58 58 60
59 59 61
59 59 60
58 58 61
58 59 60
59 59 61
58 59 60
58 59 59
58 59 59
58 58 60
58 59 60
59 59 61
58 58 60
58 58 59
57 59 58
58 59 59
58 59 60
58 58 59
58 59 60
59 59 59
58 59 59
58 59 59
58 59 60
59 60 60
59 59 59
60 60 61
60 60 61
59 59 60
59 59 62
60 60 61
60 60 64
60 60 61
59 60 61
59 60 61
58 59 60
58 59 60
59 60 63
59 59 69
59 60 62
59 60 63
60 60 64
59 60 62
59 60 66
60 60 63
61 63 66
59 59 63
61 61 63
59 60 62
59 59 62
60 60 62
59 59 62
60 60 62
58 59 59
59 59 59
58 59 59
58 58 60
60 59 68
58 59 60
59 59 60
58 58 59
59 59 59
58 61 62
59 59 67
59 59 61
59 59 59
59 59 59
59 59 60
58 59 59
58 58 59
58 58 60
59 59 61
59 59 66
58 58 59
58 58 59
59 59 59
58 58 59
59 59 59
58 59 59
58 59 59
58 58 59
58 59 59
58 59 59
58 58 58
58 59 59
59 59 59
58 59 59
59 60 60
59 60 60
59 59 61
59 59 60
59 59 61
58 59 60
60 60 60
59 60 60
59 60 60
59 60 60
58 59 60
61 60 75
56 58 60
59 59 61
60 61 66
60 60 71
58 60 61
60 60 66
59 60 62
60 60 62
58 59 61
60 60 61
59 62 63
59 59 62
60 60 63
61 61 65
60 60 63
59 59 60
59 59 61
61 60 64
60 60 62
59 59 60
58 58 59
58 58 59
59 59 60
58 59 59
58 58 60
59 59 62
58 58 59
59 59 60
59 58 61
58 59 59
60 59 68
59 59 59
59 59 62
59 59 60
60 59 62
58 58 59
60 59 65
59 59 60
58 59 59
58 59 60
59 59 60
59 59 60
58 59 59
58 59 59
58 58 58
58 58 61
57 58 59
57 58 59
58 59 59
57 61 60
58 58 59
59 60 60
58 59 59
61 60 62
59 60 60
60 60 60
58 59 61
60 60 62
59 59 62
59 59 60
59 60 60
60 60 64
58 59 61
58 59 61
58 59 60
59 60 63
60 60 66
59 59 62
57 58 60
59 60 62
60 60 63
58 60 63
59 59 61
59 60 66
60 60 64
59 60 61
61 61 65
61 61 64
61 60 64
61 61 62
60 61 61
61 61 63
60 60 61
59 59 59
60 59 67
59 59 61
59 59 60
59 59 62
59 59 62
60 59 67
59 58 68
59 59 61
59 59 62
59 59 62
59 59 61
59 60 61
59 59 60
59 59 59
59 59 63
59 59 63
59 60 60
59 59 63
58 59 59
59 59 59
58 59 59
58 59 59
59 59 61
58 59 59
58 59 59
58 58 58
58 59 59
59 59 59
58 59 60
59 59 59
59 59 60
60 60 60
60 60 60
59 60 60
59 60 60
60 60 60
60 60 61
60 60 61
59 62 61
58 59 59
60 60 60
58 59 60
59 59 66
59 60 62
58 59 61
58 59 61
60 60 68
58 61 66
62 61 74
59 59 62
59 59 64
60 60 64
61 60 71
61 60 71
60 59 71
59 62 66
61 61 70
61 61 64
61 60 70
61 60 63
62 62 65
60 60 62
61 61 67
59 59 61
59 59 61
59 60 63
60 59 71
59 59 60
57 59 59
59 59 62
59 59 62
59 59 62
59 59 61
59 59 64
59 59 60
59 59 65
61 61 73
59 59 59
60 60 67
59 61 61
61 61 62
60 60 61
61 62 62
60 61 60
60 60 63
58 60 60
58 59 60
59 59 60
58 59 60
57 58 58
58 59 59
58 59 59
58 59 59
58 59 59
59 60 60
59 60 61
61 61 62
59 60 60
60 61 62
60 61 62
60 61 62
58 59 60
60 60 61
59 59 60
59 59 62
59 60 62
59 60 61
59 60 64
57 58 59
59 59 68
58 61 60
61 60 66
60 60 76
60 60 68
60 61 64
60 62 70
59 59 65
61 60 73
61 61 70
61 61 70
60 60 64
60 60 63
61 61 71
60 60 63
61 61 70
61 61 64
61 60 68
59 59 60
59 59 63
60 59 67
60 59 70
59 59 62
59 58 61
58 59 61
59 59 61
59 59 68
60 59 65
59 59 61
59 59 59
60 60 68
59 60 60
62 62 64
65 64 67
69 69 71
70 70 70
69 69 71
68 69 69
68 68 68
64 64 64
60 60 61
58 59 59
59 60 59
58 59 61
59 59 60
58 58 59
58 59 59
57 58 58
59 59 60
59 59 59
60 60 61
59 60 60
61 61 62
60 61 62
59 60 60
59 61 62
58 60 60
59 60 61
57 59 60
58 62 61
57 58 60
59 59 63
57 58 63
58 60 62
58 59 66
61 61 75
58 58 61
59 59 69
60 60 68
60 60 68
61 61 73
61 60 71
61 63 81
60 59 75
59 60 71
61 63 76
60 64 72
61 64 75
61 61 66
62 61 68
61 60 65
60 60 62
60 59 63
59 59 61
59 59 61
58 59 63
59 59 63
58 59 60
59 59 64
59 59 68
59 59 63
59 59 63
61 60 71
59 60 60
61 60 65
64 63 67
66 66 68
70 70 70
72 72 72
75 75 81
73 73 75
71 72 73
74 75 76
69 70 70
66 67 68
61 62 62
57 59 59
58 59 59
58 59 59
57 59 60
57 58 58
57 59 59
59 59 59
58 59 59
59 60 60
59 60 61
60 61 61
59 61 61
61 61 62
58 60 60
58 59 60
58 60 61
58 60 61
59 61 66
58 59 59
56 58 61
58 61 66
57 59 60
57 59 61
57 61 63
57 58 68
59 59 62
60 61 67
61 61 76
63 60 90
60 60 69
58 60 69
62 61 82
62 62 72
61 60 72
61 61 69
60 60 66
61 61 70
61 60 81
63 62 75
64 62 86
61 61 69
60 60 70
60 60 67
59 59 63
60 60 69
60 59 77
60 59 69
61 59 79
59 59 62
61 60 75
60 60 70
60 60 67
63 63 66
70 69 71
72 72 74
71 72 72
72 73 73
73 73 74
72 72 73
73 73 73
72 72 73
71 71 71
71 71 71
68 69 70
60 61 61
57 59 59
58 59 60
57 58 60
57 58 58
56 58 58
56 58 58
59 60 60
60 61 61
58 60 60
59 61 61
58 61 61
58 60 61
57 59 60
57 59 60
54 57 58
56 59 60
55 58 59
56 58 59
57 59 63
58 62 62
58 59 66
58 60 64
58 59 72
59 60 65
59 60 67
61 61 74
61 60 85
62 61 83
62 61 86
63 61 91
62 61 71
61 61 78
61 64 68
61 61 69
61 60 74
62 63 76
63 62 75
63 62 79
63 62 77
60 60 68
59 59 64
60 59 67
60 61 80
61 60 70
60 59 70
59 60 67
59 59 63
60 61 72
62 60 77
64 61 97
63 63 64
69 69 69
73 73 73
72 72 72
72 72 72
72 72 72
72 72 72
71 72 72
72 72 73
71 72 72
73 73 73
73 73 73
70 70 70
67 68 68
57 59 60
55 58 58
56 58 60
56 58 59
58 59 59
57 59 59
58 59 60
58 60 60
59 61 61
59 60 61
58 61 63
56 59 60
55 59 60
55 58 60
57 60 61
55 58 60
58 60 67
56 60 60
57 59 60
54 57 58
54 58 59
57 58 71
61 63 82
58 59 65
60 61 68
57 59 63
61 60 76
62 61 77
65 62 103
61 60 82
62 60 80
64 63 85
64 62 88
63 62 99
66 63 95
62 61 71
65 63 89
64 62 85
64 62 81
61 60 69
60 59 65
63 60 81
60 60 72
61 60 73
62 60 82
60 60 71
62 60 83
62 60 84
62 60 81
64 62 81
65 64 72
72 73 73
73 73 74
72 72 72
72 72 72
71 72 72
73 73 73
72 72 72
72 72 72
71 71 71
71 71 71
72 73 73
73 73 73
69 70 71
61 63 63
57 58 59
54 59 59
54 57 58
54 57 59
56 58 58
59 60 60
59 61 61
55 60 60
55 61 61
56 59 60
58 61 61
56 60 60
58 60 62
54 59 59
54 57 59
56 58 60
56 58 59
53 57 58
55 59 69
56 58 61
56 59 66
59 65 69
60 61 74
58 60 63
63 61 89
64 63 85
64 62 110
63 62 94
60 60 75
64 61 94
67 63 124
62 63 86
62 61 82
65 62 105
66 63 106
65 63 89
65 63 85
63 61 76
61 60 75
61 60 73
61 60 75
61 60 71
63 61 87
65 61 99
61 59 79
59 59 67
65 61 97
63 61 88
66 63 94
71 69 90
75 75 77
73 73 73
71 72 72
72 72 72
72 72 72
72 72 72
73 73 76
71 72 73
72 72 73
72 72 72
72 72 72
73 73 74
72 73 73
63 65 65
54 61 60
55 58 58
53 57 57
52 57 57
54 58 58
55 59 59
54 59 59
56 60 60
55 60 60
52 58 59
54 59 60
53 58 58
54 59 61
52 57 58
53 60 60
55 61 64
54 57 60
54 58 61
55 58 59
57 59 60
54 57 58
58 60 66
60 63 79
59 60 72
60 61 75
60 60 75
60 60 77
60 59 79
67 63 118
64 62 96
63 61 92
64 62 97
66 63 100
67 63 109
67 63 99
67 64 97
66 63 92
64 62 81
60 60 67
62 60 87
61 60 74
62 61 81
66 62 116
67 62 117
65 61 103
64 61 109
69 63 132
64 62 97
67 65 99
72 71 90
74 74 77
73 74 75
71 71 71
71 71 73
72 72 73
72 72 72
71 71 72
71 72 72
72 72 73
71 72 72
72 72 72
74 74 74
69 72 72
62 66 66
53 59 59
49 56 56
49 56 56
51 57 57
53 58 58
56 59 60
58 61 61
52 58 59
47 56 57
46 55 56
51 58 59
51 57 57
50 57 57
51 56 57
51 56 59
53 57 62
51 60 60
52 59 65
57 62 69
54 58 59
53 56 58
60 60 75
59 59 73
59 59 70
59 60 74
62 61 88
64 64 103
61 59 95
66 62 107
64 64 104
66 63 106
66 62 110
66 62 110
66 63 112
70 64 135
68 63 105
66 63 87
66 62 94
63 61 80
62 60 80
62 60 83
61 60 80
66 62 113
71 63 170
72 65 173
70 63 151
69 63 140
73 65 153
68 65 100
73 71 102
74 73 89
73 73 73
73 73 73
72 72 72
73 72 77
71 72 72
70 71 72
70 71 74
72 73 73
71 72 72
71 72 72
71 73 73
70 72 73
55 64 65
46 57 57
40 51 53
33 47 48
29 46 48
32 47 49
39 50 51
45 55 56
50 57 58
43 54 55
46 55 56
45 55 55
47 56 56
50 56 58
50 55 62
53 58 59
51 56 65
54 57 63
53 56 58
48 57 57
58 60 72
56 58 63
58 59 69
61 60 75
61 60 72
57 59 67
60 61 85
61 62 85
64 61 103
64 61 103
66 63 108
64 63 101
69 64 142
69 64 132
72 65 150
70 64 122
72 65 145
70 65 113
66 63 91
64 61 94
63 61 83
63 60 96
66 62 120
79 66 255
105 76 255
111 78 255
96 72 255
89 72 255
71 64 166
75 67 152
84 76 152
82 76 138
72 72 74
73 73 73
72 72 72
72 73 73
71 71 73
72 72 73
72 73 73
70 71 71
70 71 71
72 72 73
69 73 72
60 68 68
43 59 60
36 51 53
17 40 42
12 37 39
7 34 36
10 35 37
13 36 39
26 44 45
40 53 54
39 53 54
37 52 53
40 53 53
43 54 56
46 54 57
46 54 56
44 52 57
47 57 59
47 59 58
54 59 62
54 58 60
53 56 66
53 57 71
58 59 66
59 63 71
61 60 90
59 59 64
63 64 90
64 61 102
64 62 94
66 62 114
65 63 103
68 63 132
66 65 120
72 65 145
67 64 106
69 64 111
70 64 124
71 65 126
67 63 93
63 60 86
63 60 83
67 62 110
93 71 255
122 82 255
127 84 255
139 88 255
131 86 255
122 83 255
98 75 255
74 66 160
87 75 240
90 79 180
74 73 82
66 69 70
71 72 73
72 72 72
71 72 72
68 71 70
70 74 73
67 86 76
69 74 72
70 71 72
65 69 70
51 65 67
39 57 59
21 42 45
9 36 39
7 33 36
7 33 36
8 35 39
7 34 36
9 34 36
19 41 43
28 47 48
33 49 51
31 48 50
34 49 51
38 50 53
40 51 54
47 54 56
44 53 55
46 53 55
51 56 60
55 57 72
50 55 60
54 60 60
58 58 67
58 59 70
58 59 69
65 63 99
61 61 87
62 61 92
62 61 80
62 60 93
66 61 121
67 62 121
70 64 136
69 63 133
67 62 114
75 65 165
71 65 124
70 64 116
67 63 101
64 62 86
61 60 72
81 67 255
116 80 255
133 86 255
131 85 255
131 85 255
134 87 255
139 91 255
127 85 255
85 70 255
81 71 181
88 79 180
75 73 121
61 68 71
58 65 69
63 67 70
70 70 71
66 65 68
60 80 73
63 90 76
64 70 70
57 60 66
52 58 64
46 61 63
32 52 54
13 37 40
7 32 36
7 33 37
8 34 37
8 36 38
7 33 36
8 35 37
9 34 36
19 41 43
24 46 48
27 47 48
29 46 49
35 48 51
37 48 52
46 53 55
45 55 65
46 55 55
48 58 60
53 62 65
53 61 64
51 58 58
58 61 77
60 59 83
60 60 74
63 61 96
63 61 90
65 63 111
64 61 109
62 62 108
63 62 88
65 63 116
67 65 119
72 65 158
72 66 154
72 64 146
69 64 115
69 64 121
65 62 90
62 60 78
62 60 79
81 67 255
119 81 255
130 85 255
129 86 255
134 86 255
123 82 255
139 89 255
114 81 255
88 71 255
73 64 177
75 70 160
69 69 122
50 61 73
49 61 67
58 65 68
70 71 72
64 64 68
64 69 70
66 76 73
55 58 65
43 50 62
44 54 61
39 52 56
23 40 48
10 32 37
6 31 35
5 32 34
7 33 37
7 36 37
8 36 39
8 38 38
6 32 35
16 39 41
24 45 47
28 47 49
32 48 50
37 49 52
39 51 52
40 50 55
44 52 54
45 55 55
48 55 56
50 59 59
51 55 60
52 59 66
59 59 67
59 59 65
61 61 83
60 62 80
61 60 76
62 59 97
66 65 101
68 63 127
62 61 81
65 62 103
67 62 123
66 61 111
70 63 133
75 66 177
73 65 133
71 64 124
67 62 104
62 60 73
62 60 74
82 67 255
112 79 255
130 85 255
130 86 255
135 86 255
126 83 255
120 82 255
114 80 255
69 63 230
44 47 113
30 39 72
33 43 63
51 59 74
55 64 71
57 65 69
69 70 72
70 71 72
70 71 72
66 69 71
58 62 67
51 58 64
42 51 57
24 33 44
15 25 36
8 21 32
5 23 31
6 29 33
7 33 36
8 34 36
8 35 38
9 35 38
9 36 39
16 41 43
22 45 47
24 45 47
28 45 49
34 47 51
39 50 54
40 52 53
48 55 56
48 55 62
46 59 59
48 54 56
49 55 60
52 56 60
63 61 86
62 60 83
59 59 67
58 59 71
63 61 94
63 61 89
64 62 98
66 62 115
72 65 149
65 62 103
67 62 123
69 63 129
69 63 128
67 62 109
69 63 117
68 63 115
65 61 90
60 59 68
61 59 70
69 62 187
101 74 255
123 83 255
129 85 255
134 86 255
128 84 255
109 78 255
94 72 255
53 51 194
12 28 50
4 21 35
7 25 41
31 42 51
57 61 73
69 72 75
72 73 77
74 75 75
71 73 75
71 72 73
69 71 73
55 60 63
29 36 45
9 14 30
6 13 29
6 14 28
6 17 29
5 25 31
6 31 36
8 35 37
7 33 36
7 34 36
15 39 40
21 43 45
25 46 47
26 46 48
26 45 47
33 48 50
42 52 54
42 52 54
45 52 60
47 58 57
46 54 56
45 55 56
52 55 69
53 57 76
59 60 65
58 62 73
63 64 82
62 61 85
63 61 93
63 61 97
63 61 103
66 63 122
67 62 121
65 61 111
69 63 125
68 63 114
64 60 107
69 63 132
63 60 88
65 61 98
62 60 80
61 60 70
64 61 95
65 61 94
83 68 255
111 78 255
131 86 255
128 85 255
134 87 255
104 76 255
79 68 222
38 44 81
4 22 36
4 22 37
4 22 37
22 36 47
52 58 64
70 71 74
70 72 72
73 73 75
72 72 72
70 71 71
63 66 67
52 56 63
26 31 42
6 11 28
7 14 30
7 13 29
7 16 29
6 26 33
6 32 35
6 31 35
9 34 37
15 38 40
30 47 48
33 49 51
30 48 50
30 48 49
31 45 49
35 49 56
40 51 53
42 52 54
43 52 56
44 54 58
47 54 55
47 55 57
50 61 60
48 53 55
58 58 72
59 59 69
63 61 93
62 61 91
59 59 64
62 63 85
64 61 90
63 64 101
66 62 113
65 61 104
69 63 137
68 62 129
68 62 130
65 61 105
64 61 97
62 60 74
61 59 71
61 60 74
62 60 76
70 63 130
75 65 153
87 70 250
107 78 255
104 76 255
100 75 255
85 71 228
76 67 160
46 49 107
15 29 50
4 22 36
7 24 41
29 40 50
57 60 69
66 67 72
66 66 69
63 63 65
46 43 52
45 44 51
57 59 61
53 56 59
33 39 49
10 17 32
6 13 29
8 14 30
10 22 38
13 34 40
11 37 39
11 37 40
14 39 41
24 44 46
36 50 51
37 51 52
33 49 52
32 48 50
35 48 50
41 49 53
38 49 52
42 51 54
44 54 56
49 57 57
49 57 57
50 56 57
53 59 60
54 61 60
59 60 68
59 59 73
59 59 76
62 61 81
62 60 81
61 59 85
66 62 113
64 61 99
68 62 132
64 62 103
64 61 95
61 62 76
62 60 80
62 60 81
61 59 71
61 60 72
61 60 71
64 61 91
65 61 95
69 63 129
75 66 163
78 66 173
84 69 201
80 68 187
82 69 207
79 68 192
70 64 153
60 58 141
25 36 70
12 31 45
15 32 43
38 48 55
54 58 64
57 60 63
63 64 67
40 38 47
23 17 35
23 18 32
41 42 49
50 55 58
42 45 53
17 59 45
7 155 60
10 88 47
20 32 41
23 42 46
23 44 47
24 45 48
25 46 48
27 47 48
34 49 50
39 51 52
40 52 52
41 51 53
42 50 52
43 54 54
46 53 55
46 52 54
47 54 55
43 52 54
50 55 64
51 56 58
51 55 63
51 55 59
59 60 77
60 63 82
60 59 79
62 60 74
64 62 103
61 61 81
62 63 87
66 62 107
62 62 87
60 62 80
60 59 73
60 59 73
60 59 69
60 60 72
61 60 77
62 60 83
60 59 69
64 61 97
64 61 91
72 64 150
70 63 137
73 65 161
75 65 175
75 65 171
73 65 152
66 62 128
68 62 152
51 54 99
35 45 77
28 41 63
32 44 53
44 52 59
51 56 60
57 60 62
59 61 63
41 39 47
13 6 25
12 6 26
38 36 47
51 53 58
42 124 70
18 255 107
5 255 142
9 255 118
23 169 72
32 45 50
34 48 50
35 49 52
38 50 52
34 49 50
40 51 53
44 53 54
44 53 54
45 53 54
46 54 55
46 53 56
46 53 55
49 54 56
50 55 56
51 55 57
48 57 57
48 58 58
51 58 59
50 55 60
61 60 74
58 61 69
57 58 61
61 60 81
59 60 77
61 60 85
61 60 80
60 60 72
59 59 67
60 59 64
60 59 65
60 59 71
60 59 67
60 59 71
62 60 76
60 59 67
63 60 92
61 60 72
64 61 89
64 62 97
69 63 133
70 64 139
74 65 171
67 63 122
69 63 144
69 63 139
63 60 111
54 56 89
50 54 78
49 53 68
48 53 64
49 55 58
53 57 60
59 61 62
56 56 59
44 42 51
26 19 37
24 19 37
42 39 50
54 57 61
47 127 72
23 255 123
2 255 173
7 255 158
28 255 104
43 49 52
43 51 53
44 52 54
44 53 54
45 54 54
48 55 55
45 53 54
47 54 55
48 55 56
49 55 57
52 57 57
52 57 57
53 56 57
50 55 56
49 58 57
52 57 59
48 58 62
52 57 65
54 58 71
60 60 69
57 58 67
58 59 70
59 59 67
59 59 67
60 60 68
59 59 63
60 59 66
60 59 64
60 59 66
60 59 68
60 59 67
59 59 62
59 59 68
60 59 67
61 60 76
63 61 93
60 59 69
62 60 86
62 60 84
65 61 110
63 61 96
66 62 115
65 61 121
67 62 124
64 61 119
63 60 107
60 59 98
59 58 96
52 55 70
54 57 62
54 56 64
57 59 61
58 60 61
54 55 58
50 49 55
41 37 49
42 40 50
48 50 55
55 57 59
46 126 71
23 255 116
5 255 142
5 255 150
31 220 89
50 56 57
43 51 53
47 53 54
49 55 56
43 53 53
49 55 56
50 55 57
48 54 55
51 55 56
50 55 56
52 56 57
52 56 57
53 57 57
55 57 58
55 57 59
53 58 64
52 58 58
54 58 60
54 61 65
58 58 63
58 59 62
58 58 60
58 59 64
58 58 60
58 59 62
59 59 64
59 59 62
60 59 65
59 58 64
60 59 67
58 58 60
60 59 70
61 59 79
64 61 97
61 59 76
63 61 90
62 60 87
63 61 84
62 60 88
62 60 86
61 60 74
63 60 95
64 61 95
65 61 108
63 61 89
57 58 73
63 61 102
60 60 82
55 57 61
58 59 67
61 60 78
55 58 66
58 59 62
56 58 60
55 55 58
53 52 63
50 55 56
50 54 56
55 61 60
50 67 61
29 177 89
17 252 107
21 249 102
36 148 76
49 68 61
51 55 56
52 56 58
48 54 56
49 56 56
51 56 56
51 56 57
50 56 56
49 55 55
52 56 56
54 58 58
53 57 57
53 57 57
52 57 57
54 56 57
56 58 59
57 58 60
54 57 58
54 57 58
58 58 62
58 58 61
59 59 62
59 58 63
59 59 62
59 59 60
59 59 63
58 58 60
59 59 63
60 59 65
60 59 69
58 59 65
61 60 82
60 59 75
62 60 80
59 59 63
62 60 81
62 61 82
61 60 75
63 60 90
63 61 88
63 61 95
61 60 75
63 61 91
63 61 92
60 59 84
60 59 80
59 59 84
59 59 80
58 59 68
59 60 80
58 59 63
58 59 64
53 54 64
57 58 60
54 55 58
56 57 59
53 54 57
55 57 60
53 66 61
52 75 64
39 102 73
37 122 78
32 118 76
41 90 67
50 64 59
51 63 59
48 60 58
52 56 58
52 56 58
52 57 58
48 54 55
54 57 58
52 56 58
53 57 57
52 56 58
53 56 57
56 58 58
55 56 57
55 58 59
56 58 58
54 57 57
56 58 58
56 57 58
58 58 61
57 59 61
57 59 61
60 59 65
59 59 64
59 59 65
59 59 62
59 59 63
60 59 66
60 59 64
60 59 65
60 59 72
59 59 63
61 59 75
61 60 76
61 59 77
59 59 62
60 59 73
63 60 93
62 60 76
59 59 68
63 61 94
62 60 80
59 59 72
59 59 68
60 59 82
57 57 62
61 60 81
61 60 76
59 60 61
59 59 68
56 58 62
56 58 68
56 58 62
60 59 76
56 55 60
56 58 59
55 59 59
55 57 60
56 64 62
56 69 62
52 69 64
50 79 66
49 85 67
46 78 63
49 78 64
50 63 59
50 60 57
53 58 58
54 57 58
54 57 59
51 55 56
53 56 57
51 55 56
53 56 57
52 56 57
54 57 57
56 58 58
56 57 58
56 57 59
55 58 58
55 57 58
55 57 57
55 57 59
58 58 60
59 59 62
58 59 61
59 59 62
59 59 63
58 58 60
58 58 60
59 59 61
60 59 63
58 58 61
61 59 78
60 59 73
59 59 62
61 60 67
61 60 69
61 60 74
60 59 67
61 59 76
61 60 77
63 60 87
61 59 72
59 59 70
60 59 74
61 60 85
62 60 87
60 60 74
59 59 66
59 60 66
57 59 68
59 60 74
58 58 69
59 63 70
58 59 69
57 57 62
57 58 62
56 57 64
58 61 68
55 62 60
56 58 59
56 59 60
53 66 63
52 77 65
55 63 61
52 67 62
54 70 63
52 65 59
52 68 60
51 55 56
55 57 60
53 57 57
51 55 56
54 57 57
55 57 58
55 57 58
54 57 59
52 56 57
55 57 58
55 57 57
54 57 57
55 57 58
55 58 59
54 56 57
57 59 60
56 58 59
59 59 61
57 58 59
58 58 63
60 59 64
59 59 62
58 58 64
59 59 63
59 59 62
59 59 63
59 59 63
58 58 61
61 59 74
60 59 67
59 59 62
60 59 77
59 59 64
60 59 66
60 59 75
59 59 72
61 60 73
62 60 88
61 60 82
61 60 74
60 59 73
61 61 82
57 58 62
61 60 84
57 60 66
60 61 72
60 59 73
58 59 69
59 59 67
57 61 63
59 59 68
55 57 66
57 57 67
57 58 61
56 56 59
55 60 59
58 60 60
57 67 70
56 71 64
54 65 61
54 71 62
51 73 63
52 72 62
54 61 59
54 59 58
54 60 59
52 55 56
54 57 58
53 57 58
55 57 58
53 55 57
56 57 58
54 56 57
55 57 58
56 58 58
55 57 58
55 57 58
56 59 59
54 57 57
56 58 59
55 57 58
58 58 61
58 58 60
59 59 65
59 59 61
59 58 64
58 59 59
59 59 65
59 59 62
59 59 64
60 60 68
61 60 75
58 58 61
60 60 73
60 59 68
61 60 71
60 60 70
60 59 72
62 60 77
59 59 67
60 60 68
60 59 78
60 59 70
58 58 64
61 60 76
60 60 75
60 60 65
59 59 73
59 60 69
58 59 67
63 61 90
57 58 65
59 59 65
56 57 67
59 59 62
58 62 63
56 62 72
55 56 59
58 59 65
56 62 61
57 65 68
55 62 61
56 63 62
53 70 62
56 68 63
54 64 60
56 58 59
56 60 61
53 61 58
54 58 59
55 62 60
53 56 57
54 57 58
55 57 58
56 58 58
56 58 58
55 58 59
57 58 58
56 58 60
55 57 58
56 58 59
56 57 58
56 58 58
56 58 58
57 59 60
59 59 63
59 59 61
58 58 60
60 59 70
59 59 62
59 59 61
59 59 63
59 59 60
59 59 69
61 59 75
60 59 70
60 59 76
59 59 59
61 60 75
60 59 69
60 59 69
61 60 80
59 59 66
60 60 64
60 59 71
59 58 68
59 58 69
60 59 74
59 59 68
60 60 67
59 60 67
60 59 70
60 60 67
61 60 79
59 59 67
59 60 62
60 59 87
58 58 60
58 58 67
56 59 66
57 58 66
56 60 66
58 62 61
56 64 63
55 68 62
58 60 60
57 63 63
56 66 61
56 60 61
55 58 58
54 60 59
55 61 64
55 58 58
55 58 64
56 61 60
52 57 57
54 57 57
55 60 59
55 57 58
56 58 60
57 58 59
57 58 58
56 58 58
56 58 59
56 58 59
56 58 58
55 57 58
57 58 60
56 58 58
58 59 59
58 58 61
59 59 61
58 59 59
60 59 67
58 58 61
60 59 68
58 58 60
58 58 60
61 59 72
59 59 64
59 59 61
61 60 70
59 59 61
58 58 60
59 59 64
60 59 72
61 60 72
59 59 64
58 58 63
60 59 70
59 59 72
59 59 69
59 59 65
62 60 82
59 59 69
61 59 76
60 59 73
56 58 65
58 59 69
60 59 73
60 59 80
57 58 60
60 59 68
58 59 66
55 60 59
59 62 68
58 59 60
57 61 60
57 63 63
55 62 61
56 60 59
57 61 62
55 69 62
55 63 60
52 62 60
53 61 59
55 59 58
55 61 59
56 57 62
55 58 58
53 60 58
56 57 59
54 57 59
55 58 59
55 57 58
57 58 60
55 57 59
56 58 58
55 58 58
55 57 57
56 57 58
57 58 58
57 58 59
58 59 60
58 58 60
60 59 63
59 59 62
59 59 63
59 59 63
58 58 59
60 59 69
60 59 69
59 59 63
60 59 66
61 60 79
59 59 66
60 60 70
60 59 72
61 60 76
58 59 63
59 59 63
59 58 67
59 59 60
61 60 75
60 59 70
59 59 63
59 59 62
60 59 83
60 60 66
59 62 72
59 59 74
59 59 67
59 59 67
60 60 68
57 57 66
56 56 64
58 59 66
58 58 61
58 59 69
57 66 68
59 60 66
58 58 60
56 66 62
54 61 60
56 60 60
56 61 61
57 60 60
56 59 64
54 59 58
55 58 58
55 59 59
56 59 58
56 61 60
54 56 57
55 60 58
56 57 58
55 60 59
55 57 59
55 57 58
56 59 59
57 58 61
55 57 58
57 58 58
56 58 59
56 58 58
57 58 59
56 58 58
60 59 68
58 59 60
60 59 72
59 59 67
61 59 74
58 58 60
59 59 60
59 59 66
59 59 62
60 59 66
59 59 61
58 59 59
59 59 63
61 59 79
59 59 68
61 60 73
60 60 68
61 60 70
60 59 72
61 60 80
60 59 74
58 60 63
60 59 63
61 59 79
60 59 67
60 61 72
60 59 73
61 59 84
61 60 75
59 58 71
58 59 71
57 57 64
59 58 61
59 61 69
60 61 77
58 58 66
57 58 59
59 59 67
56 59 64
57 58 59
57 59 59
55 59 58
55 63 60
56 59 59
56 58 59
57 61 66
57 61 61
57 61 63
56 63 60
55 60 60
57 59 59
53 59 58
55 57 58
55 61 63
54 56 57
53 59 59
56 58 58
57 58 58
53 57 57
56 58 58
56 58 59
56 59 59
56 57 58
56 58 59
58 59 60
58 58 61
60 59 73
59 59 69
59 59 62
59 59 65
59 59 66
60 59 72
60 59 67
59 59 67
62 60 78
61 60 77
59 59 63
59 59 62
59 59 67
59 58 66
59 59 71
58 59 62
57 58 59
59 59 62
59 59 60
59 58 68
59 59 67
62 60 86
60 59 68
60 60 69
58 59 62
59 59 68
58 58 61
58 58 64
58 58 65
58 59 60
58 58 63
58 58 71
57 58 59
57 58 61
57 61 61
58 62 62
59 61 63
54 61 60
55 61 59
54 59 58
57 59 59
57 60 71
55 61 60
56 64 62
57 60 60
56 61 60
56 58 59
55 62 60
54 58 58
56 58 60
55 58 59
56 58 58
57 59 59
56 58 60
56 58 58
54 59 58
56 57 59
54 57 57
56 57 58
57 58 58
57 58 58
56 57 59
60 59 72
58 59 65
58 58 60
59 59 66
59 59 60
59 59 61
59 59 64
59 59 72
61 59 74
59 59 63
60 59 67
60 59 70
58 59 61
60 59 77
59 59 66
58 58 65
59 59 64
60 59 69
60 59 73
60 60 73
59 59 63
58 59 65
59 59 73
58 59 61
61 59 83
59 59 65
60 60 72
59 59 66
59 59 66
58 59 63
57 58 65
60 59 78
57 57 60
58 58 61
58 59 65
56 61 59
57 63 68
59 60 60
58 62 60
58 62 62
56 59 65
55 58 58
57 58 60
57 59 59
56 59 60
56 64 60
55 60 58
57 61 60
57 59 59
56 59 59
55 57 58
56 58 60
55 62 59
56 60 59
55 60 61
55 57 58
56 60 59
57 58 58
57 58 59
57 58 59
58 59 59
57 59 60
59 59 62
56 57 59
58 58 59
59 59 65
60 59 67
62 60 84
59 59 60
60 59 69
60 59 73
60 59 71
58 58 59
58 58 62
60 59 73
59 59 62
60 59 71
58 58 60
60 59 72
59 59 67
59 59 68
59 59 63
62 60 79
60 60 69
60 59 69
60 60 68
59 59 62
59 60 62
60 59 70
59 59 65
60 59 73
58 58 69
60 60 73
59 58 76
58 59 60
61 61 72
58 58 60
57 58 64
59 59 71
57 61 67
58 61 67
57 58 60
56 59 60
56 60 59
57 58 60
58 60 63
57 64 62
57 58 59
57 59 60
56 58 58
57 62 61
57 58 60
55 59 59
59 60 66
56 59 59
55 61 59
56 58 58
57 59 59
55 57 57
54 58 58
56 58 58
56 57 59
56 60 59
57 58 58
57 58 58
57 58 59
57 58 59
58 60 61
59 59 62
59 59 70
61 60 79
59 58 65
60 59 68
60 59 72
58 59 60
59 59 60
60 59 70
59 59 61
59 59 63
59 59 66
60 59 73
60 59 68
59 59 62
60 59 72
59 59 67
58 59 60
59 59 61
59 59 65
60 59 73
59 59 66
60 60 74
58 60 66
59 59 64
59 59 68
58 58 67
58 58 64
58 58 61
58 58 62
58 61 68
59 61 64
57 58 66
59 59 67
58 59 64
56 60 64
58 64 69
57 59 68
56 58 60
59 59 66
57 60 60
57 59 62
54 58 58
57 59 60
58 59 59
56 58 59
58 59 62
56 61 59
56 62 65
55 58 58
55 58 64
57 58 58
55 59 58
56 61 59
58 58 58
55 58 58
57 60 61
57 59 59
56 58 59
56 57 58
57 58 58
57 58 59
56 58 59
56 58 59
59 59 65
58 58 59
59 59 66
58 58 62
60 60 74
59 59 65
59 59 68
58 58 58
58 59 60
59 59 60
59 59 63
58 58 62
59 59 74
59 59 67
59 59 67
59 59 70
60 59 66
60 59 73
60 59 73
58 58 65
59 59 63
61 60 78
59 59 62
61 60 80
58 59 64
61 60 74
58 58 61
57 58 59
59 60 65
58 58 67
56 57 60
59 59 69
60 59 68
59 59 70
57 59 61
58 58 59
57 58 61
58 61 62
57 58 64
56 57 64
58 59 70
59 63 66
57 59 59
57 59 59
57 61 60
55 57 58
57 58 60
55 58 58
58 59 68
57 58 59
56 59 59
57 58 58
57 60 59
56 60 59
56 59 58
56 57 58
58 60 59
57 58 58
57 58 58
57 57 59
58 59 59
57 60 59
56 57 58
58 58 58
59 60 67
58 58 60
61 60 75
60 59 67
60 59 68
60 59 74
58 59 61
60 59 65
58 58 64
61 60 79
58 58 60
59 59 66
58 58 62
59 59 68
59 59 66
59 59 66
59 60 69
58 58 61
60 59 68
59 59 66
60 59 68
60 59 78
58 58 59
57 58 59
59 59 65
57 58 60
60 59 70
58 58 63
59 59 66
60 59 76
59 59 66
57 58 62
60 62 73
58 60 66
57 58 60
57 63 61
58 58 64
59 61 74
58 59 66
57 59 65
57 59 61
56 61 66
57 57 58
57 60 60
57 58 60
56 60 59
55 58 59
55 59 58
54 56 63
56 58 58
57 58 59
56 58 59
56 59 58
57 62 61
57 59 59
56 57 58
58 59 61
57 62 60
57 58 59
56 61 60
55 57 58
56 58 60
56 58 58
56 57 58
59 59 60
58 59 60
58 58 60
58 58 59
58 58 60
59 59 62
60 59 69
60 59 69
59 58 68
60 59 67
60 59 68
60 59 68
58 58 65
59 59 61
59 59 69
60 59 69
59 59 67
59 58 67
59 59 66
59 59 67
59 59 62
59 59 59
61 59 78
59 58 77
58 58 62
59 59 62
59 59 60
58 59 61
60 60 76
61 59 80
59 58 67
58 58 59
59 61 72
60 59 77
59 59 67
58 58 65
58 59 66
57 58 61
59 64 73
57 58 66
59 62 63
57 58 70
57 63 61
55 58 59
57 58 60
57 59 60
56 60 60
57 61 60
56 60 60
56 59 58
56 57 61
57 58 63
57 59 59
57 58 60
56 58 59
56 57 58
56 57 59
58 59 59
57 58 59
57 61 60
57 59 59
57 59 59
57 58 58
57 61 60
59 58 64
61 59 73
59 59 63
59 59 60
60 59 69
60 59 71
60 59 67
58 58 63
59 59 62
59 60 67
58 58 62
58 58 61
58 58 62
58 59 62
60 59 68
58 59 60
59 59 61
60 60 68
59 60 68
59 59 67
61 59 76
60 60 83
58 58 64
60 59 71
58 61 62
58 58 66
57 60 61
59 59 76
58 58 65
58 61 60
59 58 68
58 58 64
57 61 59
58 59 62
57 59 62
58 58 65
57 61 61
58 59 66
57 57 64
58 59 61
57 58 63
57 58 64
58 58 59
58 58 65
58 59 60
57 58 59
54 61 59
56 58 59
56 61 62
55 60 59
56 61 59
58 59 64
57 58 58
56 58 58
57 58 58
57 58 59
56 60 59
57 58 65
56 57 58
58 58 60
57 61 62
57 61 59
58 60 60
57 58 58
60 59 71
58 58 61
59 59 65
59 58 65
59 59 68
60 59 69
58 58 60
60 59 70
61 60 73
59 59 69
59 59 66
58 58 64
61 60 72
60 60 66
60 59 68
59 59 60
59 59 62
60 59 68
59 58 67
59 59 68
61 60 73
60 62 74
59 59 65
59 59 61
59 59 62
58 58 60
59 60 68
61 62 76
58 59 60
59 59 71
60 59 72
59 59 69
58 59 66
58 58 66
59 60 77
59 59 66
59 61 72
56 60 60
59 59 70
57 60 61
58 59 70
57 61 61
58 59 65
56 58 58
58 58 60
55 57 58
58 59 61
56 58 59
57 58 65
56 58 61
58 60 61
56 57 59
58 59 59
57 58 58
57 58 59
59 59 60
56 57 58
57 58 59
58 59 59
57 59 60
58 59 60
58 59 62
56 58 58
56 58 58
59 59 59
59 59 60
60 59 76
59 59 64
59 59 62
59 59 61
59 59 64
59 59 64
59 59 65
59 59 62
61 59 79
59 59 61
58 58 61
59 59 61
59 59 66
59 59 60
59 61 66
59 59 60
58 58 59
59 59 60
59 58 71
59 59 66
58 60 63
59 59 66
58 58 62
59 59 71
57 57 60
59 59 62
57 57 60
59 59 71
58 58 62
58 61 62
59 59 61
59 60 71
56 60 60
58 61 67
57 58 59
58 59 66
58 59 61
60 60 73
57 59 65
56 58 58
56 58 59
57 59 60
56 61 59
56 59 59
57 60 59
58 58 64
56 58 59
58 58 64
57 59 59
57 58 59
58 59 65
57 58 60
57 59 59
57 58 60
58 58 59
58 59 59
58 59 64
56 57 58
57 58 64
57 58 59
58 58 59
57 58 59
