P3
# Rays 2018
64 64
255
255 255 255
255 255 255
255 255 255
255 255 255
255 255 255
255 255 255
255 255 255
255 255 255
255 255 255
255 255 255
255 255 255
255 255 255
255 255 255
255 255 255
255 255 255
255 255 255
255 255 255
255 255 255
255 255 255
255 255 255
255 255 255
255 255 255
255 255 255
255 255 255
255 255 255
255 255 255
255 255 255
255 255 255
255 255 255
255 255 255
255 255 255
255 255 255
255 255 255
255 255 255
255 255 255
255 255 255
255 255 255
255 255 255
255 255 255
255 255 255
255 255 255
255 255 255
255 255 255
255 255 255
255 255 255
255 255 255
255 255 255
255 255 255
255 255 255
255 255 255
255 255 255
255 255 255
255 255 255
255 255 255
255 255 255
255 255 255
255 255 255
255 255 255
255 255 255
255 255 255
255 255 255
255 255 255
255 255 255
255 255 255
255 255 255
255 255 255
255 255 255
255 255 255
255 255 255
255 255 255
255 255 255
255 255 255
255 255 255
255 255 255
255 255 255
255 255 255
255 255 255
255 255 255
255 255 255
255 255 255
255 255 255
255 255 255
255 255 255
255 255 255
255 255 255
255 255 255
255 255 255
255 255 255
255 255 255
255 255 255
255 255 255
255 255 255
255 255 255
255 255 255
255 255 255
255 255 255
255 255 255
255 255 255
255 255 255
255 255 255
255 255 255
255 255 255
255 255 255
255 255 255
255 255 255
255 255 255
255 255 255
255 255 255
255 255 255
255 255 255
255 255 255
255 255 255
255 255 255
255 255 255
255 255 255
255 255 255
255 255 255
255 255 255
255 255 255
255 255 255
255 255 255
255 255 255
255 255 255
255 255 255
255 255 255
255 255 255
255 255 255
255 255 255
255 255 255
255 255 255
255 255 255
255 255 255
255 255 255
255 255 255
255 255 255
255 255 255
255 255 255
255 255 255
255 255 255
255 255 255
255 255 255
255 255 255
255 255 255
255 255 255
255 255 255
255 255 255
255 255 255
255 255 255
255 255 255
255 255 255
255 255 255
255 255 255
255 255 255
255 255 255
255 255 255
255 255 255
255 255 255
255 255 255
255 255 255
255 255 255
255 255 255
255 255 255
255 255 255
255 255 255
255 255 255
255 255 255
255 255 255
255 255 255
255 255 255
255 255 255
255 255 255
255 255 255
255 255 255
255 255 255
255 255 255
255 255 255
255 255 255
255 255 255
255 255 255
255 255 255
255 255 255
255 255 255
255 255 255
255 255 255
255 255 255
255 255 255
255 255 255
255 255 255
255 255 255
255 255 255
255 255 255
255 255 255
255 255 255
255 255 255
255 255 255
255 255 255
255 255 255
255 255 255
255 255 255
255 255 255
255 255 255
255 255 255
255 255 255
255 255 255
255 255 255
255 255 255
255 255 255
255 255 255
255 255 255
255 255 255
255 255 255
255 255 255
255 255 255
255 255 255
255 255 255
255 255 255
255 255 255
255 255 255
255 255 255
255 255 255
255 255 255
255 255 255
255 255 255
255 255 255
255 255 255
255 255 255
255 255 255
255 255 255
255 255 255
255 255 255
255 255 255
255 255 255
255 255 255
255 255 255
255 255 255
255 255 255
255 255 255
255 255 255
255 255 255
255 255 255
255 255 255
255 255 255
255 255 255
255 255 255
255 255 255
255 255 255
255 255 255
255 255 255
255 255 255
255 255 255
255 255 255
255 255 255
255 255 255
255 255 255
255 255 255
255 255 255
255 255 255
255 255 255
255 255 255
255 255 255
255 255 255
255 255 255
255 255 255
255 255 255
255 255 255
255 255 255
255 255 255
255 255 255
255 255 255
255 255 255
255 255 255
255 255 255
255 255 255
255 255 255
255 255 255
255 255 255
255 255 255
255 255 255
255 255 255
255 255 255
255 255 255
255 255 255
255 255 255
255 255 255
255 255 255
255 255 255
255 255 255
255 255 255
255 255 255
255 255 255
255 255 255
255 255 255
255 255 255
255 255 255
255 255 255
255 255 255
255 255 255
255 255 255
255 255 255
255 255 255
255 255 255
255 255 255
255 255 255
255 255 255
255 255 255
255 255 255
255 255 255
255 255 255
255 255 255
255 255 255
255 255 255
255 255 255
255 255 255
255 255 255
255 255 255
255 255 255
255 255 255
255 255 255
255 255 255
255 255 255
255 255 255
255 255 255
255 255 255
255 255 255
255 255 255
255 255 255
255 255 255
255 255 255
255 255 255
255 255 255
255 255 255
255 255 255
255 255 255
255 255 255
255 255 255
255 255 255
255 255 255
255 255 255
255 255 255
255 255 255
255 255 255
255 255 255
255 255 255
255 255 255
255 255 255
255 255 255
255 255 255
255 255 255
255 255 255
255 255 255
255 255 255
255 255 255
255 255 255
255 255 255
255 255 255
255 255 255
255 255 255
255 255 255
255 255 255
255 255 255
255 255 255
255 255 255
255 255 255
255 255 255
255 255 255
255 255 255
255 255 255
255 255 255
255 255 255
255 255 255
255 255 255
255 255 255
255 255 255
255 255 255
255 255 255
255 255 255
255 255 255
255 255 255
255 255 255
255 255 255
255 255 255
255 255 255
255 255 255
255 255 255
255 255 255
255 255 255
255 255 255
255 255 255
255 255 255
255 255 255
255 255 255
255 255 255
255 255 255
255 255 255
255 255 255
255 255 255
255 255 255
255 255 255
255 255 255
255 255 255
255 255 255
255 255 255
255 255 255
255 255 255
255 255 255
255 255 255
255 255 255
255 255 255
255 255 255
255 255 255
255 255 255
255 255 255
255 255 255
255 255 255
255 255 255
255 255 255
255 255 255
255 255 255
255 255 255
255 255 255
255 255 255
255 255 255
255 255 255
255 255 255
255 255 255
255 255 255
255 255 255
255 255 255
255 255 255
255 255 255
255 255 255
255 255 255
255 255 255
255 255 255
255 255 255
255 255 255
255 255 255
255 255 255
255 255 255
255 255 255
255 255 255
255 255 255
255 255 255
255 255 255
255 255 255
255 255 255
255 255 255
255 255 255
255 255 255
255 255 255
255 255 255
255 255 255
255 255 255
255 255 255
255 255 255
255 255 255
255 255 255
255 255 255
255 255 255
255 255 255
255 255 255
255 255 255
255 255 255
255 255 255
255 255 255
255 255 255
255 255 255
255 255 255
255 255 255
255 255 255
255 255 255
255 255 255
255 255 255
255 255 255
255 255 255
255 255 255
255 255 255
255 255 255
255 255 255
255 255 255
255 255 255
255 255 255
255 255 255
255 255 255
255 255 255
255 255 255
255 255 255
255 255 255
255 255 255
255 255 255
255 255 255
255 255 255
255 255 255
255 255 255
255 255 255
255 255 255
255 255 255
255 255 255
255 255 255
255 255 255
255 255 255
255 255 255
255 255 255
255 255 255
255 255 255
255 255 255
255 255 255
255 255 255
255 255 255
255 255 255
255 255 255
255 255 255
255 255 255
255 255 255
255 255 255
255 255 255
255 255 255
255 255 255
255 255 255
255 255 255
255 255 255
255 255 255
255 255 255
255 255 255
255 255 255
255 255 255
255 255 255
255 255 255
255 255 255
255 255 255
255 255 255
255 255 255
255 255 255
255 255 255
255 255 255
255 255 255
255 255 255
255 255 255
255 255 255
255 255 255
255 255 255
255 255 255
255 255 255
255 255 255
255 255 255
255 255 255
255 255 255
255 255 255
255 255 255
255 255 255
255 255 255
255 255 255
255 255 255
255 255 255
255 255 255
255 255 255
255 255 255
255 255 255
255 255 255
255 255 255
255 255 255
255 255 255
255 255 255
255 255 255
255 255 255
255 255 255
255 255 255
255 255 255
255 255 255
255 255 255
255 255 255
255 255 255
255 255 255
255 255 255
255 255 255
255 255 255
255 255 255
255 255 255
255 255 255
255 255 255
255 255 255
255 255 255
255 255 255
255 255 255
255 255 255
255 255 255
255 255 255
255 255 255
255 255 255
255 255 255
255 255 255
255 255 255
255 255 255
255 255 255
255 255 255
255 255 255
255 255 255
255 255 255
255 255 255
255 255 255
255 255 255
255 255 255
255 255 255
255 255 255
255 255 255
255 255 255
255 255 255
255 255 255
255 255 255
255 255 255
255 255 255
255 255 255
255 255 255
255 255 255
255 255 255
255 255 255
255 255 255
255 255 255
255 255 255
255 255 255
255 255 255
255 255 255
255 255 255
255 255 255
255 255 255
255 255 255
255 255 255
255 255 255
255 255 255
255 255 255
255 255 255
255 255 255
255 255 255
255 255 255
255 255 255
255 255 255
255 255 255
255 255 255
255 255 255
255 255 255
255 255 255
255 255 255
255 255 255
255 255 255
255 255 255
255 255 255
255 255 255
255 255 255
255 255 255
255 255 255
255 255 255
255 255 255
255 255 255
255 255 255
255 255 255
255 255 255
255 255 255
255 255 255
255 255 255
255 255 255
255 255 255
255 255 255
255 255 255
255 255 255
255 255 255
255 255 255
255 255 255
255 255 255
255 255 255
255 255 255
255 255 255
255 255 255
255 255 255
255 255 255
255 255 255
255 255 255
255 255 255
255 255 255
255 255 255
255 255 255
255 255 255
255 255 255
255 255 255
255 255 255
255 255 255
255 255 255
255 255 255
255 255 255
255 255 255
255 255 255
255 255 255
255 255 255
255 255 255
255 255 255
255 255 255
255 255 255
255 255 255
255 255 255
255 255 255
255 255 255
255 255 255
255 255 255
255 255 255
255 255 255
255 255 255
255 255 255
255 255 255
255 255 255
255 255 255
255 255 255
255 255 255
255 255 255
255 255 255
255 255 255
255 255 255
255 255 255
255 255 255
255 255 255
255 255 255
255 255 255
255 255 255
255 255 255
255 255 255
255 255 255
255 255 255
255 255 255
255 255 255
255 255 255
255 255 255
255 255 255
255 255 255
255 255 255
255 255 255
255 255 255
255 255 255
255 255 255
255 255 255
255 255 255
255 255 255
255 255 255
255 255 255
255 255 255
255 255 255
255 255 255
255 255 255
255 255 255
255 255 255
255 255 255
255 255 255
255 255 255
255 255 255
255 255 255
255 255 255
255 255 255
255 255 255
255 255 255
255 255 255
255 255 255
255 255 255
255 255 255
255 255 255
255 255 255
255 255 255
255 255 255
255 255 255
255 255 255
255 255 255
255 255 255
255 255 255
255 255 255
255 255 255
255 255 255
255 255 255
255 255 255
255 255 255
255 255 255
255 255 255
255 255 255
255 255 255
255 255 255
255 255 255
255 255 255
255 255 255
255 255 255
255 255 255
255 255 255
255 255 255
255 255 255
255 255 255
255 255 255
255 255 255
255 255 255
255 255 255
255 255 255
255 255 255
255 255 255
255 255 255
255 255 255
255 255 255
255 255 255
255 255 255
255 255 255
255 255 255
255 255 255
255 255 255
255 255 255
255 255 255
255 255 255
255 255 255
255 255 255
255 255 255
255 255 255
255 255 255
255 255 255
255 255 255
255 255 255
255 255 255
255 255 255
255 255 255
255 255 255
255 255 255
255 255 255
255 255 255
255 255 255
255 255 255
255 255 255
255 255 255
255 255 255
255 255 255
255 255 255
255 255 255
255 255 255
255 255 255
255 255 255
255 255 255
255 255 255
255 255 255
255 255 255
255 255 255
255 255 255
255 255 255
255 255 255
255 255 255
255 255 255
255 255 255
255 255 255
255 255 255
255 255 255
255 255 255
255 255 255
255 255 255
255 255 255
255 255 255
255 255 255
255 255 255
255 255 255
255 255 255
255 255 255
255 255 255
255 255 255
255 255 255
255 255 255
255 255 255
255 255 255
255 255 255
255 255 255
255 255 255
255 255 255
255 255 255
255 255 255
255 255 255
255 255 255
255 255 255
255 255 255
255 255 255
255 255 255
255 255 255
255 255 255
255 255 255
255 255 255
255 255 255
255 255 255
255 255 255
255 255 255
255 255 255
255 255 255
255 255 255
255 255 255
255 255 255
255 255 255
255 255 255
255 255 255
255 255 255
255 255 255
255 255 255
255 255 255
255 255 255
255 255 255
255 255 255
255 255 255
255 255 255
255 255 255
255 255 255
255 255 255
255 255 255
255 255 255
255 255 255
255 255 255
255 255 255
255 255 255
255 255 255
255 255 255
255 255 255
255 255 255
255 255 255
255 255 255
255 255 255
255 255 255
255 255 255
255 255 255
255 255 255
255 255 255
255 255 255
255 255 255
255 255 255
255 255 255
255 255 255
255 255 255
255 255 255
255 255 255
255 255 255
255 255 255
255 255 255
255 255 255
255 255 255
255 255 255
255 255 255
255 255 255
255 255 255
255 255 255
255 255 255
255 255 255
255 255 255
255 255 255
255 255 255
255 255 255
255 255 255
255 255 255
255 255 255
255 255 255
255 255 255
255 255 255
255 255 255
255 255 255
255 255 255
255 255 255
255 255 255
255 255 255
255 255 255
255 255 255
255 255 255
255 255 255
255 255 255
255 255 255
255 255 255
255 255 255
255 255 255
255 255 255
255 255 255
255 255 255
255 255 255
255 255 255
255 255 255
255 255 255
255 255 255
255 255 255
255 255 255
255 255 255
255 255 255
255 255 255
255 255 255
255 255 255
255 255 255
255 255 255
255 255 255
255 255 255
255 255 255
255 255 255
255 255 255
255 255 255
255 255 255
255 255 255
255 255 255
255 255 255
255 255 255
255 255 255
255 255 255
255 255 255
255 255 255
255 255 255
255 255 255
255 255 255
255 255 255
255 255 255
255 255 255
255 255 255
255 255 255
255 255 255
255 255 255
255 255 255
255 255 255
255 255 255
255 255 255
255 255 255
255 255 255
255 255 255
255 255 255
255 255 255
255 255 255
255 255 255
255 255 255
255 255 255
255 255 255
255 255 255
255 255 255
255 255 255
255 255 255
255 255 255
255 255 255
255 255 255
255 255 255
255 255 255
255 255 255
255 255 255
255 255 255
255 255 255
255 255 255
255 255 255
255 255 255
255 255 255
255 255 255
255 255 255
255 255 255
255 255 255
255 255 255
255 255 255
255 255 255
255 255 255
255 255 255
255 255 255
255 255 255
255 255 255
255 255 255
255 255 255
255 255 255
255 255 255
255 255 255
255 255 255
255 255 255
255 255 255
255 255 255
255 255 255
255 255 255
255 255 255
255 255 255
255 255 255
255 255 255
255 255 255
255 255 255
255 255 255
255 255 255
255 255 255
255 255 255
255 255 255
255 255 255
255 255 255
255 255 255
255 255 255
255 255 255
255 255 255
255 255 255
255 255 255
255 255 255
255 255 255
255 255 255
255 255 255
255 255 255
255 255 255
255 255 255
255 255 255
255 255 255
255 255 255
255 255 255
255 255 255
255 255 255
255 255 255
255 255 255
255 255 255
255 255 255
254 254 254
242 244 245
207 212 215
183 194 200
191 201 206
193 201 206
185 194 200
216 223 226
248 249 249
255 255 255
255 255 255
255 255 255
255 255 255
255 255 255
255 255 255
255 255 255
255 255 255
255 255 255
255 255 255
255 255 255
255 255 255
255 255 255
255 255 255
255 255 255
255 255 255
255 255 255
255 255 255
255 255 255
255 255 255
255 255 255
255 255 255
255 255 255
255 255 255
255 255 255
255 255 255
255 255 255
255 255 255
255 255 255
255 255 255
255 255 255
255 255 255
255 255 255
255 255 255
255 255 255
255 255 255
255 255 255
255 255 255
255 255 255
255 255 255
255 255 255
255 255 255
255 255 255
255 255 255
255 255 255
255 255 255
255 255 255
255 255 255
255 255 255
255 255 255
255 255 255
255 255 255
255 255 255
242 245 246
224 227 229
142 155 163
135 149 159
75 99 114
52 79 95
53 77 93
51 77 94
57 80 96
62 85 100
111 126 137
191 201 207
227 231 233
251 252 252
255 255 255
255 255 255
255 255 255
255 255 255
255 255 255
255 255 255
255 255 255
255 255 255
255 255 255
255 255 255
255 255 255
255 255 255
255 255 255
255 255 255
255 255 255
255 255 255
255 255 255
255 255 255
255 255 255
255 255 255
255 255 255
255 255 255
255 255 255
255 255 255
255 255 255
255 255 255
255 255 255
255 255 255
255 255 255
255 255 255
255 255 255
255 255 255
255 255 255
255 255 255
255 255 255
255 255 255
255 255 255
255 255 255
255 255 255
255 255 255
255 255 255
255 255 255
255 255 255
255 255 255
255 255 255
255 255 255
255 255 255
255 255 255
253 254 254
237 240 241
152 165 173
88 113 128
40 65 81
11 42 62
13 46 67
11 42 62
10 40 60
11 42 62
12 44 64
13 46 66
27 60 80
48 77 94
86 108 121
172 180 187
229 233 235
255 255 255
255 255 255
255 255 255
255 255 255
255 255 255
255 255 255
255 255 255
255 255 255
255 255 255
255 255 255
255 255 255
255 255 255
255 255 255
255 255 255
255 255 255
255 255 255
255 255 255
255 255 255
255 255 255
255 255 255
255 255 255
255 255 255
255 255 255
255 255 255
255 255 255
255 255 255
255 255 255
255 255 255
255 255 255
255 255 255
255 255 255
255 255 255
255 255 255
255 255 255
255 255 255
255 255 255
255 255 255
255 255 255
255 255 255
255 255 255
255 255 255
255 255 255
255 255 255
255 255 255
255 255 255
255 255 255
255 255 255
232 234 236
135 151 160
53 80 96
15 42 62
12 44 64
8 36 54
12 45 65
11 43 63
12 46 66
12 45 66
9 37 56
10 40 59
9 38 58
12 46 67
13 44 64
68 92 107
158 171 179
224 229 232
255 255 255
255 255 255
255 255 255
255 255 255
255 255 255
255 255 255
255 255 255
255 255 255
255 255 255
255 255 255
255 255 255
255 255 255
255 255 255
255 255 255
255 255 255
255 255 255
255 255 255
255 255 255
255 255 255
255 255 255
255 255 255
255 255 255
255 255 255
255 255 255
255 255 255
255 255 255
255 255 255
255 255 255
255 255 255
255 255 255
255 255 255
255 255 255
255 255 255
255 255 255
255 255 255
255 255 255
255 255 255
255 255 255
255 255 255
255 255 255
255 255 255
255 255 255
255 255 255
255 255 255
255 255 255
218 221 223
124 142 153
37 63 81
9 36 55
8 35 54
10 38 57
10 40 59
11 42 63
9 38 57
9 38 57
12 44 64
9 37 56
10 40 60
11 41 60
9 37 56
12 43 63
11 41 61
31 55 72
143 158 168
220 225 229
255 255 255
255 255 255
255 255 255
255 255 255
255 255 255
255 255 255
255 255 255
255 255 255
255 255 255
255 255 255
255 255 255
255 255 255
255 255 255
255 255 255
255 255 255
255 255 255
255 255 255
255 255 255
255 255 255
255 255 255
255 255 255
255 255 255
255 255 255
255 255 255
255 255 255
255 255 255
255 255 255
255 255 255
255 255 255
255 255 255
255 255 255
255 255 255
255 255 255
255 255 255
255 255 255
255 255 255
255 255 255
255 255 255
255 255 255
255 255 255
255 255 255
255 255 255
255 255 255
248 248 249
138 151 160
57 81 97
8 33 51
11 42 62
10 38 57
8 35 53
11 42 61
10 40 58
9 36 54
10 41 60
11 42 61
10 39 58
10 39 59
12 44 64
11 42 61
10 40 59
9 37 56
11 41 61
43 72 90
150 162 170
238 239 240
255 255 255
255 255 255
255 255 255
255 255 255
255 255 255
255 255 255
255 255 255
255 255 255
255 255 255
255 255 255
255 255 255
255 255 255
255 255 255
255 255 255
255 255 255
255 255 255
255 255 255
255 255 255
255 255 255
255 255 255
255 255 255
255 255 255
255 255 255
255 255 255
255 255 255
255 255 255
255 255 255
255 255 255
255 255 255
255 255 255
255 255 255
255 255 255
255 255 255
255 255 255
255 255 255
255 255 255
255 255 255
255 255 255
255 255 255
255 255 255
255 255 255
255 255 255
215 219 222
96 115 127
10 38 57
10 38 57
9 36 54
9 36 55
10 38 56
10 39 58
11 40 58
11 41 60
9 36 54
11 42 61
11 42 61
10 39 58
11 42 61
10 39 59
7 32 50
10 38 57
13 47 67
11 41 60
76 97 110
181 191 197
255 255 255
255 255 255
255 255 255
255 255 255
255 255 255
255 255 255
251 251 251
251 251 251
243 243 243
240 240 240
250 250 250
255 255 255
255 255 255
255 255 255
255 255 255
255 255 255
255 255 255
255 255 255
255 255 255
255 255 255
255 255 255
255 255 255
255 255 255
255 255 255
255 255 255
255 255 255
255 255 255
255 255 255
255 255 255
255 255 255
255 255 255
255 255 255
255 255 255
255 255 255
255 255 255
255 255 255
255 255 255
255 255 255
255 255 255
255 255 255
255 255 255
255 255 255
151 161 168
27 50 66
11 40 60
8 33 50
8 34 51
9 35 53
10 38 57
9 36 53
10 39 57
10 37 56
9 37 54
10 39 58
10 37 55
10 38 55
10 39 57
8 35 52
10 38 56
10 39 58
10 39 59
10 41 60
14 39 57
121 138 149
228 231 233
255 255 255
255 255 255
255 255 255
245 245 245
221 221 221
198 198 198
184 184 184
180 180 180
177 178 178
202 202 202
218 218 218
243 243 243
255 255 255
255 255 255
255 255 255
255 255 255
255 255 255
255 255 255
255 255 255
255 255 255
255 255 255
255 255 255
255 255 255
255 255 255
255 255 255
255 255 255
255 255 255
255 255 255
255 255 255
255 255 255
255 255 255
255 255 255
255 255 255
255 255 255
255 255 255
255 255 255
255 255 255
255 255 255
255 255 255
255 255 255
232 235 236
114 128 137
12 39 56
10 38 56
9 35 52
10 38 57
7 31 49
7 31 48
8 33 50
10 39 57
10 38 57
11 40 59
7 30 47
11 41 60
10 38 55
11 41 59
10 39 57
10 40 59
11 40 58
9 34 52
10 40 58
9 36 55
71 91 105
189 196 200
255 255 255
253 253 254
231 231 231
188 188 188
159 159 159
145 145 145
146 146 146
141 141 141
145 145 145
154 154 154
167 167 167
180 181 181
231 231 231
254 254 254
255 255 255
255 255 255
255 255 255
255 255 255
255 255 255
255 255 255
255 255 255
255 255 255
255 255 255
255 255 255
255 255 255
255 255 255
255 255 255
255 255 255
255 255 255
255 255 255
255 255 255
255 255 255
255 255 255
255 255 255
255 255 255
255 255 255
255 255 255
255 255 255
255 255 255
255 255 255
219 223 225
93 110 121
9 37 55
8 31 48
9 34 51
8 32 49
7 31 48
9 34 52
8 33 50
6 28 44
9 36 53
8 32 48
9 35 52
8 34 51
8 33 50
7 28 44
10 39 58
10 39 57
10 39 57
8 34 51
9 35 53
8 33 51
31 56 73
169 179 186
255 255 255
213 216 217
174 175 176
150 150 150
136 136 136
140 140 141
149 149 149
144 144 144
146 146 146
149 149 149
145 145 145
146 146 146
191 191 191
231 231 231
255 255 255
255 255 255
255 255 255
255 255 255
255 255 255
255 255 255
255 255 255
255 255 255
255 255 255
255 255 255
255 255 255
255 255 255
255 255 255
255 255 255
255 255 255
255 255 255
255 255 255
255 255 255
255 255 255
255 255 255
255 255 255
255 255 255
255 255 255
255 255 255
255 255 255
255 255 255
203 208 212
79 99 112
7 29 45
8 34 51
8 31 48
8 32 48
9 33 50
7 31 47
8 34 51
9 36 54
9 34 51
9 35 52
9 36 54
9 35 52
9 34 50
7 31 47
6 26 40
7 30 47
8 33 49
8 34 50
7 31 48
8 32 49
18 41 57
132 146 155
244 245 246
170 176 179
125 132 136
146 146 146
144 144 144
143 143 143
143 143 143
147 147 147
146 146 146
137 137 137
144 144 144
138 138 138
148 148 148
195 195 195
247 247 247
255 255 255
255 255 255
255 255 255
255 255 255
255 255 255
255 255 255
255 255 255
255 255 255
255 255 255
255 255 255
255 255 255
255 255 255
255 255 255
255 255 255
255 255 255
255 255 255
255 255 255
255 255 255
255 255 255
255 255 255
255 255 255
255 255 255
255 255 255
255 255 255
255 255 255
218 221 224
100 112 122
8 32 47
6 26 41
7 29 44
8 31 47
8 32 49
7 29 45
9 34 51
8 33 49
7 29 44
5 23 37
8 31 46
9 35 52
8 31 47
7 29 45
10 38 55
8 33 49
8 33 50
8 34 50
6 27 43
6 29 44
6 26 42
123 136 145
189 194 196
104 115 120
116 122 124
151 151 151
148 148 148
147 148 148
141 141 141
139 139 139
143 143 143
138 139 139
139 139 139
143 143 143
142 143 143
161 161 161
221 221 221
255 255 255
255 255 255
255 255 255
255 255 255
255 255 255
255 255 255
255 255 255
255 255 255
255 255 255
255 255 255
255 255 255
255 255 255
255 255 255
255 255 255
255 255 255
255 255 255
255 255 255
255 255 255
255 255 255
255 255 255
255 255 255
255 255 255
255 255 255
255 255 255
255 255 255
234 237 238
120 132 140
8 29 44
7 29 45
7 30 45
7 29 45
7 29 44
4 22 37
7 29 44
6 27 41
6 28 44
7 28 44
7 28 43
7 29 44
8 31 46
6 26 41
6 27 41
6 26 41
7 29 44
8 31 47
7 29 45
5 24 39
18 37 52
121 130 138
158 168 172
90 100 105
138 139 140
137 138 138
139 140 140
146 146 146
148 148 149
146 146 146
147 147 148
143 143 143
146 146 146
141 141 141
145 145 145
135 135 135
198 198 198
251 251 251
255 255 255
255 255 255
255 255 255
255 255 255
255 255 255
255 255 255
255 255 255
255 255 255
255 255 255
255 255 255
255 255 255
255 255 255
255 255 255
255 255 255
255 255 255
255 255 255
255 255 255
255 255 255
255 255 255
255 255 255
255 255 255
255 255 255
255 255 255
255 255 255
255 255 255
147 156 162
35 52 64
5 23 37
5 25 39
7 28 43
6 25 40
6 26 40
7 28 43
7 28 42
7 28 43
7 30 46
6 26 40
5 23 38
6 25 39
8 29 43
8 31 45
6 26 40
6 28 41
5 24 37
5 24 39
4 21 34
32 47 59
127 136 142
122 131 134
99 106 109
130 131 132
142 143 143
140 141 141
142 143 144
138 138 138
146 146 146
145 145 145
134 134 134
136 137 137
138 138 138
139 139 139
145 145 145
189 189 190
239 239 239
255 255 255
255 255 255
255 255 255
255 255 255
255 255 255
255 255 255
255 255 255
255 255 255
255 255 255
255 255 255
255 255 255
255 255 255
255 255 255
255 255 255
255 255 255
255 255 255
255 255 255
255 255 255
255 255 255
255 255 255
255 255 255
255 255 255
255 255 255
255 255 255
255 255 255
211 214 217
74 88 98
6 24 38
6 25 39
6 26 40
7 29 44
7 29 43
5 25 39
5 23 36
7 28 42
6 25 39
4 21 35
5 23 35
8 31 46
7 28 43
4 22 35
4 22 33
3 20 33
4 20 33
5 23 35
3 18 31
84 96 105
171 177 181
127 135 139
86 92 95
118 119 119
123 123 123
125 126 127
126 127 127
126 126 126
123 124 124
118 118 118
125 125 126
131 132 132
128 129 129
134 134 134
121 125 126
169 172 173
232 233 234
206 213 218
178 185 191
130 144 154
146 162 171
170 180 187
232 236 238
250 251 251
255 255 255
255 255 255
255 255 255
255 255 255
255 255 255
255 255 255
255 255 255
255 255 255
255 255 255
255 255 255
255 255 255
255 255 255
255 255 255
255 255 255
255 255 255
255 255 255
255 255 255
255 255 255
248 248 248
137 145 151
25 42 54
6 25 38
4 20 32
4 20 33
5 22 36
4 21 34
6 26 40
5 23 36
6 27 41
5 21 34
5 22 35
6 26 40
4 22 34
5 24 36
4 20 32
5 23 35
4 20 32
4 22 34
25 39 49
143 149 155
210 213 215
126 133 135
80 84 86
94 95 95
90 91 92
80 81 81
87 88 88
88 88 88
90 90 90
96 91 91
89 90 90
98 99 99
88 89 89
99 100 101
78 85 90
129 138 144
161 168 173
101 115 126
41 66 83
16 45 64
21 45 62
47 73 90
100 120 134
203 209 214
252 252 252
255 255 255
255 255 255
255 255 255
255 255 255
255 255 255
255 255 255
255 255 255
255 255 255
255 255 255
255 255 255
255 255 255
255 255 255
255 255 255
255 255 255
255 255 255
255 255 255
255 255 255
255 255 255
205 210 212
109 119 127
15 32 44
5 22 35
3 19 31
4 18 31
4 20 32
6 25 39
4 21 34
4 21 34
5 22 36
6 25 38
6 24 38
5 25 38
4 19 31
4 22 33
5 23 34
3 19 31
4 20 31
54 65 73
175 178 180
208 209 209
131 136 138
60 64 65
65 68 67
63 67 64
71 73 72
70 71 71
70 70 70
72 72 72
71 69 68
91 72 71
75 72 72
72 73 74
62 68 71
65 73 77
108 117 122
91 106 117
19 45 62
8 35 54
8 35 54
8 36 55
9 39 59
21 50 70
103 121 133
223 227 229
255 255 255
255 255 255
255 255 255
255 255 255
255 255 255
255 255 255
255 255 255
255 255 255
255 255 255
255 255 255
255 255 255
255 255 255
244 244 244
233 233 233
224 224 224
225 225 225
202 202 202
213 213 213
194 194 195
145 150 153
48 58 66
9 25 37
5 22 35
4 19 30
5 22 35
3 16 28
5 21 33
3 18 30
6 24 37
4 20 32
4 19 31
5 22 33
3 16 28
3 19 31
4 20 31
4 18 29
22 34 42
72 77 81
122 123 124
134 134 134
99 101 102
67 69 70
55 61 59
54 71 59
52 71 56
61 66 62
63 63 64
59 58 64
73 63 65
83 70 69
67 69 70
63 70 72
58 66 70
54 62 68
62 70 76
29 44 55
6 29 45
7 33 50
6 29 45
8 35 54
9 37 57
8 36 55
27 51 68
123 130 136
187 187 187
187 187 187
196 196 196
187 187 187
207 207 207
192 192 192
199 199 199
201 201 201
229 229 229
228 228 228
234 234 234
237 237 237
159 159 159
146 146 146
137 137 137
141 141 141
158 158 158
114 114 114
133 133 133
106 106 107
74 78 81
32 41 49
14 27 37
3 18 30
4 20 32
4 19 31
3 17 28
3 17 28
3 17 29
4 18 30
4 20 31
3 17 28
3 16 27
3 18 29
7 19 29
26 35 42
53 58 62
80 81 82
86 86 86
86 86 86
77 81 79
59 70 63
45 59 51
39 61 44
38 65 43
55 65 57
62 62 64
59 59 62
60 57 60
63 62 63
56 63 65
51 62 66
42 53 58
64 71 74
41 54 61
16 33 45
5 26 41
6 27 43
6 27 43
7 29 46
7 30 47
8 35 53
9 33 50
46 59 68
92 92 92
97 97 97
109 109 109
104 104 104
115 115 115
113 113 113
126 126 126
127 127 127
143 143 143
137 137 137
140 140 140
162 162 162
80 80 80
78 78 78
81 81 81
82 82 82
78 78 78
83 84 84
83 83 83
83 83 83
82 83 83
65 68 70
53 59 63
27 37 45
6 19 30
4 18 29
3 17 28
3 16 28
2 16 27
4 18 29
3 17 29
3 16 27
3 15 26
13 25 34
24 33 40
42 48 52
66 68 69
75 76 77
78 79 80
69 77 71
42 78 48
24 66 30
26 64 33
35 63 40
39 59 43
50 59 52
58 60 59
63 63 63
59 59 60
56 57 58
55 60 61
53 60 63
48 60 65
44 67 75
35 61 71
22 47 59
11 32 44
5 23 38
6 27 42
5 25 40
6 26 41
6 28 43
7 25 38
40 51 59
79 79 80
81 81 81
84 84 84
85 85 85
86 86 86
83 83 83
83 83 83
82 82 82
84 84 84
81 81 81
81 81 81
77 77 77
82 82 82
74 74 75
82 82 82
83 84 84
83 83 84
80 81 81
79 79 79
78 78 78
79 80 80
76 78 78
64 66 67
51 56 59
29 38 44
20 30 36
7 18 27
5 17 27
4 15 25
2 13 22
3 14 23
6 17 25
11 20 27
16 25 30
33 39 42
41 45 47
52 56 58
51 55 57
61 65 65
41 63 47
12 69 21
2 72 13
2 66 11
19 63 26
41 54 44
51 54 52
56 58 57
61 62 62
59 59 59
57 58 58
55 57 57
60 63 63
46 62 68
34 63 73
33 66 77
25 54 65
21 45 56
6 22 33
4 19 32
5 23 37
5 21 34
4 21 34
22 39 51
61 66 71
85 85 85
85 85 85
85 85 85
82 82 82
84 84 84
83 83 83
82 82 82
84 84 84
84 84 84
87 87 87
84 84 84
80 80 80
84 84 84
80 81 81
80 80 80
79 79 80
75 76 76
75 76 77
72 73 74
67 69 70
68 70 71
57 60 62
52 56 58
44 48 51
36 41 43
23 30 33
16 23 27
11 19 24
5 14 20
7 15 21
5 14 20
8 16 20
12 19 23
16 23 27
21 28 31
34 39 42
42 47 50
38 43 46
45 50 52
27 52 34
1 58 9
1 56 9
1 57 10
14 54 20
31 43 33
42 43 42
45 45 45
44 44 44
42 43 43
44 44 44
50 51 51
51 56 57
38 54 59
25 50 60
29 54 63
27 54 64
17 38 47
7 20 29
2 12 22
2 14 24
7 20 30
18 30 39
53 57 60
83 83 83
85 85 85
79 79 79
84 84 84
87 87 87
84 84 84
85 85 85
83 83 83
83 83 83
84 84 84
83 83 83
84 84 84
85 85 85
77 77 77
79 79 79
79 80 80
72 73 74
72 74 75
65 67 69
64 66 67
62 64 66
48 53 55
40 45 47
30 36 39
31 37 40
23 30 33
20 27 31
17 24 28
16 23 27
13 20 23
17 24 27
12 20 24
19 26 29
23 30 34
26 33 36
32 38 40
36 42 44
41 47 50
39 45 47
50 55 57
35 52 41
6 47 12
0 41 5
2 48 8
16 42 20
31 38 32
30 32 30
33 33 33
32 32 38
23 22 41
32 32 45
33 33 36
38 40 41
36 44 47
18 39 46
17 38 46
22 43 51
17 33 40
15 25 30
7 15 22
4 12 19
11 19 26
41 46 49
58 60 62
75 76 77
76 77 77
83 83 83
82 82 82
85 85 85
83 83 83
83 83 83
88 88 88
86 86 86
83 83 83
81 81 81
83 83 83
82 82 82
75 76 77
74 75 76
73 74 74
67 69 70
65 67 68
59 62 63
60 63 65
46 51 53
46 51 53
44 49 51
43 47 49
35 41 44
32 37 40
29 35 38
27 34 37
24 30 34
25 31 35
30 37 40
26 32 35
25 33 36
32 38 41
38 45 47
38 44 47
48 53 55
45 51 53
48 54 55
54 59 60
44 54 48
19 43 24
4 32 8
12 36 15
25 41 28
35 41 37
42 45 42
39 40 40
30 31 46
13 12 39
17 15 46
39 40 50
41 44 45
41 40 43
113 47 48
188 54 53
118 53 53
21 31 36
28 34 37
21 27 30
21 27 30
30 34 38
40 44 47
51 54 56
67 69 71
75 77 77
77 77 78
78 78 78
82 82 82
81 81 81
82 82 82
83 83 83
83 83 83
82 82 82
81 81 81
81 81 81
84 84 84
67 69 70
65 68 69
67 69 70
65 67 68
58 61 62
64 67 68
54 58 59
58 60 62
51 54 57
51 55 57
49 54 56
40 46 49
42 47 50
41 46 49
38 44 47
37 44 47
41 46 49
38 43 46
37 43 46
44 49 52
43 48 51
51 55 57
51 56 58
46 51 54
59 63 65
55 60 61
47 55 54
47 55 51
33 44 37
28 41 31
32 44 34
45 51 46
49 55 50
54 57 55
53 55 54
34 34 47
18 15 45
20 18 45
41 42 54
55 57 57
117 57 55
255 97 86
255 152 128
255 127 108
215 73 68
47 51 53
47 51 54
42 46 48
50 53 55
53 56 57
57 60 62
66 68 70
73 75 76
77 78 79
74 75 75
82 82 82
81 81 81
87 87 87
84 84 84
87 87 87
82 82 82
82 82 82
84 84 84
84 84 84
68 71 72
69 71 72
71 72 73
67 69 70
61 65 67
57 60 62
63 65 67
54 58 60
55 59 61
55 58 60
55 59 61
53 57 59
52 55 57
51 56 58
47 52 55
45 51 54
48 53 56
51 56 58
50 55 57
52 56 58
55 59 62
56 60 63
58 61 63
66 68 69
59 63 64
61 65 66
60 65 65
58 64 62
53 61 56
52 59 56
50 57 53
58 63 59
57 60 57
61 63 62
62 62 62
45 45 52
28 27 45
33 33 46
49 50 54
65 65 67
125 67 66
255 125 108
255 157 131
255 155 131
255 101 90
59 62 64
60 63 65
57 60 62
62 65 66
64 66 68
69 71 73
67 69 70
74 75 76
78 79 79
78 79 80
78 78 78
80 80 81
87 87 87
82 83 83
84 84 84
83 83 83
82 82 82
80 80 80
83 83 83
68 70 71
68 70 71
63 66 67
69 71 72
62 64 65
68 71 72
65 68 69
60 64 66
59 63 65
60 64 66
58 62 64
55 58 60
63 66 68
51 55 57
50 54 57
55 59 61
58 62 64
54 59 61
54 59 61
60 63 65
59 63 64
62 65 67
65 67 69
60 64 65
62 65 66
59 64 65
64 68 69
67 71 71
63 67 66
62 67 64
59 64 62
61 65 63
67 70 68
68 70 69
70 71 72
49 50 53
47 47 52
42 42 47
59 59 61
69 68 69
103 66 65
255 89 78
255 95 81
255 101 86
255 88 81
67 67 68
67 69 70
68 69 70
67 70 71
67 69 70
69 71 71
76 77 77
77 78 78
76 77 77
77 77 78
82 82 82
81 82 83
85 85 85
83 83 83
78 79 79
82 82 82
78 78 79
84 84 84
81 81 81
74 74 75
65 68 69
62 65 67
73 75 77
66 68 69
67 69 71
62 65 67
64 67 68
64 67 68
59 63 64
66 69 70
62 66 67
60 64 65
59 63 65
56 61 63
59 62 64
51 56 58
60 65 67
53 56 58
63 66 67
66 68 70
67 70 72
63 66 67
68 70 70
69 72 72
68 71 71
63 66 66
66 69 69
64 68 68
68 71 70
70 73 72
62 65 64
68 71 69
66 68 68
74 76 76
66 68 69
62 63 65
64 63 66
70 68 70
76 74 74
75 61 61
127 59 56
159 59 54
204 68 62
119 70 69
75 69 69
74 74 75
69 70 71
73 74 75
67 69 70
74 75 76
75 76 77
78 78 79
77 78 78
84 84 85
80 81 81
80 81 81
80 80 80
80 80 81
85 85 85
85 85 85
80 80 81
82 82 82
84 84 84
76 77 78
71 74 75
67 69 70
71 72 73
61 65 66
69 72 73
66 68 70
68 71 72
64 67 68
61 64 65
63 66 68
63 67 69
57 60 62
62 65 67
67 69 70
53 57 59
60 63 65
58 62 64
64 68 69
61 64 66
66 68 70
68 70 71
64 68 69
64 67 68
67 70 71
70 73 72
62 66 66
68 71 70
68 70 70
70 72 72
70 71 71
64 68 67
70 72 72
70 71 71
67 69 68
67 68 69
75 75 76
76 76 76
73 71 72
74 70 71
73 69 69
82 64 63
94 64 62
83 65 64
89 69 68
71 68 69
74 75 76
72 73 73
76 77 78
73 74 75
77 78 78
78 79 79
79 79 80
77 78 78
80 80 80
80 81 81
79 79 80
80 80 81
85 86 86
83 83 83
84 84 84
79 79 79
86 86 86
80 80 80
75 76 76
77 78 79
69 72 73
68 70 72
74 75 76
66 69 71
71 72 73
60 64 65
68 71 72
67 69 71
64 68 70
66 69 71
61 64 66
64 67 68
64 67 69
61 64 66
66 68 70
68 70 72
65 68 69
69 72 73
64 67 68
67 70 72
65 69 70
66 69 69
74 75 76
70 71 72
72 74 74
69 72 71
66 69 69
68 70 70
69 71 71
71 72 72
71 73 72
70 73 72
70 71 72
71 71 72
79 80 80
72 73 74
77 76 76
81 77 77
75 71 71
83 75 75
86 74 74
85 71 70
83 74 73
80 75 76
79 75 76
74 74 75
75 76 77
78 79 80
78 79 79
78 79 80
82 82 83
81 82 82
83 84 84
75 76 76
81 81 82
75 76 76
81 81 82
82 83 83
81 81 81
81 81 82
84 84 84
83 83 83
75 76 77
76 77 78
67 69 71
66 68 70
73 75 76
72 74 74
65 67 69
73 75 77
66 68 70
63 66 67
66 68 70
65 68 70
67 70 71
67 70 71
72 74 75
64 67 69
64 67 68
59 63 64
71 73 74
68 71 73
69 72 73
71 74 74
68 70 71
74 77 77
69 71 72
70 72 72
71 73 74
67 70 70
68 71 71
72 74 75
72 74 73
71 73 73
75 76 76
72 73 74
74 76 76
70 72 72
78 79 79
79 77 78
81 78 79
77 76 76
76 75 75
84 80 80
88 82 81
83 77 77
87 81 81
79 76 76
81 79 80
78 79 80
75 76 76
78 79 79
79 80 81
80 81 81
76 76 77
85 86 86
80 81 81
83 83 83
83 83 84
84 84 84
80 81 81
82 83 83
77 77 78
85 85 85
83 83 83
81 81 81
73 74 75
75 76 77
72 74 74
71 73 74
69 71 72
74 76 77
67 69 70
70 73 74
68 70 71
66 69 70
69 72 73
73 75 76
67 70 71
66 69 70
66 69 70
68 71 72
69 72 73
67 69 70
69 71 72
66 69 70
64 67 68
75 76 77
76 77 77
70 73 73
74 76 77
70 72 73
75 77 77
71 73 73
72 74 74
70 72 73
74 75 76
66 68 68
73 74 75
72 74 74
70 72 72
76 78 77
74 74 74
75 76 75
73 74 74
83 79 79
78 77 77
80 76 76
80 77 77
82 78 79
79 77 77
79 79 79
81 80 80
81 80 80
80 80 81
80 79 80
79 78 79
81 81 81
80 80 81
81 82 82
82 82 82
81 82 83
81 81 81
81 82 82
78 78 78
88 88 89
84 84 84
86 86 86
82 82 82
85 85 85
75 77 78
66 67 69
75 77 78
69 71 71
73 75 76
72 74 75
70 72 74
72 73 74
73 75 76
67 70 71
67 69 70
67 69 71
68 70 71
70 72 73
64 67 69
66 68 70
74 76 77
72 74 75
71 73 74
69 72 73
72 74 75
69 72 73
67 69 70
72 73 74
69 71 72
69 71 72
70 73 74
69 71 71
73 75 75
71 73 74
73 76 76
73 74 74
72 74 74
71 73 73
75 76 77
75 74 74
73 73 74
79 79 80
75 76 76
80 78 78
76 76 76
77 75 75
82 79 80
82 82 82
82 79 79
85 82 81
78 74 74
82 79 79
84 82 82
78 77 77
77 76 77
80 80 81
79 80 80
81 81 81
85 85 86
79 80 80
84 84 84
80 80 80
82 82 82
80 81 81
76 76 77
83 83 84
82 82 83
85 85 85
74 75 76
76 77 78
74 76 77
74 76 77
79 80 80
75 77 77
79 80 81
73 75 76
65 67 68
68 70 72
77 78 78
69 70 70
63 65 66
72 75 76
70 73 74
70 72 73
68 71 72
71 73 74
68 71 72
75 77 77
70 73 74
72 74 75
72 74 75
71 72 73
69 71 72
75 77 77
72 74 75
72 74 75
77 78 78
76 77 78
73 75 75
78 79 80
80 80 80
73 75 75
81 82 82
74 74 75
72 73 73
75 76 76
81 81 82
81 81 81
87 82 82
74 73 73
77 77 77
84 80 80
87 83 83
79 78 78
79 75 75
79 79 80
75 75 75
78 78 79
85 84 84
84 85 85
80 81 82
78 79 79
80 80 81
84 85 85
83 83 83
84 85 85
82 82 82
81 81 81
81 81 81
78 78 78
80 81 81
83 83 83
72 73 74
74 76 77
69 71 72
74 75 76
76 77 78
73 74 74
74 76 76
72 74 74
73 75 76
70 72 73
71 73 74
68 70 71
66 69 70
69 71 71
75 77 78
68 71 71
78 79 80
67 69 70
74 75 76
74 76 76
71 73 74
76 77 78
73 74 75
73 74 74
76 78 78
77 78 79
78 79 78
76 77 78
67 69 69
73 74 74
68 71 71
78 79 79
79 80 81
76 78 78
75 76 76
73 75 75
76 77 77
78 78 78
81 80 80
81 81 81
74 74 75
80 80 80
77 76 76
81 81 81
79 79 79
79 79 79
80 77 77
81 80 80
78 78 78
80 80 81
84 84 85
76 77 77
82 82 82
83 83 84
80 81 81
84 84 84
76 77 77
84 84 84
83 83 83
81 81 82
84 84 84
82 82 82
81 81 81
84 84 84
77 78 79
77 78 78
77 78 79
72 73 73
75 76 76
77 78 79
74 75 76
75 77 77
81 82 83
80 82 82
77 78 79
73 74 75
71 73 74
69 71 72
73 75 76
73 74 74
69 71 72
72 74 75
72 74 75
71 72 73
68 70 70
76 78 78
76 77 78
78 79 80
72 74 74
76 78 78
73 74 75
72 74 74
76 77 77
73 74 75
73 75 75
76 78 78
73 74 74
79 80 81
72 73 74
76 77 77
81 81 80
75 76 76
79 76 76
79 79 80
82 80 80
83 83 83
85 82 82
80 81 81
79 77 78
78 77 77
77 78 79
83 83 83
81 82 82
78 78 79
78 79 79
81 80 80
78 78 79
82 82 83
81 82 82
85 86 86
86 86 86
79 80 80
80 81 81
81 81 82
84 84 84
79 80 80
84 84 84
83 83 83
77 78 79
73 75 75
80 81 81
76 77 78
76 77 77
74 75 76
74 75 76
76 77 77
75 76 77
72 74 75
72 74 75
74 76 77
72 73 74
74 75 76
72 73 74
72 73 75
74 75 76
75 76 77
69 71 72
77 78 79
76 78 78
74 76 77
73 75 75
73 75 75
70 72 73
79 80 80
74 75 76
77 79 79
78 79 79
72 74 74
78 79 79
75 75 76
76 77 77
77 79 79
75 76 76
81 82 82
79 79 79
72 73 73
78 79 79
81 80 80
80 79 79
74 75 75
79 79 79
81 81 82
80 79 79
78 78 78
82 82 82
79 79 80
85 85 85
78 78 78
80 79 80
78 77 78
84 85 85
82 83 83
80 80 80
79 79 79
79 79 80
80 80 80
82 82 82
83 83 83
81 81 81
85 85 85
79 79 79
81 82 82
73 75 75
78 79 79
73 75 76
79 79 80
75 76 77
77 79 79
71 73 74
76 78 78
71 74 75
77 78 78
74 76 77
75 76 76
80 81 82
70 72 73
69 71 72
74 76 76
69 71 72
74 75 75
73 75 76
74 76 76
74 76 77
72 74 74
76 77 78
70 71 72
75 76 77
75 76 77
77 78 79
74 75 76
73 75 76
76 77 78
80 81 81
71 72 73
77 79 79
76 77 77
80 81 81
78 79 79
77 78 78
78 78 78
76 77 77
76 76 76
72 73 73
80 80 81
78 78 79
78 77 78
75 76 76
79 79 79
86 84 84
76 77 78
80 80 80
80 79 79
83 84 84
79 79 80
80 80 80
85 85 85
79 78 79
85 84 84
84 84 84
82 82 82
83 83 83
85 85 85
80 80 81
79 79 79
80 81 81
85 85 85
77 78 78
78 79 80
77 78 78
77 78 78
70 71 72
74 76 76
75 76 76
78 79 80
80 82 82
77 78 79
72 75 76
75 76 77
67 68 69
73 75 76
75 76 77
79 80 80
78 79 80
76 77 78
73 74 74
75 76 77
70 72 72
74 75 76
75 76 76
78 79 79
75 77 77
74 75 75
79 80 80
75 76 77
80 81 81
77 78 78
75 76 76
82 82 82
77 78 78
79 79 79
74 75 76
79 79 79
79 78 78
78 79 79
79 80 80
81 81 81
82 82 82
76 77 77
80 81 81
78 79 79
84 83 83
75 75 76
79 78 78
83 83 83
81 80 80
80 81 81
79 79 79
79 80 80
79 79 79
81 82 82
84 83 83
84 84 84
78 79 79
83 83 83
80 80 80
86 86 86
80 80 80
82 82 82
82 82 82
85 85 85
77 78 79
78 78 79
73 74 75
75 76 77
82 83 84
76 78 79
80 81 81
76 77 78
74 75 76
79 80 81
75 77 77
71 73 73
73 74 75
74 76 76
78 79 80
72 73 73
74 75 76
75 77 77
79 80 80
74 75 76
75 76 77
72 73 74
74 76 76
74 76 77
79 80 81
77 79 80
72 73 74
79 80 80
74 74 74
74 76 76
75 76 76
78 79 80
75 76 77
75 75 75
75 76 76
77 77 78
78 79 79
79 78 79
80 80 80
80 80 81
82 81 82
80 79 79
76 77 77
81 80 81
79 80 80
82 82 82
79 80 80
76 76 76
80 80 81
78 79 79
81 80 80
81 80 80
78 78 79
82 82 82
82 81 81
82 82 82
82 82 82
82 82 82
85 85 85
81 81 81
83 83 83
81 81 81
82 82 82
80 80 80
83 84 84
71 72 73
79 79 79
75 76 77
77 79 80
75 76 77
74 75 75
83 84 85
78 79 79
74 75 76
76 77 78
79 80 80
78 80 80
77 78 79
78 78 79
69 71 71
74 75 75
80 81 82
84 85 84
74 75 76
73 74 75
78 79 79
75 77 77
74 76 76
83 84 84
75 76 77
75 77 77
78 79 79
77 78 79
80 80 80
76 78 78
80 80 80
73 74 74
78 79 79
82 83 84
80 80 80
81 81 82
77 78 78
77 78 79
83 83 83
82 81 81
79 80 80
83 83 84
81 81 81
81 81 82
80 81 81
77 77 77
82 83 83
83 82 82
83 83 83
76 77 77
81 81 81
82 82 82
81 82 82
83 83 83
79 79 79
82 82 82
81 80 80
84 84 84
83 83 83
81 81 81
80 80 80
79 79 79
81 81 81
72 73 74
79 80 80
76 77 78
76 77 77
79 79 80
78 79 80
79 80 80
75 76 76
78 78 79
77 78 79
77 78 78
78 79 79
74 76 76
78 79 80
70 72 73
80 81 81
79 80 80
77 79 79
79 80 81
78 79 79
74 75 75
74 76 77
74 74 75
76 77 77
77 77 78
79 80 80
79 80 81
78 79 79
71 73 73
79 80 80
78 79 79
78 79 80
79 79 80
77 78 78
76 77 77
78 79 79
79 79 79
78 78 78
83 83 84
78 77 77
77 77 77
79 79 79
80 80 80
79 80 80
80 81 81
81 81 81
80 81 81
80 80 80
85 86 86
85 84 84
79 78 78
81 80 80
82 82 82
84 85 85
80 81 80
85 85 85
84 84 84
80 80 81
79 80 80
80 80 80
84 84 84
77 77 77
83 83 83
82 82 82
77 78 78
77 78 79
78 79 79
79 79 80
79 79 79
80 81 81
84 84 85
79 80 81
77 79 79
78 79 80
74 75 76
73 74 75
80 81 82
78 78 78
75 76 76
76 78 78
75 76 77
75 76 77
78 79 79
79 80 80
71 73 73
73 75 75
79 79 80
72 73 74
76 77 78
79 80 81
79 80 80
80 80 81
75 76 76
71 73 73
78 78 79
75 76 76
80 80 80
76 77 77
81 81 82
79 79 79
82 82 83
82 80 80
82 83 83
80 79 79
81 81 81
80 81 81
84 84 85
81 82 82
79 78 79
81 81 80
82 82 82
82 83 82
82 83 83
81 80 81
80 81 81
80 80 80
81 80 80
81 82 82
84 84 84
85 85 85
82 82 82
81 81 82
82 81 81
82 82 82
83 82 82
87 87 87
83 83 83
82 82 82
78 79 79
75 76 77
77 79 79
70 71 72
78 80 80
75 76 77
79 80 80
80 81 81
73 74 75
79 80 80
76 78 78
74 75 75
74 76 76
77 78 78
78 79 80
77 78 78
77 78 79
77 78 79
72 73 74
78 78 79
76 77 77
80 81 81
78 79 79
75 76 77
76 77 77
75 76 77
80 81 81
78 79 79
82 83 83
74 75 76
77 77 77
79 79 80
81 82 82
79 79 79
78 78 78
79 80 80
78 78 78
83 82 82
78 79 79
82 82 82
81 79 79
76 76 76
74 75 75
75 75 75
76 77 77
77 76 77
81 82 82
79 79 79
78 78 79
82 81 81
79 79 79
82 82 82
82 83 83
83 84 84
84 84 84
78 78 78
86 86 86
82 83 83
82 81 81
82 82 82
83 83 83
82 82 82
80 80 80
83 83 83
79 80 80
72 72 73
77 78 79
74 75 76
80 80 81
75 76 77
80 80 81
74 75 76
75 76 77
78 79 79
74 76 76
71 73 73
78 79 79
77 78 79
74 75 76
76 77 78
78 79 79
80 80 81
78 78 79
76 76 76
74 74 75
79 80 80
74 75 76
74 75 76
78 79 79
77 78 79
78 79 79
76 77 77
85 85 85
82 82 82
76 76 77
78 78 78
79 80 80
83 84 84
80 81 81
76 77 77
74 75 75
76 76 77
79 79 79
74 74 75
75 76 76
81 81 81
81 82 82
82 82 82
82 82 82
79 79 79
83 83 84
76 77 77
78 79 79
80 80 80
76 76 76
85 84 84
78 79 79
86 86 86
81 81 82
76 77 77
81 81 81
81 82 82
79 79 79
84 84 84
82 82 82
84 84 84
83 84 84
77 78 78
75 76 77
77 78 78
76 77 78
78 79 80
76 77 77
73 74 75
78 79 79
78 79 80
79 79 80
77 78 78
75 76 77
77 78 78
71 72 73
80 81 81
77 78 79
79 80 80
78 79 79
79 80 81
76 77 78
78 79 80
75 76 77
77 78 78
76 77 77
82 83 83
76 77 77
75 76 77
82 83 83
74 76 76
78 79 79
75 76 76
78 79 79
79 80 81
84 82 82
77 78 78
76 77 77
79 80 80
78 78 77
79 78 79
75 76 76
83 83 84
75 76 76
82 83 83
77 78 78
80 80 80
77 77 77
79 80 80
82 83 83
79 79 80
78 78 78
80 80 80
83 83 83
81 81 81
80 81 81
82 82 82
83 83 83
77 77 77
83 83 83
76 77 77
83 84 84
84 84 84
81 81 81
88 88 88
84 82 82
82 82 82
79 79 80
77 78 78
81 81 82
79 80 80
76 77 77
84 84 84
79 80 81
80 81 81
79 79 80
74 75 75
81 81 82
79 79 80
78 79 79
82 83 83
78 79 79
79 79 80
79 79 80
81 82 82
74 76 76
75 76 76
80 81 81
77 78 78
79 79 80
76 77 78
79 80 80
76 77 78
82 82 82
81 82 82
82 82 83
79 80 80
77 78 78
79 80 80
82 82 82
80 80 81
80 81 81
78 77 78
82 82 82
80 81 81
77 78 78
77 78 78
84 84 84
79 80 80
80 81 81
77 78 78
77 78 78
84 84 84
78 78 79
79 80 80
78 78 78
85 84 84
79 79 80
81 81 81
79 79 79
79 80 80
80 80 81
82 82 82
81 81 82
83 80 80
80 80 80
83 83 83
83 83 83
84 84 84
84 83 83
80 80 80
