P3
# Rays 2018
64 64
255
255 255 255
255 255 255
255 255 255
255 255 255
255 255 255
255 255 255
255 255 255
255 255 255
255 255 255
255 255 255
255 255 255
255 255 255
255 255 255
255 255 255
255 255 255
255 255 255
255 255 255
255 255 255
255 255 255
255 255 255
255 255 255
255 255 255
255 255 255
255 255 255
255 255 255
255 255 255
255 255 255
255 255 255
255 255 255
255 255 255
255 255 255
255 255 255
255 255 255
255 255 255
255 255 255
255 255 255
255 255 255
255 255 255
255 255 255
255 255 255
255 255 255
255 255 255
255 255 255
255 255 255
255 255 255
255 255 255
255 255 255
255 255 255
255 255 255
255 255 255
255 255 255
255 255 255
255 255 255
255 255 255
255 255 255
255 255 255
255 255 255
255 255 255
255 255 255
255 255 255
255 255 255
255 255 255
255 255 255
255 255 255
255 255 255
255 255 255
255 255 255
255 255 255
255 255 255
255 255 255
255 255 255
255 255 255
255 255 255
255 255 255
255 255 255
255 255 255
255 255 255
255 255 255
255 255 255
255 255 255
255 255 255
255 255 255
255 255 255
255 255 255
255 255 255
255 255 255
255 255 255
255 255 255
255 255 255
255 255 255
255 255 255
255 255 255
255 255 255
255 255 255
255 255 255
255 255 255
255 255 255
255 255 255
255 255 255
255 255 255
255 255 255
255 255 255
255 255 255
255 255 255
255 255 255
255 255 255
255 255 255
255 255 255
255 255 255
255 255 255
255 255 255
255 255 255
255 255 255
255 255 255
255 255 255
255 255 255
255 255 255
255 255 255
255 255 255
255 255 255
255 255 255
255 255 255
255 255 255
255 255 255
255 255 255
255 255 255
255 255 255
255 255 255
255 255 255
255 255 255
255 255 255
255 255 255
255 255 255
255 255 255
255 255 255
255 255 255
255 255 255
255 255 255
255 255 255
255 255 255
255 255 255
255 255 255
255 255 255
255 255 255
255 255 255
255 255 255
255 255 255
255 255 255
255 255 255
255 255 255
255 255 255
255 255 255
255 255 255
255 255 255
255 255 255
255 255 255
255 255 255
255 255 255
255 255 255
255 255 255
255 255 255
255 255 255
255 255 255
255 255 255
255 255 255
255 255 255
255 255 255
255 255 255
255 255 255
255 255 255
255 255 255
255 255 255
255 255 255
255 255 255
255 255 255
255 255 255
255 255 255
255 255 255
255 255 255
255 255 255
255 255 255
255 255 255
255 255 255
255 255 255
255 255 255
255 255 255
255 255 255
255 255 255
255 255 255
255 255 255
255 255 255
255 255 255
255 255 255
255 255 255
255 255 255
255 255 255
255 255 255
255 255 255
255 255 255
255 255 255
255 255 255
255 255 255
255 255 255
255 255 255
255 255 255
255 255 255
255 255 255
255 255 255
255 255 255
255 255 255
255 255 255
255 255 255
255 255 255
255 255 255
255 255 255
255 255 255
255 255 255
255 255 255
255 255 255
255 255 255
255 255 255
255 255 255
255 255 255
255 255 255
255 255 255
255 255 255
255 255 255
255 255 255
255 255 255
255 255 255
255 255 255
255 255 255
255 255 255
255 255 255
255 255 255
255 255 255
255 255 255
255 255 255
255 255 255
255 255 255
255 255 255
255 255 255
255 255 255
255 255 255
255 255 255
255 255 255
255 255 255
255 255 255
255 255 255
255 255 255
255 255 255
255 255 255
255 255 255
255 255 255
255 255 255
255 255 255
255 255 255
255 255 255
255 255 255
255 255 255
255 255 255
255 255 255
255 255 255
255 255 255
255 255 255
255 255 255
255 255 255
255 255 255
255 255 255
255 255 255
255 255 255
255 255 255
255 255 255
255 255 255
255 255 255
255 255 255
255 255 255
255 255 255
255 255 255
255 255 255
255 255 255
255 255 255
255 255 255
255 255 255
255 255 255
255 255 255
255 255 255
255 255 255
255 255 255
255 255 255
255 255 255
255 255 255
255 255 255
255 255 255
255 255 255
255 255 255
255 255 255
255 255 255
255 255 255
255 255 255
255 255 255
255 255 255
255 255 255
255 255 255
255 255 255
255 255 255
255 255 255
255 255 255
255 255 255
255 255 255
255 255 255
255 255 255
255 255 255
255 255 255
255 255 255
255 255 255
255 255 255
255 255 255
255 255 255
255 255 255
255 255 255
255 255 255
255 255 255
255 255 255
255 255 255
255 255 255
255 255 255
255 255 255
255 255 255
255 255 255
255 255 255
255 255 255
255 255 255
255 255 255
255 255 255
255 255 255
255 255 255
255 255 255
255 255 255
255 255 255
255 255 255
255 255 255
255 255 255
255 255 255
255 255 255
255 255 255
255 255 255
255 255 255
255 255 255
255 255 255
255 255 255
255 255 255
255 255 255
255 255 255
255 255 255
255 255 255
255 255 255
255 255 255
255 255 255
255 255 255
255 255 255
255 255 255
255 255 255
255 255 255
255 255 255
255 255 255
255 255 255
255 255 255
255 255 255
255 255 255
255 255 255
255 255 255
255 255 255
255 255 255
255 255 255
255 255 255
255 255 255
255 255 255
255 255 255
255 255 255
255 255 255
255 255 255
255 255 255
255 255 255
255 255 255
255 255 255
255 255 255
255 255 255
255 255 255
255 255 255
255 255 255
255 255 255
255 255 255
255 255 255
255 255 255
255 255 255
255 255 255
255 255 255
255 255 255
255 255 255
255 255 255
255 255 255
255 255 255
255 255 255
255 255 255
255 255 255
255 255 255
255 255 255
255 255 255
255 255 255
255 255 255
255 255 255
255 255 255
255 255 255
255 255 255
255 255 255
255 255 255
255 255 255
255 255 255
255 255 255
255 255 255
255 255 255
255 255 255
255 255 255
255 255 255
255 255 255
255 255 255
255 255 255
255 255 255
255 255 255
255 255 255
255 255 255
255 255 255
255 255 255
255 255 255
255 255 255
255 255 255
255 255 255
255 255 255
255 255 255
255 255 255
255 255 255
255 255 255
255 255 255
255 255 255
255 255 255
255 255 255
255 255 255
255 255 255
255 255 255
255 255 255
255 255 255
255 255 255
255 255 255
255 255 255
255 255 255
255 255 255
255 255 255
255 255 255
255 255 255
255 255 255
255 255 255
255 255 255
255 255 255
255 255 255
255 255 255
255 255 255
255 255 255
255 255 255
255 255 255
255 255 255
255 255 255
255 255 255
255 255 255
255 255 255
255 255 255
255 255 255
255 255 255
255 255 255
255 255 255
255 255 255
255 255 255
255 255 255
255 255 255
255 255 255
255 255 255
255 255 255
255 255 255
255 255 255
255 255 255
255 255 255
255 255 255
255 255 255
255 255 255
255 255 255
255 255 255
255 255 255
255 255 255
255 255 255
255 255 255
255 255 255
255 255 255
255 255 255
255 255 255
255 255 255
255 255 255
255 255 255
255 255 255
255 255 255
255 255 255
255 255 255
255 255 255
255 255 255
255 255 255
255 255 255
255 255 255
255 255 255
255 255 255
255 255 255
255 255 255
255 255 255
255 255 255
255 255 255
255 255 255
255 255 255
255 255 255
255 255 255
255 255 255
255 255 255
255 255 255
255 255 255
255 255 255
255 255 255
255 255 255
255 255 255
255 255 255
255 255 255
255 255 255
255 255 255
255 255 255
255 255 255
255 255 255
255 255 255
255 255 255
255 255 255
255 255 255
255 255 255
255 255 255
255 255 255
255 255 255
255 255 255
255 255 255
255 255 255
255 255 255
255 255 255
255 255 255
255 255 255
255 255 255
255 255 255
255 255 255
255 255 255
255 255 255
255 255 255
255 255 255
255 255 255
255 255 255
255 255 255
255 255 255
255 255 255
255 255 255
255 255 255
255 255 255
255 255 255
255 255 255
255 255 255
255 255 255
255 255 255
255 255 255
255 255 255
255 255 255
255 255 255
255 255 255
255 255 255
255 255 255
255 255 255
255 255 255
255 255 255
255 255 255
255 255 255
255 255 255
255 255 255
255 255 255
255 255 255
255 255 255
255 255 255
255 255 255
255 255 255
255 255 255
255 255 255
255 255 255
255 255 255
255 255 255
255 255 255
255 255 255
255 255 255
255 255 255
255 255 255
255 255 255
255 255 255
255 255 255
255 255 255
255 255 255
255 255 255
255 255 255
255 255 255
255 255 255
255 255 255
255 255 255
255 255 255
255 255 255
255 255 255
255 255 255
255 255 255
255 255 255
255 255 255
255 255 255
255 255 255
255 255 255
255 255 255
255 255 255
255 255 255
255 255 255
255 255 255
255 255 255
255 255 255
255 255 255
255 255 255
255 255 255
255 255 255
255 255 255
255 255 255
255 255 255
255 255 255
255 255 255
255 255 255
255 255 255
255 255 255
255 255 255
255 255 255
255 255 255
255 255 255
255 255 255
255 255 255
255 255 255
255 255 255
255 255 255
255 255 255
255 255 255
255 255 255
255 255 255
255 255 255
255 255 255
255 255 255
255 255 255
255 255 255
255 255 255
255 255 255
255 255 255
255 255 255
255 255 255
255 255 255
255 255 255
255 255 255
255 255 255
255 255 255
255 255 255
255 255 255
255 255 255
255 255 255
255 255 255
255 255 255
255 255 255
255 255 255
255 255 255
255 255 255
255 255 255
255 255 255
255 255 255
255 255 255
255 255 255
255 255 255
255 255 255
255 255 255
255 255 255
255 255 255
255 255 255
255 255 255
255 255 255
255 255 255
255 255 255
255 255 255
255 255 255
255 255 255
255 255 255
255 255 255
255 255 255
255 255 255
255 255 255
255 255 255
255 255 255
255 255 255
255 255 255
255 255 255
255 255 255
255 255 255
255 255 255
255 255 255
255 255 255
255 255 255
255 255 255
255 255 255
255 255 255
255 255 255
255 255 255
255 255 255
255 255 255
255 255 255
255 255 255
255 255 255
255 255 255
255 255 255
255 255 255
255 255 255
255 255 255
255 255 255
255 255 255
255 255 255
255 255 255
255 255 255
255 255 255
255 255 255
255 255 255
255 255 255
255 255 255
255 255 255
255 255 255
255 255 255
255 255 255
255 255 255
255 255 255
255 255 255
255 255 255
255 255 255
255 255 255
255 255 255
255 255 255
255 255 255
255 255 255
255 255 255
255 255 255
255 255 255
255 255 255
255 255 255
255 255 255
255 255 255
255 255 255
255 255 255
255 255 255
255 255 255
255 255 255
255 255 255
255 255 255
255 255 255
255 255 255
255 255 255
255 255 255
255 255 255
255 255 255
255 255 255
255 255 255
255 255 255
255 255 255
255 255 255
255 255 255
255 255 255
255 255 255
255 255 255
255 255 255
255 255 255
255 255 255
255 255 255
255 255 255
255 255 255
255 255 255
255 255 255
255 255 255
255 255 255
255 255 255
255 255 255
255 255 255
255 255 255
255 255 255
255 255 255
255 255 255
255 255 255
255 255 255
255 255 255
255 255 255
255 255 255
255 255 255
255 255 255
255 255 255
255 255 255
255 255 255
255 255 255
255 255 255
255 255 255
255 255 255
255 255 255
255 255 255
255 255 255
255 255 255
255 255 255
255 255 255
255 255 255
255 255 255
255 255 255
255 255 255
255 255 255
255 255 255
255 255 255
255 255 255
255 255 255
255 255 255
255 255 255
255 255 255
255 255 255
255 255 255
255 255 255
255 255 255
255 255 255
255 255 255
255 255 255
255 255 255
255 255 255
255 255 255
255 255 255
255 255 255
255 255 255
255 255 255
255 255 255
255 255 255
255 255 255
255 255 255
255 255 255
255 255 255
255 255 255
255 255 255
255 255 255
255 255 255
255 255 255
255 255 255
255 255 255
255 255 255
255 255 255
255 255 255
255 255 255
255 255 255
255 255 255
255 255 255
255 255 255
255 255 255
255 255 255
255 255 255
255 255 255
255 255 255
255 255 255
255 255 255
255 255 255
255 255 255
255 255 255
255 255 255
255 255 255
255 255 255
255 255 255
255 255 255
255 255 255
255 255 255
255 255 255
255 255 255
255 255 255
255 255 255
255 255 255
255 255 255
255 255 255
255 255 255
255 255 255
255 255 255
255 255 255
255 255 255
255 255 255
255 255 255
255 255 255
255 255 255
255 255 255
255 255 255
255 255 255
255 255 255
255 255 255
255 255 255
255 255 255
255 255 255
255 255 255
255 255 255
255 255 255
255 255 255
255 255 255
255 255 255
255 255 255
255 255 255
255 255 255
255 255 255
255 255 255
255 255 255
255 255 255
255 255 255
255 255 255
255 255 255
255 255 255
255 255 255
255 255 255
255 255 255
255 255 255
255 255 255
255 255 255
255 255 255
255 255 255
255 255 255
255 255 255
255 255 255
255 255 255
255 255 255
255 255 255
255 255 255
255 255 255
255 255 255
255 255 255
255 255 255
255 255 255
255 255 255
255 255 255
255 255 255
255 255 255
255 255 255
255 255 255
255 255 255
255 255 255
255 255 255
255 255 255
255 255 255
255 255 255
255 255 255
255 255 255
255 255 255
255 255 255
255 255 255
255 255 255
255 255 255
255 255 255
255 255 255
255 255 255
255 255 255
255 255 255
255 255 255
255 255 255
255 255 255
255 255 255
255 255 255
255 255 255
255 255 255
255 255 255
255 255 255
255 255 255
255 255 255
255 255 255
255 255 255
255 255 255
255 255 255
255 255 255
255 255 255
255 255 255
255 255 255
255 255 255
255 255 255
255 255 255
255 255 255
255 255 255
255 255 255
255 255 255
255 255 255
255 255 255
255 255 255
255 255 255
255 255 255
255 255 255
255 255 255
255 255 255
255 255 255
255 255 255
255 255 255
255 255 255
255 255 255
255 255 255
255 255 255
255 255 255
255 255 255
255 255 255
255 255 255
255 255 255
255 255 255
255 255 255
255 255 255
255 255 255
255 255 255
255 255 255
255 255 255
255 255 255
255 255 255
255 255 255
255 255 255
255 255 255
255 255 255
255 255 255
255 255 255
255 255 255
255 255 255
255 255 255
255 255 255
255 255 255
255 255 255
255 255 255
255 255 255
255 255 255
255 255 255
255 255 255
255 255 255
255 255 255
255 255 255
255 255 255
255 255 255
255 255 255
255 255 255
255 255 255
255 255 255
255 255 255
255 255 255
255 255 255
255 255 255
255 255 255
255 255 255
255 255 255
255 255 255
255 255 255
255 255 255
255 255 255
255 255 255
255 255 255
255 255 255
255 255 255
255 255 255
255 255 255
255 255 255
255 255 255
255 255 255
255 255 255
255 255 255
255 255 255
255 255 255
255 255 255
255 255 255
255 255 255
255 255 255
255 255 255
255 255 255
255 255 255
255 255 255
255 255 255
255 255 255
255 255 255
255 255 255
255 255 255
255 255 255
255 255 255
255 255 255
255 255 255
255 255 255
255 255 255
255 255 255
255 255 255
255 255 255
255 255 255
255 255 255
255 255 255
255 255 255
255 255 255
255 255 255
255 255 255
255 255 255
255 255 255
255 255 255
255 255 255
255 255 255
255 255 255
255 255 255
255 255 255
255 255 255
255 255 255
255 255 255
255 255 255
255 255 255
255 255 255
255 255 255
255 255 255
255 255 255
255 255 255
255 255 255
255 255 255
255 255 255
255 255 255
255 255 255
255 255 255
255 255 255
255 255 255
255 255 255
255 255 255
255 255 255
255 255 255
255 255 255
255 255 255
255 255 255
255 255 255
255 255 255
255 255 255
255 255 255
255 255 255
255 255 255
255 255 255
255 255 255
255 255 255
255 255 255
255 255 255
255 255 255
255 255 255
255 255 255
255 255 255
255 255 255
255 255 255
255 255 255
255 255 255
255 255 255
255 255 255
255 255 255
255 255 255
255 255 255
255 255 255
255 255 255
255 255 255
255 255 255
255 255 255
255 255 255
255 255 255
255 255 255
255 255 255
255 255 255
255 255 255
255 255 255
255 255 255
255 255 255
255 255 255
255 255 255
255 255 255
255 255 255
255 255 255
255 255 255
255 255 255
255 255 255
255 255 255
255 255 255
255 255 255
255 255 255
255 255 255
255 255 255
255 255 255
255 255 255
255 255 255
255 255 255
255 255 255
255 255 255
255 255 255
255 255 255
255 255 255
255 255 255
255 255 255
255 255 255
255 255 255
255 255 255
255 255 255
255 255 255
255 255 255
255 255 255
255 255 255
255 255 255
255 255 255
255 255 255
255 255 255
255 255 255
255 255 255
255 255 255
255 255 255
255 255 255
255 255 255
255 255 255
255 255 255
255 255 255
255 255 255
255 255 255
255 255 255
255 255 255
255 255 255
255 255 255
255 255 255
255 255 255
255 255 255
255 255 255
255 255 255
255 255 255
255 255 255
255 255 255
255 255 255
255 255 255
255 255 255
255 255 255
255 255 255
255 255 255
255 255 255
255 255 255
255 255 255
255 255 255
255 255 255
255 255 255
255 255 255
255 255 255
255 255 255
255 255 255
255 255 255
255 255 255
255 255 255
255 255 255
255 255 255
255 255 255
255 255 255
255 255 255
255 255 255
255 255 255
255 255 255
255 255 255
255 255 255
255 255 255
255 255 255
255 255 255
255 255 255
255 255 255
255 255 255
255 255 255
255 255 255
255 255 255
255 255 255
255 255 255
255 255 255
255 255 255
255 255 255
255 255 255
255 255 255
255 255 255
255 255 255
255 255 255
255 255 255
255 255 255
255 255 255
255 255 255
255 255 255
255 255 255
255 255 255
255 255 255
255 255 255
255 255 255
255 255 255
255 255 255
255 255 255
255 255 255
255 255 255
255 255 255
255 255 255
255 255 255
255 255 255
255 255 255
255 255 255
255 255 255
255 255 255
255 255 255
255 255 255
255 255 255
255 255 255
255 255 255
255 255 255
255 255 255
255 255 255
255 255 255
255 255 255
255 255 255
255 255 255
255 255 255
255 255 255
255 255 255
255 255 255
255 255 255
255 255 255
255 255 255
255 255 255
255 255 255
255 255 255
255 255 255
255 255 255
255 255 255
255 255 255
255 255 255
255 255 255
255 255 255
255 255 255
255 255 255
255 255 255
255 255 255
255 255 255
255 255 255
255 255 255
255 255 255
255 255 255
255 255 255
255 255 255
255 255 255
255 255 255
255 255 255
255 255 255
255 255 255
255 255 255
255 255 255
255 255 255
255 255 255
255 255 255
255 255 255
255 255 255
255 255 255
255 255 255
255 255 255
255 255 255
255 255 255
255 255 255
255 255 255
255 255 255
255 255 255
255 255 255
255 255 255
255 255 255
255 255 255
255 255 255
255 255 255
255 255 255
255 255 255
255 255 255
255 255 255
255 255 255
255 255 255
255 255 255
255 255 255
255 255 255
255 255 255
255 255 255
255 255 255
255 255 255
255 255 255
255 255 255
255 255 255
255 255 255
255 255 255
255 255 255
255 255 255
255 255 255
255 255 255
255 255 255
255 255 255
255 255 255
255 255 255
255 255 255
255 255 255
255 255 255
255 255 255
255 255 255
255 255 255
255 255 255
255 255 255
255 255 255
255 255 255
255 255 255
255 255 255
255 255 255
255 255 255
255 255 255
255 255 255
255 255 255
255 255 255
255 255 255
255 255 255
255 255 255
255 255 255
255 255 255
255 255 255
255 255 255
255 255 255
255 255 255
255 255 255
255 255 255
255 255 255
255 255 255
255 255 255
255 255 255
255 255 255
255 255 255
255 255 255
251 251 251
241 241 241
241 241 241
242 242 242
250 250 250
255 255 255
255 255 255
255 255 255
255 255 255
255 255 255
255 255 255
255 255 255
255 255 255
255 255 255
255 255 255
255 255 255
255 255 255
255 255 255
255 255 255
255 255 255
255 255 255
255 255 255
255 255 255
255 255 255
255 255 255
255 255 255
255 255 255
255 255 255
255 255 255
255 255 255
255 255 255
255 255 255
255 255 255
255 255 255
255 255 255
255 255 255
255 255 255
255 255 255
255 255 255
255 255 255
255 255 255
255 255 255
255 255 255
255 255 255
255 255 255
255 255 255
255 255 255
255 255 255
255 255 255
255 255 255
255 255 255
255 255 255
255 255 255
255 255 255
255 255 255
255 255 255
255 255 255
255 255 255
255 255 255
255 255 255
255 255 255
255 255 255
228 228 228
201 201 201
176 176 176
169 169 169
154 154 154
159 159 159
182 182 182
213 213 213
241 241 241
253 253 253
255 255 255
255 255 255
255 255 255
255 255 255
255 255 255
255 255 255
255 255 255
255 255 255
255 255 255
255 255 255
255 255 255
255 255 255
255 255 255
255 255 255
255 255 255
255 255 255
255 255 255
255 255 255
255 255 255
255 255 255
255 255 255
255 255 255
255 255 255
255 255 255
255 255 255
255 255 255
255 255 255
255 255 255
255 255 255
255 255 255
255 255 255
255 255 255
255 255 255
255 255 255
255 255 255
255 255 255
255 255 255
255 255 255
255 255 255
255 255 255
255 255 255
255 255 255
255 255 255
255 255 255
255 255 255
255 255 255
255 255 255
255 255 255
255 255 255
255 255 255
255 255 255
255 255 255
242 242 242
204 204 204
163 163 163
125 125 125
101 101 101
101 101 101
96 96 96
99 99 99
103 103 103
130 130 130
173 173 173
201 201 201
247 247 247
255 255 255
255 255 255
255 255 255
255 255 255
255 255 255
255 255 255
255 255 255
255 255 255
255 255 255
255 255 255
255 255 255
255 255 255
255 255 255
255 255 255
255 255 255
255 255 255
255 255 255
255 255 255
255 255 255
255 255 255
255 255 255
255 255 255
255 255 255
255 255 255
255 255 255
255 255 255
255 255 255
255 255 255
255 255 255
255 255 255
255 255 255
255 255 255
255 255 255
255 255 255
255 255 255
255 255 255
255 255 255
255 255 255
255 255 255
255 255 255
255 255 255
255 255 255
255 255 255
255 255 255
255 255 255
255 255 255
255 255 255
255 255 255
255 255 255
255 255 255
247 247 247
198 198 198
132 132 132
101 101 101
92 92 92
102 102 102
94 94 94
92 92 92
89 89 89
95 95 95
98 98 98
106 106 106
132 132 132
205 205 205
243 243 243
255 255 255
255 255 255
255 255 255
255 255 255
255 255 255
255 255 255
255 255 255
255 255 255
255 255 255
255 255 255
255 255 255
255 255 255
255 255 255
255 255 255
255 255 255
255 255 255
255 255 255
255 255 255
255 255 255
255 255 255
255 255 255
255 255 255
255 255 255
255 255 255
255 255 255
255 255 255
255 255 255
255 255 255
255 255 255
255 255 255
255 255 255
255 255 255
255 255 255
255 255 255
255 255 255
255 255 255
255 255 255
255 255 255
255 255 255
255 255 255
255 255 255
255 255 255
255 255 255
255 255 255
255 255 255
255 255 255
255 255 255
255 255 255
254 254 254
204 204 204
135 135 135
100 100 100
99 99 99
97 97 97
100 100 100
95 95 95
95 95 95
88 88 88
101 101 101
97 97 97
93 93 93
97 97 97
143 143 143
214 214 214
254 254 254
255 255 255
255 255 255
255 255 255
255 255 255
255 255 255
255 255 255
255 255 255
255 255 255
255 255 255
255 255 255
255 255 255
255 255 255
255 255 255
255 255 255
255 255 255
255 255 255
255 255 255
255 255 255
255 255 255
255 255 255
255 255 255
255 255 255
255 255 255
255 255 255
255 255 255
255 255 255
255 255 255
255 255 255
255 255 255
255 255 255
255 255 255
255 255 255
255 255 255
255 255 255
255 255 255
255 255 255
255 255 255
255 255 255
255 255 255
255 255 255
255 255 255
255 255 255
255 255 255
255 255 255
255 255 255
255 255 255
255 255 255
234 234 234
155 155 155
91 91 91
94 94 94
95 95 95
94 94 94
94 94 94
98 98 98
102 102 102
98 98 98
90 90 90
91 91 91
97 97 97
91 91 91
88 88 88
166 166 166
237 237 237
255 255 255
255 255 255
255 255 255
255 255 255
255 255 255
255 255 255
255 255 255
255 255 255
255 255 255
255 255 255
255 255 255
255 255 255
255 255 255
255 255 255
255 255 255
255 255 255
255 255 255
255 255 255
255 255 255
255 255 255
255 255 255
255 255 255
255 255 255
255 255 255
255 255 255
255 255 255
255 255 255
255 255 255
255 255 255
255 255 255
255 255 255
255 255 255
255 255 255
255 255 255
255 255 255
255 255 255
255 255 255
255 255 255
255 255 255
255 255 255
255 255 255
255 255 255
255 255 255
255 255 255
255 255 255
255 255 255
255 255 255
200 200 200
120 120 120
88 88 88
98 98 98
89 89 89
93 93 93
87 87 87
87 87 87
89 89 89
95 95 95
89 89 89
91 91 91
89 89 89
101 101 101
91 91 91
120 120 120
188 188 188
255 255 255
255 255 255
255 255 255
255 255 255
255 255 255
255 255 255
255 255 255
255 255 255
255 255 255
255 255 255
255 255 255
255 255 255
255 255 255
255 255 255
255 255 255
255 255 255
255 255 255
255 255 255
255 255 255
255 255 255
255 255 255
255 255 255
255 255 255
255 255 255
255 255 255
255 255 255
255 255 255
255 255 255
255 255 255
255 255 255
255 255 255
255 255 255
255 255 255
255 255 255
255 255 255
255 255 255
255 255 255
255 255 255
255 255 255
255 255 255
255 255 255
255 255 255
255 255 255
255 255 255
255 255 255
255 255 255
253 253 253
195 195 195
98 98 98
92 92 92
87 87 87
85 85 85
77 77 77
84 84 84
87 87 87
90 90 90
91 91 91
83 83 83
86 86 86
86 86 86
88 88 88
90 90 90
94 94 94
174 174 174
244 244 244
255 255 255
255 255 255
255 255 255
255 255 255
255 255 255
255 255 255
255 255 255
255 255 255
255 255 255
255 255 255
255 255 255
255 255 255
255 255 255
255 255 255
255 255 255
255 255 255
255 255 255
255 255 255
255 255 255
255 255 255
255 255 255
255 255 255
255 255 255
255 255 255
255 255 255
255 255 255
255 255 255
255 255 255
255 255 255
255 255 255
255 255 255
255 255 255
255 255 255
255 255 255
255 255 255
255 255 255
255 255 255
255 255 255
255 255 255
255 255 255
255 255 255
255 255 255
255 255 255
255 255 255
255 255 255
235 235 235
149 149 149
82 82 82
83 83 83
84 84 84
78 78 78
87 87 87
73 73 73
79 79 79
85 85 85
87 87 87
85 85 85
84 84 84
75 75 75
83 83 83
79 79 79
85 85 85
153 153 153
234 234 234
255 255 255
255 255 255
255 255 255
255 255 255
255 255 255
255 255 255
255 255 255
255 255 255
255 255 255
255 255 255
255 255 255
255 255 255
255 255 255
255 255 255
255 255 255
255 255 255
255 255 255
255 255 255
255 255 255
255 255 255
255 255 255
255 255 255
255 255 255
255 255 255
255 255 255
255 255 255
255 255 255
255 255 255
255 255 255
255 255 255
255 255 255
255 255 255
255 255 255
255 255 255
255 255 255
255 255 255
255 255 255
255 255 255
255 255 255
255 255 255
255 255 255
255 255 255
255 255 255
255 255 255
255 255 255
232 232 232
148 148 148
79 79 79
77 77 77
76 76 76
79 79 79
77 77 77
78 78 78
81 81 81
79 79 79
81 81 81
78 78 78
83 83 83
75 75 75
71 71 71
81 81 81
78 78 78
156 156 156
226 226 226
255 255 255
255 255 255
255 255 255
255 255 255
255 255 255
255 255 255
255 255 255
255 255 255
255 255 255
255 255 255
255 255 255
255 255 255
255 255 255
255 255 255
255 255 255
255 255 255
255 255 255
255 255 255
255 255 255
255 255 255
255 255 255
255 255 255
255 255 255
255 255 255
255 255 255
255 255 255
255 255 255
255 255 255
255 255 255
255 255 255
255 255 255
255 255 255
255 255 255
255 255 255
255 255 255
255 255 255
255 255 255
255 255 255
255 255 255
255 255 255
255 255 255
255 255 255
255 255 255
255 255 255
255 255 255
239 239 239
150 150 150
76 76 76
75 75 75
71 71 71
76 76 76
72 72 72
74 74 74
78 78 78
76 76 76
75 75 75
73 73 73
70 70 70
72 72 72
73 73 73
73 73 73
73 73 73
149 149 149
245 245 245
255 255 255
255 255 255
255 255 255
255 255 255
255 255 255
255 255 255
255 255 255
255 255 255
255 255 255
255 255 255
255 255 255
255 255 255
255 255 255
255 255 255
255 255 255
255 255 255
255 255 255
255 255 255
255 255 255
255 255 255
255 255 255
255 255 255
255 255 255
255 255 255
255 255 255
255 255 255
255 255 255
255 255 255
255 255 255
255 255 255
255 255 255
255 255 255
255 255 255
255 255 255
255 255 255
255 255 255
255 255 255
255 255 255
254 254 254
254 254 254
253 253 253
250 250 250
248 248 248
245 245 245
240 240 240
230 230 230
163 163 163
70 70 70
64 64 64
66 66 66
70 70 70
69 69 69
73 73 73
67 67 67
66 66 66
77 77 77
70 70 70
68 68 68
73 73 73
73 73 73
65 65 65
75 75 75
147 147 147
234 234 234
239 239 239
241 241 241
247 247 247
249 249 249
251 251 251
255 255 255
254 254 254
255 255 255
255 255 255
255 255 255
255 255 255
255 255 255
255 255 255
255 255 255
255 255 255
255 255 255
255 255 255
255 255 255
255 255 255
255 255 255
255 255 255
255 255 255
249 249 249
251 251 251
240 240 240
237 237 237
237 237 237
232 232 232
221 221 221
224 224 224
219 219 219
205 205 205
203 203 203
201 201 201
207 207 207
201 201 201
199 199 199
196 196 196
189 189 189
176 176 176
184 184 184
179 179 179
184 184 184
165 165 165
178 178 178
179 179 179
127 127 127
72 72 72
61 61 61
68 68 68
67 67 67
59 59 59
64 64 64
70 70 70
68 68 68
66 66 66
66 66 66
70 70 70
62 62 62
65 65 65
59 59 59
74 74 74
133 133 133
178 178 178
166 166 166
182 182 182
173 173 173
190 190 190
181 181 181
167 167 167
189 189 189
203 203 203
194 194 194
204 204 204
207 207 207
215 215 215
204 204 204
222 222 222
224 224 224
221 221 221
230 230 230
238 238 238
233 233 233
244 244 244
239 239 239
248 248 248
181 181 181
184 184 184
175 175 175
171 171 171
161 161 161
160 160 160
161 161 161
164 164 164
151 151 151
150 150 150
152 152 152
142 142 142
141 141 141
136 136 136
127 127 127
129 129 129
127 127 127
124 124 124
126 126 126
125 125 125
123 123 123
126 126 126
126 126 126
123 123 123
116 116 116
90 90 90
58 58 58
60 60 60
56 56 56
62 62 62
58 58 58
61 61 61
57 57 57
60 60 60
60 60 60
62 62 62
57 57 57
63 63 63
57 57 57
83 83 83
115 115 115
124 124 124
124 124 124
123 123 123
126 126 126
124 124 124
124 124 124
125 125 125
125 125 125
126 126 126
133 133 133
142 142 142
139 139 139
144 144 144
152 152 152
147 147 147
149 149 149
156 156 156
164 164 164
172 172 172
170 170 170
166 166 166
175 175 175
179 179 179
125 125 125
125 125 125
125 125 125
124 124 124
125 125 125
124 124 124
124 124 124
124 124 124
124 124 124
124 124 124
125 125 125
125 125 125
123 123 123
125 125 125
125 125 125
124 124 124
125 125 125
124 124 124
125 125 125
127 127 127
123 123 123
126 126 126
123 123 123
125 125 125
123 123 123
108 108 108
70 70 70
53 53 53
51 51 51
56 56 56
53 53 53
52 52 52
53 53 53
57 57 57
59 59 59
48 48 48
54 54 54
60 60 60
73 73 73
106 106 106
123 123 123
124 124 124
121 121 121
122 122 122
125 125 125
123 123 123
124 124 124
124 124 124
124 124 124
124 124 124
127 127 127
126 126 126
125 125 125
124 124 124
126 126 126
126 126 126
123 123 123
123 123 123
126 126 126
124 124 124
126 126 126
124 124 124
124 124 124
126 126 126
124 124 124
125 125 125
123 123 123
125 125 125
124 124 124
124 124 124
126 126 126
123 123 123
126 126 126
122 122 122
126 126 126
123 123 123
126 126 126
127 127 127
124 124 124
123 123 123
125 125 125
125 125 125
125 125 125
122 122 122
120 120 120
122 122 122
121 121 121
121 121 121
115 115 115
114 114 114
87 87 87
62 62 62
45 45 45
46 46 46
49 49 49
43 43 43
44 44 44
47 47 47
50 50 50
43 43 43
42 42 42
52 52 52
82 82 82
115 115 115
119 119 119
119 119 119
118 118 118
121 121 121
123 123 123
121 121 121
123 123 123
122 122 122
125 125 125
125 125 125
124 124 124
123 123 123
124 124 124
126 126 126
124 124 124
125 125 125
124 124 124
122 122 122
125 125 125
127 127 127
127 127 127
124 124 124
124 124 124
125 125 125
124 124 124
125 125 125
123 123 123
126 126 126
125 125 125
127 127 127
125 125 125
124 124 124
123 123 123
124 124 124
122 122 122
124 124 124
123 123 123
125 125 125
122 122 122
124 124 124
124 124 124
118 118 118
120 120 120
119 119 119
119 119 119
118 118 118
117 117 117
108 108 108
105 105 105
89 89 89
87 87 87
56 56 56
43 43 43
33 33 33
28 28 28
29 29 29
35 35 35
37 37 37
32 32 32
32 32 32
41 41 41
60 60 60
83 83 83
101 101 101
102 102 102
112 112 112
106 106 106
120 120 120
118 118 118
122 122 122
122 122 122
121 121 121
122 122 122
124 124 124
124 124 124
124 124 124
126 126 126
125 125 125
123 123 123
123 123 123
123 123 123
125 125 125
125 125 125
123 123 123
123 123 123
125 125 125
125 125 125
123 123 123
123 123 123
125 125 125
124 124 124
124 124 124
123 123 123
121 121 121
125 125 125
123 123 123
124 124 124
124 124 124
124 124 124
125 125 125
121 121 121
121 121 121
124 124 124
121 121 121
121 121 121
119 119 119
117 117 117
114 114 114
110 110 110
114 114 114
104 104 104
96 96 96
87 87 87
83 83 83
75 75 75
50 50 50
40 40 40
23 23 23
15 15 15
14 14 14
16 16 16
15 15 15
15 15 15
24 24 24
29 29 29
51 51 51
59 59 59
86 86 86
91 91 91
94 94 94
101 101 101
114 114 114
114 114 114
115 115 115
115 115 115
119 119 119
122 122 122
121 121 121
120 120 120
124 124 124
125 125 125
125 125 125
126 126 126
124 124 124
126 126 126
122 122 122
127 127 127
124 124 124
124 124 124
125 125 125
124 124 124
126 126 126
124 124 124
124 124 124
125 125 125
125 125 125
125 125 125
123 123 123
124 124 124
124 124 124
124 124 124
123 123 123
125 125 125
122 122 122
120 120 120
121 121 121
122 122 122
119 119 119
120 120 120
120 120 120
119 119 119
112 112 112
104 104 104
105 105 105
103 103 103
95 95 95
92 92 92
79 79 79
69 69 69
57 57 57
47 47 47
54 54 54
38 38 38
21 21 21
21 21 21
19 19 19
26 26 26
37 37 37
47 47 47
52 52 52
63 63 63
77 77 77
82 82 82
97 97 97
101 101 101
107 107 107
114 114 114
115 115 115
118 118 118
120 120 120
121 121 121
120 120 120
119 119 119
121 121 121
118 118 118
123 123 123
121 121 121
125 125 125
123 123 123
125 125 125
123 123 123
126 126 126
125 125 125
123 123 123
124 124 124
127 127 127
125 125 125
122 122 122
125 125 125
125 125 125
124 124 124
121 121 121
122 122 122
125 125 125
123 123 123
125 125 125
123 123 123
121 121 121
122 122 122
121 121 121
125 125 125
118 118 118
117 117 117
117 117 117
111 111 111
113 113 113
111 111 111
110 110 110
105 105 105
99 99 99
96 96 96
83 83 83
94 94 94
75 75 75
82 82 82
75 75 75
67 67 67
59 59 59
67 67 67
69 69 69
68 68 68
67 67 67
71 71 71
67 67 67
93 93 93
91 91 91
93 93 93
101 101 101
103 103 103
110 110 110
112 112 112
112 112 112
121 121 121
115 115 115
120 120 120
120 120 120
120 120 120
121 121 121
121 121 121
119 119 119
121 121 121
122 122 122
124 124 124
124 124 124
125 125 125
123 123 123
125 125 125
122 122 122
123 123 123
125 125 125
124 124 124
125 125 125
126 126 126
123 123 123
123 123 123
121 121 121
126 126 126
122 122 122
125 125 125
123 123 123
123 123 123
120 120 120
121 121 121
120 120 120
120 120 120
122 122 122
123 123 123
113 113 113
115 115 115
116 116 116
115 115 115
112 112 112
111 111 111
108 108 108
114 114 114
104 104 104
105 105 105
96 96 96
92 92 92
95 95 95
87 87 87
96 96 96
87 87 87
99 99 99
96 96 96
100 100 100
98 98 98
97 97 97
104 104 104
102 102 102
105 105 105
111 111 111
111 111 111
109 109 109
114 114 114
116 116 116
117 117 117
115 115 115
121 121 121
117 117 117
120 120 120
119 119 119
121 121 121
117 117 117
123 123 123
123 123 123
123 123 123
124 124 124
127 127 127
125 125 125
125 125 125
125 125 125
123 123 123
123 123 123
124 124 124
126 126 126
121 121 121
123 123 123
124 124 124
122 122 122
122 122 122
121 121 121
122 122 122
121 121 121
126 126 126
121 121 121
121 121 121
120 120 120
122 122 122
118 118 118
121 121 121
120 120 120
114 114 114
118 118 118
112 112 112
113 113 113
116 116 116
118 118 118
114 114 114
112 112 112
108 108 108
106 106 106
113 113 113
106 106 106
108 108 108
100 100 100
106 106 106
111 111 111
100 100 100
114 114 114
112 112 112
111 111 111
109 109 109
112 112 112
112 112 112
114 114 114
117 117 117
120 120 120
116 116 116
118 118 118
120 120 120
117 117 117
120 120 120
116 116 116
119 119 119
122 122 122
123 123 123
123 123 123
120 120 120
124 124 124
122 122 122
125 125 125
124 124 124
123 123 123
124 124 124
125 125 125
124 124 124
123 123 123
124 124 124
125 125 125
121 121 121
126 126 126
125 125 125
122 122 122
118 118 118
124 124 124
121 121 121
121 121 121
123 123 123
117 117 117
121 121 121
126 126 126
120 120 120
125 125 125
121 121 121
121 121 121
117 117 117
119 119 119
117 117 117
116 116 116
117 117 117
117 117 117
110 110 110
117 117 117
112 112 112
112 112 112
115 115 115
113 113 113
112 112 112
115 115 115
108 108 108
113 113 113
117 117 117
113 113 113
114 114 114
112 112 112
113 113 113
115 115 115
114 114 114
120 120 120
116 116 116
116 116 116
123 123 123
118 118 118
117 117 117
120 120 120
123 123 123
119 119 119
123 123 123
124 124 124
119 119 119
121 121 121
123 123 123
120 120 120
123 123 123
122 122 122
123 123 123
125 125 125
123 123 123
125 125 125
124 124 124
122 122 122
123 123 123
124 124 124
124 124 124
124 124 124
125 125 125
125 125 125
122 122 122
121 121 121
121 121 121
124 124 124
122 122 122
121 121 121
123 123 123
123 123 123
120 120 120
124 124 124
123 123 123
119 119 119
119 119 119
119 119 119
121 121 121
121 121 121
121 121 121
123 123 123
118 118 118
118 118 118
118 118 118
118 118 118
115 115 115
115 115 115
114 114 114
117 117 117
118 118 118
115 115 115
117 117 117
111 111 111
116 116 116
114 114 114
118 118 118
116 116 116
119 119 119
120 120 120
123 123 123
119 119 119
120 120 120
120 120 120
121 121 121
122 122 122
121 121 121
121 121 121
127 127 127
122 122 122
122 122 122
125 125 125
121 121 121
122 122 122
124 124 124
124 124 124
122 122 122
124 124 124
123 123 123
126 126 126
120 120 120
125 125 125
123 123 123
127 127 127
123 123 123
125 125 125
126 126 126
121 121 121
125 125 125
123 123 123
124 124 124
124 124 124
120 120 120
123 123 123
120 120 120
121 121 121
121 121 121
121 121 121
124 124 124
121 121 121
122 122 122
121 121 121
120 120 120
124 124 124
125 125 125
121 121 121
120 120 120
121 121 121
120 120 120
123 123 123
117 117 117
121 121 121
117 117 117
117 117 117
117 117 117
118 118 118
121 121 121
122 122 122
121 121 121
119 119 119
121 121 121
120 120 120
121 121 121
120 120 120
120 120 120
119 119 119
123 123 123
119 119 119
121 121 121
122 122 122
119 119 119
123 123 123
121 121 121
121 121 121
124 124 124
123 123 123
123 123 123
121 121 121
124 124 124
121 121 121
124 124 124
123 123 123
122 122 122
123 123 123
123 123 123
124 124 124
124 124 124
125 125 125
125 125 125
126 126 126
125 125 125
123 123 123
123 123 123
124 124 124
123 123 123
124 124 124
124 124 124
121 121 121
125 125 125
119 119 119
125 125 125
122 122 122
122 122 122
124 124 124
120 120 120
122 122 122
118 118 118
121 121 121
123 123 123
118 118 118
122 122 122
124 124 124
118 118 118
123 123 123
119 119 119
123 123 123
122 122 122
117 117 117
121 121 121
121 121 121
124 124 124
117 117 117
118 118 118
121 121 121
121 121 121
122 122 122
123 123 123
122 122 122
125 125 125
121 121 121
123 123 123
121 121 121
118 118 118
120 120 120
119 119 119
121 121 121
124 124 124
126 126 126
120 120 120
123 123 123
118 118 118
123 123 123
124 124 124
121 121 121
124 124 124
123 123 123
123 123 123
125 125 125
123 123 123
123 123 123
126 126 126
126 126 126
121 121 121
123 123 123
124 124 124
124 124 124
124 124 124
124 124 124
120 120 120
124 124 124
123 123 123
122 122 122
121 121 121
124 124 124
124 124 124
123 123 123
124 124 124
122 122 122
122 122 122
120 120 120
121 121 121
121 121 121
122 122 122
122 122 122
126 126 126
119 119 119
121 121 121
123 123 123
122 122 122
125 125 125
120 120 120
121 121 121
119 119 119
122 122 122
119 119 119
121 121 121
124 124 124
123 123 123
120 120 120
125 125 125
120 120 120
123 123 123
122 122 122
121 121 121
119 119 119
122 122 122
122 122 122
123 123 123
119 119 119
121 121 121
124 124 124
122 122 122
122 122 122
124 124 124
121 121 121
121 121 121
123 123 123
125 125 125
122 122 122
123 123 123
124 124 124
124 124 124
123 123 123
123 123 123
124 124 124
124 124 124
123 123 123
124 124 124
122 122 122
121 121 121
125 125 125
123 123 123
125 125 125
121 121 121
124 124 124
120 120 120
121 121 121
122 122 122
125 125 125
123 123 123
122 122 122
122 122 122
122 122 122
121 121 121
122 122 122
120 120 120
121 121 121
123 123 123
123 123 123
119 119 119
122 122 122
123 123 123
123 123 123
122 122 122
123 123 123
121 121 121
122 122 122
122 122 122
122 122 122
122 122 122
123 123 123
120 120 120
124 124 124
123 123 123
122 122 122
122 122 122
124 124 124
120 120 120
125 125 125
124 124 124
124 124 124
122 122 122
125 125 125
126 126 126
122 122 122
122 122 122
123 123 123
124 124 124
122 122 122
123 123 123
123 123 123
123 123 123
122 122 122
124 124 124
126 126 126
122 122 122
126 126 126
124 124 124
124 124 124
122 122 122
123 123 123
124 124 124
125 125 125
123 123 123
122 122 122
124 124 124
123 123 123
120 120 120
124 124 124
124 124 124
122 122 122
119 119 119
121 121 121
121 121 121
122 122 122
122 122 122
123 123 123
124 124 124
121 121 121
121 121 121
125 125 125
122 122 122
122 122 122
121 121 121
122 122 122
121 121 121
120 120 120
124 124 124
124 124 124
125 125 125
117 117 117
123 123 123
123 123 123
122 122 122
124 124 124
120 120 120
122 122 122
125 125 125
119 119 119
123 123 123
122 122 122
121 121 121
123 123 123
124 124 124
123 123 123
126 126 126
123 123 123
121 121 121
121 121 121
124 124 124
123 123 123
122 122 122
121 121 121
123 123 123
122 122 122
123 123 123
124 124 124
121 121 121
124 124 124
125 125 125
124 124 124
124 124 124
123 123 123
122 122 122
125 125 125
126 126 126
125 125 125
124 124 124
125 125 125
123 123 123
121 121 121
123 123 123
123 123 123
124 124 124
122 122 122
125 125 125
126 126 126
124 124 124
123 123 123
122 122 122
123 123 123
123 123 123
123 123 123
121 121 121
123 123 123
122 122 122
122 122 122
119 119 119
122 122 122
121 121 121
122 122 122
122 122 122
122 122 122
124 124 124
123 123 123
122 122 122
124 124 124
120 120 120
125 125 125
124 124 124
124 124 124
125 125 125
123 123 123
125 125 125
122 122 122
123 123 123
123 123 123
121 121 121
122 122 122
124 124 124
123 123 123
124 124 124
126 126 126
122 122 122
125 125 125
121 121 121
123 123 123
126 126 126
123 123 123
126 126 126
124 124 124
124 124 124
124 124 124
124 124 124
126 126 126
124 124 124
122 122 122
124 124 124
122 122 122
123 123 123
125 125 125
127 127 127
125 125 125
123 123 123
122 122 122
126 126 126
125 125 125
122 122 122
123 123 123
124 124 124
121 121 121
126 126 126
123 123 123
123 123 123
124 124 124
126 126 126
121 121 121
123 123 123
122 122 122
124 124 124
121 121 121
124 124 124
123 123 123
122 122 122
126 126 126
123 123 123
123 123 123
119 119 119
122 122 122
124 124 124
124 124 124
123 123 123
123 123 123
124 124 124
122 122 122
125 125 125
123 123 123
123 123 123
122 122 122
122 122 122
125 125 125
122 122 122
123 123 123
124 124 124
125 125 125
124 124 124
124 124 124
122 122 122
124 124 124
125 125 125
125 125 125
122 122 122
125 125 125
126 126 126
124 124 124
123 123 123
121 121 121
123 123 123
124 124 124
125 125 125
123 123 123
123 123 123
125 125 125
124 124 124
125 125 125
123 123 123
127 127 127
123 123 123
122 122 122
123 123 123
123 123 123
125 125 125
124 124 124
124 124 124
123 123 123
126 126 126
125 125 125
123 123 123
125 125 125
121 121 121
120 120 120
124 124 124
123 123 123
123 123 123
123 123 123
124 124 124
124 124 124
121 121 121
123 123 123
120 120 120
125 125 125
124 124 124
122 122 122
119 119 119
123 123 123
121 121 121
121 121 121
123 123 123
123 123 123
123 123 123
121 121 121
124 124 124
122 122 122
123 123 123
123 123 123
123 123 123
123 123 123
125 125 125
122 122 122
124 124 124
123 123 123
120 120 120
126 126 126
123 123 123
123 123 123
123 123 123
124 124 124
123 123 123
122 122 122
123 123 123
126 126 126
125 125 125
123 123 123
124 124 124
121 121 121
126 126 126
123 123 123
126 126 126
123 123 123
124 124 124
124 124 124
124 124 124
124 124 124
123 123 123
125 125 125
125 125 125
124 124 124
123 123 123
124 124 124
125 125 125
122 122 122
123 123 123
123 123 123
124 124 124
123 123 123
124 124 124
121 121 121
126 126 126
122 122 122
124 124 124
124 124 124
123 123 123
123 123 123
125 125 125
124 124 124
122 122 122
123 123 123
123 123 123
124 124 124
123 123 123
124 124 124
124 124 124
124 124 124
122 122 122
121 121 121
124 124 124
125 125 125
123 123 123
125 125 125
124 124 124
123 123 123
123 123 123
126 126 126
124 124 124
123 123 123
120 120 120
122 122 122
123 123 123
123 123 123
124 124 124
123 123 123
125 125 125
123 123 123
124 124 124
124 124 124
122 122 122
126 126 126
124 124 124
125 125 125
125 125 125
123 123 123
126 126 126
125 125 125
124 124 124
124 124 124
124 124 124
123 123 123
123 123 123
123 123 123
125 125 125
122 122 122
122 122 122
122 122 122
120 120 120
122 122 122
123 123 123
125 125 125
124 124 124
121 121 121
121 121 121
123 123 123
122 122 122
122 122 122
122 122 122
125 125 125
126 126 126
124 124 124
124 124 124
125 125 125
123 123 123
126 126 126
123 123 123
123 123 123
124 124 124
122 122 122
123 123 123
123 123 123
125 125 125
124 124 124
123 123 123
123 123 123
123 123 123
124 124 124
123 123 123
125 125 125
126 126 126
124 124 124
123 123 123
124 124 124
125 125 125
124 124 124
124 124 124
121 121 121
123 123 123
123 123 123
123 123 123
124 124 124
124 124 124
122 122 122
124 124 124
124 124 124
123 123 123
125 125 125
123 123 123
123 123 123
124 124 124
124 124 124
122 122 122
126 126 126
125 125 125
124 124 124
123 123 123
124 124 124
123 123 123
123 123 123
124 124 124
124 124 124
124 124 124
124 124 124
124 124 124
123 123 123
125 125 125
123 123 123
124 124 124
125 125 125
124 124 124
122 122 122
124 124 124
122 122 122
124 124 124
124 124 124
120 120 120
125 125 125
126 126 126
125 125 125
122 122 122
124 124 124
127 127 127
122 122 122
125 125 125
122 122 122
125 125 125
125 125 125
121 121 121
123 123 123
123 123 123
125 125 125
123 123 123
123 123 123
122 122 122
123 123 123
121 121 121
123 123 123
124 124 124
123 123 123
125 125 125
125 125 125
123 123 123
125 125 125
123 123 123
121 121 121
125 125 125
122 122 122
123 123 123
125 125 125
124 124 124
124 124 124
123 123 123
123 123 123
122 122 122
124 124 124
124 124 124
124 124 124
125 125 125
123 123 123
124 124 124
125 125 125
123 123 123
123 123 123
123 123 123
123 123 123
122 122 122
124 124 124
123 123 123
121 121 121
124 124 124
124 124 124
123 123 123
123 123 123
123 123 123
123 123 123
121 121 121
121 121 121
125 125 125
124 124 124
123 123 123
123 123 123
126 126 126
119 119 119
123 123 123
125 125 125
124 124 124
123 123 123
124 124 124
123 123 123
125 125 125
122 122 122
127 127 127
121 121 121
125 125 125
125 125 125
124 124 124
123 123 123
125 125 125
124 124 124
125 125 125
124 124 124
125 125 125
124 124 124
122 122 122
122 122 122
120 120 120
124 124 124
124 124 124
123 123 123
124 124 124
124 124 124
125 125 125
123 123 123
123 123 123
124 124 124
125 125 125
125 125 125
123 123 123
123 123 123
126 126 126
125 125 125
124 124 124
123 123 123
125 125 125
120 120 120
125 125 125
126 126 126
126 126 126
121 121 121
124 124 124
123 123 123
124 124 124
123 123 123
126 126 126
124 124 124
127 127 127
124 124 124
124 124 124
123 123 123
125 125 125
124 124 124
124 124 124
122 122 122
124 124 124
121 121 121
121 121 121
124 124 124
123 123 123
125 125 125
124 124 124
122 122 122
124 124 124
120 120 120
124 124 124
124 124 124
124 124 124
123 123 123
125 125 125
125 125 125
121 121 121
124 124 124
123 123 123
125 125 125
121 121 121
123 123 123
123 123 123
123 123 123
126 126 126
124 124 124
121 121 121
122 122 122
124 124 124
125 125 125
124 124 124
124 124 124
122 122 122
123 123 123
124 124 124
123 123 123
124 124 124
125 125 125
123 123 123
123 123 123
124 124 124
123 123 123
125 125 125
123 123 123
122 122 122
125 125 125
125 125 125
122 122 122
122 122 122
124 124 124
122 122 122
120 120 120
125 125 125
125 125 125
125 125 125
125 125 125
124 124 124
124 124 124
123 123 123
122 122 122
123 123 123
125 125 125
124 124 124
122 122 122
125 125 125
123 123 123
122 122 122
122 122 122
124 124 124
125 125 125
122 122 122
123 123 123
124 124 124
123 123 123
123 123 123
123 123 123
123 123 123
123 123 123
123 123 123
125 125 125
124 124 124
124 124 124
122 122 122
124 124 124
124 124 124
123 123 123
125 125 125
124 124 124
123 123 123
125 125 125
122 122 122
125 125 125
123 123 123
125 125 125
126 126 126
121 121 121
126 126 126
123 123 123
125 125 125
124 124 124
121 121 121
125 125 125
124 124 124
124 124 124
123 123 123
125 125 125
122 122 122
124 124 124
124 124 124
122 122 122
125 125 125
125 125 125
124 124 124
124 124 124
122 122 122
124 124 124
124 124 124
123 123 123
122 122 122
124 124 124
124 124 124
125 125 125
122 122 122
122 122 122
125 125 125
124 124 124
123 123 123
122 122 122
122 122 122
124 124 124
122 122 122
122 122 122
125 125 125
124 124 124
123 123 123
120 120 120
121 121 121
123 123 123
123 123 123
122 122 122
122 122 122
125 125 125
124 124 124
124 124 124
124 124 124
122 122 122
123 123 123
123 123 123
125 125 125
124 124 124
122 122 122
125 125 125
127 127 127
124 124 124
125 125 125
126 126 126
125 125 125
122 122 122
125 125 125
122 122 122
124 124 124
125 125 125
124 124 124
124 124 124
125 125 125
124 124 124
125 125 125
126 126 126
123 123 123
124 124 124
126 126 126
124 124 124
123 123 123
125 125 125
123 123 123
124 124 124
125 125 125
123 123 123
122 122 122
123 123 123
123 123 123
123 123 123
124 124 124
125 125 125
122 122 122
118 118 118
125 125 125
124 124 124
123 123 123
125 125 125
123 123 123
123 123 123
124 124 124
125 125 125
119 119 119
123 123 123
123 123 123
123 123 123
123 123 123
124 124 124
123 123 123
124 124 124
122 122 122
123 123 123
124 124 124
125 125 125
123 123 123
125 125 125
124 124 124
126 126 126
122 122 122
123 123 123
125 125 125
123 123 123
120 120 120
124 124 124
124 124 124
125 125 125
123 123 123
124 124 124
125 125 125
127 127 127
123 123 123
124 124 124
126 126 126
123 123 123
123 123 123
124 124 124
124 124 124
126 126 126
125 125 125
123 123 123
120 120 120
125 125 125
123 123 123
125 125 125
125 125 125
124 124 124
124 124 124
124 124 124
124 124 124
125 125 125
122 122 122
125 125 125
124 124 124
126 126 126
124 124 124
123 123 123
124 124 124
121 121 121
123 123 123
123 123 123
123 123 123
124 124 124
122 122 122
123 123 123
121 121 121
124 124 124
125 125 125
125 125 125
122 122 122
122 122 122
122 122 122
124 124 124
125 125 125
124 124 124
125 125 125
123 123 123
125 125 125
124 124 124
121 121 121
122 122 122
123 123 123
124 124 124
119 119 119
121 121 121
124 124 124
123 123 123
121 121 121
123 123 123
126 126 126
124 124 124
127 127 127
123 123 123
124 124 124
125 125 125
125 125 125
125 125 125
123 123 123
125 125 125
122 122 122
124 124 124
123 123 123
123 123 123
125 125 125
123 123 123
125 125 125
123 123 123
123 123 123
121 121 121
124 124 124
123 123 123
123 123 123
123 123 123
125 125 125
125 125 125
124 124 124
125 125 125
124 124 124
124 124 124
124 124 124
126 126 126
121 121 121
123 123 123
124 124 124
126 126 126
124 124 124
125 125 125
123 123 123
124 124 124
123 123 123
123 123 123
125 125 125
125 125 125
122 122 122
124 124 124
125 125 125
123 123 123
124 124 124
121 121 121
122 122 122
124 124 124
123 123 123
125 125 125
124 124 124
125 125 125
123 123 123
125 125 125
123 123 123
126 126 126
125 125 125
123 123 123
125 125 125
124 124 124
125 125 125
124 124 124
123 123 123
123 123 123
125 125 125
125 125 125
122 122 122
124 124 124
124 124 124
123 123 123
122 122 122
