P3
# Rays 2018
64 64
255
255 255 255
255 255 255
255 255 255
255 255 255
255 255 255
255 255 255
255 255 255
255 255 255
255 255 255
255 255 255
255 255 255
255 255 255
255 255 255
255 255 255
255 255 255
255 255 255
255 255 255
255 255 255
255 255 255
255 255 255
255 255 255
255 255 255
255 255 255
255 255 255
255 255 255
255 255 255
255 255 255
255 255 255
255 255 255
255 255 255
255 255 255
255 255 255
255 255 255
255 255 255
255 255 255
255 255 255
255 255 255
255 255 255
255 255 255
255 255 255
255 255 255
255 255 255
255 255 255
255 255 255
255 255 255
255 255 255
255 255 255
255 255 255
255 255 255
255 255 255
255 255 255
255 255 255
255 255 255
255 255 255
255 255 255
255 255 255
255 255 255
255 255 255
255 255 255
255 255 255
255 255 255
255 255 255
255 255 255
255 255 255
255 255 255
255 255 255
255 255 255
255 255 255
255 255 255
255 255 255
255 255 255
255 255 255
255 255 255
255 255 255
255 255 255
255 255 255
255 255 255
255 255 255
255 255 255
255 255 255
255 255 255
255 255 255
255 255 255
255 255 255
255 255 255
255 255 255
255 255 255
255 255 255
255 255 255
255 255 255
255 255 255
255 255 255
255 255 255
255 255 255
255 255 255
255 255 255
255 255 255
255 255 255
255 255 255
255 255 255
255 255 255
255 255 255
255 255 255
255 255 255
255 255 255
255 255 255
255 255 255
255 255 255
255 255 255
255 255 255
255 255 255
255 255 255
255 255 255
255 255 255
255 255 255
255 255 255
255 255 255
255 255 255
255 255 255
255 255 255
255 255 255
255 255 255
255 255 255
255 255 255
255 255 255
255 255 255
255 255 255
255 255 255
255 255 255
255 255 255
255 255 255
255 255 255
255 255 255
255 255 255
255 255 255
255 255 255
255 255 255
255 255 255
255 255 255
255 255 255
255 255 255
255 255 255
255 255 255
255 255 255
255 255 255
255 255 255
255 255 255
255 255 255
255 255 255
255 255 255
255 255 255
255 255 255
255 255 255
255 255 255
255 255 255
255 255 255
255 255 255
255 255 255
255 255 255
255 255 255
255 255 255
255 255 255
255 255 255
255 255 255
255 255 255
255 255 255
255 255 255
255 255 255
255 255 255
255 255 255
255 255 255
255 255 255
255 255 255
255 255 255
255 255 255
255 255 255
255 255 255
255 255 255
255 255 255
255 255 255
255 255 255
255 255 255
255 255 255
255 255 255
255 255 255
255 255 255
255 255 255
255 255 255
255 255 255
255 255 255
255 255 255
255 255 255
255 255 255
255 255 255
255 255 255
255 255 255
255 255 255
255 255 255
255 255 255
255 255 255
255 255 255
255 255 255
255 255 255
255 255 255
255 255 255
255 255 255
255 255 255
255 255 255
255 255 255
255 255 255
255 255 255
255 255 255
255 255 255
255 255 255
255 255 255
255 255 255
255 255 255
255 255 255
255 255 255
255 255 255
255 255 255
255 255 255
255 255 255
255 255 255
255 255 255
255 255 255
255 255 255
255 255 255
255 255 255
255 255 255
255 255 255
255 255 255
255 255 255
255 255 255
255 255 255
255 255 255
255 255 255
255 255 255
255 255 255
255 255 255
255 255 255
255 255 255
255 255 255
255 255 255
255 255 255
255 255 255
255 255 255
255 255 255
255 255 255
255 255 255
255 255 255
255 255 255
255 255 255
255 255 255
255 255 255
255 255 255
255 255 255
255 255 255
255 255 255
255 255 255
255 255 255
255 255 255
255 255 255
255 255 255
255 255 255
255 255 255
255 255 255
255 255 255
255 255 255
255 255 255
255 255 255
255 255 255
255 255 255
255 255 255
255 255 255
255 255 255
255 255 255
255 255 255
255 255 255
255 255 255
255 255 255
255 255 255
255 255 255
255 255 255
255 255 255
255 255 255
255 255 255
255 255 255
255 255 255
255 255 255
255 255 255
255 255 255
255 255 255
255 255 255
255 255 255
255 255 255
255 255 255
255 255 255
255 255 255
255 255 255
255 255 255
255 255 255
255 255 255
255 255 255
255 255 255
255 255 255
255 255 255
255 255 255
255 255 255
255 255 255
255 255 255
255 255 255
255 255 255
255 255 255
255 255 255
255 255 255
255 255 255
255 255 255
255 255 255
255 255 255
255 255 255
255 255 255
255 255 255
255 255 255
255 255 255
255 255 255
255 255 255
255 255 255
255 255 255
255 255 255
255 255 255
255 255 255
255 255 255
255 255 255
255 255 255
255 255 255
255 255 255
255 255 255
255 255 255
255 255 255
255 255 255
255 255 255
255 255 255
255 255 255
255 255 255
255 255 255
255 255 255
255 255 255
255 255 255
255 255 255
255 255 255
255 255 255
255 255 255
255 255 255
255 255 255
255 255 255
255 255 255
255 255 255
255 255 255
255 255 255
255 255 255
255 255 255
255 255 255
255 255 255
255 255 255
255 255 255
255 255 255
255 255 255
255 255 255
255 255 255
255 255 255
255 255 255
255 255 255
255 255 255
255 255 255
255 255 255
255 255 255
255 255 255
255 255 255
255 255 255
255 255 255
255 255 255
255 255 255
255 255 255
255 255 255
255 255 255
255 255 255
255 255 255
255 255 255
255 255 255
255 255 255
255 255 255
255 255 255
255 255 255
255 255 255
255 255 255
255 255 255
255 255 255
255 255 255
255 255 255
255 255 255
255 255 255
255 255 255
255 255 255
255 255 255
255 255 255
255 255 255
255 255 255
255 255 255
255 255 255
255 255 255
255 255 255
255 255 255
255 255 255
255 255 255
255 255 255
255 255 255
255 255 255
255 255 255
255 255 255
255 255 255
255 255 255
255 255 255
255 255 255
255 255 255
255 255 255
255 255 255
255 255 255
255 255 255
255 255 255
255 255 255
255 255 255
255 255 255
255 255 255
255 255 255
255 255 255
255 255 255
255 255 255
255 255 255
255 255 255
255 255 255
255 255 255
255 255 255
255 255 255
255 255 255
255 255 255
255 255 255
255 255 255
255 255 255
255 255 255
255 255 255
255 255 255
255 255 255
255 255 255
255 255 255
255 255 255
255 255 255
255 255 255
255 255 255
255 255 255
255 255 255
255 255 255
255 255 255
255 255 255
255 255 255
255 255 255
255 255 255
255 255 255
255 255 255
255 255 255
255 255 255
255 255 255
255 255 255
255 255 255
255 255 255
255 255 255
255 255 255
255 255 255
255 255 255
255 255 255
255 255 255
255 255 255
255 255 255
255 255 255
255 255 255
255 255 255
255 255 255
255 255 255
255 255 255
255 255 255
255 255 255
255 255 255
255 255 255
255 255 255
255 255 255
255 255 255
255 255 255
255 255 255
255 255 255
255 255 255
255 255 255
255 255 255
255 255 255
255 255 255
255 255 255
255 255 255
255 255 255
255 255 255
255 255 255
255 255 255
255 255 255
255 255 255
255 255 255
255 255 255
255 255 255
255 255 255
255 255 255
255 255 255
255 255 255
255 255 255
255 255 255
255 255 255
255 255 255
255 255 255
255 255 255
255 255 255
255 255 255
255 255 255
255 255 255
255 255 255
255 255 255
255 255 255
255 255 255
255 255 255
255 255 255
255 255 255
255 255 255
255 255 255
255 255 255
255 255 255
255 255 255
255 255 255
255 255 255
255 255 255
255 255 255
255 255 255
255 255 255
255 255 255
255 255 255
255 255 255
255 255 255
255 255 255
255 255 255
255 255 255
255 255 255
255 255 255
255 255 255
255 255 255
255 255 255
255 255 255
255 255 255
255 255 255
255 255 255
255 255 255
255 255 255
255 255 255
255 255 255
255 255 255
255 255 255
255 255 255
255 255 255
255 255 255
255 255 255
255 255 255
255 255 255
255 255 255
255 255 255
255 255 255
255 255 255
255 255 255
255 255 255
255 255 255
255 255 255
255 255 255
255 255 255
255 255 255
255 255 255
255 255 255
255 255 255
255 255 255
255 255 255
255 255 255
255 255 255
255 255 255
255 255 255
255 255 255
255 255 255
255 255 255
255 255 255
255 255 255
255 255 255
255 255 255
255 255 255
255 255 255
255 255 255
255 255 255
255 255 255
255 255 255
255 255 255
255 255 255
255 255 255
255 255 255
255 255 255
255 255 255
255 255 255
255 255 255
255 255 255
255 255 255
255 255 255
255 255 255
255 255 255
255 255 255
255 255 255
255 255 255
255 255 255
255 255 255
255 255 255
255 255 255
255 255 255
255 255 255
255 255 255
255 255 255
255 255 255
255 255 255
255 255 255
255 255 255
255 255 255
255 255 255
255 255 255
255 255 255
255 255 255
255 255 255
255 255 255
255 255 255
255 255 255
255 255 255
255 255 255
255 255 255
255 255 255
255 255 255
255 255 255
255 255 255
255 255 255
255 255 255
255 255 255
255 255 255
255 255 255
255 255 255
255 255 255
255 255 255
255 255 255
255 255 255
255 255 255
255 255 255
255 255 255
255 255 255
255 255 255
255 255 255
255 255 255
255 255 255
255 255 255
255 255 255
255 255 255
255 255 255
255 255 255
255 255 255
255 255 255
255 255 255
255 255 255
255 255 255
255 255 255
255 255 255
255 255 255
255 255 255
255 255 255
255 255 255
255 255 255
255 255 255
255 255 255
255 255 255
255 255 255
255 255 255
255 255 255
255 255 255
255 255 255
255 255 255
255 255 255
255 255 255
255 255 255
255 255 255
255 255 255
255 255 255
255 255 255
255 255 255
255 255 255
255 255 255
255 255 255
255 255 255
255 255 255
255 255 255
255 255 255
255 255 255
255 255 255
255 255 255
255 255 255
255 255 255
255 255 255
255 255 255
255 255 255
255 255 255
255 255 255
255 255 255
255 255 255
255 255 255
255 255 255
255 255 255
255 255 255
255 255 255
255 255 255
255 255 255
255 255 255
255 255 255
255 255 255
255 255 255
255 255 255
255 255 255
255 255 255
255 255 255
255 255 255
255 255 255
255 255 255
255 255 255
255 255 255
255 255 255
255 255 255
255 255 255
255 255 255
255 255 255
255 255 255
255 255 255
255 255 255
255 255 255
255 255 255
255 255 255
255 255 255
255 255 255
255 255 255
255 255 255
255 255 255
255 255 255
255 255 255
255 255 255
255 255 255
255 255 255
255 255 255
255 255 255
255 255 255
255 255 255
255 255 255
255 255 255
255 255 255
255 255 255
255 255 255
255 255 255
255 255 255
255 255 255
255 255 255
255 255 255
255 255 255
255 255 255
255 255 255
255 255 255
255 255 255
255 255 255
255 255 255
255 255 255
255 255 255
255 255 255
255 255 255
255 255 255
255 255 255
255 255 255
255 255 255
255 255 255
255 255 255
255 255 255
255 255 255
255 255 255
255 255 255
255 255 255
255 255 255
255 255 255
255 255 255
255 255 255
255 255 255
255 255 255
255 255 255
255 255 255
255 255 255
255 255 255
255 255 255
255 255 255
255 255 255
255 255 255
255 255 255
255 255 255
255 255 255
255 255 255
255 255 255
255 255 255
255 255 255
255 255 255
255 255 255
255 255 255
255 255 255
255 255 255
255 255 255
255 255 255
255 255 255
255 255 255
255 255 255
255 255 255
255 255 255
255 255 255
255 255 255
255 255 255
255 255 255
255 255 255
255 255 255
255 255 255
255 255 255
255 255 255
255 255 255
255 255 255
255 255 255
255 255 255
255 255 255
255 255 255
255 255 255
255 255 255
255 255 255
255 255 255
255 255 255
255 255 255
255 255 255
255 255 255
255 255 255
255 255 255
255 255 255
255 255 255
255 255 255
255 255 255
255 255 255
255 255 255
255 255 255
255 255 255
255 255 255
255 255 255
255 255 255
255 255 255
255 255 255
255 255 255
255 255 255
255 255 255
255 255 255
255 255 255
255 255 255
255 255 255
255 255 255
255 255 255
255 255 255
255 255 255
255 255 255
255 255 255
255 255 255
255 255 255
255 255 255
255 255 255
255 255 255
255 255 255
255 255 255
255 255 255
255 255 255
255 255 255
255 255 255
255 255 255
255 255 255
255 255 255
255 255 255
255 255 255
255 255 255
255 255 255
255 255 255
255 255 255
255 255 255
255 255 255
255 255 255
255 255 255
255 255 255
255 255 255
255 255 255
255 255 255
255 255 255
255 255 255
255 255 255
255 255 255
255 255 255
255 255 255
255 255 255
255 255 255
255 255 255
255 255 255
255 255 255
255 255 255
255 255 255
255 255 255
255 255 255
255 255 255
255 255 255
255 255 255
255 255 255
255 255 255
255 255 255
255 255 255
255 255 255
255 255 255
255 255 255
255 255 255
255 255 255
255 255 255
255 255 255
255 255 255
255 255 255
255 255 255
255 255 255
255 255 255
255 255 255
255 255 255
255 255 255
255 255 255
255 255 255
255 255 255
255 255 255
255 255 255
255 255 255
255 255 255
255 255 255
255 255 255
255 255 255
255 255 255
255 255 255
255 255 255
255 255 255
255 255 255
255 255 255
255 255 255
255 255 255
255 255 255
255 255 255
255 255 255
255 255 255
255 255 255
255 255 255
255 255 255
255 255 255
255 255 255
255 255 255
255 255 255
255 255 255
255 255 255
255 255 255
255 255 255
255 255 255
255 255 255
255 255 255
255 255 255
255 255 255
255 255 255
255 255 255
255 255 255
255 255 255
255 255 255
255 255 255
255 255 255
255 255 255
255 255 255
255 255 255
255 255 255
255 255 255
255 255 255
255 255 255
255 255 255
255 255 255
255 255 255
255 255 255
255 255 255
255 255 255
255 255 255
255 255 255
255 255 255
255 255 255
255 255 255
255 255 255
255 255 255
255 255 255
255 255 255
255 255 255
255 255 255
255 255 255
255 255 255
255 255 255
255 255 255
255 255 255
255 255 255
255 255 255
255 255 255
255 255 255
255 255 255
255 255 255
255 255 255
255 255 255
255 255 255
255 255 255
255 255 255
255 255 255
255 255 255
255 255 255
255 255 255
255 255 255
255 255 255
255 255 255
255 255 255
255 255 255
255 255 255
255 255 255
255 255 255
255 255 255
255 255 255
255 255 255
255 255 255
255 255 255
255 255 255
255 255 255
255 255 255
255 255 255
255 255 255
255 255 255
255 255 255
255 255 255
255 255 255
255 255 255
255 255 255
255 255 255
255 255 255
255 255 255
255 255 255
255 255 255
255 255 255
255 255 255
255 255 255
255 255 255
255 255 255
255 255 255
255 255 255
255 255 255
255 255 255
255 255 255
255 255 255
255 255 255
255 255 255
255 255 255
255 255 255
255 255 255
255 255 255
255 255 255
255 255 255
255 255 255
255 255 255
255 255 255
255 255 255
255 255 255
255 255 255
255 255 255
255 255 255
255 255 255
255 255 255
255 255 255
255 255 255
255 255 255
255 255 255
255 255 255
255 255 255
255 255 255
255 255 255
255 255 255
255 255 255
255 255 255
255 255 255
255 255 255
255 255 255
255 255 255
255 255 255
255 255 255
255 255 255
255 255 255
255 255 255
255 255 255
255 255 255
255 255 255
255 255 255
255 255 255
255 255 255
255 255 255
255 255 255
255 255 255
255 255 255
255 255 255
255 255 255
255 255 255
255 255 255
255 255 255
255 255 255
255 255 255
255 255 255
255 255 255
255 255 255
255 255 255
255 255 255
255 255 255
255 255 255
255 255 255
255 255 255
255 255 255
255 255 255
255 255 255
255 255 255
255 255 255
255 255 255
255 255 255
255 255 255
255 255 255
255 255 255
255 255 255
255 255 255
255 255 255
255 255 255
255 255 255
255 255 255
255 255 255
255 255 255
255 255 255
255 255 255
255 255 255
255 255 255
255 255 255
255 255 255
255 255 255
255 255 255
255 255 255
255 255 255
255 255 255
255 255 255
255 255 255
255 255 255
255 255 255
255 255 255
255 255 255
255 255 255
255 255 255
255 255 255
255 255 255
255 255 255
255 255 255
255 255 255
255 255 255
255 255 255
255 255 255
255 255 255
255 255 255
255 255 255
255 255 255
255 255 255
255 255 255
255 255 255
255 255 255
255 255 255
255 255 255
255 255 255
255 255 255
255 255 255
255 255 255
255 255 255
255 255 255
255 255 255
255 255 255
255 255 255
255 255 255
255 255 255
255 255 255
255 255 255
255 255 255
255 255 255
255 255 255
255 255 255
255 255 255
255 255 255
255 255 255
255 255 255
255 255 255
255 255 255
255 255 255
255 255 255
255 255 255
255 255 255
255 255 255
255 255 255
255 255 255
255 255 255
255 255 255
255 255 255
255 255 255
255 255 255
255 255 255
255 255 255
255 255 255
255 255 255
255 255 255
255 255 255
255 255 255
255 255 255
255 255 255
255 255 255
255 255 255
255 255 255
255 255 255
255 255 255
255 255 255
255 255 255
255 255 255
255 255 255
255 255 255
255 255 255
255 255 255
255 255 255
255 255 255
255 255 255
255 255 255
255 255 255
255 255 255
255 255 255
255 255 255
255 255 255
255 255 255
255 255 255
255 255 255
255 255 255
255 255 255
255 255 255
255 255 255
255 255 255
255 255 255
255 255 255
255 255 255
255 255 255
255 255 255
255 255 255
255 255 255
255 255 255
255 255 255
255 255 255
255 255 255
255 255 255
255 255 255
255 255 255
255 255 255
255 255 255
255 255 255
255 255 255
255 255 255
255 255 255
255 255 255
255 255 255
255 255 255
255 255 255
255 255 255
255 255 255
255 255 255
255 255 255
255 255 255
255 255 255
255 255 255
255 255 255
255 255 255
255 255 255
255 255 255
255 255 255
255 255 255
255 255 255
255 255 255
255 255 255
255 255 255
255 255 255
255 255 255
255 255 255
255 255 255
255 255 255
255 255 255
255 255 255
255 255 255
255 255 255
255 255 255
255 255 255
255 255 255
255 255 255
255 255 255
255 255 255
255 255 255
255 255 255
255 255 255
255 255 255
255 255 255
255 255 255
255 255 255
255 255 255
255 255 255
255 255 255
255 255 255
255 255 255
255 255 255
255 255 255
255 255 255
255 255 255
255 255 255
255 255 255
255 255 255
255 255 255
255 255 255
255 255 255
255 255 255
255 255 255
255 255 255
255 255 255
255 255 255
255 255 255
255 255 255
255 255 255
255 255 255
255 255 255
255 255 255
255 255 255
255 255 255
255 255 255
255 255 255
255 255 255
255 255 255
255 255 255
255 255 255
255 255 255
255 255 255
255 255 255
255 255 255
255 255 255
255 255 255
255 255 255
255 255 255
255 255 255
255 255 255
255 255 255
255 255 255
255 255 255
255 255 255
255 255 255
255 255 255
255 255 255
255 255 255
255 255 255
255 255 255
255 255 255
255 255 255
255 255 255
255 255 255
255 255 255
255 255 255
255 255 255
255 255 255
255 255 255
255 255 255
255 255 255
255 255 255
255 255 255
255 255 255
255 255 255
255 255 255
255 255 255
255 255 255
255 255 255
255 255 255
255 255 255
255 255 255
255 255 255
255 255 255
255 255 255
255 255 255
255 255 255
255 255 255
255 255 255
255 255 255
255 255 255
255 255 255
255 255 255
255 255 255
255 255 255
255 255 255
255 255 255
255 255 255
249 249 249
239 239 239
234 234 234
238 238 238
250 250 250
253 253 253
255 255 255
255 255 255
255 255 255
255 255 255
255 255 255
255 255 255
255 255 255
255 255 255
255 255 255
255 255 255
255 255 255
255 255 255
255 255 255
255 255 255
255 255 255
255 255 255
255 255 255
255 255 255
255 255 255
255 255 255
252 252 252
243 243 243
233 233 233
238 238 238
253 253 253
255 255 255
255 255 255
255 255 255
255 255 255
255 255 255
255 255 255
255 255 255
255 255 255
255 255 255
255 255 255
255 255 255
255 255 255
255 255 255
255 255 255
255 255 255
255 255 255
255 255 255
255 255 255
255 255 255
255 255 255
255 255 255
255 255 255
255 255 255
255 255 255
255 255 255
255 255 255
255 255 255
255 255 255
255 255 255
255 255 255
248 248 248
227 227 227
194 194 194
169 169 169
151 151 151
158 158 158
149 149 149
165 165 165
177 177 177
215 215 215
248 248 248
255 255 255
255 255 255
255 255 255
255 255 255
255 255 255
255 255 255
255 255 255
255 255 255
255 255 255
255 255 255
255 255 255
255 255 255
255 255 255
255 255 255
255 255 255
247 247 247
207 207 207
173 173 173
146 146 146
164 164 164
137 137 137
140 140 140
176 176 176
197 197 197
226 226 226
250 250 250
255 255 255
255 255 255
255 255 255
255 255 255
255 255 255
255 255 255
255 255 255
255 255 255
255 255 255
255 255 255
255 255 255
255 255 255
255 255 255
255 255 255
255 255 255
255 255 255
255 255 255
255 255 255
255 255 255
255 255 255
255 255 255
255 255 255
255 255 255
255 255 255
255 255 255
255 255 255
245 245 245
206 206 206
145 145 145
120 120 120
84 84 84
84 84 84
83 83 83
85 85 85
85 85 85
102 102 102
130 130 130
175 175 175
226 226 226
254 254 254
255 255 255
255 255 255
255 255 255
255 255 255
255 255 255
255 255 255
255 255 255
255 255 255
255 255 255
255 255 255
255 255 255
254 254 254
223 223 223
184 184 184
120 120 120
102 102 102
88 88 88
86 86 86
78 78 78
87 87 87
83 83 83
120 120 120
135 135 135
208 208 208
239 239 239
255 255 255
255 255 255
255 255 255
255 255 255
255 255 255
255 255 255
255 255 255
255 255 255
255 255 255
255 255 255
255 255 255
255 255 255
255 255 255
255 255 255
255 255 255
255 255 255
255 255 255
255 255 255
255 255 255
255 255 255
255 255 255
255 255 255
255 255 255
255 255 255
240 240 240
175 175 175
122 122 122
94 94 94
85 85 85
87 87 87
81 81 81
82 82 82
84 84 84
78 78 78
85 85 85
84 84 84
95 95 95
136 136 136
218 218 218
250 250 250
255 255 255
255 255 255
255 255 255
255 255 255
255 255 255
255 255 255
255 255 255
255 255 255
255 255 255
255 255 255
218 218 218
147 147 147
88 88 88
80 80 80
80 80 80
90 90 90
76 76 76
69 69 69
88 88 88
84 84 84
86 86 86
87 87 87
112 112 112
165 165 165
238 238 238
255 255 255
255 255 255
255 255 255
255 255 255
255 255 255
255 255 255
255 255 255
255 255 255
255 255 255
255 255 255
255 255 255
255 255 255
255 255 255
255 255 255
255 255 255
255 255 255
255 255 255
255 255 255
255 255 255
255 255 255
255 255 255
255 255 255
245 245 245
191 191 191
104 104 104
75 75 75
83 83 83
75 75 75
92 92 92
79 79 79
78 78 78
76 76 76
84 84 84
83 83 83
80 80 80
85 85 85
85 85 85
155 155 155
224 224 224
255 255 255
255 255 255
255 255 255
255 255 255
255 255 255
255 255 255
255 255 255
255 255 255
255 255 255
234 234 234
146 146 146
85 85 85
74 74 74
80 80 80
71 71 71
84 84 84
89 89 89
77 77 77
77 77 77
82 82 82
84 84 84
84 84 84
83 83 83
105 105 105
188 188 188
241 241 241
255 255 255
255 255 255
255 255 255
255 255 255
255 255 255
255 255 255
255 255 255
255 255 255
255 255 255
255 255 255
255 255 255
255 255 255
255 255 255
255 255 255
255 255 255
255 255 255
255 255 255
255 255 255
255 255 255
255 255 255
255 255 255
216 216 216
124 124 124
81 81 81
79 79 79
82 82 82
83 83 83
72 72 72
71 71 71
77 77 77
76 76 76
83 83 83
82 82 82
75 75 75
79 79 79
84 84 84
91 91 91
164 164 164
246 246 246
255 255 255
255 255 255
255 255 255
255 255 255
255 255 255
255 255 255
255 255 255
247 247 247
171 171 171
89 89 89
84 84 84
73 73 73
80 80 80
86 86 86
72 72 72
74 74 74
77 77 77
78 78 78
74 74 74
79 79 79
82 82 82
80 80 80
78 78 78
124 124 124
203 203 203
255 255 255
255 255 255
255 255 255
255 255 255
255 255 255
255 255 255
255 255 255
255 255 255
255 255 255
255 255 255
255 255 255
255 255 255
255 255 255
255 255 255
255 255 255
255 255 255
255 255 255
255 255 255
255 255 255
255 255 255
250 250 250
163 163 163
83 83 83
80 80 80
79 79 79
66 66 66
74 74 74
82 82 82
81 81 81
72 72 72
80 80 80
83 83 83
73 73 73
74 74 74
71 71 71
77 77 77
74 74 74
105 105 105
218 218 218
255 255 255
255 255 255
255 255 255
255 255 255
255 255 255
255 255 255
255 255 255
212 212 212
125 125 125
62 62 62
73 73 73
76 76 76
75 75 75
72 72 72
81 81 81
75 75 75
73 73 73
83 83 83
78 78 78
75 75 75
83 83 83
74 74 74
75 75 75
78 78 78
157 157 157
252 252 252
255 255 255
255 255 255
255 255 255
255 255 255
255 255 255
255 255 255
255 255 255
255 255 255
255 255 255
255 255 255
255 255 255
255 255 255
255 255 255
255 255 255
255 255 255
255 255 255
255 255 255
255 255 255
255 255 255
223 223 223
142 142 142
76 76 76
71 71 71
78 78 78
73 73 73
75 75 75
79 79 79
68 68 68
71 71 71
88 88 88
77 77 77
77 77 77
76 76 76
73 73 73
69 69 69
66 66 66
81 81 81
194 194 194
255 255 255
255 255 255
255 255 255
255 255 255
255 255 255
255 255 255
255 255 255
181 181 181
79 79 79
68 68 68
69 69 69
72 72 72
69 69 69
73 73 73
72 72 72
75 75 75
75 75 75
72 72 72
75 75 75
78 78 78
81 81 81
75 75 75
70 70 70
66 66 66
142 142 142
219 219 219
255 255 255
255 255 255
255 255 255
255 255 255
255 255 255
255 255 255
255 255 255
255 255 255
255 255 255
255 255 255
255 255 255
255 255 255
255 255 255
255 255 255
255 255 255
255 255 255
255 255 255
255 255 255
255 255 255
190 190 190
111 111 111
62 62 62
75 75 75
77 77 77
69 69 69
73 73 73
69 69 69
74 74 74
61 61 61
73 73 73
77 77 77
69 69 69
59 59 59
65 65 65
59 59 59
59 59 59
59 59 59
165 165 165
253 253 253
255 255 255
255 255 255
255 255 255
255 255 255
255 255 255
255 255 255
150 150 150
59 59 59
64 64 64
66 66 66
66 66 66
65 65 65
69 69 69
72 72 72
75 75 75
71 71 71
71 71 71
68 68 68
70 70 70
65 65 65
72 72 72
67 67 67
66 66 66
113 113 113
207 207 207
255 255 255
255 255 255
255 255 255
255 255 255
255 255 255
255 255 255
255 255 255
255 255 255
255 255 255
255 255 255
255 255 255
255 255 255
255 255 255
255 255 255
255 255 255
255 255 255
255 255 255
255 255 255
255 255 255
202 202 202
112 112 112
62 62 62
67 67 67
71 71 71
73 73 73
56 56 56
69 69 69
69 69 69
72 72 72
74 74 74
62 62 62
65 65 65
65 65 65
68 68 68
52 52 52
58 58 58
51 51 51
151 151 151
254 254 254
255 255 255
255 255 255
255 255 255
255 255 255
255 255 255
254 254 254
132 132 132
52 52 52
58 58 58
59 59 59
60 60 60
71 71 71
60 60 60
65 65 65
68 68 68
62 62 62
64 64 64
68 68 68
72 72 72
63 63 63
72 72 72
68 68 68
68 68 68
96 96 96
180 180 180
255 255 255
255 255 255
255 255 255
255 255 255
255 255 255
255 255 255
255 255 255
255 255 255
255 255 255
255 255 255
255 255 255
255 255 255
255 255 255
255 255 255
255 255 255
255 255 255
255 255 255
255 255 255
255 255 255
214 214 214
104 104 104
71 71 71
64 64 64
68 68 68
61 61 61
72 72 72
61 61 61
64 64 64
59 59 59
61 61 61
62 62 62
63 63 63
68 68 68
60 60 60
53 53 53
56 56 56
53 53 53
143 143 143
253 253 253
255 255 255
255 255 255
255 255 255
255 255 255
255 255 255
254 254 254
159 159 159
41 41 41
53 53 53
58 58 58
59 59 59
65 65 65
65 65 65
59 59 59
62 62 62
59 59 59
64 64 64
64 64 64
64 64 64
60 60 60
59 59 59
70 70 70
64 64 64
106 106 106
185 185 185
255 255 255
255 255 255
255 255 255
255 255 255
255 255 255
255 255 255
255 255 255
255 255 255
255 255 255
255 255 255
255 255 255
255 255 255
255 255 255
255 255 255
255 255 255
255 255 255
255 255 255
255 255 255
255 255 255
211 211 211
121 121 121
65 65 65
62 62 62
56 56 56
57 57 57
54 54 54
56 56 56
59 59 59
61 61 61
57 57 57
68 68 68
67 67 67
57 57 57
50 50 50
55 55 55
46 46 46
60 60 60
146 146 146
228 228 228
219 219 219
231 231 231
236 236 236
233 233 233
234 234 234
237 237 237
152 152 152
55 55 55
48 48 48
53 53 53
52 52 52
57 57 57
61 61 61
50 50 50
62 62 62
60 60 60
61 61 61
63 63 63
56 56 56
62 62 62
58 58 58
63 63 63
59 59 59
127 127 127
213 213 213
255 255 255
255 255 255
255 255 255
255 255 255
255 255 255
255 255 255
255 255 255
255 255 255
255 255 255
249 249 249
251 251 251
240 240 240
237 237 237
237 237 237
232 232 232
222 222 222
223 223 223
220 220 220
207 207 207
193 193 193
121 121 121
56 56 56
59 59 59
56 56 56
62 62 62
57 57 57
56 56 56
59 59 59
58 58 58
54 54 54
52 52 52
54 54 54
55 55 55
44 44 44
53 53 53
45 45 45
79 79 79
128 128 128
167 167 167
170 170 170
160 160 160
163 163 163
160 160 160
165 165 165
163 163 163
121 121 121
73 73 73
40 40 40
50 50 50
56 56 56
51 51 51
51 51 51
53 53 53
46 46 46
54 54 54
55 55 55
58 58 58
52 52 52
49 49 49
59 59 59
60 60 60
52 52 52
129 129 129
188 188 188
221 221 221
224 224 224
220 220 220
230 230 230
238 238 238
234 234 234
244 244 244
239 239 239
248 248 248
181 181 181
187 187 187
175 175 175
171 171 171
159 159 159
160 160 160
161 161 161
165 165 165
152 152 152
148 148 148
150 150 150
114 114 114
68 68 68
44 44 44
50 50 50
52 52 52
54 54 54
51 51 51
48 48 48
49 49 49
53 53 53
45 45 45
46 46 46
43 43 43
46 46 46
47 47 47
44 44 44
77 77 77
120 120 120
124 124 124
125 125 125
125 125 125
124 124 124
124 124 124
124 124 124
125 125 125
117 117 117
79 79 79
45 45 45
37 37 37
44 44 44
49 49 49
42 42 42
44 44 44
52 52 52
47 47 47
53 53 53
49 49 49
51 51 51
51 51 51
45 45 45
51 51 51
65 65 65
108 108 108
153 153 153
147 147 147
148 148 148
154 154 154
165 165 165
174 174 174
169 169 169
167 167 167
174 174 174
178 178 178
125 125 125
124 124 124
124 124 124
125 125 125
124 124 124
124 124 124
126 126 126
126 126 126
123 123 123
124 124 124
125 125 125
121 121 121
97 97 97
57 57 57
47 47 47
44 44 44
44 44 44
44 44 44
43 43 43
43 43 43
40 40 40
47 47 47
44 44 44
44 44 44
41 41 41
40 40 40
64 64 64
109 109 109
122 122 122
124 124 124
121 121 121
124 124 124
123 123 123
123 123 123
119 119 119
119 119 119
120 120 120
108 108 108
61 61 61
32 32 32
39 39 39
40 40 40
41 41 41
47 47 47
42 42 42
51 51 51
47 47 47
51 51 51
43 43 43
48 48 48
49 49 49
64 64 64
95 95 95
121 121 121
123 123 123
124 124 124
126 126 126
124 124 124
123 123 123
125 125 125
127 127 127
124 124 124
123 123 123
126 126 126
125 125 125
125 125 125
124 124 124
125 125 125
125 125 125
124 124 124
124 124 124
123 123 123
124 124 124
124 124 124
123 123 123
122 122 122
118 118 118
84 84 84
55 55 55
39 39 39
40 40 40
34 34 34
40 40 40
36 36 36
37 37 37
33 33 33
41 41 41
33 33 33
32 32 32
51 51 51
89 89 89
110 110 110
112 112 112
115 115 115
111 111 111
114 114 114
114 114 114
114 114 114
117 117 117
104 104 104
114 114 114
108 108 108
80 80 80
55 55 55
39 39 39
36 36 36
41 41 41
34 34 34
38 38 38
35 35 35
40 40 40
42 42 42
41 41 41
47 47 47
58 58 58
88 88 88
111 111 111
124 124 124
124 124 124
124 124 124
122 122 122
124 124 124
122 122 122
126 126 126
127 127 127
124 124 124
125 125 125
126 126 126
121 121 121
125 125 125
125 125 125
123 123 123
126 126 126
123 123 123
119 119 119
122 122 122
118 118 118
119 119 119
118 118 118
109 109 109
113 113 113
95 95 95
73 73 73
46 46 46
35 35 35
29 29 29
30 30 30
26 26 26
25 25 25
25 25 25
19 19 19
19 19 19
29 29 29
56 56 56
74 74 74
84 84 84
94 94 94
97 97 97
104 104 104
104 104 104
110 110 110
107 107 107
93 93 93
99 99 99
92 92 92
83 83 83
79 79 79
53 53 53
30 30 30
21 21 21
24 24 24
22 22 22
27 27 27
25 25 25
35 35 35
37 37 37
32 32 32
55 55 55
73 73 73
96 96 96
112 112 112
112 112 112
120 120 120
121 121 121
121 121 121
122 122 122
124 124 124
123 123 123
123 123 123
123 123 123
124 124 124
124 124 124
123 123 123
124 124 124
120 120 120
121 121 121
122 122 122
119 119 119
116 116 116
118 118 118
112 112 112
114 114 114
106 106 106
100 100 100
91 91 91
82 82 82
82 82 82
52 52 52
23 23 23
14 14 14
13 13 13
16 16 16
12 12 12
14 14 14
14 14 14
23 23 23
30 30 30
51 51 51
57 57 57
85 85 85
79 79 79
88 88 88
97 97 97
96 96 96
93 93 93
100 100 100
95 95 95
91 91 91
85 85 85
72 72 72
53 53 53
50 50 50
30 30 30
22 22 22
16 16 16
16 16 16
12 12 12
15 15 15
9 9 9
17 17 17
31 31 31
49 49 49
66 66 66
81 81 81
84 84 84
90 90 90
102 102 102
112 112 112
113 113 113
118 118 118
121 121 121
121 121 121
119 119 119
119 119 119
121 121 121
124 124 124
123 123 123
121 121 121
121 121 121
121 121 121
117 117 117
112 112 112
116 116 116
111 111 111
102 102 102
97 97 97
91 91 91
88 88 88
73 73 73
69 69 69
49 49 49
44 44 44
31 31 31
31 31 31
18 18 18
23 23 23
28 28 28
39 39 39
35 35 35
46 46 46
55 55 55
65 65 65
73 73 73
87 87 87
93 93 93
94 94 94
100 100 100
95 95 95
110 110 110
96 96 96
93 93 93
91 91 91
89 89 89
89 89 89
65 65 65
60 60 60
57 57 57
33 33 33
33 33 33
28 28 28
24 24 24
30 30 30
21 21 21
23 23 23
36 36 36
42 42 42
54 54 54
60 60 60
79 79 79
85 85 85
88 88 88
106 106 106
105 105 105
113 113 113
109 109 109
120 120 120
119 119 119
118 118 118
122 122 122
125 125 125
123 123 123
118 118 118
118 118 118
118 118 118
115 115 115
114 114 114
103 103 103
108 108 108
99 99 99
103 103 103
91 91 91
96 96 96
79 79 79
76 76 76
69 69 69
70 70 70
63 63 63
63 63 63
61 61 61
59 59 59
62 62 62
56 56 56
65 65 65
77 77 77
82 82 82
95 95 95
100 100 100
97 97 97
109 109 109
105 105 105
104 104 104
107 107 107
104 104 104
99 99 99
105 105 105
99 99 99
101 101 101
104 104 104
100 100 100
85 85 85
84 84 84
80 80 80
77 77 77
61 61 61
56 56 56
59 59 59
70 70 70
59 59 59
67 67 67
60 60 60
68 68 68
79 79 79
87 87 87
90 90 90
95 95 95
93 93 93
99 99 99
107 107 107
106 106 106
117 117 117
111 111 111
115 115 115
120 120 120
123 123 123
118 118 118
116 116 116
121 121 121
115 115 115
114 114 114
110 110 110
114 114 114
103 103 103
105 105 105
103 103 103
103 103 103
100 100 100
93 93 93
88 88 88
94 94 94
98 98 98
90 90 90
88 88 88
89 89 89
88 88 88
89 89 89
101 101 101
96 96 96
101 101 101
103 103 103
105 105 105
109 109 109
108 108 108
113 113 113
110 110 110
114 114 114
110 110 110
113 113 113
107 107 107
114 114 114
111 111 111
111 111 111
113 113 113
104 104 104
104 104 104
105 105 105
109 109 109
105 105 105
100 100 100
99 99 99
84 84 84
99 99 99
82 82 82
90 90 90
88 88 88
84 84 84
88 88 88
92 92 92
105 105 105
98 98 98
101 101 101
105 105 105
112 112 112
105 105 105
101 101 101
112 112 112
117 117 117
120 120 120
121 121 121
118 118 118
115 115 115
113 113 113
112 112 112
115 115 115
118 118 118
114 114 114
112 112 112
111 111 111
109 109 109
115 115 115
109 109 109
106 106 106
109 109 109
101 101 101
107 107 107
100 100 100
103 103 103
104 104 104
107 107 107
108 108 108
109 109 109
111 111 111
110 110 110
116 116 116
113 113 113
117 117 117
117 117 117
116 116 116
118 118 118
123 123 123
117 117 117
120 120 120
114 114 114
113 113 113
117 117 117
115 115 115
114 114 114
110 110 110
113 113 113
113 113 113
112 112 112
115 115 115
111 111 111
106 106 106
107 107 107
107 107 107
105 105 105
105 105 105
108 108 108
105 105 105
103 103 103
109 109 109
107 107 107
108 108 108
112 112 112
110 110 110
113 113 113
110 110 110
113 113 113
108 108 108
118 118 118
115 115 115
123 123 123
120 120 120
122 122 122
118 118 118
114 114 114
117 117 117
113 113 113
110 110 110
115 115 115
115 115 115
112 112 112
114 114 114
113 113 113
115 115 115
115 115 115
108 108 108
111 111 111
115 115 115
111 111 111
113 113 113
114 114 114
111 111 111
114 114 114
120 120 120
119 119 119
120 120 120
115 115 115
125 125 125
122 122 122
118 118 118
118 118 118
120 120 120
116 116 116
118 118 118
117 117 117
116 116 116
119 119 119
117 117 117
119 119 119
117 117 117
117 117 117
113 113 113
117 117 117
112 112 112
105 105 105
113 113 113
113 113 113
117 117 117
111 111 111
116 116 116
108 108 108
111 111 111
116 116 116
115 115 115
108 108 108
114 114 114
112 112 112
110 110 110
116 116 116
113 113 113
120 120 120
115 115 115
121 121 121
119 119 119
117 117 117
121 121 121
118 118 118
117 117 117
120 120 120
113 113 113
118 118 118
119 119 119
115 115 115
114 114 114
116 116 116
118 118 118
116 116 116
117 117 117
120 120 120
109 109 109
116 116 116
116 116 116
118 118 118
122 122 122
117 117 117
119 119 119
119 119 119
117 117 117
118 118 118
121 121 121
118 118 118
120 120 120
120 120 120
118 118 118
115 115 115
122 122 122
123 123 123
118 118 118
124 124 124
121 121 121
116 116 116
116 116 116
118 118 118
117 117 117
120 120 120
114 114 114
118 118 118
120 120 120
117 117 117
116 116 116
113 113 113
117 117 117
115 115 115
119 119 119
121 121 121
115 115 115
116 116 116
115 115 115
120 120 120
112 112 112
113 113 113
116 116 116
119 119 119
118 118 118
117 117 117
114 114 114
118 118 118
117 117 117
116 116 116
122 122 122
119 119 119
122 122 122
120 120 120
113 113 113
116 116 116
120 120 120
119 119 119
116 116 116
116 116 116
122 122 122
118 118 118
117 117 117
119 119 119
112 112 112
121 121 121
121 121 121
120 120 120
118 118 118
122 122 122
120 120 120
117 117 117
116 116 116
123 123 123
121 121 121
123 123 123
121 121 121
124 124 124
121 121 121
118 118 118
118 118 118
123 123 123
121 121 121
119 119 119
122 122 122
122 122 122
119 119 119
118 118 118
120 120 120
121 121 121
121 121 121
120 120 120
119 119 119
121 121 121
123 123 123
118 118 118
119 119 119
120 120 120
118 118 118
118 118 118
120 120 120
119 119 119
118 118 118
115 115 115
121 121 121
120 120 120
114 114 114
120 120 120
119 119 119
119 119 119
120 120 120
118 118 118
120 120 120
117 117 117
120 120 120
119 119 119
124 124 124
124 124 124
123 123 123
122 122 122
124 124 124
123 123 123
119 119 119
121 121 121
117 117 117
117 117 117
115 115 115
118 118 118
120 120 120
119 119 119
120 120 120
122 122 122
120 120 120
119 119 119
122 122 122
121 121 121
120 120 120
118 118 118
120 120 120
122 122 122
121 121 121
122 122 122
118 118 118
126 126 126
117 117 117
119 119 119
120 120 120
120 120 120
123 123 123
119 119 119
120 120 120
122 122 122
119 119 119
117 117 117
119 119 119
122 122 122
119 119 119
123 123 123
121 121 121
120 120 120
121 121 121
120 120 120
122 122 122
120 120 120
119 119 119
119 119 119
119 119 119
120 120 120
121 121 121
115 115 115
123 123 123
120 120 120
117 117 117
120 120 120
122 122 122
118 118 118
113 113 113
120 120 120
119 119 119
123 123 123
115 115 115
121 121 121
117 117 117
117 117 117
122 122 122
122 122 122
121 121 121
124 124 124
123 123 123
120 120 120
120 120 120
123 123 123
120 120 120
122 122 122
119 119 119
121 121 121
122 122 122
118 118 118
121 121 121
121 121 121
122 122 122
120 120 120
120 120 120
120 120 120
123 123 123
124 124 124
121 121 121
123 123 123
123 123 123
121 121 121
122 122 122
117 117 117
122 122 122
121 121 121
120 120 120
122 122 122
123 123 123
124 124 124
124 124 124
124 124 124
124 124 124
120 120 120
120 120 120
121 121 121
120 120 120
124 124 124
121 121 121
121 121 121
122 122 122
121 121 121
117 117 117
118 118 118
121 121 121
118 118 118
124 124 124
122 122 122
122 122 122
122 122 122
119 119 119
120 120 120
121 121 121
121 121 121
122 122 122
122 122 122
121 121 121
121 121 121
123 123 123
122 122 122
122 122 122
123 123 123
124 124 124
123 123 123
124 124 124
120 120 120
120 120 120
120 120 120
125 125 125
123 123 123
126 126 126
122 122 122
120 120 120
120 120 120
122 122 122
122 122 122
123 123 123
124 124 124
124 124 124
121 121 121
121 121 121
120 120 120
123 123 123
123 123 123
123 123 123
121 121 121
124 124 124
119 119 119
123 123 123
118 118 118
122 122 122
120 120 120
121 121 121
120 120 120
123 123 123
120 120 120
123 123 123
123 123 123
121 121 121
122 122 122
121 121 121
121 121 121
119 119 119
122 122 122
121 121 121
122 122 122
122 122 122
122 122 122
122 122 122
123 123 123
122 122 122
120 120 120
122 122 122
122 122 122
123 123 123
123 123 123
122 122 122
120 120 120
122 122 122
120 120 120
121 121 121
121 121 121
123 123 123
123 123 123
122 122 122
120 120 120
120 120 120
123 123 123
124 124 124
123 123 123
120 120 120
120 120 120
119 119 119
122 122 122
123 123 123
121 121 121
123 123 123
121 121 121
123 123 123
121 121 121
120 120 120
122 122 122
120 120 120
123 123 123
123 123 123
123 123 123
123 123 123
120 120 120
123 123 123
123 123 123
122 122 122
123 123 123
123 123 123
123 123 123
125 125 125
122 122 122
124 124 124
123 123 123
122 122 122
122 122 122
120 120 120
124 124 124
123 123 123
122 122 122
124 124 124
124 124 124
122 122 122
120 120 120
124 124 124
124 124 124
121 121 121
121 121 121
122 122 122
123 123 123
125 125 125
124 124 124
120 120 120
124 124 124
122 122 122
124 124 124
124 124 124
120 120 120
122 122 122
124 124 124
120 120 120
123 123 123
122 122 122
122 122 122
122 122 122
125 125 125
121 121 121
122 122 122
118 118 118
122 122 122
124 124 124
121 121 121
124 124 124
122 122 122
122 122 122
121 121 121
125 125 125
122 122 122
125 125 125
123 123 123
124 124 124
121 121 121
126 126 126
124 124 124
121 121 121
125 125 125
123 123 123
122 122 122
121 121 121
124 124 124
125 125 125
123 123 123
119 119 119
122 122 122
124 124 124
122 122 122
121 121 121
123 123 123
123 123 123
122 122 122
124 124 124
125 125 125
124 124 124
123 123 123
121 121 121
122 122 122
125 125 125
123 123 123
122 122 122
123 123 123
120 120 120
122 122 122
124 124 124
124 124 124
124 124 124
122 122 122
119 119 119
122 122 122
122 122 122
121 121 121
123 123 123
124 124 124
122 122 122
120 120 120
125 125 125
122 122 122
121 121 121
122 122 122
121 121 121
120 120 120
123 123 123
121 121 121
121 121 121
121 121 121
125 125 125
125 125 125
123 123 123
125 125 125
120 120 120
122 122 122
122 122 122
123 123 123
122 122 122
120 120 120
123 123 123
124 124 124
124 124 124
123 123 123
124 124 124
124 124 124
122 122 122
124 124 124
123 123 123
120 120 120
123 123 123
122 122 122
122 122 122
122 122 122
122 122 122
123 123 123
124 124 124
125 125 125
122 122 122
125 125 125
123 123 123
122 122 122
122 122 122
122 122 122
121 121 121
123 123 123
122 122 122
123 123 123
123 123 123
122 122 122
124 124 124
125 125 125
125 125 125
123 123 123
122 122 122
123 123 123
123 123 123
123 123 123
122 122 122
123 123 123
122 122 122
126 126 126
122 122 122
123 123 123
123 123 123
120 120 120
123 123 123
123 123 123
124 124 124
122 122 122
124 124 124
125 125 125
123 123 123
124 124 124
124 124 124
125 125 125
122 122 122
122 122 122
122 122 122
123 123 123
124 124 124
124 124 124
124 124 124
126 126 126
124 124 124
122 122 122
124 124 124
123 123 123
122 122 122
122 122 122
122 122 122
121 121 121
125 125 125
120 120 120
124 124 124
118 118 118
123 123 123
124 124 124
124 124 124
125 125 125
125 125 125
120 120 120
125 125 125
123 123 123
122 122 122
121 121 121
123 123 123
122 122 122
125 125 125
121 121 121
123 123 123
124 124 124
126 126 126
120 120 120
124 124 124
124 124 124
123 123 123
124 124 124
124 124 124
123 123 123
121 121 121
125 125 125
122 122 122
123 123 123
124 124 124
124 124 124
125 125 125
123 123 123
123 123 123
125 125 125
125 125 125
125 125 125
124 124 124
120 120 120
125 125 125
123 123 123
119 119 119
125 125 125
124 124 124
122 122 122
125 125 125
123 123 123
124 124 124
122 122 122
126 126 126
124 124 124
123 123 123
123 123 123
124 124 124
124 124 124
123 123 123
124 124 124
125 125 125
123 123 123
125 125 125
122 122 122
120 120 120
124 124 124
122 122 122
123 123 123
125 125 125
123 123 123
125 125 125
124 124 124
121 121 121
122 122 122
124 124 124
123 123 123
121 121 121
125 125 125
122 122 122
124 124 124
124 124 124
118 118 118
124 124 124
126 126 126
125 125 125
125 125 125
120 120 120
125 125 125
122 122 122
124 124 124
122 122 122
121 121 121
124 124 124
123 123 123
123 123 123
124 124 124
125 125 125
127 127 127
124 124 124
124 124 124
124 124 124
124 124 124
123 123 123
124 124 124
126 126 126
119 119 119
124 124 124
124 124 124
124 124 124
125 125 125
121 121 121
123 123 123
125 125 125
123 123 123
123 123 123
122 122 122
125 125 125
125 125 125
123 123 123
123 123 123
121 121 121
124 124 124
121 121 121
124 124 124
124 124 124
123 123 123
123 123 123
120 120 120
124 124 124
123 123 123
125 125 125
125 125 125
123 123 123
125 125 125
123 123 123
121 121 121
126 126 126
124 124 124
123 123 123
120 120 120
122 122 122
122 122 122
126 126 126
126 126 126
124 124 124
124 124 124
127 127 127
126 126 126
124 124 124
125 125 125
122 122 122
124 124 124
120 120 120
122 122 122
120 120 120
124 124 124
125 125 125
126 126 126
125 125 125
124 124 124
124 124 124
122 122 122
124 124 124
125 125 125
125 125 125
124 124 124
125 125 125
125 125 125
123 123 123
126 126 126
125 125 125
121 121 121
124 124 124
125 125 125
121 121 121
124 124 124
120 120 120
125 125 125
125 125 125
125 125 125
123 123 123
121 121 121
121 121 121
125 125 125
125 125 125
123 123 123
126 126 126
124 124 124
123 123 123
125 125 125
125 125 125
121 121 121
124 124 124
124 124 124
121 121 121
125 125 125
124 124 124
122 122 122
122 122 122
122 122 122
123 123 123
125 125 125
125 125 125
124 124 124
123 123 123
121 121 121
124 124 124
124 124 124
123 123 123
122 122 122
122 122 122
123 123 123
126 126 126
123 123 123
123 123 123
123 123 123
122 122 122
124 124 124
120 120 120
124 124 124
123 123 123
121 121 121
120 120 120
122 122 122
123 123 123
124 124 124
122 122 122
121 121 121
122 122 122
119 119 119
125 125 125
124 124 124
124 124 124
124 124 124
123 123 123
125 125 125
124 124 124
123 123 123
123 123 123
122 122 122
122 122 122
123 123 123
124 124 124
123 123 123
122 122 122
126 126 126
120 120 120
123 123 123
124 124 124
124 124 124
123 123 123
125 125 125
121 121 121
123 123 123
124 124 124
124 124 124
123 123 123
125 125 125
123 123 123
122 122 122
123 123 123
122 122 122
124 124 124
122 122 122
122 122 122
124 124 124
124 124 124
121 121 121
123 123 123
125 125 125
123 123 123
122 122 122
125 125 125
124 124 124
122 122 122
125 125 125
125 125 125
124 124 124
124 124 124
124 124 124
122 122 122
124 124 124
123 123 123
124 124 124
125 125 125
123 123 123
123 123 123
125 125 125
125 125 125
123 123 123
123 123 123
122 122 122
123 123 123
124 124 124
125 125 125
124 124 124
123 123 123
124 124 124
120 120 120
121 121 121
121 121 121
125 125 125
124 124 124
126 126 126
122 122 122
125 125 125
123 123 123
123 123 123
125 125 125
123 123 123
123 123 123
127 127 127
121 121 121
123 123 123
125 125 125
125 125 125
124 124 124
123 123 123
124 124 124
121 121 121
123 123 123
122 122 122
121 121 121
123 123 123
124 124 124
121 121 121
125 125 125
125 125 125
122 122 122
125 125 125
123 123 123
126 126 126
125 125 125
125 125 125
123 123 123
123 123 123
125 125 125
123 123 123
122 122 122
124 124 124
124 124 124
125 125 125
125 125 125
123 123 123
124 124 124
126 126 126
125 125 125
121 121 121
124 124 124
122 122 122
123 123 123
123 123 123
126 126 126
121 121 121
123 123 123
124 124 124
123 123 123
123 123 123
124 124 124
124 124 124
123 123 123
122 122 122
123 123 123
125 125 125
124 124 124
123 123 123
121 121 121
123 123 123
123 123 123
122 122 122
124 124 124
123 123 123
121 121 121
122 122 122
123 123 123
124 124 124
123 123 123
121 121 121
123 123 123
124 124 124
124 124 124
122 122 122
122 122 122
125 125 125
121 121 121
122 122 122
123 123 123
125 125 125
122 122 122
125 125 125
121 121 121
122 122 122
124 124 124
123 123 123
121 121 121
125 125 125
124 124 124
124 124 124
125 125 125
125 125 125
124 124 124
124 124 124
125 125 125
123 123 123
125 125 125
126 126 126
124 124 124
122 122 122
122 122 122
123 123 123
123 123 123
122 122 122
127 127 127
124 124 124
126 126 126
124 124 124
123 123 123
124 124 124
125 125 125
122 122 122
123 123 123
122 122 122
124 124 124
123 123 123
125 125 125
124 124 124
122 122 122
125 125 125
125 125 125
123 123 123
126 126 126
123 123 123
124 124 124
124 124 124
124 124 124
125 125 125
123 123 123
122 122 122
122 122 122
124 124 124
123 123 123
122 122 122
122 122 122
122 122 122
123 123 123
124 124 124
123 123 123
122 122 122
123 123 123
123 123 123
122 122 122
122 122 122
124 124 124
124 124 124
120 120 120
121 121 121
123 123 123
123 123 123
124 124 124
123 123 123
122 122 122
123 123 123
125 125 125
125 125 125
123 123 123
122 122 122
124 124 124
123 123 123
122 122 122
122 122 122
124 124 124
124 124 124
123 123 123
124 124 124
123 123 123
121 121 121
124 124 124
122 122 122
122 122 122
124 124 124
125 125 125
122 122 122
124 124 124
124 124 124
123 123 123
125 125 125
123 123 123
126 126 126
126 126 126
126 126 126
124 124 124
125 125 125
124 124 124
125 125 125
120 120 120
127 127 127
121 121 121
125 125 125
123 123 123
123 123 123
125 125 125
121 121 121
123 123 123
120 120 120
122 122 122
123 123 123
124 124 124
125 125 125
122 122 122
123 123 123
126 126 126
124 124 124
125 125 125
124 124 124
123 123 123
122 122 122
123 123 123
125 125 125
123 123 123
123 123 123
124 124 124
126 126 126
122 122 122
124 124 124
122 122 122
122 122 122
124 124 124
124 124 124
122 122 122
126 126 126
121 121 121
124 124 124
123 123 123
125 125 125
122 122 122
125 125 125
125 125 125
125 125 125
125 125 125
123 123 123
124 124 124
122 122 122
124 124 124
124 124 124
121 121 121
126 126 126
122 122 122
124 124 124
124 124 124
121 121 121
124 124 124
121 121 121
122 122 122
123 123 123
124 124 124
123 123 123
123 123 123
125 125 125
120 120 120
122 122 122
123 123 123
122 122 122
122 122 122
126 126 126
126 126 126
123 123 123
126 126 126
120 120 120
122 122 122
123 123 123
123 123 123
124 124 124
126 126 126
123 123 123
124 124 124
120 120 120
124 124 124
124 124 124
125 125 125
124 124 124
123 123 123
122 122 122
124 124 124
123 123 123
124 124 124
122 122 122
123 123 123
123 123 123
121 121 121
123 123 123
123 123 123
124 124 124
124 124 124
121 121 121
122 122 122
124 124 124
123 123 123
123 123 123
123 123 123
123 123 123
122 122 122
122 122 122
120 120 120
125 125 125
125 125 125
124 124 124
124 124 124
125 125 125
122 122 122
124 124 124
124 124 124
123 123 123
123 123 123
123 123 123
124 124 124
124 124 124
123 123 123
125 125 125
121 121 121
125 125 125
121 121 121
122 122 122
124 124 124
124 124 124
125 125 125
123 123 123
124 124 124
123 123 123
125 125 125
124 124 124
125 125 125
119 119 119
125 125 125
124 124 124
120 120 120
123 123 123
123 123 123
122 122 122
124 124 124
122 122 122
125 125 125
122 122 122
124 124 124
124 124 124
124 124 124
125 125 125
123 123 123
124 124 124
123 123 123
123 123 123
123 123 123
124 124 124
126 126 126
124 124 124
126 126 126
122 122 122
122 122 122
122 122 122
124 124 124
125 125 125
122 122 122
124 124 124
122 122 122
126 126 126
123 123 123
120 120 120
125 125 125
125 125 125
125 125 125
120 120 120
124 124 124
123 123 123
123 123 123
126 126 126
